<?xml version="1.0" encoding="utf-8"?>
<!-- Generator: Adobe Illustrator 22.0.1, SVG Export Plug-In . SVG Version: 6.00 Build 0)  -->
<svg version="1.1" id="betty-home" xmlns="http://www.w3.org/2000/svg" xmlns:xlink="http://www.w3.org/1999/xlink" x="0px" y="0px"
	 viewBox="0 0 400 602.122" style="enable-background:new 0 0 400 602.122;" xml:space="preserve">
<ellipse style="fill:#D7153A;stroke:#000000;stroke-width:1.5;" cx="96.482" cy="204.217" rx="6.267" ry="6.076"/>
<g>
	<polygon style="stroke:#231F20;" points="126.473,358.938 34.929,358.938 34.929,297.018 101.603,297.018 96.487,203.826 
		110.475,297.018 126.473,297.018 	"/>
	<g>
		<rect x="43.64" y="304.451" style="fill:none;" width="80.484" height="49.542"/>
		<path style="fill:#FFFFFF;" d="M44.738,304.454h4.292c0.85,0,1.483,0.035,1.9,0.106c0.418,0.07,0.791,0.219,1.121,0.443
			c0.329,0.225,0.604,0.523,0.824,0.896c0.219,0.374,0.329,0.793,0.329,1.256c0,0.504-0.136,0.965-0.406,1.385
			c-0.271,0.42-0.639,0.735-1.103,0.945c0.654,0.189,1.157,0.515,1.509,0.974s0.527,0.999,0.527,1.618
			c0,0.489-0.113,0.964-0.341,1.425c-0.227,0.462-0.537,0.83-0.93,1.106c-0.394,0.275-0.878,0.445-1.454,0.509
			c-0.361,0.039-1.233,0.063-2.614,0.073h-3.655V304.454z M46.906,306.241v2.483h1.421c0.845,0,1.369-0.013,1.574-0.037
			c0.371-0.044,0.663-0.172,0.876-0.385c0.212-0.212,0.318-0.491,0.318-0.838c0-0.332-0.092-0.603-0.274-0.81
			c-0.184-0.208-0.456-0.333-0.816-0.378c-0.216-0.023-0.833-0.036-1.854-0.036H46.906z M46.906,310.511v2.871h2.007
			c0.781,0,1.276-0.022,1.486-0.066c0.322-0.059,0.585-0.201,0.788-0.429c0.202-0.227,0.304-0.53,0.304-0.911
			c0-0.322-0.078-0.596-0.234-0.82s-0.382-0.389-0.678-0.491c-0.295-0.103-0.937-0.153-1.922-0.153H46.906z"/>
		<path style="fill:#FFFFFF;" d="M60.053,312.715l2.051,0.345c-0.264,0.752-0.68,1.324-1.249,1.717
			c-0.568,0.394-1.28,0.59-2.135,0.59c-1.353,0-2.354-0.441-3.003-1.326c-0.513-0.707-0.769-1.601-0.769-2.68
			c0-1.289,0.336-2.299,1.01-3.029c0.674-0.729,1.526-1.095,2.557-1.095c1.157,0,2.07,0.382,2.739,1.146
			c0.669,0.764,0.989,1.935,0.96,3.512h-5.156c0.014,0.61,0.18,1.085,0.498,1.425c0.316,0.339,0.712,0.509,1.186,0.509
			c0.322,0,0.594-0.088,0.813-0.264S59.941,313.106,60.053,312.715z M60.17,310.635c-0.015-0.596-0.169-1.049-0.462-1.358
			c-0.293-0.311-0.649-0.465-1.068-0.465c-0.45,0-0.82,0.163-1.113,0.49s-0.438,0.771-0.433,1.333H60.17z"/>
		<path style="fill:#FFFFFF;" d="M67.458,307.413v1.641h-1.406v3.135c0,0.635,0.014,1.005,0.04,1.109
			c0.027,0.105,0.088,0.192,0.184,0.261c0.095,0.068,0.211,0.102,0.348,0.102c0.19,0,0.466-0.065,0.828-0.197l0.176,1.597
			c-0.479,0.205-1.021,0.308-1.627,0.308c-0.371,0-0.705-0.062-1.003-0.187c-0.298-0.125-0.517-0.286-0.655-0.483
			c-0.14-0.198-0.236-0.465-0.289-0.803c-0.045-0.238-0.066-0.722-0.066-1.449v-3.392h-0.945v-1.641h0.945v-1.546l2.065-1.201v2.747
			H67.458z"/>
		<path style="fill:#FFFFFF;" d="M72.453,307.413v1.641h-1.406v3.135c0,0.635,0.014,1.005,0.04,1.109
			c0.027,0.105,0.088,0.192,0.184,0.261c0.095,0.068,0.211,0.102,0.348,0.102c0.19,0,0.466-0.065,0.828-0.197l0.176,1.597
			c-0.479,0.205-1.021,0.308-1.627,0.308c-0.371,0-0.705-0.062-1.003-0.187c-0.298-0.125-0.517-0.286-0.655-0.483
			c-0.14-0.198-0.236-0.465-0.289-0.803c-0.045-0.238-0.066-0.722-0.066-1.449v-3.392h-0.945v-1.641h0.945v-1.546l2.065-1.201v2.747
			H72.453z"/>
		<path style="fill:#FFFFFF;" d="M72.907,307.413h2.19l1.859,5.522l1.816-5.522h2.132l-2.747,7.485l-0.49,1.355
			c-0.181,0.453-0.353,0.8-0.517,1.039c-0.163,0.239-0.352,0.434-0.563,0.583c-0.213,0.148-0.474,0.265-0.784,0.348
			c-0.31,0.083-0.66,0.124-1.051,0.124c-0.396,0-0.784-0.041-1.165-0.124l-0.183-1.611c0.322,0.063,0.612,0.095,0.872,0.095
			c0.478,0,0.832-0.14,1.062-0.421c0.229-0.28,0.405-0.639,0.527-1.073L72.907,307.413z"/>
		<path style="fill:#FFFFFF;" d="M48.605,321.454h2.161v6.797c0,0.889-0.079,1.572-0.234,2.051
			c-0.211,0.625-0.592,1.127-1.143,1.505c-0.553,0.379-1.28,0.568-2.184,0.568c-1.06,0-1.875-0.297-2.445-0.891
			c-0.572-0.593-0.86-1.463-0.865-2.611l2.044-0.234c0.024,0.615,0.114,1.051,0.271,1.305c0.234,0.386,0.591,0.578,1.07,0.578
			c0.482,0,0.824-0.138,1.025-0.414c0.199-0.275,0.3-0.848,0.3-1.717V321.454z"/>
		<path style="fill:#FFFFFF;" d="M52.583,328.192c0-0.684,0.169-1.345,0.505-1.985c0.338-0.639,0.814-1.127,1.433-1.465
			c0.617-0.336,1.308-0.505,2.069-0.505c1.176,0,2.141,0.382,2.893,1.146c0.752,0.764,1.128,1.729,1.128,2.896
			c0,1.177-0.38,2.152-1.139,2.926c-0.76,0.774-1.716,1.161-2.868,1.161c-0.713,0-1.393-0.161-2.039-0.483
			c-0.647-0.322-1.139-0.795-1.477-1.417C52.752,329.843,52.583,329.085,52.583,328.192z M54.692,328.302
			c0,0.771,0.183,1.361,0.55,1.771c0.365,0.41,0.817,0.615,1.354,0.615s0.987-0.205,1.352-0.615c0.363-0.41,0.546-1.005,0.546-1.787
			c0-0.762-0.183-1.348-0.546-1.758c-0.364-0.41-0.814-0.615-1.352-0.615s-0.989,0.205-1.354,0.615
			C54.875,326.939,54.692,327.531,54.692,328.302z"/>
		<path style="fill:#FFFFFF;" d="M64.271,321.454v3.948c0.664-0.777,1.458-1.165,2.381-1.165c0.474,0,0.9,0.088,1.281,0.264
			s0.668,0.4,0.861,0.674c0.192,0.273,0.324,0.576,0.396,0.908c0.07,0.332,0.106,0.848,0.106,1.546v4.562h-2.059v-4.109
			c0-0.814-0.039-1.332-0.117-1.553c-0.078-0.219-0.216-0.394-0.414-0.523c-0.197-0.129-0.445-0.193-0.743-0.193
			c-0.342,0-0.647,0.083-0.915,0.248c-0.27,0.167-0.466,0.417-0.59,0.751c-0.125,0.335-0.188,0.829-0.188,1.483v3.896h-2.058
			v-10.737H64.271z"/>
		<path style="fill:#FFFFFF;" d="M78.459,332.191H76.4v-3.97c0-0.84-0.044-1.383-0.132-1.63c-0.088-0.246-0.23-0.438-0.429-0.574
			c-0.197-0.137-0.436-0.205-0.714-0.205c-0.356,0-0.677,0.098-0.96,0.293s-0.477,0.453-0.582,0.775
			c-0.104,0.322-0.157,0.919-0.157,1.787v3.523h-2.058v-7.778h1.911v1.143c0.679-0.879,1.533-1.318,2.563-1.318
			c0.454,0,0.869,0.082,1.245,0.245c0.376,0.164,0.66,0.373,0.854,0.627c0.192,0.254,0.327,0.541,0.402,0.863
			c0.076,0.322,0.114,0.784,0.114,1.385V332.191z"/>
		<path style="fill:#FFFFFF;" d="M79.82,329.972l2.065-0.315c0.088,0.4,0.266,0.704,0.534,0.912
			c0.269,0.207,0.645,0.312,1.129,0.312c0.531,0,0.932-0.098,1.201-0.293c0.18-0.137,0.271-0.32,0.271-0.55
			c0-0.156-0.049-0.286-0.146-0.388c-0.103-0.098-0.332-0.188-0.688-0.271c-1.66-0.366-2.713-0.7-3.156-1.004
			c-0.615-0.419-0.924-1.003-0.924-1.75c0-0.674,0.267-1.24,0.799-1.699s1.357-0.688,2.476-0.688c1.064,0,1.855,0.174,2.373,0.521
			s0.874,0.859,1.069,1.537l-1.941,0.359c-0.083-0.303-0.24-0.535-0.472-0.695c-0.232-0.162-0.563-0.242-0.993-0.242
			c-0.541,0-0.93,0.076-1.164,0.227c-0.156,0.108-0.234,0.247-0.234,0.418c0,0.146,0.068,0.271,0.205,0.373
			c0.186,0.138,0.826,0.33,1.923,0.579c1.096,0.249,1.861,0.555,2.296,0.915c0.43,0.367,0.645,0.877,0.645,1.531
			c0,0.713-0.298,1.326-0.894,1.838c-0.596,0.514-1.478,0.77-2.644,0.77c-1.061,0-1.898-0.215-2.517-0.645
			C80.415,331.292,80.01,330.709,79.82,329.972z"/>
		<path style="fill:#FFFFFF;" d="M88.411,328.192c0-0.684,0.169-1.345,0.505-1.985c0.338-0.639,0.814-1.127,1.433-1.465
			c0.617-0.336,1.308-0.505,2.069-0.505c1.176,0,2.141,0.382,2.893,1.146c0.752,0.764,1.128,1.729,1.128,2.896
			c0,1.177-0.38,2.152-1.139,2.926c-0.76,0.774-1.716,1.161-2.868,1.161c-0.713,0-1.393-0.161-2.039-0.483
			c-0.647-0.322-1.139-0.795-1.477-1.417C88.58,329.843,88.411,329.085,88.411,328.192z M90.52,328.302
			c0,0.771,0.183,1.361,0.55,1.771c0.365,0.41,0.817,0.615,1.354,0.615s0.987-0.205,1.352-0.615c0.363-0.41,0.546-1.005,0.546-1.787
			c0-0.762-0.183-1.348-0.546-1.758c-0.364-0.41-0.814-0.615-1.352-0.615s-0.989,0.205-1.354,0.615
			C90.703,326.939,90.52,327.531,90.52,328.302z"/>
		<path style="fill:#FFFFFF;" d="M105.125,332.191h-2.059v-3.97c0-0.84-0.044-1.383-0.132-1.63c-0.088-0.246-0.23-0.438-0.429-0.574
			c-0.197-0.137-0.436-0.205-0.714-0.205c-0.356,0-0.677,0.098-0.96,0.293s-0.477,0.453-0.582,0.775
			c-0.104,0.322-0.157,0.919-0.157,1.787v3.523h-2.058v-7.778h1.911v1.143c0.679-0.879,1.533-1.318,2.563-1.318
			c0.454,0,0.869,0.082,1.245,0.245c0.376,0.164,0.66,0.373,0.854,0.627c0.192,0.254,0.327,0.541,0.402,0.863
			c0.076,0.322,0.114,0.784,0.114,1.385V332.191z"/>
		<path style="fill:#FFFFFF;" d="M107.16,321.483h2.059v1.472c0,0.597-0.052,1.066-0.154,1.41c-0.103,0.345-0.297,0.653-0.582,0.927
			c-0.286,0.273-0.648,0.488-1.088,0.645l-0.402-0.85c0.414-0.137,0.71-0.324,0.886-0.563s0.269-0.566,0.278-0.982h-0.996V321.483z"
			/>
		<path style="fill:#FFFFFF;" d="M110.097,329.972l2.065-0.315c0.088,0.4,0.266,0.704,0.534,0.912
			c0.269,0.207,0.645,0.312,1.129,0.312c0.531,0,0.932-0.098,1.201-0.293c0.18-0.137,0.271-0.32,0.271-0.55
			c0-0.156-0.049-0.286-0.146-0.388c-0.103-0.098-0.332-0.188-0.688-0.271c-1.66-0.366-2.713-0.7-3.156-1.004
			c-0.615-0.419-0.924-1.003-0.924-1.75c0-0.674,0.267-1.24,0.799-1.699s1.357-0.688,2.476-0.688c1.064,0,1.855,0.174,2.373,0.521
			s0.874,0.859,1.069,1.537l-1.941,0.359c-0.083-0.303-0.24-0.535-0.472-0.695c-0.232-0.162-0.563-0.242-0.993-0.242
			c-0.541,0-0.93,0.076-1.164,0.227c-0.156,0.108-0.234,0.247-0.234,0.418c0,0.146,0.068,0.271,0.205,0.373
			c0.186,0.138,0.826,0.33,1.923,0.579c1.096,0.249,1.861,0.555,2.296,0.915c0.43,0.367,0.645,0.877,0.645,1.531
			c0,0.713-0.298,1.326-0.894,1.838c-0.596,0.514-1.478,0.77-2.644,0.77c-1.061,0-1.898-0.215-2.517-0.645
			C110.692,331.292,110.288,330.709,110.097,329.972z"/>
		<path style="fill:#FFFFFF;" d="M46.766,338.454v3.948c0.664-0.777,1.458-1.165,2.381-1.165c0.474,0,0.9,0.088,1.281,0.264
			s0.668,0.4,0.861,0.674c0.192,0.273,0.324,0.576,0.396,0.908c0.07,0.332,0.106,0.848,0.106,1.546v4.562h-2.059v-4.109
			c0-0.814-0.039-1.332-0.117-1.553c-0.078-0.219-0.216-0.394-0.414-0.523c-0.197-0.129-0.445-0.193-0.743-0.193
			c-0.342,0-0.647,0.083-0.915,0.248c-0.27,0.167-0.466,0.417-0.59,0.751c-0.125,0.335-0.188,0.829-0.188,1.483v3.896h-2.058
			v-10.737H46.766z"/>
		<path style="fill:#FFFFFF;" d="M53.403,345.192c0-0.684,0.169-1.345,0.505-1.985c0.338-0.639,0.814-1.127,1.433-1.465
			c0.617-0.336,1.308-0.505,2.069-0.505c1.176,0,2.141,0.382,2.893,1.146c0.752,0.764,1.128,1.729,1.128,2.896
			c0,1.177-0.38,2.152-1.139,2.926c-0.76,0.774-1.716,1.161-2.868,1.161c-0.713,0-1.393-0.161-2.039-0.483
			c-0.647-0.322-1.139-0.795-1.477-1.417C53.572,346.843,53.403,346.085,53.403,345.192z M55.512,345.302
			c0,0.771,0.183,1.361,0.55,1.771c0.365,0.41,0.817,0.615,1.354,0.615s0.987-0.205,1.352-0.615c0.363-0.41,0.546-1.005,0.546-1.787
			c0-0.762-0.183-1.348-0.546-1.758c-0.364-0.41-0.814-0.615-1.352-0.615s-0.989,0.205-1.354,0.615
			C55.695,343.939,55.512,344.531,55.512,345.302z"/>
		<path style="fill:#FFFFFF;" d="M62.887,341.413h1.897v1.062c0.678-0.824,1.486-1.237,2.424-1.237c0.498,0,0.93,0.103,1.297,0.308
			c0.365,0.205,0.666,0.516,0.9,0.93c0.342-0.414,0.711-0.725,1.105-0.93c0.396-0.205,0.818-0.308,1.268-0.308
			c0.571,0,1.055,0.116,1.45,0.348c0.396,0.232,0.69,0.573,0.886,1.022c0.142,0.332,0.213,0.869,0.213,1.611v4.973h-2.059v-4.445
			c0-0.771-0.07-1.27-0.212-1.494c-0.19-0.293-0.483-0.439-0.879-0.439c-0.288,0-0.56,0.088-0.813,0.264s-0.437,0.433-0.549,0.772
			c-0.112,0.339-0.168,0.875-0.168,1.607v3.735h-2.059v-4.263c0-0.757-0.037-1.245-0.109-1.465c-0.074-0.22-0.188-0.383-0.341-0.491
			c-0.154-0.106-0.362-0.16-0.626-0.16c-0.318,0-0.604,0.085-0.857,0.256s-0.436,0.418-0.546,0.74
			c-0.109,0.322-0.165,0.856-0.165,1.604v3.779h-2.058V341.413z"/>
		<path style="fill:#FFFFFF;" d="M80.883,346.715l2.051,0.345c-0.264,0.752-0.68,1.324-1.249,1.717
			c-0.568,0.394-1.28,0.59-2.135,0.59c-1.353,0-2.354-0.441-3.003-1.326c-0.513-0.707-0.769-1.601-0.769-2.68
			c0-1.289,0.336-2.299,1.01-3.029c0.674-0.729,1.526-1.095,2.557-1.095c1.157,0,2.07,0.382,2.739,1.146
			c0.669,0.764,0.989,1.935,0.96,3.512h-5.156c0.014,0.61,0.18,1.085,0.498,1.425c0.316,0.339,0.712,0.509,1.186,0.509
			c0.322,0,0.594-0.088,0.813-0.264S80.771,347.106,80.883,346.715z M81.001,344.635c-0.015-0.596-0.169-1.049-0.462-1.358
			c-0.293-0.311-0.649-0.465-1.068-0.465c-0.45,0-0.82,0.163-1.113,0.49s-0.438,0.771-0.433,1.333H81.001z"/>
	</g>
</g>
<g>
	<polygon style="stroke:#231F20;" points="126.152,92.32 225.816,92.32 225.816,158.169 148.492,158.169 130.487,187.826 
		139.621,158.169 126.152,158.169 	"/>
	<g>
		<rect x="134.987" y="101.728" style="fill:none;" width="93.314" height="53.911"/>
		<path style="fill:#FFFFFF;" d="M136.086,112.468v-10.737h2.168v4.226h4.248v-4.226h2.168v10.737h-2.168v-4.695h-4.248v4.695
			H136.086z"/>
		<path style="fill:#FFFFFF;" d="M151.4,109.993l2.051,0.345c-0.264,0.752-0.68,1.324-1.249,1.717
			c-0.568,0.394-1.28,0.59-2.135,0.59c-1.353,0-2.354-0.441-3.003-1.326c-0.513-0.707-0.769-1.601-0.769-2.68
			c0-1.289,0.336-2.299,1.01-3.029c0.674-0.729,1.526-1.095,2.557-1.095c1.157,0,2.07,0.382,2.739,1.146
			c0.669,0.764,0.989,1.935,0.96,3.512h-5.156c0.014,0.61,0.18,1.085,0.498,1.425c0.316,0.339,0.712,0.509,1.186,0.509
			c0.322,0,0.594-0.088,0.813-0.264S151.288,110.383,151.4,109.993z M151.517,107.913c-0.015-0.596-0.169-1.049-0.462-1.358
			c-0.293-0.311-0.649-0.465-1.068-0.465c-0.45,0-0.82,0.163-1.113,0.49s-0.438,0.771-0.433,1.333H151.517z"/>
		<path style="fill:#FFFFFF;" d="M156.776,107.063l-1.868-0.337c0.21-0.752,0.571-1.309,1.084-1.67s1.274-0.542,2.285-0.542
			c0.918,0,1.602,0.108,2.051,0.326c0.449,0.217,0.766,0.493,0.948,0.827c0.184,0.335,0.275,0.949,0.275,1.842l-0.022,2.402
			c0,0.685,0.033,1.188,0.099,1.513c0.066,0.325,0.189,0.673,0.37,1.044h-2.036c-0.054-0.137-0.12-0.339-0.197-0.607
			c-0.035-0.122-0.059-0.203-0.074-0.242c-0.352,0.342-0.728,0.599-1.127,0.77c-0.401,0.17-0.828,0.256-1.282,0.256
			c-0.801,0-1.432-0.217-1.894-0.652c-0.461-0.434-0.691-0.983-0.691-1.647c0-0.439,0.104-0.831,0.314-1.176
			c0.21-0.344,0.504-0.607,0.883-0.791c0.378-0.183,0.924-0.343,1.637-0.479c0.962-0.181,1.628-0.349,2-0.506v-0.205
			c0-0.395-0.099-0.677-0.293-0.846c-0.196-0.168-0.564-0.252-1.106-0.252c-0.366,0-0.651,0.071-0.856,0.216
			C157.069,106.449,156.902,106.702,156.776,107.063z M159.53,108.733c-0.264,0.088-0.682,0.193-1.253,0.315
			s-0.944,0.241-1.12,0.358c-0.27,0.19-0.403,0.433-0.403,0.726c0,0.288,0.107,0.537,0.322,0.746
			c0.215,0.211,0.488,0.315,0.82,0.315c0.371,0,0.726-0.122,1.062-0.366c0.25-0.186,0.413-0.412,0.491-0.682
			c0.054-0.176,0.081-0.51,0.081-1.003V108.733z"/>
		<path style="fill:#FFFFFF;" d="M165.717,112.468l-3.135-7.778h2.161l1.465,3.97l0.425,1.326c0.112-0.338,0.184-0.56,0.213-0.667
			c0.067-0.22,0.141-0.439,0.219-0.659l1.48-3.97h2.116l-3.091,7.778H165.717z"/>
		<path style="fill:#FFFFFF;" d="M170.947,104.69h2.19l1.859,5.522l1.816-5.522h2.132l-2.747,7.485l-0.49,1.355
			c-0.181,0.453-0.353,0.8-0.517,1.039c-0.163,0.239-0.352,0.434-0.563,0.583c-0.213,0.148-0.474,0.265-0.784,0.348
			c-0.31,0.083-0.66,0.124-1.051,0.124c-0.396,0-0.784-0.041-1.165-0.124l-0.183-1.611c0.322,0.063,0.612,0.095,0.872,0.095
			c0.478,0,0.832-0.14,1.062-0.421c0.229-0.28,0.405-0.639,0.527-1.073L170.947,104.69z"/>
		<path style="fill:#FFFFFF;" d="M136.063,129.468v-10.737h2.059v10.737H136.063z"/>
		<path style="fill:#FFFFFF;" d="M139.755,125.469c0-0.684,0.169-1.345,0.505-1.985c0.338-0.639,0.814-1.127,1.433-1.465
			c0.617-0.336,1.308-0.505,2.069-0.505c1.176,0,2.141,0.382,2.893,1.146c0.752,0.764,1.128,1.729,1.128,2.896
			c0,1.177-0.38,2.152-1.139,2.926c-0.76,0.774-1.716,1.161-2.868,1.161c-0.713,0-1.393-0.161-2.039-0.483
			c-0.647-0.322-1.139-0.795-1.477-1.417C139.924,127.121,139.755,126.363,139.755,125.469z M141.865,125.58
			c0,0.771,0.183,1.361,0.55,1.771c0.365,0.41,0.817,0.615,1.354,0.615s0.987-0.205,1.352-0.615c0.363-0.41,0.546-1.005,0.546-1.787
			c0-0.762-0.183-1.348-0.546-1.758c-0.364-0.41-0.814-0.615-1.352-0.615s-0.989,0.205-1.354,0.615
			C142.047,124.216,141.865,124.808,141.865,125.58z"/>
		<path style="fill:#FFFFFF;" d="M148.918,125.469c0-0.684,0.169-1.345,0.505-1.985c0.338-0.639,0.814-1.127,1.433-1.465
			c0.617-0.336,1.308-0.505,2.069-0.505c1.176,0,2.141,0.382,2.893,1.146c0.752,0.764,1.128,1.729,1.128,2.896
			c0,1.177-0.38,2.152-1.139,2.926c-0.76,0.774-1.716,1.161-2.868,1.161c-0.713,0-1.393-0.161-2.039-0.483
			c-0.647-0.322-1.139-0.795-1.477-1.417C149.087,127.121,148.918,126.363,148.918,125.469z M151.027,125.58
			c0,0.771,0.183,1.361,0.55,1.771c0.365,0.41,0.817,0.615,1.354,0.615s0.987-0.205,1.352-0.615c0.363-0.41,0.546-1.005,0.546-1.787
			c0-0.762-0.183-1.348-0.546-1.758c-0.364-0.41-0.814-0.615-1.352-0.615s-0.989,0.205-1.354,0.615
			C151.21,124.216,151.027,124.808,151.027,125.58z"/>
		<path style="fill:#FFFFFF;" d="M162.123,121.69v1.641h-1.406v3.135c0,0.635,0.014,1.005,0.04,1.109
			c0.027,0.105,0.088,0.192,0.184,0.261c0.095,0.068,0.211,0.102,0.348,0.102c0.19,0,0.466-0.065,0.828-0.197l0.176,1.597
			c-0.479,0.205-1.021,0.308-1.627,0.308c-0.371,0-0.705-0.062-1.003-0.187c-0.298-0.125-0.517-0.286-0.655-0.483
			c-0.14-0.198-0.236-0.465-0.289-0.803c-0.045-0.238-0.066-0.722-0.066-1.449v-3.392h-0.945v-1.641h0.945v-1.546l2.065-1.201v2.747
			H162.123z"/>
		<path style="fill:#FFFFFF;" d="M163.55,120.635v-1.904h2.059v1.904H163.55z M163.55,129.468v-7.778h2.059v7.778H163.55z"/>
		<path style="fill:#FFFFFF;" d="M174.794,129.468h-2.059v-3.97c0-0.84-0.044-1.383-0.132-1.63c-0.088-0.246-0.23-0.438-0.429-0.574
			c-0.197-0.137-0.436-0.205-0.714-0.205c-0.356,0-0.677,0.098-0.96,0.293s-0.477,0.453-0.582,0.775
			c-0.104,0.322-0.157,0.919-0.157,1.787v3.523h-2.058v-7.778h1.911v1.143c0.679-0.879,1.533-1.318,2.563-1.318
			c0.454,0,0.869,0.082,1.245,0.245c0.376,0.164,0.66,0.373,0.854,0.627c0.192,0.254,0.327,0.541,0.402,0.863
			c0.076,0.322,0.114,0.784,0.114,1.385V129.468z"/>
		<path style="fill:#FFFFFF;" d="M176.69,129.981l2.351,0.286c0.039,0.272,0.129,0.461,0.271,0.563
			c0.195,0.146,0.503,0.22,0.924,0.22c0.536,0,0.939-0.08,1.208-0.242c0.181-0.107,0.317-0.28,0.41-0.52
			c0.063-0.171,0.095-0.486,0.095-0.945v-1.135c-0.615,0.84-1.391,1.26-2.328,1.26c-1.046,0-1.873-0.441-2.483-1.326
			c-0.479-0.697-0.718-1.566-0.718-2.607c0-1.303,0.313-2.299,0.941-2.988c0.627-0.688,1.407-1.032,2.34-1.032
			c0.962,0,1.755,0.423,2.381,1.267v-1.091h1.926v6.979c0,0.918-0.076,1.604-0.227,2.059c-0.152,0.454-0.364,0.811-0.638,1.069
			s-0.639,0.462-1.095,0.608c-0.457,0.146-1.034,0.219-1.732,0.219c-1.318,0-2.254-0.226-2.805-0.677
			c-0.553-0.452-0.828-1.024-0.828-1.718C176.682,130.162,176.684,130.079,176.69,129.981z M178.528,125.417
			c0,0.826,0.16,1.43,0.479,1.813c0.32,0.383,0.714,0.575,1.183,0.575c0.503,0,0.928-0.197,1.275-0.59
			c0.346-0.394,0.52-0.976,0.52-1.747c0-0.806-0.166-1.403-0.498-1.794s-0.752-0.586-1.26-0.586c-0.493,0-0.899,0.191-1.22,0.574
			C178.688,124.047,178.528,124.632,178.528,125.417z"/>
		<path style="fill:#FFFFFF;" d="M191.749,124.063l-1.868-0.337c0.21-0.752,0.571-1.309,1.084-1.67s1.274-0.542,2.285-0.542
			c0.918,0,1.602,0.108,2.051,0.326c0.449,0.217,0.766,0.493,0.948,0.827c0.184,0.335,0.275,0.949,0.275,1.842l-0.022,2.402
			c0,0.685,0.033,1.188,0.099,1.513c0.066,0.325,0.189,0.673,0.37,1.044h-2.036c-0.054-0.137-0.12-0.339-0.197-0.607
			c-0.035-0.122-0.059-0.203-0.074-0.242c-0.352,0.342-0.728,0.599-1.127,0.77c-0.401,0.17-0.828,0.256-1.282,0.256
			c-0.801,0-1.432-0.217-1.894-0.652c-0.461-0.434-0.691-0.983-0.691-1.647c0-0.439,0.104-0.831,0.314-1.176
			c0.21-0.344,0.504-0.607,0.883-0.791c0.378-0.183,0.924-0.343,1.637-0.479c0.962-0.181,1.628-0.349,2-0.506v-0.205
			c0-0.395-0.099-0.677-0.293-0.846c-0.196-0.168-0.564-0.252-1.106-0.252c-0.366,0-0.651,0.071-0.856,0.216
			C192.042,123.449,191.875,123.702,191.749,124.063z M194.503,125.733c-0.264,0.088-0.682,0.193-1.253,0.315
			s-0.944,0.241-1.12,0.358c-0.27,0.19-0.403,0.433-0.403,0.726c0,0.288,0.107,0.537,0.322,0.746
			c0.215,0.211,0.488,0.315,0.82,0.315c0.371,0,0.726-0.122,1.062-0.366c0.25-0.186,0.413-0.412,0.491-0.682
			c0.054-0.176,0.081-0.51,0.081-1.003V125.733z"/>
		<path style="fill:#FFFFFF;" d="M205.628,129.468h-2.059v-3.97c0-0.84-0.044-1.383-0.132-1.63c-0.088-0.246-0.23-0.438-0.429-0.574
			c-0.197-0.137-0.436-0.205-0.714-0.205c-0.356,0-0.677,0.098-0.96,0.293s-0.477,0.453-0.582,0.775
			c-0.104,0.322-0.157,0.919-0.157,1.787v3.523h-2.058v-7.778h1.911v1.143c0.679-0.879,1.533-1.318,2.563-1.318
			c0.454,0,0.869,0.082,1.245,0.245c0.376,0.164,0.66,0.373,0.854,0.627c0.192,0.254,0.327,0.541,0.402,0.863
			c0.076,0.322,0.114,0.784,0.114,1.385V129.468z"/>
		<path style="fill:#FFFFFF;" d="M214.848,129.468h-1.912v-1.143c-0.317,0.444-0.692,0.775-1.124,0.992
			c-0.433,0.218-0.868,0.326-1.308,0.326c-0.894,0-1.659-0.36-2.296-1.08c-0.638-0.721-0.956-1.725-0.956-3.014
			c0-1.318,0.31-2.321,0.93-3.007c0.62-0.687,1.404-1.029,2.352-1.029c0.869,0,1.621,0.361,2.256,1.084v-3.867h2.059V129.468z
			 M209.354,125.411c0,0.83,0.115,1.431,0.345,1.802c0.332,0.537,0.796,0.806,1.392,0.806c0.474,0,0.876-0.201,1.209-0.604
			c0.331-0.402,0.498-1.004,0.498-1.805c0-0.895-0.162-1.537-0.484-1.931c-0.322-0.393-0.734-0.589-1.237-0.589
			c-0.488,0-0.897,0.193-1.227,0.582C209.519,124.059,209.354,124.639,209.354,125.411z"/>
		<path style="fill:#FFFFFF;" d="M138.034,146.468h-2.059v-7.778h1.912v1.106c0.327-0.522,0.621-0.867,0.883-1.033
			c0.261-0.166,0.558-0.249,0.89-0.249c0.469,0,0.92,0.13,1.354,0.388l-0.637,1.795c-0.347-0.225-0.669-0.337-0.967-0.337
			c-0.288,0-0.532,0.079-0.732,0.238c-0.2,0.158-0.357,0.445-0.473,0.86c-0.114,0.415-0.172,1.284-0.172,2.607V146.468z"/>
		<path style="fill:#FFFFFF;" d="M141.901,137.635v-1.904h2.059v1.904H141.901z M141.901,146.468v-7.778h2.059v7.778H141.901z"/>
		<path style="fill:#FFFFFF;" d="M145.593,142.469c0-0.684,0.169-1.345,0.505-1.985c0.338-0.639,0.814-1.127,1.433-1.465
			c0.617-0.336,1.308-0.505,2.069-0.505c1.176,0,2.141,0.382,2.893,1.146c0.752,0.764,1.128,1.729,1.128,2.896
			c0,1.177-0.38,2.152-1.139,2.926c-0.76,0.774-1.716,1.161-2.868,1.161c-0.713,0-1.393-0.161-2.039-0.483
			c-0.647-0.322-1.139-0.795-1.477-1.417C145.762,144.121,145.593,143.363,145.593,142.469z M147.703,142.58
			c0,0.771,0.183,1.361,0.55,1.771c0.365,0.41,0.817,0.615,1.354,0.615s0.987-0.205,1.352-0.615c0.363-0.41,0.546-1.005,0.546-1.787
			c0-0.762-0.183-1.348-0.546-1.758c-0.364-0.41-0.814-0.615-1.352-0.615s-0.989,0.205-1.354,0.615
			C147.885,141.216,147.703,141.808,147.703,142.58z"/>
		<path style="fill:#FFFFFF;" d="M158.798,138.69v1.641h-1.406v3.135c0,0.635,0.014,1.005,0.04,1.109
			c0.027,0.105,0.088,0.192,0.184,0.261c0.095,0.068,0.211,0.102,0.348,0.102c0.19,0,0.466-0.065,0.828-0.197l0.176,1.597
			c-0.479,0.205-1.021,0.308-1.627,0.308c-0.371,0-0.705-0.062-1.003-0.187c-0.298-0.125-0.517-0.286-0.655-0.483
			c-0.14-0.198-0.236-0.465-0.289-0.803c-0.045-0.238-0.066-0.722-0.066-1.449v-3.392h-0.945v-1.641h0.945v-1.546l2.065-1.201v2.747
			H158.798z"/>
		<path style="fill:#FFFFFF;" d="M160.226,137.635v-1.904h2.059v1.904H160.226z M160.226,146.468v-7.778h2.059v7.778H160.226z"/>
		<path style="fill:#FFFFFF;" d="M171.469,146.468h-2.059v-3.97c0-0.84-0.044-1.383-0.132-1.63c-0.088-0.246-0.23-0.438-0.429-0.574
			c-0.197-0.137-0.436-0.205-0.714-0.205c-0.356,0-0.677,0.098-0.96,0.293s-0.477,0.453-0.582,0.775
			c-0.104,0.322-0.157,0.919-0.157,1.787v3.523h-2.058v-7.778h1.911v1.143c0.679-0.879,1.533-1.318,2.563-1.318
			c0.454,0,0.869,0.082,1.245,0.245c0.376,0.164,0.66,0.373,0.854,0.627c0.192,0.254,0.327,0.541,0.402,0.863
			c0.076,0.322,0.114,0.784,0.114,1.385V146.468z"/>
		<path style="fill:#FFFFFF;" d="M173.366,146.981l2.351,0.286c0.039,0.272,0.129,0.461,0.271,0.563
			c0.195,0.146,0.503,0.22,0.924,0.22c0.536,0,0.939-0.08,1.208-0.242c0.181-0.107,0.317-0.28,0.41-0.52
			c0.063-0.171,0.095-0.486,0.095-0.945v-1.135c-0.615,0.84-1.391,1.26-2.328,1.26c-1.046,0-1.873-0.441-2.483-1.326
			c-0.479-0.697-0.718-1.566-0.718-2.607c0-1.303,0.313-2.299,0.941-2.988c0.627-0.688,1.407-1.032,2.34-1.032
			c0.962,0,1.755,0.423,2.381,1.267v-1.091h1.926v6.979c0,0.918-0.076,1.604-0.227,2.059c-0.152,0.454-0.364,0.811-0.638,1.069
			s-0.639,0.462-1.095,0.608c-0.457,0.146-1.034,0.219-1.732,0.219c-1.318,0-2.254-0.226-2.805-0.677
			c-0.553-0.452-0.828-1.024-0.828-1.718C173.358,147.162,173.36,147.079,173.366,146.981z M175.204,142.417
			c0,0.826,0.16,1.43,0.479,1.813c0.32,0.383,0.714,0.575,1.183,0.575c0.503,0,0.928-0.197,1.275-0.59
			c0.346-0.394,0.52-0.976,0.52-1.747c0-0.806-0.166-1.403-0.498-1.794s-0.752-0.586-1.26-0.586c-0.493,0-0.899,0.191-1.22,0.574
			C175.364,141.047,175.204,141.632,175.204,142.417z"/>
		<path style="fill:#FFFFFF;" d="M188.424,141.063l-1.868-0.337c0.21-0.752,0.571-1.309,1.084-1.67s1.274-0.542,2.285-0.542
			c0.918,0,1.602,0.108,2.051,0.326c0.449,0.217,0.766,0.493,0.948,0.827c0.184,0.335,0.275,0.949,0.275,1.842l-0.022,2.402
			c0,0.685,0.033,1.188,0.099,1.513c0.066,0.325,0.189,0.673,0.37,1.044h-2.036c-0.054-0.137-0.12-0.339-0.197-0.607
			c-0.035-0.122-0.059-0.203-0.074-0.242c-0.352,0.342-0.728,0.599-1.127,0.77c-0.401,0.17-0.828,0.256-1.282,0.256
			c-0.801,0-1.432-0.217-1.894-0.652c-0.461-0.434-0.691-0.983-0.691-1.647c0-0.439,0.104-0.831,0.314-1.176
			c0.21-0.344,0.504-0.607,0.883-0.791c0.378-0.183,0.924-0.343,1.637-0.479c0.962-0.181,1.628-0.349,2-0.506v-0.205
			c0-0.395-0.099-0.677-0.293-0.846c-0.196-0.168-0.564-0.252-1.106-0.252c-0.366,0-0.651,0.071-0.856,0.216
			C188.717,140.449,188.55,140.702,188.424,141.063z M191.178,142.733c-0.264,0.088-0.682,0.193-1.253,0.315
			s-0.944,0.241-1.12,0.358c-0.27,0.19-0.403,0.433-0.403,0.726c0,0.288,0.107,0.537,0.322,0.746
			c0.215,0.211,0.488,0.315,0.82,0.315c0.371,0,0.726-0.122,1.062-0.366c0.25-0.186,0.413-0.412,0.491-0.682
			c0.054-0.176,0.081-0.51,0.081-1.003V142.733z"/>
		<path style="fill:#FFFFFF;" d="M197.198,146.468h-2.059v-7.778h1.912v1.106c0.327-0.522,0.621-0.867,0.883-1.033
			c0.261-0.166,0.558-0.249,0.89-0.249c0.469,0,0.92,0.13,1.354,0.388l-0.637,1.795c-0.347-0.225-0.669-0.337-0.967-0.337
			c-0.288,0-0.532,0.079-0.732,0.238c-0.2,0.158-0.357,0.445-0.473,0.86c-0.114,0.415-0.172,1.284-0.172,2.607V146.468z"/>
		<path style="fill:#FFFFFF;" d="M205.57,143.993l2.051,0.345c-0.264,0.752-0.68,1.324-1.249,1.717
			c-0.568,0.394-1.28,0.59-2.135,0.59c-1.353,0-2.354-0.441-3.003-1.326c-0.513-0.707-0.769-1.601-0.769-2.68
			c0-1.289,0.336-2.299,1.01-3.029c0.674-0.729,1.526-1.095,2.557-1.095c1.157,0,2.07,0.382,2.739,1.146
			c0.669,0.764,0.989,1.935,0.96,3.512h-5.156c0.014,0.61,0.18,1.085,0.498,1.425c0.316,0.339,0.712,0.509,1.186,0.509
			c0.322,0,0.594-0.088,0.813-0.264S205.458,144.383,205.57,143.993z M205.687,141.913c-0.015-0.596-0.169-1.049-0.462-1.358
			c-0.293-0.311-0.649-0.465-1.068-0.465c-0.45,0-0.82,0.163-1.113,0.49s-0.438,0.771-0.433,1.333H205.687z"/>
		<path style="fill:#FFFFFF;" d="M210.946,141.063l-1.868-0.337c0.21-0.752,0.571-1.309,1.084-1.67s1.274-0.542,2.285-0.542
			c0.918,0,1.602,0.108,2.051,0.326c0.449,0.217,0.766,0.493,0.948,0.827c0.184,0.335,0.275,0.949,0.275,1.842l-0.022,2.402
			c0,0.685,0.033,1.188,0.099,1.513c0.066,0.325,0.189,0.673,0.37,1.044h-2.036c-0.054-0.137-0.12-0.339-0.197-0.607
			c-0.035-0.122-0.059-0.203-0.074-0.242c-0.352,0.342-0.728,0.599-1.127,0.77c-0.401,0.17-0.828,0.256-1.282,0.256
			c-0.801,0-1.432-0.217-1.894-0.652c-0.461-0.434-0.691-0.983-0.691-1.647c0-0.439,0.104-0.831,0.314-1.176
			c0.21-0.344,0.504-0.607,0.883-0.791c0.378-0.183,0.924-0.343,1.637-0.479c0.962-0.181,1.628-0.349,2-0.506v-0.205
			c0-0.395-0.099-0.677-0.293-0.846c-0.196-0.168-0.564-0.252-1.106-0.252c-0.366,0-0.651,0.071-0.856,0.216
			C211.239,140.449,211.072,140.702,210.946,141.063z M213.7,142.733c-0.264,0.088-0.682,0.193-1.253,0.315s-0.944,0.241-1.12,0.358
			c-0.27,0.19-0.403,0.433-0.403,0.726c0,0.288,0.107,0.537,0.322,0.746c0.215,0.211,0.488,0.315,0.82,0.315
			c0.371,0,0.726-0.122,1.062-0.366c0.25-0.186,0.413-0.412,0.491-0.682c0.054-0.176,0.081-0.51,0.081-1.003V142.733z"/>
	</g>
</g>
</svg>
