<svg id="Layer_1" data-name="Layer 1" xmlns="http://www.w3.org/2000/svg" viewBox="0 0 876 894"><title>business-gone</title><rect x="51.8" y="66.79" width="222.75" height="222.75" rx="57.15" ry="57.15" fill="#efe92b" stroke="#fff" stroke-miterlimit="10"/><rect x="230.57" y="245.56" width="222.75" height="222.75" rx="57.15" ry="57.15" fill="#efe92b" stroke="#fff" stroke-miterlimit="10"/><rect x="409.35" y="424.34" width="222.75" height="222.75" rx="57.15" ry="57.15" fill="#efe92b" stroke="#fff" stroke-miterlimit="10"/><rect x="588.12" y="603.12" width="222.75" height="222.75" rx="57.15" ry="57.15" fill="#efe92b" stroke="#fff" stroke-miterlimit="10"/><rect x="82.67" y="603.12" width="222.75" height="222.75" rx="57.15" ry="57.15" transform="translate(-520.44 908.54) rotate(-90)" fill="#efe92b" stroke="#fff" stroke-miterlimit="10"/><rect x="261.45" y="424.34" width="222.75" height="222.75" rx="57.15" ry="57.15" transform="translate(-162.89 908.54) rotate(-90)" fill="#efe92b" stroke="#fff" stroke-miterlimit="10"/><rect x="440.22" y="245.56" width="222.75" height="222.75" rx="57.15" ry="57.15" transform="translate(194.66 908.54) rotate(-90)" fill="#efe92b" stroke="#fff" stroke-miterlimit="10"/><rect x="619" y="66.79" width="222.75" height="222.75" rx="57.15" ry="57.15" transform="translate(552.21 908.54) rotate(-90)" fill="#efe92b" stroke="#fff" stroke-miterlimit="10"/></svg>