<?xml version="1.0" encoding="utf-8"?>
<!-- Generator: Adobe Illustrator 22.0.1, SVG Export Plug-In . SVG Version: 6.00 Build 0)  -->
<svg version="1.1" id="business-gone" xmlns="http://www.w3.org/2000/svg" xmlns:xlink="http://www.w3.org/1999/xlink" x="0px"
	 y="0px" viewBox="0 0 400 602.122" style="enable-background:new 0 0 400 602.122;" xml:space="preserve">
<rect x="157.745" y="187.494" style="fill:#D7153A;stroke:#FFFFFF;stroke-width:1.5;" width="3.545" height="3.545"/>
<rect x="148.244" y="187.494" style="fill:#D7153A;stroke:#FFFFFF;stroke-width:1.5;" width="3.545" height="3.545"/>
<rect x="122.293" y="187.494" style="fill:#D7153A;stroke:#FFFFFF;stroke-width:1.5;" width="3.545" height="3.545"/>
<rect x="107.687" y="187.278" style="fill:#D7153A;stroke:#FFFFFF;stroke-width:1.5;" width="3.545" height="3.545"/>
<ellipse style="fill:#D7153A;stroke:#000000;stroke-width:1.5;" cx="124.066" cy="188.554" rx="6.267" ry="6.076"/>
<ellipse style="fill:#D7153A;stroke:#FFFFFF;stroke-width:1.5;" cx="109.46" cy="188.554" rx="5.697" ry="5.524"/>
<ellipse style="fill:#D7153A;stroke:#000000;stroke-width:1.5;" cx="110.311" cy="188.979" rx="6.267" ry="6.076"/>
<ellipse style="fill:#D7153A;stroke:#000000;stroke-width:1.5;" cx="150.016" cy="188.554" rx="6.267" ry="6.076"/>
<ellipse style="fill:#D7153A;stroke:#000000;stroke-width:1.5;" cx="161.29" cy="188.554" rx="6.267" ry="6.076"/>
<g>
	<polygon points="108.786,357.072 14.962,357.072 14.962,258.72 88.037,258.72 109.46,189.05 99.461,258.72 108.786,258.72 	"/>
	<g>
		<rect x="25.27" y="267.578" style="fill:none;" width="80.447" height="83.813"/>
		<path style="fill:#FFFFFF;" d="M26.369,267.582h4.292c0.85,0,1.483,0.035,1.9,0.106c0.418,0.07,0.791,0.219,1.121,0.443
			c0.329,0.225,0.604,0.523,0.824,0.896c0.219,0.374,0.329,0.793,0.329,1.256c0,0.504-0.136,0.965-0.406,1.385
			c-0.271,0.42-0.639,0.735-1.103,0.945c0.654,0.189,1.157,0.515,1.509,0.974s0.527,0.999,0.527,1.618
			c0,0.489-0.113,0.964-0.341,1.425c-0.227,0.462-0.537,0.83-0.93,1.106c-0.394,0.275-0.878,0.445-1.454,0.509
			c-0.361,0.039-1.233,0.063-2.614,0.073h-3.655V267.582z M28.537,269.369v2.483h1.421c0.845,0,1.369-0.013,1.574-0.037
			c0.371-0.044,0.663-0.172,0.876-0.385c0.212-0.212,0.318-0.491,0.318-0.838c0-0.332-0.092-0.603-0.274-0.81
			c-0.184-0.208-0.456-0.333-0.816-0.378c-0.216-0.023-0.833-0.036-1.854-0.036H28.537z M28.537,273.639v2.871h2.007
			c0.781,0,1.276-0.022,1.486-0.066c0.322-0.059,0.585-0.201,0.788-0.429c0.202-0.227,0.304-0.53,0.304-0.911
			c0-0.322-0.078-0.596-0.234-0.82s-0.382-0.389-0.678-0.491c-0.295-0.103-0.937-0.153-1.922-0.153H28.537z"/>
		<path style="fill:#FFFFFF;" d="M39.149,278.319H37.09v-7.778h1.912v1.106c0.327-0.522,0.621-0.867,0.883-1.033
			c0.261-0.166,0.558-0.249,0.89-0.249c0.469,0,0.92,0.13,1.354,0.388l-0.637,1.795c-0.347-0.225-0.669-0.337-0.967-0.337
			c-0.288,0-0.532,0.079-0.732,0.238c-0.2,0.158-0.357,0.445-0.473,0.86c-0.114,0.415-0.172,1.284-0.172,2.607V278.319z"/>
		<path style="fill:#FFFFFF;" d="M42.541,274.32c0-0.684,0.169-1.345,0.505-1.985c0.338-0.639,0.814-1.127,1.433-1.465
			c0.617-0.336,1.308-0.505,2.069-0.505c1.176,0,2.141,0.382,2.893,1.146c0.752,0.764,1.128,1.729,1.128,2.896
			c0,1.177-0.38,2.152-1.139,2.926c-0.76,0.774-1.716,1.161-2.868,1.161c-0.713,0-1.393-0.161-2.039-0.483
			c-0.647-0.322-1.139-0.795-1.477-1.417C42.71,275.971,42.541,275.213,42.541,274.32z M44.65,274.43
			c0,0.771,0.183,1.361,0.55,1.771c0.365,0.41,0.817,0.615,1.354,0.615s0.987-0.205,1.352-0.615c0.363-0.41,0.546-1.005,0.546-1.787
			c0-0.762-0.183-1.348-0.546-1.758c-0.364-0.41-0.814-0.615-1.352-0.615s-0.989,0.205-1.354,0.615
			C44.833,273.067,44.65,273.659,44.65,274.43z"/>
		<path style="fill:#FFFFFF;" d="M55.746,270.541v1.641h-1.406v3.135c0,0.635,0.014,1.005,0.04,1.109
			c0.027,0.105,0.088,0.192,0.184,0.261c0.095,0.068,0.211,0.102,0.348,0.102c0.19,0,0.466-0.065,0.828-0.197l0.176,1.597
			c-0.479,0.205-1.021,0.308-1.627,0.308c-0.371,0-0.705-0.062-1.003-0.187c-0.298-0.125-0.517-0.286-0.655-0.483
			c-0.14-0.198-0.236-0.465-0.289-0.803c-0.045-0.238-0.066-0.722-0.066-1.449v-3.392h-0.945v-1.641h0.945v-1.546l2.065-1.201v2.747
			H55.746z"/>
		<path style="fill:#FFFFFF;" d="M57.02,270.541h1.897v1.062c0.678-0.824,1.486-1.237,2.424-1.237c0.498,0,0.93,0.103,1.297,0.308
			c0.365,0.205,0.666,0.516,0.9,0.93c0.342-0.414,0.711-0.725,1.105-0.93c0.396-0.205,0.818-0.308,1.268-0.308
			c0.571,0,1.055,0.116,1.45,0.348c0.396,0.232,0.69,0.573,0.886,1.022c0.142,0.332,0.213,0.869,0.213,1.611v4.973h-2.059v-4.445
			c0-0.771-0.07-1.27-0.212-1.494c-0.19-0.293-0.483-0.439-0.879-0.439c-0.288,0-0.56,0.088-0.813,0.264s-0.437,0.433-0.549,0.772
			c-0.112,0.339-0.168,0.875-0.168,1.607v3.735h-2.059v-4.263c0-0.757-0.037-1.245-0.109-1.465c-0.074-0.22-0.188-0.383-0.341-0.491
			c-0.154-0.106-0.362-0.16-0.626-0.16c-0.318,0-0.604,0.085-0.857,0.256s-0.436,0.418-0.546,0.74
			c-0.109,0.322-0.165,0.856-0.165,1.604v3.779H57.02V270.541z"/>
		<path style="fill:#FFFFFF;" d="M72.049,272.914l-1.868-0.337c0.21-0.752,0.571-1.309,1.084-1.67s1.274-0.542,2.285-0.542
			c0.918,0,1.602,0.108,2.051,0.326c0.449,0.217,0.766,0.493,0.948,0.827c0.184,0.335,0.275,0.949,0.275,1.842l-0.022,2.402
			c0,0.685,0.033,1.188,0.099,1.513c0.066,0.325,0.189,0.673,0.37,1.044h-2.036c-0.054-0.137-0.12-0.339-0.197-0.607
			c-0.035-0.122-0.059-0.203-0.074-0.242c-0.352,0.342-0.728,0.599-1.127,0.77c-0.401,0.17-0.828,0.256-1.282,0.256
			c-0.801,0-1.432-0.217-1.894-0.652c-0.461-0.434-0.691-0.983-0.691-1.647c0-0.439,0.104-0.831,0.314-1.176
			c0.21-0.344,0.504-0.607,0.883-0.791c0.378-0.183,0.924-0.343,1.637-0.479c0.962-0.181,1.628-0.349,2-0.506v-0.205
			c0-0.395-0.099-0.677-0.293-0.846c-0.196-0.168-0.564-0.252-1.106-0.252c-0.366,0-0.651,0.071-0.856,0.216
			C72.342,272.299,72.175,272.552,72.049,272.914z M74.803,274.583c-0.264,0.088-0.682,0.193-1.253,0.315s-0.944,0.241-1.12,0.358
			c-0.27,0.19-0.403,0.433-0.403,0.726c0,0.288,0.107,0.537,0.322,0.746c0.215,0.211,0.488,0.315,0.82,0.315
			c0.371,0,0.726-0.122,1.062-0.366c0.25-0.186,0.413-0.412,0.491-0.682c0.054-0.176,0.081-0.51,0.081-1.003V274.583z"/>
		<path style="fill:#FFFFFF;" d="M85.928,278.319H83.87v-3.97c0-0.84-0.044-1.383-0.132-1.63c-0.088-0.246-0.23-0.438-0.429-0.574
			c-0.197-0.137-0.436-0.205-0.714-0.205c-0.356,0-0.677,0.098-0.96,0.293s-0.477,0.453-0.582,0.775
			c-0.104,0.322-0.157,0.919-0.157,1.787v3.523h-2.058v-7.778h1.911v1.143c0.679-0.879,1.533-1.318,2.563-1.318
			c0.454,0,0.869,0.082,1.245,0.245c0.376,0.164,0.66,0.373,0.854,0.627c0.192,0.254,0.327,0.541,0.402,0.863
			c0.076,0.322,0.114,0.784,0.114,1.385V278.319z"/>
		<path style="fill:#FFFFFF;" d="M87.963,267.611h2.059v1.472c0,0.597-0.052,1.066-0.154,1.41c-0.103,0.345-0.297,0.653-0.582,0.927
			c-0.286,0.273-0.648,0.488-1.088,0.645l-0.402-0.85c0.414-0.137,0.71-0.324,0.886-0.563s0.269-0.566,0.278-0.982h-0.996V267.611z"
			/>
		<path style="fill:#FFFFFF;" d="M90.901,276.1l2.065-0.315c0.088,0.4,0.266,0.704,0.534,0.912c0.269,0.207,0.645,0.312,1.129,0.312
			c0.531,0,0.932-0.098,1.201-0.293c0.18-0.137,0.271-0.32,0.271-0.55c0-0.156-0.049-0.286-0.146-0.388
			c-0.103-0.098-0.332-0.188-0.688-0.271c-1.66-0.366-2.713-0.7-3.156-1.004c-0.615-0.419-0.924-1.003-0.924-1.75
			c0-0.674,0.267-1.24,0.799-1.699s1.357-0.688,2.476-0.688c1.064,0,1.855,0.174,2.373,0.521s0.874,0.859,1.069,1.537l-1.941,0.359
			c-0.083-0.303-0.24-0.535-0.472-0.695c-0.232-0.162-0.563-0.242-0.993-0.242c-0.541,0-0.93,0.076-1.164,0.227
			c-0.156,0.108-0.234,0.247-0.234,0.418c0,0.146,0.068,0.271,0.205,0.373c0.186,0.138,0.826,0.33,1.923,0.579
			c1.096,0.249,1.861,0.555,2.296,0.915c0.43,0.367,0.645,0.877,0.645,1.531c0,0.713-0.298,1.326-0.894,1.838
			c-0.596,0.514-1.478,0.77-2.644,0.77c-1.061,0-1.898-0.215-2.517-0.645C91.496,277.42,91.091,276.837,90.901,276.1z"/>
		<path style="fill:#FFFFFF;" d="M33.231,291.372l2.103,0.666c-0.322,1.172-0.858,2.042-1.607,2.611
			c-0.75,0.568-1.701,0.854-2.853,0.854c-1.427,0-2.599-0.487-3.516-1.462c-0.919-0.974-1.377-2.306-1.377-3.995
			c0-1.787,0.461-3.175,1.384-4.164c0.923-0.988,2.136-1.482,3.64-1.482c1.313,0,2.381,0.388,3.201,1.164
			c0.488,0.459,0.854,1.118,1.099,1.978l-2.146,0.513c-0.128-0.557-0.393-0.996-0.795-1.318c-0.403-0.322-0.893-0.483-1.469-0.483
			c-0.796,0-1.441,0.286-1.938,0.856c-0.495,0.572-0.743,1.497-0.743,2.776c0,1.357,0.244,2.324,0.732,2.9s1.123,0.864,1.904,0.864
			c0.576,0,1.071-0.184,1.487-0.549C32.753,292.733,33.05,292.158,33.231,291.372z"/>
		<path style="fill:#FFFFFF;" d="M37.178,295.319v-10.737h2.059v10.737H37.178z"/>
		<path style="fill:#FFFFFF;" d="M40.871,291.32c0-0.684,0.169-1.345,0.505-1.985c0.338-0.639,0.814-1.127,1.433-1.465
			c0.617-0.336,1.308-0.505,2.069-0.505c1.176,0,2.141,0.382,2.893,1.146c0.752,0.764,1.128,1.729,1.128,2.896
			c0,1.177-0.38,2.152-1.139,2.926c-0.76,0.774-1.716,1.161-2.868,1.161c-0.713,0-1.393-0.161-2.039-0.483
			c-0.647-0.322-1.139-0.795-1.477-1.417C41.04,292.971,40.871,292.213,40.871,291.32z M42.98,291.43
			c0,0.771,0.183,1.361,0.55,1.771c0.365,0.41,0.817,0.615,1.354,0.615s0.987-0.205,1.352-0.615c0.363-0.41,0.546-1.005,0.546-1.787
			c0-0.762-0.183-1.348-0.546-1.758c-0.364-0.41-0.814-0.615-1.352-0.615s-0.989,0.205-1.354,0.615
			C43.163,290.067,42.98,290.659,42.98,291.43z"/>
		<path style="fill:#FFFFFF;" d="M54.076,287.541v1.641H52.67v3.135c0,0.635,0.014,1.005,0.04,1.109
			c0.027,0.105,0.088,0.192,0.184,0.261c0.095,0.068,0.211,0.102,0.348,0.102c0.19,0,0.466-0.065,0.828-0.197l0.176,1.597
			c-0.479,0.205-1.021,0.308-1.627,0.308c-0.371,0-0.705-0.062-1.003-0.187c-0.298-0.125-0.517-0.286-0.655-0.483
			c-0.14-0.198-0.236-0.465-0.289-0.803c-0.045-0.238-0.066-0.722-0.066-1.449v-3.392h-0.945v-1.641h0.945v-1.546l2.065-1.201v2.747
			H54.076z"/>
		<path style="fill:#FFFFFF;" d="M57.554,284.582v3.948c0.664-0.777,1.458-1.165,2.381-1.165c0.474,0,0.9,0.088,1.281,0.264
			s0.668,0.4,0.861,0.674c0.192,0.273,0.324,0.576,0.396,0.908c0.07,0.332,0.106,0.848,0.106,1.546v4.562h-2.059v-4.109
			c0-0.814-0.039-1.332-0.117-1.553c-0.078-0.219-0.216-0.394-0.414-0.523c-0.197-0.129-0.445-0.193-0.743-0.193
			c-0.342,0-0.647,0.083-0.915,0.248c-0.27,0.167-0.466,0.417-0.59,0.751c-0.125,0.335-0.188,0.829-0.188,1.483v3.896h-2.058
			v-10.737H57.554z"/>
		<path style="fill:#FFFFFF;" d="M64.667,286.486v-1.904h2.059v1.904H64.667z M64.667,295.319v-7.778h2.059v7.778H64.667z"/>
		<path style="fill:#FFFFFF;" d="M75.911,295.319h-2.059v-3.97c0-0.84-0.044-1.383-0.132-1.63c-0.088-0.246-0.23-0.438-0.429-0.574
			c-0.197-0.137-0.436-0.205-0.714-0.205c-0.356,0-0.677,0.098-0.96,0.293s-0.477,0.453-0.582,0.775
			c-0.104,0.322-0.157,0.919-0.157,1.787v3.523h-2.058v-7.778h1.911v1.143c0.679-0.879,1.533-1.318,2.563-1.318
			c0.454,0,0.869,0.082,1.245,0.245c0.376,0.164,0.66,0.373,0.854,0.627c0.192,0.254,0.327,0.541,0.402,0.863
			c0.076,0.322,0.114,0.784,0.114,1.385V295.319z"/>
		<path style="fill:#FFFFFF;" d="M77.807,295.832l2.351,0.286c0.039,0.272,0.129,0.461,0.271,0.563
			c0.195,0.146,0.503,0.22,0.924,0.22c0.536,0,0.939-0.08,1.208-0.242c0.181-0.107,0.317-0.28,0.41-0.52
			c0.063-0.171,0.095-0.486,0.095-0.945v-1.135c-0.615,0.84-1.391,1.26-2.328,1.26c-1.046,0-1.873-0.441-2.483-1.326
			c-0.479-0.697-0.718-1.566-0.718-2.607c0-1.303,0.313-2.299,0.941-2.988c0.627-0.688,1.407-1.032,2.34-1.032
			c0.962,0,1.755,0.423,2.381,1.267v-1.091h1.926v6.979c0,0.918-0.076,1.604-0.227,2.059c-0.152,0.454-0.364,0.811-0.638,1.069
			s-0.639,0.462-1.095,0.608c-0.457,0.146-1.034,0.219-1.732,0.219c-1.318,0-2.254-0.226-2.805-0.677
			c-0.553-0.452-0.828-1.024-0.828-1.718C77.799,296.012,77.801,295.929,77.807,295.832z M79.645,291.268
			c0,0.826,0.16,1.43,0.479,1.813c0.32,0.383,0.714,0.575,1.183,0.575c0.503,0,0.928-0.197,1.275-0.59
			c0.346-0.394,0.52-0.976,0.52-1.747c0-0.806-0.166-1.403-0.498-1.794s-0.752-0.586-1.26-0.586c-0.493,0-0.899,0.191-1.22,0.574
			C79.805,289.898,79.645,290.483,79.645,291.268z"/>
		<path style="fill:#FFFFFF;" d="M25.812,308.825l2.109-0.205c0.127,0.709,0.385,1.229,0.772,1.561
			c0.389,0.332,0.912,0.498,1.571,0.498c0.698,0,1.225-0.147,1.578-0.443c0.354-0.295,0.531-0.641,0.531-1.036
			c0-0.254-0.074-0.47-0.224-0.648c-0.148-0.178-0.409-0.333-0.779-0.465c-0.255-0.088-0.833-0.244-1.736-0.469
			c-1.162-0.288-1.978-0.642-2.446-1.062c-0.659-0.591-0.989-1.312-0.989-2.161c0-0.547,0.155-1.059,0.466-1.534
			c0.31-0.477,0.757-0.839,1.34-1.088c0.584-0.249,1.288-0.373,2.113-0.373c1.348,0,2.362,0.295,3.043,0.886
			c0.682,0.591,1.039,1.38,1.073,2.366l-2.168,0.095c-0.093-0.552-0.292-0.948-0.597-1.19c-0.306-0.241-0.764-0.362-1.374-0.362
			c-0.629,0-1.123,0.13-1.479,0.388c-0.23,0.167-0.345,0.389-0.345,0.667c0,0.254,0.107,0.472,0.322,0.651
			c0.273,0.23,0.938,0.469,1.992,0.719c1.055,0.248,1.835,0.506,2.34,0.772c0.506,0.266,0.901,0.63,1.187,1.091
			c0.286,0.462,0.429,1.032,0.429,1.711c0,0.615-0.171,1.191-0.513,1.729s-0.825,0.936-1.45,1.197
			c-0.625,0.261-1.404,0.392-2.337,0.392c-1.357,0-2.399-0.313-3.127-0.941C26.388,310.941,25.954,310.026,25.812,308.825z"/>
		<path style="fill:#FFFFFF;" d="M39.919,304.541v1.641h-1.406v3.135c0,0.635,0.014,1.005,0.04,1.109
			c0.027,0.105,0.088,0.192,0.184,0.261c0.095,0.068,0.211,0.102,0.348,0.102c0.19,0,0.466-0.065,0.828-0.197l0.176,1.597
			c-0.479,0.205-1.021,0.308-1.627,0.308c-0.371,0-0.705-0.062-1.003-0.187c-0.298-0.125-0.517-0.286-0.655-0.483
			c-0.14-0.198-0.236-0.465-0.289-0.803c-0.045-0.238-0.066-0.722-0.066-1.449v-3.392h-0.945v-1.641h0.945v-1.546l2.065-1.201v2.747
			H39.919z"/>
		<path style="fill:#FFFFFF;" d="M40.871,308.32c0-0.684,0.169-1.345,0.505-1.985c0.338-0.639,0.814-1.127,1.433-1.465
			c0.617-0.336,1.308-0.505,2.069-0.505c1.176,0,2.141,0.382,2.893,1.146c0.752,0.764,1.128,1.729,1.128,2.896
			c0,1.177-0.38,2.152-1.139,2.926c-0.76,0.774-1.716,1.161-2.868,1.161c-0.713,0-1.393-0.161-2.039-0.483
			c-0.647-0.322-1.139-0.795-1.477-1.417C41.04,309.971,40.871,309.213,40.871,308.32z M42.98,308.43
			c0,0.771,0.183,1.361,0.55,1.771c0.365,0.41,0.817,0.615,1.354,0.615s0.987-0.205,1.352-0.615c0.363-0.41,0.546-1.005,0.546-1.787
			c0-0.762-0.183-1.348-0.546-1.758c-0.364-0.41-0.814-0.615-1.352-0.615s-0.989,0.205-1.354,0.615
			C43.163,307.067,42.98,307.659,42.98,308.43z"/>
		<path style="fill:#FFFFFF;" d="M52.479,312.319H50.42v-7.778h1.912v1.106c0.327-0.522,0.621-0.867,0.883-1.033
			c0.261-0.166,0.558-0.249,0.89-0.249c0.469,0,0.92,0.13,1.354,0.388l-0.637,1.795c-0.347-0.225-0.669-0.337-0.967-0.337
			c-0.288,0-0.532,0.079-0.732,0.238c-0.2,0.158-0.357,0.445-0.473,0.86c-0.114,0.415-0.172,1.284-0.172,2.607V312.319z"/>
		<path style="fill:#FFFFFF;" d="M60.851,309.843l2.051,0.345c-0.264,0.752-0.68,1.324-1.249,1.717
			c-0.568,0.394-1.28,0.59-2.135,0.59c-1.353,0-2.354-0.441-3.003-1.326c-0.513-0.707-0.769-1.601-0.769-2.68
			c0-1.289,0.336-2.299,1.01-3.029c0.674-0.729,1.526-1.095,2.557-1.095c1.157,0,2.07,0.382,2.739,1.146
			c0.669,0.764,0.989,1.935,0.96,3.512h-5.156c0.014,0.61,0.18,1.085,0.498,1.425c0.316,0.339,0.712,0.509,1.186,0.509
			c0.322,0,0.594-0.088,0.813-0.264S60.739,310.234,60.851,309.843z M60.968,307.763c-0.015-0.596-0.169-1.049-0.462-1.358
			c-0.293-0.311-0.649-0.465-1.068-0.465c-0.45,0-0.82,0.163-1.113,0.49s-0.438,0.771-0.433,1.333H60.968z"/>
		<path style="fill:#FFFFFF;" d="M70.395,306.914l-1.868-0.337c0.21-0.752,0.571-1.309,1.084-1.67s1.274-0.542,2.285-0.542
			c0.918,0,1.602,0.108,2.051,0.326c0.449,0.217,0.766,0.493,0.948,0.827c0.184,0.335,0.275,0.949,0.275,1.842l-0.022,2.402
			c0,0.685,0.033,1.188,0.099,1.513c0.066,0.325,0.189,0.673,0.37,1.044h-2.036c-0.054-0.137-0.12-0.339-0.197-0.607
			c-0.035-0.122-0.059-0.203-0.074-0.242c-0.352,0.342-0.728,0.599-1.127,0.77c-0.401,0.17-0.828,0.256-1.282,0.256
			c-0.801,0-1.432-0.217-1.894-0.652c-0.461-0.434-0.691-0.983-0.691-1.647c0-0.439,0.104-0.831,0.314-1.176
			c0.21-0.344,0.504-0.607,0.883-0.791c0.378-0.183,0.924-0.343,1.637-0.479c0.962-0.181,1.628-0.349,2-0.506v-0.205
			c0-0.395-0.099-0.677-0.293-0.846c-0.196-0.168-0.564-0.252-1.106-0.252c-0.366,0-0.651,0.071-0.856,0.216
			C70.688,306.299,70.521,306.552,70.395,306.914z M73.149,308.583c-0.264,0.088-0.682,0.193-1.253,0.315s-0.944,0.241-1.12,0.358
			c-0.27,0.19-0.403,0.433-0.403,0.726c0,0.288,0.107,0.537,0.322,0.746c0.215,0.211,0.488,0.315,0.82,0.315
			c0.371,0,0.726-0.122,1.062-0.366c0.25-0.186,0.413-0.412,0.491-0.682c0.054-0.176,0.081-0.51,0.081-1.003V308.583z"/>
		<path style="fill:#FFFFFF;" d="M84.274,312.319h-2.059v-3.97c0-0.84-0.044-1.383-0.132-1.63c-0.088-0.246-0.23-0.438-0.429-0.574
			c-0.197-0.137-0.436-0.205-0.714-0.205c-0.356,0-0.677,0.098-0.96,0.293s-0.477,0.453-0.582,0.775
			c-0.104,0.322-0.157,0.919-0.157,1.787v3.523h-2.058v-7.778h1.911v1.143c0.679-0.879,1.533-1.318,2.563-1.318
			c0.454,0,0.869,0.082,1.245,0.245c0.376,0.164,0.66,0.373,0.854,0.627c0.192,0.254,0.327,0.541,0.402,0.863
			c0.076,0.322,0.114,0.784,0.114,1.385V312.319z"/>
		<path style="fill:#FFFFFF;" d="M93.495,312.319h-1.912v-1.143c-0.317,0.444-0.692,0.775-1.124,0.992
			c-0.433,0.218-0.868,0.326-1.308,0.326c-0.894,0-1.659-0.36-2.296-1.08c-0.638-0.721-0.956-1.725-0.956-3.014
			c0-1.318,0.31-2.321,0.93-3.007c0.62-0.687,1.404-1.029,2.352-1.029c0.869,0,1.621,0.361,2.256,1.084v-3.867h2.059V312.319z
			 M88.001,308.261c0,0.83,0.115,1.431,0.345,1.802c0.332,0.537,0.796,0.806,1.392,0.806c0.474,0,0.876-0.201,1.209-0.604
			c0.331-0.402,0.498-1.004,0.498-1.805c0-0.895-0.162-1.537-0.484-1.931c-0.322-0.393-0.734-0.589-1.237-0.589
			c-0.488,0-0.897,0.193-1.227,0.582C88.166,306.91,88.001,307.49,88.001,308.261z"/>
		<path style="fill:#FFFFFF;" d="M26.369,329.319v-10.737h4.563c1.146,0,1.98,0.097,2.501,0.289c0.52,0.193,0.936,0.536,1.249,1.029
			c0.312,0.493,0.469,1.058,0.469,1.692c0,0.805-0.237,1.471-0.711,1.995c-0.474,0.525-1.182,0.856-2.124,0.993
			c0.469,0.273,0.855,0.573,1.161,0.9c0.305,0.327,0.716,0.908,1.234,1.743l1.311,2.095h-2.593l-1.567-2.336
			c-0.557-0.836-0.938-1.361-1.143-1.579c-0.205-0.217-0.423-0.366-0.652-0.446c-0.229-0.081-0.593-0.121-1.091-0.121h-0.439v4.482
			H26.369z M28.537,323.123h1.604c1.039,0,1.688-0.044,1.947-0.132c0.259-0.088,0.462-0.239,0.608-0.454s0.22-0.483,0.22-0.806
			c0-0.361-0.097-0.653-0.289-0.875c-0.193-0.223-0.465-0.363-0.816-0.422c-0.176-0.023-0.703-0.036-1.582-0.036h-1.692V323.123z"/>
		<path style="fill:#FFFFFF;" d="M36.703,325.32c0-0.684,0.169-1.345,0.505-1.985c0.338-0.639,0.814-1.127,1.433-1.465
			c0.617-0.336,1.308-0.505,2.069-0.505c1.176,0,2.141,0.382,2.893,1.146c0.752,0.764,1.128,1.729,1.128,2.896
			c0,1.177-0.38,2.152-1.139,2.926c-0.76,0.774-1.716,1.161-2.868,1.161c-0.713,0-1.393-0.161-2.039-0.483
			c-0.647-0.322-1.139-0.795-1.477-1.417C36.872,326.971,36.703,326.213,36.703,325.32z M38.812,325.43
			c0,0.771,0.183,1.361,0.55,1.771c0.365,0.41,0.817,0.615,1.354,0.615s0.987-0.205,1.352-0.615c0.363-0.41,0.546-1.005,0.546-1.787
			c0-0.762-0.183-1.348-0.546-1.758c-0.364-0.41-0.814-0.615-1.352-0.615s-0.989,0.205-1.354,0.615
			C38.995,324.067,38.812,324.659,38.812,325.43z"/>
		<path style="fill:#FFFFFF;" d="M45.616,327.1l2.065-0.315c0.088,0.4,0.266,0.704,0.534,0.912c0.269,0.207,0.645,0.312,1.129,0.312
			c0.531,0,0.932-0.098,1.201-0.293c0.18-0.137,0.271-0.32,0.271-0.55c0-0.156-0.049-0.286-0.146-0.388
			c-0.103-0.098-0.332-0.188-0.688-0.271c-1.66-0.366-2.713-0.7-3.156-1.004c-0.615-0.419-0.924-1.003-0.924-1.75
			c0-0.674,0.267-1.24,0.799-1.699s1.357-0.688,2.476-0.688c1.064,0,1.855,0.174,2.373,0.521s0.874,0.859,1.069,1.537l-1.941,0.359
			c-0.083-0.303-0.24-0.535-0.472-0.695c-0.232-0.162-0.563-0.242-0.993-0.242c-0.541,0-0.93,0.076-1.164,0.227
			c-0.156,0.108-0.234,0.247-0.234,0.418c0,0.146,0.068,0.271,0.205,0.373c0.186,0.138,0.826,0.33,1.923,0.579
			c1.096,0.249,1.861,0.555,2.296,0.915c0.43,0.367,0.645,0.877,0.645,1.531c0,0.713-0.298,1.326-0.894,1.838
			c-0.596,0.514-1.478,0.77-2.644,0.77c-1.061,0-1.898-0.215-2.517-0.645C46.211,328.42,45.806,327.837,45.616,327.1z"/>
		<path style="fill:#FFFFFF;" d="M59.187,326.843l2.051,0.345c-0.264,0.752-0.68,1.324-1.249,1.717
			c-0.568,0.394-1.28,0.59-2.135,0.59c-1.353,0-2.354-0.441-3.003-1.326c-0.513-0.707-0.769-1.601-0.769-2.68
			c0-1.289,0.336-2.299,1.01-3.029c0.674-0.729,1.526-1.095,2.557-1.095c1.157,0,2.07,0.382,2.739,1.146
			c0.669,0.764,0.989,1.935,0.96,3.512h-5.156c0.014,0.61,0.18,1.085,0.498,1.425c0.316,0.339,0.712,0.509,1.186,0.509
			c0.322,0,0.594-0.088,0.813-0.264S59.075,327.234,59.187,326.843z M59.304,324.763c-0.015-0.596-0.169-1.049-0.462-1.358
			c-0.293-0.311-0.649-0.465-1.068-0.465c-0.45,0-0.82,0.163-1.113,0.49s-0.438,0.771-0.433,1.333H59.304z"/>
		<path style="fill:#FFFFFF;" d="M70.1,329.319h-2.059v-3.97c0-0.84-0.044-1.383-0.132-1.63c-0.088-0.246-0.23-0.438-0.429-0.574
			c-0.197-0.137-0.436-0.205-0.714-0.205c-0.356,0-0.677,0.098-0.96,0.293s-0.477,0.453-0.582,0.775
			c-0.104,0.322-0.157,0.919-0.157,1.787v3.523H63.01v-7.778h1.911v1.143c0.679-0.879,1.533-1.318,2.563-1.318
			c0.454,0,0.869,0.082,1.245,0.245c0.376,0.164,0.66,0.373,0.854,0.627c0.192,0.254,0.327,0.541,0.402,0.863
			c0.076,0.322,0.114,0.784,0.114,1.385V329.319z"/>
		<path style="fill:#FFFFFF;" d="M73.725,323.914l-1.868-0.337c0.21-0.752,0.571-1.309,1.084-1.67s1.274-0.542,2.285-0.542
			c0.918,0,1.602,0.108,2.051,0.326c0.449,0.217,0.766,0.493,0.948,0.827c0.184,0.335,0.275,0.949,0.275,1.842l-0.022,2.402
			c0,0.685,0.033,1.188,0.099,1.513c0.066,0.325,0.189,0.673,0.37,1.044h-2.036c-0.054-0.137-0.12-0.339-0.197-0.607
			c-0.035-0.122-0.059-0.203-0.074-0.242c-0.352,0.342-0.728,0.599-1.127,0.77c-0.401,0.17-0.828,0.256-1.282,0.256
			c-0.801,0-1.432-0.217-1.894-0.652c-0.461-0.434-0.691-0.983-0.691-1.647c0-0.439,0.104-0.831,0.314-1.176
			c0.21-0.344,0.504-0.607,0.883-0.791c0.378-0.183,0.924-0.343,1.637-0.479c0.962-0.181,1.628-0.349,2-0.506v-0.205
			c0-0.395-0.099-0.677-0.293-0.846c-0.196-0.168-0.564-0.252-1.106-0.252c-0.366,0-0.651,0.071-0.856,0.216
			C74.018,323.299,73.851,323.552,73.725,323.914z M76.479,325.583c-0.264,0.088-0.682,0.193-1.253,0.315s-0.944,0.241-1.12,0.358
			c-0.27,0.19-0.403,0.433-0.403,0.726c0,0.288,0.107,0.537,0.322,0.746c0.215,0.211,0.488,0.315,0.82,0.315
			c0.371,0,0.726-0.122,1.062-0.366c0.25-0.186,0.413-0.412,0.491-0.682c0.054-0.176,0.081-0.51,0.081-1.003V325.583z"/>
		<path style="fill:#FFFFFF;" d="M85.648,329.319v-1.164c-0.283,0.415-0.655,0.742-1.117,0.98c-0.461,0.239-0.948,0.359-1.461,0.359
			c-0.522,0-0.991-0.115-1.406-0.344c-0.415-0.229-0.716-0.552-0.901-0.967s-0.277-0.989-0.277-1.722v-4.922h2.058v3.574
			c0,1.094,0.038,1.764,0.113,2.011c0.076,0.246,0.214,0.441,0.414,0.586c0.2,0.144,0.454,0.216,0.762,0.216
			c0.352,0,0.667-0.097,0.944-0.289c0.279-0.193,0.469-0.433,0.572-0.718c0.102-0.286,0.153-0.985,0.153-2.099v-3.281h2.058v7.778
			H85.648z"/>
		<path style="fill:#FFFFFF;" d="M30.236,335.582h2.161v6.797c0,0.889-0.079,1.572-0.234,2.051
			c-0.211,0.625-0.592,1.127-1.143,1.505c-0.553,0.379-1.28,0.568-2.184,0.568c-1.06,0-1.875-0.297-2.445-0.891
			c-0.572-0.593-0.86-1.463-0.865-2.611l2.044-0.234c0.024,0.615,0.114,1.051,0.271,1.305c0.234,0.386,0.591,0.578,1.07,0.578
			c0.482,0,0.824-0.138,1.025-0.414c0.199-0.275,0.3-0.848,0.3-1.717V335.582z"/>
		<path style="fill:#FFFFFF;" d="M39.193,343.843l2.051,0.345c-0.264,0.752-0.68,1.324-1.249,1.717
			c-0.568,0.394-1.28,0.59-2.135,0.59c-1.353,0-2.354-0.441-3.003-1.326c-0.513-0.707-0.769-1.601-0.769-2.68
			c0-1.289,0.336-2.299,1.01-3.029c0.674-0.729,1.526-1.095,2.557-1.095c1.157,0,2.07,0.382,2.739,1.146
			c0.669,0.764,0.989,1.935,0.96,3.512h-5.156c0.014,0.61,0.18,1.085,0.498,1.425c0.316,0.339,0.712,0.509,1.186,0.509
			c0.322,0,0.594-0.088,0.813-0.264S39.081,344.234,39.193,343.843z M39.31,341.763c-0.015-0.596-0.169-1.049-0.462-1.358
			c-0.293-0.311-0.649-0.465-1.068-0.465c-0.45,0-0.82,0.163-1.113,0.49s-0.438,0.771-0.433,1.333H39.31z"/>
		<path style="fill:#FFFFFF;" d="M44.481,346.319l-2.461-7.778h1.999l1.458,5.098l1.34-5.098h1.984l1.297,5.098l1.486-5.098h2.029
			l-2.498,7.778h-1.977l-1.341-5.002l-1.318,5.002H44.481z"/>
		<path style="fill:#FFFFFF;" d="M59.203,343.843l2.051,0.345c-0.264,0.752-0.68,1.324-1.249,1.717
			c-0.568,0.394-1.28,0.59-2.135,0.59c-1.353,0-2.354-0.441-3.003-1.326c-0.513-0.707-0.769-1.601-0.769-2.68
			c0-1.289,0.336-2.299,1.01-3.029c0.674-0.729,1.526-1.095,2.557-1.095c1.157,0,2.07,0.382,2.739,1.146
			c0.669,0.764,0.989,1.935,0.96,3.512h-5.156c0.014,0.61,0.18,1.085,0.498,1.425c0.316,0.339,0.712,0.509,1.186,0.509
			c0.322,0,0.594-0.088,0.813-0.264S59.09,344.234,59.203,343.843z M59.32,341.763c-0.015-0.596-0.169-1.049-0.462-1.358
			c-0.293-0.311-0.649-0.465-1.068-0.465c-0.45,0-0.82,0.163-1.113,0.49s-0.438,0.771-0.433,1.333H59.32z"/>
		<path style="fill:#FFFFFF;" d="M63.04,346.319v-10.737h2.059v10.737H63.04z"/>
		<path style="fill:#FFFFFF;" d="M71.712,343.843l2.051,0.345c-0.264,0.752-0.68,1.324-1.249,1.717
			c-0.568,0.394-1.28,0.59-2.135,0.59c-1.353,0-2.354-0.441-3.003-1.326c-0.513-0.707-0.769-1.601-0.769-2.68
			c0-1.289,0.336-2.299,1.01-3.029c0.674-0.729,1.526-1.095,2.557-1.095c1.157,0,2.07,0.382,2.739,1.146
			c0.669,0.764,0.989,1.935,0.96,3.512h-5.156c0.014,0.61,0.18,1.085,0.498,1.425c0.316,0.339,0.712,0.509,1.186,0.509
			c0.322,0,0.594-0.088,0.813-0.264S71.6,344.234,71.712,343.843z M71.83,341.763c-0.015-0.596-0.169-1.049-0.462-1.358
			c-0.293-0.311-0.649-0.465-1.068-0.465c-0.45,0-0.82,0.163-1.113,0.49s-0.438,0.771-0.433,1.333H71.83z"/>
		<path style="fill:#FFFFFF;" d="M77.52,346.319h-2.059v-7.778h1.912v1.106c0.327-0.522,0.621-0.867,0.883-1.033
			c0.261-0.166,0.558-0.249,0.89-0.249c0.469,0,0.92,0.13,1.354,0.388l-0.637,1.795c-0.347-0.225-0.669-0.337-0.967-0.337
			c-0.288,0-0.532,0.079-0.732,0.238c-0.2,0.158-0.357,0.445-0.473,0.86c-0.114,0.415-0.172,1.284-0.172,2.607V346.319z"/>
		<path style="fill:#FFFFFF;" d="M80.663,344.1l2.065-0.315c0.088,0.4,0.266,0.704,0.534,0.912c0.269,0.207,0.645,0.312,1.129,0.312
			c0.531,0,0.932-0.098,1.201-0.293c0.18-0.137,0.271-0.32,0.271-0.55c0-0.156-0.049-0.286-0.146-0.388
			c-0.103-0.098-0.332-0.188-0.688-0.271c-1.66-0.366-2.713-0.7-3.156-1.004c-0.615-0.419-0.924-1.003-0.924-1.75
			c0-0.674,0.267-1.24,0.799-1.699s1.357-0.688,2.476-0.688c1.064,0,1.855,0.174,2.373,0.521s0.874,0.859,1.069,1.537l-1.941,0.359
			c-0.083-0.303-0.24-0.535-0.472-0.695c-0.232-0.162-0.563-0.242-0.993-0.242c-0.541,0-0.93,0.076-1.164,0.227
			c-0.156,0.108-0.234,0.247-0.234,0.418c0,0.146,0.068,0.271,0.205,0.373c0.186,0.138,0.826,0.33,1.923,0.579
			c1.096,0.249,1.861,0.555,2.296,0.915c0.43,0.367,0.645,0.877,0.645,1.531c0,0.713-0.298,1.326-0.894,1.838
			c-0.596,0.514-1.478,0.77-2.644,0.77c-1.061,0-1.898-0.215-2.517-0.645C81.257,345.42,80.853,344.837,80.663,344.1z"/>
	</g>
</g>
<g>
	<polygon points="85.846,36.838 159.661,36.838 159.661,81.469 124.296,81.469 149.487,187.826 115.22,81.469 85.846,81.469 	"/>
	<g>
		<rect x="94.832" y="43.523" style="fill:none;" width="61.203" height="32.74"/>
		<path style="fill:#FFFFFF;" d="M95.858,54.262V43.525h2.168v10.737H95.858z"/>
		<path style="fill:#FFFFFF;" d="M99.922,46.484h1.897v1.062c0.678-0.824,1.486-1.237,2.424-1.237c0.498,0,0.93,0.103,1.297,0.308
			c0.365,0.205,0.666,0.516,0.9,0.93c0.342-0.414,0.711-0.725,1.105-0.93c0.396-0.205,0.818-0.308,1.268-0.308
			c0.571,0,1.055,0.116,1.45,0.348c0.396,0.232,0.69,0.573,0.886,1.022c0.142,0.332,0.213,0.869,0.213,1.611v4.973h-2.059v-4.445
			c0-0.771-0.07-1.27-0.212-1.494c-0.19-0.293-0.483-0.439-0.879-0.439c-0.288,0-0.56,0.088-0.813,0.264s-0.437,0.433-0.549,0.772
			c-0.112,0.339-0.168,0.875-0.168,1.607v3.735h-2.059V50c0-0.757-0.037-1.245-0.109-1.465c-0.074-0.22-0.188-0.383-0.341-0.491
			c-0.154-0.106-0.362-0.16-0.626-0.16c-0.318,0-0.604,0.085-0.857,0.256s-0.436,0.418-0.546,0.74
			c-0.109,0.322-0.165,0.856-0.165,1.604v3.779h-2.058V46.484z"/>
		<path style="fill:#FFFFFF;" d="M113.355,46.484h1.92v1.143c0.248-0.391,0.586-0.708,1.01-0.952
			c0.426-0.244,0.896-0.366,1.414-0.366c0.903,0,1.67,0.354,2.3,1.062c0.63,0.709,0.944,1.695,0.944,2.959
			c0,1.3-0.317,2.309-0.951,3.029c-0.636,0.72-1.404,1.08-2.308,1.08c-0.43,0-0.819-0.086-1.168-0.256
			c-0.35-0.171-0.717-0.464-1.103-0.879v3.918h-2.059V46.484z M115.392,50.241c0,0.875,0.173,1.521,0.52,1.938
			c0.347,0.418,0.77,0.627,1.268,0.627c0.478,0,0.876-0.192,1.193-0.575c0.317-0.384,0.477-1.012,0.477-1.886
			c0-0.815-0.164-1.422-0.491-1.816c-0.327-0.396-0.732-0.594-1.216-0.594c-0.503,0-0.921,0.194-1.252,0.582
			C115.557,48.905,115.392,49.479,115.392,50.241z"/>
		<path style="fill:#FFFFFF;" d="M127.081,51.787l2.051,0.345c-0.264,0.752-0.68,1.324-1.249,1.717
			c-0.568,0.394-1.28,0.59-2.135,0.59c-1.353,0-2.354-0.441-3.003-1.326c-0.513-0.707-0.769-1.601-0.769-2.68
			c0-1.289,0.336-2.299,1.01-3.029c0.674-0.729,1.526-1.095,2.557-1.095c1.157,0,2.07,0.382,2.739,1.146
			c0.669,0.764,0.989,1.935,0.96,3.512h-5.156c0.014,0.61,0.18,1.085,0.498,1.425c0.316,0.339,0.712,0.509,1.186,0.509
			c0.322,0,0.594-0.088,0.813-0.264S126.968,52.177,127.081,51.787z M127.198,49.707c-0.015-0.596-0.169-1.049-0.462-1.358
			c-0.293-0.311-0.649-0.465-1.068-0.465c-0.45,0-0.82,0.163-1.113,0.49s-0.438,0.771-0.433,1.333H127.198z"/>
		<path style="fill:#FFFFFF;" d="M132.888,54.262h-2.059v-7.778h1.912v1.106c0.327-0.522,0.621-0.867,0.883-1.033
			c0.261-0.166,0.558-0.249,0.89-0.249c0.469,0,0.92,0.13,1.354,0.388l-0.637,1.795c-0.347-0.225-0.669-0.337-0.967-0.337
			c-0.288,0-0.532,0.079-0.732,0.238c-0.2,0.158-0.357,0.445-0.473,0.86c-0.114,0.415-0.172,1.284-0.172,2.607V54.262z"/>
		<path style="fill:#FFFFFF;" d="M136.755,45.429v-1.904h2.059v1.904H136.755z M136.755,54.262v-7.778h2.059v7.778H136.755z"/>
		<path style="fill:#FFFFFF;" d="M142.462,48.857l-1.868-0.337c0.21-0.752,0.571-1.309,1.084-1.67s1.274-0.542,2.285-0.542
			c0.918,0,1.602,0.108,2.051,0.326c0.449,0.217,0.766,0.493,0.948,0.827c0.184,0.335,0.275,0.949,0.275,1.842l-0.022,2.402
			c0,0.685,0.033,1.188,0.099,1.513c0.066,0.325,0.189,0.673,0.37,1.044h-2.036c-0.054-0.137-0.12-0.339-0.197-0.607
			c-0.035-0.122-0.059-0.203-0.074-0.242c-0.352,0.342-0.728,0.599-1.127,0.77c-0.401,0.17-0.828,0.256-1.282,0.256
			c-0.801,0-1.432-0.217-1.894-0.652c-0.461-0.434-0.691-0.983-0.691-1.647c0-0.439,0.104-0.831,0.314-1.176
			c0.21-0.344,0.504-0.607,0.883-0.791c0.378-0.183,0.924-0.343,1.637-0.479c0.962-0.181,1.628-0.349,2-0.506v-0.205
			c0-0.395-0.099-0.677-0.293-0.846c-0.196-0.168-0.564-0.252-1.106-0.252c-0.366,0-0.651,0.071-0.856,0.216
			C142.755,48.243,142.588,48.496,142.462,48.857z M145.216,50.527c-0.264,0.088-0.682,0.193-1.253,0.315s-0.944,0.241-1.12,0.358
			c-0.27,0.19-0.403,0.433-0.403,0.726c0,0.288,0.107,0.537,0.322,0.746c0.215,0.211,0.488,0.315,0.82,0.315
			c0.371,0,0.726-0.122,1.062-0.366c0.25-0.186,0.413-0.412,0.491-0.682c0.054-0.176,0.081-0.51,0.081-1.003V50.527z"/>
		<path style="fill:#FFFFFF;" d="M149.265,54.262V43.525h2.059v10.737H149.265z"/>
		<path style="fill:#FFFFFF;" d="M99.476,63.484v1.641H98.07v3.135c0,0.635,0.014,1.005,0.04,1.109
			c0.027,0.105,0.088,0.192,0.184,0.261c0.095,0.068,0.211,0.102,0.348,0.102c0.19,0,0.466-0.065,0.828-0.197l0.176,1.597
			c-0.479,0.205-1.021,0.308-1.627,0.308c-0.371,0-0.705-0.062-1.003-0.187c-0.298-0.125-0.517-0.286-0.655-0.483
			c-0.14-0.198-0.236-0.465-0.289-0.803c-0.045-0.238-0.066-0.722-0.066-1.449v-3.392h-0.945v-1.641h0.945v-1.546l2.065-1.201v2.747
			H99.476z"/>
		<path style="fill:#FFFFFF;" d="M102.955,60.525v3.948c0.664-0.777,1.458-1.165,2.381-1.165c0.474,0,0.9,0.088,1.281,0.264
			s0.668,0.4,0.861,0.674c0.192,0.273,0.324,0.576,0.396,0.908c0.07,0.332,0.106,0.848,0.106,1.546v4.562h-2.059v-4.109
			c0-0.814-0.039-1.332-0.117-1.553c-0.078-0.219-0.216-0.394-0.414-0.523c-0.197-0.129-0.445-0.193-0.743-0.193
			c-0.342,0-0.647,0.083-0.915,0.248c-0.27,0.167-0.466,0.417-0.59,0.751c-0.125,0.335-0.188,0.829-0.188,1.483v3.896h-2.058V60.525
			H102.955z"/>
		<path style="fill:#FFFFFF;" d="M114.571,68.787l2.051,0.345c-0.264,0.752-0.68,1.324-1.249,1.717
			c-0.568,0.394-1.28,0.59-2.135,0.59c-1.353,0-2.354-0.441-3.003-1.326c-0.513-0.707-0.769-1.601-0.769-2.68
			c0-1.289,0.336-2.299,1.01-3.029c0.674-0.729,1.526-1.095,2.557-1.095c1.157,0,2.07,0.382,2.739,1.146
			c0.669,0.764,0.989,1.935,0.96,3.512h-5.156c0.014,0.61,0.18,1.085,0.498,1.425c0.316,0.339,0.712,0.509,1.186,0.509
			c0.322,0,0.594-0.088,0.813-0.264S114.459,69.177,114.571,68.787z M114.688,66.707c-0.015-0.596-0.169-1.049-0.462-1.358
			c-0.293-0.311-0.649-0.465-1.068-0.465c-0.45,0-0.82,0.163-1.113,0.49s-0.438,0.771-0.433,1.333H114.688z"/>
		<path style="fill:#FFFFFF;" d="M119.947,65.857l-1.868-0.337c0.21-0.752,0.571-1.309,1.084-1.67s1.274-0.542,2.285-0.542
			c0.918,0,1.602,0.108,2.051,0.326c0.449,0.217,0.766,0.493,0.948,0.827c0.184,0.335,0.275,0.949,0.275,1.842l-0.022,2.402
			c0,0.685,0.033,1.188,0.099,1.513c0.066,0.325,0.189,0.673,0.37,1.044h-2.036c-0.054-0.137-0.12-0.339-0.197-0.607
			c-0.035-0.122-0.059-0.203-0.074-0.242c-0.352,0.342-0.728,0.599-1.127,0.77c-0.401,0.17-0.828,0.256-1.282,0.256
			c-0.801,0-1.432-0.217-1.894-0.652c-0.461-0.434-0.691-0.983-0.691-1.647c0-0.439,0.104-0.831,0.314-1.176
			c0.21-0.344,0.504-0.607,0.883-0.791c0.378-0.183,0.924-0.343,1.637-0.479c0.962-0.181,1.628-0.349,2-0.506v-0.205
			c0-0.395-0.099-0.677-0.293-0.846c-0.196-0.168-0.564-0.252-1.106-0.252c-0.366,0-0.651,0.071-0.856,0.216
			C120.24,65.243,120.073,65.496,119.947,65.857z M122.701,67.527c-0.264,0.088-0.682,0.193-1.253,0.315s-0.944,0.241-1.12,0.358
			c-0.27,0.19-0.403,0.433-0.403,0.726c0,0.288,0.107,0.537,0.322,0.746c0.215,0.211,0.488,0.315,0.82,0.315
			c0.371,0,0.726-0.122,1.062-0.366c0.25-0.186,0.413-0.412,0.491-0.682c0.054-0.176,0.081-0.51,0.081-1.003V67.527z"/>
		<path style="fill:#FFFFFF;" d="M130.317,63.484v1.641h-1.406v3.135c0,0.635,0.014,1.005,0.04,1.109
			c0.027,0.105,0.088,0.192,0.184,0.261c0.095,0.068,0.211,0.102,0.348,0.102c0.19,0,0.466-0.065,0.828-0.197l0.176,1.597
			c-0.479,0.205-1.021,0.308-1.627,0.308c-0.371,0-0.705-0.062-1.003-0.187c-0.298-0.125-0.517-0.286-0.655-0.483
			c-0.14-0.198-0.236-0.465-0.289-0.803c-0.045-0.238-0.066-0.722-0.066-1.449v-3.392H125.9v-1.641h0.945v-1.546l2.065-1.201v2.747
			H130.317z"/>
		<path style="fill:#FFFFFF;" d="M136.25,68.787l2.051,0.345c-0.264,0.752-0.68,1.324-1.249,1.717
			c-0.568,0.394-1.28,0.59-2.135,0.59c-1.353,0-2.354-0.441-3.003-1.326c-0.513-0.707-0.769-1.601-0.769-2.68
			c0-1.289,0.336-2.299,1.01-3.029c0.674-0.729,1.526-1.095,2.557-1.095c1.157,0,2.07,0.382,2.739,1.146
			c0.669,0.764,0.989,1.935,0.96,3.512h-5.156c0.014,0.61,0.18,1.085,0.498,1.425c0.316,0.339,0.712,0.509,1.186,0.509
			c0.322,0,0.594-0.088,0.813-0.264S136.137,69.177,136.25,68.787z M136.367,66.707c-0.015-0.596-0.169-1.049-0.462-1.358
			c-0.293-0.311-0.649-0.465-1.068-0.465c-0.45,0-0.82,0.163-1.113,0.49s-0.438,0.771-0.433,1.333H136.367z"/>
		<path style="fill:#FFFFFF;" d="M142.058,71.262H140v-7.778h1.912v1.106c0.327-0.522,0.621-0.867,0.883-1.033
			c0.261-0.166,0.558-0.249,0.89-0.249c0.469,0,0.92,0.13,1.354,0.388l-0.637,1.795c-0.347-0.225-0.669-0.337-0.967-0.337
			c-0.288,0-0.532,0.079-0.732,0.238c-0.2,0.158-0.357,0.445-0.473,0.86c-0.114,0.415-0.172,1.284-0.172,2.607V71.262z"/>
	</g>
</g>
<g>
	<polygon points="175.269,36.953 257.712,36.953 257.712,101.325 205.487,101.325 161.29,187.494 196.615,101.325 175.269,101.325 	
		"/>
	<g>
		<rect x="184.107" y="46.557" style="fill:none;" width="76.88" height="49.071"/>
		<path style="fill:#FFFFFF;" d="M185.212,57.296V46.559h7.361v1.816h-5.193v2.542h4.482v1.816h-4.482v4.562H185.212z"/>
		<path style="fill:#FFFFFF;" d="M196.316,57.296h-2.059v-7.778h1.912v1.106c0.327-0.522,0.621-0.867,0.883-1.033
			c0.261-0.166,0.558-0.249,0.89-0.249c0.469,0,0.92,0.13,1.354,0.388l-0.637,1.795c-0.347-0.225-0.669-0.337-0.967-0.337
			c-0.288,0-0.532,0.079-0.732,0.238c-0.2,0.158-0.357,0.445-0.473,0.86c-0.114,0.415-0.172,1.284-0.172,2.607V57.296z"/>
		<path style="fill:#FFFFFF;" d="M201.722,51.891l-1.868-0.337c0.21-0.752,0.571-1.309,1.084-1.67s1.274-0.542,2.285-0.542
			c0.918,0,1.602,0.108,2.051,0.326c0.449,0.217,0.766,0.493,0.948,0.827c0.184,0.335,0.275,0.949,0.275,1.842l-0.022,2.402
			c0,0.685,0.033,1.188,0.099,1.513c0.066,0.325,0.189,0.673,0.37,1.044h-2.036c-0.054-0.137-0.12-0.339-0.197-0.607
			c-0.035-0.122-0.059-0.203-0.074-0.242c-0.352,0.342-0.728,0.599-1.127,0.77c-0.401,0.17-0.828,0.256-1.282,0.256
			c-0.801,0-1.432-0.217-1.894-0.652c-0.461-0.434-0.691-0.983-0.691-1.647c0-0.439,0.104-0.831,0.314-1.176
			c0.21-0.344,0.504-0.607,0.883-0.791c0.378-0.183,0.924-0.343,1.637-0.479c0.962-0.181,1.628-0.349,2-0.506v-0.205
			c0-0.395-0.099-0.677-0.293-0.846c-0.196-0.168-0.564-0.252-1.106-0.252c-0.366,0-0.651,0.071-0.856,0.216
			C202.015,51.277,201.848,51.53,201.722,51.891z M204.476,53.561c-0.264,0.088-0.682,0.193-1.253,0.315s-0.944,0.241-1.12,0.358
			c-0.27,0.19-0.403,0.433-0.403,0.726c0,0.288,0.107,0.537,0.322,0.746c0.215,0.211,0.488,0.315,0.82,0.315
			c0.371,0,0.726-0.122,1.062-0.366c0.25-0.186,0.413-0.412,0.491-0.682c0.054-0.176,0.081-0.51,0.081-1.003V53.561z"/>
		<path style="fill:#FFFFFF;" d="M215.601,57.296h-2.059v-3.97c0-0.84-0.044-1.383-0.132-1.63c-0.088-0.246-0.23-0.438-0.429-0.574
			c-0.197-0.137-0.436-0.205-0.714-0.205c-0.356,0-0.677,0.098-0.96,0.293s-0.477,0.453-0.582,0.775
			c-0.104,0.322-0.157,0.919-0.157,1.787v3.523h-2.058v-7.778h1.911v1.143c0.679-0.879,1.533-1.318,2.563-1.318
			c0.454,0,0.869,0.082,1.245,0.245c0.376,0.164,0.66,0.373,0.854,0.627c0.192,0.254,0.327,0.541,0.402,0.863
			c0.076,0.322,0.114,0.784,0.114,1.385V57.296z"/>
		<path style="fill:#FFFFFF;" d="M217.615,57.296V46.559h2.058v5.698l2.409-2.739h2.535l-2.659,2.842l2.849,4.937h-2.219
			l-1.955-3.494l-0.96,1.004v2.49H217.615z"/>
		<path style="fill:#FFFFFF;" d="M225.978,46.588h2.059v1.472c0,0.597-0.052,1.066-0.154,1.41c-0.103,0.345-0.297,0.653-0.582,0.927
			c-0.286,0.273-0.648,0.488-1.088,0.645l-0.402-0.85c0.414-0.137,0.71-0.324,0.886-0.563s0.269-0.566,0.278-0.982h-0.996V46.588z"
			/>
		<path style="fill:#FFFFFF;" d="M228.916,55.078l2.065-0.315c0.088,0.4,0.266,0.704,0.534,0.912
			c0.269,0.207,0.645,0.312,1.129,0.312c0.531,0,0.932-0.098,1.201-0.293c0.18-0.137,0.271-0.32,0.271-0.55
			c0-0.156-0.049-0.286-0.146-0.388c-0.103-0.098-0.332-0.188-0.688-0.271c-1.66-0.366-2.713-0.7-3.156-1.004
			c-0.615-0.419-0.924-1.003-0.924-1.75c0-0.674,0.267-1.24,0.799-1.699s1.357-0.688,2.476-0.688c1.064,0,1.855,0.174,2.373,0.521
			s0.874,0.859,1.069,1.537l-1.941,0.359c-0.083-0.303-0.24-0.535-0.472-0.695c-0.232-0.162-0.563-0.242-0.993-0.242
			c-0.541,0-0.93,0.076-1.164,0.227c-0.156,0.108-0.234,0.247-0.234,0.418c0,0.146,0.068,0.271,0.205,0.373
			c0.186,0.138,0.826,0.33,1.923,0.579c1.096,0.249,1.861,0.555,2.296,0.915c0.43,0.367,0.645,0.877,0.645,1.531
			c0,0.713-0.298,1.326-0.894,1.838c-0.596,0.514-1.478,0.77-2.644,0.77c-1.061,0-1.898-0.215-2.517-0.645
			C229.51,56.398,229.106,55.815,228.916,55.078z"/>
		<path style="fill:#FFFFFF;" d="M185.212,74.296V63.559h7.361v1.816h-5.193v2.542h4.482v1.816h-4.482v4.562H185.212z"/>
		<path style="fill:#FFFFFF;" d="M199.465,74.296v-1.164c-0.283,0.415-0.655,0.742-1.117,0.98c-0.461,0.239-0.948,0.359-1.461,0.359
			c-0.522,0-0.991-0.115-1.406-0.344c-0.415-0.229-0.716-0.552-0.901-0.967s-0.277-0.989-0.277-1.722v-4.922h2.058v3.574
			c0,1.094,0.038,1.764,0.113,2.011c0.076,0.246,0.214,0.441,0.414,0.586c0.2,0.144,0.454,0.216,0.762,0.216
			c0.352,0,0.667-0.097,0.944-0.289c0.279-0.193,0.469-0.433,0.572-0.718c0.102-0.286,0.153-0.985,0.153-2.099v-3.281h2.058v7.778
			H199.465z"/>
		<path style="fill:#FFFFFF;" d="M205.478,74.296h-2.059v-7.778h1.912v1.106c0.327-0.522,0.621-0.867,0.883-1.033
			c0.261-0.166,0.558-0.249,0.89-0.249c0.469,0,0.92,0.13,1.354,0.388l-0.637,1.795c-0.347-0.225-0.669-0.337-0.967-0.337
			c-0.288,0-0.532,0.079-0.732,0.238c-0.2,0.158-0.357,0.445-0.473,0.86c-0.114,0.415-0.172,1.284-0.172,2.607V74.296z"/>
		<path style="fill:#FFFFFF;" d="M216.421,74.296h-2.059v-3.97c0-0.84-0.044-1.383-0.132-1.63c-0.088-0.246-0.23-0.438-0.429-0.574
			c-0.197-0.137-0.436-0.205-0.714-0.205c-0.356,0-0.677,0.098-0.96,0.293s-0.477,0.453-0.582,0.775
			c-0.104,0.322-0.157,0.919-0.157,1.787v3.523h-2.058v-7.778h1.911v1.143c0.679-0.879,1.533-1.318,2.563-1.318
			c0.454,0,0.869,0.082,1.245,0.245c0.376,0.164,0.66,0.373,0.854,0.627c0.192,0.254,0.327,0.541,0.402,0.863
			c0.076,0.322,0.114,0.784,0.114,1.385V74.296z"/>
		<path style="fill:#FFFFFF;" d="M218.507,65.463v-1.904h2.059v1.904H218.507z M218.507,74.296v-7.778h2.059v7.778H218.507z"/>
		<path style="fill:#FFFFFF;" d="M226.243,66.518v1.641h-1.406v3.135c0,0.635,0.014,1.005,0.04,1.109
			c0.027,0.105,0.088,0.192,0.184,0.261c0.095,0.068,0.211,0.102,0.348,0.102c0.19,0,0.466-0.065,0.828-0.197l0.176,1.597
			c-0.479,0.205-1.021,0.308-1.627,0.308c-0.371,0-0.705-0.062-1.003-0.187c-0.298-0.125-0.517-0.286-0.655-0.483
			c-0.14-0.198-0.236-0.465-0.289-0.803c-0.045-0.238-0.066-0.722-0.066-1.449v-3.392h-0.945v-1.641h0.945v-1.546l2.065-1.201v2.747
			H226.243z"/>
		<path style="fill:#FFFFFF;" d="M232.791,74.296v-1.164c-0.283,0.415-0.655,0.742-1.117,0.98c-0.461,0.239-0.948,0.359-1.461,0.359
			c-0.522,0-0.991-0.115-1.406-0.344c-0.415-0.229-0.716-0.552-0.901-0.967s-0.277-0.989-0.277-1.722v-4.922h2.058v3.574
			c0,1.094,0.038,1.764,0.113,2.011c0.076,0.246,0.214,0.441,0.414,0.586c0.2,0.144,0.454,0.216,0.762,0.216
			c0.352,0,0.667-0.097,0.944-0.289c0.279-0.193,0.469-0.433,0.572-0.718c0.102-0.286,0.153-0.985,0.153-2.099v-3.281h2.058v7.778
			H232.791z"/>
		<path style="fill:#FFFFFF;" d="M238.804,74.296h-2.059v-7.778h1.912v1.106c0.327-0.522,0.621-0.867,0.883-1.033
			c0.261-0.166,0.558-0.249,0.89-0.249c0.469,0,0.92,0.13,1.354,0.388l-0.637,1.795c-0.347-0.225-0.669-0.337-0.967-0.337
			c-0.288,0-0.532,0.079-0.732,0.238c-0.2,0.158-0.357,0.445-0.473,0.86c-0.114,0.415-0.172,1.284-0.172,2.607V74.296z"/>
		<path style="fill:#FFFFFF;" d="M247.176,71.821l2.051,0.345c-0.264,0.752-0.68,1.324-1.249,1.717
			c-0.568,0.394-1.28,0.59-2.135,0.59c-1.353,0-2.354-0.441-3.003-1.326c-0.513-0.707-0.769-1.601-0.769-2.68
			c0-1.289,0.336-2.299,1.01-3.029c0.674-0.729,1.526-1.095,2.557-1.095c1.157,0,2.07,0.382,2.739,1.146
			c0.669,0.764,0.989,1.935,0.96,3.512h-5.156c0.014,0.61,0.18,1.085,0.498,1.425c0.316,0.339,0.712,0.509,1.186,0.509
			c0.322,0,0.594-0.088,0.813-0.264S247.064,72.211,247.176,71.821z M247.294,69.741c-0.015-0.596-0.169-1.049-0.462-1.358
			c-0.293-0.311-0.649-0.465-1.068-0.465c-0.45,0-0.82,0.163-1.113,0.49s-0.438,0.771-0.433,1.333H247.294z"/>
		<path style="fill:#FFFFFF;" d="M185.206,91.296V80.559h2.168v4.226h4.248v-4.226h2.168v10.737h-2.168v-4.695h-4.248v4.695H185.206
			z"/>
		<path style="fill:#FFFFFF;" d="M195.54,87.297c0-0.684,0.169-1.345,0.505-1.985c0.338-0.639,0.814-1.127,1.433-1.465
			c0.617-0.336,1.308-0.505,2.069-0.505c1.176,0,2.141,0.382,2.893,1.146c0.752,0.764,1.128,1.729,1.128,2.896
			c0,1.177-0.38,2.152-1.139,2.926c-0.76,0.774-1.716,1.161-2.868,1.161c-0.713,0-1.393-0.161-2.039-0.483
			c-0.647-0.322-1.139-0.795-1.477-1.417C195.709,88.949,195.54,88.191,195.54,87.297z M197.649,87.408
			c0,0.771,0.183,1.361,0.55,1.771c0.365,0.41,0.817,0.615,1.354,0.615s0.987-0.205,1.352-0.615c0.363-0.41,0.546-1.005,0.546-1.787
			c0-0.762-0.183-1.348-0.546-1.758c-0.364-0.41-0.814-0.615-1.352-0.615s-0.989,0.205-1.354,0.615
			C197.832,86.044,197.649,86.636,197.649,87.408z"/>
		<path style="fill:#FFFFFF;" d="M210.297,91.296v-1.164c-0.283,0.415-0.655,0.742-1.117,0.98c-0.461,0.239-0.948,0.359-1.461,0.359
			c-0.522,0-0.991-0.115-1.406-0.344c-0.415-0.229-0.716-0.552-0.901-0.967s-0.277-0.989-0.277-1.722v-4.922h2.058v3.574
			c0,1.094,0.038,1.764,0.113,2.011c0.076,0.246,0.214,0.441,0.414,0.586c0.2,0.144,0.454,0.216,0.762,0.216
			c0.352,0,0.667-0.097,0.944-0.289c0.279-0.193,0.469-0.433,0.572-0.718c0.102-0.286,0.153-0.985,0.153-2.099v-3.281h2.058v7.778
			H210.297z"/>
		<path style="fill:#FFFFFF;" d="M213.615,89.078l2.065-0.315c0.088,0.4,0.266,0.704,0.534,0.912
			c0.269,0.207,0.645,0.312,1.129,0.312c0.531,0,0.932-0.098,1.201-0.293c0.18-0.137,0.271-0.32,0.271-0.55
			c0-0.156-0.049-0.286-0.146-0.388c-0.103-0.098-0.332-0.188-0.688-0.271c-1.66-0.366-2.713-0.7-3.156-1.004
			c-0.615-0.419-0.924-1.003-0.924-1.75c0-0.674,0.267-1.24,0.799-1.699s1.357-0.688,2.476-0.688c1.064,0,1.855,0.174,2.373,0.521
			s0.874,0.859,1.069,1.537l-1.941,0.359c-0.083-0.303-0.24-0.535-0.472-0.695c-0.232-0.162-0.563-0.242-0.993-0.242
			c-0.541,0-0.93,0.076-1.164,0.227c-0.156,0.108-0.234,0.247-0.234,0.418c0,0.146,0.068,0.271,0.205,0.373
			c0.186,0.138,0.826,0.33,1.923,0.579c1.096,0.249,1.861,0.555,2.296,0.915c0.43,0.367,0.645,0.877,0.645,1.531
			c0,0.713-0.298,1.326-0.894,1.838c-0.596,0.514-1.478,0.77-2.644,0.77c-1.061,0-1.898-0.215-2.517-0.645
			C214.21,90.398,213.805,89.815,213.615,89.078z"/>
		<path style="fill:#FFFFFF;" d="M227.186,88.821l2.051,0.345c-0.264,0.752-0.68,1.324-1.249,1.717
			c-0.568,0.394-1.28,0.59-2.135,0.59c-1.353,0-2.354-0.441-3.003-1.326c-0.513-0.707-0.769-1.601-0.769-2.68
			c0-1.289,0.336-2.299,1.01-3.029c0.674-0.729,1.526-1.095,2.557-1.095c1.157,0,2.07,0.382,2.739,1.146
			c0.669,0.764,0.989,1.935,0.96,3.512h-5.156c0.014,0.61,0.18,1.085,0.498,1.425c0.316,0.339,0.712,0.509,1.186,0.509
			c0.322,0,0.594-0.088,0.813-0.264S227.074,89.211,227.186,88.821z M227.303,86.741c-0.015-0.596-0.169-1.049-0.462-1.358
			c-0.293-0.311-0.649-0.465-1.068-0.465c-0.45,0-0.82,0.163-1.113,0.49s-0.438,0.771-0.433,1.333H227.303z"/>
	</g>
</g>
<g>
	<polygon points="211.204,303.247 129.762,303.247 129.762,258.766 141.615,258.766 124.066,189.267 150.487,258.766 
		211.204,258.766 	"/>
	<g>
		<rect x="135.621" y="265.624" style="fill:none;" width="75.892" height="33.658"/>
		<path style="fill:#FFFFFF;" d="M136.72,265.627h4.292c0.85,0,1.483,0.035,1.9,0.106c0.418,0.07,0.791,0.219,1.121,0.443
			c0.329,0.225,0.604,0.523,0.824,0.896c0.219,0.374,0.329,0.793,0.329,1.256c0,0.504-0.136,0.965-0.406,1.385
			c-0.271,0.42-0.639,0.735-1.103,0.945c0.654,0.189,1.157,0.515,1.509,0.974s0.527,0.999,0.527,1.618
			c0,0.489-0.113,0.964-0.341,1.425c-0.227,0.462-0.537,0.83-0.93,1.106c-0.394,0.275-0.878,0.445-1.454,0.509
			c-0.361,0.039-1.233,0.063-2.614,0.073h-3.655V265.627z M138.888,267.415v2.483h1.421c0.845,0,1.369-0.013,1.574-0.037
			c0.371-0.044,0.663-0.172,0.876-0.385c0.212-0.212,0.318-0.491,0.318-0.838c0-0.332-0.092-0.603-0.274-0.81
			c-0.184-0.208-0.456-0.333-0.816-0.378c-0.216-0.023-0.833-0.036-1.854-0.036H138.888z M138.888,271.685v2.871h2.007
			c0.781,0,1.276-0.022,1.486-0.066c0.322-0.059,0.585-0.201,0.788-0.429c0.202-0.227,0.304-0.53,0.304-0.911
			c0-0.322-0.078-0.596-0.234-0.82s-0.382-0.389-0.678-0.491c-0.295-0.103-0.937-0.153-1.922-0.153H138.888z"/>
		<path style="fill:#FFFFFF;" d="M152.036,273.889l2.051,0.345c-0.264,0.752-0.68,1.324-1.249,1.717
			c-0.568,0.394-1.28,0.59-2.135,0.59c-1.353,0-2.354-0.441-3.003-1.326c-0.513-0.707-0.769-1.601-0.769-2.68
			c0-1.289,0.336-2.299,1.01-3.029c0.674-0.729,1.526-1.095,2.557-1.095c1.157,0,2.07,0.382,2.739,1.146
			c0.669,0.764,0.989,1.935,0.96,3.512h-5.156c0.014,0.61,0.18,1.085,0.498,1.425c0.316,0.339,0.712,0.509,1.186,0.509
			c0.322,0,0.594-0.088,0.813-0.264S151.923,274.28,152.036,273.889z M152.153,271.809c-0.015-0.596-0.169-1.049-0.462-1.358
			c-0.293-0.311-0.649-0.465-1.068-0.465c-0.45,0-0.82,0.163-1.113,0.49s-0.438,0.771-0.433,1.333H152.153z"/>
		<path style="fill:#FFFFFF;" d="M160.378,273.889l2.051,0.345c-0.264,0.752-0.68,1.324-1.249,1.717
			c-0.568,0.394-1.28,0.59-2.135,0.59c-1.353,0-2.354-0.441-3.003-1.326c-0.513-0.707-0.769-1.601-0.769-2.68
			c0-1.289,0.336-2.299,1.01-3.029c0.674-0.729,1.526-1.095,2.557-1.095c1.157,0,2.07,0.382,2.739,1.146
			c0.669,0.764,0.989,1.935,0.96,3.512h-5.156c0.014,0.61,0.18,1.085,0.498,1.425c0.316,0.339,0.712,0.509,1.186,0.509
			c0.322,0,0.594-0.088,0.813-0.264S160.265,274.28,160.378,273.889z M160.495,271.809c-0.015-0.596-0.169-1.049-0.462-1.358
			c-0.293-0.311-0.649-0.465-1.068-0.465c-0.45,0-0.82,0.163-1.113,0.49s-0.438,0.771-0.433,1.333H160.495z"/>
		<path style="fill:#FFFFFF;" d="M163.49,274.146l2.065-0.315c0.088,0.4,0.266,0.704,0.534,0.912
			c0.269,0.207,0.645,0.312,1.129,0.312c0.531,0,0.932-0.098,1.201-0.293c0.18-0.137,0.271-0.32,0.271-0.55
			c0-0.156-0.049-0.286-0.146-0.388c-0.103-0.098-0.332-0.188-0.688-0.271c-1.66-0.366-2.713-0.7-3.156-1.004
			c-0.615-0.419-0.924-1.003-0.924-1.75c0-0.674,0.267-1.24,0.799-1.699s1.357-0.688,2.476-0.688c1.064,0,1.855,0.174,2.373,0.521
			s0.874,0.859,1.069,1.537l-1.941,0.359c-0.083-0.303-0.24-0.535-0.472-0.695c-0.232-0.162-0.563-0.242-0.993-0.242
			c-0.541,0-0.93,0.076-1.164,0.227c-0.156,0.108-0.234,0.247-0.234,0.418c0,0.146,0.068,0.271,0.205,0.373
			c0.186,0.138,0.826,0.33,1.923,0.579c1.096,0.249,1.861,0.555,2.296,0.915c0.43,0.367,0.645,0.877,0.645,1.531
			c0,0.713-0.298,1.326-0.894,1.838c-0.596,0.514-1.478,0.77-2.644,0.77c-1.061,0-1.898-0.215-2.517-0.645
			C164.085,275.466,163.68,274.883,163.49,274.146z"/>
		<path style="fill:#FFFFFF;" d="M177.061,273.889l2.051,0.345c-0.264,0.752-0.68,1.324-1.249,1.717
			c-0.568,0.394-1.28,0.59-2.135,0.59c-1.353,0-2.354-0.441-3.003-1.326c-0.513-0.707-0.769-1.601-0.769-2.68
			c0-1.289,0.336-2.299,1.01-3.029c0.674-0.729,1.526-1.095,2.557-1.095c1.157,0,2.07,0.382,2.739,1.146
			c0.669,0.764,0.989,1.935,0.96,3.512h-5.156c0.014,0.61,0.18,1.085,0.498,1.425c0.316,0.339,0.712,0.509,1.186,0.509
			c0.322,0,0.594-0.088,0.813-0.264S176.949,274.28,177.061,273.889z M177.178,271.809c-0.015-0.596-0.169-1.049-0.462-1.358
			c-0.293-0.311-0.649-0.465-1.068-0.465c-0.45,0-0.82,0.163-1.113,0.49s-0.438,0.771-0.433,1.333H177.178z"/>
		<path style="fill:#FFFFFF;" d="M187.974,276.365h-2.059v-3.97c0-0.84-0.044-1.383-0.132-1.63c-0.088-0.246-0.23-0.438-0.429-0.574
			c-0.197-0.137-0.436-0.205-0.714-0.205c-0.356,0-0.677,0.098-0.96,0.293s-0.477,0.453-0.582,0.775
			c-0.104,0.322-0.157,0.919-0.157,1.787v3.523h-2.058v-7.778h1.911v1.143c0.679-0.879,1.533-1.318,2.563-1.318
			c0.454,0,0.869,0.082,1.245,0.245c0.376,0.164,0.66,0.373,0.854,0.627c0.192,0.254,0.327,0.541,0.402,0.863
			c0.076,0.322,0.114,0.784,0.114,1.385V276.365z"/>
		<path style="fill:#FFFFFF;" d="M136.72,293.365v-10.737h2.168v4.226h4.248v-4.226h2.168v10.737h-2.168v-4.695h-4.248v4.695H136.72
			z"/>
		<path style="fill:#FFFFFF;" d="M149.07,287.959l-1.868-0.337c0.21-0.752,0.571-1.309,1.084-1.67s1.274-0.542,2.285-0.542
			c0.918,0,1.602,0.108,2.051,0.326c0.449,0.217,0.766,0.493,0.948,0.827c0.184,0.335,0.275,0.949,0.275,1.842l-0.022,2.402
			c0,0.685,0.033,1.188,0.099,1.513c0.066,0.325,0.189,0.673,0.37,1.044h-2.036c-0.054-0.137-0.12-0.339-0.197-0.607
			c-0.035-0.122-0.059-0.203-0.074-0.242c-0.352,0.342-0.728,0.599-1.127,0.77c-0.401,0.17-0.828,0.256-1.282,0.256
			c-0.801,0-1.432-0.217-1.894-0.652c-0.461-0.434-0.691-0.983-0.691-1.647c0-0.439,0.104-0.831,0.314-1.176
			c0.21-0.344,0.504-0.607,0.883-0.791c0.378-0.183,0.924-0.343,1.637-0.479c0.962-0.181,1.628-0.349,2-0.506v-0.205
			c0-0.395-0.099-0.677-0.293-0.846c-0.196-0.168-0.564-0.252-1.106-0.252c-0.366,0-0.651,0.071-0.856,0.216
			C149.363,287.345,149.196,287.598,149.07,287.959z M151.824,289.629c-0.264,0.088-0.682,0.193-1.253,0.315
			s-0.944,0.241-1.12,0.358c-0.27,0.19-0.403,0.433-0.403,0.726c0,0.288,0.107,0.537,0.322,0.746
			c0.215,0.211,0.488,0.315,0.82,0.315c0.371,0,0.726-0.122,1.062-0.366c0.25-0.186,0.413-0.412,0.491-0.682
			c0.054-0.176,0.081-0.51,0.081-1.003V289.629z"/>
		<path style="fill:#FFFFFF;" d="M157.843,293.365h-2.059v-7.778h1.912v1.106c0.327-0.522,0.621-0.867,0.883-1.033
			c0.261-0.166,0.558-0.249,0.89-0.249c0.469,0,0.92,0.13,1.354,0.388l-0.637,1.795c-0.347-0.225-0.669-0.337-0.967-0.337
			c-0.288,0-0.532,0.079-0.732,0.238c-0.2,0.158-0.357,0.445-0.473,0.86c-0.114,0.415-0.172,1.284-0.172,2.607V293.365z"/>
		<path style="fill:#FFFFFF;" d="M168.845,293.365h-1.912v-1.143c-0.317,0.444-0.692,0.775-1.124,0.992
			c-0.433,0.218-0.868,0.326-1.308,0.326c-0.894,0-1.659-0.36-2.296-1.08c-0.638-0.721-0.956-1.725-0.956-3.014
			c0-1.318,0.31-2.321,0.93-3.007c0.62-0.687,1.404-1.029,2.352-1.029c0.869,0,1.621,0.361,2.256,1.084v-3.867h2.059V293.365z
			 M163.351,289.307c0,0.83,0.115,1.431,0.345,1.802c0.332,0.537,0.796,0.806,1.392,0.806c0.474,0,0.876-0.201,1.209-0.604
			c0.331-0.402,0.498-1.004,0.498-1.805c0-0.895-0.162-1.537-0.484-1.931c-0.322-0.393-0.734-0.589-1.237-0.589
			c-0.488,0-0.897,0.193-1.227,0.582C163.516,287.956,163.351,288.536,163.351,289.307z"/>
		<path style="fill:#FFFFFF;" d="M172.324,293.365l-2.461-7.778h1.999l1.458,5.098l1.34-5.098h1.984l1.297,5.098l1.486-5.098h2.029
			l-2.498,7.778h-1.977l-1.341-5.002l-1.318,5.002H172.324z"/>
		<path style="fill:#FFFFFF;" d="M184.08,287.959l-1.868-0.337c0.21-0.752,0.571-1.309,1.084-1.67s1.274-0.542,2.285-0.542
			c0.918,0,1.602,0.108,2.051,0.326c0.449,0.217,0.766,0.493,0.948,0.827c0.184,0.335,0.275,0.949,0.275,1.842l-0.022,2.402
			c0,0.685,0.033,1.188,0.099,1.513c0.066,0.325,0.189,0.673,0.37,1.044h-2.036c-0.054-0.137-0.12-0.339-0.197-0.607
			c-0.035-0.122-0.059-0.203-0.074-0.242c-0.352,0.342-0.728,0.599-1.127,0.77c-0.401,0.17-0.828,0.256-1.282,0.256
			c-0.801,0-1.432-0.217-1.894-0.652c-0.461-0.434-0.691-0.983-0.691-1.647c0-0.439,0.104-0.831,0.314-1.176
			c0.21-0.344,0.504-0.607,0.883-0.791c0.378-0.183,0.924-0.343,1.637-0.479c0.962-0.181,1.628-0.349,2-0.506v-0.205
			c0-0.395-0.099-0.677-0.293-0.846c-0.196-0.168-0.564-0.252-1.106-0.252c-0.366,0-0.651,0.071-0.856,0.216
			C184.373,287.345,184.206,287.598,184.08,287.959z M186.834,289.629c-0.264,0.088-0.682,0.193-1.253,0.315
			s-0.944,0.241-1.12,0.358c-0.27,0.19-0.403,0.433-0.403,0.726c0,0.288,0.107,0.537,0.322,0.746
			c0.215,0.211,0.488,0.315,0.82,0.315c0.371,0,0.726-0.122,1.062-0.366c0.25-0.186,0.413-0.412,0.491-0.682
			c0.054-0.176,0.081-0.51,0.081-1.003V289.629z"/>
		<path style="fill:#FFFFFF;" d="M192.853,293.365h-2.059v-7.778h1.912v1.106c0.327-0.522,0.621-0.867,0.883-1.033
			c0.261-0.166,0.558-0.249,0.89-0.249c0.469,0,0.92,0.13,1.354,0.388l-0.637,1.795c-0.347-0.225-0.669-0.337-0.967-0.337
			c-0.288,0-0.532,0.079-0.732,0.238c-0.2,0.158-0.357,0.445-0.473,0.86c-0.114,0.415-0.172,1.284-0.172,2.607V293.365z"/>
		<path style="fill:#FFFFFF;" d="M201.225,290.889l2.051,0.345c-0.264,0.752-0.68,1.324-1.249,1.717
			c-0.568,0.394-1.28,0.59-2.135,0.59c-1.353,0-2.354-0.441-3.003-1.326c-0.513-0.707-0.769-1.601-0.769-2.68
			c0-1.289,0.336-2.299,1.01-3.029c0.674-0.729,1.526-1.095,2.557-1.095c1.157,0,2.07,0.382,2.739,1.146
			c0.669,0.764,0.989,1.935,0.96,3.512h-5.156c0.014,0.61,0.18,1.085,0.498,1.425c0.316,0.339,0.712,0.509,1.186,0.509
			c0.322,0,0.594-0.088,0.813-0.264S201.113,291.28,201.225,290.889z M201.342,288.809c-0.015-0.596-0.169-1.049-0.462-1.358
			c-0.293-0.311-0.649-0.465-1.068-0.465c-0.45,0-0.82,0.163-1.113,0.49s-0.438,0.771-0.433,1.333H201.342z"/>
	</g>
</g>
<rect x="102.179" y="181.153" style="fill:none;stroke:#231F20;stroke-width:2;" width="16.215" height="15.346"/>
</svg>
