<?xml version="1.0" encoding="utf-8"?>
<!-- Generator: Adobe Illustrator 22.0.1, SVG Export Plug-In . SVG Version: 6.00 Build 0)  -->
<svg version="1.1" id="Layer_1" xmlns="http://www.w3.org/2000/svg" xmlns:xlink="http://www.w3.org/1999/xlink" x="0px" y="0px"
	 viewBox="0 0 610 622" style="enable-background:new 0 0 610 622;" xml:space="preserve">
<g id="businesses_gone">
	<rect x="285.737" y="135.742" style="fill:#D7153A;stroke:#FFFFFF;stroke-width:1.5;" width="4.167" height="4.167"/>
	<rect x="274.57" y="135.742" style="fill:#D7153A;stroke:#FFFFFF;stroke-width:1.5;" width="4.167" height="4.167"/>
	<rect x="244.07" y="135.742" style="fill:#D7153A;stroke:#FFFFFF;stroke-width:1.5;" width="4.167" height="4.167"/>
	<rect x="226.904" y="135.488" style="fill:#D7153A;stroke:#FFFFFF;stroke-width:1.5;" width="4.167" height="4.167"/>
	<ellipse style="fill:#D7153A;stroke:#FFFFFF;stroke-width:1.5;" cx="246.154" cy="136.988" rx="6.696" ry="6.492"/>
	<ellipse style="fill:#D7153A;stroke:#FFFFFF;stroke-width:1.5;" cx="228.987" cy="136.988" rx="6.696" ry="6.492"/>
	<ellipse style="fill:#D7153A;stroke:#FFFFFF;stroke-width:1.5;" cx="229.987" cy="137.488" rx="6.696" ry="6.492"/>
	<ellipse style="fill:#D7153A;stroke:#FFFFFF;stroke-width:1.5;" cx="276.654" cy="136.988" rx="6.696" ry="6.492"/>
	<ellipse style="fill:#D7153A;stroke:#FFFFFF;stroke-width:1.5;" cx="289.904" cy="136.988" rx="6.696" ry="6.492"/>
	<g>
		<polygon points="175.919,292.239 96.514,292.239 96.514,201.073 154.533,201.073 229.764,138.217 164.96,201.073 175.919,201.073 
					"/>
		<rect x="103.55" y="209.133" style="fill:none;" width="70.35" height="77.172"/>
		<text transform="matrix(1 0 0 1 103.5506 218.7213)" style="fill:#FFFFFF; font-family:'Arial-BoldMT'; font-size:13.3907px;">Brotman’s </text>
		<text transform="matrix(1 0 0 1 103.5506 234.5463)" style="fill:#FFFFFF; font-family:'Arial-BoldMT'; font-size:13.3907px;">Clothing </text>
		<text transform="matrix(1 0 0 1 103.5506 250.3713)" style="fill:#FFFFFF; font-family:'Arial-BoldMT'; font-size:13.3907px;">Store and</text>
		<text transform="matrix(1 0 0 1 103.5506 266.1973)" style="fill:#FFFFFF; font-family:'Arial-BoldMT'; font-size:13.3907px;">Rosenau </text>
		<text transform="matrix(1 0 0 1 103.5506 282.0223)" style="fill:#FFFFFF; font-family:'Arial-BoldMT'; font-size:13.3907px;">Jewelers</text>
	</g>
	<g>
		<polygon points="319.135,85.412 384.041,85.412 384.041,127.079 336.022,127.079 325.595,127.079 319.135,127.079 
			319.135,110.549 276.07,136.242 319.135,99.549 		"/>
		<rect x="326.171" y="92.681" style="fill:none;" width="54.85" height="31.296"/>
		<text transform="matrix(1 0 0 1 326.171 102.2683)" style="fill:#FFFFFF; font-family:'Arial-BoldMT'; font-size:13.3907px;">Imperial </text>
		<text transform="matrix(1 0 0 1 326.171 118.0933)" style="fill:#FFFFFF; font-family:'Arial-BoldMT'; font-size:13.3907px;">theater</text>
	</g>
	<g>
		<polygon points="356.006,246.816 283.101,246.816 283.101,188.149 316.12,188.149 289.904,135.742 326.547,188.149 
			356.006,188.149 		"/>
		<rect x="290.137" y="196.21" style="fill:none;" width="70.35" height="50.796"/>
		<text transform="matrix(1 0 0 1 290.1363 205.7969)" style="fill:#FFFFFF; font-family:'Arial-BoldMT'; font-size:13.3907px;">Frank’s </text>
		<text transform="matrix(1 0 0 1 290.1363 221.6219)" style="fill:#FFFFFF; font-family:'Arial-BoldMT'; font-size:13.3907px;">Furniture </text>
		<text transform="matrix(1 0 0 1 290.1363 237.4469)" style="fill:#FFFFFF; font-family:'Arial-BoldMT'; font-size:13.3907px;">House</text>
	</g>
	<g>
		<polygon points="266.006,247.482 191.101,247.482 191.101,205.816 224.12,205.816 246.154,137.826 234.547,205.816 
			266.006,205.816 		"/>
		<rect x="198.137" y="213.877" style="fill:none;" width="61.85" height="31.296"/>
		<text transform="matrix(1 0 0 1 198.1363 223.4635)" style="fill:#FFFFFF; font-family:'Arial-BoldMT'; font-size:13.3907px;">Beesen </text>
		<text transform="matrix(1 0 0 1 198.1363 239.2885)" style="fill:#FFFFFF; font-family:'Arial-BoldMT'; font-size:13.3907px;">Hardware</text>
	</g>
	<rect x="220.43" y="128.29" style="fill:none;stroke:#231F20;stroke-width:2;" width="19.057" height="18.036"/>
</g>
</svg>
