<?xml version="1.0" encoding="utf-8"?>
<!-- Generator: Adobe Illustrator 22.0.1, SVG Export Plug-In . SVG Version: 6.00 Build 0)  -->
<svg version="1.1" id="friday-march" xmlns="http://www.w3.org/2000/svg" xmlns:xlink="http://www.w3.org/1999/xlink" x="0px"
	 y="0px" viewBox="0 0 400 602.122" style="enable-background:new 0 0 400 602.122;" xml:space="preserve">
<rect x="259.195" y="178.194" style="fill:#D7153A;stroke:#000000;stroke-width:1.5;" width="7.682" height="7.682"/>
<g>
	<g>
		<path d="M276.032,152.53l0.177,1.673c-0.562,0.106-0.973,0.313-1.234,0.624c-0.26,0.311-0.389,0.728-0.385,1.251
			c0.005,0.554,0.125,0.971,0.363,1.249c0.237,0.28,0.513,0.418,0.827,0.415c0.202-0.002,0.372-0.062,0.513-0.183
			c0.14-0.119,0.262-0.325,0.363-0.621c0.068-0.203,0.189-0.663,0.361-1.382c0.221-0.926,0.497-1.575,0.827-1.95
			c0.465-0.528,1.034-0.794,1.709-0.8c0.435-0.003,0.842,0.115,1.221,0.359c0.381,0.243,0.671,0.596,0.873,1.057
			c0.202,0.462,0.305,1.02,0.311,1.676c0.009,1.07-0.218,1.876-0.683,2.421c-0.464,0.545-1.088,0.834-1.871,0.868l-0.091-1.721
			c0.437-0.077,0.751-0.238,0.941-0.482c0.189-0.243,0.283-0.608,0.278-1.093c-0.004-0.5-0.111-0.891-0.318-1.172
			c-0.134-0.18-0.311-0.27-0.532-0.268c-0.202,0.002-0.373,0.089-0.515,0.26c-0.18,0.219-0.366,0.748-0.557,1.587
			c-0.19,0.839-0.39,1.459-0.598,1.863c-0.208,0.403-0.494,0.72-0.857,0.95c-0.366,0.229-0.816,0.347-1.355,0.352
			c-0.489,0.004-0.948-0.128-1.377-0.396c-0.428-0.268-0.749-0.649-0.961-1.143c-0.211-0.494-0.32-1.112-0.327-1.852
			c-0.009-1.078,0.233-1.909,0.727-2.49C274.356,153.002,275.079,152.65,276.032,152.53z"/>
		<path d="M273.345,162.853l7.084-0.061l-0.022-2.53l1.442-0.012l0.058,6.776l-1.442,0.012l-0.022-2.524l-7.084,0.061
			L273.345,162.853z"/>
		<path d="M273.45,175.015l-0.016-1.873l1.93-0.761l-0.029-3.408l-1.943-0.687l-0.016-1.826l8.555,3.248l0.016,1.82L273.45,175.015z
			 M276.796,171.816l3.154-1.201l-3.174-1.125L276.796,171.816z"/>
		<path d="M273.467,176.963l7.084-0.061l-0.022-2.53l1.442-0.012l0.058,6.775l-1.442,0.012l-0.022-2.524l-7.084,0.061
			L273.467,176.963z"/>
		<path d="M273.513,182.319l8.527-0.073l0.054,6.322l-1.442,0.012l-0.039-4.601l-1.89,0.017l0.037,4.281l-1.437,0.012l-0.037-4.281
			l-2.321,0.021l0.041,4.764l-1.437,0.012L273.513,182.319z"/>
	</g>
</g>
<g>
	<polygon points="383.182,285.455 281.696,285.455 281.696,221.304 289.812,221.304 262.869,182.201 298.037,221.304 
		383.182,221.304 	"/>
	<g>
		<rect x="288.964" y="229.162" style="fill:none;" width="92.022" height="50.33"/>
		<path style="fill:#FFFFFF;" d="M296.925,235.956l2.103,0.666c-0.322,1.172-0.858,2.042-1.607,2.611
			c-0.75,0.568-1.701,0.854-2.853,0.854c-1.427,0-2.599-0.487-3.516-1.462c-0.919-0.974-1.377-2.306-1.377-3.995
			c0-1.787,0.461-3.175,1.384-4.164c0.923-0.988,2.136-1.482,3.64-1.482c1.313,0,2.381,0.388,3.201,1.164
			c0.488,0.459,0.854,1.118,1.099,1.978l-2.146,0.513c-0.128-0.557-0.393-0.996-0.795-1.318c-0.403-0.322-0.893-0.483-1.469-0.483
			c-0.796,0-1.441,0.286-1.938,0.856c-0.495,0.572-0.743,1.497-0.743,2.776c0,1.357,0.244,2.324,0.732,2.9s1.123,0.864,1.904,0.864
			c0.576,0,1.071-0.184,1.487-0.549C296.447,237.317,296.745,236.742,296.925,235.956z"/>
		<path style="fill:#FFFFFF;" d="M300.873,231.07v-1.904h2.059v1.904H300.873z M300.873,239.903v-7.778h2.059v7.778H300.873z"/>
		<path style="fill:#FFFFFF;" d="M307.179,239.903l-3.135-7.778h2.161l1.465,3.97l0.425,1.326c0.112-0.338,0.184-0.56,0.213-0.667
			c0.067-0.22,0.141-0.439,0.219-0.659l1.48-3.97h2.116l-3.091,7.778H307.179z"/>
		<path style="fill:#FFFFFF;" d="M313.382,231.07v-1.904h2.059v1.904H313.382z M313.382,239.903v-7.778h2.059v7.778H313.382z"/>
		<path style="fill:#FFFFFF;" d="M324.334,234.424l-2.029,0.366c-0.068-0.405-0.224-0.71-0.465-0.915
			c-0.242-0.205-0.556-0.309-0.941-0.309c-0.513,0-0.922,0.178-1.227,0.531c-0.306,0.354-0.458,0.946-0.458,1.776
			c0,0.923,0.155,1.575,0.465,1.956c0.311,0.381,0.727,0.57,1.249,0.57c0.391,0,0.711-0.11,0.959-0.333
			c0.25-0.222,0.426-0.604,0.527-1.146l2.021,0.344c-0.21,0.928-0.612,1.629-1.208,2.102c-0.596,0.475-1.395,0.711-2.396,0.711
			c-1.138,0-2.044-0.359-2.721-1.076c-0.676-0.719-1.014-1.712-1.014-2.981c0-1.284,0.339-2.284,1.018-2.999
			c0.679-0.716,1.597-1.073,2.754-1.073c0.947,0,1.7,0.204,2.26,0.611C323.687,232.968,324.088,233.589,324.334,234.424z"/>
		<path style="fill:#FFFFFF;" d="M336.945,235.956l2.103,0.666c-0.322,1.172-0.858,2.042-1.607,2.611
			c-0.75,0.568-1.701,0.854-2.853,0.854c-1.427,0-2.599-0.487-3.516-1.462c-0.919-0.974-1.377-2.306-1.377-3.995
			c0-1.787,0.461-3.175,1.384-4.164c0.923-0.988,2.136-1.482,3.64-1.482c1.313,0,2.381,0.388,3.201,1.164
			c0.488,0.459,0.854,1.118,1.099,1.978l-2.146,0.513c-0.128-0.557-0.393-0.996-0.795-1.318c-0.403-0.322-0.893-0.483-1.469-0.483
			c-0.796,0-1.441,0.286-1.938,0.856c-0.495,0.572-0.743,1.497-0.743,2.776c0,1.357,0.244,2.324,0.732,2.9s1.123,0.864,1.904,0.864
			c0.576,0,1.071-0.184,1.487-0.549C336.466,237.317,336.764,236.742,336.945,235.956z"/>
		<path style="fill:#FFFFFF;" d="M345.397,237.427l2.051,0.345c-0.264,0.752-0.68,1.324-1.249,1.717
			c-0.568,0.394-1.28,0.59-2.135,0.59c-1.353,0-2.354-0.441-3.003-1.326c-0.513-0.707-0.769-1.601-0.769-2.68
			c0-1.289,0.336-2.299,1.01-3.029c0.674-0.729,1.526-1.095,2.557-1.095c1.157,0,2.07,0.382,2.739,1.146
			c0.669,0.764,0.989,1.935,0.96,3.512h-5.156c0.014,0.61,0.18,1.085,0.498,1.425c0.316,0.339,0.712,0.509,1.186,0.509
			c0.322,0,0.594-0.088,0.813-0.264S345.285,237.818,345.397,237.427z M345.514,235.347c-0.015-0.596-0.169-1.049-0.462-1.358
			c-0.293-0.311-0.649-0.465-1.068-0.465c-0.45,0-0.82,0.163-1.113,0.49s-0.438,0.771-0.433,1.333H345.514z"/>
		<path style="fill:#FFFFFF;" d="M356.31,239.903h-2.059v-3.97c0-0.84-0.044-1.383-0.132-1.63c-0.088-0.246-0.23-0.438-0.429-0.574
			c-0.197-0.137-0.436-0.205-0.714-0.205c-0.356,0-0.677,0.098-0.96,0.293s-0.477,0.453-0.582,0.775
			c-0.104,0.322-0.157,0.919-0.157,1.787v3.523h-2.058v-7.778h1.911v1.143c0.679-0.879,1.533-1.318,2.563-1.318
			c0.454,0,0.869,0.082,1.245,0.245c0.376,0.164,0.66,0.373,0.854,0.627c0.192,0.254,0.327,0.541,0.402,0.863
			c0.076,0.322,0.114,0.784,0.114,1.385V239.903z"/>
		<path style="fill:#FFFFFF;" d="M361.963,232.125v1.641h-1.406v3.135c0,0.635,0.014,1.005,0.04,1.109
			c0.027,0.105,0.088,0.192,0.184,0.261c0.095,0.068,0.211,0.102,0.348,0.102c0.19,0,0.466-0.065,0.828-0.197l0.176,1.597
			c-0.479,0.205-1.021,0.308-1.627,0.308c-0.371,0-0.705-0.062-1.003-0.187c-0.298-0.125-0.517-0.286-0.655-0.483
			c-0.14-0.198-0.236-0.465-0.289-0.803c-0.045-0.238-0.066-0.722-0.066-1.449v-3.392h-0.945v-1.641h0.945v-1.546l2.065-1.201v2.747
			H361.963z"/>
		<path style="fill:#FFFFFF;" d="M367.896,237.427l2.051,0.345c-0.264,0.752-0.68,1.324-1.249,1.717
			c-0.568,0.394-1.28,0.59-2.135,0.59c-1.353,0-2.354-0.441-3.003-1.326c-0.513-0.707-0.769-1.601-0.769-2.68
			c0-1.289,0.336-2.299,1.01-3.029c0.674-0.729,1.526-1.095,2.557-1.095c1.157,0,2.07,0.382,2.739,1.146
			c0.669,0.764,0.989,1.935,0.96,3.512h-5.156c0.014,0.61,0.18,1.085,0.498,1.425c0.316,0.339,0.712,0.509,1.186,0.509
			c0.322,0,0.594-0.088,0.813-0.264S367.784,237.818,367.896,237.427z M368.013,235.347c-0.015-0.596-0.169-1.049-0.462-1.358
			c-0.293-0.311-0.649-0.465-1.068-0.465c-0.45,0-0.82,0.163-1.113,0.49s-0.438,0.771-0.433,1.333H368.013z"/>
		<path style="fill:#FFFFFF;" d="M373.705,239.903h-2.059v-7.778h1.912v1.106c0.327-0.522,0.621-0.867,0.883-1.033
			c0.261-0.166,0.558-0.249,0.89-0.249c0.469,0,0.92,0.13,1.354,0.388l-0.637,1.795c-0.347-0.225-0.669-0.337-0.967-0.337
			c-0.288,0-0.532,0.079-0.732,0.238c-0.2,0.158-0.357,0.445-0.473,0.86c-0.114,0.415-0.172,1.284-0.172,2.607V239.903z"/>
		<path style="fill:#FFFFFF;" d="M297.117,256.903h-2.059v-3.97c0-0.84-0.044-1.383-0.132-1.63c-0.088-0.246-0.23-0.438-0.429-0.574
			c-0.197-0.137-0.436-0.205-0.714-0.205c-0.356,0-0.677,0.098-0.96,0.293s-0.477,0.453-0.582,0.775
			c-0.104,0.322-0.157,0.919-0.157,1.787v3.523h-2.058v-7.778h1.911v1.143c0.679-0.879,1.533-1.318,2.563-1.318
			c0.454,0,0.869,0.082,1.245,0.245c0.376,0.164,0.66,0.373,0.854,0.627c0.192,0.254,0.327,0.541,0.402,0.863
			c0.076,0.322,0.114,0.784,0.114,1.385V256.903z"/>
		<path style="fill:#FFFFFF;" d="M298.727,252.904c0-0.684,0.169-1.345,0.505-1.985c0.338-0.639,0.814-1.127,1.433-1.465
			c0.617-0.336,1.308-0.505,2.069-0.505c1.176,0,2.141,0.382,2.893,1.146c0.752,0.764,1.128,1.729,1.128,2.896
			c0,1.177-0.38,2.152-1.139,2.926c-0.76,0.774-1.716,1.161-2.868,1.161c-0.713,0-1.393-0.161-2.039-0.483
			c-0.647-0.322-1.139-0.795-1.477-1.417C298.896,254.555,298.727,253.797,298.727,252.904z M300.837,253.014
			c0,0.771,0.183,1.361,0.55,1.771c0.365,0.41,0.817,0.615,1.354,0.615s0.987-0.205,1.352-0.615c0.363-0.41,0.546-1.005,0.546-1.787
			c0-0.762-0.183-1.348-0.546-1.758c-0.364-0.41-0.814-0.615-1.352-0.615s-0.989,0.205-1.354,0.615
			C301.019,251.651,300.837,252.243,300.837,253.014z"/>
		<path style="fill:#FFFFFF;" d="M309.816,256.903l-2.461-7.778h1.999l1.458,5.098l1.34-5.098h1.984l1.297,5.098l1.486-5.098h2.029
			l-2.498,7.778h-1.977l-1.341-5.002l-1.318,5.002H309.816z"/>
		<path style="fill:#FFFFFF;" d="M330.984,251.424l-2.029,0.366c-0.068-0.405-0.224-0.71-0.465-0.915
			c-0.242-0.205-0.556-0.309-0.941-0.309c-0.513,0-0.922,0.178-1.227,0.531c-0.306,0.354-0.458,0.946-0.458,1.776
			c0,0.923,0.155,1.575,0.465,1.956c0.311,0.381,0.727,0.57,1.249,0.57c0.391,0,0.711-0.11,0.959-0.333
			c0.25-0.222,0.426-0.604,0.527-1.146l2.021,0.344c-0.21,0.928-0.612,1.629-1.208,2.102c-0.596,0.475-1.395,0.711-2.396,0.711
			c-1.138,0-2.044-0.359-2.721-1.076c-0.676-0.719-1.014-1.712-1.014-2.981c0-1.284,0.339-2.284,1.018-2.999
			c0.679-0.716,1.597-1.073,2.754-1.073c0.947,0,1.7,0.204,2.26,0.611C330.337,249.968,330.739,250.589,330.984,251.424z"/>
		<path style="fill:#FFFFFF;" d="M334.082,251.498l-1.868-0.337c0.21-0.752,0.571-1.309,1.084-1.67s1.274-0.542,2.285-0.542
			c0.918,0,1.602,0.108,2.051,0.326c0.449,0.217,0.766,0.493,0.948,0.827c0.184,0.335,0.275,0.949,0.275,1.842l-0.022,2.402
			c0,0.685,0.033,1.188,0.099,1.513c0.066,0.325,0.189,0.673,0.37,1.044h-2.036c-0.054-0.137-0.12-0.339-0.197-0.607
			c-0.035-0.122-0.059-0.203-0.074-0.242c-0.352,0.342-0.728,0.599-1.127,0.77c-0.401,0.17-0.828,0.256-1.282,0.256
			c-0.801,0-1.432-0.217-1.894-0.652c-0.461-0.434-0.691-0.983-0.691-1.647c0-0.439,0.104-0.831,0.314-1.176
			c0.21-0.344,0.504-0.607,0.883-0.791c0.378-0.183,0.924-0.343,1.637-0.479c0.962-0.181,1.628-0.349,2-0.506v-0.205
			c0-0.395-0.099-0.677-0.293-0.846c-0.196-0.168-0.564-0.252-1.106-0.252c-0.366,0-0.651,0.071-0.856,0.216
			C334.375,250.883,334.208,251.136,334.082,251.498z M336.836,253.167c-0.264,0.088-0.682,0.193-1.253,0.315
			s-0.944,0.241-1.12,0.358c-0.27,0.19-0.403,0.433-0.403,0.726c0,0.288,0.107,0.537,0.322,0.746
			c0.215,0.211,0.488,0.315,0.82,0.315c0.371,0,0.726-0.122,1.062-0.366c0.25-0.186,0.413-0.412,0.491-0.682
			c0.054-0.176,0.081-0.51,0.081-1.003V253.167z"/>
		<path style="fill:#FFFFFF;" d="M340.884,256.903v-10.737h2.059v10.737H340.884z"/>
		<path style="fill:#FFFFFF;" d="M345.052,256.903v-10.737h2.059v10.737H345.052z"/>
		<path style="fill:#FFFFFF;" d="M353.725,254.427l2.051,0.345c-0.264,0.752-0.68,1.324-1.249,1.717
			c-0.568,0.394-1.28,0.59-2.135,0.59c-1.353,0-2.354-0.441-3.003-1.326c-0.513-0.707-0.769-1.601-0.769-2.68
			c0-1.289,0.336-2.299,1.01-3.029c0.674-0.729,1.526-1.095,2.557-1.095c1.157,0,2.07,0.382,2.739,1.146
			c0.669,0.764,0.989,1.935,0.96,3.512h-5.156c0.014,0.61,0.18,1.085,0.498,1.425c0.316,0.339,0.712,0.509,1.186,0.509
			c0.322,0,0.594-0.088,0.813-0.264S353.613,254.818,353.725,254.427z M353.842,252.347c-0.015-0.596-0.169-1.049-0.462-1.358
			c-0.293-0.311-0.649-0.465-1.068-0.465c-0.45,0-0.82,0.163-1.113,0.49s-0.438,0.771-0.433,1.333H353.842z"/>
		<path style="fill:#FFFFFF;" d="M364.697,256.903h-1.912v-1.143c-0.317,0.444-0.692,0.775-1.124,0.992
			c-0.433,0.218-0.868,0.326-1.308,0.326c-0.894,0-1.659-0.36-2.296-1.08c-0.638-0.721-0.956-1.725-0.956-3.014
			c0-1.318,0.31-2.321,0.93-3.007c0.62-0.687,1.404-1.029,2.352-1.029c0.869,0,1.621,0.361,2.256,1.084v-3.867h2.059V256.903z
			 M359.203,252.845c0,0.83,0.115,1.431,0.345,1.802c0.332,0.537,0.796,0.806,1.392,0.806c0.474,0,0.876-0.201,1.209-0.604
			c0.331-0.402,0.498-1.004,0.498-1.805c0-0.895-0.162-1.537-0.484-1.931c-0.322-0.393-0.734-0.589-1.237-0.589
			c-0.488,0-0.897,0.193-1.227,0.582C359.368,251.494,359.203,252.074,359.203,252.845z"/>
		<path style="fill:#FFFFFF;" d="M290.048,263.166h3.963c0.893,0,1.574,0.068,2.043,0.205c0.63,0.186,1.169,0.516,1.619,0.989
			c0.448,0.474,0.791,1.053,1.025,1.739c0.234,0.686,0.352,1.532,0.352,2.538c0,0.884-0.11,1.646-0.33,2.285
			c-0.269,0.781-0.652,1.413-1.15,1.896c-0.376,0.366-0.884,0.652-1.523,0.857c-0.479,0.151-1.118,0.227-1.918,0.227h-4.08V263.166z
			 M292.216,264.982v7.112h1.619c0.604,0,1.042-0.034,1.311-0.104c0.352-0.088,0.644-0.236,0.875-0.446
			c0.232-0.21,0.422-0.556,0.568-1.036c0.146-0.481,0.219-1.137,0.219-1.967s-0.072-1.467-0.219-1.912
			c-0.146-0.443-0.352-0.791-0.615-1.039c-0.264-0.25-0.599-0.418-1.004-0.506c-0.303-0.068-0.896-0.103-1.779-0.103H292.216z"/>
		<path style="fill:#FFFFFF;" d="M302.412,268.498l-1.868-0.337c0.21-0.752,0.571-1.309,1.084-1.67s1.274-0.542,2.285-0.542
			c0.918,0,1.602,0.108,2.051,0.326c0.449,0.217,0.766,0.493,0.948,0.827c0.184,0.335,0.275,0.949,0.275,1.842l-0.022,2.402
			c0,0.685,0.033,1.188,0.099,1.513c0.066,0.325,0.189,0.673,0.37,1.044h-2.036c-0.054-0.137-0.12-0.339-0.197-0.607
			c-0.035-0.122-0.059-0.203-0.074-0.242c-0.352,0.342-0.728,0.599-1.127,0.77c-0.401,0.17-0.828,0.256-1.282,0.256
			c-0.801,0-1.432-0.217-1.894-0.652c-0.461-0.434-0.691-0.983-0.691-1.647c0-0.439,0.104-0.831,0.314-1.176
			c0.21-0.344,0.504-0.607,0.883-0.791c0.378-0.183,0.924-0.343,1.637-0.479c0.962-0.181,1.628-0.349,2-0.506v-0.205
			c0-0.395-0.099-0.677-0.293-0.846c-0.196-0.168-0.564-0.252-1.106-0.252c-0.366,0-0.651,0.071-0.856,0.216
			C302.705,267.883,302.538,268.136,302.412,268.498z M305.166,270.167c-0.264,0.088-0.682,0.193-1.253,0.315
			s-0.944,0.241-1.12,0.358c-0.27,0.19-0.403,0.433-0.403,0.726c0,0.288,0.107,0.537,0.322,0.746
			c0.215,0.211,0.488,0.315,0.82,0.315c0.371,0,0.726-0.122,1.062-0.366c0.25-0.186,0.413-0.412,0.491-0.682
			c0.054-0.176,0.081-0.51,0.081-1.003V270.167z"/>
		<path style="fill:#FFFFFF;" d="M309.214,273.903v-10.737h2.059v10.737H309.214z"/>
		<path style="fill:#FFFFFF;" d="M317.887,271.427l2.051,0.345c-0.264,0.752-0.68,1.324-1.249,1.717
			c-0.568,0.394-1.28,0.59-2.135,0.59c-1.353,0-2.354-0.441-3.003-1.326c-0.513-0.707-0.769-1.601-0.769-2.68
			c0-1.289,0.336-2.299,1.01-3.029c0.674-0.729,1.526-1.095,2.557-1.095c1.157,0,2.07,0.382,2.739,1.146
			c0.669,0.764,0.989,1.935,0.96,3.512h-5.156c0.014,0.61,0.18,1.085,0.498,1.425c0.316,0.339,0.712,0.509,1.186,0.509
			c0.322,0,0.594-0.088,0.813-0.264S317.775,271.818,317.887,271.427z M318.004,269.347c-0.015-0.596-0.169-1.049-0.462-1.358
			c-0.293-0.311-0.649-0.465-1.068-0.465c-0.45,0-0.82,0.163-1.113,0.49s-0.438,0.771-0.433,1.333H318.004z"/>
		<path style="fill:#FFFFFF;" d="M320.751,266.125h2.19l1.859,5.522l1.816-5.522h2.132l-2.747,7.485l-0.49,1.355
			c-0.181,0.453-0.353,0.8-0.517,1.039c-0.163,0.239-0.352,0.434-0.563,0.583c-0.213,0.148-0.474,0.265-0.784,0.348
			c-0.31,0.083-0.66,0.124-1.051,0.124c-0.396,0-0.784-0.041-1.165-0.124l-0.183-1.611c0.322,0.063,0.612,0.095,0.872,0.095
			c0.478,0,0.832-0.14,1.062-0.421c0.229-0.28,0.405-0.639,0.527-1.073L320.751,266.125z"/>
		<path style="fill:#FFFFFF;" d="M334.25,273.903v-10.737h3.479c1.318,0,2.178,0.054,2.578,0.161
			c0.615,0.161,1.13,0.512,1.545,1.051c0.415,0.54,0.623,1.237,0.623,2.092c0,0.658-0.12,1.213-0.359,1.662
			s-0.543,0.802-0.911,1.059c-0.369,0.256-0.743,0.426-1.124,0.509c-0.519,0.103-1.268,0.153-2.249,0.153h-1.413v4.051H334.25z
			 M336.418,264.982v3.047h1.186c0.854,0,1.426-0.056,1.715-0.169c0.287-0.111,0.514-0.287,0.677-0.527
			c0.164-0.238,0.245-0.517,0.245-0.834c0-0.391-0.114-0.713-0.344-0.967s-0.52-0.413-0.871-0.477
			c-0.26-0.049-0.779-0.073-1.561-0.073H336.418z"/>
		<path style="fill:#FFFFFF;" d="M344.239,273.903v-10.737h2.059v10.737H344.239z"/>
		<path style="fill:#FFFFFF;" d="M349.945,268.498l-1.868-0.337c0.21-0.752,0.571-1.309,1.084-1.67s1.274-0.542,2.285-0.542
			c0.918,0,1.602,0.108,2.051,0.326c0.449,0.217,0.766,0.493,0.948,0.827c0.184,0.335,0.275,0.949,0.275,1.842l-0.022,2.402
			c0,0.685,0.033,1.188,0.099,1.513c0.066,0.325,0.189,0.673,0.37,1.044h-2.036c-0.054-0.137-0.12-0.339-0.197-0.607
			c-0.035-0.122-0.059-0.203-0.074-0.242c-0.352,0.342-0.728,0.599-1.127,0.77c-0.401,0.17-0.828,0.256-1.282,0.256
			c-0.801,0-1.432-0.217-1.894-0.652c-0.461-0.434-0.691-0.983-0.691-1.647c0-0.439,0.104-0.831,0.314-1.176
			c0.21-0.344,0.504-0.607,0.883-0.791c0.378-0.183,0.924-0.343,1.637-0.479c0.962-0.181,1.628-0.349,2-0.506v-0.205
			c0-0.395-0.099-0.677-0.293-0.846c-0.196-0.168-0.564-0.252-1.106-0.252c-0.366,0-0.651,0.071-0.856,0.216
			C350.238,267.883,350.071,268.136,349.945,268.498z M352.699,270.167c-0.264,0.088-0.682,0.193-1.253,0.315
			s-0.944,0.241-1.12,0.358c-0.27,0.19-0.403,0.433-0.403,0.726c0,0.288,0.107,0.537,0.322,0.746
			c0.215,0.211,0.488,0.315,0.82,0.315c0.371,0,0.726-0.122,1.062-0.366c0.25-0.186,0.413-0.412,0.491-0.682
			c0.054-0.176,0.081-0.51,0.081-1.003V270.167z"/>
		<path style="fill:#FFFFFF;" d="M355.921,273.903v-1.604l2.915-3.348c0.479-0.547,0.832-0.935,1.062-1.164
			c-0.24,0.014-0.555,0.024-0.945,0.029l-2.746,0.014v-1.706h6.43v1.458l-2.973,3.428l-1.048,1.135
			c0.571-0.034,0.925-0.051,1.062-0.051h3.187v1.809H355.921z"/>
		<path style="fill:#FFFFFF;" d="M365.787,268.498l-1.868-0.337c0.21-0.752,0.571-1.309,1.084-1.67s1.274-0.542,2.285-0.542
			c0.918,0,1.602,0.108,2.051,0.326c0.449,0.217,0.766,0.493,0.948,0.827c0.184,0.335,0.275,0.949,0.275,1.842l-0.022,2.402
			c0,0.685,0.033,1.188,0.099,1.513c0.066,0.325,0.189,0.673,0.37,1.044h-2.036c-0.054-0.137-0.12-0.339-0.197-0.607
			c-0.035-0.122-0.059-0.203-0.074-0.242c-0.352,0.342-0.728,0.599-1.127,0.77c-0.401,0.17-0.828,0.256-1.282,0.256
			c-0.801,0-1.432-0.217-1.894-0.652c-0.461-0.434-0.691-0.983-0.691-1.647c0-0.439,0.104-0.831,0.314-1.176
			c0.21-0.344,0.504-0.607,0.883-0.791c0.378-0.183,0.924-0.343,1.637-0.479c0.962-0.181,1.628-0.349,2-0.506v-0.205
			c0-0.395-0.099-0.677-0.293-0.846c-0.196-0.168-0.564-0.252-1.106-0.252c-0.366,0-0.651,0.071-0.856,0.216
			C366.08,267.883,365.913,268.136,365.787,268.498z M368.541,270.167c-0.264,0.088-0.682,0.193-1.253,0.315
			s-0.944,0.241-1.12,0.358c-0.27,0.19-0.403,0.433-0.403,0.726c0,0.288,0.107,0.537,0.322,0.746
			c0.215,0.211,0.488,0.315,0.82,0.315c0.371,0,0.726-0.122,1.062-0.366c0.25-0.186,0.413-0.412,0.491-0.682
			c0.054-0.176,0.081-0.51,0.081-1.003V270.167z"/>
	</g>
</g>
<g>
	<g>
		<path d="M251.431,121.099l8.457-0.072l0.015,1.722l-7.02,0.061l0.037,4.281l-1.437,0.012L251.431,121.099z"/>
		<path d="M251.559,136.017l-0.017-1.872l1.931-0.761l-0.029-3.408l-1.943-0.687l-0.016-1.826l8.556,3.248l0.016,1.82
			L251.559,136.017z M254.905,132.818l3.154-1.201l-3.174-1.125L254.905,132.818z"/>
		<path d="M254.338,136.47l0.177,1.673c-0.562,0.106-0.973,0.313-1.234,0.624c-0.26,0.311-0.389,0.728-0.385,1.251
			c0.005,0.554,0.125,0.971,0.363,1.25c0.237,0.28,0.513,0.418,0.827,0.415c0.202-0.002,0.372-0.062,0.513-0.183
			c0.14-0.119,0.262-0.326,0.364-0.622c0.067-0.203,0.188-0.663,0.36-1.382c0.221-0.926,0.497-1.575,0.827-1.95
			c0.465-0.528,1.034-0.794,1.709-0.8c0.435-0.003,0.842,0.115,1.221,0.359c0.381,0.243,0.671,0.596,0.873,1.057
			c0.202,0.462,0.305,1.02,0.311,1.676c0.009,1.07-0.218,1.877-0.683,2.422c-0.464,0.545-1.088,0.834-1.871,0.868l-0.091-1.721
			c0.437-0.077,0.751-0.238,0.941-0.483c0.189-0.243,0.283-0.608,0.278-1.093c-0.004-0.5-0.111-0.891-0.318-1.172
			c-0.134-0.18-0.311-0.27-0.532-0.268c-0.202,0.002-0.373,0.089-0.515,0.26c-0.18,0.219-0.366,0.748-0.557,1.587
			c-0.19,0.839-0.39,1.46-0.598,1.864c-0.208,0.403-0.494,0.72-0.857,0.95c-0.366,0.229-0.816,0.347-1.355,0.352
			c-0.489,0.004-0.948-0.128-1.377-0.396c-0.428-0.268-0.749-0.649-0.961-1.143c-0.211-0.494-0.32-1.113-0.327-1.853
			c-0.009-1.078,0.233-1.909,0.727-2.49C252.662,136.942,253.385,136.591,254.338,136.47z"/>
		<path d="M251.701,152.564l-0.016-1.873l1.93-0.761l-0.029-3.408l-1.943-0.687l-0.016-1.826l8.555,3.248l0.016,1.82
			L251.701,152.564z M255.047,149.365l3.154-1.201l-3.174-1.125L255.047,149.365z"/>
		<path d="M251.71,153.523l8.457-0.072l0.015,1.721l-7.02,0.061l0.037,4.281l-1.437,0.012L251.71,153.523z"/>
		<path d="M251.772,160.799l8.457-0.072l0.015,1.722l-7.02,0.061l0.037,4.281l-1.437,0.012L251.772,160.799z"/>
		<path d="M251.834,168.028l8.527-0.073l0.055,6.322l-1.442,0.012l-0.04-4.601l-1.89,0.017l0.037,4.281l-1.437,0.012l-0.037-4.281
			l-2.321,0.021l0.041,4.764l-1.437,0.012L251.834,168.028z"/>
	</g>
</g>
</svg>
