<?xml version="1.0" encoding="utf-8"?>
<!-- Generator: Adobe Illustrator 22.0.1, SVG Export Plug-In . SVG Version: 6.00 Build 0)  -->
<svg version="1.1" id="march_to_civic_center" xmlns="http://www.w3.org/2000/svg" xmlns:xlink="http://www.w3.org/1999/xlink"
	 x="0px" y="0px" viewBox="0 0 610 622" style="enable-background:new 0 0 610 622;" xml:space="preserve">
<rect x="404.973" y="124.811" style="fill:#D7153A;stroke:#000000;stroke-width:1.5;" width="9.029" height="9.029"/>
<g>
	<g>
		<path d="M424.761,94.648l0.208,1.967c-0.66,0.124-1.144,0.368-1.45,0.733c-0.306,0.365-0.457,0.855-0.452,1.471
			c0.006,0.651,0.147,1.142,0.427,1.468c0.278,0.329,0.603,0.491,0.972,0.488c0.237-0.002,0.438-0.073,0.604-0.215
			c0.165-0.14,0.308-0.382,0.427-0.729c0.08-0.238,0.222-0.779,0.424-1.624c0.26-1.088,0.584-1.852,0.972-2.292
			c0.547-0.62,1.216-0.934,2.009-0.94c0.511-0.004,0.989,0.136,1.436,0.422c0.447,0.286,0.789,0.7,1.026,1.242
			c0.237,0.543,0.358,1.199,0.365,1.97c0.011,1.258-0.256,2.205-0.803,2.846c-0.546,0.641-1.278,0.98-2.199,1.021l-0.106-2.022
			c0.514-0.091,0.883-0.279,1.106-0.566c0.223-0.286,0.332-0.715,0.327-1.284c-0.005-0.588-0.13-1.047-0.374-1.378
			c-0.157-0.212-0.365-0.317-0.625-0.315c-0.237,0.002-0.438,0.104-0.605,0.306c-0.212,0.257-0.431,0.879-0.654,1.865
			s-0.458,1.715-0.703,2.189c-0.244,0.474-0.58,0.846-1.008,1.116c-0.43,0.27-0.959,0.408-1.593,0.414
			c-0.574,0.005-1.114-0.15-1.618-0.465c-0.503-0.315-0.88-0.763-1.13-1.344c-0.248-0.581-0.376-1.307-0.384-2.177
			c-0.011-1.267,0.273-2.243,0.854-2.927C422.792,95.203,423.641,94.79,424.761,94.648z"/>
		<path d="M421.604,106.781l8.326-0.071l-0.025-2.974l1.695-0.015l0.068,7.964l-1.695,0.015l-0.025-2.967l-8.326,0.071
			L421.604,106.781z"/>
		<path d="M421.727,121.075l-0.019-2.201l2.269-0.895l-0.034-4.006l-2.283-0.808l-0.019-2.146l10.055,3.817l0.019,2.14
			L421.727,121.075z M425.66,117.315l3.707-1.412l-3.73-1.322L425.66,117.315z"/>
		<path d="M421.747,123.365l8.326-0.071l-0.025-2.974l1.695-0.015l0.068,7.963l-1.695,0.015l-0.025-2.967l-8.326,0.071
			L421.747,123.365z"/>
		<path d="M421.801,129.66l10.021-0.086l0.063,7.431l-1.695,0.015l-0.046-5.407l-2.222,0.02l0.043,5.031l-1.688,0.014l-0.043-5.031
			l-2.728,0.024l0.048,5.599l-1.688,0.014L421.801,129.66z"/>
	</g>
</g>
<g>
	<polygon points="541.491,240.104 432.79,240.104 432.79,175.284 441.154,175.284 409.487,129.326 450.82,175.284 541.491,175.284 
		541.491,185.889 541.491,195.628 	"/>
	<g>
		<rect x="439.766" y="183.344" style="fill:none;" width="96.892" height="47.988"/>
		<path style="fill:#FFFFFF;" d="M448.257,190.589l2.242,0.711c-0.344,1.25-0.915,2.179-1.715,2.785s-1.813,0.91-3.043,0.91
			c-1.521,0-2.771-0.52-3.75-1.559s-1.469-2.46-1.469-4.262c0-1.906,0.492-3.387,1.477-4.441s2.278-1.582,3.883-1.582
			c1.401,0,2.539,0.414,3.414,1.242c0.521,0.489,0.911,1.192,1.172,2.109l-2.289,0.547c-0.136-0.594-0.418-1.062-0.848-1.406
			s-0.952-0.516-1.566-0.516c-0.849,0-1.538,0.305-2.066,0.914s-0.793,1.597-0.793,2.961c0,1.448,0.261,2.479,0.781,3.094
			s1.198,0.922,2.031,0.922c0.614,0,1.144-0.195,1.586-0.586S448.065,191.428,448.257,190.589z"/>
		<path style="fill:#FFFFFF;" d="M452.468,185.378v-2.031h2.195v2.031H452.468z M452.468,194.8v-8.297h2.195v8.297H452.468z"/>
		<path style="fill:#FFFFFF;" d="M459.195,194.8l-3.344-8.297h2.305l1.562,4.234l0.453,1.414c0.12-0.359,0.195-0.597,0.227-0.711
			c0.073-0.234,0.151-0.469,0.234-0.703l1.578-4.234h2.258l-3.297,8.297H459.195z"/>
		<path style="fill:#FFFFFF;" d="M465.812,185.378v-2.031h2.195v2.031H465.812z M465.812,194.8v-8.297h2.195v8.297H465.812z"/>
		<path style="fill:#FFFFFF;" d="M477.492,188.957l-2.164,0.391c-0.073-0.433-0.238-0.758-0.496-0.977s-0.593-0.328-1.004-0.328
			c-0.547,0-0.983,0.188-1.309,0.566s-0.488,1.009-0.488,1.895c0,0.984,0.165,1.68,0.496,2.086s0.774,0.609,1.332,0.609
			c0.417,0,0.758-0.118,1.023-0.355s0.453-0.645,0.562-1.223l2.156,0.367c-0.224,0.989-0.653,1.737-1.289,2.242
			s-1.487,0.758-2.555,0.758c-1.214,0-2.181-0.383-2.902-1.148s-1.082-1.825-1.082-3.18c0-1.37,0.362-2.437,1.086-3.199
			s1.703-1.145,2.938-1.145c1.011,0,1.813,0.218,2.41,0.652S477.231,188.066,477.492,188.957z"/>
		<path style="fill:#FFFFFF;" d="M490.945,190.589l2.242,0.711c-0.344,1.25-0.915,2.179-1.715,2.785s-1.813,0.91-3.043,0.91
			c-1.521,0-2.771-0.52-3.75-1.559s-1.469-2.46-1.469-4.262c0-1.906,0.492-3.387,1.477-4.441s2.278-1.582,3.883-1.582
			c1.401,0,2.539,0.414,3.414,1.242c0.521,0.489,0.911,1.192,1.172,2.109l-2.289,0.547c-0.136-0.594-0.418-1.062-0.848-1.406
			s-0.952-0.516-1.566-0.516c-0.849,0-1.538,0.305-2.066,0.914s-0.793,1.597-0.793,2.961c0,1.448,0.261,2.479,0.781,3.094
			s1.198,0.922,2.031,0.922c0.614,0,1.144-0.195,1.586-0.586S490.753,191.428,490.945,190.589z"/>
		<path style="fill:#FFFFFF;" d="M499.961,192.16l2.188,0.367c-0.281,0.802-0.726,1.413-1.332,1.832s-1.366,0.629-2.277,0.629
			c-1.442,0-2.511-0.472-3.203-1.414c-0.547-0.755-0.82-1.708-0.82-2.859c0-1.375,0.359-2.452,1.078-3.23s1.628-1.168,2.727-1.168
			c1.234,0,2.208,0.407,2.922,1.223s1.055,2.063,1.023,3.746h-5.5c0.016,0.651,0.192,1.157,0.531,1.52s0.761,0.543,1.266,0.543
			c0.344,0,0.633-0.094,0.867-0.281S499.84,192.577,499.961,192.16z M500.086,189.941c-0.016-0.636-0.18-1.118-0.492-1.449
			s-0.692-0.496-1.141-0.496c-0.479,0-0.875,0.175-1.188,0.523s-0.466,0.823-0.461,1.422H500.086z"/>
		<path style="fill:#FFFFFF;" d="M511.601,194.8h-2.195v-4.234c0-0.896-0.047-1.476-0.141-1.738s-0.246-0.468-0.457-0.613
			s-0.465-0.219-0.762-0.219c-0.38,0-0.722,0.104-1.023,0.312s-0.509,0.484-0.621,0.828s-0.168,0.979-0.168,1.906v3.758h-2.195
			v-8.297h2.039v1.219c0.724-0.938,1.636-1.406,2.734-1.406c0.484,0,0.927,0.087,1.328,0.262s0.704,0.397,0.91,0.668
			s0.349,0.578,0.43,0.922s0.121,0.836,0.121,1.477V194.8z"/>
		<path style="fill:#FFFFFF;" d="M517.632,186.503v1.75h-1.5v3.344c0,0.677,0.015,1.071,0.043,1.184s0.094,0.204,0.195,0.277
			s0.226,0.109,0.371,0.109c0.203,0,0.497-0.07,0.883-0.211l0.188,1.703c-0.511,0.219-1.089,0.328-1.734,0.328
			c-0.396,0-0.753-0.066-1.07-0.199s-0.551-0.305-0.699-0.516s-0.251-0.496-0.309-0.855c-0.047-0.255-0.07-0.771-0.07-1.547v-3.617
			h-1.008v-1.75h1.008v-1.648l2.203-1.281v2.93H517.632z"/>
		<path style="fill:#FFFFFF;" d="M523.961,192.16l2.188,0.367c-0.281,0.802-0.726,1.413-1.332,1.832s-1.366,0.629-2.277,0.629
			c-1.442,0-2.511-0.472-3.203-1.414c-0.547-0.755-0.82-1.708-0.82-2.859c0-1.375,0.359-2.452,1.078-3.23s1.628-1.168,2.727-1.168
			c1.234,0,2.208,0.407,2.922,1.223s1.055,2.063,1.023,3.746h-5.5c0.016,0.651,0.192,1.157,0.531,1.52s0.761,0.543,1.266,0.543
			c0.344,0,0.633-0.094,0.867-0.281S523.84,192.577,523.961,192.16z M524.086,189.941c-0.016-0.636-0.18-1.118-0.492-1.449
			s-0.692-0.496-1.141-0.496c-0.479,0-0.875,0.175-1.188,0.523s-0.466,0.823-0.461,1.422H524.086z"/>
		<path style="fill:#FFFFFF;" d="M530.156,194.8h-2.195v-8.297H530v1.18c0.349-0.558,0.663-0.925,0.941-1.102
			s0.595-0.266,0.949-0.266c0.5,0,0.981,0.138,1.445,0.414l-0.68,1.914c-0.37-0.239-0.714-0.359-1.031-0.359
			c-0.308,0-0.567,0.085-0.781,0.254s-0.382,0.476-0.504,0.918s-0.184,1.37-0.184,2.781V194.8z"/>
		<path style="fill:#FFFFFF;" d="M448.461,212.8h-2.195v-4.234c0-0.896-0.047-1.476-0.141-1.738s-0.246-0.468-0.457-0.613
			s-0.465-0.219-0.762-0.219c-0.38,0-0.722,0.104-1.023,0.312s-0.509,0.484-0.621,0.828s-0.168,0.979-0.168,1.906v3.758h-2.195
			v-8.297h2.039v1.219c0.724-0.938,1.636-1.406,2.734-1.406c0.484,0,0.927,0.087,1.328,0.262s0.704,0.397,0.91,0.668
			s0.349,0.578,0.43,0.922s0.121,0.836,0.121,1.477V212.8z"/>
		<path style="fill:#FFFFFF;" d="M450.179,208.535c0-0.729,0.18-1.435,0.539-2.117s0.868-1.203,1.527-1.562s1.395-0.539,2.207-0.539
			c1.255,0,2.284,0.407,3.086,1.223s1.203,1.845,1.203,3.09c0,1.255-0.405,2.296-1.215,3.121s-1.829,1.238-3.059,1.238
			c-0.761,0-1.485-0.172-2.176-0.516s-1.215-0.848-1.574-1.512S450.179,209.488,450.179,208.535z M452.429,208.652
			c0,0.823,0.195,1.453,0.586,1.891s0.872,0.656,1.445,0.656s1.054-0.219,1.441-0.656s0.582-1.073,0.582-1.906
			c0-0.812-0.194-1.438-0.582-1.875s-0.868-0.656-1.441-0.656s-1.055,0.219-1.445,0.656S452.429,207.829,452.429,208.652z"/>
		<path style="fill:#FFFFFF;" d="M462.007,212.8l-2.625-8.297h2.133l1.555,5.438l1.43-5.438h2.117l1.383,5.438l1.586-5.438h2.164
			l-2.664,8.297h-2.109l-1.43-5.336l-1.406,5.336H462.007z"/>
		<path style="fill:#FFFFFF;" d="M484.586,206.957l-2.164,0.391c-0.073-0.433-0.238-0.758-0.496-0.977s-0.593-0.328-1.004-0.328
			c-0.547,0-0.983,0.188-1.309,0.566s-0.488,1.009-0.488,1.895c0,0.984,0.165,1.68,0.496,2.086s0.774,0.609,1.332,0.609
			c0.417,0,0.758-0.118,1.023-0.355s0.453-0.645,0.562-1.223l2.156,0.367c-0.224,0.989-0.653,1.737-1.289,2.242
			s-1.487,0.758-2.555,0.758c-1.214,0-2.181-0.383-2.902-1.148s-1.082-1.825-1.082-3.18c0-1.37,0.362-2.437,1.086-3.199
			s1.703-1.145,2.938-1.145c1.011,0,1.813,0.218,2.41,0.652S484.325,206.066,484.586,206.957z"/>
		<path style="fill:#FFFFFF;" d="M487.89,207.035l-1.992-0.359c0.224-0.802,0.609-1.396,1.156-1.781s1.359-0.578,2.438-0.578
			c0.979,0,1.708,0.116,2.188,0.348s0.816,0.526,1.012,0.883s0.293,1.012,0.293,1.965l-0.023,2.562c0,0.729,0.035,1.267,0.105,1.613
			s0.202,0.718,0.395,1.113h-2.172c-0.058-0.146-0.128-0.362-0.211-0.648c-0.036-0.13-0.062-0.216-0.078-0.258
			c-0.375,0.364-0.776,0.638-1.203,0.82s-0.883,0.273-1.367,0.273c-0.854,0-1.527-0.231-2.02-0.695s-0.738-1.05-0.738-1.758
			c0-0.469,0.112-0.887,0.336-1.254s0.538-0.648,0.941-0.844s0.985-0.366,1.746-0.512c1.026-0.192,1.737-0.372,2.133-0.539v-0.219
			c0-0.422-0.104-0.723-0.312-0.902s-0.602-0.27-1.18-0.27c-0.391,0-0.695,0.077-0.914,0.23S488.026,206.649,487.89,207.035z
			 M490.828,208.816c-0.281,0.094-0.727,0.206-1.336,0.336s-1.008,0.258-1.195,0.383c-0.286,0.203-0.43,0.461-0.43,0.773
			c0,0.308,0.114,0.573,0.344,0.797s0.521,0.336,0.875,0.336c0.396,0,0.773-0.13,1.133-0.391c0.266-0.198,0.44-0.44,0.523-0.727
			c0.058-0.188,0.086-0.544,0.086-1.07V208.816z"/>
		<path style="fill:#FFFFFF;" d="M495.148,212.8v-11.453h2.195V212.8H495.148z"/>
		<path style="fill:#FFFFFF;" d="M499.593,212.8v-11.453h2.195V212.8H499.593z"/>
		<path style="fill:#FFFFFF;" d="M508.843,210.16l2.188,0.367c-0.281,0.802-0.726,1.413-1.332,1.832s-1.366,0.629-2.277,0.629
			c-1.442,0-2.511-0.472-3.203-1.414c-0.547-0.755-0.82-1.708-0.82-2.859c0-1.375,0.359-2.452,1.078-3.23s1.628-1.168,2.727-1.168
			c1.234,0,2.208,0.407,2.922,1.223s1.055,2.063,1.023,3.746h-5.5c0.016,0.651,0.192,1.157,0.531,1.52s0.761,0.543,1.266,0.543
			c0.344,0,0.633-0.094,0.867-0.281S508.723,210.577,508.843,210.16z M508.968,207.941c-0.016-0.636-0.18-1.118-0.492-1.449
			s-0.692-0.496-1.141-0.496c-0.479,0-0.875,0.175-1.188,0.523s-0.466,0.823-0.461,1.422H508.968z"/>
		<path style="fill:#FFFFFF;" d="M520.546,212.8h-2.039v-1.219c-0.339,0.474-0.738,0.827-1.199,1.059s-0.926,0.348-1.395,0.348
			c-0.953,0-1.77-0.384-2.449-1.152s-1.02-1.84-1.02-3.215c0-1.406,0.331-2.476,0.992-3.207s1.497-1.098,2.508-1.098
			c0.927,0,1.729,0.386,2.406,1.156v-4.125h2.195V212.8z M514.687,208.472c0,0.886,0.122,1.526,0.367,1.922
			c0.354,0.573,0.849,0.859,1.484,0.859c0.505,0,0.935-0.215,1.289-0.645s0.531-1.071,0.531-1.926c0-0.953-0.172-1.64-0.516-2.059
			s-0.784-0.629-1.32-0.629c-0.521,0-0.957,0.207-1.309,0.621S514.687,207.649,514.687,208.472z"/>
		<path style="fill:#FFFFFF;" d="M440.921,219.347h4.227c0.953,0,1.68,0.073,2.18,0.219c0.672,0.198,1.247,0.55,1.727,1.055
			s0.844,1.124,1.094,1.855s0.375,1.634,0.375,2.707c0,0.942-0.117,1.755-0.352,2.438c-0.286,0.833-0.695,1.508-1.227,2.023
			c-0.401,0.391-0.942,0.695-1.625,0.914c-0.511,0.161-1.192,0.242-2.047,0.242h-4.352V219.347z M443.234,221.285v7.586h1.727
			c0.646,0,1.112-0.036,1.398-0.109c0.375-0.094,0.687-0.253,0.934-0.477s0.449-0.593,0.605-1.105s0.234-1.212,0.234-2.098
			s-0.078-1.565-0.234-2.039s-0.375-0.844-0.656-1.109s-0.638-0.445-1.07-0.539c-0.323-0.073-0.956-0.109-1.898-0.109H443.234z"/>
		<path style="fill:#FFFFFF;" d="M454.109,225.035l-1.992-0.359c0.224-0.802,0.609-1.396,1.156-1.781s1.359-0.578,2.438-0.578
			c0.979,0,1.708,0.116,2.188,0.348s0.816,0.526,1.012,0.883s0.293,1.012,0.293,1.965l-0.023,2.562c0,0.729,0.035,1.267,0.105,1.613
			s0.202,0.718,0.395,1.113h-2.172c-0.058-0.146-0.128-0.362-0.211-0.648c-0.036-0.13-0.062-0.216-0.078-0.258
			c-0.375,0.364-0.776,0.638-1.203,0.82s-0.883,0.273-1.367,0.273c-0.854,0-1.527-0.231-2.02-0.695s-0.738-1.05-0.738-1.758
			c0-0.469,0.112-0.887,0.336-1.254s0.538-0.648,0.941-0.844s0.985-0.366,1.746-0.512c1.026-0.192,1.737-0.372,2.133-0.539v-0.219
			c0-0.422-0.104-0.723-0.312-0.902s-0.602-0.27-1.18-0.27c-0.391,0-0.695,0.077-0.914,0.23S454.245,224.649,454.109,225.035z
			 M457.046,226.816c-0.281,0.094-0.727,0.206-1.336,0.336s-1.008,0.258-1.195,0.383c-0.286,0.203-0.43,0.461-0.43,0.773
			c0,0.308,0.114,0.573,0.344,0.797s0.521,0.336,0.875,0.336c0.396,0,0.773-0.13,1.133-0.391c0.266-0.198,0.44-0.44,0.523-0.727
			c0.058-0.188,0.086-0.544,0.086-1.07V226.816z"/>
		<path style="fill:#FFFFFF;" d="M461.367,230.8v-11.453h2.195V230.8H461.367z"/>
		<path style="fill:#FFFFFF;" d="M470.617,228.16l2.188,0.367c-0.281,0.802-0.726,1.413-1.332,1.832s-1.366,0.629-2.277,0.629
			c-1.442,0-2.511-0.472-3.203-1.414c-0.547-0.755-0.82-1.708-0.82-2.859c0-1.375,0.359-2.452,1.078-3.23s1.628-1.168,2.727-1.168
			c1.234,0,2.208,0.407,2.922,1.223s1.055,2.063,1.023,3.746h-5.5c0.016,0.651,0.192,1.157,0.531,1.52s0.761,0.543,1.266,0.543
			c0.344,0,0.633-0.094,0.867-0.281S470.497,228.577,470.617,228.16z M470.742,225.941c-0.016-0.636-0.18-1.118-0.492-1.449
			s-0.692-0.496-1.141-0.496c-0.479,0-0.875,0.175-1.188,0.523s-0.466,0.823-0.461,1.422H470.742z"/>
		<path style="fill:#FFFFFF;" d="M473.671,222.503h2.336l1.984,5.891l1.938-5.891h2.273l-2.93,7.984l-0.523,1.445
			c-0.192,0.484-0.376,0.854-0.551,1.109s-0.375,0.462-0.602,0.621s-0.505,0.282-0.836,0.371s-0.704,0.133-1.121,0.133
			c-0.422,0-0.836-0.044-1.242-0.133l-0.195-1.719c0.344,0.067,0.653,0.102,0.93,0.102c0.511,0,0.888-0.149,1.133-0.449
			s0.433-0.681,0.562-1.145L473.671,222.503z"/>
		<path style="fill:#FFFFFF;" d="M488.07,230.8v-11.453h3.711c1.406,0,2.323,0.058,2.75,0.172c0.656,0.172,1.206,0.546,1.648,1.121
			s0.664,1.319,0.664,2.23c0,0.703-0.128,1.294-0.383,1.773s-0.579,0.855-0.973,1.129s-0.793,0.454-1.199,0.543
			c-0.552,0.109-1.352,0.164-2.398,0.164h-1.508v4.32H488.07z M490.382,221.285v3.25h1.266c0.911,0,1.521-0.06,1.828-0.18
			s0.548-0.308,0.723-0.562s0.262-0.552,0.262-0.891c0-0.417-0.122-0.761-0.367-1.031s-0.555-0.44-0.93-0.508
			c-0.276-0.052-0.831-0.078-1.664-0.078H490.382z"/>
		<path style="fill:#FFFFFF;" d="M498.726,230.8v-11.453h2.195V230.8H498.726z"/>
		<path style="fill:#FFFFFF;" d="M504.812,225.035l-1.992-0.359c0.224-0.802,0.609-1.396,1.156-1.781s1.359-0.578,2.438-0.578
			c0.979,0,1.708,0.116,2.188,0.348s0.816,0.526,1.012,0.883s0.293,1.012,0.293,1.965l-0.023,2.562c0,0.729,0.035,1.267,0.105,1.613
			s0.202,0.718,0.395,1.113h-2.172c-0.058-0.146-0.128-0.362-0.211-0.648c-0.036-0.13-0.062-0.216-0.078-0.258
			c-0.375,0.364-0.776,0.638-1.203,0.82s-0.883,0.273-1.367,0.273c-0.854,0-1.527-0.231-2.02-0.695s-0.738-1.05-0.738-1.758
			c0-0.469,0.112-0.887,0.336-1.254s0.538-0.648,0.941-0.844s0.985-0.366,1.746-0.512c1.026-0.192,1.737-0.372,2.133-0.539v-0.219
			c0-0.422-0.104-0.723-0.312-0.902s-0.602-0.27-1.18-0.27c-0.391,0-0.695,0.077-0.914,0.23S504.948,224.649,504.812,225.035z
			 M507.75,226.816c-0.281,0.094-0.727,0.206-1.336,0.336s-1.008,0.258-1.195,0.383c-0.286,0.203-0.43,0.461-0.43,0.773
			c0,0.308,0.114,0.573,0.344,0.797s0.521,0.336,0.875,0.336c0.396,0,0.773-0.13,1.133-0.391c0.266-0.198,0.44-0.44,0.523-0.727
			c0.058-0.188,0.086-0.544,0.086-1.07V226.816z"/>
		<path style="fill:#FFFFFF;" d="M511.187,230.8v-1.711l3.109-3.57c0.511-0.583,0.888-0.997,1.133-1.242
			c-0.255,0.016-0.591,0.026-1.008,0.031l-2.93,0.016v-1.82h6.859v1.555l-3.172,3.656l-1.117,1.211
			c0.609-0.036,0.987-0.055,1.133-0.055h3.398v1.93H511.187z"/>
		<path style="fill:#FFFFFF;" d="M521.711,225.035l-1.992-0.359c0.224-0.802,0.609-1.396,1.156-1.781s1.359-0.578,2.438-0.578
			c0.979,0,1.708,0.116,2.188,0.348s0.816,0.526,1.012,0.883s0.293,1.012,0.293,1.965l-0.023,2.562c0,0.729,0.035,1.267,0.105,1.613
			s0.202,0.718,0.395,1.113h-2.172c-0.058-0.146-0.128-0.362-0.211-0.648c-0.036-0.13-0.062-0.216-0.078-0.258
			c-0.375,0.364-0.776,0.638-1.203,0.82s-0.883,0.273-1.367,0.273c-0.854,0-1.527-0.231-2.02-0.695s-0.738-1.05-0.738-1.758
			c0-0.469,0.112-0.887,0.336-1.254s0.538-0.648,0.941-0.844s0.985-0.366,1.746-0.512c1.026-0.192,1.737-0.372,2.133-0.539v-0.219
			c0-0.422-0.104-0.723-0.312-0.902s-0.602-0.27-1.18-0.27c-0.391,0-0.695,0.077-0.914,0.23S521.846,224.649,521.711,225.035z
			 M524.648,226.816c-0.281,0.094-0.727,0.206-1.336,0.336s-1.008,0.258-1.195,0.383c-0.286,0.203-0.43,0.461-0.43,0.773
			c0,0.308,0.114,0.573,0.344,0.797s0.521,0.336,0.875,0.336c0.396,0,0.773-0.13,1.133-0.391c0.266-0.198,0.44-0.44,0.523-0.727
			c0.058-0.188,0.086-0.544,0.086-1.07V226.816z"/>
	</g>
</g>
</svg>
