<svg id="Layer_1" data-name="Layer 1" xmlns="http://www.w3.org/2000/svg" viewBox="0 0 876 894"><title>friday-marching</title><rect x="626.59" y="365.14" width="162.37" height="162.37" rx="57.15" ry="57.15" transform="translate(1523.85 261.45) rotate(135)" fill="#433c98" stroke="#fff" stroke-miterlimit="10"/><rect x="442.3" y="365.14" width="162.37" height="162.37" rx="57.15" ry="57.15" transform="translate(1209.24 391.77) rotate(135)" fill="#433c98" stroke="#fff" stroke-miterlimit="10"/><rect x="258" y="365.14" width="162.37" height="162.37" rx="57.15" ry="57.15" transform="translate(894.63 522.08) rotate(135)" fill="#433c98" stroke="#fff" stroke-miterlimit="10"/><rect x="73.71" y="365.14" width="162.37" height="162.37" rx="57.15" ry="57.15" transform="translate(580.02 652.4) rotate(135)" fill="#433c98" stroke="#fff" stroke-miterlimit="10"/><rect x="626.59" y="565.9" width="162.37" height="162.37" rx="57.15" ry="57.15" transform="translate(1665.81 604.17) rotate(135)" fill="#433c98" stroke="#fff" stroke-miterlimit="10"/><rect x="442.3" y="565.9" width="162.37" height="162.37" rx="57.15" ry="57.15" transform="translate(1351.2 734.49) rotate(135)" fill="#433c98" stroke="#fff" stroke-miterlimit="10"/><rect x="258" y="565.9" width="162.37" height="162.37" rx="57.15" ry="57.15" transform="translate(1036.59 864.81) rotate(135)" fill="#433c98" stroke="#fff" stroke-miterlimit="10"/><rect x="73.71" y="565.9" width="162.37" height="162.37" rx="57.15" ry="57.15" transform="translate(721.98 995.12) rotate(135)" fill="#433c98" stroke="#fff" stroke-miterlimit="10"/><rect x="626.59" y="113.65" width="162.37" height="162.37" rx="57.15" ry="57.15" transform="translate(1346.02 -167.87) rotate(135)" fill="#433c98" stroke="#fff" stroke-miterlimit="10"/><rect x="442.3" y="113.65" width="162.37" height="162.37" rx="57.15" ry="57.15" transform="translate(1031.41 -37.55) rotate(135)" fill="#433c98" stroke="#fff" stroke-miterlimit="10"/><rect x="258" y="113.65" width="162.37" height="162.37" rx="57.15" ry="57.15" transform="translate(716.8 92.76) rotate(135)" fill="#433c98" stroke="#fff" stroke-miterlimit="10"/><rect x="73.71" y="113.65" width="162.37" height="162.37" rx="57.15" ry="57.15" transform="translate(402.19 223.08) rotate(135)" fill="#433c98" stroke="#fff" stroke-miterlimit="10"/></svg>