<?xml version="1.0" encoding="utf-8"?>
<!-- Generator: Adobe Illustrator 22.0.1, SVG Export Plug-In . SVG Version: 6.00 Build 0)  -->
<svg version="1.1" id="madison-street" xmlns="http://www.w3.org/2000/svg" xmlns:xlink="http://www.w3.org/1999/xlink" x="0px"
	 y="0px" viewBox="0 0 400 602.122" style="enable-background:new 0 0 400 602.122;" xml:space="preserve">
<g>
	<polyline style="fill:#8C001A;" points="123.811,124.625 91.526,124.625 91.526,79.459 225.118,79.459 225.118,124.625 
		134.238,124.625 	"/>
	<g>
		<rect x="98.311" y="86.567" style="fill:none;" width="121.5" height="29.796"/>
		<path style="fill:#FFFFFF;" d="M99.483,98.024V86.571h2.312v4.508h4.531v-4.508h2.312v11.453h-2.312v-5.008h-4.531v5.008H99.483z"
			/>
		<path style="fill:#FFFFFF;" d="M115.819,95.383l2.188,0.367c-0.281,0.802-0.726,1.413-1.332,1.832s-1.366,0.629-2.277,0.629
			c-1.442,0-2.511-0.472-3.203-1.414c-0.547-0.755-0.82-1.708-0.82-2.859c0-1.375,0.359-2.452,1.078-3.23s1.628-1.168,2.727-1.168
			c1.234,0,2.208,0.407,2.922,1.223s1.055,2.063,1.023,3.746h-5.5c0.016,0.651,0.192,1.157,0.531,1.52s0.761,0.543,1.266,0.543
			c0.344,0,0.633-0.094,0.867-0.281S115.699,95.8,115.819,95.383z M115.944,93.165c-0.016-0.636-0.18-1.118-0.492-1.449
			s-0.692-0.496-1.141-0.496c-0.479,0-0.875,0.175-1.188,0.523s-0.466,0.823-0.461,1.422H115.944z"/>
		<path style="fill:#FFFFFF;" d="M121.553,92.258l-1.992-0.359c0.224-0.802,0.609-1.396,1.156-1.781s1.359-0.578,2.438-0.578
			c0.979,0,1.708,0.116,2.188,0.348s0.816,0.526,1.012,0.883s0.293,1.012,0.293,1.965l-0.023,2.562c0,0.729,0.035,1.267,0.105,1.613
			s0.202,0.718,0.395,1.113h-2.172c-0.058-0.146-0.128-0.362-0.211-0.648c-0.036-0.13-0.062-0.216-0.078-0.258
			c-0.375,0.364-0.776,0.638-1.203,0.82s-0.883,0.273-1.367,0.273c-0.854,0-1.527-0.231-2.02-0.695s-0.738-1.05-0.738-1.758
			c0-0.469,0.112-0.887,0.336-1.254s0.538-0.648,0.941-0.844s0.985-0.366,1.746-0.512c1.026-0.192,1.737-0.372,2.133-0.539v-0.219
			c0-0.422-0.104-0.723-0.312-0.902s-0.602-0.27-1.18-0.27c-0.391,0-0.695,0.077-0.914,0.23S121.689,91.873,121.553,92.258z
			 M124.491,94.04c-0.281,0.094-0.727,0.206-1.336,0.336s-1.008,0.258-1.195,0.383c-0.286,0.203-0.43,0.461-0.43,0.773
			c0,0.308,0.114,0.573,0.344,0.797s0.521,0.336,0.875,0.336c0.396,0,0.773-0.13,1.133-0.391c0.266-0.198,0.44-0.44,0.523-0.727
			c0.058-0.188,0.086-0.544,0.086-1.07V94.04z"/>
		<path style="fill:#FFFFFF;" d="M131.092,98.024l-3.344-8.297h2.305l1.562,4.234l0.453,1.414c0.12-0.359,0.195-0.597,0.227-0.711
			c0.073-0.234,0.151-0.469,0.234-0.703l1.578-4.234h2.258l-3.297,8.297H131.092z"/>
		<path style="fill:#FFFFFF;" d="M136.67,89.727h2.336l1.984,5.891l1.938-5.891h2.273l-2.93,7.984l-0.523,1.445
			c-0.192,0.484-0.376,0.854-0.551,1.109s-0.375,0.462-0.602,0.621s-0.505,0.282-0.836,0.371s-0.704,0.133-1.121,0.133
			c-0.422,0-0.836-0.044-1.242-0.133l-0.195-1.719c0.344,0.067,0.653,0.102,0.93,0.102c0.511,0,0.888-0.149,1.133-0.449
			s0.433-0.681,0.562-1.145L136.67,89.727z"/>
		<path style="fill:#FFFFFF;" d="M151.053,98.024V86.571h2.195v11.453H151.053z"/>
		<path style="fill:#FFFFFF;" d="M154.991,93.758c0-0.729,0.18-1.435,0.539-2.117s0.868-1.203,1.527-1.562s1.395-0.539,2.207-0.539
			c1.255,0,2.284,0.407,3.086,1.223s1.203,1.845,1.203,3.09c0,1.255-0.405,2.296-1.215,3.121s-1.829,1.238-3.059,1.238
			c-0.761,0-1.485-0.172-2.176-0.516s-1.215-0.848-1.574-1.512S154.991,94.711,154.991,93.758z M157.241,93.875
			c0,0.823,0.195,1.453,0.586,1.891s0.872,0.656,1.445,0.656s1.054-0.219,1.441-0.656s0.582-1.073,0.582-1.906
			c0-0.812-0.194-1.438-0.582-1.875s-0.868-0.656-1.441-0.656s-1.055,0.219-1.445,0.656S157.241,93.052,157.241,93.875z"/>
		<path style="fill:#FFFFFF;" d="M164.764,93.758c0-0.729,0.18-1.435,0.539-2.117s0.868-1.203,1.527-1.562s1.395-0.539,2.207-0.539
			c1.255,0,2.284,0.407,3.086,1.223s1.203,1.845,1.203,3.09c0,1.255-0.405,2.296-1.215,3.121s-1.829,1.238-3.059,1.238
			c-0.761,0-1.485-0.172-2.176-0.516s-1.215-0.848-1.574-1.512S164.764,94.711,164.764,93.758z M167.014,93.875
			c0,0.823,0.195,1.453,0.586,1.891s0.872,0.656,1.445,0.656s1.054-0.219,1.441-0.656s0.582-1.073,0.582-1.906
			c0-0.812-0.194-1.438-0.582-1.875s-0.868-0.656-1.441-0.656s-1.055,0.219-1.445,0.656S167.014,93.052,167.014,93.875z"/>
		<path style="fill:#FFFFFF;" d="M178.85,89.727v1.75h-1.5v3.344c0,0.677,0.015,1.071,0.043,1.184s0.094,0.204,0.195,0.277
			s0.226,0.109,0.371,0.109c0.203,0,0.497-0.07,0.883-0.211l0.188,1.703c-0.511,0.219-1.089,0.328-1.734,0.328
			c-0.396,0-0.753-0.066-1.07-0.199s-0.551-0.305-0.699-0.516s-0.251-0.496-0.309-0.855c-0.047-0.255-0.07-0.771-0.07-1.547v-3.617
			h-1.008v-1.75h1.008v-1.648l2.203-1.281v2.93H178.85z"/>
		<path style="fill:#FFFFFF;" d="M180.374,88.602v-2.031h2.195v2.031H180.374z M180.374,98.024v-8.297h2.195v8.297H180.374z"/>
		<path style="fill:#FFFFFF;" d="M192.366,98.024h-2.195V93.79c0-0.896-0.047-1.476-0.141-1.738s-0.246-0.468-0.457-0.613
			s-0.465-0.219-0.762-0.219c-0.38,0-0.722,0.104-1.023,0.312s-0.509,0.484-0.621,0.828s-0.168,0.979-0.168,1.906v3.758h-2.195
			v-8.297h2.039v1.219c0.724-0.938,1.636-1.406,2.734-1.406c0.484,0,0.927,0.087,1.328,0.262s0.704,0.397,0.91,0.668
			s0.349,0.578,0.43,0.922s0.121,0.836,0.121,1.477V98.024z"/>
		<path style="fill:#FFFFFF;" d="M194.389,98.571l2.508,0.305c0.042,0.292,0.138,0.492,0.289,0.602
			c0.208,0.156,0.536,0.234,0.984,0.234c0.573,0,1.003-0.086,1.289-0.258c0.192-0.114,0.339-0.3,0.438-0.555
			c0.067-0.183,0.102-0.519,0.102-1.008V96.68c-0.656,0.896-1.484,1.344-2.484,1.344c-1.114,0-1.997-0.472-2.648-1.414
			c-0.511-0.745-0.766-1.672-0.766-2.781c0-1.391,0.335-2.453,1.004-3.188s1.501-1.102,2.496-1.102c1.026,0,1.872,0.45,2.539,1.352
			v-1.164h2.055v7.445c0,0.979-0.081,1.711-0.242,2.195s-0.388,0.864-0.68,1.141s-0.681,0.492-1.168,0.648s-1.103,0.234-1.848,0.234
			c-1.406,0-2.403-0.241-2.992-0.723s-0.883-1.093-0.883-1.832C194.381,98.763,194.384,98.675,194.389,98.571z M196.35,93.704
			c0,0.88,0.171,1.524,0.512,1.934s0.762,0.613,1.262,0.613c0.536,0,0.989-0.21,1.359-0.629s0.555-1.04,0.555-1.863
			c0-0.859-0.177-1.497-0.531-1.914s-0.802-0.625-1.344-0.625c-0.526,0-0.96,0.204-1.301,0.613S196.35,92.865,196.35,93.704z"/>
		<path style="fill:#FFFFFF;" d="M101.1,110.258l-1.992-0.359c0.224-0.802,0.609-1.396,1.156-1.781s1.359-0.578,2.438-0.578
			c0.979,0,1.708,0.116,2.188,0.348s0.816,0.526,1.012,0.883s0.293,1.012,0.293,1.965l-0.023,2.562c0,0.729,0.035,1.267,0.105,1.613
			s0.202,0.718,0.395,1.113h-2.172c-0.058-0.146-0.128-0.362-0.211-0.648c-0.036-0.13-0.062-0.216-0.078-0.258
			c-0.375,0.364-0.776,0.638-1.203,0.82s-0.883,0.273-1.367,0.273c-0.854,0-1.527-0.231-2.02-0.695s-0.738-1.05-0.738-1.758
			c0-0.469,0.112-0.887,0.336-1.254s0.538-0.648,0.941-0.844s0.985-0.366,1.746-0.512c1.026-0.192,1.737-0.372,2.133-0.539v-0.219
			c0-0.422-0.104-0.723-0.312-0.902s-0.602-0.27-1.18-0.27c-0.391,0-0.695,0.077-0.914,0.23S101.236,109.873,101.1,110.258z
			 M104.038,112.04c-0.281,0.094-0.727,0.206-1.336,0.336s-1.008,0.258-1.195,0.383c-0.286,0.203-0.43,0.461-0.43,0.773
			c0,0.308,0.114,0.573,0.344,0.797s0.521,0.336,0.875,0.336c0.396,0,0.773-0.13,1.133-0.391c0.266-0.198,0.44-0.44,0.523-0.727
			c0.058-0.188,0.086-0.544,0.086-1.07V112.04z"/>
		<path style="fill:#FFFFFF;" d="M115.905,116.024h-2.195v-4.234c0-0.896-0.047-1.476-0.141-1.738s-0.246-0.468-0.457-0.613
			s-0.465-0.219-0.762-0.219c-0.38,0-0.722,0.104-1.023,0.312s-0.509,0.484-0.621,0.828s-0.168,0.979-0.168,1.906v3.758h-2.195
			v-8.297h2.039v1.219c0.724-0.938,1.636-1.406,2.734-1.406c0.484,0,0.927,0.087,1.328,0.262s0.704,0.397,0.91,0.668
			s0.349,0.578,0.43,0.922s0.121,0.836,0.121,1.477V116.024z"/>
		<path style="fill:#FFFFFF;" d="M125.741,116.024h-2.039v-1.219c-0.339,0.474-0.738,0.827-1.199,1.059s-0.926,0.348-1.395,0.348
			c-0.953,0-1.77-0.384-2.449-1.152s-1.02-1.84-1.02-3.215c0-1.406,0.331-2.476,0.992-3.207s1.497-1.098,2.508-1.098
			c0.927,0,1.729,0.386,2.406,1.156v-4.125h2.195V116.024z M119.881,111.696c0,0.886,0.122,1.526,0.367,1.922
			c0.354,0.573,0.849,0.859,1.484,0.859c0.505,0,0.935-0.215,1.289-0.645s0.531-1.071,0.531-1.926c0-0.953-0.172-1.64-0.516-2.059
			s-0.784-0.629-1.32-0.629c-0.521,0-0.957,0.207-1.309,0.621S119.881,110.873,119.881,111.696z"/>
		<path style="fill:#FFFFFF;" d="M134.452,116.024h-2.195v-8.297h2.039v1.18c0.349-0.558,0.663-0.925,0.941-1.102
			s0.595-0.266,0.949-0.266c0.5,0,0.981,0.138,1.445,0.414l-0.68,1.914c-0.37-0.239-0.714-0.359-1.031-0.359
			c-0.308,0-0.567,0.085-0.781,0.254s-0.382,0.476-0.504,0.918s-0.184,1.37-0.184,2.781V116.024z"/>
		<path style="fill:#FFFFFF;" d="M138.577,106.602v-2.031h2.195v2.031H138.577z M138.577,116.024v-8.297h2.195v8.297H138.577z"/>
		<path style="fill:#FFFFFF;" d="M142.514,111.758c0-0.729,0.18-1.435,0.539-2.117s0.868-1.203,1.527-1.562s1.395-0.539,2.207-0.539
			c1.255,0,2.284,0.407,3.086,1.223s1.203,1.845,1.203,3.09c0,1.255-0.405,2.296-1.215,3.121s-1.829,1.238-3.059,1.238
			c-0.761,0-1.485-0.172-2.176-0.516s-1.215-0.848-1.574-1.512S142.514,112.711,142.514,111.758z M144.764,111.875
			c0,0.823,0.195,1.453,0.586,1.891s0.872,0.656,1.445,0.656s1.054-0.219,1.441-0.656s0.582-1.073,0.582-1.906
			c0-0.812-0.194-1.438-0.582-1.875s-0.868-0.656-1.441-0.656s-1.055,0.219-1.445,0.656S144.764,111.052,144.764,111.875z"/>
		<path style="fill:#FFFFFF;" d="M156.6,107.727v1.75h-1.5v3.344c0,0.677,0.015,1.071,0.043,1.184s0.094,0.204,0.195,0.277
			s0.226,0.109,0.371,0.109c0.203,0,0.497-0.07,0.883-0.211l0.188,1.703c-0.511,0.219-1.089,0.328-1.734,0.328
			c-0.396,0-0.753-0.066-1.07-0.199s-0.551-0.305-0.699-0.516s-0.251-0.496-0.309-0.855c-0.047-0.255-0.07-0.771-0.07-1.547v-3.617
			h-1.008v-1.75h1.008v-1.648l2.203-1.281v2.93H156.6z"/>
		<path style="fill:#FFFFFF;" d="M158.124,106.602v-2.031h2.195v2.031H158.124z M158.124,116.024v-8.297h2.195v8.297H158.124z"/>
		<path style="fill:#FFFFFF;" d="M170.116,116.024h-2.195v-4.234c0-0.896-0.047-1.476-0.141-1.738s-0.246-0.468-0.457-0.613
			s-0.465-0.219-0.762-0.219c-0.38,0-0.722,0.104-1.023,0.312s-0.509,0.484-0.621,0.828s-0.168,0.979-0.168,1.906v3.758h-2.195
			v-8.297h2.039v1.219c0.724-0.938,1.636-1.406,2.734-1.406c0.484,0,0.927,0.087,1.328,0.262s0.704,0.397,0.91,0.668
			s0.349,0.578,0.43,0.922s0.121,0.836,0.121,1.477V116.024z"/>
		<path style="fill:#FFFFFF;" d="M172.139,116.571l2.508,0.305c0.042,0.292,0.138,0.492,0.289,0.602
			c0.208,0.156,0.536,0.234,0.984,0.234c0.573,0,1.003-0.086,1.289-0.258c0.192-0.114,0.339-0.3,0.438-0.555
			c0.067-0.183,0.102-0.519,0.102-1.008v-1.211c-0.656,0.896-1.484,1.344-2.484,1.344c-1.114,0-1.997-0.472-2.648-1.414
			c-0.511-0.745-0.766-1.672-0.766-2.781c0-1.391,0.335-2.453,1.004-3.188s1.501-1.102,2.496-1.102c1.026,0,1.872,0.45,2.539,1.352
			v-1.164h2.055v7.445c0,0.979-0.081,1.711-0.242,2.195s-0.388,0.864-0.68,1.141s-0.681,0.492-1.168,0.648s-1.103,0.234-1.848,0.234
			c-1.406,0-2.403-0.241-2.992-0.723s-0.883-1.093-0.883-1.832C172.131,116.763,172.134,116.675,172.139,116.571z M174.1,111.704
			c0,0.88,0.171,1.524,0.512,1.934s0.762,0.613,1.262,0.613c0.536,0,0.989-0.21,1.359-0.629s0.555-1.04,0.555-1.863
			c0-0.859-0.177-1.497-0.531-1.914s-0.802-0.625-1.344-0.625c-0.526,0-0.96,0.204-1.301,0.613S174.1,110.865,174.1,111.704z"/>
		<path style="fill:#FFFFFF;" d="M188.202,110.258l-1.992-0.359c0.224-0.802,0.609-1.396,1.156-1.781s1.359-0.578,2.438-0.578
			c0.979,0,1.708,0.116,2.188,0.348s0.816,0.526,1.012,0.883s0.293,1.012,0.293,1.965l-0.023,2.562c0,0.729,0.035,1.267,0.105,1.613
			s0.202,0.718,0.395,1.113H191.6c-0.058-0.146-0.128-0.362-0.211-0.648c-0.036-0.13-0.062-0.216-0.078-0.258
			c-0.375,0.364-0.776,0.638-1.203,0.82s-0.883,0.273-1.367,0.273c-0.854,0-1.527-0.231-2.02-0.695s-0.738-1.05-0.738-1.758
			c0-0.469,0.112-0.887,0.336-1.254s0.538-0.648,0.941-0.844s0.985-0.366,1.746-0.512c1.026-0.192,1.737-0.372,2.133-0.539v-0.219
			c0-0.422-0.104-0.723-0.312-0.902s-0.602-0.27-1.18-0.27c-0.391,0-0.695,0.077-0.914,0.23S188.337,109.873,188.202,110.258z
			 M191.139,112.04c-0.281,0.094-0.727,0.206-1.336,0.336s-1.008,0.258-1.195,0.383c-0.286,0.203-0.43,0.461-0.43,0.773
			c0,0.308,0.114,0.573,0.344,0.797s0.521,0.336,0.875,0.336c0.396,0,0.773-0.13,1.133-0.391c0.266-0.198,0.44-0.44,0.523-0.727
			c0.058-0.188,0.086-0.544,0.086-1.07V112.04z"/>
		<path style="fill:#FFFFFF;" d="M197.561,116.024h-2.195v-8.297h2.039v1.18c0.349-0.558,0.663-0.925,0.941-1.102
			s0.595-0.266,0.949-0.266c0.5,0,0.981,0.138,1.445,0.414l-0.68,1.914c-0.37-0.239-0.714-0.359-1.031-0.359
			c-0.308,0-0.567,0.085-0.781,0.254s-0.382,0.476-0.504,0.918s-0.184,1.37-0.184,2.781V116.024z"/>
		<path style="fill:#FFFFFF;" d="M206.491,113.383l2.188,0.367c-0.281,0.802-0.726,1.413-1.332,1.832s-1.366,0.629-2.277,0.629
			c-1.442,0-2.511-0.472-3.203-1.414c-0.547-0.755-0.82-1.708-0.82-2.859c0-1.375,0.359-2.452,1.078-3.23s1.628-1.168,2.727-1.168
			c1.234,0,2.208,0.407,2.922,1.223s1.055,2.063,1.023,3.746h-5.5c0.016,0.651,0.192,1.157,0.531,1.52s0.761,0.543,1.266,0.543
			c0.344,0,0.633-0.094,0.867-0.281S206.371,113.8,206.491,113.383z M206.616,111.165c-0.016-0.636-0.18-1.118-0.492-1.449
			s-0.692-0.496-1.141-0.496c-0.479,0-0.875,0.175-1.188,0.523s-0.466,0.823-0.461,1.422H206.616z"/>
		<path style="fill:#FFFFFF;" d="M212.225,110.258l-1.992-0.359c0.224-0.802,0.609-1.396,1.156-1.781s1.359-0.578,2.438-0.578
			c0.979,0,1.708,0.116,2.188,0.348s0.816,0.526,1.012,0.883s0.293,1.012,0.293,1.965l-0.023,2.562c0,0.729,0.035,1.267,0.105,1.613
			s0.202,0.718,0.395,1.113h-2.172c-0.058-0.146-0.128-0.362-0.211-0.648c-0.036-0.13-0.062-0.216-0.078-0.258
			c-0.375,0.364-0.776,0.638-1.203,0.82s-0.883,0.273-1.367,0.273c-0.854,0-1.527-0.231-2.02-0.695s-0.738-1.05-0.738-1.758
			c0-0.469,0.112-0.887,0.336-1.254s0.538-0.648,0.941-0.844s0.985-0.366,1.746-0.512c1.026-0.192,1.737-0.372,2.133-0.539v-0.219
			c0-0.422-0.104-0.723-0.312-0.902s-0.602-0.27-1.18-0.27c-0.391,0-0.695,0.077-0.914,0.23S212.361,109.873,212.225,110.258z
			 M215.163,112.04c-0.281,0.094-0.727,0.206-1.336,0.336s-1.008,0.258-1.195,0.383c-0.286,0.203-0.43,0.461-0.43,0.773
			c0,0.308,0.114,0.573,0.344,0.797s0.521,0.336,0.875,0.336c0.396,0,0.773-0.13,1.133-0.391c0.266-0.198,0.44-0.44,0.523-0.727
			c0.058-0.188,0.086-0.544,0.086-1.07V112.04z"/>
	</g>
</g>
<line style="fill:none;stroke:#8C001A;stroke-width:2;stroke-miterlimit:10;" x1="131.658" y1="188.06" x2="131.658" y2="124.625"/>
</svg>
