<?xml version="1.0" encoding="utf-8"?>
<!-- Generator: Adobe Illustrator 22.0.1, SVG Export Plug-In . SVG Version: 6.00 Build 0)  -->
<svg version="1.1" id="madison-street" xmlns="http://www.w3.org/2000/svg" xmlns:xlink="http://www.w3.org/1999/xlink" x="0px"
	 y="0px" viewBox="0 0 400 602.122" style="enable-background:new 0 0 400 602.122;" xml:space="preserve">
<rect x="119.497" y="185.496" style="fill:#D7153A;stroke:#000000;stroke-width:1.5;" width="50.782" height="7.812"/>
<rect x="119.497" y="226.691" style="fill:#D7153A;stroke:#000000;stroke-width:1.5;" width="50.782" height="7.812"/>
<rect x="230.108" y="462.393" style="fill:#D7153A;stroke:#000000;stroke-width:1.5;" width="16.592" height="7.812"/>
<g>
	<rect x="104.987" y="451.826" style="fill:#F1F2F2;" width="35.175" height="15.355"/>
	<g>
		<g>
			<path d="M113.663,456.937l-1.576,0.216c-0.048-0.324-0.155-0.562-0.322-0.713s-0.38-0.223-0.64-0.216
				c-0.345,0.01-0.632,0.173-0.863,0.489c-0.23,0.316-0.363,0.966-0.4,1.948c0.395-0.492,0.894-0.744,1.499-0.761
				c0.682-0.018,1.274,0.228,1.772,0.733c0.501,0.507,0.762,1.172,0.784,1.992c0.022,0.872-0.215,1.579-0.712,2.12
				c-0.499,0.54-1.148,0.821-1.951,0.843c-0.86,0.022-1.577-0.294-2.149-0.947c-0.572-0.655-0.877-1.743-0.917-3.267
				c-0.041-1.562,0.219-2.695,0.778-3.4c0.559-0.706,1.3-1.07,2.223-1.095c0.647-0.017,1.188,0.15,1.622,0.502
				S113.529,456.251,113.663,456.937z M110.054,460.598c0.013,0.532,0.146,0.939,0.398,1.221c0.252,0.281,0.534,0.419,0.848,0.41
				c0.302-0.008,0.551-0.133,0.747-0.374c0.195-0.243,0.286-0.632,0.272-1.172c-0.014-0.553-0.134-0.957-0.357-1.21
				c-0.224-0.251-0.499-0.372-0.824-0.364c-0.314,0.008-0.577,0.138-0.787,0.391C110.14,459.752,110.04,460.118,110.054,460.598z"/>
			<path d="M114.802,461.085l1.576-0.233c0.061,0.402,0.204,0.706,0.431,0.914c0.227,0.206,0.497,0.306,0.811,0.297
				c0.337-0.008,0.617-0.143,0.841-0.405c0.224-0.261,0.331-0.61,0.319-1.044c-0.011-0.412-0.13-0.734-0.357-0.969
				c-0.227-0.234-0.499-0.347-0.817-0.339c-0.209,0.007-0.459,0.053-0.747,0.141l0.145-1.336c0.442,0,0.777-0.105,1.004-0.314
				c0.228-0.209,0.337-0.484,0.327-0.821c-0.007-0.286-0.099-0.512-0.273-0.678c-0.174-0.166-0.403-0.246-0.686-0.238
				c-0.279,0.007-0.515,0.11-0.708,0.309c-0.193,0.199-0.306,0.485-0.338,0.857l-1.512-0.216c0.091-0.518,0.238-0.934,0.441-1.248
				c0.204-0.314,0.49-0.563,0.864-0.751c0.373-0.186,0.794-0.284,1.264-0.297c0.802-0.02,1.452,0.219,1.951,0.718
				c0.41,0.409,0.622,0.876,0.636,1.403c0.02,0.749-0.373,1.356-1.18,1.823c0.491,0.093,0.887,0.317,1.19,0.673
				c0.302,0.357,0.46,0.793,0.474,1.309c0.02,0.748-0.237,1.391-0.769,1.933c-0.533,0.543-1.206,0.824-2.02,0.846
				c-0.772,0.02-1.418-0.186-1.937-0.617C115.213,462.373,114.902,461.799,114.802,461.085z"/>
			<path d="M121.908,463.162l-0.224-8.523l3.622-0.095c0.911-0.025,1.575,0.035,1.992,0.176c0.416,0.143,0.754,0.407,1.012,0.793
				c0.259,0.384,0.395,0.829,0.408,1.333c0.017,0.64-0.157,1.173-0.523,1.599c-0.366,0.427-0.92,0.705-1.665,0.833
				c0.377,0.208,0.691,0.437,0.94,0.691c0.249,0.254,0.587,0.706,1.016,1.358l1.084,1.637l-2.058,0.053l-1.293-1.821
				c-0.459-0.651-0.773-1.062-0.94-1.231c-0.167-0.168-0.343-0.281-0.527-0.341c-0.184-0.06-0.474-0.083-0.869-0.073l-0.349,0.01
				l0.093,3.558L121.908,463.162z M123.5,458.198l1.274-0.033c0.825-0.022,1.34-0.07,1.544-0.145
				c0.204-0.076,0.361-0.201,0.473-0.374c0.112-0.173,0.165-0.389,0.158-0.645c-0.007-0.286-0.09-0.515-0.248-0.688
				c-0.157-0.173-0.376-0.278-0.656-0.317c-0.14-0.015-0.559-0.015-1.256,0.003l-1.344,0.037L123.5,458.198z"/>
			<path d="M130.272,454.413l3.146-0.081c0.71-0.018,1.252,0.022,1.627,0.12c0.504,0.135,0.939,0.386,1.305,0.753
				c0.366,0.366,0.651,0.819,0.851,1.359c0.2,0.538,0.311,1.208,0.332,2.007c0.018,0.701-0.052,1.308-0.214,1.821
				c-0.198,0.625-0.489,1.135-0.874,1.529c-0.291,0.299-0.689,0.535-1.192,0.711c-0.376,0.131-0.882,0.204-1.518,0.221l-3.239,0.085
				L130.272,454.413z M132.031,455.81l0.148,5.645l1.285-0.033c0.481-0.012,0.827-0.048,1.039-0.108
				c0.278-0.076,0.506-0.201,0.685-0.372c0.18-0.173,0.323-0.45,0.43-0.834c0.106-0.386,0.151-0.909,0.134-1.567
				c-0.017-0.658-0.089-1.163-0.214-1.512c-0.125-0.351-0.296-0.622-0.509-0.813c-0.214-0.193-0.484-0.319-0.808-0.381
				c-0.241-0.048-0.713-0.063-1.415-0.045L132.031,455.81z"/>
		</g>
	</g>
</g>
<g>
	<polygon points="119.216,111.761 206.775,111.761 206.775,155.116 183.468,155.116 158.582,190.981 174.959,155.116 
		119.216,155.116 	"/>
	<g>
		<rect x="124.886" y="118.18" style="fill:none;" width="77.377" height="32.048"/>
		<path style="fill:#FFFFFF;" d="M136.378,129.636h-2.516l-1-2.602h-4.578l-0.945,2.602h-2.453l4.461-11.453h2.445L136.378,129.636z
			 M132.121,125.105l-1.578-4.25l-1.547,4.25H132.121z"/>
		<path style="fill:#FFFFFF;" d="M139.691,129.636h-2.195v-8.297h2.039v1.18c0.349-0.558,0.663-0.925,0.941-1.102
			s0.595-0.266,0.949-0.266c0.5,0,0.981,0.138,1.445,0.414l-0.68,1.914c-0.37-0.239-0.714-0.359-1.031-0.359
			c-0.308,0-0.567,0.085-0.781,0.254s-0.382,0.476-0.504,0.918s-0.184,1.37-0.184,2.781V129.636z"/>
		<path style="fill:#FFFFFF;" d="M148.621,126.996l2.188,0.367c-0.281,0.802-0.726,1.413-1.332,1.832s-1.366,0.629-2.277,0.629
			c-1.442,0-2.511-0.472-3.203-1.414c-0.547-0.755-0.82-1.708-0.82-2.859c0-1.375,0.359-2.452,1.078-3.23s1.628-1.168,2.727-1.168
			c1.234,0,2.208,0.407,2.922,1.223s1.055,2.063,1.023,3.746h-5.5c0.016,0.651,0.192,1.157,0.531,1.52s0.761,0.543,1.266,0.543
			c0.344,0,0.633-0.094,0.867-0.281S148.501,127.413,148.621,126.996z M148.746,124.777c-0.016-0.636-0.18-1.118-0.492-1.449
			s-0.692-0.496-1.141-0.496c-0.479,0-0.875,0.175-1.188,0.523s-0.466,0.823-0.461,1.422H148.746z"/>
		<path style="fill:#FFFFFF;" d="M154.355,123.871l-1.992-0.359c0.224-0.802,0.609-1.396,1.156-1.781s1.359-0.578,2.438-0.578
			c0.979,0,1.708,0.116,2.188,0.348s0.816,0.526,1.012,0.883s0.293,1.012,0.293,1.965l-0.023,2.562c0,0.729,0.035,1.267,0.105,1.613
			s0.202,0.718,0.395,1.113h-2.172c-0.058-0.146-0.128-0.362-0.211-0.648c-0.036-0.13-0.062-0.216-0.078-0.258
			c-0.375,0.364-0.776,0.638-1.203,0.82s-0.883,0.273-1.367,0.273c-0.854,0-1.527-0.231-2.02-0.695s-0.738-1.05-0.738-1.758
			c0-0.469,0.112-0.887,0.336-1.254s0.538-0.648,0.941-0.844s0.985-0.366,1.746-0.512c1.026-0.192,1.737-0.372,2.133-0.539v-0.219
			c0-0.422-0.104-0.723-0.312-0.902s-0.602-0.27-1.18-0.27c-0.391,0-0.695,0.077-0.914,0.23S154.491,123.485,154.355,123.871z
			 M157.293,125.652c-0.281,0.094-0.727,0.206-1.336,0.336s-1.008,0.258-1.195,0.383c-0.286,0.203-0.43,0.461-0.43,0.773
			c0,0.308,0.114,0.573,0.344,0.797s0.521,0.336,0.875,0.336c0.396,0,0.773-0.13,1.133-0.391c0.266-0.198,0.44-0.44,0.523-0.727
			c0.058-0.188,0.086-0.544,0.086-1.07V125.652z"/>
		<path style="fill:#FFFFFF;" d="M160.839,127.269l2.203-0.336c0.094,0.427,0.284,0.751,0.57,0.973s0.688,0.332,1.203,0.332
			c0.567,0,0.995-0.104,1.281-0.312c0.192-0.146,0.289-0.341,0.289-0.586c0-0.167-0.052-0.305-0.156-0.414
			c-0.109-0.104-0.354-0.2-0.734-0.289c-1.771-0.391-2.894-0.747-3.367-1.07c-0.656-0.448-0.984-1.07-0.984-1.867
			c0-0.719,0.284-1.323,0.852-1.812s1.448-0.734,2.641-0.734c1.136,0,1.979,0.185,2.531,0.555s0.933,0.917,1.141,1.641l-2.07,0.383
			c-0.089-0.323-0.257-0.57-0.504-0.742s-0.601-0.258-1.059-0.258c-0.578,0-0.992,0.081-1.242,0.242
			c-0.167,0.114-0.25,0.263-0.25,0.445c0,0.156,0.073,0.289,0.219,0.398c0.198,0.146,0.882,0.352,2.051,0.617
			s1.985,0.591,2.449,0.977c0.458,0.391,0.688,0.935,0.688,1.633c0,0.761-0.317,1.414-0.953,1.961s-1.575,0.82-2.82,0.82
			c-1.13,0-2.024-0.229-2.684-0.688S161.043,128.055,160.839,127.269z"/>
		<path style="fill:#FFFFFF;" d="M133.644,146.636h-2.039v-1.219c-0.339,0.474-0.738,0.827-1.199,1.059s-0.926,0.348-1.395,0.348
			c-0.953,0-1.77-0.384-2.449-1.152s-1.02-1.84-1.02-3.215c0-1.406,0.331-2.476,0.992-3.207s1.497-1.098,2.508-1.098
			c0.927,0,1.729,0.386,2.406,1.156v-4.125h2.195V146.636z M127.785,142.308c0,0.886,0.122,1.526,0.367,1.922
			c0.354,0.573,0.849,0.859,1.484,0.859c0.505,0,0.935-0.215,1.289-0.645s0.531-1.071,0.531-1.926c0-0.953-0.172-1.64-0.516-2.059
			s-0.784-0.629-1.32-0.629c-0.521,0-0.957,0.207-1.309,0.621S127.785,141.485,127.785,142.308z"/>
		<path style="fill:#FFFFFF;" d="M140.613,143.996l2.188,0.367c-0.281,0.802-0.726,1.413-1.332,1.832s-1.366,0.629-2.277,0.629
			c-1.442,0-2.511-0.472-3.203-1.414c-0.547-0.755-0.82-1.708-0.82-2.859c0-1.375,0.359-2.452,1.078-3.23s1.628-1.168,2.727-1.168
			c1.234,0,2.208,0.407,2.922,1.223s1.055,2.063,1.023,3.746h-5.5c0.016,0.651,0.192,1.157,0.531,1.52s0.761,0.543,1.266,0.543
			c0.344,0,0.633-0.094,0.867-0.281S140.493,144.413,140.613,143.996z M140.738,141.777c-0.016-0.636-0.18-1.118-0.492-1.449
			s-0.692-0.496-1.141-0.496c-0.479,0-0.875,0.175-1.188,0.523s-0.466,0.823-0.461,1.422H140.738z"/>
		<path style="fill:#FFFFFF;" d="M143.933,144.269l2.203-0.336c0.094,0.427,0.284,0.751,0.57,0.973s0.688,0.332,1.203,0.332
			c0.567,0,0.995-0.104,1.281-0.312c0.192-0.146,0.289-0.341,0.289-0.586c0-0.167-0.052-0.305-0.156-0.414
			c-0.109-0.104-0.354-0.2-0.734-0.289c-1.771-0.391-2.894-0.747-3.367-1.07c-0.656-0.448-0.984-1.07-0.984-1.867
			c0-0.719,0.284-1.323,0.852-1.812s1.448-0.734,2.641-0.734c1.136,0,1.979,0.185,2.531,0.555s0.933,0.917,1.141,1.641l-2.07,0.383
			c-0.089-0.323-0.257-0.57-0.504-0.742s-0.601-0.258-1.059-0.258c-0.578,0-0.992,0.081-1.242,0.242
			c-0.167,0.114-0.25,0.263-0.25,0.445c0,0.156,0.073,0.289,0.219,0.398c0.198,0.146,0.882,0.352,2.051,0.617
			s1.985,0.591,2.449,0.977c0.458,0.391,0.688,0.935,0.688,1.633c0,0.761-0.317,1.414-0.953,1.961s-1.575,0.82-2.82,0.82
			c-1.13,0-2.024-0.229-2.684-0.688S144.136,145.055,143.933,144.269z"/>
		<path style="fill:#FFFFFF;" d="M157.41,138.339v1.75h-1.5v3.344c0,0.677,0.015,1.071,0.043,1.184s0.094,0.204,0.195,0.277
			s0.226,0.109,0.371,0.109c0.203,0,0.497-0.07,0.883-0.211l0.188,1.703c-0.511,0.219-1.089,0.328-1.734,0.328
			c-0.396,0-0.753-0.066-1.07-0.199s-0.551-0.305-0.699-0.516s-0.251-0.496-0.309-0.855c-0.047-0.255-0.07-0.771-0.07-1.547v-3.617
			h-1.008v-1.75h1.008v-1.648l2.203-1.281v2.93H157.41z"/>
		<path style="fill:#FFFFFF;" d="M161.035,146.636h-2.195v-8.297h2.039v1.18c0.349-0.558,0.663-0.925,0.941-1.102
			s0.595-0.266,0.949-0.266c0.5,0,0.981,0.138,1.445,0.414l-0.68,1.914c-0.37-0.239-0.714-0.359-1.031-0.359
			c-0.308,0-0.567,0.085-0.781,0.254s-0.382,0.476-0.504,0.918s-0.184,1.37-0.184,2.781V146.636z"/>
		<path style="fill:#FFFFFF;" d="M164.652,142.371c0-0.729,0.18-1.435,0.539-2.117s0.868-1.203,1.527-1.562s1.395-0.539,2.207-0.539
			c1.255,0,2.284,0.407,3.086,1.223s1.203,1.845,1.203,3.09c0,1.255-0.405,2.296-1.215,3.121s-1.829,1.238-3.059,1.238
			c-0.761,0-1.485-0.172-2.176-0.516s-1.215-0.848-1.574-1.512S164.652,143.324,164.652,142.371z M166.902,142.488
			c0,0.823,0.195,1.453,0.586,1.891s0.872,0.656,1.445,0.656s1.054-0.219,1.441-0.656s0.582-1.073,0.582-1.906
			c0-0.812-0.194-1.438-0.582-1.875s-0.868-0.656-1.441-0.656s-1.055,0.219-1.445,0.656S166.902,141.665,166.902,142.488z"/>
		<path style="fill:#FFFFFF;" d="M173.894,138.339h2.336l1.984,5.891l1.938-5.891h2.273l-2.93,7.984l-0.523,1.445
			c-0.192,0.484-0.376,0.854-0.551,1.109s-0.375,0.462-0.602,0.621s-0.505,0.282-0.836,0.371s-0.704,0.133-1.121,0.133
			c-0.422,0-0.836-0.044-1.242-0.133l-0.195-1.719c0.344,0.067,0.653,0.102,0.93,0.102c0.511,0,0.888-0.149,1.133-0.449
			s0.433-0.681,0.562-1.145L173.894,138.339z"/>
		<path style="fill:#FFFFFF;" d="M188.636,143.996l2.188,0.367c-0.281,0.802-0.726,1.413-1.332,1.832s-1.366,0.629-2.277,0.629
			c-1.442,0-2.511-0.472-3.203-1.414c-0.547-0.755-0.82-1.708-0.82-2.859c0-1.375,0.359-2.452,1.078-3.23s1.628-1.168,2.727-1.168
			c1.234,0,2.208,0.407,2.922,1.223s1.055,2.063,1.023,3.746h-5.5c0.016,0.651,0.192,1.157,0.531,1.52s0.761,0.543,1.266,0.543
			c0.344,0,0.633-0.094,0.867-0.281S188.516,144.413,188.636,143.996z M188.761,141.777c-0.016-0.636-0.18-1.118-0.492-1.449
			s-0.692-0.496-1.141-0.496c-0.479,0-0.875,0.175-1.188,0.523s-0.466,0.823-0.461,1.422H188.761z"/>
		<path style="fill:#FFFFFF;" d="M200.339,146.636H198.3v-1.219c-0.339,0.474-0.738,0.827-1.199,1.059s-0.926,0.348-1.395,0.348
			c-0.953,0-1.77-0.384-2.449-1.152s-1.02-1.84-1.02-3.215c0-1.406,0.331-2.476,0.992-3.207s1.497-1.098,2.508-1.098
			c0.927,0,1.729,0.386,2.406,1.156v-4.125h2.195V146.636z M194.48,142.308c0,0.886,0.122,1.526,0.367,1.922
			c0.354,0.573,0.849,0.859,1.484,0.859c0.505,0,0.935-0.215,1.289-0.645s0.531-1.071,0.531-1.926c0-0.953-0.172-1.64-0.516-2.059
			s-0.784-0.629-1.32-0.629c-0.521,0-0.957,0.207-1.309,0.621S194.48,141.485,194.48,142.308z"/>
	</g>
</g>
<g>
	<rect x="179.487" y="213.326" style="fill:#F1F2F2;" width="90" height="13.5"/>
	<g>
		<g>
			<path d="M182.542,226.557l-0.282-10.018l4.258-0.12c1.07-0.03,1.851,0.038,2.341,0.204c0.49,0.167,0.887,0.477,1.192,0.928
				c0.305,0.451,0.465,0.974,0.481,1.566c0.021,0.752-0.182,1.378-0.61,1.88c-0.428,0.502-1.079,0.83-1.955,0.982
				c0.444,0.242,0.813,0.513,1.106,0.811c0.294,0.296,0.693,0.827,1.197,1.593l1.278,1.92l-2.419,0.068l-1.524-2.139
				c-0.54-0.765-0.909-1.246-1.106-1.442c-0.197-0.197-0.404-0.331-0.62-0.398c-0.216-0.07-0.557-0.098-1.021-0.085l-0.41,0.012
				l0.117,4.182L182.542,226.557z M184.402,220.719l1.496-0.042c0.971-0.027,1.575-0.086,1.814-0.174
				c0.239-0.089,0.424-0.235,0.556-0.439c0.131-0.204,0.192-0.457,0.184-0.758c-0.01-0.337-0.107-0.607-0.294-0.809
				c-0.186-0.203-0.442-0.327-0.772-0.372c-0.165-0.019-0.656-0.017-1.477,0.007l-1.578,0.045L184.402,220.719z"/>
			<path d="M192.093,221.336c-0.029-1.02,0.098-1.881,0.384-2.582c0.214-0.517,0.512-0.982,0.895-1.399
				c0.383-0.416,0.806-0.729,1.27-0.938c0.616-0.282,1.333-0.435,2.148-0.458c1.476-0.041,2.669,0.384,3.581,1.274
				s1.392,2.151,1.438,3.782c0.046,1.617-0.359,2.895-1.212,3.834c-0.854,0.937-2.017,1.427-3.487,1.469
				c-1.49,0.042-2.687-0.379-3.592-1.264C192.612,224.171,192.138,222.93,192.093,221.336z M194.175,221.209
				c0.031,1.135,0.317,1.987,0.857,2.557c0.541,0.571,1.214,0.846,2.021,0.823c0.806-0.022,1.46-0.333,1.96-0.927
				c0.501-0.597,0.734-1.475,0.702-2.637c-0.032-1.147-0.308-1.997-0.827-2.548c-0.52-0.552-1.196-0.813-2.029-0.79
				c-0.834,0.023-1.498,0.327-1.992,0.913C194.373,219.188,194.142,220.057,194.175,221.209z"/>
			<path d="M202.978,221.03c-0.029-1.02,0.099-1.881,0.385-2.582c0.214-0.518,0.512-0.983,0.894-1.399
				c0.383-0.417,0.806-0.729,1.271-0.939c0.616-0.282,1.332-0.434,2.147-0.457c1.476-0.042,2.67,0.383,3.582,1.274
				c0.911,0.89,1.391,2.15,1.437,3.781c0.046,1.617-0.359,2.896-1.211,3.834c-0.854,0.938-2.018,1.428-3.488,1.469
				c-1.489,0.042-2.687-0.378-3.591-1.263C203.498,223.864,203.023,222.624,202.978,221.03z M205.06,220.903
				c0.031,1.135,0.317,1.986,0.858,2.557c0.541,0.571,1.213,0.846,2.02,0.823c0.807-0.023,1.46-0.333,1.96-0.928
				c0.501-0.597,0.735-1.474,0.703-2.636c-0.032-1.147-0.309-1.997-0.828-2.548c-0.52-0.552-1.195-0.814-2.029-0.791
				c-0.834,0.024-1.497,0.328-1.991,0.914C205.257,218.88,205.027,219.75,205.06,220.903z"/>
			<path d="M213.808,222.414l1.963-0.247c0.137,0.657,0.391,1.136,0.762,1.436c0.37,0.3,0.863,0.44,1.479,0.424
				c0.651-0.019,1.138-0.17,1.46-0.456c0.323-0.284,0.479-0.611,0.469-0.98c-0.006-0.237-0.081-0.437-0.226-0.599
				c-0.144-0.162-0.39-0.3-0.739-0.413c-0.239-0.075-0.783-0.206-1.632-0.392c-1.092-0.238-1.862-0.548-2.311-0.927
				c-0.631-0.534-0.956-1.197-0.979-1.99c-0.015-0.511,0.115-0.991,0.393-1.442c0.277-0.454,0.685-0.804,1.222-1.051
				c0.538-0.248,1.191-0.383,1.962-0.404c1.257-0.036,2.211,0.213,2.862,0.747c0.651,0.533,1.005,1.259,1.063,2.179l-2.021,0.146
				c-0.102-0.512-0.297-0.877-0.589-1.096c-0.289-0.216-0.72-0.316-1.29-0.301c-0.588,0.017-1.044,0.15-1.369,0.4
				c-0.21,0.161-0.312,0.371-0.304,0.631c0.007,0.237,0.113,0.437,0.317,0.601c0.261,0.206,0.887,0.412,1.878,0.617
				c0.99,0.205,1.724,0.424,2.203,0.659c0.479,0.234,0.857,0.564,1.135,0.986c0.279,0.424,0.428,0.951,0.445,1.584
				c0.017,0.574-0.128,1.117-0.432,1.627c-0.306,0.509-0.746,0.895-1.322,1.155c-0.576,0.26-1.299,0.402-2.169,0.427
				c-1.267,0.036-2.248-0.229-2.943-0.797C214.401,224.373,213.972,223.531,213.808,222.414z"/>
			<path d="M223.747,225.395l-0.282-10.018l7.428-0.209l0.048,1.694l-5.405,0.152l0.062,2.222l5.029-0.142l0.048,1.688l-5.029,0.142
				l0.077,2.727l5.596-0.158l0.047,1.688L223.747,225.395z"/>
			<path d="M235.636,225.06l-3.863-9.917l2.193-0.062l2.744,7.343l2.244-7.483l2.146-0.061L237.795,225L235.636,225.06z"/>
			<path d="M242.415,224.869l-0.282-10.018l7.428-0.209l0.048,1.694l-5.405,0.152l0.062,2.222l5.029-0.142l0.048,1.688l-5.029,0.142
				l0.077,2.727l5.597-0.158l0.047,1.688L242.415,224.869z"/>
			<path d="M251.803,224.604l-0.28-9.936l2.022-0.057l0.233,8.248l5.029-0.143l0.047,1.688L251.803,224.604z"/>
			<path d="M261.513,224.331l-0.234-8.323l-2.973,0.083l-0.048-1.694l7.961-0.224l0.048,1.694l-2.966,0.083l0.234,8.323
				L261.513,224.331z"/>
		</g>
	</g>
</g>
</svg>
