<?xml version="1.0" encoding="utf-8"?>
<!-- Generator: Adobe Illustrator 22.0.1, SVG Export Plug-In . SVG Version: 6.00 Build 0)  -->
<svg version="1.1" id="_x32__mile_stretch" xmlns="http://www.w3.org/2000/svg" xmlns:xlink="http://www.w3.org/1999/xlink" x="0px"
	 y="0px" viewBox="0 0 610 622" style="enable-background:new 0 0 610 622;" xml:space="preserve">
<rect x="240.784" y="133.394" style="fill:#D7153A;stroke:#000000;stroke-width:1.5;" width="59.685" height="9.182"/>
<rect x="240.784" y="181.811" style="fill:#D7153A;stroke:#000000;stroke-width:1.5;" width="59.685" height="9.182"/>
<rect x="370.786" y="458.836" style="fill:#D7153A;stroke:#000000;stroke-width:1.5;" width="19.501" height="9.182"/>
<g>
	<g>
		<path d="M21.219,458.566l-1.853,0.254c-0.057-0.381-0.182-0.66-0.378-0.838s-0.446-0.262-0.752-0.254
			c-0.405,0.012-0.743,0.203-1.015,0.574c-0.271,0.371-0.427,1.135-0.47,2.289c0.464-0.578,1.051-0.875,1.762-0.895
			c0.802-0.021,1.497,0.268,2.083,0.861c0.589,0.596,0.896,1.377,0.921,2.342c0.026,1.025-0.253,1.855-0.837,2.492
			c-0.586,0.635-1.35,0.965-2.293,0.99c-1.011,0.025-1.854-0.346-2.525-1.113c-0.672-0.77-1.031-2.049-1.078-3.84
			c-0.048-1.836,0.257-3.168,0.914-3.996c0.657-0.83,1.528-1.258,2.612-1.287c0.761-0.02,1.396,0.176,1.906,0.59
			S21.062,457.759,21.219,458.566z M16.977,462.869c0.016,0.625,0.172,1.104,0.468,1.436c0.296,0.33,0.628,0.492,0.997,0.482
			c0.355-0.01,0.647-0.156,0.878-0.439c0.229-0.285,0.336-0.742,0.319-1.377c-0.017-0.65-0.157-1.125-0.42-1.422
			c-0.263-0.295-0.586-0.438-0.969-0.428c-0.369,0.01-0.678,0.162-0.925,0.459C17.079,461.875,16.962,462.304,16.977,462.869z"/>
		<path d="M22.558,463.441l1.853-0.273c0.071,0.473,0.24,0.83,0.507,1.074c0.267,0.242,0.584,0.359,0.953,0.35
			c0.396-0.01,0.726-0.168,0.988-0.477c0.264-0.307,0.389-0.717,0.375-1.227c-0.013-0.484-0.152-0.863-0.42-1.139
			c-0.267-0.275-0.586-0.408-0.96-0.398c-0.246,0.008-0.539,0.062-0.878,0.166l0.171-1.57c0.52,0,0.913-0.123,1.18-0.369
			c0.268-0.246,0.396-0.568,0.385-0.965c-0.009-0.336-0.116-0.602-0.321-0.797s-0.474-0.289-0.807-0.279
			c-0.328,0.008-0.605,0.129-0.832,0.363s-0.359,0.57-0.397,1.008l-1.777-0.254c0.106-0.609,0.279-1.098,0.519-1.467
			s0.576-0.662,1.016-0.883c0.438-0.219,0.934-0.334,1.485-0.35c0.942-0.023,1.707,0.258,2.293,0.844
			c0.482,0.48,0.731,1.029,0.747,1.648c0.023,0.881-0.438,1.594-1.387,2.143c0.577,0.109,1.043,0.373,1.398,0.791
			c0.355,0.42,0.541,0.932,0.557,1.539c0.023,0.879-0.278,1.635-0.904,2.271c-0.627,0.639-1.418,0.969-2.374,0.994
			c-0.907,0.023-1.666-0.219-2.276-0.725C23.041,464.955,22.675,464.281,22.558,463.441z"/>
		<path d="M30.91,465.882l-0.263-10.018l4.257-0.111c1.071-0.029,1.852,0.041,2.342,0.207c0.489,0.168,0.886,0.479,1.189,0.932
			c0.305,0.451,0.464,0.975,0.479,1.566c0.02,0.752-0.185,1.379-0.614,1.879c-0.43,0.502-1.081,0.828-1.957,0.979
			c0.443,0.244,0.812,0.514,1.104,0.812c0.293,0.299,0.69,0.83,1.194,1.596l1.274,1.924l-2.419,0.062l-1.52-2.141
			c-0.54-0.766-0.908-1.248-1.104-1.447c-0.196-0.197-0.403-0.33-0.619-0.4s-0.557-0.098-1.021-0.086l-0.41,0.012l0.109,4.182
			L30.91,465.882z M32.781,460.048l1.497-0.039c0.97-0.025,1.575-0.082,1.814-0.17c0.239-0.09,0.425-0.236,0.556-0.439
			c0.132-0.203,0.193-0.457,0.186-0.758c-0.009-0.336-0.105-0.605-0.292-0.809c-0.185-0.203-0.442-0.326-0.771-0.373
			c-0.165-0.018-0.657-0.018-1.477,0.004l-1.579,0.043L32.781,460.048z"/>
		<path d="M40.74,455.599l3.697-0.096c0.834-0.021,1.472,0.025,1.912,0.141c0.592,0.158,1.104,0.453,1.534,0.885
			c0.431,0.43,0.765,0.963,1,1.598c0.235,0.633,0.365,1.42,0.39,2.359c0.021,0.824-0.062,1.537-0.251,2.141
			c-0.232,0.734-0.574,1.334-1.027,1.797c-0.342,0.352-0.81,0.629-1.401,0.836c-0.441,0.154-1.037,0.24-1.784,0.26l-3.807,0.1
			L40.74,455.599z M42.808,457.242l0.174,6.635l1.51-0.039c0.565-0.014,0.972-0.057,1.221-0.127c0.326-0.09,0.595-0.236,0.805-0.438
			c0.212-0.203,0.38-0.529,0.505-0.98c0.125-0.453,0.178-1.068,0.157-1.842s-0.104-1.367-0.252-1.777
			c-0.147-0.412-0.348-0.73-0.599-0.955c-0.252-0.227-0.568-0.375-0.949-0.447c-0.283-0.057-0.838-0.074-1.663-0.053L42.808,457.242
			z"/>
	</g>
</g>
<g>
	<g>
		<path d="M21.219,458.566l-1.853,0.254c-0.057-0.381-0.182-0.66-0.378-0.838s-0.446-0.262-0.752-0.254
			c-0.405,0.012-0.743,0.203-1.015,0.574c-0.271,0.371-0.427,1.135-0.47,2.289c0.464-0.578,1.051-0.875,1.762-0.895
			c0.802-0.021,1.497,0.268,2.083,0.861c0.589,0.596,0.896,1.377,0.921,2.342c0.026,1.025-0.253,1.855-0.837,2.492
			c-0.586,0.635-1.35,0.965-2.293,0.99c-1.011,0.025-1.854-0.346-2.525-1.113c-0.672-0.77-1.031-2.049-1.078-3.84
			c-0.048-1.836,0.257-3.168,0.914-3.996c0.657-0.83,1.528-1.258,2.612-1.287c0.761-0.02,1.396,0.176,1.906,0.59
			S21.062,457.759,21.219,458.566z M16.977,462.869c0.016,0.625,0.172,1.104,0.468,1.436c0.296,0.33,0.628,0.492,0.997,0.482
			c0.355-0.01,0.647-0.156,0.878-0.439c0.229-0.285,0.336-0.742,0.319-1.377c-0.017-0.65-0.157-1.125-0.42-1.422
			c-0.263-0.295-0.586-0.438-0.969-0.428c-0.369,0.01-0.678,0.162-0.925,0.459C17.079,461.875,16.962,462.304,16.977,462.869z"/>
		<path d="M22.558,463.441l1.853-0.273c0.071,0.473,0.24,0.83,0.507,1.074c0.267,0.242,0.584,0.359,0.953,0.35
			c0.396-0.01,0.726-0.168,0.988-0.477c0.264-0.307,0.389-0.717,0.375-1.227c-0.013-0.484-0.152-0.863-0.42-1.139
			c-0.267-0.275-0.586-0.408-0.96-0.398c-0.246,0.008-0.539,0.062-0.878,0.166l0.171-1.57c0.52,0,0.913-0.123,1.18-0.369
			c0.268-0.246,0.396-0.568,0.385-0.965c-0.009-0.336-0.116-0.602-0.321-0.797s-0.474-0.289-0.807-0.279
			c-0.328,0.008-0.605,0.129-0.832,0.363s-0.359,0.57-0.397,1.008l-1.777-0.254c0.106-0.609,0.279-1.098,0.519-1.467
			s0.576-0.662,1.016-0.883c0.438-0.219,0.934-0.334,1.485-0.35c0.942-0.023,1.707,0.258,2.293,0.844
			c0.482,0.48,0.731,1.029,0.747,1.648c0.023,0.881-0.438,1.594-1.387,2.143c0.577,0.109,1.043,0.373,1.398,0.791
			c0.355,0.42,0.541,0.932,0.557,1.539c0.023,0.879-0.278,1.635-0.904,2.271c-0.627,0.639-1.418,0.969-2.374,0.994
			c-0.907,0.023-1.666-0.219-2.276-0.725C23.041,464.955,22.675,464.281,22.558,463.441z"/>
		<path d="M30.91,465.882l-0.263-10.018l4.257-0.111c1.071-0.029,1.852,0.041,2.342,0.207c0.489,0.168,0.886,0.479,1.189,0.932
			c0.305,0.451,0.464,0.975,0.479,1.566c0.02,0.752-0.185,1.379-0.614,1.879c-0.43,0.502-1.081,0.828-1.957,0.979
			c0.443,0.244,0.812,0.514,1.104,0.812c0.293,0.299,0.69,0.83,1.194,1.596l1.274,1.924l-2.419,0.062l-1.52-2.141
			c-0.54-0.766-0.908-1.248-1.104-1.447c-0.196-0.197-0.403-0.33-0.619-0.4s-0.557-0.098-1.021-0.086l-0.41,0.012l0.109,4.182
			L30.91,465.882z M32.781,460.048l1.497-0.039c0.97-0.025,1.575-0.082,1.814-0.17c0.239-0.09,0.425-0.236,0.556-0.439
			c0.132-0.203,0.193-0.457,0.186-0.758c-0.009-0.336-0.105-0.605-0.292-0.809c-0.185-0.203-0.442-0.326-0.771-0.373
			c-0.165-0.018-0.657-0.018-1.477,0.004l-1.579,0.043L32.781,460.048z"/>
		<path d="M40.74,455.599l3.697-0.096c0.834-0.021,1.472,0.025,1.912,0.141c0.592,0.158,1.104,0.453,1.534,0.885
			c0.431,0.43,0.765,0.963,1,1.598c0.235,0.633,0.365,1.42,0.39,2.359c0.021,0.824-0.062,1.537-0.251,2.141
			c-0.232,0.734-0.574,1.334-1.027,1.797c-0.342,0.352-0.81,0.629-1.401,0.836c-0.441,0.154-1.037,0.24-1.784,0.26l-3.807,0.1
			L40.74,455.599z M42.808,457.242l0.174,6.635l1.51-0.039c0.565-0.014,0.972-0.057,1.221-0.127c0.326-0.09,0.595-0.236,0.805-0.438
			c0.212-0.203,0.38-0.529,0.505-0.98c0.125-0.453,0.178-1.068,0.157-1.842s-0.104-1.367-0.252-1.777
			c-0.147-0.412-0.348-0.73-0.599-0.955c-0.252-0.227-0.568-0.375-0.949-0.447c-0.283-0.057-0.838-0.074-1.663-0.053L42.808,457.242
			z"/>
	</g>
</g>
<g>
	<g>
		<path d="M341.736,181.476l-0.282-10.018l4.257-0.119c1.07-0.029,1.85,0.037,2.34,0.203c0.491,0.166,0.888,0.477,1.192,0.928
			s0.466,0.975,0.482,1.566c0.021,0.752-0.183,1.379-0.611,1.881c-0.427,0.502-1.078,0.828-1.955,0.98
			c0.445,0.244,0.814,0.514,1.107,0.811c0.293,0.299,0.692,0.83,1.196,1.594l1.279,1.92l-2.419,0.068l-1.524-2.139
			c-0.541-0.764-0.91-1.244-1.107-1.443c-0.196-0.195-0.403-0.33-0.62-0.398c-0.216-0.07-0.557-0.098-1.021-0.084l-0.41,0.012
			l0.118,4.182L341.736,181.476z M343.595,175.638l1.496-0.041c0.971-0.027,1.575-0.086,1.813-0.176
			c0.239-0.088,0.425-0.234,0.556-0.439c0.131-0.203,0.192-0.457,0.184-0.758c-0.009-0.336-0.106-0.605-0.293-0.807
			c-0.186-0.203-0.443-0.328-0.772-0.373c-0.164-0.018-0.656-0.016-1.477,0.008l-1.578,0.045L343.595,175.638z"/>
		<path d="M351.286,176.257c-0.028-1.021,0.099-1.883,0.385-2.584c0.213-0.516,0.512-0.982,0.894-1.4
			c0.383-0.416,0.807-0.729,1.27-0.938c0.616-0.281,1.334-0.434,2.149-0.457c1.476-0.041,2.669,0.383,3.58,1.273
			c0.913,0.891,1.393,2.15,1.438,3.783c0.045,1.617-0.359,2.895-1.213,3.832c-0.854,0.939-2.016,1.428-3.486,1.469
			c-1.49,0.043-2.687-0.377-3.592-1.262C351.804,179.089,351.331,177.851,351.286,176.257z M353.368,176.128
			c0.032,1.135,0.318,1.988,0.858,2.557c0.541,0.572,1.214,0.846,2.021,0.822c0.806-0.021,1.46-0.332,1.96-0.926
			c0.501-0.596,0.734-1.475,0.701-2.637c-0.032-1.148-0.308-1.996-0.827-2.547c-0.519-0.551-1.195-0.814-2.028-0.791
			c-0.834,0.023-1.498,0.328-1.993,0.914C353.566,174.107,353.336,174.976,353.368,176.128z"/>
		<path d="M362.171,175.949c-0.028-1.02,0.1-1.881,0.386-2.582c0.213-0.518,0.512-0.982,0.894-1.4
			c0.382-0.416,0.806-0.729,1.27-0.938c0.616-0.281,1.333-0.434,2.148-0.457c1.476-0.041,2.67,0.383,3.581,1.273
			c0.912,0.891,1.392,2.15,1.438,3.783c0.045,1.617-0.359,2.893-1.212,3.832c-0.854,0.938-2.017,1.428-3.487,1.469
			c-1.489,0.043-2.687-0.377-3.592-1.264C362.69,178.783,362.215,177.542,362.171,175.949z M364.253,175.822
			c0.032,1.135,0.318,1.988,0.859,2.557c0.54,0.57,1.213,0.846,2.02,0.822c0.807-0.021,1.46-0.332,1.96-0.928
			c0.501-0.594,0.735-1.473,0.702-2.635c-0.032-1.148-0.309-1.998-0.828-2.547c-0.519-0.553-1.194-0.814-2.028-0.791
			s-1.497,0.328-1.992,0.914C364.451,173.8,364.22,174.669,364.253,175.822z"/>
		<path d="M373.002,177.333l1.962-0.248c0.137,0.658,0.391,1.137,0.762,1.436c0.37,0.299,0.864,0.441,1.479,0.424
			c0.651-0.02,1.138-0.17,1.46-0.457c0.323-0.283,0.479-0.609,0.469-0.979c-0.007-0.238-0.082-0.438-0.227-0.6
			c-0.143-0.162-0.39-0.301-0.738-0.414c-0.239-0.074-0.784-0.205-1.633-0.391c-1.092-0.238-1.861-0.547-2.31-0.926
			c-0.631-0.535-0.957-1.199-0.979-1.99c-0.014-0.512,0.116-0.992,0.393-1.443c0.277-0.453,0.685-0.803,1.223-1.051
			s1.191-0.383,1.962-0.404c1.258-0.035,2.211,0.213,2.862,0.746c0.65,0.535,1.005,1.26,1.062,2.18l-2.02,0.145
			c-0.102-0.51-0.298-0.875-0.588-1.094c-0.291-0.217-0.722-0.318-1.291-0.303c-0.588,0.018-1.044,0.152-1.37,0.402
			c-0.209,0.16-0.311,0.371-0.304,0.631c0.007,0.236,0.113,0.436,0.318,0.6c0.26,0.207,0.887,0.412,1.877,0.617
			s1.725,0.424,2.203,0.66c0.479,0.234,0.857,0.564,1.136,0.984c0.278,0.426,0.427,0.953,0.445,1.586
			c0.016,0.574-0.128,1.115-0.433,1.625c-0.305,0.512-0.745,0.896-1.321,1.158c-0.576,0.258-1.3,0.4-2.17,0.426
			c-1.267,0.035-2.247-0.23-2.942-0.797S373.165,178.449,373.002,177.333z"/>
		<path d="M382.94,180.314l-0.282-10.016l7.428-0.211l0.048,1.695l-5.405,0.152l0.062,2.221l5.029-0.143l0.047,1.688l-5.029,0.143
			l0.077,2.727l5.597-0.158l0.048,1.688L382.94,180.314z"/>
		<path d="M394.83,179.978l-3.863-9.914l2.193-0.062l2.744,7.342l2.244-7.482l2.146-0.061l-3.305,10.117L394.83,179.978z"/>
		<path d="M401.608,179.787l-0.282-10.016l7.428-0.209l0.048,1.693l-5.405,0.152l0.062,2.221l5.029-0.141l0.047,1.688l-5.029,0.141
			l0.077,2.727l5.597-0.158l0.048,1.688L401.608,179.787z"/>
		<path d="M410.997,179.523l-0.28-9.936l2.022-0.057l0.232,8.248l5.029-0.143l0.048,1.688L410.997,179.523z"/>
		<path d="M420.707,179.25l-0.234-8.322l-2.973,0.084l-0.048-1.695l7.961-0.225l0.048,1.695l-2.966,0.082l0.234,8.322
			L420.707,179.25z"/>
	</g>
</g>
<g>
	<polygon points="240.453,70.826 329.847,70.826 329.847,116.492 302.453,116.492 280.487,137.326 292.453,116.492 240.453,116.492 
			"/>
	<g>
		<rect x="246.928" y="76.838" style="fill:none;" width="78.79" height="29.796"/>
		<path style="fill:#FFFFFF;" d="M258.421,88.293h-2.516l-1-2.602h-4.578l-0.945,2.602h-2.453l4.461-11.453h2.445L258.421,88.293z
			 M254.163,83.762l-1.578-4.25l-1.547,4.25H254.163z"/>
		<path style="fill:#FFFFFF;" d="M261.733,88.293h-2.195v-8.297h2.039v1.18c0.349-0.558,0.663-0.925,0.941-1.102
			s0.595-0.266,0.949-0.266c0.5,0,0.981,0.138,1.445,0.414l-0.68,1.914c-0.37-0.239-0.714-0.359-1.031-0.359
			c-0.308,0-0.567,0.085-0.781,0.254s-0.382,0.476-0.504,0.918s-0.184,1.37-0.184,2.781V88.293z"/>
		<path style="fill:#FFFFFF;" d="M270.663,85.653l2.188,0.367c-0.281,0.802-0.726,1.413-1.332,1.832s-1.366,0.629-2.277,0.629
			c-1.442,0-2.511-0.472-3.203-1.414c-0.547-0.755-0.82-1.708-0.82-2.859c0-1.375,0.359-2.452,1.078-3.23s1.628-1.168,2.727-1.168
			c1.234,0,2.208,0.407,2.922,1.223s1.055,2.063,1.023,3.746h-5.5c0.016,0.651,0.192,1.157,0.531,1.52s0.761,0.543,1.266,0.543
			c0.344,0,0.633-0.094,0.867-0.281S270.543,86.07,270.663,85.653z M270.788,83.434c-0.016-0.636-0.18-1.118-0.492-1.449
			s-0.692-0.496-1.141-0.496c-0.479,0-0.875,0.175-1.188,0.523s-0.466,0.823-0.461,1.422H270.788z"/>
		<path style="fill:#FFFFFF;" d="M276.397,82.528l-1.992-0.359c0.224-0.802,0.609-1.396,1.156-1.781s1.359-0.578,2.438-0.578
			c0.979,0,1.708,0.116,2.188,0.348s0.816,0.526,1.012,0.883s0.293,1.012,0.293,1.965l-0.023,2.562c0,0.729,0.035,1.267,0.105,1.613
			s0.202,0.718,0.395,1.113h-2.172c-0.058-0.146-0.128-0.362-0.211-0.648c-0.036-0.13-0.062-0.216-0.078-0.258
			c-0.375,0.364-0.776,0.638-1.203,0.82s-0.883,0.273-1.367,0.273c-0.854,0-1.527-0.231-2.02-0.695s-0.738-1.05-0.738-1.758
			c0-0.469,0.112-0.887,0.336-1.254s0.538-0.648,0.941-0.844s0.985-0.366,1.746-0.512c1.026-0.192,1.737-0.372,2.133-0.539v-0.219
			c0-0.422-0.104-0.723-0.312-0.902s-0.602-0.27-1.18-0.27c-0.391,0-0.695,0.077-0.914,0.23S276.533,82.142,276.397,82.528z
			 M279.335,84.309c-0.281,0.094-0.727,0.206-1.336,0.336s-1.008,0.258-1.195,0.383c-0.286,0.203-0.43,0.461-0.43,0.773
			c0,0.308,0.114,0.573,0.344,0.797s0.521,0.336,0.875,0.336c0.396,0,0.773-0.13,1.133-0.391c0.266-0.198,0.44-0.44,0.523-0.727
			c0.058-0.188,0.086-0.544,0.086-1.07V84.309z"/>
		<path style="fill:#FFFFFF;" d="M282.881,85.926l2.203-0.336c0.094,0.427,0.284,0.751,0.57,0.973s0.688,0.332,1.203,0.332
			c0.567,0,0.995-0.104,1.281-0.312c0.192-0.146,0.289-0.341,0.289-0.586c0-0.167-0.052-0.305-0.156-0.414
			c-0.109-0.104-0.354-0.2-0.734-0.289c-1.771-0.391-2.894-0.747-3.367-1.07c-0.656-0.448-0.984-1.07-0.984-1.867
			c0-0.719,0.284-1.323,0.852-1.812s1.448-0.734,2.641-0.734c1.136,0,1.979,0.185,2.531,0.555s0.933,0.917,1.141,1.641l-2.07,0.383
			c-0.089-0.323-0.257-0.57-0.504-0.742s-0.601-0.258-1.059-0.258c-0.578,0-0.992,0.081-1.242,0.242
			c-0.167,0.114-0.25,0.263-0.25,0.445c0,0.156,0.073,0.289,0.219,0.398c0.198,0.146,0.882,0.352,2.051,0.617
			s1.985,0.591,2.449,0.977c0.458,0.391,0.688,0.935,0.688,1.633c0,0.761-0.317,1.414-0.953,1.961s-1.575,0.82-2.82,0.82
			c-1.13,0-2.024-0.229-2.684-0.688S283.085,86.712,282.881,85.926z"/>
		<path style="fill:#FFFFFF;" d="M255.686,106.293h-2.039v-1.219c-0.339,0.474-0.738,0.827-1.199,1.059s-0.926,0.348-1.395,0.348
			c-0.953,0-1.77-0.384-2.449-1.152s-1.02-1.84-1.02-3.215c0-1.406,0.331-2.476,0.992-3.207s1.497-1.098,2.508-1.098
			c0.927,0,1.729,0.386,2.406,1.156V94.84h2.195V106.293z M249.827,101.965c0,0.886,0.122,1.526,0.367,1.922
			c0.354,0.573,0.849,0.859,1.484,0.859c0.505,0,0.935-0.215,1.289-0.645s0.531-1.071,0.531-1.926c0-0.953-0.172-1.64-0.516-2.059
			s-0.784-0.629-1.32-0.629c-0.521,0-0.957,0.207-1.309,0.621S249.827,101.142,249.827,101.965z"/>
		<path style="fill:#FFFFFF;" d="M262.655,103.653l2.188,0.367c-0.281,0.802-0.726,1.413-1.332,1.832s-1.366,0.629-2.277,0.629
			c-1.442,0-2.511-0.472-3.203-1.414c-0.547-0.755-0.82-1.708-0.82-2.859c0-1.375,0.359-2.452,1.078-3.23s1.628-1.168,2.727-1.168
			c1.234,0,2.208,0.407,2.922,1.223s1.055,2.063,1.023,3.746h-5.5c0.016,0.651,0.192,1.157,0.531,1.52s0.761,0.543,1.266,0.543
			c0.344,0,0.633-0.094,0.867-0.281S262.535,104.07,262.655,103.653z M262.78,101.434c-0.016-0.636-0.18-1.118-0.492-1.449
			s-0.692-0.496-1.141-0.496c-0.479,0-0.875,0.175-1.188,0.523s-0.466,0.823-0.461,1.422H262.78z"/>
		<path style="fill:#FFFFFF;" d="M265.975,103.926l2.203-0.336c0.094,0.427,0.284,0.751,0.57,0.973s0.688,0.332,1.203,0.332
			c0.567,0,0.995-0.104,1.281-0.312c0.192-0.146,0.289-0.341,0.289-0.586c0-0.167-0.052-0.305-0.156-0.414
			c-0.109-0.104-0.354-0.2-0.734-0.289c-1.771-0.391-2.894-0.747-3.367-1.07c-0.656-0.448-0.984-1.07-0.984-1.867
			c0-0.719,0.284-1.323,0.852-1.812s1.448-0.734,2.641-0.734c1.136,0,1.979,0.185,2.531,0.555s0.933,0.917,1.141,1.641l-2.07,0.383
			c-0.089-0.323-0.257-0.57-0.504-0.742s-0.601-0.258-1.059-0.258c-0.578,0-0.992,0.081-1.242,0.242
			c-0.167,0.114-0.25,0.263-0.25,0.445c0,0.156,0.073,0.289,0.219,0.398c0.198,0.146,0.882,0.352,2.051,0.617
			s1.985,0.591,2.449,0.977c0.458,0.391,0.688,0.935,0.688,1.633c0,0.761-0.317,1.414-0.953,1.961s-1.575,0.82-2.82,0.82
			c-1.13,0-2.024-0.229-2.684-0.688S266.178,104.712,265.975,103.926z"/>
		<path style="fill:#FFFFFF;" d="M279.452,97.997v1.75h-1.5v3.344c0,0.677,0.015,1.071,0.043,1.184s0.094,0.204,0.195,0.277
			s0.226,0.109,0.371,0.109c0.203,0,0.497-0.07,0.883-0.211l0.188,1.703c-0.511,0.219-1.089,0.328-1.734,0.328
			c-0.396,0-0.753-0.066-1.07-0.199s-0.551-0.305-0.699-0.516s-0.251-0.496-0.309-0.855c-0.047-0.255-0.07-0.771-0.07-1.547v-3.617
			h-1.008v-1.75h1.008v-1.648l2.203-1.281v2.93H279.452z"/>
		<path style="fill:#FFFFFF;" d="M283.077,106.293h-2.195v-8.297h2.039v1.18c0.349-0.558,0.663-0.925,0.941-1.102
			s0.595-0.266,0.949-0.266c0.5,0,0.981,0.138,1.445,0.414l-0.68,1.914c-0.37-0.239-0.714-0.359-1.031-0.359
			c-0.308,0-0.567,0.085-0.781,0.254s-0.382,0.476-0.504,0.918s-0.184,1.37-0.184,2.781V106.293z"/>
		<path style="fill:#FFFFFF;" d="M286.694,102.028c0-0.729,0.18-1.435,0.539-2.117s0.868-1.203,1.527-1.562s1.395-0.539,2.207-0.539
			c1.255,0,2.284,0.407,3.086,1.223s1.203,1.845,1.203,3.09c0,1.255-0.405,2.296-1.215,3.121s-1.829,1.238-3.059,1.238
			c-0.761,0-1.485-0.172-2.176-0.516s-1.215-0.848-1.574-1.512S286.694,102.981,286.694,102.028z M288.944,102.145
			c0,0.823,0.195,1.453,0.586,1.891s0.872,0.656,1.445,0.656s1.054-0.219,1.441-0.656s0.582-1.073,0.582-1.906
			c0-0.812-0.194-1.438-0.582-1.875s-0.868-0.656-1.441-0.656s-1.055,0.219-1.445,0.656S288.944,101.322,288.944,102.145z"/>
		<path style="fill:#FFFFFF;" d="M295.936,97.997h2.336l1.984,5.891l1.938-5.891h2.273l-2.93,7.984l-0.523,1.445
			c-0.192,0.484-0.376,0.854-0.551,1.109s-0.375,0.462-0.602,0.621s-0.505,0.282-0.836,0.371s-0.704,0.133-1.121,0.133
			c-0.422,0-0.836-0.044-1.242-0.133l-0.195-1.719c0.344,0.067,0.653,0.102,0.93,0.102c0.511,0,0.888-0.149,1.133-0.449
			s0.433-0.681,0.562-1.145L295.936,97.997z"/>
		<path style="fill:#FFFFFF;" d="M310.678,103.653l2.188,0.367c-0.281,0.802-0.726,1.413-1.332,1.832s-1.366,0.629-2.277,0.629
			c-1.442,0-2.511-0.472-3.203-1.414c-0.547-0.755-0.82-1.708-0.82-2.859c0-1.375,0.359-2.452,1.078-3.23s1.628-1.168,2.727-1.168
			c1.234,0,2.208,0.407,2.922,1.223s1.055,2.063,1.023,3.746h-5.5c0.016,0.651,0.192,1.157,0.531,1.52s0.761,0.543,1.266,0.543
			c0.344,0,0.633-0.094,0.867-0.281S310.558,104.07,310.678,103.653z M310.803,101.434c-0.016-0.636-0.18-1.118-0.492-1.449
			s-0.692-0.496-1.141-0.496c-0.479,0-0.875,0.175-1.188,0.523s-0.466,0.823-0.461,1.422H310.803z"/>
		<path style="fill:#FFFFFF;" d="M322.381,106.293h-2.039v-1.219c-0.339,0.474-0.738,0.827-1.199,1.059s-0.926,0.348-1.395,0.348
			c-0.953,0-1.77-0.384-2.449-1.152s-1.02-1.84-1.02-3.215c0-1.406,0.331-2.476,0.992-3.207s1.497-1.098,2.508-1.098
			c0.927,0,1.729,0.386,2.406,1.156V94.84h2.195V106.293z M316.522,101.965c0,0.886,0.122,1.526,0.367,1.922
			c0.354,0.573,0.849,0.859,1.484,0.859c0.505,0,0.935-0.215,1.289-0.645s0.531-1.071,0.531-1.926c0-0.953-0.172-1.64-0.516-2.059
			s-0.784-0.629-1.32-0.629c-0.521,0-0.957,0.207-1.309,0.621S316.522,101.142,316.522,101.965z"/>
	</g>
</g>
</svg>
