<?xml version="1.0" encoding="utf-8"?>
<!-- Generator: Adobe Illustrator 22.0.1, SVG Export Plug-In . SVG Version: 6.00 Build 0)  -->
<svg version="1.1" id="_x32_0-block_stretch" xmlns="http://www.w3.org/2000/svg" xmlns:xlink="http://www.w3.org/1999/xlink"
	 x="0px" y="0px" viewBox="0 0 610 622" style="enable-background:new 0 0 610 622;" xml:space="preserve">
<rect x="185.934" y="134.394" style="fill:#D7153A;stroke:#FFFFFF;stroke-width:1.5;" width="114.535" height="7.187"/>
<g>
	<polygon points="243.181,319.934 119.127,319.934 119.127,229.025 206.824,229.025 246.82,140.326 220.618,229.025 
		243.181,229.025 	"/>
	<rect x="127.254" y="237.722" style="fill:none;" width="112.828" height="75.251"/>
	<text transform="matrix(1 0 0 1 127.2538 247.7451)"><tspan x="0" y="0" style="fill:#FFFFFF; font-family:'Arial-BoldMT'; font-size:14px;">260 stores and </tspan><tspan x="0" y="16" style="fill:#FFFFFF; font-family:'Arial-BoldMT'; font-size:14px;">businesses </tspan><tspan x="0" y="32" style="fill:#FFFFFF; font-family:'Arial-BoldMT'; font-size:14px;">destroyed </tspan><tspan x="0" y="48" style="fill:#FFFFFF; font-family:'Arial-BoldMT'; font-size:14px;">between Damen </tspan><tspan x="0" y="64" style="fill:#FFFFFF; font-family:'Arial-BoldMT'; font-size:14px;">and Pulaski. </tspan></text>
</g>
<g>
	<rect x="305.562" y="145.36" style="fill:#F1F2F2;" width="18.516" height="58.181"/>
	<g>
		
			<text transform="matrix(-0.0262 -0.9997 0.9997 -0.0262 321.0261 201.1487)" style="font-family:'Arial-BoldMT'; font-size:14px;">DAMEN</text>
	</g>
</g>
<g>
	<rect x="168.964" y="140.879" style="fill:#F1F2F2;" width="15.903" height="68.257"/>
	<g>
		<text transform="matrix(-0.0297 -0.9996 0.9996 -0.0297 183.3954 205.12)" style="font-family:'Arial-BoldMT'; font-size:14px;">PULASKI</text>
	</g>
</g>
</svg>
