<?xml version="1.0" encoding="utf-8"?>
<!-- Generator: Adobe Illustrator 22.0.1, SVG Export Plug-In . SVG Version: 6.00 Build 0)  -->
<svg version="1.1" xmlns="http://www.w3.org/2000/svg" xmlns:xlink="http://www.w3.org/1999/xlink" x="0px" y="0px"
	 viewBox="0 0 610 622" style="enable-background:new 0 0 610 622;" xml:space="preserve">
<g id="_x32_0-block_stretch">
	<rect x="185.934" y="130.894" style="fill:#D7153A;stroke:#000000;stroke-width:1.5;" width="114.535" height="10.687"/>
	<g>
		<rect x="280.874" y="146.86" style="fill:#F1F2F2;" width="18.516" height="58.181"/>
		<g>
			<g>
				<path d="M286.294,201.901l-0.097-3.697c-0.021-0.833,0.025-1.471,0.142-1.911c0.156-0.593,0.451-1.104,0.882-1.534
					c0.432-0.431,0.965-0.765,1.6-1c0.633-0.235,1.42-0.365,2.358-0.39c0.825-0.021,1.538,0.062,2.14,0.252
					c0.736,0.231,1.335,0.573,1.798,1.025c0.351,0.342,0.63,0.81,0.837,1.401c0.153,0.442,0.239,1.038,0.259,1.784l0.1,3.807
					L286.294,201.901z M287.935,199.833l6.636-0.174l-0.04-1.511c-0.015-0.565-0.058-0.971-0.127-1.22
					c-0.091-0.326-0.237-0.595-0.438-0.806c-0.202-0.212-0.529-0.38-0.98-0.505c-0.453-0.125-1.066-0.178-1.841-0.157
					s-1.367,0.104-1.778,0.252s-0.729,0.348-0.955,0.6c-0.227,0.252-0.375,0.568-0.447,0.949c-0.056,0.283-0.074,0.837-0.052,1.662
					L287.935,199.833z"/>
				<path d="M295.81,182.491l0.058,2.2l-2.253,0.935l0.104,4.004l2.298,0.768l0.056,2.146l-10.119-3.639l-0.057-2.14L295.81,182.491
					z M291.945,186.318l-3.682,1.479l3.753,1.255L291.945,186.318z"/>
				<path d="M295.783,181.445l-10.018,0.263l-0.08-3.027l6.786-1.997l-6.881-1.618l-0.079-3.034l10.018-0.263l0.05,1.88
					l-7.886,0.206l7.938,1.782l0.051,1.947l-7.834,2.188l7.886-0.206L295.783,181.445z"/>
				<path d="M295.476,169.759l-10.018,0.263l-0.194-7.428l1.694-0.045l0.142,5.405l2.221-0.058l-0.132-5.029l1.688-0.045
					l0.132,5.029l2.727-0.071l-0.146-5.597l1.688-0.044L295.476,169.759z"/>
				<path d="M295.231,160.404l-10.018,0.263l-0.051-1.968l6.582-4.275l-6.689,0.176l-0.05-1.88l10.018-0.263l0.054,2.029
					l-6.428,4.21l6.533-0.171L295.231,160.404z"/>
			</g>
		</g>
	</g>
	<g>
		<rect x="168.964" y="155.879" style="fill:#F1F2F2;" width="15.903" height="68.257"/>
		<g>
			<g>
				<path d="M183.365,219.102l-10.017,0.297l-0.097-3.246c-0.036-1.229-0.011-2.032,0.079-2.409
					c0.134-0.578,0.445-1.068,0.937-1.471c0.492-0.402,1.138-0.615,1.935-0.639c0.615-0.019,1.136,0.077,1.562,0.289
					c0.425,0.211,0.762,0.484,1.013,0.821c0.248,0.337,0.418,0.682,0.505,1.034c0.11,0.48,0.179,1.179,0.206,2.094l0.039,1.319
					l3.778-0.112L183.365,219.102z M174.982,217.327l2.843-0.084l-0.032-1.107c-0.024-0.797-0.093-1.329-0.205-1.595
					s-0.282-0.472-0.511-0.617c-0.229-0.146-0.49-0.215-0.786-0.206c-0.364,0.011-0.661,0.127-0.892,0.348
					c-0.231,0.221-0.371,0.497-0.421,0.827c-0.038,0.242-0.047,0.729-0.024,1.457L174.982,217.327z"/>
				<path d="M173.071,210.079l-0.06-2.022l5.425-0.16c0.861-0.026,1.419-0.068,1.672-0.125c0.407-0.1,0.73-0.315,0.969-0.648
					c0.239-0.333,0.351-0.781,0.333-1.347c-0.017-0.574-0.146-1.003-0.39-1.288c-0.244-0.284-0.537-0.45-0.881-0.5
					c-0.343-0.049-0.911-0.062-1.704-0.038l-5.541,0.164l-0.06-2.022l5.261-0.155c1.203-0.036,2.053-0.007,2.554,0.088
					c0.5,0.095,0.925,0.282,1.275,0.567c0.35,0.282,0.634,0.668,0.852,1.154c0.217,0.486,0.337,1.125,0.36,1.918
					c0.029,0.957-0.06,1.685-0.266,2.186c-0.207,0.502-0.482,0.9-0.826,1.197c-0.345,0.298-0.709,0.498-1.095,0.601
					c-0.57,0.148-1.414,0.24-2.535,0.273L173.071,210.079z"/>
				<path d="M182.786,199.608l-9.935,0.295l-0.06-2.022l8.247-0.245l-0.149-5.029l1.688-0.05L182.786,199.608z"/>
				<path d="M182.266,182.082l0.064,2.2l-2.249,0.941l0.119,4.004l2.3,0.76l0.063,2.146l-10.133-3.604l-0.063-2.139L182.266,182.082
					z M178.414,185.922l-3.676,1.49l3.757,1.243L178.414,185.922z"/>
				<path d="M178.991,181.618l-0.25-1.962c0.656-0.138,1.135-0.394,1.434-0.764c0.299-0.373,0.439-0.866,0.421-1.479
					c-0.02-0.652-0.171-1.139-0.458-1.461c-0.285-0.323-0.612-0.478-0.981-0.467c-0.236,0.008-0.435,0.083-0.598,0.227
					c-0.162,0.144-0.3,0.39-0.412,0.74c-0.075,0.24-0.205,0.784-0.39,1.632c-0.236,1.093-0.545,1.864-0.923,2.312
					c-0.533,0.632-1.196,0.96-1.989,0.983c-0.51,0.015-0.991-0.115-1.443-0.393c-0.453-0.275-0.804-0.683-1.052-1.219
					c-0.248-0.538-0.384-1.191-0.407-1.961c-0.037-1.258,0.21-2.213,0.742-2.864c0.533-0.652,1.259-1.008,2.178-1.067l0.148,2.021
					c-0.511,0.102-0.876,0.299-1.094,0.589c-0.216,0.292-0.316,0.724-0.3,1.293c0.018,0.587,0.152,1.043,0.403,1.369
					c0.161,0.209,0.372,0.311,0.632,0.303c0.236-0.007,0.436-0.114,0.599-0.319c0.206-0.261,0.411-0.888,0.614-1.878
					c0.203-0.991,0.422-1.726,0.657-2.204c0.233-0.479,0.562-0.859,0.983-1.138c0.424-0.28,0.951-0.429,1.584-0.447
					c0.574-0.018,1.117,0.126,1.627,0.431c0.51,0.304,0.896,0.744,1.158,1.32c0.26,0.574,0.403,1.299,0.43,2.169
					c0.037,1.266-0.227,2.247-0.792,2.942C180.948,181.021,180.106,181.453,178.991,181.618z"/>
				<path d="M181.956,171.647l-10.017,0.297l-0.06-2.022l4.448-0.132l-4.569-3.954l-0.081-2.72l4.014,3.657l5.997-4.159l0.077,2.617
					l-4.619,2.894l1.724,1.59l3.026-0.09L181.956,171.647z"/>
				<path d="M181.659,161.63l-10.017,0.297l-0.061-2.022l10.017-0.297L181.659,161.63z"/>
			</g>
		</g>
	</g>
	<g>
		<polygon points="254.576,98.305 233.487,98.305 257.987,136.826 221.654,98.305 86.487,98.305 86.487,12.73 225.549,12.73 
			239.342,12.73 254.576,12.73 		"/>
		<g>
			<rect x="96.382" y="21.926" style="fill:none;" width="155.167" height="88.77"/>
			<path style="fill:#FFFFFF;" d="M102.679,33.382h-2.195v-8.273c-0.802,0.75-1.747,1.305-2.836,1.664v-1.992
				c0.573-0.188,1.195-0.543,1.867-1.066s1.133-1.134,1.383-1.832h1.781V33.382z"/>
			<path style="fill:#FFFFFF;" d="M110.695,33.382H108.5v-8.273c-0.802,0.75-1.747,1.305-2.836,1.664v-1.992
				c0.573-0.188,1.195-0.543,1.867-1.066s1.133-1.134,1.383-1.832h1.781V33.382z"/>
			<path style="fill:#FFFFFF;" d="M121.414,24.734l-2.125,0.234c-0.052-0.438-0.188-0.761-0.406-0.969s-0.503-0.312-0.852-0.312
				c-0.464,0-0.855,0.208-1.176,0.625s-0.522,1.284-0.605,2.602c0.547-0.646,1.227-0.969,2.039-0.969
				c0.917,0,1.702,0.349,2.355,1.047s0.98,1.599,0.98,2.703c0,1.172-0.344,2.112-1.031,2.82c-0.688,0.708-1.57,1.062-2.648,1.062
				c-1.156,0-2.106-0.449-2.852-1.348c-0.745-0.898-1.117-2.371-1.117-4.418c0-2.099,0.388-3.612,1.164-4.539
				s1.784-1.391,3.023-1.391c0.87,0,1.59,0.243,2.16,0.73S121.257,23.807,121.414,24.734z M116.437,29.523
				c0,0.714,0.164,1.265,0.492,1.652s0.703,0.582,1.125,0.582c0.406,0,0.745-0.159,1.016-0.477s0.406-0.839,0.406-1.562
				c0-0.745-0.146-1.29-0.438-1.637s-0.656-0.52-1.094-0.52c-0.422,0-0.778,0.165-1.07,0.496S116.437,28.877,116.437,29.523z"/>
			<path style="fill:#FFFFFF;" d="M127.015,31.015l2.203-0.336c0.094,0.427,0.284,0.751,0.57,0.973s0.688,0.332,1.203,0.332
				c0.567,0,0.995-0.104,1.281-0.312c0.192-0.146,0.289-0.341,0.289-0.586c0-0.167-0.052-0.305-0.156-0.414
				c-0.109-0.104-0.354-0.2-0.734-0.289c-1.771-0.391-2.894-0.747-3.367-1.07c-0.656-0.448-0.984-1.07-0.984-1.867
				c0-0.719,0.284-1.323,0.852-1.812s1.448-0.734,2.641-0.734c1.136,0,1.979,0.185,2.531,0.555s0.933,0.917,1.141,1.641l-2.07,0.383
				c-0.089-0.323-0.257-0.57-0.504-0.742s-0.601-0.258-1.059-0.258c-0.578,0-0.992,0.081-1.242,0.242
				c-0.167,0.114-0.25,0.263-0.25,0.445c0,0.156,0.073,0.289,0.219,0.398c0.198,0.146,0.882,0.352,2.051,0.617
				s1.985,0.591,2.449,0.977c0.458,0.391,0.688,0.935,0.688,1.633c0,0.761-0.317,1.414-0.953,1.961s-1.575,0.82-2.82,0.82
				c-1.13,0-2.024-0.229-2.684-0.688S127.218,31.801,127.015,31.015z"/>
			<path style="fill:#FFFFFF;" d="M140.492,25.085v1.75h-1.5v3.344c0,0.677,0.015,1.071,0.043,1.184s0.094,0.204,0.195,0.277
				s0.226,0.109,0.371,0.109c0.203,0,0.497-0.07,0.883-0.211l0.188,1.703c-0.511,0.219-1.089,0.328-1.734,0.328
				c-0.396,0-0.753-0.066-1.07-0.199s-0.551-0.305-0.699-0.516s-0.251-0.496-0.309-0.855c-0.047-0.255-0.07-0.771-0.07-1.547v-3.617
				h-1.008v-1.75h1.008v-1.648l2.203-1.281v2.93H140.492z"/>
			<path style="fill:#FFFFFF;" d="M141.507,29.117c0-0.729,0.18-1.435,0.539-2.117s0.868-1.203,1.527-1.562s1.395-0.539,2.207-0.539
				c1.255,0,2.284,0.407,3.086,1.223s1.203,1.845,1.203,3.09c0,1.255-0.405,2.296-1.215,3.121c-0.81,0.825-1.829,1.238-3.059,1.238
				c-0.761,0-1.485-0.172-2.176-0.516s-1.215-0.848-1.574-1.512C141.687,30.878,141.507,30.07,141.507,29.117z M143.757,29.234
				c0,0.823,0.195,1.453,0.586,1.891s0.872,0.656,1.445,0.656s1.054-0.219,1.441-0.656s0.582-1.073,0.582-1.906
				c0-0.812-0.194-1.438-0.582-1.875s-0.868-0.656-1.441-0.656s-1.055,0.219-1.445,0.656S143.757,28.411,143.757,29.234z"/>
			<path style="fill:#FFFFFF;" d="M153.89,33.382h-2.195v-8.297h2.039v1.18c0.349-0.558,0.663-0.925,0.941-1.102
				s0.595-0.266,0.949-0.266c0.5,0,0.981,0.138,1.445,0.414l-0.68,1.914c-0.37-0.239-0.714-0.359-1.031-0.359
				c-0.308,0-0.567,0.085-0.781,0.254s-0.382,0.476-0.504,0.918s-0.184,1.37-0.184,2.781V33.382z"/>
			<path style="fill:#FFFFFF;" d="M162.82,30.742l2.188,0.367c-0.281,0.802-0.726,1.413-1.332,1.832s-1.366,0.629-2.277,0.629
				c-1.442,0-2.511-0.472-3.203-1.414c-0.547-0.755-0.82-1.708-0.82-2.859c0-1.375,0.359-2.452,1.078-3.23s1.628-1.168,2.727-1.168
				c1.234,0,2.208,0.407,2.922,1.223s1.055,2.063,1.023,3.746h-5.5c0.016,0.651,0.192,1.157,0.531,1.52s0.761,0.543,1.266,0.543
				c0.344,0,0.633-0.094,0.867-0.281S162.7,31.159,162.82,30.742z M162.945,28.523c-0.016-0.636-0.18-1.118-0.492-1.449
				s-0.692-0.496-1.141-0.496c-0.479,0-0.875,0.175-1.188,0.523s-0.466,0.823-0.461,1.422H162.945z"/>
			<path style="fill:#FFFFFF;" d="M166.14,31.015l2.203-0.336c0.094,0.427,0.284,0.751,0.57,0.973s0.688,0.332,1.203,0.332
				c0.567,0,0.995-0.104,1.281-0.312c0.192-0.146,0.289-0.341,0.289-0.586c0-0.167-0.052-0.305-0.156-0.414
				c-0.109-0.104-0.354-0.2-0.734-0.289c-1.771-0.391-2.894-0.747-3.367-1.07c-0.656-0.448-0.984-1.07-0.984-1.867
				c0-0.719,0.284-1.323,0.852-1.812s1.448-0.734,2.641-0.734c1.136,0,1.979,0.185,2.531,0.555s0.933,0.917,1.141,1.641l-2.07,0.383
				c-0.089-0.323-0.257-0.57-0.504-0.742s-0.601-0.258-1.059-0.258c-0.578,0-0.992,0.081-1.242,0.242
				c-0.167,0.114-0.25,0.263-0.25,0.445c0,0.156,0.073,0.289,0.219,0.398c0.198,0.146,0.882,0.352,2.051,0.617
				s1.985,0.591,2.449,0.977c0.458,0.391,0.688,0.935,0.688,1.633c0,0.761-0.317,1.414-0.953,1.961s-1.575,0.82-2.82,0.82
				c-1.13,0-2.024-0.229-2.684-0.688S166.343,31.801,166.14,31.015z"/>
			<path style="fill:#FFFFFF;" d="M181.898,27.617l-1.992-0.359c0.224-0.802,0.609-1.396,1.156-1.781s1.359-0.578,2.438-0.578
				c0.979,0,1.708,0.116,2.188,0.348s0.816,0.526,1.012,0.883s0.293,1.012,0.293,1.965l-0.023,2.562
				c0,0.729,0.035,1.267,0.105,1.613c0.07,0.347,0.202,0.718,0.395,1.113h-2.172c-0.058-0.146-0.128-0.362-0.211-0.648
				c-0.036-0.13-0.062-0.216-0.078-0.258c-0.375,0.364-0.776,0.638-1.203,0.82s-0.883,0.273-1.367,0.273
				c-0.854,0-1.527-0.231-2.02-0.695s-0.738-1.05-0.738-1.758c0-0.469,0.112-0.887,0.336-1.254s0.538-0.648,0.941-0.844
				s0.985-0.366,1.746-0.512c1.026-0.192,1.737-0.372,2.133-0.539V27.75c0-0.422-0.104-0.723-0.312-0.902s-0.602-0.27-1.18-0.27
				c-0.391,0-0.695,0.077-0.914,0.23S182.034,27.231,181.898,27.617z M184.836,29.398c-0.281,0.094-0.727,0.206-1.336,0.336
				s-1.008,0.258-1.195,0.383c-0.286,0.203-0.43,0.461-0.43,0.773c0,0.308,0.114,0.573,0.344,0.797s0.521,0.336,0.875,0.336
				c0.396,0,0.773-0.13,1.133-0.391c0.266-0.198,0.44-0.44,0.523-0.727c0.058-0.188,0.086-0.544,0.086-1.07V29.398z"/>
			<path style="fill:#FFFFFF;" d="M196.703,33.382h-2.195v-4.234c0-0.896-0.047-1.476-0.141-1.738s-0.246-0.468-0.457-0.613
				s-0.465-0.219-0.762-0.219c-0.38,0-0.722,0.104-1.023,0.312s-0.509,0.484-0.621,0.828s-0.168,0.979-0.168,1.906v3.758h-2.195
				v-8.297h2.039v1.219c0.724-0.938,1.636-1.406,2.734-1.406c0.484,0,0.927,0.087,1.328,0.262s0.704,0.397,0.91,0.668
				s0.349,0.578,0.43,0.922s0.121,0.836,0.121,1.477V33.382z"/>
			<path style="fill:#FFFFFF;" d="M206.539,33.382H204.5v-1.219c-0.339,0.474-0.738,0.827-1.199,1.059s-0.926,0.348-1.395,0.348
				c-0.953,0-1.77-0.384-2.449-1.152c-0.68-0.769-1.02-1.84-1.02-3.215c0-1.406,0.331-2.476,0.992-3.207s1.497-1.098,2.508-1.098
				c0.927,0,1.729,0.386,2.406,1.156v-4.125h2.195V33.382z M200.679,29.054c0,0.886,0.122,1.526,0.367,1.922
				c0.354,0.573,0.849,0.859,1.484,0.859c0.505,0,0.935-0.215,1.289-0.645s0.531-1.071,0.531-1.926c0-0.953-0.172-1.64-0.516-2.059
				s-0.784-0.629-1.32-0.629c-0.521,0-0.957,0.207-1.309,0.621S200.679,28.231,200.679,29.054z"/>
			<path style="fill:#FFFFFF;" d="M97.437,51.382V39.929h2.195v4.125c0.677-0.771,1.479-1.156,2.406-1.156
				c1.011,0,1.847,0.366,2.508,1.098s0.992,1.782,0.992,3.152c0,1.417-0.337,2.508-1.012,3.273s-1.493,1.148-2.457,1.148
				c-0.474,0-0.941-0.118-1.402-0.355s-0.858-0.587-1.191-1.051v1.219H97.437z M99.617,47.054c0,0.859,0.136,1.495,0.406,1.906
				c0.38,0.583,0.886,0.875,1.516,0.875c0.484,0,0.897-0.207,1.238-0.621s0.512-1.066,0.512-1.957c0-0.948-0.172-1.632-0.516-2.051
				s-0.784-0.629-1.32-0.629c-0.526,0-0.964,0.204-1.312,0.613S99.617,46.221,99.617,47.054z"/>
			<path style="fill:#FFFFFF;" d="M112.765,51.382V50.14c-0.302,0.442-0.699,0.792-1.191,1.047s-1.012,0.383-1.559,0.383
				c-0.558,0-1.058-0.122-1.5-0.367s-0.763-0.589-0.961-1.031s-0.297-1.055-0.297-1.836v-5.25h2.195v3.812
				c0,1.167,0.04,1.882,0.121,2.145s0.228,0.472,0.441,0.625s0.484,0.23,0.812,0.23c0.375,0,0.711-0.103,1.008-0.309
				s0.5-0.461,0.609-0.766s0.164-1.051,0.164-2.238v-3.5h2.195v8.297H112.765z"/>
			<path style="fill:#FFFFFF;" d="M116.304,49.015l2.203-0.336c0.094,0.427,0.284,0.751,0.57,0.973s0.688,0.332,1.203,0.332
				c0.567,0,0.995-0.104,1.281-0.312c0.192-0.146,0.289-0.341,0.289-0.586c0-0.167-0.052-0.305-0.156-0.414
				c-0.109-0.104-0.354-0.2-0.734-0.289c-1.771-0.391-2.894-0.747-3.367-1.07c-0.656-0.448-0.984-1.07-0.984-1.867
				c0-0.719,0.284-1.323,0.852-1.812s1.448-0.734,2.641-0.734c1.136,0,1.979,0.185,2.531,0.555s0.933,0.917,1.141,1.641l-2.07,0.383
				c-0.089-0.323-0.257-0.57-0.504-0.742s-0.601-0.258-1.059-0.258c-0.578,0-0.992,0.081-1.242,0.242
				c-0.167,0.114-0.25,0.263-0.25,0.445c0,0.156,0.073,0.289,0.219,0.398c0.198,0.146,0.882,0.352,2.051,0.617
				s1.985,0.591,2.449,0.977c0.458,0.391,0.688,0.935,0.688,1.633c0,0.761-0.317,1.414-0.953,1.961s-1.575,0.82-2.82,0.82
				c-1.13,0-2.024-0.229-2.684-0.688S116.507,49.801,116.304,49.015z"/>
			<path style="fill:#FFFFFF;" d="M125.976,41.96v-2.031h2.195v2.031H125.976z M125.976,51.382v-8.297h2.195v8.297H125.976z"/>
			<path style="fill:#FFFFFF;" d="M137.968,51.382h-2.195v-4.234c0-0.896-0.047-1.476-0.141-1.738s-0.246-0.468-0.457-0.613
				s-0.465-0.219-0.762-0.219c-0.38,0-0.722,0.104-1.023,0.312s-0.509,0.484-0.621,0.828s-0.168,0.979-0.168,1.906v3.758h-2.195
				v-8.297h2.039v1.219c0.724-0.938,1.636-1.406,2.734-1.406c0.484,0,0.927,0.087,1.328,0.262s0.704,0.397,0.91,0.668
				s0.349,0.578,0.43,0.922s0.121,0.836,0.121,1.477V51.382z"/>
			<path style="fill:#FFFFFF;" d="M145,48.742l2.188,0.367c-0.281,0.802-0.726,1.413-1.332,1.832s-1.366,0.629-2.277,0.629
				c-1.442,0-2.511-0.472-3.203-1.414c-0.547-0.755-0.82-1.708-0.82-2.859c0-1.375,0.359-2.452,1.078-3.23s1.628-1.168,2.727-1.168
				c1.234,0,2.208,0.407,2.922,1.223s1.055,2.063,1.023,3.746h-5.5c0.016,0.651,0.192,1.157,0.531,1.52s0.761,0.543,1.266,0.543
				c0.344,0,0.633-0.094,0.867-0.281S144.879,49.159,145,48.742z M145.125,46.523c-0.016-0.636-0.18-1.118-0.492-1.449
				s-0.692-0.496-1.141-0.496c-0.479,0-0.875,0.175-1.188,0.523s-0.466,0.823-0.461,1.422H145.125z"/>
			<path style="fill:#FFFFFF;" d="M148.32,49.015l2.203-0.336c0.094,0.427,0.284,0.751,0.57,0.973s0.688,0.332,1.203,0.332
				c0.567,0,0.995-0.104,1.281-0.312c0.192-0.146,0.289-0.341,0.289-0.586c0-0.167-0.052-0.305-0.156-0.414
				c-0.109-0.104-0.354-0.2-0.734-0.289c-1.771-0.391-2.894-0.747-3.367-1.07c-0.656-0.448-0.984-1.07-0.984-1.867
				c0-0.719,0.284-1.323,0.852-1.812s1.448-0.734,2.641-0.734c1.136,0,1.979,0.185,2.531,0.555s0.933,0.917,1.141,1.641l-2.07,0.383
				c-0.089-0.323-0.257-0.57-0.504-0.742s-0.601-0.258-1.059-0.258c-0.578,0-0.992,0.081-1.242,0.242
				c-0.167,0.114-0.25,0.263-0.25,0.445c0,0.156,0.073,0.289,0.219,0.398c0.198,0.146,0.882,0.352,2.051,0.617
				s1.985,0.591,2.449,0.977c0.458,0.391,0.688,0.935,0.688,1.633c0,0.761-0.317,1.414-0.953,1.961s-1.575,0.82-2.82,0.82
				c-1.13,0-2.024-0.229-2.684-0.688S148.523,49.801,148.32,49.015z"/>
			<path style="fill:#FFFFFF;" d="M157.218,49.015l2.203-0.336c0.094,0.427,0.284,0.751,0.57,0.973s0.688,0.332,1.203,0.332
				c0.567,0,0.995-0.104,1.281-0.312c0.192-0.146,0.289-0.341,0.289-0.586c0-0.167-0.052-0.305-0.156-0.414
				c-0.109-0.104-0.354-0.2-0.734-0.289c-1.771-0.391-2.894-0.747-3.367-1.07c-0.656-0.448-0.984-1.07-0.984-1.867
				c0-0.719,0.284-1.323,0.852-1.812s1.448-0.734,2.641-0.734c1.136,0,1.979,0.185,2.531,0.555s0.933,0.917,1.141,1.641l-2.07,0.383
				c-0.089-0.323-0.257-0.57-0.504-0.742s-0.601-0.258-1.059-0.258c-0.578,0-0.992,0.081-1.242,0.242
				c-0.167,0.114-0.25,0.263-0.25,0.445c0,0.156,0.073,0.289,0.219,0.398c0.198,0.146,0.882,0.352,2.051,0.617
				s1.985,0.591,2.449,0.977c0.458,0.391,0.688,0.935,0.688,1.633c0,0.761-0.317,1.414-0.953,1.961s-1.575,0.82-2.82,0.82
				c-1.13,0-2.024-0.229-2.684-0.688S157.421,49.801,157.218,49.015z"/>
			<path style="fill:#FFFFFF;" d="M171.695,48.742l2.188,0.367c-0.281,0.802-0.726,1.413-1.332,1.832s-1.366,0.629-2.277,0.629
				c-1.442,0-2.511-0.472-3.203-1.414c-0.547-0.755-0.82-1.708-0.82-2.859c0-1.375,0.359-2.452,1.078-3.23s1.628-1.168,2.727-1.168
				c1.234,0,2.208,0.407,2.922,1.223s1.055,2.063,1.023,3.746h-5.5c0.016,0.651,0.192,1.157,0.531,1.52s0.761,0.543,1.266,0.543
				c0.344,0,0.633-0.094,0.867-0.281S171.575,49.159,171.695,48.742z M171.82,46.523c-0.016-0.636-0.18-1.118-0.492-1.449
				s-0.692-0.496-1.141-0.496c-0.479,0-0.875,0.175-1.188,0.523s-0.466,0.823-0.461,1.422H171.82z"/>
			<path style="fill:#FFFFFF;" d="M175.015,49.015l2.203-0.336c0.094,0.427,0.284,0.751,0.57,0.973s0.688,0.332,1.203,0.332
				c0.567,0,0.995-0.104,1.281-0.312c0.192-0.146,0.289-0.341,0.289-0.586c0-0.167-0.052-0.305-0.156-0.414
				c-0.109-0.104-0.354-0.2-0.734-0.289c-1.771-0.391-2.894-0.747-3.367-1.07c-0.656-0.448-0.984-1.07-0.984-1.867
				c0-0.719,0.284-1.323,0.852-1.812s1.448-0.734,2.641-0.734c1.136,0,1.979,0.185,2.531,0.555s0.933,0.917,1.141,1.641l-2.07,0.383
				c-0.089-0.323-0.257-0.57-0.504-0.742s-0.601-0.258-1.059-0.258c-0.578,0-0.992,0.081-1.242,0.242
				c-0.167,0.114-0.25,0.263-0.25,0.445c0,0.156,0.073,0.289,0.219,0.398c0.198,0.146,0.882,0.352,2.051,0.617
				s1.985,0.591,2.449,0.977c0.458,0.391,0.688,0.935,0.688,1.633c0,0.761-0.317,1.414-0.953,1.961s-1.575,0.82-2.82,0.82
				c-1.13,0-2.024-0.229-2.684-0.688S175.218,49.801,175.015,49.015z"/>
			<path style="fill:#FFFFFF;" d="M105.14,69.382h-2.039v-1.219c-0.339,0.474-0.738,0.827-1.199,1.059s-0.926,0.348-1.395,0.348
				c-0.953,0-1.77-0.384-2.449-1.152s-1.02-1.84-1.02-3.215c0-1.406,0.331-2.476,0.992-3.207s1.497-1.098,2.508-1.098
				c0.927,0,1.729,0.386,2.406,1.156v-4.125h2.195V69.382z M99.281,65.054c0,0.886,0.122,1.526,0.367,1.922
				c0.354,0.573,0.849,0.859,1.484,0.859c0.505,0,0.935-0.215,1.289-0.645s0.531-1.071,0.531-1.926c0-0.953-0.172-1.64-0.516-2.059
				s-0.784-0.629-1.32-0.629c-0.521,0-0.957,0.207-1.309,0.621S99.281,64.231,99.281,65.054z"/>
			<path style="fill:#FFFFFF;" d="M112.109,66.742l2.188,0.367c-0.281,0.802-0.726,1.413-1.332,1.832s-1.366,0.629-2.277,0.629
				c-1.442,0-2.511-0.472-3.203-1.414c-0.547-0.755-0.82-1.708-0.82-2.859c0-1.375,0.359-2.452,1.078-3.23s1.628-1.168,2.727-1.168
				c1.234,0,2.208,0.407,2.922,1.223s1.055,2.063,1.023,3.746h-5.5c0.016,0.651,0.192,1.157,0.531,1.52s0.761,0.543,1.266,0.543
				c0.344,0,0.633-0.094,0.867-0.281S111.989,67.159,112.109,66.742z M112.234,64.523c-0.016-0.636-0.18-1.118-0.492-1.449
				s-0.692-0.496-1.141-0.496c-0.479,0-0.875,0.175-1.188,0.523s-0.466,0.823-0.461,1.422H112.234z"/>
			<path style="fill:#FFFFFF;" d="M115.429,67.015l2.203-0.336c0.094,0.427,0.284,0.751,0.57,0.973s0.688,0.332,1.203,0.332
				c0.567,0,0.995-0.104,1.281-0.312c0.192-0.146,0.289-0.341,0.289-0.586c0-0.167-0.052-0.305-0.156-0.414
				c-0.109-0.104-0.354-0.2-0.734-0.289c-1.771-0.391-2.894-0.747-3.367-1.07c-0.656-0.448-0.984-1.07-0.984-1.867
				c0-0.719,0.284-1.323,0.852-1.812s1.448-0.734,2.641-0.734c1.136,0,1.979,0.185,2.531,0.555s0.933,0.917,1.141,1.641l-2.07,0.383
				c-0.089-0.323-0.257-0.57-0.504-0.742s-0.601-0.258-1.059-0.258c-0.578,0-0.992,0.081-1.242,0.242
				c-0.167,0.114-0.25,0.263-0.25,0.445c0,0.156,0.073,0.289,0.219,0.398c0.198,0.146,0.882,0.352,2.051,0.617
				s1.985,0.591,2.449,0.977c0.458,0.391,0.688,0.935,0.688,1.633c0,0.761-0.317,1.414-0.953,1.961s-1.575,0.82-2.82,0.82
				c-1.13,0-2.024-0.229-2.684-0.688S115.632,67.801,115.429,67.015z"/>
			<path style="fill:#FFFFFF;" d="M128.906,61.085v1.75h-1.5v3.344c0,0.677,0.015,1.071,0.043,1.184s0.094,0.204,0.195,0.277
				s0.226,0.109,0.371,0.109c0.203,0,0.497-0.07,0.883-0.211l0.188,1.703c-0.511,0.219-1.089,0.328-1.734,0.328
				c-0.396,0-0.753-0.066-1.07-0.199s-0.551-0.305-0.699-0.516s-0.251-0.496-0.309-0.855c-0.047-0.255-0.07-0.771-0.07-1.547v-3.617
				h-1.008v-1.75h1.008v-1.648l2.203-1.281v2.93H128.906z"/>
			<path style="fill:#FFFFFF;" d="M132.531,69.382h-2.195v-8.297h2.039v1.18c0.349-0.558,0.663-0.925,0.941-1.102
				s0.595-0.266,0.949-0.266c0.5,0,0.981,0.138,1.445,0.414l-0.68,1.914c-0.37-0.239-0.714-0.359-1.031-0.359
				c-0.308,0-0.567,0.085-0.781,0.254s-0.382,0.476-0.504,0.918s-0.184,1.37-0.184,2.781V69.382z"/>
			<path style="fill:#FFFFFF;" d="M136.148,65.117c0-0.729,0.18-1.435,0.539-2.117s0.868-1.203,1.527-1.562s1.395-0.539,2.207-0.539
				c1.255,0,2.284,0.407,3.086,1.223s1.203,1.845,1.203,3.09c0,1.255-0.405,2.296-1.215,3.121s-1.829,1.238-3.059,1.238
				c-0.761,0-1.485-0.172-2.176-0.516s-1.215-0.848-1.574-1.512S136.148,66.07,136.148,65.117z M138.398,65.234
				c0,0.823,0.195,1.453,0.586,1.891s0.872,0.656,1.445,0.656s1.054-0.219,1.441-0.656s0.582-1.073,0.582-1.906
				c0-0.812-0.194-1.438-0.582-1.875s-0.868-0.656-1.441-0.656s-1.055,0.219-1.445,0.656S138.398,64.411,138.398,65.234z"/>
			<path style="fill:#FFFFFF;" d="M145.39,61.085h2.336l1.984,5.891l1.938-5.891h2.273l-2.93,7.984l-0.523,1.445
				c-0.192,0.484-0.376,0.854-0.551,1.109s-0.375,0.462-0.602,0.621s-0.505,0.282-0.836,0.371s-0.704,0.133-1.121,0.133
				c-0.422,0-0.836-0.044-1.242-0.133l-0.195-1.719c0.344,0.067,0.653,0.102,0.93,0.102c0.511,0,0.888-0.149,1.133-0.449
				s0.433-0.681,0.562-1.145L145.39,61.085z"/>
			<path style="fill:#FFFFFF;" d="M160.132,66.742l2.188,0.367c-0.281,0.802-0.726,1.413-1.332,1.832s-1.366,0.629-2.277,0.629
				c-1.442,0-2.511-0.472-3.203-1.414c-0.547-0.755-0.82-1.708-0.82-2.859c0-1.375,0.359-2.452,1.078-3.23s1.628-1.168,2.727-1.168
				c1.234,0,2.208,0.407,2.922,1.223s1.055,2.063,1.023,3.746h-5.5c0.016,0.651,0.192,1.157,0.531,1.52s0.761,0.543,1.266,0.543
				c0.344,0,0.633-0.094,0.867-0.281S160.012,67.159,160.132,66.742z M160.257,64.523c-0.016-0.636-0.18-1.118-0.492-1.449
				s-0.692-0.496-1.141-0.496c-0.479,0-0.875,0.175-1.188,0.523s-0.466,0.823-0.461,1.422H160.257z"/>
			<path style="fill:#FFFFFF;" d="M171.836,69.382h-2.039v-1.219c-0.339,0.474-0.738,0.827-1.199,1.059s-0.926,0.348-1.395,0.348
				c-0.953,0-1.77-0.384-2.449-1.152s-1.02-1.84-1.02-3.215c0-1.406,0.331-2.476,0.992-3.207s1.497-1.098,2.508-1.098
				c0.927,0,1.729,0.386,2.406,1.156v-4.125h2.195V69.382z M165.976,65.054c0,0.886,0.122,1.526,0.367,1.922
				c0.354,0.573,0.849,0.859,1.484,0.859c0.505,0,0.935-0.215,1.289-0.645s0.531-1.071,0.531-1.926c0-0.953-0.172-1.64-0.516-2.059
				s-0.784-0.629-1.32-0.629c-0.521,0-0.957,0.207-1.309,0.621S165.976,64.231,165.976,65.054z"/>
			<path style="fill:#FFFFFF;" d="M178.351,69.382V57.929h2.195v4.125c0.677-0.771,1.479-1.156,2.406-1.156
				c1.011,0,1.847,0.366,2.508,1.098s0.992,1.782,0.992,3.152c0,1.417-0.337,2.508-1.012,3.273s-1.493,1.148-2.457,1.148
				c-0.474,0-0.941-0.118-1.402-0.355s-0.858-0.587-1.191-1.051v1.219H178.351z M180.531,65.054c0,0.859,0.136,1.495,0.406,1.906
				c0.38,0.583,0.886,0.875,1.516,0.875c0.484,0,0.897-0.207,1.238-0.621s0.512-1.066,0.512-1.957c0-0.948-0.172-1.632-0.516-2.051
				s-0.784-0.629-1.32-0.629c-0.526,0-0.964,0.204-1.312,0.613S180.531,64.221,180.531,65.054z"/>
			<path style="fill:#FFFFFF;" d="M193.023,66.742l2.188,0.367c-0.281,0.802-0.726,1.413-1.332,1.832s-1.366,0.629-2.277,0.629
				c-1.442,0-2.511-0.472-3.203-1.414c-0.547-0.755-0.82-1.708-0.82-2.859c0-1.375,0.359-2.452,1.078-3.23s1.628-1.168,2.727-1.168
				c1.234,0,2.208,0.407,2.922,1.223s1.055,2.063,1.023,3.746h-5.5c0.016,0.651,0.192,1.157,0.531,1.52s0.761,0.543,1.266,0.543
				c0.344,0,0.633-0.094,0.867-0.281S192.903,67.159,193.023,66.742z M193.148,64.523c-0.016-0.636-0.18-1.118-0.492-1.449
				s-0.692-0.496-1.141-0.496c-0.479,0-0.875,0.175-1.188,0.523s-0.466,0.823-0.461,1.422H193.148z"/>
			<path style="fill:#FFFFFF;" d="M200.921,61.085v1.75h-1.5v3.344c0,0.677,0.015,1.071,0.043,1.184s0.094,0.204,0.195,0.277
				s0.226,0.109,0.371,0.109c0.203,0,0.497-0.07,0.883-0.211l0.188,1.703c-0.511,0.219-1.089,0.328-1.734,0.328
				c-0.396,0-0.753-0.066-1.07-0.199s-0.551-0.305-0.699-0.516s-0.251-0.496-0.309-0.855c-0.047-0.255-0.07-0.771-0.07-1.547v-3.617
				h-1.008v-1.75h1.008v-1.648l2.203-1.281v2.93H200.921z"/>
			<path style="fill:#FFFFFF;" d="M203.992,69.382l-2.625-8.297h2.133l1.555,5.438l1.43-5.438h2.117l1.383,5.438l1.586-5.438h2.164
				l-2.664,8.297h-2.109l-1.43-5.336l-1.406,5.336H203.992z"/>
			<path style="fill:#FFFFFF;" d="M219.695,66.742l2.188,0.367c-0.281,0.802-0.726,1.413-1.332,1.832s-1.366,0.629-2.277,0.629
				c-1.442,0-2.511-0.472-3.203-1.414c-0.547-0.755-0.82-1.708-0.82-2.859c0-1.375,0.359-2.452,1.078-3.23s1.628-1.168,2.727-1.168
				c1.234,0,2.208,0.407,2.922,1.223s1.055,2.063,1.023,3.746h-5.5c0.016,0.651,0.192,1.157,0.531,1.52s0.761,0.543,1.266,0.543
				c0.344,0,0.633-0.094,0.867-0.281S219.575,67.159,219.695,66.742z M219.82,64.523c-0.016-0.636-0.18-1.118-0.492-1.449
				s-0.692-0.496-1.141-0.496c-0.479,0-0.875,0.175-1.188,0.523s-0.466,0.823-0.461,1.422H219.82z"/>
			<path style="fill:#FFFFFF;" d="M228.593,66.742l2.188,0.367c-0.281,0.802-0.726,1.413-1.332,1.832s-1.366,0.629-2.277,0.629
				c-1.442,0-2.511-0.472-3.203-1.414c-0.547-0.755-0.82-1.708-0.82-2.859c0-1.375,0.359-2.452,1.078-3.23s1.628-1.168,2.727-1.168
				c1.234,0,2.208,0.407,2.922,1.223s1.055,2.063,1.023,3.746h-5.5c0.016,0.651,0.192,1.157,0.531,1.52s0.761,0.543,1.266,0.543
				c0.344,0,0.633-0.094,0.867-0.281S228.473,67.159,228.593,66.742z M228.718,64.523c-0.016-0.636-0.18-1.118-0.492-1.449
				s-0.692-0.496-1.141-0.496c-0.479,0-0.875,0.175-1.188,0.523s-0.466,0.823-0.461,1.422H228.718z"/>
			<path style="fill:#FFFFFF;" d="M240.234,69.382h-2.195v-4.234c0-0.896-0.047-1.476-0.141-1.738s-0.246-0.468-0.457-0.613
				s-0.465-0.219-0.762-0.219c-0.38,0-0.722,0.104-1.023,0.312s-0.509,0.484-0.621,0.828s-0.168,0.979-0.168,1.906v3.758h-2.195
				v-8.297h2.039v1.219c0.724-0.938,1.636-1.406,2.734-1.406c0.484,0,0.927,0.087,1.328,0.262s0.704,0.397,0.91,0.668
				s0.349,0.578,0.43,0.922s0.121,0.836,0.121,1.477V69.382z"/>
			<path style="fill:#FFFFFF;" d="M97.539,75.929h4.227c0.953,0,1.68,0.073,2.18,0.219c0.672,0.198,1.247,0.55,1.727,1.055
				s0.844,1.124,1.094,1.855s0.375,1.634,0.375,2.707c0,0.942-0.117,1.755-0.352,2.438c-0.286,0.833-0.695,1.508-1.227,2.023
				c-0.401,0.391-0.942,0.695-1.625,0.914c-0.511,0.161-1.192,0.242-2.047,0.242h-4.352V75.929z M99.851,77.867v7.586h1.727
				c0.646,0,1.112-0.036,1.398-0.109c0.375-0.094,0.687-0.253,0.934-0.477s0.449-0.593,0.605-1.105s0.234-1.212,0.234-2.098
				s-0.078-1.565-0.234-2.039s-0.375-0.844-0.656-1.109s-0.638-0.445-1.07-0.539c-0.323-0.073-0.956-0.109-1.898-0.109H99.851z"/>
			<path style="fill:#FFFFFF;" d="M110.726,81.617l-1.992-0.359c0.224-0.802,0.609-1.396,1.156-1.781s1.359-0.578,2.438-0.578
				c0.979,0,1.708,0.116,2.188,0.348s0.816,0.526,1.012,0.883s0.293,1.012,0.293,1.965l-0.023,2.562
				c0,0.729,0.035,1.267,0.105,1.613s0.202,0.718,0.395,1.113h-2.172c-0.058-0.146-0.128-0.362-0.211-0.648
				c-0.036-0.13-0.062-0.216-0.078-0.258c-0.375,0.364-0.776,0.638-1.203,0.82s-0.883,0.273-1.367,0.273
				c-0.854,0-1.527-0.231-2.02-0.695s-0.738-1.05-0.738-1.758c0-0.469,0.112-0.887,0.336-1.254s0.538-0.648,0.941-0.844
				s0.985-0.366,1.746-0.512c1.026-0.192,1.737-0.372,2.133-0.539V81.75c0-0.422-0.104-0.723-0.312-0.902s-0.602-0.27-1.18-0.27
				c-0.391,0-0.695,0.077-0.914,0.23S110.862,81.231,110.726,81.617z M113.664,83.398c-0.281,0.094-0.727,0.206-1.336,0.336
				s-1.008,0.258-1.195,0.383c-0.286,0.203-0.43,0.461-0.43,0.773c0,0.308,0.114,0.573,0.344,0.797s0.521,0.336,0.875,0.336
				c0.396,0,0.773-0.13,1.133-0.391c0.266-0.198,0.44-0.44,0.523-0.727c0.058-0.188,0.086-0.544,0.086-1.07V83.398z"/>
			<path style="fill:#FFFFFF;" d="M117.82,79.085h2.023v1.133c0.724-0.88,1.586-1.32,2.586-1.32c0.531,0,0.992,0.109,1.383,0.328
				s0.711,0.55,0.961,0.992c0.364-0.442,0.758-0.773,1.18-0.992s0.872-0.328,1.352-0.328c0.609,0,1.125,0.124,1.547,0.371
				s0.737,0.61,0.945,1.09c0.151,0.354,0.227,0.927,0.227,1.719v5.305h-2.195V82.64c0-0.823-0.075-1.354-0.227-1.594
				c-0.203-0.312-0.516-0.469-0.938-0.469c-0.308,0-0.597,0.094-0.867,0.281s-0.466,0.462-0.586,0.824s-0.18,0.934-0.18,1.715v3.984
				h-2.195v-4.547c0-0.808-0.039-1.328-0.117-1.562s-0.199-0.409-0.363-0.523s-0.387-0.172-0.668-0.172
				c-0.339,0-0.644,0.091-0.914,0.273s-0.465,0.445-0.582,0.789s-0.176,0.914-0.176,1.711v4.031h-2.195V79.085z"/>
			<path style="fill:#FFFFFF;" d="M137.015,84.742l2.188,0.367c-0.281,0.802-0.726,1.413-1.332,1.832s-1.366,0.629-2.277,0.629
				c-1.442,0-2.511-0.472-3.203-1.414c-0.547-0.755-0.82-1.708-0.82-2.859c0-1.375,0.359-2.452,1.078-3.23s1.628-1.168,2.727-1.168
				c1.234,0,2.208,0.407,2.922,1.223s1.055,2.063,1.023,3.746h-5.5c0.016,0.651,0.192,1.157,0.531,1.52s0.761,0.543,1.266,0.543
				c0.344,0,0.633-0.094,0.867-0.281S136.895,85.159,137.015,84.742z M137.14,82.523c-0.016-0.636-0.18-1.118-0.492-1.449
				s-0.692-0.496-1.141-0.496c-0.479,0-0.875,0.175-1.188,0.523s-0.466,0.823-0.461,1.422H137.14z"/>
			<path style="fill:#FFFFFF;" d="M148.656,87.382h-2.195v-4.234c0-0.896-0.047-1.476-0.141-1.738s-0.246-0.468-0.457-0.613
				s-0.465-0.219-0.762-0.219c-0.38,0-0.722,0.104-1.023,0.312s-0.509,0.484-0.621,0.828s-0.168,0.979-0.168,1.906v3.758h-2.195
				v-8.297h2.039v1.219c0.724-0.938,1.636-1.406,2.734-1.406c0.484,0,0.927,0.087,1.328,0.262s0.704,0.397,0.91,0.668
				s0.349,0.578,0.43,0.922s0.121,0.836,0.121,1.477V87.382z"/>
			<path style="fill:#FFFFFF;" d="M156.968,81.617l-1.992-0.359c0.224-0.802,0.609-1.396,1.156-1.781s1.359-0.578,2.438-0.578
				c0.979,0,1.708,0.116,2.188,0.348s0.816,0.526,1.012,0.883s0.293,1.012,0.293,1.965l-0.023,2.562
				c0,0.729,0.035,1.267,0.105,1.613s0.202,0.718,0.395,1.113h-2.172c-0.058-0.146-0.128-0.362-0.211-0.648
				c-0.036-0.13-0.062-0.216-0.078-0.258c-0.375,0.364-0.776,0.638-1.203,0.82s-0.883,0.273-1.367,0.273
				c-0.854,0-1.527-0.231-2.02-0.695s-0.738-1.05-0.738-1.758c0-0.469,0.112-0.887,0.336-1.254s0.538-0.648,0.941-0.844
				s0.985-0.366,1.746-0.512c1.026-0.192,1.737-0.372,2.133-0.539V81.75c0-0.422-0.104-0.723-0.312-0.902s-0.602-0.27-1.18-0.27
				c-0.391,0-0.695,0.077-0.914,0.23S157.104,81.231,156.968,81.617z M159.906,83.398c-0.281,0.094-0.727,0.206-1.336,0.336
				s-1.008,0.258-1.195,0.383c-0.286,0.203-0.43,0.461-0.43,0.773c0,0.308,0.114,0.573,0.344,0.797s0.521,0.336,0.875,0.336
				c0.396,0,0.773-0.13,1.133-0.391c0.266-0.198,0.44-0.44,0.523-0.727c0.058-0.188,0.086-0.544,0.086-1.07V83.398z"/>
			<path style="fill:#FFFFFF;" d="M171.773,87.382h-2.195v-4.234c0-0.896-0.047-1.476-0.141-1.738s-0.246-0.468-0.457-0.613
				s-0.465-0.219-0.762-0.219c-0.38,0-0.722,0.104-1.023,0.312s-0.509,0.484-0.621,0.828s-0.168,0.979-0.168,1.906v3.758h-2.195
				v-8.297h2.039v1.219c0.724-0.938,1.636-1.406,2.734-1.406c0.484,0,0.927,0.087,1.328,0.262s0.704,0.397,0.91,0.668
				s0.349,0.578,0.43,0.922s0.121,0.836,0.121,1.477V87.382z"/>
			<path style="fill:#FFFFFF;" d="M181.609,87.382h-2.039v-1.219c-0.339,0.474-0.738,0.827-1.199,1.059s-0.926,0.348-1.395,0.348
				c-0.953,0-1.77-0.384-2.449-1.152s-1.02-1.84-1.02-3.215c0-1.406,0.331-2.476,0.992-3.207s1.497-1.098,2.508-1.098
				c0.927,0,1.729,0.386,2.406,1.156v-4.125h2.195V87.382z M175.75,83.054c0,0.886,0.122,1.526,0.367,1.922
				c0.354,0.573,0.849,0.859,1.484,0.859c0.505,0,0.935-0.215,1.289-0.645s0.531-1.071,0.531-1.926c0-0.953-0.172-1.64-0.516-2.059
				s-0.784-0.629-1.32-0.629c-0.521,0-0.957,0.207-1.309,0.621S175.75,82.231,175.75,83.054z"/>
			<path style="fill:#FFFFFF;" d="M188.234,87.382V75.929h3.711c1.406,0,2.323,0.058,2.75,0.172
				c0.656,0.172,1.206,0.546,1.648,1.121s0.664,1.319,0.664,2.23c0,0.703-0.128,1.294-0.383,1.773s-0.579,0.855-0.973,1.129
				s-0.793,0.454-1.199,0.543c-0.552,0.109-1.352,0.164-2.398,0.164h-1.508v4.32H188.234z M190.546,77.867v3.25h1.266
				c0.911,0,1.521-0.06,1.828-0.18s0.548-0.308,0.723-0.562s0.262-0.552,0.262-0.891c0-0.417-0.122-0.761-0.367-1.031
				s-0.555-0.44-0.93-0.508c-0.276-0.052-0.831-0.078-1.664-0.078H190.546z"/>
			<path style="fill:#FFFFFF;" d="M204.351,87.382V86.14c-0.302,0.442-0.699,0.792-1.191,1.047s-1.012,0.383-1.559,0.383
				c-0.558,0-1.058-0.122-1.5-0.367s-0.763-0.589-0.961-1.031s-0.297-1.055-0.297-1.836v-5.25h2.195v3.812
				c0,1.167,0.04,1.882,0.121,2.145s0.228,0.472,0.441,0.625s0.484,0.23,0.812,0.23c0.375,0,0.711-0.103,1.008-0.309
				s0.5-0.461,0.609-0.766s0.164-1.051,0.164-2.238v-3.5h2.195v8.297H204.351z"/>
			<path style="fill:#FFFFFF;" d="M208.664,87.382V75.929h2.195v11.453H208.664z"/>
			<path style="fill:#FFFFFF;" d="M214.75,81.617l-1.992-0.359c0.224-0.802,0.609-1.396,1.156-1.781s1.359-0.578,2.438-0.578
				c0.979,0,1.708,0.116,2.188,0.348s0.816,0.526,1.012,0.883s0.293,1.012,0.293,1.965l-0.023,2.562
				c0,0.729,0.035,1.267,0.105,1.613s0.202,0.718,0.395,1.113h-2.172c-0.058-0.146-0.128-0.362-0.211-0.648
				c-0.036-0.13-0.062-0.216-0.078-0.258c-0.375,0.364-0.776,0.638-1.203,0.82s-0.883,0.273-1.367,0.273
				c-0.854,0-1.527-0.231-2.02-0.695s-0.738-1.05-0.738-1.758c0-0.469,0.112-0.887,0.336-1.254s0.538-0.648,0.941-0.844
				s0.985-0.366,1.746-0.512c1.026-0.192,1.737-0.372,2.133-0.539V81.75c0-0.422-0.104-0.723-0.312-0.902s-0.602-0.27-1.18-0.27
				c-0.391,0-0.695,0.077-0.914,0.23S214.885,81.231,214.75,81.617z M217.687,83.398c-0.281,0.094-0.727,0.206-1.336,0.336
				s-1.008,0.258-1.195,0.383c-0.286,0.203-0.43,0.461-0.43,0.773c0,0.308,0.114,0.573,0.344,0.797s0.521,0.336,0.875,0.336
				c0.396,0,0.773-0.13,1.133-0.391c0.266-0.198,0.44-0.44,0.523-0.727c0.058-0.188,0.086-0.544,0.086-1.07V83.398z"/>
			<path style="fill:#FFFFFF;" d="M221.234,85.015l2.203-0.336c0.094,0.427,0.284,0.751,0.57,0.973s0.688,0.332,1.203,0.332
				c0.567,0,0.995-0.104,1.281-0.312c0.192-0.146,0.289-0.341,0.289-0.586c0-0.167-0.052-0.305-0.156-0.414
				c-0.109-0.104-0.354-0.2-0.734-0.289c-1.771-0.391-2.894-0.747-3.367-1.07c-0.656-0.448-0.984-1.07-0.984-1.867
				c0-0.719,0.284-1.323,0.852-1.812s1.448-0.734,2.641-0.734c1.136,0,1.979,0.185,2.531,0.555s0.933,0.917,1.141,1.641l-2.07,0.383
				c-0.089-0.323-0.257-0.57-0.504-0.742s-0.601-0.258-1.059-0.258c-0.578,0-0.992,0.081-1.242,0.242
				c-0.167,0.114-0.25,0.263-0.25,0.445c0,0.156,0.073,0.289,0.219,0.398c0.198,0.146,0.882,0.352,2.051,0.617
				s1.985,0.591,2.449,0.977c0.458,0.391,0.688,0.935,0.688,1.633c0,0.761-0.317,1.414-0.953,1.961s-1.575,0.82-2.82,0.82
				c-1.13,0-2.024-0.229-2.684-0.688S221.437,85.801,221.234,85.015z"/>
			<path style="fill:#FFFFFF;" d="M230.828,87.382V75.929h2.195v6.078l2.57-2.922h2.703l-2.836,3.031l3.039,5.266h-2.367
				l-2.086-3.727l-1.023,1.07v2.656H230.828z"/>
			<path style="fill:#FFFFFF;" d="M239.804,77.96v-2.031H242v2.031H239.804z M239.804,87.382v-8.297H242v8.297H239.804z"/>
			<path style="fill:#FFFFFF;" d="M244.25,87.382v-2.195h2.195v2.195H244.25z"/>
		</g>
	</g>
</g>
<g id="deaths">
	<circle style="fill:#8C001A;stroke:#231F20;stroke-width:0.95;stroke-miterlimit:10;" cx="176.802" cy="143.695" r="6.696"/>
	
		<ellipse style="fill:#8C001A;stroke:#231F20;stroke-width:0.95;stroke-miterlimit:10;" cx="179.034" cy="143.289" rx="6.493" ry="6.695"/>
	<circle style="fill:#8C001A;stroke:#231F20;stroke-width:0.95;stroke-miterlimit:10;" cx="176.396" cy="143.695" r="6.696"/>
	
		<ellipse style="fill:#8C001A;stroke:#231F20;stroke-width:0.95;stroke-miterlimit:10;" cx="231.184" cy="187.316" rx="6.696" ry="6.492"/>
	<circle style="fill:#8C001A;stroke:#231F20;stroke-width:0.95;stroke-miterlimit:10;" cx="381.141" cy="493.679" r="6.493"/>
	
		<ellipse style="fill:#8C001A;stroke:#231F20;stroke-width:0.95;stroke-miterlimit:10;" cx="381.952" cy="471.158" rx="6.493" ry="6.695"/>
	
		<ellipse style="fill:#8C001A;stroke:#231F20;stroke-width:0.95;stroke-miterlimit:10;" cx="234.025" cy="187.316" rx="6.696" ry="6.492"/>
	
		<ellipse style="fill:#8C001A;stroke:#231F20;stroke-width:0.95;stroke-miterlimit:10;" cx="169.903" cy="146.332" rx="6.696" ry="6.492"/>
	<g>
		<rect x="483.257" y="197.807" style="fill:#EBEBEB;stroke:#231F20;" width="120.269" height="52.143"/>
		<g>
			<g>
				<g>
					<path d="M495.457,218.331v-10.021h1.326v4.97l4.977-4.97h1.798l-4.204,4.061l4.389,5.961h-1.75l-3.568-5.072l-1.641,1.6v3.473
						H495.457z"/>
					<path d="M504.877,218.331v-10.021h7.246v1.183h-5.92v3.069h5.544v1.176h-5.544v3.411h6.152v1.183H504.877z"/>
					<path d="M517.01,218.331v-4.245l-3.862-5.776h1.613l1.976,3.021c0.364,0.565,0.704,1.131,1.019,1.695
						c0.301-0.523,0.665-1.114,1.094-1.771l1.941-2.946h1.545l-3.999,5.776v4.245H517.01z"/>
				</g>
			</g>
		</g>
	</g>
	<g>
		<g>
			<path style="fill:#8C001A;stroke:#231F20;stroke-width:0.95;stroke-miterlimit:10;" d="M500.27,226.59L500.27,226.59
				c-3.063,0-5.57,2.506-5.57,5.57v0c0,3.063,2.506,5.57,5.57,5.57l0,0c3.063,0,5.57-2.506,5.57-5.57v0
				C505.84,229.096,503.333,226.59,500.27,226.59z"/>
		</g>
		<g>
			<g>
				<path d="M510.85,237.8v-11.453h7.727v1.352h-6.211v3.547h5.375v1.352h-5.375v5.203H510.85z"/>
				<path d="M525.78,236.777c-0.521,0.442-1.022,0.755-1.504,0.938c-0.481,0.182-0.999,0.273-1.551,0.273
					c-0.911,0-1.612-0.223-2.102-0.668s-0.734-1.015-0.734-1.707c0-0.406,0.093-0.777,0.277-1.113s0.427-0.605,0.727-0.809
					s0.637-0.357,1.012-0.461c0.276-0.073,0.692-0.144,1.25-0.211c1.136-0.136,1.972-0.297,2.508-0.484
					c0.005-0.193,0.008-0.315,0.008-0.367c0-0.573-0.133-0.977-0.398-1.211c-0.359-0.318-0.894-0.477-1.602-0.477
					c-0.661,0-1.149,0.115-1.465,0.348c-0.315,0.231-0.548,0.642-0.699,1.23l-1.375-0.188c0.125-0.589,0.331-1.064,0.617-1.426
					c0.286-0.362,0.7-0.641,1.242-0.836s1.169-0.293,1.883-0.293c0.708,0,1.284,0.083,1.727,0.25
					c0.442,0.166,0.769,0.376,0.977,0.629c0.208,0.252,0.354,0.571,0.438,0.957c0.047,0.239,0.07,0.672,0.07,1.297v1.875
					c0,1.307,0.03,2.134,0.09,2.48c0.06,0.346,0.179,0.678,0.355,0.996h-1.469C525.916,237.508,525.822,237.167,525.78,236.777z
					 M525.663,233.636c-0.511,0.208-1.276,0.385-2.297,0.531c-0.578,0.083-0.987,0.177-1.227,0.281
					c-0.239,0.104-0.425,0.256-0.555,0.457c-0.13,0.2-0.195,0.423-0.195,0.668c0,0.375,0.142,0.688,0.426,0.938
					s0.699,0.375,1.246,0.375c0.542,0,1.023-0.119,1.445-0.355c0.422-0.237,0.731-0.562,0.93-0.973
					c0.151-0.318,0.227-0.787,0.227-1.406V233.636z"/>
				<path d="M532.335,236.542l0.203,1.242c-0.396,0.082-0.75,0.125-1.062,0.125c-0.511,0-0.906-0.082-1.188-0.242
					c-0.281-0.162-0.479-0.374-0.594-0.637c-0.114-0.264-0.172-0.816-0.172-1.66v-4.773h-1.031v-1.094h1.031v-2.055l1.398-0.844
					v2.898h1.414v1.094h-1.414v4.852c0,0.4,0.024,0.658,0.074,0.773c0.05,0.114,0.13,0.205,0.242,0.273
					c0.112,0.067,0.272,0.102,0.48,0.102C531.874,236.597,532.08,236.579,532.335,236.542z"/>
				<path d="M539.124,236.777c-0.521,0.442-1.022,0.755-1.504,0.938c-0.481,0.182-0.999,0.273-1.551,0.273
					c-0.911,0-1.612-0.223-2.102-0.668s-0.734-1.015-0.734-1.707c0-0.406,0.093-0.777,0.277-1.113s0.427-0.605,0.727-0.809
					s0.637-0.357,1.012-0.461c0.276-0.073,0.692-0.144,1.25-0.211c1.136-0.136,1.972-0.297,2.508-0.484
					c0.005-0.193,0.008-0.315,0.008-0.367c0-0.573-0.133-0.977-0.398-1.211c-0.359-0.318-0.894-0.477-1.602-0.477
					c-0.661,0-1.149,0.115-1.465,0.348c-0.315,0.231-0.548,0.642-0.699,1.23l-1.375-0.188c0.125-0.589,0.331-1.064,0.617-1.426
					c0.286-0.362,0.7-0.641,1.242-0.836s1.169-0.293,1.883-0.293c0.708,0,1.284,0.083,1.727,0.25
					c0.442,0.166,0.769,0.376,0.977,0.629c0.208,0.252,0.354,0.571,0.438,0.957c0.047,0.239,0.07,0.672,0.07,1.297v1.875
					c0,1.307,0.03,2.134,0.09,2.48c0.06,0.346,0.179,0.678,0.355,0.996h-1.469C539.259,237.508,539.166,237.167,539.124,236.777z
					 M539.006,233.636c-0.511,0.208-1.276,0.385-2.297,0.531c-0.578,0.083-0.987,0.177-1.227,0.281
					c-0.239,0.104-0.425,0.256-0.555,0.457c-0.13,0.2-0.195,0.423-0.195,0.668c0,0.375,0.142,0.688,0.426,0.938
					s0.699,0.375,1.246,0.375c0.542,0,1.023-0.119,1.445-0.355c0.422-0.237,0.731-0.562,0.93-0.973
					c0.151-0.318,0.227-0.787,0.227-1.406V233.636z"/>
				<path d="M542.577,237.8v-11.453h1.406V237.8H542.577z"/>
				<path d="M546.17,227.964v-1.617h1.406v1.617H546.17z M546.17,237.8v-8.297h1.406v8.297H546.17z"/>
				<path d="M552.788,236.542l0.203,1.242c-0.396,0.082-0.75,0.125-1.062,0.125c-0.511,0-0.906-0.082-1.188-0.242
					c-0.281-0.162-0.479-0.374-0.594-0.637c-0.114-0.264-0.172-0.816-0.172-1.66v-4.773h-1.031v-1.094h1.031v-2.055l1.398-0.844
					v2.898h1.414v1.094h-1.414v4.852c0,0.4,0.024,0.658,0.074,0.773c0.05,0.114,0.13,0.205,0.242,0.273
					c0.112,0.067,0.272,0.102,0.48,0.102C552.327,236.597,552.533,236.579,552.788,236.542z"/>
				<path d="M554.1,240.996l-0.156-1.32c0.308,0.082,0.575,0.125,0.805,0.125c0.312,0,0.562-0.053,0.75-0.156
					c0.188-0.105,0.341-0.25,0.461-0.438c0.089-0.141,0.231-0.49,0.43-1.047c0.026-0.078,0.067-0.193,0.125-0.344l-3.148-8.312
					h1.516l1.727,4.805c0.224,0.609,0.425,1.25,0.602,1.922c0.161-0.646,0.354-1.276,0.578-1.891l1.773-4.836h1.406l-3.156,8.438
					c-0.339,0.91-0.602,1.539-0.789,1.883c-0.25,0.463-0.536,0.803-0.859,1.02c-0.323,0.215-0.708,0.324-1.156,0.324
					C554.736,241.167,554.433,241.109,554.1,240.996z"/>
			</g>
		</g>
	</g>
	<g>
		<polygon points="277.967,294.926 179.879,294.926 179.879,248.018 202.193,248.018 234.322,187.251 215.987,248.018 
			277.967,248.018 		"/>
		<g>
			<rect x="187.94" y="255.214" style="fill:none;" width="88.5" height="36.104"/>
			<path style="fill:#FFFFFF;" d="M199.432,266.669h-2.516l-1-2.602h-4.578l-0.945,2.602h-2.453l4.461-11.453h2.445L199.432,266.669
				z M195.174,262.138l-1.578-4.25l-1.547,4.25H195.174z"/>
			<path style="fill:#FFFFFF;" d="M204.448,258.373v1.75h-1.5v3.344c0,0.677,0.015,1.071,0.043,1.184s0.094,0.204,0.195,0.277
				s0.226,0.109,0.371,0.109c0.203,0,0.497-0.07,0.883-0.211l0.188,1.703c-0.511,0.219-1.089,0.328-1.734,0.328
				c-0.396,0-0.753-0.066-1.07-0.199s-0.551-0.305-0.699-0.516s-0.251-0.496-0.309-0.855c-0.047-0.255-0.07-0.771-0.07-1.547v-3.617
				h-1.008v-1.75h1.008v-1.648l2.203-1.281v2.93H204.448z"/>
			<path style="fill:#FFFFFF;" d="M210.417,266.669v-11.453h2.195v11.453H210.417z"/>
			<path style="fill:#FFFFFF;" d="M219.667,264.029l2.188,0.367c-0.281,0.802-0.726,1.413-1.332,1.832s-1.366,0.629-2.277,0.629
				c-1.442,0-2.511-0.472-3.203-1.414c-0.547-0.755-0.82-1.708-0.82-2.859c0-1.375,0.359-2.452,1.078-3.23s1.628-1.168,2.727-1.168
				c1.234,0,2.208,0.407,2.922,1.223s1.055,2.063,1.023,3.746h-5.5c0.016,0.651,0.192,1.157,0.531,1.52s0.761,0.543,1.266,0.543
				c0.344,0,0.633-0.094,0.867-0.281S219.546,264.446,219.667,264.029z M219.792,261.81c-0.016-0.636-0.18-1.118-0.492-1.449
				s-0.692-0.496-1.141-0.496c-0.479,0-0.875,0.175-1.188,0.523s-0.466,0.823-0.461,1.422H219.792z"/>
			<path style="fill:#FFFFFF;" d="M225.401,260.904l-1.992-0.359c0.224-0.802,0.609-1.396,1.156-1.781s1.359-0.578,2.438-0.578
				c0.979,0,1.708,0.116,2.188,0.348s0.816,0.526,1.012,0.883s0.293,1.012,0.293,1.965l-0.023,2.562
				c0,0.729,0.035,1.267,0.105,1.613s0.202,0.718,0.395,1.113h-2.172c-0.058-0.146-0.128-0.362-0.211-0.648
				c-0.036-0.13-0.062-0.216-0.078-0.258c-0.375,0.364-0.776,0.638-1.203,0.82s-0.883,0.273-1.367,0.273
				c-0.854,0-1.527-0.231-2.02-0.695s-0.738-1.05-0.738-1.758c0-0.469,0.112-0.887,0.336-1.254s0.538-0.648,0.941-0.844
				s0.985-0.366,1.746-0.512c1.026-0.192,1.737-0.372,2.133-0.539v-0.219c0-0.422-0.104-0.723-0.312-0.902s-0.602-0.27-1.18-0.27
				c-0.391,0-0.695,0.077-0.914,0.23S225.537,260.518,225.401,260.904z M228.338,262.685c-0.281,0.094-0.727,0.206-1.336,0.336
				s-1.008,0.258-1.195,0.383c-0.286,0.203-0.43,0.461-0.43,0.773c0,0.308,0.114,0.573,0.344,0.797s0.521,0.336,0.875,0.336
				c0.396,0,0.773-0.13,1.133-0.391c0.266-0.198,0.44-0.44,0.523-0.727c0.058-0.188,0.086-0.544,0.086-1.07V262.685z"/>
			<path style="fill:#FFFFFF;" d="M231.885,264.302l2.203-0.336c0.094,0.427,0.284,0.751,0.57,0.973s0.688,0.332,1.203,0.332
				c0.567,0,0.995-0.104,1.281-0.312c0.192-0.146,0.289-0.341,0.289-0.586c0-0.167-0.052-0.305-0.156-0.414
				c-0.109-0.104-0.354-0.2-0.734-0.289c-1.771-0.391-2.894-0.747-3.367-1.07c-0.656-0.448-0.984-1.07-0.984-1.867
				c0-0.719,0.284-1.323,0.852-1.812s1.448-0.734,2.641-0.734c1.136,0,1.979,0.185,2.531,0.555s0.933,0.917,1.141,1.641l-2.07,0.383
				c-0.089-0.323-0.257-0.57-0.504-0.742s-0.601-0.258-1.059-0.258c-0.578,0-0.992,0.081-1.242,0.242
				c-0.167,0.114-0.25,0.263-0.25,0.445c0,0.156,0.073,0.289,0.219,0.398c0.198,0.146,0.882,0.352,2.051,0.617
				s1.985,0.591,2.449,0.977c0.458,0.391,0.688,0.935,0.688,1.633c0,0.761-0.317,1.414-0.953,1.961s-1.575,0.82-2.82,0.82
				c-1.13,0-2.024-0.229-2.684-0.688S232.088,265.088,231.885,264.302z"/>
			<path style="fill:#FFFFFF;" d="M245.362,258.373v1.75h-1.5v3.344c0,0.677,0.015,1.071,0.043,1.184s0.094,0.204,0.195,0.277
				s0.226,0.109,0.371,0.109c0.203,0,0.497-0.07,0.883-0.211l0.188,1.703c-0.511,0.219-1.089,0.328-1.734,0.328
				c-0.396,0-0.753-0.066-1.07-0.199s-0.551-0.305-0.699-0.516s-0.251-0.496-0.309-0.855c-0.047-0.255-0.07-0.771-0.07-1.547v-3.617
				h-1.008v-1.75h1.008v-1.648l2.203-1.281v2.93H245.362z"/>
			<path style="fill:#FFFFFF;" d="M196.635,284.669h-2.195v-4.234c0-0.896-0.047-1.476-0.141-1.738s-0.246-0.468-0.457-0.613
				s-0.465-0.219-0.762-0.219c-0.38,0-0.722,0.104-1.023,0.312s-0.509,0.484-0.621,0.828s-0.168,0.979-0.168,1.906v3.758h-2.195
				v-8.297h2.039v1.219c0.724-0.938,1.636-1.406,2.734-1.406c0.484,0,0.927,0.087,1.328,0.262s0.704,0.397,0.91,0.668
				s0.349,0.578,0.43,0.922s0.121,0.836,0.121,1.477V284.669z"/>
			<path style="fill:#FFFFFF;" d="M198.862,275.248v-2.031h2.195v2.031H198.862z M198.862,284.669v-8.297h2.195v8.297H198.862z"/>
			<path style="fill:#FFFFFF;" d="M210.854,284.669h-2.195v-4.234c0-0.896-0.047-1.476-0.141-1.738s-0.246-0.468-0.457-0.613
				s-0.465-0.219-0.762-0.219c-0.38,0-0.722,0.104-1.023,0.312s-0.509,0.484-0.621,0.828s-0.168,0.979-0.168,1.906v3.758h-2.195
				v-8.297h2.039v1.219c0.724-0.938,1.636-1.406,2.734-1.406c0.484,0,0.927,0.087,1.328,0.262s0.704,0.397,0.91,0.668
				s0.349,0.578,0.43,0.922s0.121,0.836,0.121,1.477V284.669z"/>
			<path style="fill:#FFFFFF;" d="M217.885,282.029l2.188,0.367c-0.281,0.802-0.726,1.413-1.332,1.832s-1.366,0.629-2.277,0.629
				c-1.442,0-2.511-0.472-3.203-1.414c-0.547-0.755-0.82-1.708-0.82-2.859c0-1.375,0.359-2.452,1.078-3.23s1.628-1.168,2.727-1.168
				c1.234,0,2.208,0.407,2.922,1.223s1.055,2.063,1.023,3.746h-5.5c0.016,0.651,0.192,1.157,0.531,1.52s0.761,0.543,1.266,0.543
				c0.344,0,0.633-0.094,0.867-0.281S217.765,282.446,217.885,282.029z M218.01,279.81c-0.016-0.636-0.18-1.118-0.492-1.449
				s-0.692-0.496-1.141-0.496c-0.479,0-0.875,0.175-1.188,0.523s-0.466,0.823-0.461,1.422H218.01z"/>
			<path style="fill:#FFFFFF;" d="M226.346,284.669v-11.453h2.195v6.078l2.57-2.922h2.703l-2.836,3.031l3.039,5.266h-2.367
				l-2.086-3.727l-1.023,1.07v2.656H226.346z"/>
			<path style="fill:#FFFFFF;" d="M235.323,275.248v-2.031h2.195v2.031H235.323z M235.323,284.669v-8.297h2.195v8.297H235.323z"/>
			<path style="fill:#FFFFFF;" d="M239.768,284.669v-11.453h2.195v11.453H239.768z"/>
			<path style="fill:#FFFFFF;" d="M244.213,284.669v-11.453h2.195v11.453H244.213z"/>
			<path style="fill:#FFFFFF;" d="M253.463,282.029l2.188,0.367c-0.281,0.802-0.726,1.413-1.332,1.832s-1.366,0.629-2.277,0.629
				c-1.442,0-2.511-0.472-3.203-1.414c-0.547-0.755-0.82-1.708-0.82-2.859c0-1.375,0.359-2.452,1.078-3.23s1.628-1.168,2.727-1.168
				c1.234,0,2.208,0.407,2.922,1.223s1.055,2.063,1.023,3.746h-5.5c0.016,0.651,0.192,1.157,0.531,1.52s0.761,0.543,1.266,0.543
				c0.344,0,0.633-0.094,0.867-0.281S253.343,282.446,253.463,282.029z M253.588,279.81c-0.016-0.636-0.18-1.118-0.492-1.449
				s-0.692-0.496-1.141-0.496c-0.479,0-0.875,0.175-1.188,0.523s-0.466,0.823-0.461,1.422H253.588z"/>
			<path style="fill:#FFFFFF;" d="M265.167,284.669h-2.039v-1.219c-0.339,0.474-0.738,0.827-1.199,1.059s-0.926,0.348-1.395,0.348
				c-0.953,0-1.77-0.384-2.449-1.152s-1.02-1.84-1.02-3.215c0-1.406,0.331-2.476,0.992-3.207s1.497-1.098,2.508-1.098
				c0.927,0,1.729,0.386,2.406,1.156v-4.125h2.195V284.669z M259.307,280.341c0,0.886,0.122,1.526,0.367,1.922
				c0.354,0.573,0.849,0.859,1.484,0.859c0.505,0,0.935-0.215,1.289-0.645s0.531-1.071,0.531-1.926c0-0.953-0.172-1.64-0.516-2.059
				s-0.784-0.629-1.32-0.629c-0.521,0-0.957,0.207-1.309,0.621S259.307,279.518,259.307,280.341z"/>
			<path style="fill:#FFFFFF;" d="M267.331,284.669v-2.195h2.195v2.195H267.331z"/>
		</g>
	</g>
</g>
</svg>
