<?xml version="1.0" encoding="utf-8"?>
<!-- Generator: Adobe Illustrator 22.0.1, SVG Export Plug-In . SVG Version: 6.00 Build 0)  -->
<svg version="1.1" id="madsion-street2" xmlns="http://www.w3.org/2000/svg" xmlns:xlink="http://www.w3.org/1999/xlink" x="0px"
	 y="0px" viewBox="0 0 400 602.122" style="enable-background:new 0 0 400 602.122;" xml:space="preserve">
<polyline style="fill:none;stroke:#8C001A;stroke-width:2;stroke-miterlimit:10;" points="113.433,300.445 113.433,200.527 
	74.724,200.527 "/>
<rect x="100.383" y="218.808" style="fill:#FFFFFF;stroke:#8C001A;stroke-width:2;stroke-miterlimit:10;" width="24.762" height="23.762"/>
<rect x="228.904" y="111.819" style="fill:#FFFFFF;stroke:#8C001A;stroke-width:2;stroke-miterlimit:10;" width="18.986" height="21.653"/>
<rect x="48.585" y="183.511" style="fill:#FFFFFF;stroke:#8C001A;stroke-width:2;stroke-miterlimit:10;" width="26.139" height="21.697"/>
<rect x="228.231" y="459.537" style="fill:#FFFFFF;stroke:#8C001A;stroke-width:2;stroke-miterlimit:10;" width="22.923" height="46.65"/>
<g>
	<g>
		<rect x="72.61" y="274.564" style="fill:#8C001A;" width="99.269" height="68.643"/>
	</g>
	<g>
		<g>
			<g>
				<path style="fill:#FFFFFF;" d="M82.132,294.291v-11.359h2.312v9.43h5.75v1.93L82.132,294.291L82.132,294.291z"/>
				<path style="fill:#FFFFFF;" d="M91.32,290.025c0-0.729,0.18-1.435,0.539-2.117s0.868-1.203,1.527-1.562s1.395-0.539,2.207-0.539
					c1.255,0,2.284,0.407,3.086,1.223s1.203,1.845,1.203,3.09c0,1.255-0.405,2.296-1.215,3.121s-1.829,1.238-3.059,1.238
					c-0.761,0-1.485-0.172-2.176-0.516s-1.215-0.848-1.574-1.512S91.32,290.978,91.32,290.025z M93.57,290.142
					c0,0.823,0.195,1.453,0.586,1.891s0.872,0.656,1.445,0.656s1.054-0.219,1.441-0.656s0.582-1.073,0.582-1.906
					c0-0.812-0.194-1.438-0.582-1.875s-0.868-0.656-1.441-0.656s-1.055,0.219-1.445,0.656S93.57,289.319,93.57,290.142z"/>
				<path style="fill:#FFFFFF;" d="M108.836,288.447l-2.164,0.391c-0.073-0.433-0.238-0.758-0.496-0.977s-0.593-0.328-1.004-0.328
					c-0.547,0-0.983,0.188-1.309,0.566s-0.488,1.009-0.488,1.895c0,0.984,0.165,1.68,0.496,2.086s0.774,0.609,1.332,0.609
					c0.417,0,0.758-0.118,1.023-0.355s0.453-0.645,0.562-1.223l2.156,0.367c-0.224,0.989-0.653,1.737-1.289,2.242
					s-1.487,0.758-2.555,0.758c-1.214,0-2.181-0.383-2.902-1.148s-1.082-1.825-1.082-3.18c0-1.37,0.362-2.437,1.086-3.199
					s1.703-1.145,2.938-1.145c1.011,0,1.813,0.218,2.41,0.652S108.575,287.556,108.836,288.447z"/>
				<path style="fill:#FFFFFF;" d="M112.14,288.525l-1.992-0.359c0.224-0.802,0.609-1.396,1.156-1.781s1.359-0.578,2.438-0.578
					c0.979,0,1.708,0.116,2.188,0.348s0.816,0.526,1.012,0.883s0.293,1.012,0.293,1.965l-0.023,2.562
					c0,0.729,0.035,1.267,0.105,1.613s0.202,0.718,0.395,1.113h-2.172c-0.058-0.146-0.128-0.362-0.211-0.648
					c-0.036-0.13-0.062-0.216-0.078-0.258c-0.375,0.364-0.776,0.638-1.203,0.82s-0.883,0.273-1.367,0.273
					c-0.854,0-1.527-0.231-2.02-0.695s-0.738-1.05-0.738-1.758c0-0.469,0.112-0.887,0.336-1.254s0.538-0.648,0.941-0.844
					s0.985-0.366,1.746-0.512c1.026-0.192,1.737-0.372,2.133-0.539v-0.219c0-0.422-0.104-0.723-0.312-0.902s-0.602-0.27-1.18-0.27
					c-0.391,0-0.695,0.077-0.914,0.23S112.276,288.139,112.14,288.525z M115.078,290.306c-0.281,0.094-0.727,0.206-1.336,0.336
					s-1.008,0.258-1.195,0.383c-0.286,0.203-0.43,0.461-0.43,0.773c0,0.308,0.114,0.573,0.344,0.797s0.521,0.336,0.875,0.336
					c0.396,0,0.773-0.13,1.133-0.391c0.266-0.198,0.44-0.44,0.523-0.727c0.058-0.188,0.086-0.544,0.086-1.07
					C115.078,290.743,115.078,290.306,115.078,290.306z"/>
				<path style="fill:#FFFFFF;" d="M123.203,285.994v1.75h-1.5v3.344c0,0.677,0.015,1.071,0.043,1.184s0.094,0.204,0.195,0.277
					s0.226,0.109,0.371,0.109c0.203,0,0.497-0.07,0.883-0.211l0.188,1.703c-0.511,0.219-1.089,0.328-1.734,0.328
					c-0.396,0-0.753-0.066-1.07-0.199s-0.551-0.305-0.699-0.516s-0.251-0.496-0.309-0.855c-0.047-0.255-0.07-0.771-0.07-1.547
					v-3.617h-1.008v-1.75h1.008v-1.648l2.203-1.281v2.93L123.203,285.994L123.203,285.994z"/>
				<path style="fill:#FFFFFF;" d="M124.726,284.869v-2.031h2.195v2.031H124.726z M124.726,294.291v-8.297h2.195v8.297H124.726z"/>
				<path style="fill:#FFFFFF;" d="M128.664,290.025c0-0.729,0.18-1.435,0.539-2.117s0.868-1.203,1.527-1.562
					s1.395-0.539,2.207-0.539c1.255,0,2.284,0.407,3.086,1.223s1.203,1.845,1.203,3.09c0,1.255-0.405,2.296-1.215,3.121
					s-1.829,1.238-3.059,1.238c-0.761,0-1.485-0.172-2.176-0.516s-1.215-0.848-1.574-1.512S128.664,290.978,128.664,290.025z
					 M130.914,290.142c0,0.823,0.195,1.453,0.586,1.891s0.872,0.656,1.445,0.656s1.054-0.219,1.441-0.656s0.582-1.073,0.582-1.906
					c0-0.812-0.194-1.438-0.582-1.875s-0.868-0.656-1.441-0.656s-1.055,0.219-1.445,0.656S130.914,289.319,130.914,290.142z"/>
				<path style="fill:#FFFFFF;" d="M146.492,294.291h-2.195v-4.234c0-0.896-0.047-1.476-0.141-1.738s-0.246-0.468-0.457-0.613
					s-0.465-0.219-0.762-0.219c-0.38,0-0.722,0.104-1.023,0.312s-0.509,0.484-0.621,0.828s-0.168,0.979-0.168,1.906v3.758h-2.195
					v-8.297h2.039v1.219c0.724-0.938,1.636-1.406,2.734-1.406c0.484,0,0.927,0.087,1.328,0.262s0.704,0.397,0.91,0.668
					s0.349,0.578,0.43,0.922s0.121,0.836,0.121,1.477L146.492,294.291L146.492,294.291z"/>
				<path style="fill:#FFFFFF;" d="M147.945,291.923l2.203-0.336c0.094,0.427,0.284,0.751,0.57,0.973s0.688,0.332,1.203,0.332
					c0.567,0,0.995-0.104,1.281-0.312c0.192-0.146,0.289-0.341,0.289-0.586c0-0.167-0.052-0.305-0.156-0.414
					c-0.109-0.104-0.354-0.2-0.734-0.289c-1.771-0.391-2.894-0.747-3.367-1.07c-0.656-0.448-0.984-1.07-0.984-1.867
					c0-0.719,0.284-1.323,0.852-1.812s1.448-0.734,2.641-0.734c1.136,0,1.979,0.185,2.531,0.555s0.933,0.917,1.141,1.641
					l-2.07,0.383c-0.089-0.323-0.257-0.57-0.504-0.742s-0.601-0.258-1.059-0.258c-0.578,0-0.992,0.081-1.242,0.242
					c-0.167,0.114-0.25,0.263-0.25,0.445c0,0.156,0.073,0.289,0.219,0.398c0.198,0.146,0.882,0.352,2.051,0.617
					s1.985,0.591,2.449,0.977c0.458,0.391,0.688,0.935,0.688,1.633c0,0.761-0.317,1.414-0.953,1.961s-1.575,0.82-2.82,0.82
					c-1.13,0-2.024-0.229-2.684-0.688S148.148,292.709,147.945,291.923z"/>
				<path style="fill:#FFFFFF;" d="M81.546,308.025c0-0.729,0.18-1.435,0.539-2.117s0.868-1.203,1.527-1.562
					s1.395-0.539,2.207-0.539c1.255,0,2.284,0.407,3.086,1.223s1.203,1.845,1.203,3.09c0,1.255-0.405,2.296-1.215,3.121
					s-1.829,1.238-3.059,1.238c-0.761,0-1.485-0.172-2.176-0.516s-1.215-0.848-1.574-1.512S81.546,308.978,81.546,308.025z
					 M83.796,308.142c0,0.823,0.195,1.453,0.586,1.891s0.872,0.656,1.445,0.656s1.054-0.219,1.441-0.656s0.582-1.073,0.582-1.906
					c0-0.812-0.194-1.438-0.582-1.875s-0.868-0.656-1.441-0.656s-1.055,0.219-1.445,0.656S83.796,307.319,83.796,308.142z"/>
				<path style="fill:#FFFFFF;" d="M90.867,303.994h1.219v-0.625c0-0.698,0.074-1.219,0.223-1.562s0.422-0.624,0.82-0.84
					s0.902-0.324,1.512-0.324c0.625,0,1.237,0.094,1.836,0.281l-0.297,1.531c-0.349-0.083-0.685-0.125-1.008-0.125
					c-0.317,0-0.546,0.074-0.684,0.223s-0.207,0.434-0.207,0.855v0.586h1.641v1.727h-1.641v6.57h-2.195v-6.57h-1.219V303.994z"/>
				<path style="fill:#FFFFFF;" d="M105.406,303.994v1.75h-1.5v3.344c0,0.677,0.015,1.071,0.043,1.184s0.094,0.204,0.195,0.277
					s0.226,0.109,0.371,0.109c0.203,0,0.497-0.07,0.883-0.211l0.188,1.703c-0.511,0.219-1.089,0.328-1.734,0.328
					c-0.396,0-0.753-0.066-1.07-0.199s-0.551-0.305-0.699-0.516s-0.251-0.496-0.309-0.855c-0.047-0.255-0.07-0.771-0.07-1.547
					v-3.617h-1.008v-1.75h1.008v-1.648l2.203-1.281v2.93L105.406,303.994L105.406,303.994z"/>
				<path style="fill:#FFFFFF;" d="M109.117,300.837v4.211c0.708-0.828,1.555-1.242,2.539-1.242c0.505,0,0.961,0.094,1.367,0.281
					s0.712,0.427,0.918,0.719s0.347,0.614,0.422,0.969s0.113,0.903,0.113,1.648v4.867h-2.195v-4.383c0-0.87-0.042-1.422-0.125-1.656
					s-0.23-0.421-0.441-0.559s-0.476-0.207-0.793-0.207c-0.364,0-0.69,0.089-0.977,0.266s-0.496,0.444-0.629,0.801
					s-0.199,0.884-0.199,1.582v4.156h-2.195v-11.453H109.117z"/>
				<path style="fill:#FFFFFF;" d="M121.507,309.65l2.188,0.367c-0.281,0.802-0.726,1.413-1.332,1.832s-1.366,0.629-2.277,0.629
					c-1.442,0-2.511-0.472-3.203-1.414c-0.547-0.755-0.82-1.708-0.82-2.859c0-1.375,0.359-2.452,1.078-3.23s1.628-1.168,2.727-1.168
					c1.234,0,2.208,0.407,2.922,1.223s1.055,2.063,1.023,3.746h-5.5c0.016,0.651,0.192,1.157,0.531,1.52s0.761,0.543,1.266,0.543
					c0.344,0,0.633-0.094,0.867-0.281S121.387,310.067,121.507,309.65z M121.632,307.431c-0.016-0.636-0.18-1.118-0.492-1.449
					s-0.692-0.496-1.141-0.496c-0.479,0-0.875,0.175-1.188,0.523s-0.466,0.823-0.461,1.422H121.632z"/>
				<path style="fill:#FFFFFF;" d="M137.593,312.291h-2.195v-4.234c0-0.896-0.047-1.476-0.141-1.738s-0.246-0.468-0.457-0.613
					s-0.465-0.219-0.762-0.219c-0.38,0-0.722,0.104-1.023,0.312s-0.509,0.484-0.621,0.828s-0.168,0.979-0.168,1.906v3.758h-2.195
					v-8.297h2.039v1.219c0.724-0.938,1.636-1.406,2.734-1.406c0.484,0,0.927,0.087,1.328,0.262s0.704,0.397,0.91,0.668
					s0.349,0.578,0.43,0.922s0.121,0.836,0.121,1.477L137.593,312.291L137.593,312.291z"/>
				<path style="fill:#FFFFFF;" d="M139.82,302.869v-2.031h2.195v2.031H139.82z M139.82,312.291v-8.297h2.195v8.297H139.82z"/>
				<path style="fill:#FFFFFF;" d="M151.812,312.291h-2.195v-4.234c0-0.896-0.047-1.476-0.141-1.738s-0.246-0.468-0.457-0.613
					s-0.465-0.219-0.762-0.219c-0.38,0-0.722,0.104-1.023,0.312s-0.509,0.484-0.621,0.828s-0.168,0.979-0.168,1.906v3.758h-2.195
					v-8.297h2.039v1.219c0.724-0.938,1.636-1.406,2.734-1.406c0.484,0,0.927,0.087,1.328,0.262s0.704,0.397,0.91,0.668
					s0.349,0.578,0.43,0.922s0.121,0.836,0.121,1.477L151.812,312.291L151.812,312.291z"/>
				<path style="fill:#FFFFFF;" d="M158.843,309.65l2.188,0.367c-0.281,0.802-0.726,1.413-1.332,1.832s-1.366,0.629-2.277,0.629
					c-1.442,0-2.511-0.472-3.203-1.414c-0.547-0.755-0.82-1.708-0.82-2.859c0-1.375,0.359-2.452,1.078-3.23s1.628-1.168,2.727-1.168
					c1.234,0,2.208,0.407,2.922,1.223s1.055,2.063,1.023,3.746h-5.5c0.016,0.651,0.192,1.157,0.531,1.52s0.761,0.543,1.266,0.543
					c0.344,0,0.633-0.094,0.867-0.281S158.723,310.067,158.843,309.65z M158.968,307.431c-0.016-0.636-0.18-1.118-0.492-1.449
					s-0.692-0.496-1.141-0.496c-0.479,0-0.875,0.175-1.188,0.523s-0.466,0.823-0.461,1.422H158.968z"/>
				<path style="fill:#FFFFFF;" d="M81.976,330.291v-11.453h2.195v6.078l2.57-2.922h2.703l-2.836,3.031l3.039,5.266H87.28
					l-2.086-3.727l-1.023,1.07v2.656L81.976,330.291L81.976,330.291z"/>
				<path style="fill:#FFFFFF;" d="M90.953,320.869v-2.031h2.195v2.031H90.953z M90.953,330.291v-8.297h2.195v8.297H90.953z"/>
				<path style="fill:#FFFFFF;" d="M95.398,330.291v-11.453h2.195v11.453H95.398z"/>
				<path style="fill:#FFFFFF;" d="M99.843,330.291v-11.453h2.195v11.453H99.843z"/>
				<path style="fill:#FFFFFF;" d="M109.093,327.65l2.188,0.367c-0.281,0.802-0.726,1.413-1.332,1.832s-1.366,0.629-2.277,0.629
					c-1.442,0-2.511-0.472-3.203-1.414c-0.547-0.755-0.82-1.708-0.82-2.859c0-1.375,0.359-2.452,1.078-3.23s1.628-1.168,2.727-1.168
					c1.234,0,2.208,0.407,2.922,1.223s1.055,2.063,1.023,3.746h-5.5c0.016,0.651,0.192,1.157,0.531,1.52s0.761,0.543,1.266,0.543
					c0.344,0,0.633-0.094,0.867-0.281S108.973,328.067,109.093,327.65z M109.218,325.431c-0.016-0.636-0.18-1.118-0.492-1.449
					s-0.692-0.496-1.141-0.496c-0.479,0-0.875,0.175-1.188,0.523s-0.466,0.823-0.461,1.422H109.218z"/>
				<path style="fill:#FFFFFF;" d="M120.796,330.291h-2.039v-1.219c-0.339,0.474-0.738,0.827-1.199,1.059s-0.926,0.348-1.395,0.348
					c-0.953,0-1.77-0.384-2.449-1.152s-1.02-1.84-1.02-3.215c0-1.406,0.331-2.476,0.992-3.207s1.497-1.098,2.508-1.098
					c0.927,0,1.729,0.386,2.406,1.156v-4.125h2.195L120.796,330.291L120.796,330.291z M114.937,325.962
					c0,0.886,0.122,1.526,0.367,1.922c0.354,0.573,0.849,0.859,1.484,0.859c0.505,0,0.935-0.215,1.289-0.645
					s0.531-1.071,0.531-1.926c0-0.953-0.172-1.64-0.516-2.059s-0.784-0.629-1.32-0.629c-0.521,0-0.957,0.207-1.309,0.621
					S114.937,325.139,114.937,325.962z"/>
				<path style="fill:#FFFFFF;" d="M122.961,330.291v-2.195h2.195v2.195H122.961z"/>
			</g>
		</g>
	</g>
</g>
<polyline style="fill:none;stroke:#8C001A;stroke-width:2;stroke-miterlimit:10;" points="165.865,327.009 240.138,327.009 
	240.138,458.993 "/>
<rect x="74.329" y="183.369" style="opacity:0.8;fill:#FFFFFF;enable-background:new    ;" width="95.95" height="9.093"/>
<rect x="74.329" y="183.369" style="fill:none;stroke:#D7153A;stroke-width:2;" width="96.95" height="9.093"/>
<g>
	<rect x="153.607" y="199.453" style="fill:#F1F2F2;" width="15.754" height="49.503"/>
	<g>
		<g>
			<path d="M158.219,246.284l-0.082-3.146c-0.018-0.709,0.022-1.251,0.12-1.626c0.133-0.504,0.384-0.94,0.75-1.305
				c0.367-0.366,0.821-0.651,1.361-0.851c0.538-0.2,1.208-0.311,2.007-0.332c0.702-0.018,1.309,0.053,1.82,0.214
				c0.626,0.197,1.136,0.488,1.53,0.872c0.298,0.291,0.536,0.689,0.712,1.192c0.13,0.376,0.204,0.883,0.22,1.518l0.085,3.239
				L158.219,246.284z M159.616,244.525l5.646-0.148l-0.034-1.285c-0.012-0.481-0.049-0.826-0.108-1.038
				c-0.077-0.278-0.202-0.506-0.373-0.685c-0.172-0.18-0.45-0.323-0.834-0.43c-0.386-0.106-0.907-0.151-1.566-0.134
				s-1.163,0.089-1.513,0.214s-0.621,0.296-0.813,0.51c-0.193,0.214-0.319,0.484-0.381,0.808c-0.047,0.241-0.063,0.712-0.044,1.414
				L159.616,244.525z"/>
			<path d="M166.316,229.769l0.049,1.872l-1.917,0.795l0.089,3.407l1.955,0.653l0.047,1.825l-8.61-3.096l-0.048-1.82
				L166.316,229.769z M163.027,233.026l-3.132,1.258l3.193,1.068L163.027,233.026z"/>
			<path d="M166.293,228.879l-8.523,0.224l-0.068-2.576l5.774-1.699l-5.854-1.377l-0.067-2.582l8.523-0.224l0.042,1.599
				l-6.709,0.175l6.753,1.516l0.043,1.657l-6.665,1.862l6.709-0.175L166.293,228.879z"/>
			<path d="M166.032,218.937l-8.523,0.224l-0.165-6.32l1.442-0.038l0.12,4.599l1.889-0.049l-0.112-4.279l1.437-0.038l0.112,4.279
				l2.32-0.061l-0.125-4.762l1.436-0.037L166.032,218.937z"/>
			<path d="M165.823,210.977l-8.523,0.224l-0.043-1.674l5.6-3.638l-5.692,0.15l-0.042-1.599l8.523-0.224l0.046,1.727l-5.469,3.582
				l5.559-0.145L165.823,210.977z"/>
		</g>
	</g>
</g>
<g>
	<rect x="58.391" y="207.128" style="fill:#F1F2F2;" width="13.53" height="58.076"/>
	<g>
		<g>
			<path d="M70.643,260.92l-8.522,0.253l-0.082-2.762c-0.031-1.046-0.009-1.729,0.067-2.05c0.114-0.492,0.379-0.909,0.797-1.251
				c0.419-0.342,0.968-0.523,1.646-0.543c0.523-0.016,0.966,0.066,1.329,0.246c0.361,0.179,0.648,0.412,0.862,0.699
				c0.211,0.287,0.356,0.58,0.43,0.88c0.094,0.409,0.152,1.003,0.175,1.781l0.033,1.123l3.215-0.096L70.643,260.92z M63.511,259.409
				l2.419-0.071l-0.027-0.942c-0.021-0.678-0.079-1.131-0.174-1.357c-0.096-0.226-0.24-0.401-0.435-0.525
				c-0.194-0.125-0.417-0.183-0.669-0.175c-0.31,0.009-0.563,0.108-0.759,0.296c-0.197,0.188-0.316,0.423-0.358,0.704
				c-0.032,0.206-0.04,0.62-0.021,1.24L63.511,259.409z"/>
			<path d="M61.885,253.242l-0.051-1.721l4.616-0.136c0.733-0.022,1.207-0.058,1.422-0.106c0.346-0.085,0.622-0.268,0.824-0.552
				c0.204-0.283,0.298-0.665,0.283-1.146c-0.014-0.489-0.125-0.853-0.332-1.096c-0.208-0.242-0.457-0.383-0.749-0.425
				s-0.775-0.052-1.45-0.032l-4.714,0.14l-0.051-1.721l4.476-0.132c1.024-0.031,1.747-0.006,2.173,0.075
				c0.425,0.081,0.787,0.24,1.085,0.483c0.297,0.24,0.539,0.568,0.725,0.982c0.184,0.414,0.287,0.957,0.307,1.632
				c0.025,0.814-0.051,1.433-0.226,1.86c-0.176,0.427-0.41,0.766-0.703,1.019c-0.293,0.253-0.603,0.424-0.931,0.511
				c-0.485,0.126-1.203,0.204-2.157,0.233L61.885,253.242z"/>
			<path d="M70.151,244.333l-8.453,0.251l-0.051-1.721l7.017-0.209l-0.127-4.279l1.436-0.042L70.151,244.333z"/>
			<path d="M69.708,229.421l0.055,1.872l-1.914,0.801l0.101,3.407l1.957,0.646l0.054,1.825l-8.621-3.067l-0.054-1.82L69.708,229.421
				z M66.431,232.689l-3.127,1.268l3.196,1.058L66.431,232.689z"/>
			<path d="M66.922,229.027l-0.213-1.669c0.558-0.117,0.965-0.335,1.22-0.65c0.254-0.317,0.374-0.737,0.358-1.259
				c-0.017-0.555-0.145-0.969-0.39-1.243c-0.243-0.275-0.521-0.406-0.835-0.397c-0.201,0.007-0.37,0.071-0.509,0.193
				c-0.138,0.122-0.255,0.332-0.351,0.63c-0.064,0.204-0.174,0.667-0.332,1.388c-0.201,0.93-0.464,1.586-0.785,1.967
				c-0.454,0.538-1.018,0.817-1.693,0.837c-0.434,0.012-0.843-0.098-1.228-0.334c-0.386-0.234-0.684-0.581-0.895-1.037
				c-0.211-0.458-0.327-1.014-0.346-1.668c-0.032-1.07,0.179-1.883,0.631-2.437c0.454-0.555,1.071-0.857,1.853-0.908l0.126,1.719
				c-0.435,0.086-0.745,0.254-0.931,0.501c-0.184,0.248-0.269,0.616-0.255,1.1c0.015,0.499,0.13,0.887,0.343,1.165
				c0.137,0.178,0.317,0.264,0.538,0.258c0.201-0.006,0.371-0.097,0.509-0.272c0.175-0.222,0.35-0.755,0.523-1.598
				c0.173-0.843,0.359-1.468,0.559-1.875c0.199-0.408,0.478-0.731,0.837-0.968c0.361-0.238,0.809-0.365,1.348-0.381
				c0.489-0.015,0.951,0.107,1.384,0.366c0.434,0.258,0.763,0.633,0.985,1.123c0.221,0.489,0.343,1.105,0.366,1.845
				c0.032,1.077-0.193,1.912-0.674,2.503C68.587,228.519,67.871,228.886,66.922,229.027z"/>
			<path d="M69.444,220.543l-8.522,0.253l-0.051-1.721l3.785-0.112l-3.888-3.364l-0.069-2.314l3.415,3.112l5.103-3.539l0.066,2.227
				l-3.93,2.462l1.467,1.353l2.575-0.076L69.444,220.543z"/>
			<path d="M69.192,212.021l-8.522,0.253l-0.052-1.721l8.522-0.253L69.192,212.021z"/>
		</g>
	</g>
</g>
<g>
	<polygon points="287.732,96.641 191.82,96.641 132.22,187.873 181.752,96.641 120.217,96.641 120.217,14.331 287.732,14.331 	"/>
	<g>
		<rect x="128.635" y="23.826" style="fill:none;" width="154.352" height="66"/>
		<path style="fill:#FFFFFF;" d="M134.932,35.282h-2.195v-8.273c-0.802,0.75-1.747,1.305-2.836,1.664V26.68
			c0.573-0.188,1.195-0.543,1.867-1.066s1.133-1.134,1.383-1.832h1.781V35.282z"/>
		<path style="fill:#FFFFFF;" d="M142.948,35.282h-2.195v-8.273c-0.802,0.75-1.747,1.305-2.836,1.664V26.68
			c0.573-0.188,1.195-0.543,1.867-1.066s1.133-1.134,1.383-1.832h1.781V35.282z"/>
		<path style="fill:#FFFFFF;" d="M153.667,26.633l-2.125,0.234c-0.052-0.438-0.188-0.761-0.406-0.969s-0.503-0.312-0.852-0.312
			c-0.464,0-0.855,0.208-1.176,0.625s-0.522,1.284-0.605,2.602c0.547-0.646,1.227-0.969,2.039-0.969
			c0.917,0,1.702,0.349,2.355,1.047s0.98,1.599,0.98,2.703c0,1.172-0.344,2.112-1.031,2.82s-1.57,1.062-2.648,1.062
			c-1.156,0-2.106-0.449-2.852-1.348s-1.117-2.371-1.117-4.418c0-2.099,0.388-3.612,1.164-4.539s1.784-1.391,3.023-1.391
			c0.87,0,1.59,0.243,2.16,0.73S153.51,25.707,153.667,26.633z M148.69,31.422c0,0.714,0.164,1.265,0.492,1.652
			s0.703,0.582,1.125,0.582c0.406,0,0.745-0.159,1.016-0.477s0.406-0.839,0.406-1.562c0-0.745-0.146-1.29-0.438-1.637
			s-0.656-0.52-1.094-0.52c-0.422,0-0.778,0.165-1.07,0.496S148.69,30.777,148.69,31.422z"/>
		<path style="fill:#FFFFFF;" d="M159.268,32.915l2.203-0.336c0.094,0.427,0.284,0.751,0.57,0.973s0.688,0.332,1.203,0.332
			c0.567,0,0.995-0.104,1.281-0.312c0.192-0.146,0.289-0.341,0.289-0.586c0-0.167-0.052-0.305-0.156-0.414
			c-0.109-0.104-0.354-0.2-0.734-0.289c-1.771-0.391-2.894-0.747-3.367-1.07c-0.656-0.448-0.984-1.07-0.984-1.867
			c0-0.719,0.284-1.323,0.852-1.812s1.448-0.734,2.641-0.734c1.136,0,1.979,0.185,2.531,0.555s0.933,0.917,1.141,1.641l-2.07,0.383
			c-0.089-0.323-0.257-0.57-0.504-0.742s-0.601-0.258-1.059-0.258c-0.578,0-0.992,0.081-1.242,0.242
			c-0.167,0.114-0.25,0.263-0.25,0.445c0,0.156,0.073,0.289,0.219,0.398c0.198,0.146,0.882,0.352,2.051,0.617
			s1.985,0.591,2.449,0.977c0.458,0.391,0.688,0.935,0.688,1.633c0,0.761-0.317,1.414-0.953,1.961s-1.575,0.82-2.82,0.82
			c-1.13,0-2.024-0.229-2.684-0.688S159.471,33.701,159.268,32.915z"/>
		<path style="fill:#FFFFFF;" d="M172.745,26.985v1.75h-1.5v3.344c0,0.677,0.015,1.071,0.043,1.184s0.094,0.204,0.195,0.277
			s0.226,0.109,0.371,0.109c0.203,0,0.497-0.07,0.883-0.211l0.188,1.703c-0.511,0.219-1.089,0.328-1.734,0.328
			c-0.396,0-0.753-0.066-1.07-0.199s-0.551-0.305-0.699-0.516s-0.251-0.496-0.309-0.855c-0.047-0.255-0.07-0.771-0.07-1.547v-3.617
			h-1.008v-1.75h1.008v-1.648l2.203-1.281v2.93L172.745,26.985L172.745,26.985z"/>
		<path style="fill:#FFFFFF;" d="M173.76,31.016c0-0.729,0.18-1.435,0.539-2.117s0.868-1.203,1.527-1.562s1.395-0.539,2.207-0.539
			c1.255,0,2.284,0.407,3.086,1.223s1.203,1.845,1.203,3.09c0,1.255-0.405,2.296-1.215,3.121s-1.829,1.238-3.059,1.238
			c-0.761,0-1.485-0.172-2.176-0.516s-1.215-0.848-1.574-1.512S173.76,31.969,173.76,31.016z M176.01,31.133
			c0,0.823,0.195,1.453,0.586,1.891s0.872,0.656,1.445,0.656s1.054-0.219,1.441-0.656s0.582-1.073,0.582-1.906
			c0-0.812-0.194-1.438-0.582-1.875s-0.868-0.656-1.441-0.656s-1.055,0.219-1.445,0.656S176.01,30.31,176.01,31.133z"/>
		<path style="fill:#FFFFFF;" d="M186.143,35.282h-2.195v-8.297h2.039v1.18c0.349-0.558,0.663-0.925,0.941-1.102
			s0.595-0.266,0.949-0.266c0.5,0,0.981,0.138,1.445,0.414l-0.68,1.914c-0.37-0.239-0.714-0.359-1.031-0.359
			c-0.308,0-0.567,0.085-0.781,0.254s-0.382,0.476-0.504,0.918s-0.184,1.37-0.184,2.781v2.563H186.143z"/>
		<path style="fill:#FFFFFF;" d="M195.073,32.641l2.188,0.367c-0.281,0.802-0.726,1.413-1.332,1.832s-1.366,0.629-2.277,0.629
			c-1.442,0-2.511-0.472-3.203-1.414c-0.547-0.755-0.82-1.708-0.82-2.859c0-1.375,0.359-2.452,1.078-3.23s1.628-1.168,2.727-1.168
			c1.234,0,2.208,0.407,2.922,1.223s1.055,2.063,1.023,3.746h-5.5c0.016,0.651,0.192,1.157,0.531,1.52s0.761,0.543,1.266,0.543
			c0.344,0,0.633-0.094,0.867-0.281S194.953,33.058,195.073,32.641z M195.198,30.422c-0.016-0.636-0.18-1.118-0.492-1.449
			s-0.692-0.496-1.141-0.496c-0.479,0-0.875,0.175-1.188,0.523s-0.466,0.823-0.461,1.422
			C191.916,30.422,195.198,30.422,195.198,30.422z"/>
		<path style="fill:#FFFFFF;" d="M198.393,32.915l2.203-0.336c0.094,0.427,0.284,0.751,0.57,0.973s0.688,0.332,1.203,0.332
			c0.567,0,0.995-0.104,1.281-0.312c0.192-0.146,0.289-0.341,0.289-0.586c0-0.167-0.052-0.305-0.156-0.414
			c-0.109-0.104-0.354-0.2-0.734-0.289c-1.771-0.391-2.894-0.747-3.367-1.07c-0.656-0.448-0.984-1.07-0.984-1.867
			c0-0.719,0.284-1.323,0.852-1.812s1.448-0.734,2.641-0.734c1.136,0,1.979,0.185,2.531,0.555s0.933,0.917,1.141,1.641l-2.07,0.383
			c-0.089-0.323-0.257-0.57-0.504-0.742s-0.601-0.258-1.059-0.258c-0.578,0-0.992,0.081-1.242,0.242
			c-0.167,0.114-0.25,0.263-0.25,0.445c0,0.156,0.073,0.289,0.219,0.398c0.198,0.146,0.882,0.352,2.051,0.617
			s1.985,0.591,2.449,0.977c0.458,0.391,0.688,0.935,0.688,1.633c0,0.761-0.317,1.414-0.953,1.961s-1.575,0.82-2.82,0.82
			c-1.13,0-2.024-0.229-2.684-0.688S198.596,33.701,198.393,32.915z"/>
		<path style="fill:#FFFFFF;" d="M214.151,29.516l-1.992-0.359c0.224-0.802,0.609-1.396,1.156-1.781s1.359-0.578,2.438-0.578
			c0.979,0,1.708,0.116,2.188,0.348s0.816,0.526,1.012,0.883s0.293,1.012,0.293,1.965l-0.023,2.562c0,0.729,0.035,1.267,0.105,1.613
			s0.202,0.718,0.395,1.113h-2.172c-0.058-0.146-0.128-0.362-0.211-0.648c-0.036-0.13-0.062-0.216-0.078-0.258
			c-0.375,0.364-0.776,0.638-1.203,0.82s-0.883,0.273-1.367,0.273c-0.854,0-1.527-0.231-2.02-0.695s-0.738-1.05-0.738-1.758
			c0-0.469,0.112-0.887,0.336-1.254c0.224-0.367,0.538-0.648,0.941-0.844s0.985-0.366,1.746-0.512
			c1.026-0.192,1.737-0.372,2.133-0.539v-0.219c0-0.422-0.104-0.723-0.312-0.902s-0.602-0.27-1.18-0.27
			c-0.391,0-0.695,0.077-0.914,0.23S214.287,29.13,214.151,29.516z M217.088,31.297c-0.281,0.094-0.727,0.206-1.336,0.336
			s-1.008,0.258-1.195,0.383c-0.286,0.203-0.43,0.461-0.43,0.773c0,0.308,0.114,0.573,0.344,0.797s0.521,0.336,0.875,0.336
			c0.396,0,0.773-0.13,1.133-0.391c0.266-0.198,0.44-0.44,0.523-0.727c0.058-0.188,0.086-0.544,0.086-1.07L217.088,31.297
			L217.088,31.297z"/>
		<path style="fill:#FFFFFF;" d="M228.956,35.282h-2.195v-4.234c0-0.896-0.047-1.476-0.141-1.738s-0.246-0.468-0.457-0.613
			s-0.465-0.219-0.762-0.219c-0.38,0-0.722,0.104-1.023,0.312s-0.509,0.484-0.621,0.828s-0.168,0.979-0.168,1.906v3.758h-2.195
			v-8.297h2.039v1.219c0.724-0.938,1.636-1.406,2.734-1.406c0.484,0,0.927,0.087,1.328,0.262s0.704,0.397,0.91,0.668
			s0.349,0.578,0.43,0.922s0.121,0.836,0.121,1.477L228.956,35.282L228.956,35.282z"/>
		<path style="fill:#FFFFFF;" d="M238.792,35.282h-2.039v-1.219c-0.339,0.474-0.738,0.827-1.199,1.059s-0.926,0.348-1.395,0.348
			c-0.953,0-1.77-0.384-2.449-1.152s-1.02-1.84-1.02-3.215c0-1.406,0.331-2.476,0.992-3.207s1.497-1.098,2.508-1.098
			c0.927,0,1.729,0.386,2.406,1.156v-4.125h2.195v11.453H238.792z M232.932,30.954c0,0.886,0.122,1.526,0.367,1.922
			c0.354,0.573,0.849,0.859,1.484,0.859c0.505,0,0.935-0.215,1.289-0.645s0.531-1.071,0.531-1.926c0-0.953-0.172-1.64-0.516-2.059
			s-0.784-0.629-1.32-0.629c-0.521,0-0.957,0.207-1.309,0.621S232.932,30.13,232.932,30.954z"/>
		<path style="fill:#FFFFFF;" d="M129.69,52.282V40.829h2.195v4.125c0.677-0.771,1.479-1.156,2.406-1.156
			c1.011,0,1.847,0.366,2.508,1.098s0.992,1.782,0.992,3.152c0,1.417-0.337,2.508-1.012,3.273s-1.493,1.148-2.457,1.148
			c-0.474,0-0.941-0.118-1.402-0.355s-0.858-0.587-1.191-1.051v1.219H129.69z M131.87,47.954c0,0.859,0.136,1.495,0.406,1.906
			c0.38,0.583,0.886,0.875,1.516,0.875c0.484,0,0.897-0.207,1.238-0.621s0.512-1.066,0.512-1.957c0-0.948-0.172-1.632-0.516-2.051
			s-0.784-0.629-1.32-0.629c-0.526,0-0.964,0.204-1.312,0.613S131.87,47.121,131.87,47.954z"/>
		<path style="fill:#FFFFFF;" d="M145.018,52.282V51.04c-0.302,0.442-0.699,0.792-1.191,1.047s-1.012,0.383-1.559,0.383
			c-0.558,0-1.058-0.122-1.5-0.367s-0.763-0.589-0.961-1.031s-0.297-1.055-0.297-1.836v-5.25h2.195v3.812
			c0,1.167,0.04,1.882,0.121,2.145s0.228,0.472,0.441,0.625s0.484,0.23,0.812,0.23c0.375,0,0.711-0.103,1.008-0.309
			s0.5-0.461,0.609-0.766s0.164-1.051,0.164-2.238v-3.5h2.195v8.297C147.055,52.282,145.018,52.282,145.018,52.282z"/>
		<path style="fill:#FFFFFF;" d="M148.557,49.915l2.203-0.336c0.094,0.427,0.284,0.751,0.57,0.973s0.688,0.332,1.203,0.332
			c0.567,0,0.995-0.104,1.281-0.312c0.192-0.146,0.289-0.341,0.289-0.586c0-0.167-0.052-0.305-0.156-0.414
			c-0.109-0.104-0.354-0.2-0.734-0.289c-1.771-0.391-2.894-0.747-3.367-1.07c-0.656-0.448-0.984-1.07-0.984-1.867
			c0-0.719,0.284-1.323,0.852-1.812s1.448-0.734,2.641-0.734c1.136,0,1.979,0.185,2.531,0.555s0.933,0.917,1.141,1.641l-2.07,0.383
			c-0.089-0.323-0.257-0.57-0.504-0.742s-0.601-0.258-1.059-0.258c-0.578,0-0.992,0.081-1.242,0.242
			c-0.167,0.114-0.25,0.263-0.25,0.445c0,0.156,0.073,0.289,0.219,0.398c0.198,0.146,0.882,0.352,2.051,0.617
			s1.985,0.591,2.449,0.977c0.458,0.391,0.688,0.935,0.688,1.633c0,0.761-0.317,1.414-0.953,1.961s-1.575,0.82-2.82,0.82
			c-1.13,0-2.024-0.229-2.684-0.688S148.76,50.701,148.557,49.915z"/>
		<path style="fill:#FFFFFF;" d="M158.229,42.86v-2.031h2.195v2.031H158.229z M158.229,52.282v-8.297h2.195v8.297H158.229z"/>
		<path style="fill:#FFFFFF;" d="M170.221,52.282h-2.195v-4.234c0-0.896-0.047-1.476-0.141-1.738s-0.246-0.468-0.457-0.613
			s-0.465-0.219-0.762-0.219c-0.38,0-0.722,0.104-1.023,0.312s-0.509,0.484-0.621,0.828s-0.168,0.979-0.168,1.906v3.758h-2.195
			v-8.297h2.039v1.219c0.724-0.938,1.636-1.406,2.734-1.406c0.484,0,0.927,0.087,1.328,0.262s0.704,0.397,0.91,0.668
			s0.349,0.578,0.43,0.922s0.121,0.836,0.121,1.477L170.221,52.282L170.221,52.282z"/>
		<path style="fill:#FFFFFF;" d="M177.253,49.641l2.188,0.367c-0.281,0.802-0.726,1.413-1.332,1.832s-1.366,0.629-2.277,0.629
			c-1.442,0-2.511-0.472-3.203-1.414c-0.547-0.755-0.82-1.708-0.82-2.859c0-1.375,0.359-2.452,1.078-3.23s1.628-1.168,2.727-1.168
			c1.234,0,2.208,0.407,2.922,1.223s1.055,2.063,1.023,3.746h-5.5c0.016,0.651,0.192,1.157,0.531,1.52s0.761,0.543,1.266,0.543
			c0.344,0,0.633-0.094,0.867-0.281S177.132,50.058,177.253,49.641z M177.378,47.422c-0.016-0.636-0.18-1.118-0.492-1.449
			s-0.692-0.496-1.141-0.496c-0.479,0-0.875,0.175-1.188,0.523s-0.466,0.823-0.461,1.422H177.378z"/>
		<path style="fill:#FFFFFF;" d="M180.573,49.915l2.203-0.336c0.094,0.427,0.284,0.751,0.57,0.973s0.688,0.332,1.203,0.332
			c0.567,0,0.995-0.104,1.281-0.312c0.192-0.146,0.289-0.341,0.289-0.586c0-0.167-0.052-0.305-0.156-0.414
			c-0.109-0.104-0.354-0.2-0.734-0.289c-1.771-0.391-2.894-0.747-3.367-1.07c-0.656-0.448-0.984-1.07-0.984-1.867
			c0-0.719,0.284-1.323,0.852-1.812s1.448-0.734,2.641-0.734c1.136,0,1.979,0.185,2.531,0.555s0.933,0.917,1.141,1.641l-2.07,0.383
			c-0.089-0.323-0.257-0.57-0.504-0.742s-0.601-0.258-1.059-0.258c-0.578,0-0.992,0.081-1.242,0.242
			c-0.167,0.114-0.25,0.263-0.25,0.445c0,0.156,0.073,0.289,0.219,0.398c0.198,0.146,0.882,0.352,2.051,0.617
			s1.985,0.591,2.449,0.977c0.458,0.391,0.688,0.935,0.688,1.633c0,0.761-0.317,1.414-0.953,1.961s-1.575,0.82-2.82,0.82
			c-1.13,0-2.024-0.229-2.684-0.688S180.776,50.701,180.573,49.915z"/>
		<path style="fill:#FFFFFF;" d="M189.471,49.915l2.203-0.336c0.094,0.427,0.284,0.751,0.57,0.973s0.688,0.332,1.203,0.332
			c0.567,0,0.995-0.104,1.281-0.312c0.192-0.146,0.289-0.341,0.289-0.586c0-0.167-0.052-0.305-0.156-0.414
			c-0.109-0.104-0.354-0.2-0.734-0.289c-1.771-0.391-2.894-0.747-3.367-1.07c-0.656-0.448-0.984-1.07-0.984-1.867
			c0-0.719,0.284-1.323,0.852-1.812s1.448-0.734,2.641-0.734c1.136,0,1.979,0.185,2.531,0.555s0.933,0.917,1.141,1.641l-2.07,0.383
			c-0.089-0.323-0.257-0.57-0.504-0.742s-0.601-0.258-1.059-0.258c-0.578,0-0.992,0.081-1.242,0.242
			c-0.167,0.114-0.25,0.263-0.25,0.445c0,0.156,0.073,0.289,0.219,0.398c0.198,0.146,0.882,0.352,2.051,0.617
			s1.985,0.591,2.449,0.977c0.458,0.391,0.688,0.935,0.688,1.633c0,0.761-0.317,1.414-0.953,1.961s-1.575,0.82-2.82,0.82
			c-1.13,0-2.024-0.229-2.684-0.688S189.674,50.701,189.471,49.915z"/>
		<path style="fill:#FFFFFF;" d="M203.948,49.641l2.188,0.367c-0.281,0.802-0.726,1.413-1.332,1.832s-1.366,0.629-2.277,0.629
			c-1.442,0-2.511-0.472-3.203-1.414c-0.547-0.755-0.82-1.708-0.82-2.859c0-1.375,0.359-2.452,1.078-3.23s1.628-1.168,2.727-1.168
			c1.234,0,2.208,0.407,2.922,1.223s1.055,2.063,1.023,3.746h-5.5c0.016,0.651,0.192,1.157,0.531,1.52s0.761,0.543,1.266,0.543
			c0.344,0,0.633-0.094,0.867-0.281S203.828,50.058,203.948,49.641z M204.073,47.422c-0.016-0.636-0.18-1.118-0.492-1.449
			s-0.692-0.496-1.141-0.496c-0.479,0-0.875,0.175-1.188,0.523s-0.466,0.823-0.461,1.422H204.073z"/>
		<path style="fill:#FFFFFF;" d="M207.268,49.915l2.203-0.336c0.094,0.427,0.284,0.751,0.57,0.973s0.688,0.332,1.203,0.332
			c0.567,0,0.995-0.104,1.281-0.312c0.192-0.146,0.289-0.341,0.289-0.586c0-0.167-0.052-0.305-0.156-0.414
			c-0.109-0.104-0.354-0.2-0.734-0.289c-1.771-0.391-2.894-0.747-3.367-1.07c-0.656-0.448-0.984-1.07-0.984-1.867
			c0-0.719,0.284-1.323,0.852-1.812s1.448-0.734,2.641-0.734c1.136,0,1.979,0.185,2.531,0.555s0.933,0.917,1.141,1.641l-2.07,0.383
			c-0.089-0.323-0.257-0.57-0.504-0.742s-0.601-0.258-1.059-0.258c-0.578,0-0.992,0.081-1.242,0.242
			c-0.167,0.114-0.25,0.263-0.25,0.445c0,0.156,0.073,0.289,0.219,0.398c0.198,0.146,0.882,0.352,2.051,0.617
			s1.985,0.591,2.449,0.977c0.458,0.391,0.688,0.935,0.688,1.633c0,0.761-0.317,1.414-0.953,1.961s-1.575,0.82-2.82,0.82
			c-1.13,0-2.024-0.229-2.684-0.688S207.471,50.701,207.268,49.915z"/>
		<path style="fill:#FFFFFF;" d="M137.393,69.282h-2.039v-1.219c-0.339,0.474-0.738,0.827-1.199,1.059s-0.926,0.348-1.395,0.348
			c-0.953,0-1.77-0.384-2.449-1.152s-1.02-1.84-1.02-3.215c0-1.406,0.331-2.476,0.992-3.207s1.497-1.098,2.508-1.098
			c0.927,0,1.729,0.386,2.406,1.156v-4.125h2.195v11.453H137.393z M131.534,64.954c0,0.886,0.122,1.526,0.367,1.922
			c0.354,0.573,0.849,0.859,1.484,0.859c0.505,0,0.935-0.215,1.289-0.645s0.531-1.071,0.531-1.926c0-0.953-0.172-1.64-0.516-2.059
			s-0.784-0.629-1.32-0.629c-0.521,0-0.957,0.207-1.309,0.621S131.534,64.13,131.534,64.954z"/>
		<path style="fill:#FFFFFF;" d="M144.362,66.641l2.188,0.367c-0.281,0.802-0.726,1.413-1.332,1.832s-1.366,0.629-2.277,0.629
			c-1.442,0-2.511-0.472-3.203-1.414c-0.547-0.755-0.82-1.708-0.82-2.859c0-1.375,0.359-2.452,1.078-3.23s1.628-1.168,2.727-1.168
			c1.234,0,2.208,0.407,2.922,1.223s1.055,2.063,1.023,3.746h-5.5c0.016,0.651,0.192,1.157,0.531,1.52s0.761,0.543,1.266,0.543
			c0.344,0,0.633-0.094,0.867-0.281S144.242,67.058,144.362,66.641z M144.487,64.422c-0.016-0.636-0.18-1.118-0.492-1.449
			s-0.692-0.496-1.141-0.496c-0.479,0-0.875,0.175-1.188,0.523s-0.466,0.823-0.461,1.422H144.487z"/>
		<path style="fill:#FFFFFF;" d="M147.682,66.915l2.203-0.336c0.094,0.427,0.284,0.751,0.57,0.973s0.688,0.332,1.203,0.332
			c0.567,0,0.995-0.104,1.281-0.312c0.192-0.146,0.289-0.341,0.289-0.586c0-0.167-0.052-0.305-0.156-0.414
			c-0.109-0.104-0.354-0.2-0.734-0.289c-1.771-0.391-2.894-0.747-3.367-1.07c-0.656-0.448-0.984-1.07-0.984-1.867
			c0-0.719,0.284-1.323,0.852-1.812s1.448-0.734,2.641-0.734c1.136,0,1.979,0.185,2.531,0.555s0.933,0.917,1.141,1.641l-2.07,0.383
			c-0.089-0.323-0.257-0.57-0.504-0.742s-0.601-0.258-1.059-0.258c-0.578,0-0.992,0.081-1.242,0.242
			c-0.167,0.114-0.25,0.263-0.25,0.445c0,0.156,0.073,0.289,0.219,0.398c0.198,0.146,0.882,0.352,2.051,0.617
			s1.985,0.591,2.449,0.977c0.458,0.391,0.688,0.935,0.688,1.633c0,0.761-0.317,1.414-0.953,1.961s-1.575,0.82-2.82,0.82
			c-1.13,0-2.024-0.229-2.684-0.688S147.885,67.701,147.682,66.915z"/>
		<path style="fill:#FFFFFF;" d="M161.159,60.985v1.75h-1.5v3.344c0,0.677,0.015,1.071,0.043,1.184s0.094,0.204,0.195,0.277
			s0.226,0.109,0.371,0.109c0.203,0,0.497-0.07,0.883-0.211l0.188,1.703c-0.511,0.219-1.089,0.328-1.734,0.328
			c-0.396,0-0.753-0.066-1.07-0.199s-0.551-0.305-0.699-0.516s-0.251-0.496-0.309-0.855c-0.047-0.255-0.07-0.771-0.07-1.547v-3.617
			h-1.008v-1.75h1.008v-1.648l2.203-1.281v2.93h1.499V60.985z"/>
		<path style="fill:#FFFFFF;" d="M164.784,69.282h-2.195v-8.297h2.039v1.18c0.349-0.558,0.663-0.925,0.941-1.102
			s0.595-0.266,0.949-0.266c0.5,0,0.981,0.138,1.445,0.414l-0.68,1.914c-0.37-0.239-0.714-0.359-1.031-0.359
			c-0.308,0-0.567,0.085-0.781,0.254s-0.382,0.476-0.504,0.918s-0.184,1.37-0.184,2.781v2.563H164.784z"/>
		<path style="fill:#FFFFFF;" d="M168.401,65.016c0-0.729,0.18-1.435,0.539-2.117s0.868-1.203,1.527-1.562s1.395-0.539,2.207-0.539
			c1.255,0,2.284,0.407,3.086,1.223s1.203,1.845,1.203,3.09c0,1.255-0.405,2.296-1.215,3.121s-1.829,1.238-3.059,1.238
			c-0.761,0-1.485-0.172-2.176-0.516s-1.215-0.848-1.574-1.512S168.401,65.969,168.401,65.016z M170.651,65.133
			c0,0.823,0.195,1.453,0.586,1.891s0.872,0.656,1.445,0.656s1.054-0.219,1.441-0.656s0.582-1.073,0.582-1.906
			c0-0.812-0.194-1.438-0.582-1.875s-0.868-0.656-1.441-0.656s-1.055,0.219-1.445,0.656S170.651,64.31,170.651,65.133z"/>
		<path style="fill:#FFFFFF;" d="M177.643,60.985h2.336l1.984,5.891l1.938-5.891h2.273l-2.93,7.984l-0.523,1.445
			c-0.192,0.484-0.376,0.854-0.551,1.109s-0.375,0.462-0.602,0.621s-0.505,0.282-0.836,0.371s-0.704,0.133-1.121,0.133
			c-0.422,0-0.836-0.044-1.242-0.133l-0.195-1.719c0.344,0.067,0.653,0.102,0.93,0.102c0.511,0,0.888-0.149,1.133-0.449
			s0.433-0.681,0.562-1.145L177.643,60.985z"/>
		<path style="fill:#FFFFFF;" d="M192.385,66.641l2.188,0.367c-0.281,0.802-0.726,1.413-1.332,1.832s-1.366,0.629-2.277,0.629
			c-1.442,0-2.511-0.472-3.203-1.414c-0.547-0.755-0.82-1.708-0.82-2.859c0-1.375,0.359-2.452,1.078-3.23s1.628-1.168,2.727-1.168
			c1.234,0,2.208,0.407,2.922,1.223s1.055,2.063,1.023,3.746h-5.5c0.016,0.651,0.192,1.157,0.531,1.52s0.761,0.543,1.266,0.543
			c0.344,0,0.633-0.094,0.867-0.281S192.265,67.058,192.385,66.641z M192.51,64.422c-0.016-0.636-0.18-1.118-0.492-1.449
			s-0.692-0.496-1.141-0.496c-0.479,0-0.875,0.175-1.188,0.523s-0.466,0.823-0.461,1.422H192.51z"/>
		<path style="fill:#FFFFFF;" d="M204.088,69.282h-2.039v-1.219c-0.339,0.474-0.738,0.827-1.199,1.059s-0.926,0.348-1.395,0.348
			c-0.953,0-1.77-0.384-2.449-1.152s-1.02-1.84-1.02-3.215c0-1.406,0.331-2.476,0.992-3.207s1.497-1.098,2.508-1.098
			c0.927,0,1.729,0.386,2.406,1.156v-4.125h2.195v11.453H204.088z M198.229,64.954c0,0.886,0.122,1.526,0.367,1.922
			c0.354,0.573,0.849,0.859,1.484,0.859c0.505,0,0.935-0.215,1.289-0.645s0.531-1.071,0.531-1.926c0-0.953-0.172-1.64-0.516-2.059
			s-0.784-0.629-1.32-0.629c-0.521,0-0.957,0.207-1.309,0.621S198.229,64.13,198.229,64.954z"/>
		<path style="fill:#FFFFFF;" d="M210.604,69.282V57.829h2.195v4.125c0.677-0.771,1.479-1.156,2.406-1.156
			c1.011,0,1.847,0.366,2.508,1.098s0.992,1.782,0.992,3.152c0,1.417-0.337,2.508-1.012,3.273s-1.493,1.148-2.457,1.148
			c-0.474,0-0.941-0.118-1.402-0.355s-0.858-0.587-1.191-1.051v1.219H210.604z M212.784,64.954c0,0.859,0.136,1.495,0.406,1.906
			c0.38,0.583,0.886,0.875,1.516,0.875c0.484,0,0.897-0.207,1.238-0.621s0.512-1.066,0.512-1.957c0-0.948-0.172-1.632-0.516-2.051
			s-0.784-0.629-1.32-0.629c-0.526,0-0.964,0.204-1.312,0.613S212.784,64.121,212.784,64.954z"/>
		<path style="fill:#FFFFFF;" d="M225.276,66.641l2.188,0.367c-0.281,0.802-0.726,1.413-1.332,1.832s-1.366,0.629-2.277,0.629
			c-1.442,0-2.511-0.472-3.203-1.414c-0.547-0.755-0.82-1.708-0.82-2.859c0-1.375,0.359-2.452,1.078-3.23s1.628-1.168,2.727-1.168
			c1.234,0,2.208,0.407,2.922,1.223s1.055,2.063,1.023,3.746h-5.5c0.016,0.651,0.192,1.157,0.531,1.52s0.761,0.543,1.266,0.543
			c0.344,0,0.633-0.094,0.867-0.281S225.156,67.058,225.276,66.641z M225.401,64.422c-0.016-0.636-0.18-1.118-0.492-1.449
			s-0.692-0.496-1.141-0.496c-0.479,0-0.875,0.175-1.188,0.523s-0.466,0.823-0.461,1.422H225.401z"/>
		<path style="fill:#FFFFFF;" d="M233.174,60.985v1.75h-1.5v3.344c0,0.677,0.015,1.071,0.043,1.184s0.094,0.204,0.195,0.277
			s0.226,0.109,0.371,0.109c0.203,0,0.497-0.07,0.883-0.211l0.188,1.703c-0.511,0.219-1.089,0.328-1.734,0.328
			c-0.396,0-0.753-0.066-1.07-0.199s-0.551-0.305-0.699-0.516s-0.251-0.496-0.309-0.855c-0.047-0.255-0.07-0.771-0.07-1.547v-3.617
			h-1.008v-1.75h1.008v-1.648l2.203-1.281v2.93h1.499V60.985z"/>
		<path style="fill:#FFFFFF;" d="M236.245,69.282l-2.625-8.297h2.133l1.555,5.438l1.43-5.438h2.117l1.383,5.438l1.586-5.438h2.164
			l-2.664,8.297h-2.109l-1.43-5.336l-1.406,5.336H236.245z"/>
		<path style="fill:#FFFFFF;" d="M251.948,66.641l2.188,0.367c-0.281,0.802-0.726,1.413-1.332,1.832s-1.366,0.629-2.277,0.629
			c-1.442,0-2.511-0.472-3.203-1.414c-0.547-0.755-0.82-1.708-0.82-2.859c0-1.375,0.359-2.452,1.078-3.23s1.628-1.168,2.727-1.168
			c1.234,0,2.208,0.407,2.922,1.223s1.055,2.063,1.023,3.746h-5.5c0.016,0.651,0.192,1.157,0.531,1.52s0.761,0.543,1.266,0.543
			c0.344,0,0.633-0.094,0.867-0.281S251.828,67.058,251.948,66.641z M252.073,64.422c-0.016-0.636-0.18-1.118-0.492-1.449
			s-0.692-0.496-1.141-0.496c-0.479,0-0.875,0.175-1.188,0.523s-0.466,0.823-0.461,1.422H252.073z"/>
		<path style="fill:#FFFFFF;" d="M260.846,66.641l2.188,0.367c-0.281,0.802-0.726,1.413-1.332,1.832s-1.366,0.629-2.277,0.629
			c-1.442,0-2.511-0.472-3.203-1.414c-0.547-0.755-0.82-1.708-0.82-2.859c0-1.375,0.359-2.452,1.078-3.23
			c0.719-0.778,1.628-1.168,2.727-1.168c1.234,0,2.208,0.407,2.922,1.223s1.055,2.063,1.023,3.746h-5.5
			c0.016,0.651,0.192,1.157,0.531,1.52s0.761,0.543,1.266,0.543c0.344,0,0.633-0.094,0.867-0.281S260.726,67.058,260.846,66.641z
			 M260.971,64.422c-0.016-0.636-0.18-1.118-0.492-1.449s-0.692-0.496-1.141-0.496c-0.479,0-0.875,0.175-1.188,0.523
			s-0.466,0.823-0.461,1.422H260.971z"/>
		<path style="fill:#FFFFFF;" d="M272.487,69.282h-2.195v-4.234c0-0.896-0.047-1.476-0.141-1.738s-0.246-0.468-0.457-0.613
			s-0.465-0.219-0.762-0.219c-0.38,0-0.722,0.104-1.023,0.312s-0.509,0.484-0.621,0.828s-0.168,0.979-0.168,1.906v3.758h-2.195
			v-8.297h2.039v1.219c0.724-0.938,1.636-1.406,2.734-1.406c0.484,0,0.927,0.087,1.328,0.262s0.704,0.397,0.91,0.668
			s0.349,0.578,0.43,0.922s0.121,0.836,0.121,1.477V69.282z"/>
		<path style="fill:#FFFFFF;" d="M129.792,74.829h4.227c0.953,0,1.68,0.073,2.18,0.219c0.672,0.198,1.247,0.55,1.727,1.055
			s0.844,1.124,1.094,1.855s0.375,1.634,0.375,2.707c0,0.942-0.117,1.755-0.352,2.438c-0.286,0.833-0.695,1.508-1.227,2.023
			c-0.401,0.391-0.942,0.695-1.625,0.914c-0.511,0.161-1.192,0.242-2.047,0.242h-4.352L129.792,74.829L129.792,74.829z
			 M132.104,76.766v7.586h1.727c0.646,0,1.112-0.036,1.398-0.109c0.375-0.094,0.687-0.253,0.934-0.477s0.449-0.593,0.605-1.105
			s0.234-1.212,0.234-2.098s-0.078-1.565-0.234-2.039s-0.375-0.844-0.656-1.109s-0.638-0.445-1.07-0.539
			c-0.323-0.073-0.956-0.109-1.898-0.109L132.104,76.766L132.104,76.766z"/>
		<path style="fill:#FFFFFF;" d="M142.979,80.516l-1.992-0.359c0.224-0.802,0.609-1.396,1.156-1.781s1.359-0.578,2.438-0.578
			c0.979,0,1.708,0.116,2.188,0.348s0.816,0.526,1.012,0.883s0.293,1.012,0.293,1.965l-0.023,2.562c0,0.729,0.035,1.267,0.105,1.613
			s0.202,0.718,0.395,1.113h-2.172c-0.058-0.146-0.128-0.362-0.211-0.648c-0.036-0.13-0.062-0.216-0.078-0.258
			c-0.375,0.364-0.776,0.638-1.203,0.82s-0.883,0.273-1.367,0.273c-0.854,0-1.527-0.231-2.02-0.695s-0.738-1.05-0.738-1.758
			c0-0.469,0.112-0.887,0.336-1.254s0.538-0.648,0.941-0.844s0.985-0.366,1.746-0.512c1.026-0.192,1.737-0.372,2.133-0.539v-0.219
			c0-0.422-0.104-0.723-0.312-0.902s-0.602-0.27-1.18-0.27c-0.391,0-0.695,0.077-0.914,0.23S143.115,80.13,142.979,80.516z
			 M145.917,82.297c-0.281,0.094-0.727,0.206-1.336,0.336s-1.008,0.258-1.195,0.383c-0.286,0.203-0.43,0.461-0.43,0.773
			c0,0.308,0.114,0.573,0.344,0.797s0.521,0.336,0.875,0.336c0.396,0,0.773-0.13,1.133-0.391c0.266-0.198,0.44-0.44,0.523-0.727
			c0.058-0.188,0.086-0.544,0.086-1.07L145.917,82.297L145.917,82.297z"/>
		<path style="fill:#FFFFFF;" d="M150.073,77.985h2.023v1.133c0.724-0.88,1.586-1.32,2.586-1.32c0.531,0,0.992,0.109,1.383,0.328
			s0.711,0.55,0.961,0.992c0.364-0.442,0.758-0.773,1.18-0.992s0.872-0.328,1.352-0.328c0.609,0,1.125,0.124,1.547,0.371
			s0.737,0.61,0.945,1.09c0.151,0.354,0.227,0.927,0.227,1.719v5.305h-2.195V81.54c0-0.823-0.075-1.354-0.227-1.594
			c-0.203-0.312-0.516-0.469-0.938-0.469c-0.308,0-0.597,0.094-0.867,0.281s-0.466,0.462-0.586,0.824s-0.18,0.934-0.18,1.715v3.984
			h-2.195v-4.547c0-0.808-0.039-1.328-0.117-1.562s-0.199-0.409-0.363-0.523s-0.387-0.172-0.668-0.172
			c-0.339,0-0.644,0.091-0.914,0.273s-0.465,0.445-0.582,0.789s-0.176,0.914-0.176,1.711v4.031h-2.195L150.073,77.985
			L150.073,77.985z"/>
		<path style="fill:#FFFFFF;" d="M169.268,83.641l2.188,0.367c-0.281,0.802-0.726,1.413-1.332,1.832s-1.366,0.629-2.277,0.629
			c-1.442,0-2.511-0.472-3.203-1.414c-0.547-0.755-0.82-1.708-0.82-2.859c0-1.375,0.359-2.452,1.078-3.23s1.628-1.168,2.727-1.168
			c1.234,0,2.208,0.407,2.922,1.223s1.055,2.063,1.023,3.746h-5.5c0.016,0.651,0.192,1.157,0.531,1.52s0.761,0.543,1.266,0.543
			c0.344,0,0.633-0.094,0.867-0.281S169.148,84.058,169.268,83.641z M169.393,81.422c-0.016-0.636-0.18-1.118-0.492-1.449
			s-0.692-0.496-1.141-0.496c-0.479,0-0.875,0.175-1.188,0.523s-0.466,0.823-0.461,1.422H169.393z"/>
		<path style="fill:#FFFFFF;" d="M180.909,86.282h-2.195v-4.234c0-0.896-0.047-1.476-0.141-1.738s-0.246-0.468-0.457-0.613
			s-0.465-0.219-0.762-0.219c-0.38,0-0.722,0.104-1.023,0.312s-0.509,0.484-0.621,0.828s-0.168,0.979-0.168,1.906v3.758h-2.195
			v-8.297h2.039v1.219c0.724-0.938,1.636-1.406,2.734-1.406c0.484,0,0.927,0.087,1.328,0.262s0.704,0.397,0.91,0.668
			s0.349,0.578,0.43,0.922s0.121,0.836,0.121,1.477L180.909,86.282L180.909,86.282z"/>
		<path style="fill:#FFFFFF;" d="M189.221,80.516l-1.992-0.359c0.224-0.802,0.609-1.396,1.156-1.781s1.359-0.578,2.438-0.578
			c0.979,0,1.708,0.116,2.188,0.348s0.816,0.526,1.012,0.883s0.293,1.012,0.293,1.965l-0.023,2.562c0,0.729,0.035,1.267,0.105,1.613
			s0.202,0.718,0.395,1.113h-2.172c-0.058-0.146-0.128-0.362-0.211-0.648c-0.036-0.13-0.062-0.216-0.078-0.258
			c-0.375,0.364-0.776,0.638-1.203,0.82s-0.883,0.273-1.367,0.273c-0.854,0-1.527-0.231-2.02-0.695s-0.738-1.05-0.738-1.758
			c0-0.469,0.112-0.887,0.336-1.254s0.538-0.648,0.941-0.844s0.985-0.366,1.746-0.512c1.026-0.192,1.737-0.372,2.133-0.539v-0.219
			c0-0.422-0.104-0.723-0.312-0.902s-0.602-0.27-1.18-0.27c-0.391,0-0.695,0.077-0.914,0.23S189.357,80.13,189.221,80.516z
			 M192.159,82.297c-0.281,0.094-0.727,0.206-1.336,0.336s-1.008,0.258-1.195,0.383c-0.286,0.203-0.43,0.461-0.43,0.773
			c0,0.308,0.114,0.573,0.344,0.797s0.521,0.336,0.875,0.336c0.396,0,0.773-0.13,1.133-0.391c0.266-0.198,0.44-0.44,0.523-0.727
			c0.058-0.188,0.086-0.544,0.086-1.07L192.159,82.297L192.159,82.297z"/>
		<path style="fill:#FFFFFF;" d="M204.026,86.282h-2.195v-4.234c0-0.896-0.047-1.476-0.141-1.738s-0.246-0.468-0.457-0.613
			s-0.465-0.219-0.762-0.219c-0.38,0-0.722,0.104-1.023,0.312s-0.509,0.484-0.621,0.828s-0.168,0.979-0.168,1.906v3.758h-2.195
			v-8.297h2.039v1.219c0.724-0.938,1.636-1.406,2.734-1.406c0.484,0,0.927,0.087,1.328,0.262s0.704,0.397,0.91,0.668
			s0.349,0.578,0.43,0.922s0.121,0.836,0.121,1.477L204.026,86.282L204.026,86.282z"/>
		<path style="fill:#FFFFFF;" d="M213.862,86.282h-2.039v-1.219c-0.339,0.474-0.738,0.827-1.199,1.059s-0.926,0.348-1.395,0.348
			c-0.953,0-1.77-0.384-2.449-1.152s-1.02-1.84-1.02-3.215c0-1.406,0.331-2.476,0.992-3.207s1.497-1.098,2.508-1.098
			c0.927,0,1.729,0.386,2.406,1.156v-4.125h2.195v11.453H213.862z M208.003,81.954c0,0.886,0.122,1.526,0.367,1.922
			c0.354,0.573,0.849,0.859,1.484,0.859c0.505,0,0.935-0.215,1.289-0.645s0.531-1.071,0.531-1.926c0-0.953-0.172-1.64-0.516-2.059
			s-0.784-0.629-1.32-0.629c-0.521,0-0.957,0.207-1.309,0.621S208.003,81.13,208.003,81.954z"/>
		<path style="fill:#FFFFFF;" d="M220.487,86.282V74.829h3.711c1.406,0,2.323,0.058,2.75,0.172c0.656,0.172,1.206,0.546,1.648,1.121
			s0.664,1.319,0.664,2.23c0,0.703-0.128,1.294-0.383,1.773s-0.579,0.855-0.973,1.129s-0.793,0.454-1.199,0.543
			c-0.552,0.109-1.352,0.164-2.398,0.164h-1.508v4.32L220.487,86.282L220.487,86.282z M222.799,76.766v3.25h1.266
			c0.911,0,1.521-0.06,1.828-0.18s0.548-0.308,0.723-0.562s0.262-0.552,0.262-0.891c0-0.417-0.122-0.761-0.367-1.031
			s-0.555-0.44-0.93-0.508c-0.276-0.052-0.831-0.078-1.664-0.078H222.799z"/>
		<path style="fill:#FFFFFF;" d="M236.604,86.282V85.04c-0.302,0.442-0.699,0.792-1.191,1.047s-1.012,0.383-1.559,0.383
			c-0.558,0-1.058-0.122-1.5-0.367s-0.763-0.589-0.961-1.031s-0.297-1.055-0.297-1.836v-5.25h2.195v3.812
			c0,1.167,0.04,1.882,0.121,2.145s0.228,0.472,0.441,0.625s0.484,0.23,0.812,0.23c0.375,0,0.711-0.103,1.008-0.309
			s0.5-0.461,0.609-0.766s0.164-1.051,0.164-2.238v-3.5h2.195v8.297C238.641,86.282,236.604,86.282,236.604,86.282z"/>
		<path style="fill:#FFFFFF;" d="M240.917,86.282V74.829h2.195v11.453C243.112,86.282,240.917,86.282,240.917,86.282z"/>
		<path style="fill:#FFFFFF;" d="M247.003,80.516l-1.992-0.359c0.224-0.802,0.609-1.396,1.156-1.781s1.359-0.578,2.438-0.578
			c0.979,0,1.708,0.116,2.188,0.348s0.816,0.526,1.012,0.883s0.293,1.012,0.293,1.965l-0.023,2.562c0,0.729,0.035,1.267,0.105,1.613
			s0.202,0.718,0.395,1.113h-2.172c-0.058-0.146-0.128-0.362-0.211-0.648c-0.036-0.13-0.062-0.216-0.078-0.258
			c-0.375,0.364-0.776,0.638-1.203,0.82s-0.883,0.273-1.367,0.273c-0.854,0-1.527-0.231-2.02-0.695s-0.738-1.05-0.738-1.758
			c0-0.469,0.112-0.887,0.336-1.254s0.538-0.648,0.941-0.844s0.985-0.366,1.746-0.512c1.026-0.192,1.737-0.372,2.133-0.539v-0.219
			c0-0.422-0.104-0.723-0.312-0.902s-0.602-0.27-1.18-0.27c-0.391,0-0.695,0.077-0.914,0.23S247.138,80.13,247.003,80.516z
			 M249.94,82.297c-0.281,0.094-0.727,0.206-1.336,0.336s-1.008,0.258-1.195,0.383c-0.286,0.203-0.43,0.461-0.43,0.773
			c0,0.308,0.114,0.573,0.344,0.797s0.521,0.336,0.875,0.336c0.396,0,0.773-0.13,1.133-0.391c0.266-0.198,0.44-0.44,0.523-0.727
			c0.058-0.188,0.086-0.544,0.086-1.07L249.94,82.297L249.94,82.297z"/>
		<path style="fill:#FFFFFF;" d="M253.487,83.915l2.203-0.336c0.094,0.427,0.284,0.751,0.57,0.973s0.688,0.332,1.203,0.332
			c0.567,0,0.995-0.104,1.281-0.312c0.192-0.146,0.289-0.341,0.289-0.586c0-0.167-0.052-0.305-0.156-0.414
			c-0.109-0.104-0.354-0.2-0.734-0.289c-1.771-0.391-2.894-0.747-3.367-1.07c-0.656-0.448-0.984-1.07-0.984-1.867
			c0-0.719,0.284-1.323,0.852-1.812s1.448-0.734,2.641-0.734c1.136,0,1.979,0.185,2.531,0.555s0.933,0.917,1.141,1.641l-2.07,0.383
			c-0.089-0.323-0.257-0.57-0.504-0.742s-0.601-0.258-1.059-0.258c-0.578,0-0.992,0.081-1.242,0.242
			c-0.167,0.114-0.25,0.263-0.25,0.445c0,0.156,0.073,0.289,0.219,0.398c0.198,0.146,0.882,0.352,2.051,0.617
			s1.985,0.591,2.449,0.977c0.458,0.391,0.688,0.935,0.688,1.633c0,0.761-0.317,1.414-0.953,1.961s-1.575,0.82-2.82,0.82
			c-1.13,0-2.024-0.229-2.684-0.688S253.69,84.701,253.487,83.915z"/>
		<path style="fill:#FFFFFF;" d="M263.081,86.282V74.829h2.195v6.078l2.57-2.922h2.703l-2.836,3.031l3.039,5.266h-2.367
			l-2.086-3.727l-1.023,1.07v2.656L263.081,86.282L263.081,86.282z"/>
		<path style="fill:#FFFFFF;" d="M272.057,76.86v-2.031h2.195v2.031H272.057z M272.057,86.282v-8.297h2.195v8.297H272.057z"/>
		<path style="fill:#FFFFFF;" d="M276.503,86.282v-2.195h2.195v2.195H276.503z"/>
	</g>
</g>
<circle style="fill:#8C001A;stroke:#231F20;stroke-width:0.95;stroke-miterlimit:10;" cx="65.06" cy="194.26" r="6.267"/>
<ellipse style="fill:#8C001A;stroke:#000000;stroke-width:1.5;stroke-miterlimit:10;" cx="66.959" cy="193.915" rx="6.077" ry="6.266"/>
<circle style="fill:#8C001A;stroke:#000000;stroke-width:1.5;stroke-miterlimit:10;" cx="64.714" cy="194.26" r="6.267"/>
<ellipse style="fill:#8C001A;stroke:#000000;stroke-width:1.5;stroke-miterlimit:10;" cx="111.33" cy="231.375" rx="6.267" ry="6.076"/>
<circle style="fill:#8C001A;stroke:#000000;stroke-width:1.5;stroke-miterlimit:10;" cx="238.918" cy="492.039" r="6.077"/>
<ellipse style="fill:#8C001A;stroke:#000000;stroke-width:1.5;stroke-miterlimit:10;" cx="239.608" cy="472.877" rx="6.077" ry="6.266"/>
<ellipse style="fill:#8C001A;stroke:#000000;stroke-width:1.5;stroke-miterlimit:10;" cx="113.747" cy="231.375" rx="6.267" ry="6.076"/>
<ellipse style="fill:#8C001A;stroke:#000000;stroke-width:1.5;stroke-miterlimit:10;" cx="238.576" cy="121.992" rx="6.267" ry="6.076"/>
<ellipse style="fill:#8C001A;stroke:#000000;stroke-width:1.5;stroke-miterlimit:10;" cx="59.19" cy="196.505" rx="6.267" ry="6.076"/>
<line style="fill:none;stroke:#8C001A;stroke-width:2;stroke-miterlimit:10;" x1="239.904" y1="133.472" x2="239.904" y2="326.319"/>
</svg>
