<?xml version="1.0" encoding="utf-8"?>
<!-- Generator: Adobe Illustrator 22.0.1, SVG Export Plug-In . SVG Version: 6.00 Build 0)  -->
<svg version="1.1" id="_x32__mile_stretch" xmlns="http://www.w3.org/2000/svg" xmlns:xlink="http://www.w3.org/1999/xlink" x="0px"
	 y="0px" viewBox="0 0 610 622" style="enable-background:new 0 0 610 622;" xml:space="preserve">
<rect x="240.784" y="134.394" style="fill:#D7153A;stroke:#FFFFFF;stroke-width:1.5;" width="59.685" height="6.682"/>
<rect x="240.784" y="182.311" style="fill:#D7153A;stroke:#FFFFFF;stroke-width:1.5;" width="59.685" height="6.682"/>
<rect x="370.786" y="458.336" style="fill:#D7153A;stroke:#FFFFFF;stroke-width:1.5;" width="19.501" height="6.682"/>
<g>
	<text transform="matrix(0.9997 -0.0262 0.0262 0.9997 14.3176 466.317)" style="font-family:'Arial-BoldMT'; font-size:14px;">63RD</text>
</g>
<g>
	<text transform="matrix(0.9997 -0.0262 0.0262 0.9997 14.3176 466.317)" style="font-family:'Arial-BoldMT'; font-size:14px;">63RD</text>
</g>
<g>
	<text transform="matrix(0.9996 -0.0282 0.0282 0.9996 340.1909 181.52)" style="font-family:'Arial-BoldMT'; font-size:14px;">ROOSEVELT</text>
</g>
<g>
	<polygon points="249.453,77.826 332.347,77.826 332.347,121.492 301.453,121.492 276.487,137.326 291.453,121.492 249.453,121.492 
			"/>
	<rect x="256.428" y="85.838" style="fill:none;" width="68.29" height="29.796"/>
	<text transform="matrix(1 0 0 1 256.4282 95.861)"><tspan x="0" y="0" style="fill:#FFFFFF; font-family:'Arial-BoldMT'; font-size:14px;">Areas </tspan><tspan x="0" y="15.826" style="fill:#FFFFFF; font-family:'Arial-BoldMT'; font-size:14px;">destroyed</tspan></text>
</g>
</svg>
