<?xml version="1.0" encoding="utf-8"?>
<!-- Generator: Adobe Illustrator 22.0.1, SVG Export Plug-In . SVG Version: 6.00 Build 0)  -->
<svg version="1.1" id="madsion-street2" xmlns="http://www.w3.org/2000/svg" xmlns:xlink="http://www.w3.org/1999/xlink" x="0px"
	 y="0px" viewBox="0 0 400 602.122" style="enable-background:new 0 0 400 602.122;" xml:space="preserve">
<rect x="72.829" y="183.369" style="fill:#D7153A;stroke:#000000;stroke-width:1.5;" width="97.45" height="9.093"/>
<g>
	<rect x="153.607" y="196.953" style="fill:#F1F2F2;" width="15.754" height="49.503"/>
	<g>
		<g>
			<path d="M158.219,243.784l-0.082-3.146c-0.018-0.709,0.022-1.251,0.12-1.626c0.133-0.504,0.384-0.94,0.75-1.305
				c0.367-0.366,0.821-0.651,1.361-0.851c0.538-0.2,1.208-0.311,2.007-0.332c0.702-0.018,1.309,0.053,1.82,0.214
				c0.626,0.197,1.136,0.488,1.53,0.872c0.298,0.291,0.536,0.689,0.712,1.192c0.13,0.376,0.204,0.883,0.22,1.518l0.085,3.239
				L158.219,243.784z M159.616,242.025l5.646-0.148l-0.034-1.285c-0.012-0.481-0.049-0.826-0.108-1.038
				c-0.077-0.278-0.202-0.506-0.373-0.685c-0.172-0.18-0.45-0.323-0.834-0.43c-0.386-0.106-0.907-0.151-1.566-0.134
				c-0.659,0.017-1.163,0.089-1.513,0.214c-0.35,0.125-0.621,0.296-0.813,0.51c-0.193,0.214-0.319,0.484-0.381,0.808
				c-0.047,0.241-0.063,0.712-0.044,1.414L159.616,242.025z"/>
			<path d="M166.316,227.269l0.049,1.872l-1.917,0.795l0.089,3.407l1.955,0.653l0.047,1.825l-8.61-3.096l-0.048-1.82
				L166.316,227.269z M163.027,230.526l-3.132,1.258l3.193,1.068L163.027,230.526z"/>
			<path d="M166.293,226.379l-8.523,0.224l-0.068-2.576l5.774-1.699l-5.854-1.377l-0.067-2.582l8.523-0.224l0.042,1.599
				l-6.709,0.175l6.753,1.516l0.043,1.657l-6.665,1.862l6.709-0.175L166.293,226.379z"/>
			<path d="M166.032,216.437l-8.523,0.224l-0.165-6.32l1.442-0.038l0.12,4.599l1.889-0.049l-0.112-4.279l1.437-0.038l0.112,4.279
				l2.32-0.061l-0.125-4.762l1.436-0.037L166.032,216.437z"/>
			<path d="M165.823,208.477l-8.523,0.224l-0.043-1.674l5.6-3.638l-5.692,0.15l-0.042-1.599l8.523-0.224l0.046,1.727l-5.469,3.582
				l5.559-0.145L165.823,208.477z"/>
		</g>
	</g>
</g>
<g>
	<rect x="58.391" y="204.628" style="fill:#F1F2F2;" width="13.53" height="58.076"/>
	<g>
		<g>
			<path d="M70.643,258.42l-8.522,0.253l-0.082-2.762c-0.031-1.046-0.009-1.729,0.067-2.05c0.114-0.492,0.379-0.909,0.797-1.251
				c0.419-0.342,0.968-0.523,1.646-0.543c0.523-0.016,0.966,0.066,1.329,0.246c0.361,0.179,0.648,0.412,0.862,0.699
				c0.211,0.287,0.356,0.58,0.43,0.88c0.094,0.409,0.152,1.003,0.175,1.781l0.033,1.123l3.215-0.096L70.643,258.42z M63.511,256.909
				l2.419-0.071l-0.027-0.942c-0.021-0.678-0.079-1.131-0.174-1.357c-0.096-0.226-0.24-0.401-0.435-0.525
				c-0.194-0.125-0.417-0.183-0.669-0.175c-0.31,0.009-0.563,0.108-0.759,0.296c-0.197,0.188-0.316,0.423-0.358,0.704
				c-0.032,0.206-0.04,0.62-0.021,1.24L63.511,256.909z"/>
			<path d="M61.885,250.742l-0.051-1.721l4.616-0.136c0.733-0.022,1.207-0.058,1.422-0.106c0.346-0.085,0.622-0.268,0.824-0.552
				c0.204-0.283,0.298-0.665,0.283-1.146c-0.014-0.489-0.125-0.853-0.332-1.096c-0.208-0.242-0.457-0.383-0.749-0.425
				c-0.292-0.042-0.775-0.052-1.45-0.032l-4.714,0.14l-0.051-1.721l4.476-0.132c1.024-0.031,1.747-0.006,2.173,0.075
				c0.425,0.081,0.787,0.24,1.085,0.483c0.297,0.24,0.539,0.568,0.725,0.982c0.184,0.414,0.287,0.957,0.307,1.632
				c0.025,0.814-0.051,1.433-0.226,1.86c-0.176,0.427-0.41,0.766-0.703,1.019c-0.293,0.253-0.603,0.424-0.931,0.511
				c-0.485,0.126-1.203,0.204-2.157,0.233L61.885,250.742z"/>
			<path d="M70.151,241.833l-8.453,0.251l-0.051-1.721l7.017-0.209l-0.127-4.279l1.436-0.042L70.151,241.833z"/>
			<path d="M69.708,226.921l0.055,1.872l-1.914,0.801l0.101,3.407l1.957,0.646l0.054,1.825l-8.621-3.067l-0.054-1.82L69.708,226.921
				z M66.431,230.189l-3.127,1.268l3.196,1.058L66.431,230.189z"/>
			<path d="M66.922,226.527l-0.213-1.669c0.558-0.117,0.965-0.335,1.22-0.65c0.254-0.317,0.374-0.737,0.358-1.259
				c-0.017-0.555-0.145-0.969-0.39-1.243c-0.243-0.275-0.521-0.406-0.835-0.397c-0.201,0.007-0.37,0.071-0.509,0.193
				c-0.138,0.122-0.255,0.332-0.351,0.63c-0.064,0.204-0.174,0.667-0.332,1.388c-0.201,0.93-0.464,1.586-0.785,1.967
				c-0.454,0.538-1.018,0.817-1.693,0.837c-0.434,0.012-0.843-0.098-1.228-0.334c-0.386-0.234-0.684-0.581-0.895-1.037
				c-0.211-0.458-0.327-1.014-0.346-1.668c-0.032-1.07,0.179-1.883,0.631-2.437c0.454-0.555,1.071-0.857,1.853-0.908l0.126,1.719
				c-0.435,0.086-0.745,0.254-0.931,0.501c-0.184,0.248-0.269,0.616-0.255,1.1c0.015,0.499,0.13,0.887,0.343,1.165
				c0.137,0.178,0.317,0.264,0.538,0.258c0.201-0.006,0.371-0.097,0.509-0.272c0.175-0.222,0.35-0.755,0.523-1.598
				c0.173-0.843,0.359-1.468,0.559-1.875c0.199-0.408,0.478-0.731,0.837-0.968c0.361-0.238,0.809-0.365,1.348-0.381
				c0.489-0.015,0.951,0.107,1.384,0.366c0.434,0.258,0.763,0.633,0.985,1.123c0.221,0.489,0.343,1.105,0.366,1.845
				c0.032,1.077-0.193,1.912-0.674,2.503C68.587,226.019,67.871,226.386,66.922,226.527z"/>
			<path d="M69.444,218.043l-8.522,0.253l-0.051-1.721l3.785-0.112l-3.888-3.364l-0.069-2.314l3.415,3.112l5.103-3.539l0.066,2.227
				l-3.93,2.462l1.467,1.353l2.575-0.076L69.444,218.043z"/>
			<path d="M69.192,209.521l-8.522,0.253l-0.052-1.721l8.522-0.253L69.192,209.521z"/>
		</g>
	</g>
</g>
<g>
	<polygon points="295.232,96.641 191.82,96.641 132.22,187.873 181.752,96.641 120.217,96.641 120.217,14.331 295.232,14.331 	"/>
	<g>
		<rect x="128.635" y="23.826" style="fill:none;" width="163.852" height="66"/>
		<path style="fill:#FFFFFF;" d="M134.539,34.566h-2.058V26.81c-0.753,0.703-1.639,1.223-2.659,1.56v-1.868
			c0.537-0.176,1.12-0.509,1.751-0.999c0.629-0.491,1.062-1.063,1.296-1.718h1.67V34.566z"/>
		<path style="fill:#FFFFFF;" d="M142.052,34.566h-2.058V26.81c-0.753,0.703-1.639,1.223-2.659,1.56v-1.868
			c0.537-0.176,1.12-0.509,1.751-0.999c0.629-0.491,1.062-1.063,1.296-1.718h1.67V34.566z"/>
		<path style="fill:#FFFFFF;" d="M152.1,26.458l-1.992,0.219c-0.049-0.41-0.176-0.712-0.381-0.908
			c-0.205-0.194-0.471-0.293-0.798-0.293c-0.435,0-0.802,0.196-1.103,0.586c-0.3,0.392-0.489,1.204-0.567,2.439
			c0.513-0.605,1.149-0.908,1.911-0.908c0.859,0,1.596,0.327,2.209,0.981c0.612,0.654,0.919,1.499,0.919,2.534
			c0,1.099-0.322,1.98-0.967,2.645s-1.472,0.996-2.483,0.996c-1.084,0-1.975-0.422-2.673-1.264
			c-0.698-0.843-1.048-2.223-1.048-4.143c0-1.967,0.364-3.386,1.092-4.255s1.672-1.304,2.834-1.304c0.815,0,1.491,0.229,2.025,0.685
			C151.614,24.926,151.954,25.589,152.1,26.458z M147.435,30.948c0,0.669,0.153,1.186,0.462,1.549
			c0.307,0.364,0.658,0.546,1.055,0.546c0.381,0,0.697-0.148,0.951-0.447c0.254-0.297,0.381-0.785,0.381-1.465
			c0-0.697-0.137-1.209-0.41-1.534c-0.273-0.324-0.615-0.487-1.025-0.487c-0.395,0-0.729,0.155-1.003,0.466
			C147.572,29.884,147.435,30.342,147.435,30.948z"/>
		<path style="fill:#FFFFFF;" d="M157.352,32.347l2.065-0.315c0.088,0.4,0.266,0.704,0.534,0.912
			c0.269,0.207,0.645,0.312,1.129,0.312c0.531,0,0.932-0.098,1.201-0.293c0.18-0.137,0.271-0.32,0.271-0.55
			c0-0.156-0.049-0.286-0.146-0.388c-0.103-0.098-0.332-0.188-0.688-0.271c-1.66-0.366-2.713-0.7-3.156-1.004
			c-0.615-0.419-0.924-1.003-0.924-1.75c0-0.674,0.267-1.24,0.799-1.699s1.357-0.688,2.476-0.688c1.064,0,1.855,0.174,2.373,0.521
			s0.874,0.859,1.069,1.537l-1.941,0.359c-0.083-0.303-0.24-0.535-0.472-0.695c-0.232-0.162-0.563-0.242-0.993-0.242
			c-0.541,0-0.93,0.076-1.164,0.227c-0.156,0.108-0.234,0.247-0.234,0.418c0,0.146,0.068,0.271,0.205,0.373
			c0.186,0.138,0.826,0.33,1.923,0.579c1.096,0.249,1.861,0.555,2.296,0.915c0.43,0.367,0.645,0.877,0.645,1.531
			c0,0.713-0.298,1.326-0.894,1.838c-0.596,0.514-1.478,0.77-2.644,0.77c-1.061,0-1.898-0.215-2.517-0.645
			C157.947,33.667,157.543,33.084,157.352,32.347z"/>
		<path style="fill:#FFFFFF;" d="M169.986,26.788v1.641h-1.406v3.135c0,0.635,0.014,1.005,0.04,1.109
			c0.027,0.105,0.088,0.192,0.184,0.261c0.095,0.068,0.211,0.102,0.348,0.102c0.19,0,0.466-0.065,0.828-0.197l0.176,1.597
			c-0.479,0.205-1.021,0.308-1.627,0.308c-0.371,0-0.705-0.062-1.003-0.187c-0.298-0.125-0.517-0.286-0.655-0.483
			c-0.14-0.198-0.236-0.465-0.289-0.803c-0.045-0.238-0.066-0.722-0.066-1.449v-3.392h-0.945v-1.641h0.945v-1.546l2.065-1.201v2.747
			H169.986z"/>
		<path style="fill:#FFFFFF;" d="M170.939,30.567c0-0.684,0.169-1.345,0.505-1.985c0.338-0.639,0.814-1.127,1.433-1.465
			c0.617-0.336,1.308-0.505,2.069-0.505c1.176,0,2.141,0.382,2.893,1.146c0.752,0.764,1.128,1.729,1.128,2.896
			c0,1.177-0.38,2.152-1.139,2.926c-0.76,0.774-1.716,1.161-2.868,1.161c-0.713,0-1.393-0.161-2.039-0.483
			c-0.647-0.322-1.139-0.795-1.477-1.417C171.108,32.218,170.939,31.46,170.939,30.567z M173.048,30.677
			c0,0.771,0.183,1.361,0.55,1.771c0.365,0.41,0.817,0.615,1.354,0.615s0.987-0.205,1.352-0.615c0.363-0.41,0.546-1.005,0.546-1.787
			c0-0.762-0.183-1.348-0.546-1.758c-0.364-0.41-0.814-0.615-1.352-0.615s-0.989,0.205-1.354,0.615
			C173.231,29.314,173.048,29.906,173.048,30.677z"/>
		<path style="fill:#FFFFFF;" d="M182.547,34.566h-2.059v-7.778h1.912v1.106c0.327-0.522,0.621-0.867,0.883-1.033
			c0.261-0.166,0.558-0.249,0.89-0.249c0.469,0,0.92,0.13,1.354,0.388l-0.637,1.795c-0.347-0.225-0.669-0.337-0.967-0.337
			c-0.288,0-0.532,0.079-0.732,0.238c-0.2,0.158-0.357,0.445-0.473,0.86c-0.114,0.415-0.172,1.284-0.172,2.607V34.566z"/>
		<path style="fill:#FFFFFF;" d="M190.92,32.09l2.051,0.345c-0.264,0.752-0.68,1.324-1.249,1.717c-0.568,0.394-1.28,0.59-2.135,0.59
			c-1.353,0-2.354-0.441-3.003-1.326c-0.513-0.707-0.769-1.601-0.769-2.68c0-1.289,0.336-2.299,1.01-3.029
			c0.674-0.729,1.526-1.095,2.557-1.095c1.157,0,2.07,0.382,2.739,1.146c0.669,0.764,0.989,1.935,0.96,3.512h-5.156
			c0.014,0.61,0.18,1.085,0.498,1.425c0.316,0.339,0.712,0.509,1.186,0.509c0.322,0,0.594-0.088,0.813-0.264
			S190.807,32.481,190.92,32.09z M191.037,30.01c-0.015-0.596-0.169-1.049-0.462-1.358c-0.293-0.311-0.649-0.465-1.068-0.465
			c-0.45,0-0.82,0.163-1.113,0.49s-0.438,0.771-0.433,1.333H191.037z"/>
		<path style="fill:#FFFFFF;" d="M194.032,32.347l2.065-0.315c0.088,0.4,0.266,0.704,0.534,0.912
			c0.269,0.207,0.645,0.312,1.129,0.312c0.531,0,0.932-0.098,1.201-0.293c0.18-0.137,0.271-0.32,0.271-0.55
			c0-0.156-0.049-0.286-0.146-0.388c-0.103-0.098-0.332-0.188-0.688-0.271c-1.66-0.366-2.713-0.7-3.156-1.004
			c-0.615-0.419-0.924-1.003-0.924-1.75c0-0.674,0.267-1.24,0.799-1.699s1.357-0.688,2.476-0.688c1.064,0,1.855,0.174,2.373,0.521
			s0.874,0.859,1.069,1.537l-1.941,0.359c-0.083-0.303-0.24-0.535-0.472-0.695c-0.232-0.162-0.563-0.242-0.993-0.242
			c-0.541,0-0.93,0.076-1.164,0.227c-0.156,0.108-0.234,0.247-0.234,0.418c0,0.146,0.068,0.271,0.205,0.373
			c0.186,0.138,0.826,0.33,1.923,0.579c1.096,0.249,1.861,0.555,2.296,0.915c0.43,0.367,0.645,0.877,0.645,1.531
			c0,0.713-0.298,1.326-0.894,1.838c-0.596,0.514-1.478,0.77-2.644,0.77c-1.061,0-1.898-0.215-2.517-0.645
			C194.627,33.667,194.222,33.084,194.032,32.347z"/>
		<path style="fill:#FFFFFF;" d="M208.805,29.161l-1.868-0.337c0.21-0.752,0.571-1.309,1.084-1.67s1.274-0.542,2.285-0.542
			c0.918,0,1.602,0.108,2.051,0.326c0.449,0.217,0.766,0.493,0.948,0.827c0.184,0.335,0.275,0.949,0.275,1.842l-0.022,2.402
			c0,0.685,0.033,1.188,0.099,1.513c0.066,0.325,0.189,0.673,0.37,1.044h-2.036c-0.054-0.137-0.12-0.339-0.197-0.607
			c-0.035-0.122-0.059-0.203-0.074-0.242c-0.352,0.342-0.728,0.599-1.127,0.77c-0.401,0.17-0.828,0.256-1.282,0.256
			c-0.801,0-1.432-0.217-1.894-0.652c-0.461-0.434-0.691-0.983-0.691-1.647c0-0.439,0.104-0.831,0.314-1.176
			c0.21-0.344,0.504-0.607,0.883-0.791c0.378-0.183,0.924-0.343,1.637-0.479c0.962-0.181,1.628-0.349,2-0.506v-0.205
			c0-0.395-0.099-0.677-0.293-0.846c-0.196-0.168-0.564-0.252-1.106-0.252c-0.366,0-0.651,0.071-0.856,0.216
			C209.098,28.546,208.931,28.799,208.805,29.161z M211.559,30.831c-0.264,0.088-0.682,0.193-1.253,0.315s-0.944,0.241-1.12,0.358
			c-0.27,0.19-0.403,0.433-0.403,0.726c0,0.288,0.107,0.537,0.322,0.746c0.215,0.211,0.488,0.315,0.82,0.315
			c0.371,0,0.726-0.122,1.062-0.366c0.25-0.186,0.413-0.412,0.491-0.682c0.054-0.176,0.081-0.51,0.081-1.003V30.831z"/>
		<path style="fill:#FFFFFF;" d="M222.684,34.566h-2.059v-3.97c0-0.84-0.044-1.383-0.132-1.63c-0.088-0.246-0.23-0.438-0.429-0.574
			c-0.197-0.137-0.436-0.205-0.714-0.205c-0.356,0-0.677,0.098-0.96,0.293s-0.477,0.453-0.582,0.775
			c-0.104,0.322-0.157,0.919-0.157,1.787v3.523h-2.058v-7.778h1.911v1.143c0.679-0.879,1.533-1.318,2.563-1.318
			c0.454,0,0.869,0.082,1.245,0.245c0.376,0.164,0.66,0.373,0.854,0.627c0.192,0.254,0.327,0.541,0.402,0.863
			c0.076,0.322,0.114,0.784,0.114,1.385V34.566z"/>
		<path style="fill:#FFFFFF;" d="M231.905,34.566h-1.912v-1.143c-0.317,0.444-0.692,0.775-1.124,0.992
			c-0.433,0.218-0.868,0.326-1.308,0.326c-0.894,0-1.659-0.36-2.296-1.08c-0.638-0.721-0.956-1.725-0.956-3.014
			c0-1.318,0.31-2.321,0.93-3.007c0.62-0.687,1.404-1.029,2.352-1.029c0.869,0,1.621,0.361,2.256,1.084v-3.867h2.059V34.566z
			 M226.411,30.508c0,0.83,0.115,1.431,0.345,1.802c0.332,0.537,0.796,0.806,1.392,0.806c0.474,0,0.876-0.201,1.209-0.604
			c0.331-0.402,0.498-1.004,0.498-1.805c0-0.895-0.162-1.537-0.484-1.931c-0.322-0.393-0.734-0.589-1.237-0.589
			c-0.488,0-0.897,0.193-1.227,0.582C226.576,29.157,226.411,29.737,226.411,30.508z"/>
		<path style="fill:#FFFFFF;" d="M129.624,51.566V40.829h2.059v3.867c0.635-0.723,1.387-1.084,2.256-1.084
			c0.947,0,1.73,0.343,2.352,1.029c0.619,0.686,0.93,1.671,0.93,2.955c0,1.328-0.316,2.351-0.948,3.069
			c-0.633,0.717-1.4,1.076-2.304,1.076c-0.444,0-0.883-0.111-1.314-0.333c-0.433-0.223-0.805-0.551-1.117-0.985v1.143H129.624z
			 M131.668,47.508c0,0.806,0.127,1.401,0.381,1.787c0.356,0.547,0.83,0.82,1.421,0.82c0.454,0,0.841-0.194,1.161-0.582
			c0.319-0.389,0.479-1,0.479-1.835c0-0.889-0.161-1.529-0.483-1.923c-0.322-0.393-0.735-0.589-1.237-0.589
			c-0.494,0-0.904,0.191-1.23,0.574C131.831,46.145,131.668,46.727,131.668,47.508z"/>
		<path style="fill:#FFFFFF;" d="M143.994,51.566v-1.164c-0.283,0.415-0.655,0.742-1.117,0.98c-0.461,0.239-0.948,0.359-1.461,0.359
			c-0.522,0-0.991-0.115-1.406-0.344c-0.415-0.229-0.716-0.552-0.901-0.967s-0.277-0.989-0.277-1.722v-4.922h2.058v3.574
			c0,1.094,0.038,1.764,0.113,2.011c0.076,0.246,0.214,0.441,0.414,0.586c0.2,0.144,0.454,0.216,0.762,0.216
			c0.352,0,0.667-0.097,0.944-0.289c0.279-0.193,0.469-0.433,0.572-0.718c0.102-0.286,0.153-0.985,0.153-2.099v-3.281h2.058v7.778
			H143.994z"/>
		<path style="fill:#FFFFFF;" d="M147.311,49.347l2.065-0.315c0.088,0.4,0.266,0.704,0.534,0.912
			c0.269,0.207,0.645,0.312,1.129,0.312c0.531,0,0.932-0.098,1.201-0.293c0.18-0.137,0.271-0.32,0.271-0.55
			c0-0.156-0.049-0.286-0.146-0.388c-0.103-0.098-0.332-0.188-0.688-0.271c-1.66-0.366-2.713-0.7-3.156-1.004
			c-0.615-0.419-0.924-1.003-0.924-1.75c0-0.674,0.267-1.24,0.799-1.699s1.357-0.688,2.476-0.688c1.064,0,1.855,0.174,2.373,0.521
			s0.874,0.859,1.069,1.537l-1.941,0.359c-0.083-0.303-0.24-0.535-0.472-0.695c-0.232-0.162-0.563-0.242-0.993-0.242
			c-0.541,0-0.93,0.076-1.164,0.227c-0.156,0.108-0.234,0.247-0.234,0.418c0,0.146,0.068,0.271,0.205,0.373
			c0.186,0.138,0.826,0.33,1.923,0.579c1.096,0.249,1.861,0.555,2.296,0.915c0.43,0.367,0.645,0.877,0.645,1.531
			c0,0.713-0.298,1.326-0.894,1.838c-0.596,0.514-1.478,0.77-2.644,0.77c-1.061,0-1.898-0.215-2.517-0.645
			C147.906,50.667,147.502,50.084,147.311,49.347z"/>
		<path style="fill:#FFFFFF;" d="M156.378,42.733v-1.904h2.059v1.904H156.378z M156.378,51.566v-7.778h2.059v7.778H156.378z"/>
		<path style="fill:#FFFFFF;" d="M167.622,51.566h-2.059v-3.97c0-0.84-0.044-1.383-0.132-1.63c-0.088-0.246-0.23-0.438-0.429-0.574
			c-0.197-0.137-0.436-0.205-0.714-0.205c-0.356,0-0.677,0.098-0.96,0.293s-0.477,0.453-0.582,0.775
			c-0.104,0.322-0.157,0.919-0.157,1.787v3.523h-2.058v-7.778h1.911v1.143c0.679-0.879,1.533-1.318,2.563-1.318
			c0.454,0,0.869,0.082,1.245,0.245c0.376,0.164,0.66,0.373,0.854,0.627c0.192,0.254,0.327,0.541,0.402,0.863
			c0.076,0.322,0.114,0.784,0.114,1.385V51.566z"/>
		<path style="fill:#FFFFFF;" d="M174.212,49.09l2.051,0.345c-0.264,0.752-0.68,1.324-1.249,1.717
			c-0.568,0.394-1.28,0.59-2.135,0.59c-1.353,0-2.354-0.441-3.003-1.326c-0.513-0.707-0.769-1.601-0.769-2.68
			c0-1.289,0.336-2.299,1.01-3.029c0.674-0.729,1.526-1.095,2.557-1.095c1.157,0,2.07,0.382,2.739,1.146
			c0.669,0.764,0.989,1.935,0.96,3.512h-5.156c0.014,0.61,0.18,1.085,0.498,1.425c0.316,0.339,0.712,0.509,1.186,0.509
			c0.322,0,0.594-0.088,0.813-0.264S174.1,49.481,174.212,49.09z M174.33,47.01c-0.015-0.596-0.169-1.049-0.462-1.358
			c-0.293-0.311-0.649-0.465-1.068-0.465c-0.45,0-0.82,0.163-1.113,0.49s-0.438,0.771-0.433,1.333H174.33z"/>
		<path style="fill:#FFFFFF;" d="M177.325,49.347l2.065-0.315c0.088,0.4,0.266,0.704,0.534,0.912
			c0.269,0.207,0.645,0.312,1.129,0.312c0.531,0,0.932-0.098,1.201-0.293c0.18-0.137,0.271-0.32,0.271-0.55
			c0-0.156-0.049-0.286-0.146-0.388c-0.103-0.098-0.332-0.188-0.688-0.271c-1.66-0.366-2.713-0.7-3.156-1.004
			c-0.615-0.419-0.924-1.003-0.924-1.75c0-0.674,0.267-1.24,0.799-1.699s1.357-0.688,2.476-0.688c1.064,0,1.855,0.174,2.373,0.521
			s0.874,0.859,1.069,1.537l-1.941,0.359c-0.083-0.303-0.24-0.535-0.472-0.695c-0.232-0.162-0.563-0.242-0.993-0.242
			c-0.541,0-0.93,0.076-1.164,0.227c-0.156,0.108-0.234,0.247-0.234,0.418c0,0.146,0.068,0.271,0.205,0.373
			c0.186,0.138,0.826,0.33,1.923,0.579c1.096,0.249,1.861,0.555,2.296,0.915c0.43,0.367,0.645,0.877,0.645,1.531
			c0,0.713-0.298,1.326-0.894,1.838c-0.596,0.514-1.478,0.77-2.644,0.77c-1.061,0-1.898-0.215-2.517-0.645
			C177.92,50.667,177.515,50.084,177.325,49.347z"/>
		<path style="fill:#FFFFFF;" d="M185.667,49.347l2.065-0.315c0.088,0.4,0.266,0.704,0.534,0.912
			c0.269,0.207,0.645,0.312,1.129,0.312c0.531,0,0.932-0.098,1.201-0.293c0.18-0.137,0.271-0.32,0.271-0.55
			c0-0.156-0.049-0.286-0.146-0.388c-0.103-0.098-0.332-0.188-0.688-0.271c-1.66-0.366-2.713-0.7-3.156-1.004
			c-0.615-0.419-0.924-1.003-0.924-1.75c0-0.674,0.267-1.24,0.799-1.699s1.357-0.688,2.476-0.688c1.064,0,1.855,0.174,2.373,0.521
			s0.874,0.859,1.069,1.537l-1.941,0.359c-0.083-0.303-0.24-0.535-0.472-0.695c-0.232-0.162-0.563-0.242-0.993-0.242
			c-0.541,0-0.93,0.076-1.164,0.227c-0.156,0.108-0.234,0.247-0.234,0.418c0,0.146,0.068,0.271,0.205,0.373
			c0.186,0.138,0.826,0.33,1.923,0.579c1.096,0.249,1.861,0.555,2.296,0.915c0.43,0.367,0.645,0.877,0.645,1.531
			c0,0.713-0.298,1.326-0.894,1.838c-0.596,0.514-1.478,0.77-2.644,0.77c-1.061,0-1.898-0.215-2.517-0.645
			C186.261,50.667,185.857,50.084,185.667,49.347z"/>
		<path style="fill:#FFFFFF;" d="M199.238,49.09l2.051,0.345c-0.264,0.752-0.68,1.324-1.249,1.717
			c-0.568,0.394-1.28,0.59-2.135,0.59c-1.353,0-2.354-0.441-3.003-1.326c-0.513-0.707-0.769-1.601-0.769-2.68
			c0-1.289,0.336-2.299,1.01-3.029c0.674-0.729,1.526-1.095,2.557-1.095c1.157,0,2.07,0.382,2.739,1.146
			c0.669,0.764,0.989,1.935,0.96,3.512h-5.156c0.014,0.61,0.18,1.085,0.498,1.425c0.316,0.339,0.712,0.509,1.186,0.509
			c0.322,0,0.594-0.088,0.813-0.264S199.126,49.481,199.238,49.09z M199.355,47.01c-0.015-0.596-0.169-1.049-0.462-1.358
			c-0.293-0.311-0.649-0.465-1.068-0.465c-0.45,0-0.82,0.163-1.113,0.49s-0.438,0.771-0.433,1.333H199.355z"/>
		<path style="fill:#FFFFFF;" d="M202.35,49.347l2.065-0.315c0.088,0.4,0.266,0.704,0.534,0.912
			c0.269,0.207,0.645,0.312,1.129,0.312c0.531,0,0.932-0.098,1.201-0.293c0.18-0.137,0.271-0.32,0.271-0.55
			c0-0.156-0.049-0.286-0.146-0.388c-0.103-0.098-0.332-0.188-0.688-0.271c-1.66-0.366-2.713-0.7-3.156-1.004
			c-0.615-0.419-0.924-1.003-0.924-1.75c0-0.674,0.267-1.24,0.799-1.699s1.357-0.688,2.476-0.688c1.064,0,1.855,0.174,2.373,0.521
			s0.874,0.859,1.069,1.537l-1.941,0.359c-0.083-0.303-0.24-0.535-0.472-0.695c-0.232-0.162-0.563-0.242-0.993-0.242
			c-0.541,0-0.93,0.076-1.164,0.227c-0.156,0.108-0.234,0.247-0.234,0.418c0,0.146,0.068,0.271,0.205,0.373
			c0.186,0.138,0.826,0.33,1.923,0.579c1.096,0.249,1.861,0.555,2.296,0.915c0.43,0.367,0.645,0.877,0.645,1.531
			c0,0.713-0.298,1.326-0.894,1.838c-0.596,0.514-1.478,0.77-2.644,0.77c-1.061,0-1.898-0.215-2.517-0.645
			C202.945,50.667,202.541,50.084,202.35,49.347z"/>
		<path style="fill:#FFFFFF;" d="M222.719,51.566h-1.912v-1.143c-0.317,0.444-0.692,0.775-1.124,0.992
			c-0.433,0.218-0.868,0.326-1.308,0.326c-0.894,0-1.659-0.36-2.296-1.08c-0.638-0.721-0.956-1.725-0.956-3.014
			c0-1.318,0.31-2.321,0.93-3.007c0.62-0.687,1.404-1.029,2.352-1.029c0.869,0,1.621,0.361,2.256,1.084v-3.867h2.059V51.566z
			 M217.225,47.508c0,0.83,0.115,1.431,0.345,1.802c0.332,0.537,0.796,0.806,1.392,0.806c0.474,0,0.876-0.201,1.209-0.604
			c0.331-0.402,0.498-1.004,0.498-1.805c0-0.895-0.162-1.537-0.484-1.931c-0.322-0.393-0.734-0.589-1.237-0.589
			c-0.488,0-0.897,0.193-1.227,0.582C217.39,46.157,217.225,46.737,217.225,47.508z"/>
		<path style="fill:#FFFFFF;" d="M229.252,49.09l2.051,0.345c-0.264,0.752-0.68,1.324-1.249,1.717
			c-0.568,0.394-1.28,0.59-2.135,0.59c-1.353,0-2.354-0.441-3.003-1.326c-0.513-0.707-0.769-1.601-0.769-2.68
			c0-1.289,0.336-2.299,1.01-3.029c0.674-0.729,1.526-1.095,2.557-1.095c1.157,0,2.07,0.382,2.739,1.146
			c0.669,0.764,0.989,1.935,0.96,3.512h-5.156c0.014,0.61,0.18,1.085,0.498,1.425c0.316,0.339,0.712,0.509,1.186,0.509
			c0.322,0,0.594-0.088,0.813-0.264S229.139,49.481,229.252,49.09z M229.369,47.01c-0.015-0.596-0.169-1.049-0.462-1.358
			c-0.293-0.311-0.649-0.465-1.068-0.465c-0.45,0-0.82,0.163-1.113,0.49s-0.438,0.771-0.433,1.333H229.369z"/>
		<path style="fill:#FFFFFF;" d="M232.364,49.347l2.065-0.315c0.088,0.4,0.266,0.704,0.534,0.912
			c0.269,0.207,0.645,0.312,1.129,0.312c0.531,0,0.932-0.098,1.201-0.293c0.18-0.137,0.271-0.32,0.271-0.55
			c0-0.156-0.049-0.286-0.146-0.388c-0.103-0.098-0.332-0.188-0.688-0.271c-1.66-0.366-2.713-0.7-3.156-1.004
			c-0.615-0.419-0.924-1.003-0.924-1.75c0-0.674,0.267-1.24,0.799-1.699s1.357-0.688,2.476-0.688c1.064,0,1.855,0.174,2.373,0.521
			s0.874,0.859,1.069,1.537l-1.941,0.359c-0.083-0.303-0.24-0.535-0.472-0.695c-0.232-0.162-0.563-0.242-0.993-0.242
			c-0.541,0-0.93,0.076-1.164,0.227c-0.156,0.108-0.234,0.247-0.234,0.418c0,0.146,0.068,0.271,0.205,0.373
			c0.186,0.138,0.826,0.33,1.923,0.579c1.096,0.249,1.861,0.555,2.296,0.915c0.43,0.367,0.645,0.877,0.645,1.531
			c0,0.713-0.298,1.326-0.894,1.838c-0.596,0.514-1.478,0.77-2.644,0.77c-1.061,0-1.898-0.215-2.517-0.645
			C232.959,50.667,232.554,50.084,232.364,49.347z"/>
		<path style="fill:#FFFFFF;" d="M244.998,43.788v1.641h-1.406v3.135c0,0.635,0.014,1.005,0.04,1.109
			c0.027,0.105,0.088,0.192,0.184,0.261c0.095,0.068,0.211,0.102,0.348,0.102c0.19,0,0.466-0.065,0.828-0.197l0.176,1.597
			c-0.479,0.205-1.021,0.308-1.627,0.308c-0.371,0-0.705-0.062-1.003-0.187c-0.298-0.125-0.517-0.286-0.655-0.483
			c-0.14-0.198-0.236-0.465-0.289-0.803c-0.045-0.238-0.066-0.722-0.066-1.449v-3.392h-0.945v-1.641h0.945v-1.546l2.065-1.201v2.747
			H244.998z"/>
		<path style="fill:#FFFFFF;" d="M248.396,51.566h-2.059v-7.778h1.912v1.106c0.327-0.522,0.621-0.867,0.883-1.033
			c0.261-0.166,0.558-0.249,0.89-0.249c0.469,0,0.92,0.13,1.354,0.388l-0.637,1.795c-0.347-0.225-0.669-0.337-0.967-0.337
			c-0.288,0-0.532,0.079-0.732,0.238c-0.2,0.158-0.357,0.445-0.473,0.86c-0.114,0.415-0.172,1.284-0.172,2.607V51.566z"/>
		<path style="fill:#FFFFFF;" d="M251.787,47.567c0-0.684,0.169-1.345,0.505-1.985c0.338-0.639,0.814-1.127,1.433-1.465
			c0.617-0.336,1.308-0.505,2.069-0.505c1.176,0,2.141,0.382,2.893,1.146c0.752,0.764,1.128,1.729,1.128,2.896
			c0,1.177-0.38,2.152-1.139,2.926c-0.76,0.774-1.716,1.161-2.868,1.161c-0.713,0-1.393-0.161-2.039-0.483
			c-0.647-0.322-1.139-0.795-1.477-1.417C251.956,49.218,251.787,48.46,251.787,47.567z M253.896,47.677
			c0,0.771,0.183,1.361,0.55,1.771c0.365,0.41,0.817,0.615,1.354,0.615c0.537,0,0.987-0.205,1.352-0.615
			c0.363-0.41,0.546-1.005,0.546-1.787c0-0.762-0.183-1.348-0.546-1.758c-0.364-0.41-0.814-0.615-1.352-0.615
			c-0.537,0-0.989,0.205-1.354,0.615C254.079,46.314,253.896,46.906,253.896,47.677z"/>
		<path style="fill:#FFFFFF;" d="M260.451,43.788h2.19l1.859,5.522l1.816-5.522h2.132l-2.747,7.485l-0.49,1.355
			c-0.181,0.453-0.353,0.8-0.517,1.039c-0.163,0.239-0.352,0.434-0.563,0.583c-0.213,0.148-0.474,0.265-0.784,0.348
			c-0.31,0.083-0.66,0.124-1.051,0.124c-0.396,0-0.784-0.041-1.165-0.124l-0.183-1.611c0.322,0.063,0.612,0.095,0.872,0.095
			c0.478,0,0.832-0.14,1.062-0.421c0.229-0.28,0.405-0.639,0.527-1.073L260.451,43.788z"/>
		<path style="fill:#FFFFFF;" d="M274.271,49.09l2.051,0.345c-0.264,0.752-0.68,1.324-1.249,1.717
			c-0.568,0.394-1.28,0.59-2.135,0.59c-1.353,0-2.354-0.441-3.003-1.326c-0.513-0.707-0.769-1.601-0.769-2.68
			c0-1.289,0.336-2.299,1.01-3.029c0.674-0.729,1.526-1.095,2.557-1.095c1.157,0,2.07,0.382,2.739,1.146
			c0.669,0.764,0.989,1.935,0.96,3.512h-5.156c0.014,0.61,0.18,1.085,0.498,1.425c0.316,0.339,0.712,0.509,1.186,0.509
			c0.322,0,0.594-0.088,0.813-0.264S274.159,49.481,274.271,49.09z M274.388,47.01c-0.015-0.596-0.169-1.049-0.462-1.358
			c-0.293-0.311-0.649-0.465-1.068-0.465c-0.45,0-0.82,0.163-1.113,0.49s-0.438,0.771-0.433,1.333H274.388z"/>
		<path style="fill:#FFFFFF;" d="M285.243,51.566h-1.912v-1.143c-0.317,0.444-0.692,0.775-1.124,0.992
			c-0.433,0.218-0.868,0.326-1.308,0.326c-0.894,0-1.659-0.36-2.296-1.08c-0.638-0.721-0.956-1.725-0.956-3.014
			c0-1.318,0.31-2.321,0.93-3.007c0.62-0.687,1.404-1.029,2.352-1.029c0.869,0,1.621,0.361,2.256,1.084v-3.867h2.059V51.566z
			 M279.749,47.508c0,0.83,0.115,1.431,0.345,1.802c0.332,0.537,0.796,0.806,1.392,0.806c0.474,0,0.876-0.201,1.209-0.604
			c0.331-0.402,0.498-1.004,0.498-1.805c0-0.895-0.162-1.537-0.484-1.931c-0.322-0.393-0.734-0.589-1.237-0.589
			c-0.488,0-0.897,0.193-1.227,0.582C279.914,46.157,279.749,46.737,279.749,47.508z"/>
		<path style="fill:#FFFFFF;" d="M129.624,68.566V57.829h2.059v3.867c0.635-0.723,1.387-1.084,2.256-1.084
			c0.947,0,1.73,0.343,2.352,1.029c0.619,0.686,0.93,1.671,0.93,2.955c0,1.328-0.316,2.351-0.948,3.069
			c-0.633,0.717-1.4,1.076-2.304,1.076c-0.444,0-0.883-0.111-1.314-0.333c-0.433-0.223-0.805-0.551-1.117-0.985v1.143H129.624z
			 M131.668,64.508c0,0.806,0.127,1.401,0.381,1.787c0.356,0.547,0.83,0.82,1.421,0.82c0.454,0,0.841-0.194,1.161-0.582
			c0.319-0.389,0.479-1,0.479-1.835c0-0.889-0.161-1.529-0.483-1.923c-0.322-0.393-0.735-0.589-1.237-0.589
			c-0.494,0-0.904,0.191-1.23,0.574C131.831,63.145,131.668,63.727,131.668,64.508z"/>
		<path style="fill:#FFFFFF;" d="M143.378,66.09l2.051,0.345c-0.264,0.752-0.68,1.324-1.249,1.717
			c-0.568,0.394-1.28,0.59-2.135,0.59c-1.353,0-2.354-0.441-3.003-1.326c-0.513-0.707-0.769-1.601-0.769-2.68
			c0-1.289,0.336-2.299,1.01-3.029c0.674-0.729,1.526-1.095,2.557-1.095c1.157,0,2.07,0.382,2.739,1.146
			c0.669,0.764,0.989,1.935,0.96,3.512h-5.156c0.014,0.61,0.18,1.085,0.498,1.425c0.316,0.339,0.712,0.509,1.186,0.509
			c0.322,0,0.594-0.088,0.813-0.264S143.266,66.481,143.378,66.09z M143.496,64.01c-0.015-0.596-0.169-1.049-0.462-1.358
			c-0.293-0.311-0.649-0.465-1.068-0.465c-0.45,0-0.82,0.163-1.113,0.49s-0.438,0.771-0.433,1.333H143.496z"/>
		<path style="fill:#FFFFFF;" d="M150.783,60.788v1.641h-1.406v3.135c0,0.635,0.014,1.005,0.04,1.109
			c0.027,0.105,0.088,0.192,0.184,0.261c0.095,0.068,0.211,0.102,0.348,0.102c0.19,0,0.466-0.065,0.828-0.197l0.176,1.597
			c-0.479,0.205-1.021,0.308-1.627,0.308c-0.371,0-0.705-0.062-1.003-0.187c-0.298-0.125-0.517-0.286-0.655-0.483
			c-0.14-0.198-0.236-0.465-0.289-0.803c-0.045-0.238-0.066-0.722-0.066-1.449v-3.392h-0.945v-1.641h0.945v-1.546l2.065-1.201v2.747
			H150.783z"/>
		<path style="fill:#FFFFFF;" d="M153.662,68.566l-2.461-7.778h1.999l1.458,5.098l1.34-5.098h1.984l1.297,5.098l1.486-5.098h2.029
			l-2.498,7.778h-1.977l-1.341-5.002l-1.318,5.002H153.662z"/>
		<path style="fill:#FFFFFF;" d="M168.382,66.09l2.051,0.345c-0.264,0.752-0.68,1.324-1.249,1.717
			c-0.568,0.394-1.28,0.59-2.135,0.59c-1.353,0-2.354-0.441-3.003-1.326c-0.513-0.707-0.769-1.601-0.769-2.68
			c0-1.289,0.336-2.299,1.01-3.029c0.674-0.729,1.526-1.095,2.557-1.095c1.157,0,2.07,0.382,2.739,1.146
			c0.669,0.764,0.989,1.935,0.96,3.512h-5.156c0.014,0.61,0.18,1.085,0.498,1.425c0.316,0.339,0.712,0.509,1.186,0.509
			c0.322,0,0.594-0.088,0.813-0.264S168.27,66.481,168.382,66.09z M168.5,64.01c-0.015-0.596-0.169-1.049-0.462-1.358
			c-0.293-0.311-0.649-0.465-1.068-0.465c-0.45,0-0.82,0.163-1.113,0.49s-0.438,0.771-0.433,1.333H168.5z"/>
		<path style="fill:#FFFFFF;" d="M176.724,66.09l2.051,0.345c-0.264,0.752-0.68,1.324-1.249,1.717
			c-0.568,0.394-1.28,0.59-2.135,0.59c-1.353,0-2.354-0.441-3.003-1.326c-0.513-0.707-0.769-1.601-0.769-2.68
			c0-1.289,0.336-2.299,1.01-3.029c0.674-0.729,1.526-1.095,2.557-1.095c1.157,0,2.07,0.382,2.739,1.146
			c0.669,0.764,0.989,1.935,0.96,3.512h-5.156c0.014,0.61,0.18,1.085,0.498,1.425c0.316,0.339,0.712,0.509,1.186,0.509
			c0.322,0,0.594-0.088,0.813-0.264S176.612,66.481,176.724,66.09z M176.841,64.01c-0.015-0.596-0.169-1.049-0.462-1.358
			c-0.293-0.311-0.649-0.465-1.068-0.465c-0.45,0-0.82,0.163-1.113,0.49s-0.438,0.771-0.433,1.333H176.841z"/>
		<path style="fill:#FFFFFF;" d="M187.637,68.566h-2.059v-3.97c0-0.84-0.044-1.383-0.132-1.63c-0.088-0.246-0.23-0.438-0.429-0.574
			c-0.197-0.137-0.436-0.205-0.714-0.205c-0.356,0-0.677,0.098-0.96,0.293s-0.477,0.453-0.582,0.775
			c-0.104,0.322-0.157,0.919-0.157,1.787v3.523h-2.058v-7.778h1.911v1.143c0.679-0.879,1.533-1.318,2.563-1.318
			c0.454,0,0.869,0.082,1.245,0.245c0.376,0.164,0.66,0.373,0.854,0.627c0.192,0.254,0.327,0.541,0.402,0.863
			c0.076,0.322,0.114,0.784,0.114,1.385V68.566z"/>
		<path style="fill:#FFFFFF;" d="M193.899,57.829h3.963c0.893,0,1.574,0.068,2.043,0.205c0.63,0.186,1.169,0.516,1.619,0.989
			c0.448,0.474,0.791,1.053,1.025,1.739c0.234,0.686,0.352,1.532,0.352,2.538c0,0.884-0.11,1.646-0.33,2.285
			c-0.269,0.781-0.652,1.413-1.15,1.896c-0.376,0.366-0.884,0.652-1.523,0.857c-0.479,0.151-1.118,0.227-1.918,0.227h-4.08V57.829z
			 M196.067,59.645v7.112h1.619c0.604,0,1.042-0.034,1.311-0.104c0.352-0.088,0.644-0.236,0.875-0.446
			c0.232-0.21,0.422-0.556,0.568-1.036c0.146-0.481,0.219-1.137,0.219-1.967s-0.072-1.467-0.219-1.912
			c-0.146-0.443-0.352-0.791-0.615-1.039c-0.264-0.25-0.599-0.418-1.004-0.506c-0.303-0.068-0.896-0.103-1.779-0.103H196.067z"/>
		<path style="fill:#FFFFFF;" d="M206.262,63.161l-1.868-0.337c0.21-0.752,0.571-1.309,1.084-1.67s1.274-0.542,2.285-0.542
			c0.918,0,1.602,0.108,2.051,0.326c0.449,0.217,0.766,0.493,0.948,0.827c0.184,0.335,0.275,0.949,0.275,1.842l-0.022,2.402
			c0,0.685,0.033,1.188,0.099,1.513c0.066,0.325,0.189,0.673,0.37,1.044h-2.036c-0.054-0.137-0.12-0.339-0.197-0.607
			c-0.035-0.122-0.059-0.203-0.074-0.242c-0.352,0.342-0.728,0.599-1.127,0.77c-0.401,0.17-0.828,0.256-1.282,0.256
			c-0.801,0-1.432-0.217-1.894-0.652c-0.461-0.434-0.691-0.983-0.691-1.647c0-0.439,0.104-0.831,0.314-1.176
			c0.21-0.344,0.504-0.607,0.883-0.791c0.378-0.183,0.924-0.343,1.637-0.479c0.962-0.181,1.628-0.349,2-0.506v-0.205
			c0-0.395-0.099-0.677-0.293-0.846c-0.196-0.168-0.564-0.252-1.106-0.252c-0.366,0-0.651,0.071-0.856,0.216
			C206.555,62.546,206.388,62.799,206.262,63.161z M209.016,64.831c-0.264,0.088-0.682,0.193-1.253,0.315s-0.944,0.241-1.12,0.358
			c-0.27,0.19-0.403,0.433-0.403,0.726c0,0.288,0.107,0.537,0.322,0.746c0.215,0.211,0.488,0.315,0.82,0.315
			c0.371,0,0.726-0.122,1.062-0.366c0.25-0.186,0.413-0.412,0.491-0.682c0.054-0.176,0.081-0.51,0.081-1.003V64.831z"/>
		<path style="fill:#FFFFFF;" d="M212.912,60.788h1.897v1.062c0.678-0.824,1.486-1.237,2.424-1.237c0.498,0,0.93,0.103,1.297,0.308
			c0.365,0.205,0.666,0.516,0.9,0.93c0.342-0.414,0.711-0.725,1.105-0.93c0.396-0.205,0.818-0.308,1.268-0.308
			c0.571,0,1.055,0.116,1.45,0.348c0.396,0.232,0.69,0.573,0.886,1.022c0.142,0.332,0.213,0.869,0.213,1.611v4.973h-2.059v-4.445
			c0-0.771-0.07-1.27-0.212-1.494c-0.19-0.293-0.483-0.439-0.879-0.439c-0.288,0-0.56,0.088-0.813,0.264s-0.437,0.433-0.549,0.772
			c-0.112,0.339-0.168,0.875-0.168,1.607v3.735h-2.059v-4.263c0-0.757-0.037-1.245-0.109-1.465c-0.074-0.22-0.188-0.383-0.341-0.491
			c-0.154-0.106-0.362-0.16-0.626-0.16c-0.318,0-0.604,0.085-0.857,0.256s-0.436,0.418-0.546,0.74
			c-0.109,0.322-0.165,0.856-0.165,1.604v3.779h-2.058V60.788z"/>
		<path style="fill:#FFFFFF;" d="M230.908,66.09l2.051,0.345c-0.264,0.752-0.68,1.324-1.249,1.717
			c-0.568,0.394-1.28,0.59-2.135,0.59c-1.353,0-2.354-0.441-3.003-1.326c-0.513-0.707-0.769-1.601-0.769-2.68
			c0-1.289,0.336-2.299,1.01-3.029c0.674-0.729,1.526-1.095,2.557-1.095c1.157,0,2.07,0.382,2.739,1.146
			c0.669,0.764,0.989,1.935,0.96,3.512h-5.156c0.014,0.61,0.18,1.085,0.498,1.425c0.316,0.339,0.712,0.509,1.186,0.509
			c0.322,0,0.594-0.088,0.813-0.264S230.795,66.481,230.908,66.09z M231.025,64.01c-0.015-0.596-0.169-1.049-0.462-1.358
			c-0.293-0.311-0.649-0.465-1.068-0.465c-0.45,0-0.82,0.163-1.113,0.49s-0.438,0.771-0.433,1.333H231.025z"/>
		<path style="fill:#FFFFFF;" d="M241.821,68.566h-2.059v-3.97c0-0.84-0.044-1.383-0.132-1.63c-0.088-0.246-0.23-0.438-0.429-0.574
			c-0.197-0.137-0.436-0.205-0.714-0.205c-0.356,0-0.677,0.098-0.96,0.293s-0.477,0.453-0.582,0.775
			c-0.104,0.322-0.157,0.919-0.157,1.787v3.523h-2.058v-7.778h1.911v1.143c0.679-0.879,1.533-1.318,2.563-1.318
			c0.454,0,0.869,0.082,1.245,0.245c0.376,0.164,0.66,0.373,0.854,0.627c0.192,0.254,0.327,0.541,0.402,0.863
			c0.076,0.322,0.114,0.784,0.114,1.385V68.566z"/>
		<path style="fill:#FFFFFF;" d="M249.614,63.161l-1.868-0.337c0.21-0.752,0.571-1.309,1.084-1.67s1.274-0.542,2.285-0.542
			c0.918,0,1.602,0.108,2.051,0.326c0.449,0.217,0.766,0.493,0.948,0.827c0.184,0.335,0.275,0.949,0.275,1.842l-0.022,2.402
			c0,0.685,0.033,1.188,0.099,1.513c0.066,0.325,0.189,0.673,0.37,1.044h-2.036c-0.054-0.137-0.12-0.339-0.197-0.607
			c-0.035-0.122-0.059-0.203-0.074-0.242c-0.352,0.342-0.728,0.599-1.127,0.77c-0.401,0.17-0.828,0.256-1.282,0.256
			c-0.801,0-1.432-0.217-1.894-0.652c-0.461-0.434-0.691-0.983-0.691-1.647c0-0.439,0.104-0.831,0.314-1.176
			c0.21-0.344,0.504-0.607,0.883-0.791c0.378-0.183,0.924-0.343,1.637-0.479c0.962-0.181,1.628-0.349,2-0.506v-0.205
			c0-0.395-0.099-0.677-0.293-0.846c-0.196-0.168-0.564-0.252-1.106-0.252c-0.366,0-0.651,0.071-0.856,0.216
			C249.907,62.546,249.74,62.799,249.614,63.161z M252.368,64.831c-0.264,0.088-0.682,0.193-1.253,0.315s-0.944,0.241-1.12,0.358
			c-0.27,0.19-0.403,0.433-0.403,0.726c0,0.288,0.107,0.537,0.322,0.746c0.215,0.211,0.488,0.315,0.82,0.315
			c0.371,0,0.726-0.122,1.062-0.366c0.25-0.186,0.413-0.412,0.491-0.682c0.054-0.176,0.081-0.51,0.081-1.003V64.831z"/>
		<path style="fill:#FFFFFF;" d="M263.493,68.566h-2.059v-3.97c0-0.84-0.044-1.383-0.132-1.63c-0.088-0.246-0.23-0.438-0.429-0.574
			c-0.197-0.137-0.436-0.205-0.714-0.205c-0.356,0-0.677,0.098-0.96,0.293s-0.477,0.453-0.582,0.775
			c-0.104,0.322-0.157,0.919-0.157,1.787v3.523h-2.058v-7.778h1.911v1.143c0.679-0.879,1.533-1.318,2.563-1.318
			c0.454,0,0.869,0.082,1.245,0.245c0.376,0.164,0.66,0.373,0.854,0.627c0.192,0.254,0.327,0.541,0.402,0.863
			c0.076,0.322,0.114,0.784,0.114,1.385V68.566z"/>
		<path style="fill:#FFFFFF;" d="M272.713,68.566h-1.912v-1.143c-0.317,0.444-0.692,0.775-1.124,0.992
			c-0.433,0.218-0.868,0.326-1.308,0.326c-0.894,0-1.659-0.36-2.296-1.08c-0.638-0.721-0.956-1.725-0.956-3.014
			c0-1.318,0.31-2.321,0.93-3.007c0.62-0.687,1.404-1.029,2.352-1.029c0.869,0,1.621,0.361,2.256,1.084v-3.867h2.059V68.566z
			 M267.219,64.508c0,0.83,0.115,1.431,0.345,1.802c0.332,0.537,0.796,0.806,1.392,0.806c0.474,0,0.876-0.201,1.209-0.604
			c0.331-0.402,0.498-1.004,0.498-1.805c0-0.895-0.162-1.537-0.484-1.931c-0.322-0.393-0.734-0.589-1.237-0.589
			c-0.488,0-0.897,0.193-1.227,0.582C267.384,63.157,267.219,63.737,267.219,64.508z"/>
		<path style="fill:#FFFFFF;" d="M129.727,85.566V74.829h3.479c1.318,0,2.178,0.054,2.578,0.161c0.615,0.161,1.13,0.512,1.545,1.051
			c0.415,0.54,0.623,1.237,0.623,2.092c0,0.658-0.12,1.213-0.359,1.662s-0.543,0.802-0.911,1.059
			c-0.369,0.256-0.743,0.426-1.124,0.509c-0.519,0.103-1.268,0.153-2.249,0.153h-1.413v4.051H129.727z M131.895,76.645v3.047h1.186
			c0.854,0,1.426-0.056,1.715-0.169c0.287-0.111,0.514-0.287,0.677-0.527c0.164-0.238,0.245-0.517,0.245-0.834
			c0-0.391-0.114-0.713-0.344-0.967s-0.52-0.413-0.871-0.477c-0.26-0.049-0.779-0.073-1.561-0.073H131.895z"/>
		<path style="fill:#FFFFFF;" d="M144.837,85.566v-1.164c-0.283,0.415-0.655,0.742-1.117,0.98c-0.461,0.239-0.948,0.359-1.461,0.359
			c-0.522,0-0.991-0.115-1.406-0.344c-0.415-0.229-0.716-0.552-0.901-0.967s-0.277-0.989-0.277-1.722v-4.922h2.058v3.574
			c0,1.094,0.038,1.764,0.113,2.011c0.076,0.246,0.214,0.441,0.414,0.586c0.2,0.144,0.454,0.216,0.762,0.216
			c0.352,0,0.667-0.097,0.944-0.289c0.279-0.193,0.469-0.433,0.572-0.718c0.102-0.286,0.153-0.985,0.153-2.099v-3.281h2.058v7.778
			H144.837z"/>
		<path style="fill:#FFFFFF;" d="M148.879,85.566V74.829h2.059v10.737H148.879z"/>
		<path style="fill:#FFFFFF;" d="M154.587,80.161l-1.868-0.337c0.21-0.752,0.571-1.309,1.084-1.67s1.274-0.542,2.285-0.542
			c0.918,0,1.602,0.108,2.051,0.326c0.449,0.217,0.766,0.493,0.948,0.827c0.184,0.335,0.275,0.949,0.275,1.842l-0.022,2.402
			c0,0.685,0.033,1.188,0.099,1.513c0.066,0.325,0.189,0.673,0.37,1.044h-2.036c-0.054-0.137-0.12-0.339-0.197-0.607
			c-0.035-0.122-0.059-0.203-0.074-0.242c-0.352,0.342-0.728,0.599-1.127,0.77c-0.401,0.17-0.828,0.256-1.282,0.256
			c-0.801,0-1.432-0.217-1.894-0.652c-0.461-0.434-0.691-0.983-0.691-1.647c0-0.439,0.104-0.831,0.314-1.176
			c0.21-0.344,0.504-0.607,0.883-0.791c0.378-0.183,0.924-0.343,1.637-0.479c0.962-0.181,1.628-0.349,2-0.506v-0.205
			c0-0.395-0.099-0.677-0.293-0.846c-0.196-0.168-0.564-0.252-1.106-0.252c-0.366,0-0.651,0.071-0.856,0.216
			C154.879,79.546,154.712,79.799,154.587,80.161z M157.34,81.831c-0.264,0.088-0.682,0.193-1.253,0.315s-0.944,0.241-1.12,0.358
			c-0.27,0.19-0.403,0.433-0.403,0.726c0,0.288,0.107,0.537,0.322,0.746c0.215,0.211,0.488,0.315,0.82,0.315
			c0.371,0,0.726-0.122,1.062-0.366c0.25-0.186,0.413-0.412,0.491-0.682c0.054-0.176,0.081-0.51,0.081-1.003V81.831z"/>
		<path style="fill:#FFFFFF;" d="M160.665,83.347l2.065-0.315c0.088,0.4,0.266,0.704,0.534,0.912
			c0.269,0.207,0.645,0.312,1.129,0.312c0.531,0,0.932-0.098,1.201-0.293c0.18-0.137,0.271-0.32,0.271-0.55
			c0-0.156-0.049-0.286-0.146-0.388c-0.103-0.098-0.332-0.188-0.688-0.271c-1.66-0.366-2.713-0.7-3.156-1.004
			c-0.615-0.419-0.924-1.003-0.924-1.75c0-0.674,0.267-1.24,0.799-1.699s1.357-0.688,2.476-0.688c1.064,0,1.855,0.174,2.373,0.521
			s0.874,0.859,1.069,1.537l-1.941,0.359c-0.083-0.303-0.24-0.535-0.472-0.695c-0.232-0.162-0.563-0.242-0.993-0.242
			c-0.541,0-0.93,0.076-1.164,0.227c-0.156,0.108-0.234,0.247-0.234,0.418c0,0.146,0.068,0.271,0.205,0.373
			c0.186,0.138,0.826,0.33,1.923,0.579c1.096,0.249,1.861,0.555,2.296,0.915c0.43,0.367,0.645,0.877,0.645,1.531
			c0,0.713-0.298,1.326-0.894,1.838c-0.596,0.514-1.478,0.77-2.644,0.77c-1.061,0-1.898-0.215-2.517-0.645
			C161.259,84.667,160.855,84.084,160.665,83.347z"/>
		<path style="fill:#FFFFFF;" d="M169.659,85.566V74.829h2.058v5.698l2.409-2.739h2.535l-2.659,2.842l2.849,4.937h-2.219
			l-1.955-3.494l-0.96,1.004v2.49H169.659z"/>
		<path style="fill:#FFFFFF;" d="M178.073,76.733v-1.904h2.059v1.904H178.073z M178.073,85.566v-7.778h2.059v7.778H178.073z"/>
		<path style="fill:#FFFFFF;" d="M182.241,85.566v-2.059h2.059v2.059H182.241z"/>
	</g>
</g>
<circle style="fill:#8C001A;stroke:#231F20;stroke-width:0.95;stroke-miterlimit:10;" cx="65.06" cy="194.26" r="6.267"/>
<ellipse style="fill:#8C001A;stroke:#000000;stroke-width:1.5;stroke-miterlimit:10;" cx="66.959" cy="193.915" rx="6.077" ry="6.266"/>
<circle style="fill:#8C001A;stroke:#000000;stroke-width:1.5;stroke-miterlimit:10;" cx="64.714" cy="194.26" r="6.267"/>
<ellipse style="fill:#8C001A;stroke:#000000;stroke-width:1.5;stroke-miterlimit:10;" cx="111.33" cy="231.375" rx="6.267" ry="6.076"/>
<circle style="fill:#8C001A;stroke:#000000;stroke-width:1.5;stroke-miterlimit:10;" cx="238.918" cy="492.039" r="6.077"/>
<ellipse style="fill:#8C001A;stroke:#000000;stroke-width:1.5;stroke-miterlimit:10;" cx="239.608" cy="472.877" rx="6.077" ry="6.266"/>
<ellipse style="fill:#8C001A;stroke:#000000;stroke-width:1.5;stroke-miterlimit:10;" cx="113.747" cy="231.375" rx="6.267" ry="6.076"/>
<ellipse style="fill:#8C001A;stroke:#000000;stroke-width:1.5;stroke-miterlimit:10;" cx="59.19" cy="196.505" rx="6.267" ry="6.076"/>
<g>
	<polygon points="119.988,348.165 49.031,348.165 49.031,285.974 90.507,285.974 113.853,232.272 102.244,285.974 119.988,285.974 	
		"/>
	<g>
		<rect x="55.89" y="293.598" style="fill:none;" width="57.451" height="51.681"/>
		<path style="fill:#FFFFFF;" d="M66.663,304.337h-2.357l-0.937-2.439h-4.293l-0.886,2.439h-2.3l4.182-10.737h2.293L66.663,304.337z
			 M62.671,300.089l-1.479-3.984l-1.45,3.984H62.671z"/>
		<path style="fill:#FFFFFF;" d="M71.365,296.559v1.641h-1.406v3.135c0,0.635,0.014,1.005,0.04,1.109
			c0.027,0.105,0.088,0.192,0.184,0.261c0.095,0.068,0.211,0.102,0.348,0.102c0.19,0,0.466-0.065,0.828-0.197l0.176,1.597
			c-0.479,0.205-1.021,0.308-1.627,0.308c-0.371,0-0.705-0.062-1.003-0.187c-0.298-0.125-0.517-0.286-0.655-0.483
			c-0.14-0.198-0.236-0.465-0.289-0.803c-0.045-0.238-0.066-0.722-0.066-1.449V298.2h-0.945v-1.641h0.945v-1.546l2.065-1.201v2.747
			H71.365z"/>
		<path style="fill:#FFFFFF;" d="M76.96,304.337V293.6h2.059v10.737H76.96z"/>
		<path style="fill:#FFFFFF;" d="M85.632,301.862l2.051,0.345c-0.264,0.752-0.68,1.324-1.249,1.717
			c-0.568,0.394-1.28,0.59-2.135,0.59c-1.353,0-2.354-0.441-3.003-1.326c-0.513-0.707-0.769-1.601-0.769-2.68
			c0-1.289,0.336-2.299,1.01-3.029c0.674-0.729,1.526-1.095,2.557-1.095c1.157,0,2.07,0.382,2.739,1.146
			c0.669,0.764,0.989,1.935,0.96,3.512h-5.156c0.014,0.61,0.18,1.085,0.498,1.425c0.316,0.339,0.712,0.509,1.186,0.509
			c0.322,0,0.594-0.088,0.813-0.264S85.52,302.252,85.632,301.862z M85.75,299.782c-0.015-0.596-0.169-1.049-0.462-1.358
			c-0.293-0.311-0.649-0.465-1.068-0.465c-0.45,0-0.82,0.163-1.113,0.49s-0.438,0.771-0.433,1.333H85.75z"/>
		<path style="fill:#FFFFFF;" d="M91.008,298.932l-1.868-0.337c0.21-0.752,0.571-1.309,1.084-1.67s1.274-0.542,2.285-0.542
			c0.918,0,1.602,0.108,2.051,0.326c0.449,0.217,0.766,0.493,0.948,0.827c0.184,0.335,0.275,0.949,0.275,1.842l-0.022,2.402
			c0,0.685,0.033,1.188,0.099,1.513c0.066,0.325,0.189,0.673,0.37,1.044h-2.036c-0.054-0.137-0.12-0.339-0.197-0.607
			c-0.035-0.122-0.059-0.203-0.074-0.242c-0.352,0.342-0.728,0.599-1.127,0.77c-0.401,0.17-0.828,0.256-1.282,0.256
			c-0.801,0-1.432-0.217-1.894-0.652c-0.461-0.434-0.691-0.983-0.691-1.647c0-0.439,0.104-0.831,0.314-1.176
			c0.21-0.344,0.504-0.607,0.883-0.791c0.378-0.183,0.924-0.343,1.637-0.479c0.962-0.181,1.628-0.349,2-0.506v-0.205
			c0-0.395-0.099-0.677-0.293-0.846c-0.196-0.168-0.564-0.252-1.106-0.252c-0.366,0-0.651,0.071-0.856,0.216
			C91.301,298.318,91.134,298.571,91.008,298.932z M93.762,300.602c-0.264,0.088-0.682,0.193-1.253,0.315s-0.944,0.241-1.12,0.358
			c-0.27,0.19-0.403,0.433-0.403,0.726c0,0.288,0.107,0.537,0.322,0.746c0.215,0.211,0.488,0.315,0.82,0.315
			c0.371,0,0.726-0.122,1.062-0.366c0.25-0.186,0.413-0.412,0.491-0.682c0.054-0.176,0.081-0.51,0.081-1.003V300.602z"/>
		<path style="fill:#FFFFFF;" d="M97.087,302.119l2.065-0.315c0.088,0.4,0.266,0.704,0.534,0.912
			c0.269,0.207,0.645,0.312,1.129,0.312c0.531,0,0.932-0.098,1.201-0.293c0.18-0.137,0.271-0.32,0.271-0.55
			c0-0.156-0.049-0.286-0.146-0.388c-0.103-0.098-0.332-0.188-0.688-0.271c-1.66-0.366-2.713-0.7-3.156-1.004
			c-0.615-0.419-0.924-1.003-0.924-1.75c0-0.674,0.267-1.24,0.799-1.699s1.357-0.688,2.476-0.688c1.064,0,1.855,0.174,2.373,0.521
			s0.874,0.859,1.069,1.537l-1.941,0.359c-0.083-0.303-0.24-0.535-0.472-0.695c-0.232-0.162-0.563-0.242-0.993-0.242
			c-0.541,0-0.93,0.076-1.164,0.227c-0.156,0.108-0.234,0.247-0.234,0.418c0,0.146,0.068,0.271,0.205,0.373
			c0.186,0.138,0.826,0.33,1.923,0.579c1.096,0.249,1.861,0.555,2.296,0.915c0.43,0.367,0.645,0.877,0.645,1.531
			c0,0.713-0.298,1.326-0.894,1.838c-0.596,0.514-1.478,0.77-2.644,0.77c-1.061,0-1.898-0.215-2.517-0.645
			C97.681,303.439,97.277,302.856,97.087,302.119z"/>
		<path style="fill:#FFFFFF;" d="M109.72,296.559v1.641h-1.406v3.135c0,0.635,0.014,1.005,0.04,1.109
			c0.027,0.105,0.088,0.192,0.184,0.261c0.095,0.068,0.211,0.102,0.348,0.102c0.19,0,0.466-0.065,0.828-0.197l0.176,1.597
			c-0.479,0.205-1.021,0.308-1.627,0.308c-0.371,0-0.705-0.062-1.003-0.187c-0.298-0.125-0.517-0.286-0.655-0.483
			c-0.14-0.198-0.236-0.465-0.289-0.803c-0.045-0.238-0.066-0.722-0.066-1.449V298.2h-0.945v-1.641h0.945v-1.546l2.065-1.201v2.747
			H109.72z"/>
		<path style="fill:#FFFFFF;" d="M64.042,321.337h-2.059v-3.97c0-0.84-0.044-1.383-0.132-1.63c-0.088-0.246-0.23-0.438-0.429-0.574
			c-0.197-0.137-0.436-0.205-0.714-0.205c-0.356,0-0.677,0.098-0.96,0.293s-0.477,0.453-0.582,0.775
			c-0.104,0.322-0.157,0.919-0.157,1.787v3.523h-2.058v-7.778h1.911v1.143c0.679-0.879,1.533-1.318,2.563-1.318
			c0.454,0,0.869,0.082,1.245,0.245c0.376,0.164,0.66,0.373,0.854,0.627c0.192,0.254,0.327,0.541,0.402,0.863
			c0.076,0.322,0.114,0.784,0.114,1.385V321.337z"/>
		<path style="fill:#FFFFFF;" d="M66.128,312.504V310.6h2.059v1.904H66.128z M66.128,321.337v-7.778h2.059v7.778H66.128z"/>
		<path style="fill:#FFFFFF;" d="M77.372,321.337h-2.059v-3.97c0-0.84-0.044-1.383-0.132-1.63c-0.088-0.246-0.23-0.438-0.429-0.574
			c-0.197-0.137-0.436-0.205-0.714-0.205c-0.356,0-0.677,0.098-0.96,0.293s-0.477,0.453-0.582,0.775
			c-0.104,0.322-0.157,0.919-0.157,1.787v3.523h-2.058v-7.778h1.911v1.143c0.679-0.879,1.533-1.318,2.563-1.318
			c0.454,0,0.869,0.082,1.245,0.245c0.376,0.164,0.66,0.373,0.854,0.627c0.192,0.254,0.327,0.541,0.402,0.863
			c0.076,0.322,0.114,0.784,0.114,1.385V321.337z"/>
		<path style="fill:#FFFFFF;" d="M83.962,318.862l2.051,0.345c-0.264,0.752-0.68,1.324-1.249,1.717
			c-0.568,0.394-1.28,0.59-2.135,0.59c-1.353,0-2.354-0.441-3.003-1.326c-0.513-0.707-0.769-1.601-0.769-2.68
			c0-1.289,0.336-2.299,1.01-3.029c0.674-0.729,1.526-1.095,2.557-1.095c1.157,0,2.07,0.382,2.739,1.146
			c0.669,0.764,0.989,1.935,0.96,3.512h-5.156c0.014,0.61,0.18,1.085,0.498,1.425c0.316,0.339,0.712,0.509,1.186,0.509
			c0.322,0,0.594-0.088,0.813-0.264S83.85,319.252,83.962,318.862z M84.08,316.782c-0.015-0.596-0.169-1.049-0.462-1.358
			c-0.293-0.311-0.649-0.465-1.068-0.465c-0.45,0-0.82,0.163-1.113,0.49s-0.438,0.771-0.433,1.333H84.08z"/>
		<path style="fill:#FFFFFF;" d="M56.893,338.337V327.6h2.058v5.698l2.409-2.739h2.535l-2.659,2.842l2.849,4.937h-2.219
			l-1.955-3.494l-0.96,1.004v2.49H56.893z"/>
		<path style="fill:#FFFFFF;" d="M65.307,329.504V327.6h2.059v1.904H65.307z M65.307,338.337v-7.778h2.059v7.778H65.307z"/>
		<path style="fill:#FFFFFF;" d="M69.475,338.337V327.6h2.059v10.737H69.475z"/>
		<path style="fill:#FFFFFF;" d="M73.643,338.337V327.6h2.059v10.737H73.643z"/>
		<path style="fill:#FFFFFF;" d="M82.316,335.862l2.051,0.345c-0.264,0.752-0.68,1.324-1.249,1.717
			c-0.568,0.394-1.28,0.59-2.135,0.59c-1.353,0-2.354-0.441-3.003-1.326c-0.513-0.707-0.769-1.601-0.769-2.68
			c0-1.289,0.336-2.299,1.01-3.029c0.674-0.729,1.526-1.095,2.557-1.095c1.157,0,2.07,0.382,2.739,1.146
			c0.669,0.764,0.989,1.935,0.96,3.512h-5.156c0.014,0.61,0.18,1.085,0.498,1.425c0.316,0.339,0.712,0.509,1.186,0.509
			c0.322,0,0.594-0.088,0.813-0.264S82.204,336.252,82.316,335.862z M82.433,333.782c-0.015-0.596-0.169-1.049-0.462-1.358
			c-0.293-0.311-0.649-0.465-1.068-0.465c-0.45,0-0.82,0.163-1.113,0.49s-0.438,0.771-0.433,1.333H82.433z"/>
		<path style="fill:#FFFFFF;" d="M93.288,338.337h-1.912v-1.143c-0.317,0.444-0.692,0.775-1.124,0.992
			c-0.433,0.218-0.868,0.326-1.308,0.326c-0.894,0-1.659-0.36-2.296-1.08c-0.638-0.721-0.956-1.725-0.956-3.014
			c0-1.318,0.31-2.321,0.93-3.007c0.62-0.687,1.404-1.029,2.352-1.029c0.869,0,1.621,0.361,2.256,1.084V327.6h2.059V338.337z
			 M87.794,334.28c0,0.83,0.115,1.431,0.345,1.802c0.332,0.537,0.796,0.806,1.392,0.806c0.474,0,0.876-0.201,1.209-0.604
			c0.331-0.402,0.498-1.004,0.498-1.805c0-0.895-0.162-1.537-0.484-1.931c-0.322-0.393-0.734-0.589-1.237-0.589
			c-0.488,0-0.897,0.193-1.227,0.582C87.959,332.928,87.794,333.508,87.794,334.28z"/>
		<path style="fill:#FFFFFF;" d="M95.315,338.337v-2.059h2.059v2.059H95.315z"/>
	</g>
</g>
<g>
	<g>
		<g>
			<rect x="13.671" y="14.792" style="fill:#EBEBEB;stroke:#231F20;" width="87.269" height="52.143"/>
		</g>
		<g>
			<g>
				<g>
					<path d="M40.387,54.312V42.859h7.727v1.352h-6.211v3.547h5.375v1.352h-5.375v5.203H40.387z"/>
					<path d="M55.317,53.289c-0.521,0.442-1.022,0.755-1.504,0.938S52.814,54.5,52.262,54.5c-0.911,0-1.612-0.223-2.102-0.668
						s-0.734-1.015-0.734-1.707c0-0.406,0.093-0.777,0.277-1.113s0.427-0.605,0.727-0.809s0.637-0.356,1.012-0.461
						c0.276-0.073,0.692-0.144,1.25-0.211c1.136-0.136,1.972-0.297,2.508-0.484c0.005-0.192,0.008-0.315,0.008-0.367
						c0-0.573-0.133-0.977-0.398-1.211c-0.359-0.317-0.894-0.477-1.602-0.477c-0.661,0-1.149,0.116-1.465,0.348
						s-0.548,0.642-0.699,1.23l-1.375-0.188c0.125-0.589,0.331-1.063,0.617-1.426s0.7-0.641,1.242-0.836s1.169-0.293,1.883-0.293
						c0.708,0,1.284,0.083,1.727,0.25s0.769,0.376,0.977,0.629s0.354,0.571,0.438,0.957c0.047,0.239,0.07,0.672,0.07,1.297v1.875
						c0,1.308,0.03,2.134,0.09,2.48s0.179,0.679,0.355,0.996h-1.469C55.453,54.02,55.359,53.679,55.317,53.289z M55.2,50.148
						c-0.511,0.208-1.276,0.386-2.297,0.531c-0.578,0.083-0.987,0.177-1.227,0.281s-0.425,0.257-0.555,0.457
						s-0.195,0.423-0.195,0.668c0,0.375,0.142,0.688,0.426,0.938s0.699,0.375,1.246,0.375c0.542,0,1.023-0.118,1.445-0.355
						s0.731-0.562,0.93-0.973c0.151-0.317,0.227-0.786,0.227-1.406V50.148z"/>
					<path d="M61.872,53.054l0.203,1.242c-0.396,0.083-0.75,0.125-1.062,0.125c-0.511,0-0.906-0.081-1.188-0.242
						s-0.479-0.374-0.594-0.637s-0.172-0.816-0.172-1.66v-4.773h-1.031v-1.094h1.031V43.96l1.398-0.844v2.898h1.414v1.094h-1.414
						v4.852c0,0.401,0.024,0.659,0.074,0.773s0.13,0.206,0.242,0.273s0.272,0.102,0.48,0.102
						C61.411,53.109,61.617,53.09,61.872,53.054z"/>
					<path d="M68.661,53.289c-0.521,0.442-1.022,0.755-1.504,0.938S66.158,54.5,65.606,54.5c-0.911,0-1.612-0.223-2.102-0.668
						s-0.734-1.015-0.734-1.707c0-0.406,0.093-0.777,0.277-1.113s0.427-0.605,0.727-0.809c0.3-0.203,0.637-0.356,1.012-0.461
						c0.276-0.073,0.692-0.144,1.25-0.211c1.136-0.136,1.972-0.297,2.508-0.484c0.005-0.192,0.008-0.315,0.008-0.367
						c0-0.573-0.133-0.977-0.398-1.211c-0.359-0.317-0.894-0.477-1.602-0.477c-0.661,0-1.149,0.116-1.465,0.348
						s-0.548,0.642-0.699,1.23l-1.375-0.188c0.125-0.589,0.331-1.063,0.617-1.426s0.7-0.641,1.242-0.836s1.169-0.293,1.883-0.293
						c0.708,0,1.284,0.083,1.727,0.25s0.769,0.376,0.977,0.629s0.354,0.571,0.438,0.957c0.047,0.239,0.07,0.672,0.07,1.297v1.875
						c0,1.308,0.03,2.134,0.09,2.48s0.179,0.679,0.355,0.996h-1.469C68.796,54.02,68.703,53.679,68.661,53.289z M68.544,50.148
						c-0.511,0.208-1.276,0.386-2.297,0.531c-0.578,0.083-0.987,0.177-1.227,0.281s-0.425,0.257-0.555,0.457
						s-0.195,0.423-0.195,0.668c0,0.375,0.142,0.688,0.426,0.938s0.699,0.375,1.246,0.375c0.542,0,1.023-0.118,1.445-0.355
						s0.731-0.562,0.93-0.973c0.151-0.317,0.227-0.786,0.227-1.406V50.148z"/>
					<path d="M72.114,54.312V42.859h1.406v11.453H72.114z"/>
					<path d="M75.708,44.476v-1.617h1.406v1.617H75.708z M75.708,54.312v-8.297h1.406v8.297H75.708z"/>
					<path d="M82.325,53.054l0.203,1.242c-0.396,0.083-0.75,0.125-1.062,0.125c-0.511,0-0.906-0.081-1.188-0.242
						s-0.479-0.374-0.594-0.637s-0.172-0.816-0.172-1.66v-4.773h-1.031v-1.094h1.031V43.96l1.398-0.844v2.898h1.414v1.094h-1.414
						v4.852c0,0.401,0.024,0.659,0.074,0.773s0.13,0.206,0.242,0.273s0.272,0.102,0.48,0.102
						C81.864,53.109,82.07,53.09,82.325,53.054z"/>
					<path d="M83.637,57.507l-0.156-1.32c0.308,0.083,0.575,0.125,0.805,0.125c0.312,0,0.562-0.052,0.75-0.156
						s0.341-0.25,0.461-0.438c0.089-0.141,0.231-0.489,0.43-1.047c0.026-0.078,0.067-0.192,0.125-0.344l-3.148-8.312h1.516
						l1.727,4.805c0.224,0.609,0.425,1.25,0.602,1.922c0.161-0.646,0.354-1.276,0.578-1.891l1.773-4.836h1.406l-3.156,8.438
						c-0.339,0.911-0.602,1.539-0.789,1.883c-0.25,0.464-0.536,0.804-0.859,1.02s-0.708,0.324-1.156,0.324
						C84.273,57.679,83.97,57.622,83.637,57.507z"/>
				</g>
			</g>
		</g>
	</g>
	<path style="fill:#8C001A;stroke:#000000;stroke-width:1.5;stroke-miterlimit:10;" d="M29.112,43.532L29.112,43.532
		c-3.37,0-6.127,2.757-6.127,6.127v0c0,3.37,2.757,6.127,6.127,6.127h0c3.37,0,6.127-2.757,6.127-6.127v0
		C35.239,46.289,32.482,43.532,29.112,43.532z"/>
	<g>
		<path d="M24.147,34.404V23.667h2.168v4.769l4.379-4.769h2.916l-4.043,4.183l4.262,6.555h-2.805l-2.951-5.039l-1.758,1.795v3.244
			H24.147z"/>
		<path d="M34.95,34.404V23.667h7.961v1.816h-5.793v2.38h5.391v1.81h-5.391v2.923h5.998v1.809H34.95z"/>
		<path d="M47.775,34.404v-4.52l-3.933-6.218h2.541l2.527,4.248l2.475-4.248h2.498L49.936,29.9v4.504H47.775z"/>
	</g>
</g>
</svg>
