<?xml version="1.0" encoding="utf-8"?>
<!-- Generator: Adobe Illustrator 22.0.1, SVG Export Plug-In . SVG Version: 6.00 Build 0)  -->
<svg version="1.1" id="madison-street" xmlns="http://www.w3.org/2000/svg" xmlns:xlink="http://www.w3.org/1999/xlink" x="0px"
	 y="0px" viewBox="0 0 400 602.122" style="enable-background:new 0 0 400 602.122;" xml:space="preserve">
<rect x="119.497" y="185.496" style="fill:#D7153A;stroke:#000000;stroke-width:1.5;" width="50.782" height="7.812"/>
<rect x="119.497" y="226.691" style="fill:#D7153A;stroke:#000000;stroke-width:1.5;" width="50.782" height="7.812"/>
<rect x="230.108" y="462.393" style="fill:#D7153A;stroke:#000000;stroke-width:1.5;" width="16.592" height="7.812"/>
<g>
	<rect x="104.987" y="451.826" style="fill:#F1F2F2;" width="35.175" height="15.355"/>
	<g>
		<g>
			<path d="M113.663,456.937l-1.576,0.216c-0.048-0.324-0.155-0.562-0.322-0.713s-0.38-0.223-0.64-0.216
				c-0.345,0.01-0.632,0.173-0.863,0.489c-0.23,0.316-0.363,0.966-0.4,1.948c0.395-0.492,0.894-0.744,1.499-0.761
				c0.682-0.018,1.274,0.228,1.772,0.733c0.501,0.507,0.762,1.172,0.784,1.992c0.022,0.872-0.215,1.579-0.712,2.12
				c-0.499,0.54-1.148,0.821-1.951,0.843c-0.86,0.022-1.577-0.294-2.149-0.947c-0.572-0.655-0.877-1.743-0.917-3.267
				c-0.041-1.562,0.219-2.695,0.778-3.4c0.559-0.706,1.3-1.07,2.223-1.095c0.647-0.017,1.188,0.15,1.622,0.502
				S113.529,456.251,113.663,456.937z M110.054,460.598c0.013,0.532,0.146,0.939,0.398,1.221c0.252,0.281,0.534,0.419,0.848,0.41
				c0.302-0.008,0.551-0.133,0.747-0.374c0.195-0.243,0.286-0.632,0.272-1.172c-0.014-0.553-0.134-0.957-0.357-1.21
				c-0.224-0.251-0.499-0.372-0.824-0.364c-0.314,0.008-0.577,0.138-0.787,0.391C110.14,459.752,110.04,460.118,110.054,460.598z"/>
			<path d="M114.802,461.085l1.576-0.233c0.061,0.402,0.204,0.706,0.431,0.914c0.227,0.206,0.497,0.306,0.811,0.297
				c0.337-0.008,0.617-0.143,0.841-0.405c0.224-0.261,0.331-0.61,0.319-1.044c-0.011-0.412-0.13-0.734-0.357-0.969
				c-0.227-0.234-0.499-0.347-0.817-0.339c-0.209,0.007-0.459,0.053-0.747,0.141l0.145-1.336c0.442,0,0.777-0.105,1.004-0.314
				c0.228-0.209,0.337-0.484,0.327-0.821c-0.007-0.286-0.099-0.512-0.273-0.678c-0.174-0.166-0.403-0.246-0.686-0.238
				c-0.279,0.007-0.515,0.11-0.708,0.309c-0.193,0.199-0.306,0.485-0.338,0.857l-1.512-0.216c0.091-0.518,0.238-0.934,0.441-1.248
				c0.204-0.314,0.49-0.563,0.864-0.751c0.373-0.186,0.794-0.284,1.264-0.297c0.802-0.02,1.452,0.219,1.951,0.718
				c0.41,0.409,0.622,0.876,0.636,1.403c0.02,0.749-0.373,1.356-1.18,1.823c0.491,0.093,0.887,0.317,1.19,0.673
				c0.302,0.357,0.46,0.793,0.474,1.309c0.02,0.748-0.237,1.391-0.769,1.933c-0.533,0.543-1.206,0.824-2.02,0.846
				c-0.772,0.02-1.418-0.186-1.937-0.617C115.213,462.373,114.902,461.799,114.802,461.085z"/>
			<path d="M121.908,463.162l-0.224-8.523l3.622-0.095c0.911-0.025,1.575,0.035,1.992,0.176c0.416,0.143,0.754,0.407,1.012,0.793
				c0.259,0.384,0.395,0.829,0.408,1.333c0.017,0.64-0.157,1.173-0.523,1.599c-0.366,0.427-0.92,0.705-1.665,0.833
				c0.377,0.208,0.691,0.437,0.94,0.691c0.249,0.254,0.587,0.706,1.016,1.358l1.084,1.637l-2.058,0.053l-1.293-1.821
				c-0.459-0.651-0.773-1.062-0.94-1.231c-0.167-0.168-0.343-0.281-0.527-0.341c-0.184-0.06-0.474-0.083-0.869-0.073l-0.349,0.01
				l0.093,3.558L121.908,463.162z M123.5,458.198l1.274-0.033c0.825-0.022,1.34-0.07,1.544-0.145
				c0.204-0.076,0.361-0.201,0.473-0.374c0.112-0.173,0.165-0.389,0.158-0.645c-0.007-0.286-0.09-0.515-0.248-0.688
				c-0.157-0.173-0.376-0.278-0.656-0.317c-0.14-0.015-0.559-0.015-1.256,0.003l-1.344,0.037L123.5,458.198z"/>
			<path d="M130.272,454.413l3.146-0.081c0.71-0.018,1.252,0.022,1.627,0.12c0.504,0.135,0.939,0.386,1.305,0.753
				c0.366,0.366,0.651,0.819,0.851,1.359c0.2,0.538,0.311,1.208,0.332,2.007c0.018,0.701-0.052,1.308-0.214,1.821
				c-0.198,0.625-0.489,1.135-0.874,1.529c-0.291,0.299-0.689,0.535-1.192,0.711c-0.376,0.131-0.882,0.204-1.518,0.221l-3.239,0.085
				L130.272,454.413z M132.031,455.81l0.148,5.645l1.285-0.033c0.481-0.012,0.827-0.048,1.039-0.108
				c0.278-0.076,0.506-0.201,0.685-0.372c0.18-0.173,0.323-0.45,0.43-0.834c0.106-0.386,0.151-0.909,0.134-1.567
				c-0.017-0.658-0.089-1.163-0.214-1.512c-0.125-0.351-0.296-0.622-0.509-0.813c-0.214-0.193-0.484-0.319-0.808-0.381
				c-0.241-0.048-0.713-0.063-1.415-0.045L132.031,455.81z"/>
		</g>
	</g>
</g>
<g>
	<polygon points="122.716,113.261 206.775,113.261 206.775,155.116 183.468,155.116 158.582,190.981 174.959,155.116 
		122.716,155.116 	"/>
	<g>
		<rect x="128.386" y="119.68" style="fill:none;" width="74.377" height="32.048"/>
		<path style="fill:#FFFFFF;" d="M139.16,130.42h-2.357l-0.938-2.439h-4.293l-0.886,2.439h-2.3l4.182-10.737h2.293L139.16,130.42z
			 M135.169,126.172l-1.479-3.984l-1.45,3.984H135.169z"/>
		<path style="fill:#FFFFFF;" d="M142.266,130.42h-2.059v-7.778h1.912v1.106c0.327-0.522,0.621-0.867,0.883-1.033
			c0.261-0.166,0.558-0.249,0.89-0.249c0.469,0,0.92,0.13,1.354,0.388l-0.637,1.795c-0.347-0.225-0.669-0.337-0.967-0.337
			c-0.288,0-0.532,0.079-0.732,0.238c-0.2,0.158-0.357,0.445-0.473,0.86c-0.114,0.415-0.172,1.284-0.172,2.607V130.42z"/>
		<path style="fill:#FFFFFF;" d="M150.638,127.945l2.051,0.345c-0.264,0.752-0.68,1.324-1.249,1.717
			c-0.568,0.394-1.28,0.59-2.135,0.59c-1.353,0-2.354-0.441-3.003-1.326c-0.513-0.707-0.769-1.601-0.769-2.68
			c0-1.289,0.336-2.299,1.01-3.029c0.674-0.729,1.526-1.095,2.557-1.095c1.157,0,2.07,0.382,2.739,1.146
			c0.669,0.764,0.989,1.935,0.96,3.512h-5.156c0.014,0.61,0.18,1.085,0.498,1.425c0.316,0.339,0.712,0.509,1.186,0.509
			c0.322,0,0.594-0.088,0.813-0.264S150.526,128.335,150.638,127.945z M150.755,125.865c-0.015-0.596-0.169-1.049-0.462-1.358
			c-0.293-0.311-0.649-0.465-1.068-0.465c-0.45,0-0.82,0.163-1.113,0.49s-0.438,0.771-0.433,1.333H150.755z"/>
		<path style="fill:#FFFFFF;" d="M156.014,125.015l-1.868-0.337c0.21-0.752,0.571-1.309,1.084-1.67s1.274-0.542,2.285-0.542
			c0.918,0,1.602,0.108,2.051,0.326c0.449,0.217,0.766,0.493,0.948,0.827c0.184,0.335,0.275,0.949,0.275,1.842l-0.022,2.402
			c0,0.685,0.033,1.188,0.099,1.513c0.066,0.325,0.189,0.673,0.37,1.044H159.2c-0.054-0.137-0.12-0.339-0.197-0.607
			c-0.035-0.122-0.059-0.203-0.074-0.242c-0.352,0.342-0.728,0.599-1.127,0.77c-0.401,0.17-0.828,0.256-1.282,0.256
			c-0.801,0-1.432-0.217-1.894-0.652c-0.461-0.434-0.691-0.983-0.691-1.647c0-0.439,0.104-0.831,0.314-1.176
			c0.21-0.344,0.504-0.607,0.883-0.791c0.378-0.183,0.924-0.343,1.637-0.479c0.962-0.181,1.628-0.349,2-0.506v-0.205
			c0-0.395-0.099-0.677-0.293-0.846c-0.196-0.168-0.564-0.252-1.106-0.252c-0.366,0-0.651,0.071-0.856,0.216
			C156.307,124.401,156.14,124.654,156.014,125.015z M158.768,126.685c-0.264,0.088-0.682,0.193-1.253,0.315
			s-0.944,0.241-1.12,0.358c-0.27,0.19-0.403,0.433-0.403,0.726c0,0.288,0.107,0.537,0.322,0.746
			c0.215,0.211,0.488,0.315,0.82,0.315c0.371,0,0.726-0.122,1.062-0.366c0.25-0.186,0.413-0.412,0.491-0.682
			c0.054-0.176,0.081-0.51,0.081-1.003V126.685z"/>
		<path style="fill:#FFFFFF;" d="M162.092,128.202l2.065-0.315c0.088,0.4,0.266,0.704,0.534,0.912
			c0.269,0.207,0.645,0.312,1.129,0.312c0.531,0,0.932-0.098,1.201-0.293c0.18-0.137,0.271-0.32,0.271-0.55
			c0-0.156-0.049-0.286-0.146-0.388c-0.103-0.098-0.332-0.188-0.688-0.271c-1.66-0.366-2.713-0.7-3.156-1.004
			c-0.615-0.419-0.924-1.003-0.924-1.75c0-0.674,0.267-1.24,0.799-1.699s1.357-0.688,2.476-0.688c1.064,0,1.855,0.174,2.373,0.521
			s0.874,0.859,1.069,1.537l-1.941,0.359c-0.083-0.303-0.24-0.535-0.472-0.695c-0.232-0.162-0.563-0.242-0.993-0.242
			c-0.541,0-0.93,0.076-1.164,0.227c-0.156,0.108-0.234,0.247-0.234,0.418c0,0.146,0.068,0.271,0.205,0.373
			c0.186,0.138,0.826,0.33,1.923,0.579c1.096,0.249,1.861,0.555,2.296,0.915c0.43,0.367,0.645,0.877,0.645,1.531
			c0,0.713-0.298,1.326-0.894,1.838c-0.596,0.514-1.478,0.77-2.644,0.77c-1.061,0-1.898-0.215-2.517-0.645
			C162.687,129.522,162.283,128.939,162.092,128.202z"/>
		<path style="fill:#FFFFFF;" d="M136.597,147.42h-1.912v-1.143c-0.317,0.444-0.692,0.775-1.124,0.992
			c-0.433,0.218-0.868,0.326-1.308,0.326c-0.894,0-1.659-0.36-2.296-1.08c-0.638-0.721-0.956-1.725-0.956-3.014
			c0-1.318,0.31-2.321,0.93-3.007c0.62-0.687,1.404-1.029,2.352-1.029c0.869,0,1.621,0.361,2.256,1.084v-3.867h2.059V147.42z
			 M131.103,143.363c0,0.83,0.115,1.431,0.345,1.802c0.332,0.537,0.796,0.806,1.392,0.806c0.474,0,0.876-0.201,1.209-0.604
			c0.331-0.402,0.498-1.004,0.498-1.805c0-0.895-0.162-1.537-0.484-1.931c-0.322-0.393-0.734-0.589-1.237-0.589
			c-0.488,0-0.897,0.193-1.227,0.582C131.268,142.011,131.103,142.591,131.103,143.363z"/>
		<path style="fill:#FFFFFF;" d="M143.13,144.945l2.051,0.345c-0.264,0.752-0.68,1.324-1.249,1.717
			c-0.568,0.394-1.28,0.59-2.135,0.59c-1.353,0-2.354-0.441-3.003-1.326c-0.513-0.707-0.769-1.601-0.769-2.68
			c0-1.289,0.336-2.299,1.01-3.029c0.674-0.729,1.526-1.095,2.557-1.095c1.157,0,2.07,0.382,2.739,1.146
			c0.669,0.764,0.989,1.935,0.96,3.512h-5.156c0.014,0.61,0.18,1.085,0.498,1.425c0.316,0.339,0.712,0.509,1.186,0.509
			c0.322,0,0.594-0.088,0.813-0.264S143.018,145.335,143.13,144.945z M143.248,142.865c-0.015-0.596-0.169-1.049-0.462-1.358
			c-0.293-0.311-0.649-0.465-1.068-0.465c-0.45,0-0.82,0.163-1.113,0.49s-0.438,0.771-0.433,1.333H143.248z"/>
		<path style="fill:#FFFFFF;" d="M146.243,145.202l2.065-0.315c0.088,0.4,0.266,0.704,0.534,0.912
			c0.269,0.207,0.645,0.312,1.129,0.312c0.531,0,0.932-0.098,1.201-0.293c0.18-0.137,0.271-0.32,0.271-0.55
			c0-0.156-0.049-0.286-0.146-0.388c-0.103-0.098-0.332-0.188-0.688-0.271c-1.66-0.366-2.713-0.7-3.156-1.004
			c-0.615-0.419-0.924-1.003-0.924-1.75c0-0.674,0.267-1.24,0.799-1.699s1.357-0.688,2.476-0.688c1.064,0,1.855,0.174,2.373,0.521
			s0.874,0.859,1.069,1.537l-1.941,0.359c-0.083-0.303-0.24-0.535-0.472-0.695c-0.232-0.162-0.563-0.242-0.993-0.242
			c-0.541,0-0.93,0.076-1.164,0.227c-0.156,0.108-0.234,0.247-0.234,0.418c0,0.146,0.068,0.271,0.205,0.373
			c0.186,0.138,0.826,0.33,1.923,0.579c1.096,0.249,1.861,0.555,2.296,0.915c0.43,0.367,0.645,0.877,0.645,1.531
			c0,0.713-0.298,1.326-0.894,1.838c-0.596,0.514-1.478,0.77-2.644,0.77c-1.061,0-1.898-0.215-2.517-0.645
			C146.837,146.522,146.433,145.939,146.243,145.202z"/>
		<path style="fill:#FFFFFF;" d="M158.877,139.642v1.641h-1.406v3.135c0,0.635,0.014,1.005,0.04,1.109
			c0.027,0.105,0.088,0.192,0.184,0.261c0.095,0.068,0.211,0.102,0.348,0.102c0.19,0,0.466-0.065,0.828-0.197l0.176,1.597
			c-0.479,0.205-1.021,0.308-1.627,0.308c-0.371,0-0.705-0.062-1.003-0.187c-0.298-0.125-0.517-0.286-0.655-0.483
			c-0.14-0.198-0.236-0.465-0.289-0.803c-0.045-0.238-0.066-0.722-0.066-1.449v-3.392h-0.945v-1.641h0.945v-1.546l2.065-1.201v2.747
			H158.877z"/>
		<path style="fill:#FFFFFF;" d="M162.275,147.42h-2.059v-7.778h1.912v1.106c0.327-0.522,0.621-0.867,0.883-1.033
			c0.261-0.166,0.558-0.249,0.89-0.249c0.469,0,0.92,0.13,1.354,0.388l-0.637,1.795c-0.347-0.225-0.669-0.337-0.967-0.337
			c-0.288,0-0.532,0.079-0.732,0.238c-0.2,0.158-0.357,0.445-0.473,0.86c-0.114,0.415-0.172,1.284-0.172,2.607V147.42z"/>
		<path style="fill:#FFFFFF;" d="M165.666,143.421c0-0.684,0.169-1.345,0.505-1.985c0.338-0.639,0.814-1.127,1.433-1.465
			c0.617-0.336,1.308-0.505,2.069-0.505c1.176,0,2.141,0.382,2.893,1.146c0.752,0.764,1.128,1.729,1.128,2.896
			c0,1.177-0.38,2.152-1.139,2.926c-0.76,0.774-1.716,1.161-2.868,1.161c-0.713,0-1.393-0.161-2.039-0.483
			c-0.647-0.322-1.139-0.795-1.477-1.417C165.835,145.073,165.666,144.315,165.666,143.421z M167.775,143.532
			c0,0.771,0.183,1.361,0.55,1.771c0.365,0.41,0.817,0.615,1.354,0.615s0.987-0.205,1.352-0.615c0.363-0.41,0.546-1.005,0.546-1.787
			c0-0.762-0.183-1.348-0.546-1.758c-0.364-0.41-0.814-0.615-1.352-0.615s-0.989,0.205-1.354,0.615
			C167.958,142.168,167.775,142.76,167.775,143.532z"/>
		<path style="fill:#FFFFFF;" d="M174.33,139.642h2.19l1.859,5.522l1.816-5.522h2.132l-2.747,7.485l-0.49,1.355
			c-0.181,0.453-0.353,0.8-0.517,1.039c-0.163,0.239-0.352,0.434-0.563,0.583c-0.213,0.148-0.474,0.265-0.784,0.348
			c-0.31,0.083-0.66,0.124-1.051,0.124c-0.396,0-0.784-0.041-1.165-0.124l-0.183-1.611c0.322,0.063,0.612,0.095,0.872,0.095
			c0.478,0,0.832-0.14,1.062-0.421c0.229-0.28,0.405-0.639,0.527-1.073L174.33,139.642z"/>
		<path style="fill:#FFFFFF;" d="M188.15,144.945l2.051,0.345c-0.264,0.752-0.68,1.324-1.249,1.717
			c-0.568,0.394-1.28,0.59-2.135,0.59c-1.353,0-2.354-0.441-3.003-1.326c-0.513-0.707-0.769-1.601-0.769-2.68
			c0-1.289,0.336-2.299,1.01-3.029c0.674-0.729,1.526-1.095,2.557-1.095c1.157,0,2.07,0.382,2.739,1.146
			c0.669,0.764,0.989,1.935,0.96,3.512h-5.156c0.014,0.61,0.18,1.085,0.498,1.425c0.316,0.339,0.712,0.509,1.186,0.509
			c0.322,0,0.594-0.088,0.813-0.264S188.038,145.335,188.15,144.945z M188.267,142.865c-0.015-0.596-0.169-1.049-0.462-1.358
			c-0.293-0.311-0.649-0.465-1.068-0.465c-0.45,0-0.82,0.163-1.113,0.49s-0.438,0.771-0.433,1.333H188.267z"/>
		<path style="fill:#FFFFFF;" d="M199.122,147.42h-1.912v-1.143c-0.317,0.444-0.692,0.775-1.124,0.992
			c-0.433,0.218-0.868,0.326-1.308,0.326c-0.894,0-1.659-0.36-2.296-1.08c-0.638-0.721-0.956-1.725-0.956-3.014
			c0-1.318,0.31-2.321,0.93-3.007c0.62-0.687,1.404-1.029,2.352-1.029c0.869,0,1.621,0.361,2.256,1.084v-3.867h2.059V147.42z
			 M193.628,143.363c0,0.83,0.115,1.431,0.345,1.802c0.332,0.537,0.796,0.806,1.392,0.806c0.474,0,0.876-0.201,1.209-0.604
			c0.331-0.402,0.498-1.004,0.498-1.805c0-0.895-0.162-1.537-0.484-1.931c-0.322-0.393-0.734-0.589-1.237-0.589
			c-0.488,0-0.897,0.193-1.227,0.582C193.793,142.011,193.628,142.591,193.628,143.363z"/>
	</g>
</g>
<g>
	<rect x="179.487" y="213.326" style="fill:#F1F2F2;" width="90" height="13.5"/>
	<g>
		<g>
			<path d="M182.542,226.557l-0.282-10.018l4.258-0.12c1.07-0.03,1.851,0.038,2.341,0.204c0.49,0.167,0.887,0.477,1.192,0.928
				c0.305,0.451,0.465,0.974,0.481,1.566c0.021,0.752-0.182,1.378-0.61,1.88c-0.428,0.502-1.079,0.83-1.955,0.982
				c0.444,0.242,0.813,0.513,1.106,0.811c0.294,0.296,0.693,0.827,1.197,1.593l1.278,1.92l-2.419,0.068l-1.524-2.139
				c-0.54-0.765-0.909-1.246-1.106-1.442c-0.197-0.197-0.404-0.331-0.62-0.398c-0.216-0.07-0.557-0.098-1.021-0.085l-0.41,0.012
				l0.117,4.182L182.542,226.557z M184.402,220.719l1.496-0.042c0.971-0.027,1.575-0.086,1.814-0.174
				c0.239-0.089,0.424-0.235,0.556-0.439c0.131-0.204,0.192-0.457,0.184-0.758c-0.01-0.337-0.107-0.607-0.294-0.809
				c-0.186-0.203-0.442-0.327-0.772-0.372c-0.165-0.019-0.656-0.017-1.477,0.007l-1.578,0.045L184.402,220.719z"/>
			<path d="M192.093,221.336c-0.029-1.02,0.098-1.881,0.384-2.582c0.214-0.517,0.512-0.982,0.895-1.399
				c0.383-0.416,0.806-0.729,1.27-0.938c0.616-0.282,1.333-0.435,2.148-0.458c1.476-0.041,2.669,0.384,3.581,1.274
				s1.392,2.151,1.438,3.782c0.046,1.617-0.359,2.895-1.212,3.834c-0.854,0.937-2.017,1.427-3.487,1.469
				c-1.49,0.042-2.687-0.379-3.592-1.264C192.612,224.171,192.138,222.93,192.093,221.336z M194.175,221.209
				c0.031,1.135,0.317,1.987,0.857,2.557c0.541,0.571,1.214,0.846,2.021,0.823c0.806-0.022,1.46-0.333,1.96-0.927
				c0.501-0.597,0.734-1.475,0.702-2.637c-0.032-1.147-0.308-1.997-0.827-2.548c-0.52-0.552-1.196-0.813-2.029-0.79
				c-0.834,0.023-1.498,0.327-1.992,0.913C194.373,219.188,194.142,220.057,194.175,221.209z"/>
			<path d="M202.978,221.03c-0.029-1.02,0.099-1.881,0.385-2.582c0.214-0.518,0.512-0.983,0.894-1.399
				c0.383-0.417,0.806-0.729,1.271-0.939c0.616-0.282,1.332-0.434,2.147-0.457c1.476-0.042,2.67,0.383,3.582,1.274
				c0.911,0.89,1.391,2.15,1.437,3.781c0.046,1.617-0.359,2.896-1.211,3.834c-0.854,0.938-2.018,1.428-3.488,1.469
				c-1.489,0.042-2.687-0.378-3.591-1.263C203.498,223.864,203.023,222.624,202.978,221.03z M205.06,220.903
				c0.031,1.135,0.317,1.986,0.858,2.557c0.541,0.571,1.213,0.846,2.02,0.823c0.807-0.023,1.46-0.333,1.96-0.928
				c0.501-0.597,0.735-1.474,0.703-2.636c-0.032-1.147-0.309-1.997-0.828-2.548c-0.52-0.552-1.195-0.814-2.029-0.791
				c-0.834,0.024-1.497,0.328-1.991,0.914C205.257,218.88,205.027,219.75,205.06,220.903z"/>
			<path d="M213.808,222.414l1.963-0.247c0.137,0.657,0.391,1.136,0.762,1.436c0.37,0.3,0.863,0.44,1.479,0.424
				c0.651-0.019,1.138-0.17,1.46-0.456c0.323-0.284,0.479-0.611,0.469-0.98c-0.006-0.237-0.081-0.437-0.226-0.599
				c-0.144-0.162-0.39-0.3-0.739-0.413c-0.239-0.075-0.783-0.206-1.632-0.392c-1.092-0.238-1.862-0.548-2.311-0.927
				c-0.631-0.534-0.956-1.197-0.979-1.99c-0.015-0.511,0.115-0.991,0.393-1.442c0.277-0.454,0.685-0.804,1.222-1.051
				c0.538-0.248,1.191-0.383,1.962-0.404c1.257-0.036,2.211,0.213,2.862,0.747c0.651,0.533,1.005,1.259,1.063,2.179l-2.021,0.146
				c-0.102-0.512-0.297-0.877-0.589-1.096c-0.289-0.216-0.72-0.316-1.29-0.301c-0.588,0.017-1.044,0.15-1.369,0.4
				c-0.21,0.161-0.312,0.371-0.304,0.631c0.007,0.237,0.113,0.437,0.317,0.601c0.261,0.206,0.887,0.412,1.878,0.617
				c0.99,0.205,1.724,0.424,2.203,0.659c0.479,0.234,0.857,0.564,1.135,0.986c0.279,0.424,0.428,0.951,0.445,1.584
				c0.017,0.574-0.128,1.117-0.432,1.627c-0.306,0.509-0.746,0.895-1.322,1.155c-0.576,0.26-1.299,0.402-2.169,0.427
				c-1.267,0.036-2.248-0.229-2.943-0.797C214.401,224.373,213.972,223.531,213.808,222.414z"/>
			<path d="M223.747,225.395l-0.282-10.018l7.428-0.209l0.048,1.694l-5.405,0.152l0.062,2.222l5.029-0.142l0.048,1.688l-5.029,0.142
				l0.077,2.727l5.596-0.158l0.047,1.688L223.747,225.395z"/>
			<path d="M235.636,225.06l-3.863-9.917l2.193-0.062l2.744,7.343l2.244-7.483l2.146-0.061L237.795,225L235.636,225.06z"/>
			<path d="M242.415,224.869l-0.282-10.018l7.428-0.209l0.048,1.694l-5.405,0.152l0.062,2.222l5.029-0.142l0.048,1.688l-5.029,0.142
				l0.077,2.727l5.597-0.158l0.047,1.688L242.415,224.869z"/>
			<path d="M251.803,224.604l-0.28-9.936l2.022-0.057l0.233,8.248l5.029-0.143l0.047,1.688L251.803,224.604z"/>
			<path d="M261.513,224.331l-0.234-8.323l-2.973,0.083l-0.048-1.694l7.961-0.224l0.048,1.694l-2.966,0.083l0.234,8.323
				L261.513,224.331z"/>
		</g>
	</g>
</g>
</svg>
