<?xml version="1.0" encoding="utf-8"?>
<!-- Generator: Adobe Illustrator 22.0.1, SVG Export Plug-In . SVG Version: 6.00 Build 0)  -->
<svg version="1.1" id="national-guard" xmlns="http://www.w3.org/2000/svg" xmlns:xlink="http://www.w3.org/1999/xlink" x="0px"
	 y="0px" viewBox="0 0 400 602.122" style="enable-background:new 0 0 400 602.122;" xml:space="preserve">
<path style="stroke:#231F20;stroke-width:0.95;stroke-miterlimit:10;" d="M308.594,403.965L308.594,403.965
	c-3.247,0-5.904,2.657-5.904,5.904l0,0c0,3.247,2.657,5.904,5.904,5.904l0,0c3.247,0,5.904-2.657,5.904-5.904l0,0
	C314.498,406.622,311.842,403.965,308.594,403.965z"/>
<path style="fill:#F7D9D1;stroke:#231F20;stroke-width:0.95;stroke-miterlimit:10;" d="M367.543,466.377L367.543,466.377
	c-3.247,0-5.904,2.657-5.904,5.904l0,0c0,3.247,2.657,5.904,5.904,5.904l0,0c3.247,0,5.904-2.657,5.904-5.904l0,0
	C373.448,469.034,370.791,466.377,367.543,466.377z"/>
<path style="fill:#F7D9D1;stroke:#231F20;stroke-width:0.95;stroke-miterlimit:10;" d="M214.401,478.539L214.401,478.539
	c-3.247,0-5.904,2.657-5.904,5.904v0c0,3.247,2.657,5.904,5.904,5.904l0,0c3.247,0,5.904-2.657,5.904-5.904v0
	C220.306,481.196,217.649,478.539,214.401,478.539z"/>
<path style="stroke:#231F20;stroke-width:0.95;stroke-miterlimit:10;" d="M166.951,339.776L166.951,339.776
	c-3.247,0-5.904,2.657-5.904,5.904v0c0,3.247,2.657,5.904,5.904,5.904h0c3.247,0,5.904-2.657,5.904-5.904v0
	C172.855,342.433,170.199,339.776,166.951,339.776z"/>
<path style="stroke:#231F20;stroke-width:0.95;stroke-miterlimit:10;" d="M38.672,440.242L38.672,440.242
	c-3.247,0-5.904,2.657-5.904,5.904l0,0c0,3.247,2.657,5.904,5.904,5.904h0c3.247,0,5.904-2.657,5.904-5.904l0,0
	C44.576,442.898,41.919,440.242,38.672,440.242z"/>
<path style="stroke:#231F20;stroke-width:0.95;stroke-miterlimit:10;" d="M110.466,108.431L110.466,108.431
	c-3.247,0-5.904,2.657-5.904,5.904v0c0,3.247,2.657,5.904,5.904,5.904h0c3.247,0,5.904-2.657,5.904-5.904v0
	C116.371,111.088,113.714,108.431,110.466,108.431z"/>
<path style="stroke:#231F20;stroke-width:0.95;stroke-miterlimit:10;" d="M282.392,139.058L282.392,139.058
	c-3.247,0-5.904,2.657-5.904,5.904v0c0,3.247,2.657,5.904,5.904,5.904l0,0c3.247,0,5.904-2.657,5.904-5.904v0
	C288.296,141.715,285.639,139.058,282.392,139.058z"/>
<path style="fill:#F7D9D1;stroke:#231F20;stroke-width:0.95;stroke-miterlimit:10;" d="M312.616,151.347L312.616,151.347
	c-3.247,0-5.904,2.657-5.904,5.904v0c0,3.247,2.657,5.904,5.904,5.904l0,0c3.247,0,5.904-2.657,5.904-5.904v0
	C318.521,154.004,315.864,151.347,312.616,151.347z"/>
<path style="stroke:#231F20;stroke-width:0.95;stroke-miterlimit:10;" d="M137.054,183.005L137.054,183.005
	c-3.247,0-5.904,2.657-5.904,5.904v0c0,3.247,2.657,5.904,5.904,5.904h0c3.247,0,5.904-2.657,5.904-5.904v0
	C142.959,185.662,140.302,183.005,137.054,183.005z"/>
<rect x="262.937" y="181.825" style="fill:#D72132;stroke:#000000;stroke-width:1.5;" width="8.707" height="5.241"/>
<g>
	<polygon points="385.461,291.521 300.988,291.521 300.988,243.742 265.82,183.992 300.988,236.242 300.988,228.215 
		385.461,228.215 	"/>
	<g>
		<g>
			<path style="fill:#FFFFFF;" d="M311.212,247.53l-2.734-11.453h2.367l1.727,7.867l2.094-7.867h2.75l2.008,8l1.758-8h2.328
				l-2.781,11.453h-2.453l-2.281-8.562l-2.273,8.562H311.212z"/>
			<path style="fill:#FFFFFF;" d="M324.533,238.108v-2.031h2.195v2.031H324.533z M324.533,247.53v-8.297h2.195v8.297H324.533z"/>
			<path style="fill:#FFFFFF;" d="M336.525,247.53h-2.195v-4.234c0-0.896-0.047-1.476-0.141-1.738s-0.246-0.468-0.457-0.613
				s-0.465-0.219-0.762-0.219c-0.38,0-0.722,0.104-1.023,0.312s-0.509,0.484-0.621,0.828s-0.168,0.979-0.168,1.906v3.758h-2.195
				v-8.297h2.039v1.219c0.724-0.938,1.636-1.406,2.734-1.406c0.484,0,0.927,0.087,1.328,0.262s0.704,0.397,0.91,0.668
				s0.349,0.578,0.43,0.922s0.121,0.836,0.121,1.477V247.53z"/>
			<path style="fill:#FFFFFF;" d="M346.361,247.53h-2.039v-1.219c-0.339,0.474-0.738,0.827-1.199,1.059s-0.926,0.348-1.395,0.348
				c-0.953,0-1.77-0.384-2.449-1.152s-1.02-1.84-1.02-3.215c0-1.406,0.331-2.476,0.992-3.207s1.497-1.098,2.508-1.098
				c0.927,0,1.729,0.386,2.406,1.156v-4.125h2.195V247.53z M340.502,243.202c0,0.886,0.122,1.526,0.367,1.922
				c0.354,0.573,0.849,0.859,1.484,0.859c0.505,0,0.935-0.215,1.289-0.645s0.531-1.071,0.531-1.926c0-0.953-0.172-1.64-0.516-2.059
				s-0.784-0.629-1.32-0.629c-0.521,0-0.957,0.207-1.309,0.621S340.502,242.378,340.502,243.202z"/>
			<path style="fill:#FFFFFF;" d="M348.017,243.264c0-0.729,0.18-1.435,0.539-2.117s0.868-1.203,1.527-1.562
				s1.395-0.539,2.207-0.539c1.255,0,2.284,0.407,3.086,1.223s1.203,1.845,1.203,3.09c0,1.255-0.405,2.296-1.215,3.121
				s-1.829,1.238-3.059,1.238c-0.761,0-1.485-0.172-2.176-0.516s-1.215-0.848-1.574-1.512S348.017,244.217,348.017,243.264z
				 M350.267,243.381c0,0.823,0.195,1.453,0.586,1.891s0.872,0.656,1.445,0.656s1.054-0.219,1.441-0.656s0.582-1.073,0.582-1.906
				c0-0.812-0.194-1.438-0.582-1.875s-0.868-0.656-1.441-0.656s-1.055,0.219-1.445,0.656S350.267,242.558,350.267,243.381z"/>
			<path style="fill:#FFFFFF;" d="M359.845,247.53l-2.625-8.297h2.133l1.555,5.438l1.43-5.438h2.117l1.383,5.438l1.586-5.438h2.164
				l-2.664,8.297h-2.109l-1.43-5.336l-1.406,5.336H359.845z"/>
			<path style="fill:#FFFFFF;" d="M369.97,245.163l2.203-0.336c0.094,0.427,0.284,0.751,0.57,0.973s0.688,0.332,1.203,0.332
				c0.567,0,0.995-0.104,1.281-0.312c0.192-0.146,0.289-0.341,0.289-0.586c0-0.167-0.052-0.305-0.156-0.414
				c-0.109-0.104-0.354-0.2-0.734-0.289c-1.771-0.391-2.894-0.747-3.367-1.07c-0.656-0.448-0.984-1.07-0.984-1.867
				c0-0.719,0.284-1.323,0.852-1.812s1.448-0.734,2.641-0.734c1.136,0,1.979,0.185,2.531,0.555s0.933,0.917,1.141,1.641l-2.07,0.383
				c-0.089-0.323-0.257-0.57-0.504-0.742s-0.601-0.258-1.059-0.258c-0.578,0-0.992,0.081-1.242,0.242
				c-0.167,0.114-0.25,0.263-0.25,0.445c0,0.156,0.073,0.289,0.219,0.398c0.198,0.146,0.882,0.352,2.051,0.617
				s1.985,0.591,2.449,0.977c0.458,0.391,0.688,0.935,0.688,1.633c0,0.761-0.317,1.414-0.953,1.961s-1.575,0.82-2.82,0.82
				c-1.13,0-2.024-0.229-2.684-0.688S370.173,245.949,369.97,245.163z"/>
			<path style="fill:#FFFFFF;" d="M309.478,264.53v-11.453h2.195v4.125c0.677-0.771,1.479-1.156,2.406-1.156
				c1.011,0,1.847,0.366,2.508,1.098s0.992,1.782,0.992,3.152c0,1.417-0.337,2.508-1.012,3.273s-1.493,1.148-2.457,1.148
				c-0.474,0-0.941-0.118-1.402-0.355s-0.858-0.587-1.191-1.051v1.219H309.478z M311.658,260.202c0,0.859,0.136,1.495,0.406,1.906
				c0.38,0.583,0.886,0.875,1.516,0.875c0.484,0,0.897-0.207,1.238-0.621s0.512-1.066,0.512-1.957c0-0.948-0.172-1.632-0.516-2.051
				s-0.784-0.629-1.32-0.629c-0.526,0-0.964,0.204-1.312,0.613S311.658,259.369,311.658,260.202z"/>
			<path style="fill:#FFFFFF;" d="M324.15,261.889l2.188,0.367c-0.281,0.802-0.726,1.413-1.332,1.832s-1.366,0.629-2.277,0.629
				c-1.442,0-2.511-0.472-3.203-1.414c-0.547-0.755-0.82-1.708-0.82-2.859c0-1.375,0.359-2.452,1.078-3.23s1.628-1.168,2.727-1.168
				c1.234,0,2.208,0.407,2.922,1.223s1.055,2.063,1.023,3.746h-5.5c0.016,0.651,0.192,1.157,0.531,1.52s0.761,0.543,1.266,0.543
				c0.344,0,0.633-0.094,0.867-0.281S324.03,262.306,324.15,261.889z M324.275,259.67c-0.016-0.636-0.18-1.118-0.492-1.449
				s-0.692-0.496-1.141-0.496c-0.479,0-0.875,0.175-1.188,0.523s-0.466,0.823-0.461,1.422H324.275z"/>
			<path style="fill:#FFFFFF;" d="M328.244,255.108v-2.031h2.195v2.031H328.244z M328.244,264.53v-8.297h2.195v8.297H328.244z"/>
			<path style="fill:#FFFFFF;" d="M340.236,264.53h-2.195v-4.234c0-0.896-0.047-1.476-0.141-1.738s-0.246-0.468-0.457-0.613
				s-0.465-0.219-0.762-0.219c-0.38,0-0.722,0.104-1.023,0.312s-0.509,0.484-0.621,0.828s-0.168,0.979-0.168,1.906v3.758h-2.195
				v-8.297h2.039v1.219c0.724-0.938,1.636-1.406,2.734-1.406c0.484,0,0.927,0.087,1.328,0.262s0.704,0.397,0.91,0.668
				s0.349,0.578,0.43,0.922s0.121,0.836,0.121,1.477V264.53z"/>
			<path style="fill:#FFFFFF;" d="M342.259,265.077l2.508,0.305c0.042,0.292,0.138,0.492,0.289,0.602
				c0.208,0.156,0.536,0.234,0.984,0.234c0.573,0,1.003-0.086,1.289-0.258c0.192-0.114,0.339-0.3,0.438-0.555
				c0.067-0.183,0.102-0.519,0.102-1.008v-1.211c-0.656,0.896-1.484,1.344-2.484,1.344c-1.114,0-1.997-0.472-2.648-1.414
				c-0.511-0.745-0.766-1.672-0.766-2.781c0-1.391,0.335-2.453,1.004-3.188s1.501-1.102,2.496-1.102c1.026,0,1.872,0.45,2.539,1.352
				v-1.164h2.055v7.445c0,0.979-0.081,1.711-0.242,2.195s-0.388,0.864-0.68,1.141s-0.681,0.492-1.168,0.648
				s-1.103,0.234-1.848,0.234c-1.406,0-2.403-0.241-2.992-0.723s-0.883-1.093-0.883-1.832
				C342.252,265.269,342.254,265.181,342.259,265.077z M344.22,260.209c0,0.88,0.171,1.524,0.512,1.934s0.762,0.613,1.262,0.613
				c0.536,0,0.989-0.21,1.359-0.629s0.555-1.04,0.555-1.863c0-0.859-0.177-1.497-0.531-1.914s-0.802-0.625-1.344-0.625
				c-0.526,0-0.96,0.204-1.301,0.613S344.22,259.371,344.22,260.209z"/>
			<path style="fill:#FFFFFF;" d="M309.478,281.53v-11.453h2.195v4.125c0.677-0.771,1.479-1.156,2.406-1.156
				c1.011,0,1.847,0.366,2.508,1.098s0.992,1.782,0.992,3.152c0,1.417-0.337,2.508-1.012,3.273s-1.493,1.148-2.457,1.148
				c-0.474,0-0.941-0.118-1.402-0.355s-0.858-0.587-1.191-1.051v1.219H309.478z M311.658,277.202c0,0.859,0.136,1.495,0.406,1.906
				c0.38,0.583,0.886,0.875,1.516,0.875c0.484,0,0.897-0.207,1.238-0.621s0.512-1.066,0.512-1.957c0-0.948-0.172-1.632-0.516-2.051
				s-0.784-0.629-1.32-0.629c-0.526,0-0.964,0.204-1.312,0.613S311.658,276.369,311.658,277.202z"/>
			<path style="fill:#FFFFFF;" d="M321.447,281.53h-2.195v-8.297h2.039v1.18c0.349-0.558,0.663-0.925,0.941-1.102
				s0.595-0.266,0.949-0.266c0.5,0,0.981,0.138,1.445,0.414l-0.68,1.914c-0.37-0.239-0.714-0.359-1.031-0.359
				c-0.308,0-0.567,0.085-0.781,0.254s-0.382,0.476-0.504,0.918s-0.184,1.37-0.184,2.781V281.53z"/>
			<path style="fill:#FFFFFF;" d="M325.064,277.264c0-0.729,0.18-1.435,0.539-2.117s0.868-1.203,1.527-1.562
				s1.395-0.539,2.207-0.539c1.255,0,2.284,0.407,3.086,1.223s1.203,1.845,1.203,3.09c0,1.255-0.405,2.296-1.215,3.121
				s-1.829,1.238-3.059,1.238c-0.761,0-1.485-0.172-2.176-0.516s-1.215-0.848-1.574-1.512S325.064,278.217,325.064,277.264z
				 M327.314,277.381c0,0.823,0.195,1.453,0.586,1.891s0.872,0.656,1.445,0.656s1.054-0.219,1.441-0.656s0.582-1.073,0.582-1.906
				c0-0.812-0.194-1.438-0.582-1.875s-0.868-0.656-1.441-0.656s-1.055,0.219-1.445,0.656S327.314,276.558,327.314,277.381z"/>
			<path style="fill:#FFFFFF;" d="M335.267,281.53v-11.453h2.195v6.078l2.57-2.922h2.703l-2.836,3.031l3.039,5.266h-2.367
				l-2.086-3.727l-1.023,1.07v2.656H335.267z"/>
			<path style="fill:#FFFFFF;" d="M349.048,278.889l2.188,0.367c-0.281,0.802-0.726,1.413-1.332,1.832s-1.366,0.629-2.277,0.629
				c-1.442,0-2.511-0.472-3.203-1.414c-0.547-0.755-0.82-1.708-0.82-2.859c0-1.375,0.359-2.452,1.078-3.23s1.628-1.168,2.727-1.168
				c1.234,0,2.208,0.407,2.922,1.223s1.055,2.063,1.023,3.746h-5.5c0.016,0.651,0.192,1.157,0.531,1.52s0.761,0.543,1.266,0.543
				c0.344,0,0.633-0.094,0.867-0.281S348.928,279.306,349.048,278.889z M349.173,276.67c-0.016-0.636-0.18-1.118-0.492-1.449
				s-0.692-0.496-1.141-0.496c-0.479,0-0.875,0.175-1.188,0.523s-0.466,0.823-0.461,1.422H349.173z"/>
			<path style="fill:#FFFFFF;" d="M360.689,281.53h-2.195v-4.234c0-0.896-0.047-1.476-0.141-1.738s-0.246-0.468-0.457-0.613
				s-0.465-0.219-0.762-0.219c-0.38,0-0.722,0.104-1.023,0.312s-0.509,0.484-0.621,0.828s-0.168,0.979-0.168,1.906v3.758h-2.195
				v-8.297h2.039v1.219c0.724-0.938,1.636-1.406,2.734-1.406c0.484,0,0.927,0.087,1.328,0.262s0.704,0.397,0.91,0.668
				s0.349,0.578,0.43,0.922s0.121,0.836,0.121,1.477V281.53z"/>
		</g>
	</g>
</g>
<g>
	<polygon points="128.321,331.349 31.58,331.349 31.58,266.651 96.981,266.651 160.963,188.838 105.489,266.651 128.321,266.651 	
		"/>
	<g>
		<g>
			<path style="fill:#FFFFFF;" d="M39.386,285.465v-11.453h7.852v1.938h-5.539v2.711h4.781v1.938h-4.781v4.867H39.386z"/>
			<path style="fill:#FFFFFF;" d="M49.128,276.043v-2.031h2.195v2.031H49.128z M49.128,285.465v-8.297h2.195v8.297H49.128z"/>
			<path style="fill:#FFFFFF;" d="M55.675,285.465H53.48v-8.297h2.039v1.18c0.349-0.558,0.663-0.925,0.941-1.102
				s0.595-0.266,0.949-0.266c0.5,0,0.981,0.138,1.445,0.414l-0.68,1.914c-0.37-0.239-0.714-0.359-1.031-0.359
				c-0.308,0-0.567,0.085-0.781,0.254s-0.382,0.476-0.504,0.918s-0.184,1.37-0.184,2.781V285.465z"/>
			<path style="fill:#FFFFFF;" d="M59.027,283.098l2.203-0.336c0.094,0.427,0.284,0.751,0.57,0.973s0.688,0.332,1.203,0.332
				c0.567,0,0.995-0.104,1.281-0.312c0.192-0.146,0.289-0.341,0.289-0.586c0-0.167-0.052-0.305-0.156-0.414
				c-0.109-0.104-0.354-0.2-0.734-0.289c-1.771-0.391-2.894-0.747-3.367-1.07c-0.656-0.448-0.984-1.07-0.984-1.867
				c0-0.719,0.284-1.323,0.852-1.812s1.448-0.734,2.641-0.734c1.136,0,1.979,0.185,2.531,0.555s0.933,0.917,1.141,1.641l-2.07,0.383
				c-0.089-0.323-0.257-0.57-0.504-0.742c-0.247-0.172-0.601-0.258-1.059-0.258c-0.578,0-0.992,0.081-1.242,0.242
				c-0.167,0.114-0.25,0.263-0.25,0.445c0,0.156,0.073,0.289,0.219,0.398c0.198,0.146,0.882,0.352,2.051,0.617
				c1.169,0.266,1.985,0.591,2.449,0.977c0.458,0.391,0.688,0.935,0.688,1.633c0,0.761-0.317,1.414-0.953,1.961
				s-1.575,0.82-2.82,0.82c-1.13,0-2.024-0.229-2.684-0.688S59.23,283.884,59.027,283.098z"/>
			<path style="fill:#FFFFFF;" d="M72.503,277.168v1.75h-1.5v3.344c0,0.677,0.015,1.071,0.043,1.184s0.094,0.204,0.195,0.277
				s0.226,0.109,0.371,0.109c0.203,0,0.497-0.07,0.883-0.211l0.188,1.703c-0.511,0.219-1.089,0.328-1.734,0.328
				c-0.396,0-0.753-0.066-1.07-0.199s-0.551-0.305-0.699-0.516s-0.251-0.496-0.309-0.855c-0.047-0.255-0.07-0.771-0.07-1.547v-3.617
				h-1.008v-1.75H68.8v-1.648l2.203-1.281v2.93H72.503z"/>
			<path style="fill:#FFFFFF;" d="M77.511,277.168h1.219v-0.625c0-0.698,0.074-1.219,0.223-1.562s0.422-0.624,0.82-0.84
				s0.902-0.324,1.512-0.324c0.625,0,1.237,0.094,1.836,0.281l-0.297,1.531c-0.349-0.083-0.685-0.125-1.008-0.125
				c-0.317,0-0.546,0.074-0.684,0.223s-0.207,0.434-0.207,0.855v0.586h1.641v1.727h-1.641v6.57H78.73v-6.57h-1.219V277.168z"/>
			<path style="fill:#FFFFFF;" d="M83.8,276.043v-2.031h2.195v2.031H83.8z M83.8,285.465v-8.297h2.195v8.297H83.8z"/>
			<path style="fill:#FFFFFF;" d="M90.347,285.465h-2.195v-8.297h2.039v1.18c0.349-0.558,0.663-0.925,0.941-1.102
				s0.595-0.266,0.949-0.266c0.5,0,0.981,0.138,1.445,0.414l-0.68,1.914c-0.37-0.239-0.714-0.359-1.031-0.359
				c-0.308,0-0.567,0.085-0.781,0.254s-0.382,0.476-0.504,0.918s-0.184,1.37-0.184,2.781V285.465z"/>
			<path style="fill:#FFFFFF;" d="M99.277,282.825l2.188,0.367c-0.281,0.802-0.726,1.413-1.332,1.832s-1.366,0.629-2.277,0.629
				c-1.442,0-2.511-0.472-3.203-1.414c-0.547-0.755-0.82-1.708-0.82-2.859c0-1.375,0.359-2.452,1.078-3.23s1.628-1.168,2.727-1.168
				c1.234,0,2.208,0.407,2.922,1.223s1.055,2.063,1.023,3.746h-5.5c0.016,0.651,0.192,1.157,0.531,1.52s0.761,0.543,1.266,0.543
				c0.344,0,0.633-0.094,0.867-0.281S99.157,283.242,99.277,282.825z M99.402,280.606c-0.016-0.636-0.18-1.118-0.492-1.449
				s-0.692-0.496-1.141-0.496c-0.479,0-0.875,0.175-1.188,0.523s-0.466,0.823-0.461,1.422H99.402z"/>
			<path style="fill:#FFFFFF;" d="M109.457,279.7l-1.992-0.359c0.224-0.802,0.609-1.396,1.156-1.781s1.359-0.578,2.438-0.578
				c0.979,0,1.708,0.116,2.188,0.348s0.816,0.526,1.012,0.883s0.293,1.012,0.293,1.965l-0.023,2.562
				c0,0.729,0.035,1.267,0.105,1.613s0.202,0.718,0.395,1.113h-2.172c-0.058-0.146-0.128-0.362-0.211-0.648
				c-0.036-0.13-0.062-0.216-0.078-0.258c-0.375,0.364-0.776,0.638-1.203,0.82s-0.883,0.273-1.367,0.273
				c-0.854,0-1.527-0.231-2.02-0.695s-0.738-1.05-0.738-1.758c0-0.469,0.112-0.887,0.336-1.254s0.538-0.648,0.941-0.844
				s0.985-0.366,1.746-0.512c1.026-0.192,1.737-0.372,2.133-0.539v-0.219c0-0.422-0.104-0.723-0.312-0.902s-0.602-0.27-1.18-0.27
				c-0.391,0-0.695,0.077-0.914,0.23S109.592,279.314,109.457,279.7z M112.394,281.481c-0.281,0.094-0.727,0.206-1.336,0.336
				s-1.008,0.258-1.195,0.383c-0.286,0.203-0.43,0.461-0.43,0.773c0,0.308,0.114,0.573,0.344,0.797s0.521,0.336,0.875,0.336
				c0.396,0,0.773-0.13,1.133-0.391c0.266-0.198,0.44-0.44,0.523-0.727c0.058-0.188,0.086-0.544,0.086-1.07V281.481z"/>
			<path style="fill:#FFFFFF;" d="M120.519,277.168v1.75h-1.5v3.344c0,0.677,0.015,1.071,0.043,1.184s0.094,0.204,0.195,0.277
				s0.226,0.109,0.371,0.109c0.203,0,0.497-0.07,0.883-0.211l0.188,1.703c-0.511,0.219-1.089,0.328-1.734,0.328
				c-0.396,0-0.753-0.066-1.07-0.199s-0.551-0.305-0.699-0.516s-0.251-0.496-0.309-0.855c-0.047-0.255-0.07-0.771-0.07-1.547v-3.617
				h-1.008v-1.75h1.008v-1.648l2.203-1.281v2.93H120.519z"/>
			<path style="fill:#FFFFFF;" d="M38.394,295.168h1.219v-0.625c0-0.698,0.074-1.219,0.223-1.562s0.422-0.624,0.82-0.84
				s0.902-0.324,1.512-0.324c0.625,0,1.237,0.094,1.836,0.281l-0.297,1.531c-0.349-0.083-0.685-0.125-1.008-0.125
				c-0.317,0-0.546,0.074-0.684,0.223s-0.207,0.434-0.207,0.855v0.586h1.641v1.727h-1.641v6.57h-2.195v-6.57h-1.219V295.168z"/>
			<path style="fill:#FFFFFF;" d="M50.144,303.465v-1.242c-0.302,0.442-0.699,0.792-1.191,1.047s-1.012,0.383-1.559,0.383
				c-0.558,0-1.058-0.122-1.5-0.367s-0.763-0.589-0.961-1.031s-0.297-1.055-0.297-1.836v-5.25h2.195v3.812
				c0,1.167,0.04,1.882,0.121,2.145s0.228,0.472,0.441,0.625s0.484,0.23,0.812,0.23c0.375,0,0.711-0.103,1.008-0.309
				s0.5-0.461,0.609-0.766s0.164-1.051,0.164-2.238v-3.5h2.195v8.297H50.144z"/>
			<path style="fill:#FFFFFF;" d="M56.558,303.465h-2.195v-8.297h2.039v1.18c0.349-0.558,0.663-0.925,0.941-1.102
				s0.595-0.266,0.949-0.266c0.5,0,0.981,0.138,1.445,0.414l-0.68,1.914c-0.37-0.239-0.714-0.359-1.031-0.359
				c-0.308,0-0.567,0.085-0.781,0.254s-0.382,0.476-0.504,0.918s-0.184,1.37-0.184,2.781V303.465z"/>
			<path style="fill:#FFFFFF;" d="M68.23,303.465h-2.195v-4.234c0-0.896-0.047-1.476-0.141-1.738s-0.246-0.468-0.457-0.613
				s-0.465-0.219-0.762-0.219c-0.38,0-0.722,0.104-1.023,0.312s-0.509,0.484-0.621,0.828s-0.168,0.979-0.168,1.906v3.758h-2.195
				v-8.297h2.039v1.219c0.724-0.938,1.636-1.406,2.734-1.406c0.484,0,0.927,0.087,1.328,0.262s0.704,0.397,0.91,0.668
				s0.349,0.578,0.43,0.922s0.121,0.836,0.121,1.477V303.465z"/>
			<path style="fill:#FFFFFF;" d="M70.457,294.043v-2.031h2.195v2.031H70.457z M70.457,303.465v-8.297h2.195v8.297H70.457z"/>
			<path style="fill:#FFFFFF;" d="M78.707,295.168v1.75h-1.5v3.344c0,0.677,0.015,1.071,0.043,1.184s0.094,0.204,0.195,0.277
				s0.226,0.109,0.371,0.109c0.203,0,0.497-0.07,0.883-0.211l0.188,1.703c-0.511,0.219-1.089,0.328-1.734,0.328
				c-0.396,0-0.753-0.066-1.07-0.199s-0.551-0.305-0.699-0.516s-0.251-0.496-0.309-0.855c-0.047-0.255-0.07-0.771-0.07-1.547v-3.617
				h-1.008v-1.75h1.008v-1.648l2.203-1.281v2.93H78.707z"/>
			<path style="fill:#FFFFFF;" d="M85.691,303.465v-1.242c-0.302,0.442-0.699,0.792-1.191,1.047s-1.012,0.383-1.559,0.383
				c-0.558,0-1.058-0.122-1.5-0.367s-0.763-0.589-0.961-1.031s-0.297-1.055-0.297-1.836v-5.25h2.195v3.812
				c0,1.167,0.04,1.882,0.121,2.145s0.228,0.472,0.441,0.625s0.484,0.23,0.812,0.23c0.375,0,0.711-0.103,1.008-0.309
				s0.5-0.461,0.609-0.766s0.164-1.051,0.164-2.238v-3.5h2.195v8.297H85.691z"/>
			<path style="fill:#FFFFFF;" d="M92.105,303.465H89.91v-8.297h2.039v1.18c0.349-0.558,0.663-0.925,0.941-1.102
				s0.595-0.266,0.949-0.266c0.5,0,0.981,0.138,1.445,0.414l-0.68,1.914c-0.37-0.239-0.714-0.359-1.031-0.359
				c-0.308,0-0.567,0.085-0.781,0.254s-0.382,0.476-0.504,0.918s-0.184,1.37-0.184,2.781V303.465z"/>
			<path style="fill:#FFFFFF;" d="M101.035,300.825l2.188,0.367c-0.281,0.802-0.726,1.413-1.332,1.832s-1.366,0.629-2.277,0.629
				c-1.442,0-2.511-0.472-3.203-1.414c-0.547-0.755-0.82-1.708-0.82-2.859c0-1.375,0.359-2.452,1.078-3.23s1.628-1.168,2.727-1.168
				c1.234,0,2.208,0.407,2.922,1.223s1.055,2.063,1.023,3.746h-5.5c0.016,0.651,0.192,1.157,0.531,1.52s0.761,0.543,1.266,0.543
				c0.344,0,0.633-0.094,0.867-0.281S100.915,301.242,101.035,300.825z M101.16,298.606c-0.016-0.636-0.18-1.118-0.492-1.449
				s-0.692-0.496-1.141-0.496c-0.479,0-0.875,0.175-1.188,0.523s-0.466,0.823-0.461,1.422H101.16z"/>
			<path style="fill:#FFFFFF;" d="M38.582,319.098l2.203-0.336c0.094,0.427,0.284,0.751,0.57,0.973s0.688,0.332,1.203,0.332
				c0.567,0,0.995-0.104,1.281-0.312c0.192-0.146,0.289-0.341,0.289-0.586c0-0.167-0.052-0.305-0.156-0.414
				c-0.109-0.104-0.354-0.2-0.734-0.289c-1.771-0.391-2.894-0.747-3.367-1.07c-0.656-0.448-0.984-1.07-0.984-1.867
				c0-0.719,0.284-1.323,0.852-1.812s1.448-0.734,2.641-0.734c1.136,0,1.979,0.185,2.531,0.555s0.933,0.917,1.141,1.641l-2.07,0.383
				c-0.089-0.323-0.257-0.57-0.504-0.742s-0.601-0.258-1.059-0.258c-0.578,0-0.992,0.081-1.242,0.242
				c-0.167,0.114-0.25,0.263-0.25,0.445c0,0.156,0.073,0.289,0.219,0.398c0.198,0.146,0.882,0.352,2.051,0.617
				s1.985,0.591,2.449,0.977c0.458,0.391,0.688,0.935,0.688,1.633c0,0.761-0.317,1.414-0.953,1.961s-1.575,0.82-2.82,0.82
				c-1.13,0-2.024-0.229-2.684-0.688S38.785,319.884,38.582,319.098z"/>
			<path style="fill:#FFFFFF;" d="M52.058,313.168v1.75h-1.5v3.344c0,0.677,0.015,1.071,0.043,1.184s0.094,0.204,0.195,0.277
				s0.226,0.109,0.371,0.109c0.203,0,0.497-0.07,0.883-0.211l0.188,1.703c-0.511,0.219-1.089,0.328-1.734,0.328
				c-0.396,0-0.753-0.066-1.07-0.199s-0.551-0.305-0.699-0.516s-0.251-0.496-0.309-0.855c-0.047-0.255-0.07-0.771-0.07-1.547v-3.617
				h-1.008v-1.75h1.008v-1.648l2.203-1.281v2.93H52.058z"/>
			<path style="fill:#FFFFFF;" d="M53.074,317.2c0-0.729,0.18-1.435,0.539-2.117s0.868-1.203,1.527-1.562s1.395-0.539,2.207-0.539
				c1.255,0,2.284,0.407,3.086,1.223s1.203,1.845,1.203,3.09c0,1.255-0.405,2.296-1.215,3.121s-1.829,1.238-3.059,1.238
				c-0.761,0-1.485-0.172-2.176-0.516s-1.215-0.848-1.574-1.512S53.074,318.153,53.074,317.2z M55.324,317.317
				c0,0.823,0.195,1.453,0.586,1.891s0.872,0.656,1.445,0.656s1.054-0.219,1.441-0.656s0.582-1.073,0.582-1.906
				c0-0.812-0.194-1.438-0.582-1.875s-0.868-0.656-1.441-0.656s-1.055,0.219-1.445,0.656S55.324,316.494,55.324,317.317z"/>
			<path style="fill:#FFFFFF;" d="M65.457,321.465h-2.195v-8.297H65.3v1.18c0.349-0.558,0.663-0.925,0.941-1.102
				s0.595-0.266,0.949-0.266c0.5,0,0.981,0.138,1.445,0.414l-0.68,1.914c-0.37-0.239-0.714-0.359-1.031-0.359
				c-0.308,0-0.567,0.085-0.781,0.254s-0.382,0.476-0.504,0.918s-0.184,1.37-0.184,2.781V321.465z"/>
			<path style="fill:#FFFFFF;" d="M74.386,318.825l2.188,0.367c-0.281,0.802-0.726,1.413-1.332,1.832s-1.366,0.629-2.277,0.629
				c-1.442,0-2.511-0.472-3.203-1.414c-0.547-0.755-0.82-1.708-0.82-2.859c0-1.375,0.359-2.452,1.078-3.23s1.628-1.168,2.727-1.168
				c1.234,0,2.208,0.407,2.922,1.223s1.055,2.063,1.023,3.746h-5.5c0.016,0.651,0.192,1.157,0.531,1.52s0.761,0.543,1.266,0.543
				c0.344,0,0.633-0.094,0.867-0.281S74.266,319.242,74.386,318.825z M74.511,316.606c-0.016-0.636-0.18-1.118-0.492-1.449
				s-0.692-0.496-1.141-0.496c-0.479,0-0.875,0.175-1.188,0.523s-0.466,0.823-0.461,1.422H74.511z"/>
		</g>
	</g>
</g>
<rect x="233.848" y="424.263" style="fill:#D72132;stroke:#000000;stroke-width:1.5;" width="9.111" height="81.094"/>
<g>
	<polygon points="283.653,584.92 217.988,584.92 217.988,522.258 249.32,522.258 237.987,494.992 255.487,522.258 283.653,522.258 	
		"/>
	<g>
		<g>
			<path style="fill:#FFFFFF;" d="M227.849,535.916c0-1.167,0.175-2.146,0.523-2.938c0.261-0.583,0.616-1.106,1.066-1.57
				s0.944-0.808,1.48-1.031c0.714-0.302,1.536-0.453,2.469-0.453c1.688,0,3.038,0.523,4.051,1.57s1.52,2.503,1.52,4.367
				c0,1.849-0.503,3.296-1.508,4.34s-2.349,1.566-4.031,1.566c-1.703,0-3.058-0.52-4.062-1.559S227.849,537.739,227.849,535.916z
				 M230.232,535.837c0,1.297,0.3,2.28,0.898,2.949s1.359,1.004,2.281,1.004s1.679-0.332,2.27-0.996s0.887-1.66,0.887-2.988
				c0-1.312-0.288-2.292-0.863-2.938s-1.34-0.969-2.293-0.969s-1.722,0.327-2.305,0.98S230.232,534.52,230.232,535.837z"/>
			<path style="fill:#FFFFFF;" d="M244.552,533.275v1.75h-1.5v3.344c0,0.677,0.015,1.071,0.043,1.184s0.094,0.204,0.195,0.277
				s0.226,0.109,0.371,0.109c0.203,0,0.497-0.07,0.883-0.211l0.188,1.703c-0.511,0.219-1.089,0.328-1.734,0.328
				c-0.396,0-0.753-0.066-1.07-0.199s-0.551-0.305-0.699-0.516s-0.251-0.496-0.309-0.855c-0.047-0.255-0.07-0.771-0.07-1.547v-3.617
				h-1.008v-1.75h1.008v-1.648l2.203-1.281v2.93H244.552z"/>
			<path style="fill:#FFFFFF;" d="M248.263,530.119v4.211c0.708-0.828,1.555-1.242,2.539-1.242c0.505,0,0.961,0.094,1.367,0.281
				s0.712,0.427,0.918,0.719s0.347,0.614,0.422,0.969s0.113,0.903,0.113,1.648v4.867h-2.195v-4.383c0-0.87-0.042-1.422-0.125-1.656
				s-0.23-0.421-0.441-0.559s-0.476-0.207-0.793-0.207c-0.364,0-0.69,0.089-0.977,0.266s-0.496,0.444-0.629,0.801
				s-0.199,0.884-0.199,1.582v4.156h-2.195v-11.453H248.263z"/>
			<path style="fill:#FFFFFF;" d="M260.654,538.931l2.188,0.367c-0.281,0.802-0.726,1.413-1.332,1.832s-1.366,0.629-2.277,0.629
				c-1.442,0-2.511-0.472-3.203-1.414c-0.547-0.755-0.82-1.708-0.82-2.859c0-1.375,0.359-2.452,1.078-3.23
				c0.719-0.778,1.628-1.168,2.727-1.168c1.234,0,2.208,0.407,2.922,1.223s1.055,2.063,1.023,3.746h-5.5
				c0.016,0.651,0.192,1.157,0.531,1.52s0.761,0.543,1.266,0.543c0.344,0,0.633-0.094,0.867-0.281S260.534,539.348,260.654,538.931z
				 M260.779,536.712c-0.016-0.636-0.18-1.118-0.492-1.449s-0.692-0.496-1.141-0.496c-0.479,0-0.875,0.175-1.188,0.523
				s-0.466,0.823-0.461,1.422H260.779z"/>
			<path style="fill:#FFFFFF;" d="M266.849,541.572h-2.195v-8.297h2.039v1.18c0.349-0.558,0.663-0.925,0.941-1.102
				s0.595-0.266,0.949-0.266c0.5,0,0.981,0.138,1.445,0.414l-0.68,1.914c-0.37-0.239-0.714-0.359-1.031-0.359
				c-0.308,0-0.567,0.085-0.781,0.254s-0.382,0.476-0.504,0.918s-0.184,1.37-0.184,2.781V541.572z"/>
			<path style="fill:#FFFFFF;" d="M228.334,558.572v-11.453h7.852v1.938h-5.539v2.711h4.781v1.938h-4.781v4.867H228.334z"/>
			<path style="fill:#FFFFFF;" d="M240.177,558.572h-2.195v-8.297h2.039v1.18c0.349-0.558,0.663-0.925,0.941-1.102
				s0.595-0.266,0.949-0.266c0.5,0,0.981,0.138,1.445,0.414l-0.68,1.914c-0.37-0.239-0.714-0.359-1.031-0.359
				c-0.308,0-0.567,0.085-0.781,0.254s-0.382,0.476-0.504,0.918s-0.184,1.37-0.184,2.781V558.572z"/>
			<path style="fill:#FFFFFF;" d="M244.302,549.15v-2.031h2.195v2.031H244.302z M244.302,558.572v-8.297h2.195v8.297H244.302z"/>
			<path style="fill:#FFFFFF;" d="M256.357,558.572h-2.039v-1.219c-0.339,0.474-0.738,0.827-1.199,1.059s-0.926,0.348-1.395,0.348
				c-0.953,0-1.77-0.384-2.449-1.152s-1.02-1.84-1.02-3.215c0-1.406,0.331-2.476,0.992-3.207s1.497-1.098,2.508-1.098
				c0.927,0,1.729,0.386,2.406,1.156v-4.125h2.195V558.572z M250.498,554.244c0,0.886,0.122,1.526,0.367,1.922
				c0.354,0.573,0.849,0.859,1.484,0.859c0.505,0,0.935-0.215,1.289-0.645s0.531-1.071,0.531-1.926c0-0.953-0.172-1.64-0.516-2.059
				s-0.784-0.629-1.32-0.629c-0.521,0-0.957,0.207-1.309,0.621S250.498,553.42,250.498,554.244z"/>
			<path style="fill:#FFFFFF;" d="M260.162,552.806l-1.992-0.359c0.224-0.802,0.609-1.396,1.156-1.781s1.359-0.578,2.438-0.578
				c0.979,0,1.708,0.116,2.188,0.348s0.816,0.526,1.012,0.883s0.293,1.012,0.293,1.965l-0.023,2.562
				c0,0.729,0.035,1.267,0.105,1.613s0.202,0.718,0.395,1.113h-2.172c-0.058-0.146-0.128-0.362-0.211-0.648
				c-0.036-0.13-0.062-0.216-0.078-0.258c-0.375,0.364-0.776,0.638-1.203,0.82s-0.883,0.273-1.367,0.273
				c-0.854,0-1.527-0.231-2.02-0.695s-0.738-1.05-0.738-1.758c0-0.469,0.112-0.887,0.336-1.254s0.538-0.648,0.941-0.844
				s0.985-0.366,1.746-0.512c1.026-0.192,1.737-0.372,2.133-0.539v-0.219c0-0.422-0.104-0.723-0.312-0.902s-0.602-0.27-1.18-0.27
				c-0.391,0-0.695,0.077-0.914,0.23S260.297,552.42,260.162,552.806z M263.099,554.587c-0.281,0.094-0.727,0.206-1.336,0.336
				s-1.008,0.258-1.195,0.383c-0.286,0.203-0.43,0.461-0.43,0.773c0,0.308,0.114,0.573,0.344,0.797s0.521,0.336,0.875,0.336
				c0.396,0,0.773-0.13,1.133-0.391c0.266-0.198,0.44-0.44,0.523-0.727c0.058-0.188,0.086-0.544,0.086-1.07V554.587z"/>
			<path style="fill:#FFFFFF;" d="M266.38,550.275h2.336l1.984,5.891l1.938-5.891h2.273l-2.93,7.984l-0.523,1.445
				c-0.192,0.484-0.376,0.854-0.551,1.109s-0.375,0.462-0.602,0.621s-0.505,0.282-0.836,0.371s-0.704,0.133-1.121,0.133
				c-0.422,0-0.836-0.044-1.242-0.133l-0.195-1.719c0.344,0.067,0.653,0.102,0.93,0.102c0.511,0,0.888-0.149,1.133-0.449
				s0.433-0.681,0.562-1.145L266.38,550.275z"/>
			<path style="fill:#FFFFFF;" d="M227.341,567.275h1.219v-0.625c0-0.698,0.074-1.219,0.223-1.562s0.422-0.624,0.82-0.84
				s0.902-0.324,1.512-0.324c0.625,0,1.237,0.094,1.836,0.281l-0.297,1.531c-0.349-0.083-0.685-0.125-1.008-0.125
				c-0.317,0-0.546,0.074-0.684,0.223s-0.207,0.434-0.207,0.855v0.586h1.641v1.727h-1.641v6.57h-2.195v-6.57h-1.219V567.275z"/>
			<path style="fill:#FFFFFF;" d="M233.63,566.15v-2.031h2.195v2.031H233.63z M233.63,575.572v-8.297h2.195v8.297H233.63z"/>
			<path style="fill:#FFFFFF;" d="M240.177,575.572h-2.195v-8.297h2.039v1.18c0.349-0.558,0.663-0.925,0.941-1.102
				s0.595-0.266,0.949-0.266c0.5,0,0.981,0.138,1.445,0.414l-0.68,1.914c-0.37-0.239-0.714-0.359-1.031-0.359
				c-0.308,0-0.567,0.085-0.781,0.254s-0.382,0.476-0.504,0.918s-0.184,1.37-0.184,2.781V575.572z"/>
			<path style="fill:#FFFFFF;" d="M249.107,572.931l2.188,0.367c-0.281,0.802-0.726,1.413-1.332,1.832s-1.366,0.629-2.277,0.629
				c-1.442,0-2.511-0.472-3.203-1.414c-0.547-0.755-0.82-1.708-0.82-2.859c0-1.375,0.359-2.452,1.078-3.23s1.628-1.168,2.727-1.168
				c1.234,0,2.208,0.407,2.922,1.223s1.055,2.063,1.023,3.746h-5.5c0.016,0.651,0.192,1.157,0.531,1.52s0.761,0.543,1.266,0.543
				c0.344,0,0.633-0.094,0.867-0.281S248.987,573.348,249.107,572.931z M249.232,570.712c-0.016-0.636-0.18-1.118-0.492-1.449
				s-0.692-0.496-1.141-0.496c-0.479,0-0.875,0.175-1.188,0.523s-0.466,0.823-0.461,1.422H249.232z"/>
			<path style="fill:#FFFFFF;" d="M252.427,573.205l2.203-0.336c0.094,0.427,0.284,0.751,0.57,0.973s0.688,0.332,1.203,0.332
				c0.567,0,0.995-0.104,1.281-0.312c0.192-0.146,0.289-0.341,0.289-0.586c0-0.167-0.052-0.305-0.156-0.414
				c-0.109-0.104-0.354-0.2-0.734-0.289c-1.771-0.391-2.894-0.747-3.367-1.07c-0.656-0.448-0.984-1.07-0.984-1.867
				c0-0.719,0.284-1.323,0.852-1.812s1.448-0.734,2.641-0.734c1.136,0,1.979,0.185,2.531,0.555s0.933,0.917,1.141,1.641l-2.07,0.383
				c-0.089-0.323-0.257-0.57-0.504-0.742s-0.601-0.258-1.059-0.258c-0.578,0-0.992,0.081-1.242,0.242
				c-0.167,0.114-0.25,0.263-0.25,0.445c0,0.156,0.073,0.289,0.219,0.398c0.198,0.146,0.882,0.352,2.051,0.617
				c1.169,0.266,1.985,0.591,2.449,0.977c0.458,0.391,0.688,0.935,0.688,1.633c0,0.761-0.317,1.414-0.953,1.961
				s-1.575,0.82-2.82,0.82c-1.13,0-2.024-0.229-2.684-0.688S252.63,573.991,252.427,573.205z"/>
		</g>
	</g>
</g>
<rect x="248.98" y="117.26" style="fill:#F1F2F2;" width="14.437" height="60.555"/>
<g>
	<g>
		<path d="M251.405,121.069l8.457-0.072l0.016,1.722l-7.021,0.06l0.036,4.28l-1.437,0.013L251.405,121.069z"/>
		<path d="M251.534,135.988l-0.017-1.873l1.931-0.761l-0.029-3.408l-1.942-0.688l-0.017-1.826l8.556,3.248l0.016,1.82
			L251.534,135.988z M254.879,132.789l3.154-1.202l-3.175-1.124L254.879,132.789z"/>
		<path d="M254.312,136.442l0.178,1.673c-0.562,0.105-0.974,0.314-1.234,0.624c-0.261,0.311-0.389,0.729-0.385,1.252
			c0.005,0.555,0.126,0.971,0.362,1.25c0.238,0.278,0.514,0.417,0.827,0.414c0.202-0.002,0.372-0.062,0.513-0.182
			s0.262-0.327,0.364-0.623c0.068-0.201,0.188-0.662,0.361-1.381c0.221-0.925,0.496-1.574,0.826-1.95
			c0.465-0.527,1.034-0.794,1.709-0.8c0.435-0.004,0.842,0.115,1.222,0.359c0.38,0.243,0.671,0.595,0.872,1.056
			c0.202,0.463,0.306,1.021,0.312,1.677c0.01,1.07-0.218,1.877-0.684,2.422c-0.464,0.545-1.087,0.834-1.87,0.868l-0.091-1.721
			c0.438-0.078,0.752-0.238,0.941-0.481c0.189-0.245,0.282-0.609,0.278-1.094c-0.004-0.5-0.11-0.891-0.318-1.172
			c-0.134-0.182-0.311-0.271-0.532-0.269c-0.201,0.001-0.373,0.088-0.516,0.26c-0.18,0.219-0.365,0.747-0.556,1.587
			s-0.39,1.461-0.598,1.864c-0.208,0.402-0.494,0.719-0.858,0.949c-0.364,0.229-0.816,0.347-1.355,0.352
			c-0.488,0.004-0.947-0.127-1.375-0.396c-0.43-0.268-0.75-0.648-0.962-1.143s-0.32-1.113-0.327-1.854
			c-0.009-1.078,0.232-1.908,0.726-2.489C252.636,136.913,253.359,136.562,254.312,136.442z"/>
		<path d="M251.676,152.535l-0.017-1.873l1.931-0.761l-0.03-3.408l-1.942-0.688l-0.016-1.825l8.555,3.247l0.016,1.82
			L251.676,152.535z M255.022,149.335l3.153-1.202l-3.174-1.124L255.022,149.335z"/>
		<path d="M251.684,153.495l8.457-0.072l0.015,1.722l-7.021,0.06l0.037,4.28l-1.437,0.013L251.684,153.495z"/>
		<path d="M251.747,160.771l8.457-0.072l0.015,1.722l-7.021,0.06l0.037,4.28l-1.437,0.013L251.747,160.771z"/>
		<path d="M251.809,168l8.526-0.073l0.054,6.321l-1.442,0.013l-0.039-4.601l-1.89,0.016l0.037,4.281l-1.438,0.013l-0.037-4.281
			l-2.32,0.02l0.041,4.764l-1.437,0.013L251.809,168z"/>
	</g>
</g>
<g>
	<g>
		<path d="M251.431,121.099l8.457-0.072l0.015,1.722l-7.02,0.061l0.037,4.281l-1.437,0.012L251.431,121.099z"/>
		<path d="M251.559,136.017l-0.017-1.872l1.931-0.761l-0.029-3.408l-1.943-0.687l-0.016-1.826l8.556,3.248l0.016,1.82
			L251.559,136.017z M254.905,132.818l3.154-1.201l-3.174-1.125L254.905,132.818z"/>
		<path d="M254.338,136.47l0.177,1.673c-0.562,0.106-0.973,0.313-1.234,0.624c-0.26,0.311-0.389,0.728-0.385,1.251
			c0.005,0.554,0.125,0.971,0.363,1.25c0.237,0.28,0.513,0.418,0.827,0.415c0.202-0.002,0.372-0.062,0.513-0.183
			c0.14-0.119,0.262-0.326,0.364-0.622c0.067-0.203,0.188-0.663,0.36-1.382c0.221-0.926,0.497-1.575,0.827-1.95
			c0.465-0.528,1.034-0.794,1.709-0.8c0.435-0.003,0.842,0.115,1.221,0.359c0.381,0.243,0.671,0.596,0.873,1.057
			c0.202,0.462,0.305,1.02,0.311,1.676c0.009,1.07-0.218,1.877-0.683,2.422c-0.464,0.545-1.088,0.834-1.871,0.868l-0.091-1.721
			c0.437-0.077,0.751-0.238,0.941-0.483c0.189-0.243,0.283-0.608,0.278-1.093c-0.004-0.5-0.111-0.891-0.318-1.172
			c-0.134-0.18-0.311-0.27-0.532-0.268c-0.202,0.002-0.373,0.089-0.515,0.26c-0.18,0.219-0.366,0.748-0.557,1.587
			c-0.19,0.839-0.39,1.46-0.598,1.864c-0.208,0.403-0.494,0.72-0.857,0.95c-0.366,0.229-0.816,0.347-1.355,0.352
			c-0.489,0.004-0.948-0.128-1.377-0.396c-0.428-0.268-0.749-0.649-0.961-1.143c-0.211-0.494-0.32-1.113-0.327-1.853
			c-0.009-1.078,0.233-1.909,0.727-2.49C252.662,136.942,253.385,136.591,254.338,136.47z"/>
		<path d="M251.701,152.564l-0.016-1.873l1.93-0.761l-0.029-3.408l-1.943-0.687l-0.016-1.826l8.555,3.248l0.016,1.82
			L251.701,152.564z M255.047,149.365l3.154-1.201l-3.174-1.125L255.047,149.365z"/>
		<path d="M251.71,153.523l8.457-0.072l0.015,1.721l-7.02,0.061l0.037,4.281l-1.437,0.012L251.71,153.523z"/>
		<path d="M251.772,160.799l8.457-0.072l0.015,1.722l-7.02,0.061l0.037,4.281l-1.437,0.012L251.772,160.799z"/>
		<path d="M251.834,168.028l8.527-0.073l0.055,6.322l-1.442,0.012l-0.04-4.601l-1.89,0.017l0.037,4.281l-1.437,0.012l-0.037-4.281
			l-2.321,0.021l0.041,4.764l-1.437,0.012L251.834,168.028z"/>
	</g>
</g>
<rect x="272.237" y="150.826" style="fill:#F1F2F2;" width="11.76" height="40.155"/>
<g>
	<g>
		<path d="M276.032,152.53l0.177,1.673c-0.562,0.106-0.973,0.313-1.234,0.624c-0.26,0.311-0.389,0.728-0.385,1.251
			c0.005,0.554,0.125,0.971,0.363,1.249c0.237,0.28,0.513,0.418,0.827,0.415c0.202-0.002,0.372-0.062,0.513-0.183
			c0.14-0.119,0.262-0.325,0.363-0.621c0.068-0.203,0.189-0.663,0.361-1.382c0.221-0.926,0.497-1.575,0.827-1.95
			c0.465-0.528,1.034-0.794,1.709-0.8c0.435-0.003,0.842,0.115,1.221,0.359c0.381,0.243,0.671,0.596,0.873,1.057
			c0.202,0.462,0.305,1.02,0.311,1.676c0.009,1.07-0.218,1.876-0.683,2.421c-0.464,0.545-1.088,0.834-1.871,0.868l-0.091-1.721
			c0.437-0.077,0.751-0.238,0.941-0.482c0.189-0.243,0.283-0.608,0.278-1.093c-0.004-0.5-0.111-0.891-0.318-1.172
			c-0.134-0.18-0.311-0.27-0.532-0.268c-0.202,0.002-0.373,0.089-0.515,0.26c-0.18,0.219-0.366,0.748-0.557,1.587
			c-0.19,0.839-0.39,1.459-0.598,1.863c-0.208,0.403-0.494,0.72-0.857,0.95c-0.366,0.229-0.816,0.347-1.355,0.352
			c-0.489,0.004-0.948-0.128-1.377-0.396c-0.428-0.268-0.749-0.649-0.961-1.143c-0.211-0.494-0.32-1.112-0.327-1.852
			c-0.009-1.078,0.233-1.909,0.727-2.49C274.356,153.002,275.079,152.65,276.032,152.53z"/>
		<path d="M273.345,162.853l7.084-0.061l-0.022-2.53l1.442-0.012l0.058,6.776l-1.442,0.012l-0.022-2.524l-7.084,0.061
			L273.345,162.853z"/>
		<path d="M273.45,175.015l-0.016-1.873l1.93-0.761l-0.029-3.408l-1.943-0.687l-0.016-1.826l8.555,3.248l0.016,1.82L273.45,175.015z
			 M276.796,171.816l3.154-1.201l-3.174-1.125L276.796,171.816z"/>
		<path d="M273.467,176.963l7.084-0.061l-0.022-2.53l1.442-0.012l0.058,6.775l-1.442,0.012l-0.022-2.524l-7.084,0.061
			L273.467,176.963z"/>
		<path d="M273.513,182.319l8.527-0.073l0.054,6.322l-1.442,0.012l-0.039-4.601l-1.89,0.017l0.037,4.281l-1.437,0.012l-0.037-4.281
			l-2.321,0.021l0.041,4.764l-1.437,0.012L273.513,182.319z"/>
	</g>
</g>
<rect x="156.736" y="183.73" style="fill:#D72132;stroke:#000000;stroke-width:1.5;" width="8.453" height="10.216"/>
<g>
	<rect x="13.26" y="10.162" style="fill:#EBEBEB;stroke:#231F20;" width="120.956" height="85.122"/>
	<path style="stroke:#231F20;stroke-width:0.95;stroke-miterlimit:10;" d="M28.701,44.499L28.701,44.499
		c-3.063,0-5.57,2.506-5.57,5.57v0c0,3.063,2.506,5.57,5.57,5.57h0c3.063,0,5.57-2.506,5.57-5.57v0
		C34.271,47.006,31.764,44.499,28.701,44.499z"/>
	<path d="M45.294,51.206v-1.344l4.852-0.008v4.25c-0.745,0.594-1.513,1.041-2.305,1.34c-0.792,0.3-1.604,0.449-2.438,0.449
		c-1.125,0-2.147-0.24-3.066-0.723c-0.919-0.48-1.613-1.178-2.082-2.09c-0.469-0.91-0.703-1.93-0.703-3.055
		c0-1.113,0.233-2.154,0.699-3.121c0.466-0.965,1.137-1.684,2.012-2.152s1.883-0.703,3.023-0.703c0.828,0,1.577,0.135,2.246,0.402
		c0.669,0.27,1.194,0.643,1.574,1.121c0.38,0.48,0.669,1.105,0.867,1.875l-1.367,0.375c-0.172-0.582-0.386-1.041-0.641-1.375
		c-0.255-0.332-0.62-0.6-1.094-0.801c-0.474-0.199-1-0.301-1.578-0.301c-0.692,0-1.292,0.105-1.797,0.316s-0.913,0.488-1.223,0.832
		s-0.551,0.723-0.723,1.133c-0.292,0.709-0.438,1.477-0.438,2.305c0,1.021,0.176,1.875,0.527,2.562s0.863,1.199,1.535,1.531
		c0.672,0.334,1.386,0.5,2.141,0.5c0.656,0,1.297-0.125,1.922-0.379c0.625-0.252,1.099-0.521,1.422-0.809v-2.133H45.294z"/>
	<path d="M57.638,55.698v-1.219c-0.646,0.938-1.523,1.406-2.633,1.406c-0.489,0-0.946-0.094-1.371-0.281s-0.739-0.422-0.945-0.707
		c-0.206-0.283-0.351-0.631-0.434-1.043c-0.058-0.275-0.086-0.713-0.086-1.312v-5.141h1.406v4.602c0,0.734,0.028,1.23,0.086,1.484
		c0.089,0.371,0.276,0.66,0.562,0.871s0.641,0.316,1.062,0.316s0.817-0.107,1.188-0.324c0.37-0.215,0.632-0.51,0.785-0.883
		c0.153-0.371,0.23-0.912,0.23-1.621v-4.445h1.406v8.297H57.638z"/>
	<path d="M66.513,54.675c-0.521,0.443-1.022,0.756-1.504,0.938c-0.481,0.183-0.999,0.273-1.551,0.273
		c-0.911,0-1.612-0.223-2.102-0.668s-0.734-1.014-0.734-1.707c0-0.406,0.093-0.777,0.277-1.113s0.427-0.605,0.727-0.809
		s0.637-0.355,1.012-0.461c0.276-0.072,0.692-0.143,1.25-0.211c1.136-0.135,1.972-0.297,2.508-0.484
		c0.005-0.191,0.008-0.314,0.008-0.367c0-0.572-0.133-0.977-0.398-1.211c-0.359-0.316-0.894-0.477-1.602-0.477
		c-0.661,0-1.149,0.117-1.465,0.348c-0.315,0.232-0.548,0.643-0.699,1.23l-1.375-0.188c0.125-0.588,0.331-1.062,0.617-1.426
		c0.286-0.361,0.7-0.641,1.242-0.836s1.169-0.293,1.883-0.293c0.708,0,1.284,0.084,1.727,0.25c0.442,0.168,0.769,0.377,0.977,0.629
		c0.208,0.254,0.354,0.572,0.438,0.957c0.047,0.24,0.07,0.672,0.07,1.297v1.875c0,1.309,0.03,2.135,0.09,2.48
		c0.06,0.348,0.179,0.68,0.355,0.996h-1.469C66.649,55.407,66.555,55.065,66.513,54.675z M66.396,51.534
		c-0.511,0.209-1.276,0.387-2.297,0.531c-0.578,0.084-0.987,0.178-1.227,0.281c-0.239,0.105-0.425,0.258-0.555,0.457
		c-0.13,0.201-0.195,0.424-0.195,0.668c0,0.375,0.142,0.688,0.426,0.938s0.699,0.375,1.246,0.375c0.542,0,1.023-0.117,1.445-0.355
		c0.422-0.236,0.731-0.561,0.93-0.973c0.151-0.316,0.227-0.785,0.227-1.406V51.534z"/>
	<path d="M69.982,55.698v-8.297h1.266v1.258c0.323-0.588,0.621-0.977,0.895-1.164s0.574-0.281,0.902-0.281
		c0.474,0,0.956,0.152,1.445,0.453l-0.484,1.305c-0.344-0.203-0.688-0.305-1.031-0.305c-0.308,0-0.583,0.094-0.828,0.277
		c-0.245,0.186-0.419,0.441-0.523,0.77c-0.156,0.5-0.234,1.047-0.234,1.641v4.344H69.982z"/>
	<path d="M80.708,55.698v-1.047c-0.526,0.824-1.3,1.234-2.32,1.234c-0.661,0-1.27-0.182-1.824-0.547
		c-0.555-0.363-0.984-0.873-1.289-1.527c-0.305-0.652-0.457-1.404-0.457-2.254c0-0.828,0.138-1.578,0.414-2.254
		c0.276-0.674,0.69-1.191,1.242-1.551s1.169-0.539,1.852-0.539c0.5,0,0.945,0.105,1.336,0.316s0.708,0.486,0.953,0.824v-4.109h1.398
		v11.453H80.708z M76.263,51.557c0,1.062,0.224,1.857,0.672,2.383c0.448,0.527,0.977,0.789,1.586,0.789
		c0.614,0,1.137-0.25,1.566-0.754c0.43-0.502,0.645-1.27,0.645-2.301c0-1.135-0.219-1.969-0.656-2.5s-0.977-0.797-1.617-0.797
		c-0.625,0-1.147,0.256-1.566,0.766C76.473,49.655,76.263,50.46,76.263,51.557z"/>
	<path d="M83.661,53.222l1.391-0.219c0.078,0.559,0.296,0.984,0.652,1.281s0.855,0.445,1.496,0.445c0.646,0,1.125-0.131,1.438-0.395
		c0.312-0.262,0.469-0.57,0.469-0.926c0-0.316-0.138-0.566-0.414-0.75c-0.192-0.125-0.672-0.283-1.438-0.477
		c-1.031-0.26-1.746-0.484-2.145-0.676c-0.398-0.189-0.7-0.453-0.906-0.789s-0.309-0.707-0.309-1.113
		c0-0.369,0.085-0.711,0.254-1.027c0.169-0.314,0.399-0.576,0.691-0.785c0.219-0.16,0.517-0.297,0.895-0.41
		c0.378-0.111,0.782-0.168,1.215-0.168c0.651,0,1.223,0.094,1.715,0.281s0.855,0.441,1.09,0.762s0.396,0.75,0.484,1.285
		l-1.375,0.188c-0.062-0.426-0.243-0.76-0.543-1c-0.3-0.238-0.723-0.359-1.27-0.359c-0.646,0-1.106,0.107-1.383,0.32
		c-0.276,0.215-0.414,0.465-0.414,0.75c0,0.184,0.058,0.348,0.172,0.492c0.114,0.152,0.294,0.277,0.539,0.375
		c0.141,0.053,0.555,0.172,1.242,0.359c0.995,0.266,1.688,0.484,2.082,0.652c0.394,0.17,0.702,0.416,0.926,0.738
		c0.224,0.324,0.336,0.725,0.336,1.203c0,0.469-0.137,0.91-0.41,1.324s-0.668,0.734-1.184,0.961s-1.099,0.34-1.75,0.34
		c-1.078,0-1.899-0.223-2.465-0.672C84.178,54.766,83.818,54.102,83.661,53.222z"/>
	<path d="M92.224,55.698v-8.297h1.258v1.164c0.261-0.406,0.606-0.732,1.039-0.98c0.433-0.246,0.925-0.371,1.477-0.371
		c0.614,0,1.118,0.129,1.512,0.383c0.394,0.256,0.671,0.613,0.832,1.07c0.656-0.969,1.511-1.453,2.562-1.453
		c0.823,0,1.456,0.229,1.898,0.684c0.442,0.457,0.664,1.158,0.664,2.105v5.695h-1.398v-5.227c0-0.562-0.046-0.967-0.137-1.215
		c-0.091-0.246-0.257-0.445-0.496-0.598c-0.239-0.15-0.521-0.227-0.844-0.227c-0.583,0-1.067,0.195-1.453,0.582
		c-0.386,0.389-0.578,1.01-0.578,1.863v4.82h-1.406v-5.391c0-0.625-0.114-1.094-0.344-1.406s-0.604-0.469-1.125-0.469
		c-0.396,0-0.762,0.105-1.098,0.312c-0.336,0.209-0.579,0.514-0.73,0.914c-0.151,0.402-0.227,0.98-0.227,1.734v4.305H92.224z"/>
	<path d="M111.232,53.026l1.453,0.18c-0.229,0.85-0.653,1.508-1.273,1.977s-1.411,0.703-2.375,0.703
		c-1.214,0-2.176-0.373-2.887-1.121c-0.711-0.746-1.066-1.795-1.066-3.145c0-1.395,0.359-2.479,1.078-3.25
		c0.719-0.77,1.651-1.156,2.797-1.156c1.109,0,2.016,0.379,2.719,1.133c0.703,0.756,1.055,1.818,1.055,3.188
		c0,0.084-0.003,0.209-0.008,0.375h-6.188c0.052,0.912,0.31,1.609,0.773,2.094s1.042,0.727,1.734,0.727
		c0.516,0,0.956-0.135,1.32-0.406C110.729,54.054,111.018,53.62,111.232,53.026z M106.615,50.753h4.633
		c-0.062-0.697-0.239-1.221-0.531-1.57c-0.448-0.541-1.028-0.812-1.742-0.812c-0.646,0-1.188,0.217-1.629,0.648
		C106.905,49.452,106.661,50.03,106.615,50.753z"/>
	<path d="M114.45,55.698v-8.297h1.266v1.18c0.609-0.91,1.489-1.367,2.641-1.367c0.5,0,0.96,0.09,1.379,0.27s0.733,0.416,0.941,0.707
		c0.208,0.293,0.354,0.639,0.438,1.039c0.052,0.262,0.078,0.717,0.078,1.367v5.102h-1.406v-5.047c0-0.572-0.055-1-0.164-1.285
		c-0.109-0.283-0.304-0.51-0.582-0.68c-0.278-0.168-0.605-0.254-0.98-0.254c-0.599,0-1.116,0.191-1.551,0.57
		c-0.435,0.381-0.652,1.102-0.652,2.164v4.531H114.45z"/>
	<path style="fill:#F7D9D1;stroke:#231F20;stroke-width:0.95;stroke-miterlimit:10;" d="M28.701,69.991L28.701,69.991
		c-3.063,0-5.57,2.506-5.57,5.57v0c0,3.063,2.506,5.57,5.57,5.57h0c3.063,0,5.57-2.506,5.57-5.57v0
		C34.271,72.497,31.764,69.991,28.701,69.991z"/>
	<path d="M46.45,69.737h1.516v6.617c0,1.151-0.13,2.065-0.391,2.742s-0.73,1.228-1.41,1.652s-1.571,0.637-2.676,0.637
		c-1.073,0-1.95-0.185-2.633-0.555s-1.169-0.905-1.461-1.605s-0.438-1.657-0.438-2.871v-6.617h1.516v6.609
		c0,0.995,0.093,1.728,0.277,2.199s0.503,0.835,0.953,1.09s1.001,0.383,1.652,0.383c1.114,0,1.909-0.253,2.383-0.758
		s0.711-1.477,0.711-2.914V69.737z"/>
	<path d="M50.708,81.19v-1.602h1.602v1.602H50.708z"/>
	<path d="M54.419,77.511l1.43-0.125c0.067,0.573,0.226,1.043,0.473,1.41s0.632,0.664,1.152,0.891s1.106,0.34,1.758,0.34
		c0.578,0,1.089-0.086,1.531-0.258s0.772-0.407,0.988-0.707s0.324-0.626,0.324-0.98c0-0.359-0.104-0.673-0.312-0.941
		s-0.552-0.493-1.031-0.676c-0.308-0.12-0.987-0.306-2.039-0.559s-1.789-0.491-2.211-0.715c-0.547-0.286-0.954-0.642-1.223-1.066
		s-0.402-0.899-0.402-1.426c0-0.578,0.164-1.118,0.492-1.621s0.808-0.884,1.438-1.145s1.331-0.391,2.102-0.391
		c0.849,0,1.598,0.137,2.246,0.41s1.147,0.676,1.496,1.207s0.536,1.133,0.562,1.805l-1.453,0.109
		c-0.078-0.724-0.343-1.271-0.793-1.641s-1.116-0.555-1.996-0.555c-0.917,0-1.585,0.168-2.004,0.504s-0.629,0.741-0.629,1.215
		c0,0.411,0.148,0.75,0.445,1.016c0.292,0.266,1.054,0.538,2.285,0.816s2.077,0.522,2.535,0.73c0.667,0.308,1.159,0.696,1.477,1.168
		s0.477,1.015,0.477,1.629c0,0.609-0.175,1.184-0.523,1.723s-0.851,0.958-1.504,1.258s-1.39,0.449-2.207,0.449
		c-1.036,0-1.905-0.151-2.605-0.453s-1.25-0.757-1.648-1.363S54.44,78.276,54.419,77.511z"/>
	<path d="M65.825,81.19v-1.602h1.602v1.602H65.825z"/>
	<path d="M77.122,81.19V71.089h-3.773v-1.352h9.078v1.352h-3.789V81.19H77.122z"/>
	<path d="M83.193,81.19v-8.297h1.266v1.258c0.323-0.589,0.621-0.977,0.895-1.164s0.574-0.281,0.902-0.281
		c0.474,0,0.956,0.151,1.445,0.453l-0.484,1.305c-0.344-0.203-0.688-0.305-1.031-0.305c-0.308,0-0.583,0.093-0.828,0.277
		s-0.419,0.441-0.523,0.77c-0.156,0.5-0.234,1.047-0.234,1.641v4.344H83.193z"/>
	<path d="M88.013,77.042c0-1.536,0.427-2.675,1.281-3.414c0.714-0.614,1.583-0.922,2.609-0.922c1.141,0,2.073,0.374,2.797,1.121
		s1.086,1.78,1.086,3.098c0,1.067-0.16,1.907-0.48,2.52s-0.786,1.087-1.398,1.426s-1.28,0.508-2.004,0.508
		c-1.161,0-2.101-0.372-2.816-1.117S88.013,78.443,88.013,77.042z M89.458,77.042c0,1.062,0.231,1.858,0.695,2.387
		s1.047,0.793,1.75,0.793c0.698,0,1.278-0.266,1.742-0.797s0.695-1.341,0.695-2.43c0-1.026-0.233-1.804-0.699-2.332
		s-1.046-0.793-1.738-0.793c-0.703,0-1.286,0.263-1.75,0.789S89.458,75.979,89.458,77.042z"/>
	<path d="M96.911,77.042c0-1.536,0.427-2.675,1.281-3.414c0.714-0.614,1.583-0.922,2.609-0.922c1.141,0,2.073,0.374,2.797,1.121
		s1.086,1.78,1.086,3.098c0,1.067-0.16,1.907-0.48,2.52s-0.786,1.087-1.398,1.426s-1.28,0.508-2.004,0.508
		c-1.161,0-2.101-0.372-2.816-1.117S96.911,78.443,96.911,77.042z M98.357,77.042c0,1.062,0.231,1.858,0.695,2.387
		s1.047,0.793,1.75,0.793c0.698,0,1.278-0.266,1.742-0.797s0.695-1.341,0.695-2.43c0-1.026-0.233-1.804-0.699-2.332
		s-1.046-0.793-1.738-0.793c-0.703,0-1.286,0.263-1.75,0.789S98.357,75.979,98.357,77.042z"/>
	<path d="M106.333,84.37V72.893h1.281v1.078c0.302-0.422,0.644-0.738,1.023-0.949s0.841-0.316,1.383-0.316
		c0.708,0,1.333,0.183,1.875,0.547s0.95,0.879,1.227,1.543s0.414,1.392,0.414,2.184c0,0.849-0.152,1.613-0.457,2.293
		s-0.747,1.2-1.328,1.562s-1.191,0.543-1.832,0.543c-0.469,0-0.89-0.099-1.262-0.297s-0.679-0.448-0.918-0.75v4.039H106.333z
		 M107.607,77.089c0,1.067,0.216,1.856,0.648,2.367s0.956,0.766,1.57,0.766c0.625,0,1.16-0.265,1.605-0.793s0.668-1.348,0.668-2.457
		c0-1.058-0.218-1.849-0.652-2.375s-0.954-0.789-1.559-0.789c-0.599,0-1.129,0.28-1.59,0.84S107.607,76.021,107.607,77.089z"/>
	<path d="M114.669,78.714l1.391-0.219c0.078,0.558,0.296,0.984,0.652,1.281s0.855,0.445,1.496,0.445
		c0.646,0,1.125-0.132,1.438-0.395s0.469-0.571,0.469-0.926c0-0.317-0.138-0.567-0.414-0.75c-0.192-0.125-0.672-0.284-1.438-0.477
		c-1.031-0.261-1.746-0.485-2.145-0.676s-0.7-0.453-0.906-0.789s-0.309-0.707-0.309-1.113c0-0.37,0.085-0.712,0.254-1.027
		s0.399-0.577,0.691-0.785c0.219-0.161,0.517-0.298,0.895-0.41s0.782-0.168,1.215-0.168c0.651,0,1.223,0.094,1.715,0.281
		s0.855,0.441,1.09,0.762s0.396,0.749,0.484,1.285l-1.375,0.188c-0.062-0.427-0.243-0.761-0.543-1s-0.723-0.359-1.27-0.359
		c-0.646,0-1.106,0.106-1.383,0.32s-0.414,0.464-0.414,0.75c0,0.183,0.058,0.347,0.172,0.492c0.114,0.151,0.294,0.276,0.539,0.375
		c0.141,0.052,0.555,0.172,1.242,0.359c0.995,0.266,1.688,0.483,2.082,0.652s0.702,0.415,0.926,0.738s0.336,0.724,0.336,1.203
		c0,0.469-0.137,0.91-0.41,1.324s-0.668,0.734-1.184,0.961s-1.099,0.34-1.75,0.34c-1.078,0-1.899-0.224-2.465-0.672
		S114.825,79.594,114.669,78.714z"/>
	<path d="M23.736,34.753V24.015h2.168v4.769l4.379-4.769h2.916l-4.043,4.183l4.262,6.555h-2.805l-2.951-5.039l-1.758,1.795v3.244
		H23.736z"/>
	<path d="M34.539,34.753V24.015H42.5v1.816h-5.793v2.38h5.391v1.81h-5.391v2.923h5.998v1.809H34.539z"/>
	<path d="M47.364,34.753v-4.52l-3.933-6.218h2.541l2.527,4.248l2.475-4.248h2.498l-3.947,6.233v4.504H47.364z"/>
</g>
</svg>
