<?xml version="1.0" encoding="utf-8"?>
<!-- Generator: Adobe Illustrator 22.0.1, SVG Export Plug-In . SVG Version: 6.00 Build 0)  -->
<svg version="1.1" id="national-guard" xmlns="http://www.w3.org/2000/svg" xmlns:xlink="http://www.w3.org/1999/xlink" x="0px"
	 y="0px" viewBox="0 0 400 602.122" style="enable-background:new 0 0 400 602.122;" xml:space="preserve">
<path style="fill:#8C001A;stroke:#231F20;stroke-width:0.95;stroke-miterlimit:10;" d="M308.594,403.965L308.594,403.965
	c-3.247,0-5.904,2.657-5.904,5.904l0,0c0,3.247,2.657,5.904,5.904,5.904l0,0c3.247,0,5.904-2.657,5.904-5.904l0,0
	C314.498,406.622,311.842,403.965,308.594,403.965z"/>
<path style="fill:#F7D9D1;stroke:#231F20;stroke-width:0.95;stroke-miterlimit:10;" d="M367.543,466.377L367.543,466.377
	c-3.247,0-5.904,2.657-5.904,5.904l0,0c0,3.247,2.657,5.904,5.904,5.904l0,0c3.247,0,5.904-2.657,5.904-5.904l0,0
	C373.448,469.034,370.791,466.377,367.543,466.377z"/>
<path style="fill:#F7D9D1;stroke:#231F20;stroke-width:0.95;stroke-miterlimit:10;" d="M214.401,478.539L214.401,478.539
	c-3.247,0-5.904,2.657-5.904,5.904v0c0,3.247,2.657,5.904,5.904,5.904l0,0c3.247,0,5.904-2.657,5.904-5.904v0
	C220.306,481.196,217.649,478.539,214.401,478.539z"/>
<path style="fill:#8C001A;stroke:#231F20;stroke-width:0.95;stroke-miterlimit:10;" d="M166.951,339.776L166.951,339.776
	c-3.247,0-5.904,2.657-5.904,5.904v0c0,3.247,2.657,5.904,5.904,5.904h0c3.247,0,5.904-2.657,5.904-5.904v0
	C172.855,342.433,170.199,339.776,166.951,339.776z"/>
<path style="fill:#8C001A;stroke:#231F20;stroke-width:0.95;stroke-miterlimit:10;" d="M38.672,440.242L38.672,440.242
	c-3.247,0-5.904,2.657-5.904,5.904l0,0c0,3.247,2.657,5.904,5.904,5.904h0c3.247,0,5.904-2.657,5.904-5.904l0,0
	C44.576,442.898,41.919,440.242,38.672,440.242z"/>
<path style="fill:#8C001A;stroke:#231F20;stroke-width:0.95;stroke-miterlimit:10;" d="M110.466,108.431L110.466,108.431
	c-3.247,0-5.904,2.657-5.904,5.904v0c0,3.247,2.657,5.904,5.904,5.904h0c3.247,0,5.904-2.657,5.904-5.904v0
	C116.371,111.088,113.714,108.431,110.466,108.431z"/>
<path style="fill:#8C001A;stroke:#231F20;stroke-width:0.95;stroke-miterlimit:10;" d="M282.392,139.058L282.392,139.058
	c-3.247,0-5.904,2.657-5.904,5.904v0c0,3.247,2.657,5.904,5.904,5.904l0,0c3.247,0,5.904-2.657,5.904-5.904v0
	C288.296,141.715,285.639,139.058,282.392,139.058z"/>
<path style="fill:#F7D9D1;stroke:#231F20;stroke-width:0.95;stroke-miterlimit:10;" d="M312.616,151.347L312.616,151.347
	c-3.247,0-5.904,2.657-5.904,5.904v0c0,3.247,2.657,5.904,5.904,5.904l0,0c3.247,0,5.904-2.657,5.904-5.904v0
	C318.521,154.004,315.864,151.347,312.616,151.347z"/>
<path style="fill:#8C001A;stroke:#231F20;stroke-width:0.95;stroke-miterlimit:10;" d="M137.054,183.005L137.054,183.005
	c-3.247,0-5.904,2.657-5.904,5.904v0c0,3.247,2.657,5.904,5.904,5.904h0c3.247,0,5.904-2.657,5.904-5.904v0
	C142.959,185.662,140.302,183.005,137.054,183.005z"/>
<rect x="262.937" y="181.825" style="fill:#D72132;stroke:#000000;stroke-width:1.5;" width="8.707" height="5.241"/>
<g>
	<polygon points="377.961,288.021 300.988,288.021 300.988,243.742 265.82,183.992 300.988,236.242 300.988,228.215 
		377.961,228.215 	"/>
	<g>
		<g>
			<path style="fill:#FFFFFF;" d="M309.539,245.814l-2.564-10.737h2.22l1.618,7.376l1.963-7.376h2.578l1.883,7.5l1.648-7.5h2.182
				l-2.607,10.737h-2.299l-2.139-8.027l-2.132,8.027H309.539z"/>
			<path style="fill:#FFFFFF;" d="M322.026,236.981v-1.904h2.059v1.904H322.026z M322.026,245.814v-7.778h2.059v7.778H322.026z"/>
			<path style="fill:#FFFFFF;" d="M333.27,245.814h-2.059v-3.97c0-0.84-0.044-1.383-0.132-1.63c-0.088-0.246-0.23-0.438-0.429-0.574
				c-0.197-0.137-0.436-0.205-0.714-0.205c-0.356,0-0.677,0.098-0.96,0.293s-0.477,0.453-0.582,0.775
				c-0.104,0.322-0.157,0.919-0.157,1.787v3.523h-2.058v-7.778h1.911v1.143c0.679-0.879,1.533-1.318,2.563-1.318
				c0.454,0,0.869,0.082,1.245,0.245c0.376,0.164,0.66,0.373,0.854,0.627c0.192,0.254,0.327,0.541,0.402,0.863
				c0.076,0.322,0.114,0.784,0.114,1.385V245.814z"/>
			<path style="fill:#FFFFFF;" d="M342.491,245.814h-1.912v-1.143c-0.317,0.444-0.692,0.775-1.124,0.992
				c-0.433,0.218-0.868,0.326-1.308,0.326c-0.894,0-1.659-0.36-2.296-1.08c-0.638-0.721-0.956-1.725-0.956-3.014
				c0-1.318,0.31-2.321,0.93-3.007c0.62-0.687,1.404-1.029,2.352-1.029c0.869,0,1.621,0.361,2.256,1.084v-3.867h2.059V245.814z
				 M336.997,241.756c0,0.83,0.115,1.431,0.345,1.802c0.332,0.537,0.796,0.806,1.392,0.806c0.474,0,0.876-0.201,1.209-0.604
				c0.331-0.402,0.498-1.004,0.498-1.805c0-0.895-0.162-1.537-0.484-1.931c-0.322-0.393-0.734-0.589-1.237-0.589
				c-0.488,0-0.897,0.193-1.227,0.582C337.162,240.405,336.997,240.985,336.997,241.756z"/>
			<path style="fill:#FFFFFF;" d="M344.043,241.815c0-0.684,0.169-1.345,0.505-1.985c0.338-0.639,0.814-1.127,1.433-1.465
				c0.617-0.336,1.308-0.505,2.069-0.505c1.176,0,2.141,0.382,2.893,1.146c0.752,0.764,1.128,1.729,1.128,2.896
				c0,1.177-0.38,2.152-1.139,2.926c-0.76,0.774-1.716,1.161-2.868,1.161c-0.713,0-1.393-0.161-2.039-0.483
				c-0.647-0.322-1.139-0.795-1.477-1.417C344.212,243.466,344.043,242.708,344.043,241.815z M346.152,241.925
				c0,0.771,0.183,1.361,0.55,1.771c0.365,0.41,0.817,0.615,1.354,0.615s0.987-0.205,1.352-0.615
				c0.363-0.41,0.546-1.005,0.546-1.787c0-0.762-0.183-1.348-0.546-1.758c-0.364-0.41-0.814-0.615-1.352-0.615
				s-0.989,0.205-1.354,0.615C346.335,240.562,346.152,241.154,346.152,241.925z"/>
			<path style="fill:#FFFFFF;" d="M355.131,245.814l-2.461-7.778h1.999l1.458,5.098l1.34-5.098h1.984l1.297,5.098l1.486-5.098h2.029
				l-2.498,7.778h-1.977l-1.341-5.002l-1.318,5.002H355.131z"/>
			<path style="fill:#FFFFFF;" d="M364.624,243.595l2.065-0.315c0.088,0.4,0.266,0.704,0.534,0.912
				c0.269,0.207,0.645,0.312,1.129,0.312c0.531,0,0.932-0.098,1.201-0.293c0.18-0.137,0.271-0.32,0.271-0.55
				c0-0.156-0.049-0.286-0.146-0.388c-0.103-0.098-0.332-0.188-0.688-0.271c-1.66-0.366-2.713-0.7-3.156-1.004
				c-0.615-0.419-0.924-1.003-0.924-1.75c0-0.674,0.267-1.24,0.799-1.699s1.357-0.688,2.476-0.688c1.064,0,1.855,0.174,2.373,0.521
				s0.874,0.859,1.069,1.537l-1.941,0.359c-0.083-0.303-0.24-0.535-0.472-0.695c-0.232-0.162-0.563-0.242-0.993-0.242
				c-0.541,0-0.93,0.076-1.164,0.227c-0.156,0.108-0.234,0.247-0.234,0.418c0,0.146,0.068,0.271,0.205,0.373
				c0.186,0.138,0.826,0.33,1.923,0.579c1.096,0.249,1.861,0.555,2.296,0.915c0.43,0.367,0.645,0.877,0.645,1.531
				c0,0.713-0.298,1.326-0.894,1.838c-0.596,0.514-1.478,0.77-2.644,0.77c-1.061,0-1.898-0.215-2.517-0.645
				C365.218,244.916,364.814,244.333,364.624,243.595z"/>
			<path style="fill:#FFFFFF;" d="M307.912,262.814v-10.737h2.059v3.867c0.635-0.723,1.387-1.084,2.256-1.084
				c0.947,0,1.73,0.343,2.352,1.029c0.619,0.686,0.93,1.671,0.93,2.955c0,1.328-0.316,2.351-0.948,3.069
				c-0.633,0.717-1.4,1.076-2.304,1.076c-0.444,0-0.883-0.111-1.314-0.333c-0.433-0.223-0.805-0.551-1.117-0.985v1.143H307.912z
				 M309.956,258.756c0,0.806,0.127,1.401,0.381,1.787c0.356,0.547,0.83,0.82,1.421,0.82c0.454,0,0.841-0.194,1.161-0.582
				c0.319-0.389,0.479-1,0.479-1.835c0-0.889-0.161-1.529-0.483-1.923c-0.322-0.393-0.735-0.589-1.237-0.589
				c-0.494,0-0.904,0.191-1.23,0.574C310.119,257.393,309.956,257.975,309.956,258.756z"/>
			<path style="fill:#FFFFFF;" d="M321.667,260.338l2.051,0.345c-0.264,0.752-0.68,1.324-1.249,1.717
				c-0.568,0.394-1.28,0.59-2.135,0.59c-1.353,0-2.354-0.441-3.003-1.326c-0.513-0.707-0.769-1.601-0.769-2.68
				c0-1.289,0.336-2.299,1.01-3.029c0.674-0.729,1.526-1.095,2.557-1.095c1.157,0,2.07,0.382,2.739,1.146
				c0.669,0.764,0.989,1.935,0.96,3.512h-5.156c0.014,0.61,0.18,1.085,0.498,1.425c0.316,0.339,0.712,0.509,1.186,0.509
				c0.322,0,0.594-0.088,0.813-0.264S321.554,260.729,321.667,260.338z M321.784,258.258c-0.015-0.596-0.169-1.049-0.462-1.358
				c-0.293-0.311-0.649-0.465-1.068-0.465c-0.45,0-0.82,0.163-1.113,0.49s-0.438,0.771-0.433,1.333H321.784z"/>
			<path style="fill:#FFFFFF;" d="M325.504,253.981v-1.904h2.059v1.904H325.504z M325.504,262.814v-7.778h2.059v7.778H325.504z"/>
			<path style="fill:#FFFFFF;" d="M336.748,262.814h-2.059v-3.97c0-0.84-0.044-1.383-0.132-1.63
				c-0.088-0.246-0.23-0.438-0.429-0.574c-0.197-0.137-0.436-0.205-0.714-0.205c-0.356,0-0.677,0.098-0.96,0.293
				s-0.477,0.453-0.582,0.775c-0.104,0.322-0.157,0.919-0.157,1.787v3.523h-2.058v-7.778h1.911v1.143
				c0.679-0.879,1.533-1.318,2.563-1.318c0.454,0,0.869,0.082,1.245,0.245c0.376,0.164,0.66,0.373,0.854,0.627
				c0.192,0.254,0.327,0.541,0.402,0.863c0.076,0.322,0.114,0.784,0.114,1.385V262.814z"/>
			<path style="fill:#FFFFFF;" d="M338.644,263.327l2.351,0.286c0.039,0.272,0.129,0.461,0.271,0.563
				c0.195,0.146,0.503,0.22,0.924,0.22c0.536,0,0.939-0.08,1.208-0.242c0.181-0.107,0.317-0.28,0.41-0.52
				c0.063-0.171,0.095-0.486,0.095-0.945v-1.135c-0.615,0.84-1.391,1.26-2.328,1.26c-1.046,0-1.873-0.441-2.483-1.326
				c-0.479-0.697-0.718-1.566-0.718-2.607c0-1.303,0.313-2.299,0.941-2.988c0.627-0.688,1.407-1.032,2.34-1.032
				c0.962,0,1.755,0.423,2.381,1.267v-1.091h1.926v6.979c0,0.918-0.076,1.604-0.227,2.059c-0.152,0.454-0.364,0.811-0.638,1.069
				s-0.639,0.462-1.095,0.608c-0.457,0.146-1.034,0.219-1.732,0.219c-1.318,0-2.254-0.226-2.805-0.677
				c-0.553-0.452-0.828-1.024-0.828-1.718C338.636,263.507,338.638,263.424,338.644,263.327z M340.482,258.763
				c0,0.826,0.16,1.43,0.479,1.813c0.32,0.383,0.714,0.575,1.183,0.575c0.503,0,0.928-0.197,1.275-0.59
				c0.346-0.394,0.52-0.976,0.52-1.747c0-0.806-0.166-1.403-0.498-1.794s-0.752-0.586-1.26-0.586c-0.493,0-0.899,0.191-1.22,0.574
				C340.642,257.393,340.482,257.978,340.482,258.763z"/>
			<path style="fill:#FFFFFF;" d="M307.912,279.814v-10.737h2.059v3.867c0.635-0.723,1.387-1.084,2.256-1.084
				c0.947,0,1.73,0.343,2.352,1.029c0.619,0.686,0.93,1.671,0.93,2.955c0,1.328-0.316,2.351-0.948,3.069
				c-0.633,0.717-1.4,1.076-2.304,1.076c-0.444,0-0.883-0.111-1.314-0.333c-0.433-0.223-0.805-0.551-1.117-0.985v1.143H307.912z
				 M309.956,275.756c0,0.806,0.127,1.401,0.381,1.787c0.356,0.547,0.83,0.82,1.421,0.82c0.454,0,0.841-0.194,1.161-0.582
				c0.319-0.389,0.479-1,0.479-1.835c0-0.889-0.161-1.529-0.483-1.923c-0.322-0.393-0.735-0.589-1.237-0.589
				c-0.494,0-0.904,0.191-1.23,0.574C310.119,274.393,309.956,274.975,309.956,275.756z"/>
			<path style="fill:#FFFFFF;" d="M319.132,279.814h-2.059v-7.778h1.912v1.106c0.327-0.522,0.621-0.867,0.883-1.033
				c0.261-0.166,0.558-0.249,0.89-0.249c0.469,0,0.92,0.13,1.354,0.388l-0.637,1.795c-0.347-0.225-0.669-0.337-0.967-0.337
				c-0.288,0-0.532,0.079-0.732,0.238c-0.2,0.158-0.357,0.445-0.473,0.86c-0.114,0.415-0.172,1.284-0.172,2.607V279.814z"/>
			<path style="fill:#FFFFFF;" d="M322.524,275.815c0-0.684,0.169-1.345,0.505-1.985c0.338-0.639,0.814-1.127,1.433-1.465
				c0.617-0.336,1.308-0.505,2.069-0.505c1.176,0,2.141,0.382,2.893,1.146c0.752,0.764,1.128,1.729,1.128,2.896
				c0,1.177-0.38,2.152-1.139,2.926c-0.76,0.774-1.716,1.161-2.868,1.161c-0.713,0-1.393-0.161-2.039-0.483
				c-0.647-0.322-1.139-0.795-1.477-1.417C322.693,277.466,322.524,276.708,322.524,275.815z M324.633,275.925
				c0,0.771,0.183,1.361,0.55,1.771c0.365,0.41,0.817,0.615,1.354,0.615s0.987-0.205,1.352-0.615
				c0.363-0.41,0.546-1.005,0.546-1.787c0-0.762-0.183-1.348-0.546-1.758c-0.364-0.41-0.814-0.615-1.352-0.615
				s-0.989,0.205-1.354,0.615C324.816,274.562,324.633,275.154,324.633,275.925z"/>
			<path style="fill:#FFFFFF;" d="M332.089,279.814v-10.737h2.058v5.698l2.409-2.739h2.535l-2.659,2.842l2.849,4.937h-2.219
				l-1.955-3.494l-0.96,1.004v2.49H332.089z"/>
			<path style="fill:#FFFFFF;" d="M345.008,277.338l2.051,0.345c-0.264,0.752-0.68,1.324-1.249,1.717
				c-0.568,0.394-1.28,0.59-2.135,0.59c-1.353,0-2.354-0.441-3.003-1.326c-0.513-0.707-0.769-1.601-0.769-2.68
				c0-1.289,0.336-2.299,1.01-3.029c0.674-0.729,1.526-1.095,2.557-1.095c1.157,0,2.07,0.382,2.739,1.146
				c0.669,0.764,0.989,1.935,0.96,3.512h-5.156c0.014,0.61,0.18,1.085,0.498,1.425c0.316,0.339,0.712,0.509,1.186,0.509
				c0.322,0,0.594-0.088,0.813-0.264S344.896,277.729,345.008,277.338z M345.126,275.258c-0.015-0.596-0.169-1.049-0.462-1.358
				c-0.293-0.311-0.649-0.465-1.068-0.465c-0.45,0-0.82,0.163-1.113,0.49s-0.438,0.771-0.433,1.333H345.126z"/>
			<path style="fill:#FFFFFF;" d="M355.921,279.814h-2.059v-3.97c0-0.84-0.044-1.383-0.132-1.63
				c-0.088-0.246-0.23-0.438-0.429-0.574c-0.197-0.137-0.436-0.205-0.714-0.205c-0.356,0-0.677,0.098-0.96,0.293
				s-0.477,0.453-0.582,0.775c-0.104,0.322-0.157,0.919-0.157,1.787v3.523h-2.058v-7.778h1.911v1.143
				c0.679-0.879,1.533-1.318,2.563-1.318c0.454,0,0.869,0.082,1.245,0.245c0.376,0.164,0.66,0.373,0.854,0.627
				c0.192,0.254,0.327,0.541,0.402,0.863c0.076,0.322,0.114,0.784,0.114,1.385V279.814z"/>
		</g>
	</g>
</g>
<g>
	<polygon points="124.821,328.349 31.58,328.349 31.58,266.651 96.981,266.651 160.963,188.838 105.489,266.651 124.821,266.651 	
		"/>
	<g>
		<g>
			<path style="fill:#FFFFFF;" d="M38.812,284.25v-10.737h7.361v1.816H40.98v2.542h4.482v1.816H40.98v4.562H38.812z"/>
			<path style="fill:#FFFFFF;" d="M47.946,275.417v-1.904h2.059v1.904H47.946z M47.946,284.25v-7.778h2.059v7.778H47.946z"/>
			<path style="fill:#FFFFFF;" d="M54.085,284.25h-2.059v-7.778h1.912v1.106c0.327-0.522,0.621-0.867,0.883-1.033
				c0.261-0.166,0.558-0.249,0.89-0.249c0.469,0,0.92,0.13,1.354,0.388l-0.637,1.795c-0.347-0.225-0.669-0.337-0.967-0.337
				c-0.288,0-0.532,0.079-0.732,0.238c-0.2,0.158-0.357,0.445-0.473,0.86c-0.114,0.415-0.172,1.284-0.172,2.607V284.25z"/>
			<path style="fill:#FFFFFF;" d="M57.227,282.031l2.065-0.315c0.088,0.4,0.266,0.704,0.534,0.912
				c0.269,0.207,0.645,0.312,1.129,0.312c0.531,0,0.932-0.098,1.201-0.293c0.18-0.137,0.271-0.32,0.271-0.55
				c0-0.156-0.049-0.286-0.146-0.388c-0.103-0.098-0.332-0.188-0.688-0.271c-1.66-0.366-2.713-0.7-3.156-1.004
				c-0.615-0.419-0.924-1.003-0.924-1.75c0-0.674,0.267-1.24,0.799-1.699s1.357-0.688,2.476-0.688c1.064,0,1.855,0.174,2.373,0.521
				s0.874,0.859,1.069,1.537l-1.941,0.359c-0.083-0.303-0.24-0.535-0.472-0.695c-0.232-0.162-0.563-0.242-0.993-0.242
				c-0.541,0-0.93,0.076-1.164,0.227c-0.156,0.108-0.234,0.247-0.234,0.418c0,0.146,0.068,0.271,0.205,0.373
				c0.186,0.138,0.826,0.33,1.923,0.579c1.096,0.249,1.861,0.555,2.296,0.915c0.43,0.367,0.645,0.877,0.645,1.531
				c0,0.713-0.298,1.326-0.894,1.838c-0.596,0.514-1.478,0.77-2.644,0.77c-1.061,0-1.898-0.215-2.517-0.645
				C57.822,283.351,57.418,282.768,57.227,282.031z"/>
			<path style="fill:#FFFFFF;" d="M69.861,276.471v1.641h-1.406v3.135c0,0.635,0.014,1.005,0.04,1.109
				c0.027,0.105,0.088,0.192,0.184,0.261c0.095,0.068,0.211,0.102,0.348,0.102c0.19,0,0.466-0.065,0.828-0.197l0.176,1.597
				c-0.479,0.205-1.021,0.308-1.627,0.308c-0.371,0-0.705-0.062-1.003-0.187c-0.298-0.125-0.517-0.286-0.655-0.483
				c-0.14-0.198-0.236-0.465-0.289-0.803c-0.045-0.238-0.066-0.722-0.066-1.449v-3.392h-0.945v-1.641h0.945v-1.546l2.065-1.201
				v2.747H69.861z"/>
			<path style="fill:#FFFFFF;" d="M74.555,276.471h1.143v-0.586c0-0.654,0.069-1.143,0.209-1.465
				c0.139-0.322,0.396-0.585,0.769-0.787c0.374-0.203,0.847-0.304,1.417-0.304c0.586,0,1.16,0.088,1.722,0.264l-0.278,1.436
				c-0.327-0.078-0.643-0.117-0.945-0.117c-0.298,0-0.511,0.069-0.641,0.208c-0.129,0.14-0.193,0.407-0.193,0.802v0.55h1.537v1.618
				h-1.537v6.16h-2.059v-6.16h-1.143V276.471z"/>
			<path style="fill:#FFFFFF;" d="M80.451,275.417v-1.904h2.059v1.904H80.451z M80.451,284.25v-7.778h2.059v7.778H80.451z"/>
			<path style="fill:#FFFFFF;" d="M86.588,284.25H84.53v-7.778h1.912v1.106c0.327-0.522,0.621-0.867,0.883-1.033
				c0.261-0.166,0.558-0.249,0.89-0.249c0.469,0,0.92,0.13,1.354,0.388l-0.637,1.795c-0.347-0.225-0.669-0.337-0.967-0.337
				c-0.288,0-0.532,0.079-0.732,0.238c-0.2,0.158-0.357,0.445-0.473,0.86c-0.114,0.415-0.172,1.284-0.172,2.607V284.25z"/>
			<path style="fill:#FFFFFF;" d="M94.961,281.774l2.051,0.345c-0.264,0.752-0.68,1.324-1.249,1.717
				c-0.568,0.394-1.28,0.59-2.135,0.59c-1.353,0-2.354-0.441-3.003-1.326c-0.513-0.707-0.769-1.601-0.769-2.68
				c0-1.289,0.336-2.299,1.01-3.029c0.674-0.729,1.526-1.095,2.557-1.095c1.157,0,2.07,0.382,2.739,1.146
				c0.669,0.764,0.989,1.935,0.96,3.512h-5.156c0.014,0.61,0.18,1.085,0.498,1.425c0.316,0.339,0.712,0.509,1.186,0.509
				c0.322,0,0.594-0.088,0.813-0.264S94.848,282.165,94.961,281.774z M95.078,279.694c-0.015-0.596-0.169-1.049-0.462-1.358
				c-0.293-0.311-0.649-0.465-1.068-0.465c-0.45,0-0.82,0.163-1.113,0.49s-0.438,0.771-0.433,1.333H95.078z"/>
			<path style="fill:#FFFFFF;" d="M104.504,278.844l-1.868-0.337c0.21-0.752,0.571-1.309,1.084-1.67s1.274-0.542,2.285-0.542
				c0.918,0,1.602,0.108,2.051,0.326c0.449,0.217,0.766,0.493,0.948,0.827c0.184,0.335,0.275,0.949,0.275,1.842l-0.022,2.402
				c0,0.685,0.033,1.188,0.099,1.513c0.066,0.325,0.189,0.673,0.37,1.044h-2.036c-0.054-0.137-0.12-0.339-0.197-0.607
				c-0.035-0.122-0.059-0.203-0.074-0.242c-0.352,0.342-0.728,0.599-1.127,0.77c-0.401,0.17-0.828,0.256-1.282,0.256
				c-0.801,0-1.432-0.217-1.894-0.652c-0.461-0.434-0.691-0.983-0.691-1.647c0-0.439,0.104-0.831,0.314-1.176
				c0.21-0.344,0.504-0.607,0.883-0.791c0.378-0.183,0.924-0.343,1.637-0.479c0.962-0.181,1.628-0.349,2-0.506v-0.205
				c0-0.395-0.099-0.677-0.293-0.846c-0.196-0.168-0.564-0.252-1.106-0.252c-0.366,0-0.651,0.071-0.856,0.216
				C104.797,278.23,104.63,278.483,104.504,278.844z M107.258,280.514c-0.264,0.088-0.682,0.193-1.253,0.315
				s-0.944,0.241-1.12,0.358c-0.27,0.19-0.403,0.433-0.403,0.726c0,0.288,0.107,0.537,0.322,0.746
				c0.215,0.211,0.488,0.315,0.82,0.315c0.371,0,0.726-0.122,1.062-0.366c0.25-0.186,0.413-0.412,0.491-0.682
				c0.054-0.176,0.081-0.51,0.081-1.003V280.514z"/>
			<path style="fill:#FFFFFF;" d="M114.875,276.471v1.641h-1.406v3.135c0,0.635,0.014,1.005,0.04,1.109
				c0.027,0.105,0.088,0.192,0.184,0.261c0.095,0.068,0.211,0.102,0.348,0.102c0.19,0,0.466-0.065,0.828-0.197l0.176,1.597
				c-0.479,0.205-1.021,0.308-1.627,0.308c-0.371,0-0.705-0.062-1.003-0.187c-0.298-0.125-0.517-0.286-0.655-0.483
				c-0.14-0.198-0.236-0.465-0.289-0.803c-0.045-0.238-0.066-0.722-0.066-1.449v-3.392h-0.945v-1.641h0.945v-1.546l2.065-1.201
				v2.747H114.875z"/>
			<path style="fill:#FFFFFF;" d="M37.882,293.471h1.143v-0.586c0-0.654,0.069-1.143,0.209-1.465
				c0.139-0.322,0.396-0.585,0.769-0.787c0.374-0.203,0.847-0.304,1.417-0.304c0.586,0,1.16,0.088,1.722,0.264l-0.278,1.436
				c-0.327-0.078-0.643-0.117-0.945-0.117c-0.298,0-0.511,0.069-0.641,0.208c-0.129,0.14-0.193,0.407-0.193,0.802v0.55h1.537v1.618
				h-1.537v6.16h-2.059v-6.16h-1.143V293.471z"/>
			<path style="fill:#FFFFFF;" d="M48.898,301.25v-1.164c-0.283,0.415-0.655,0.742-1.117,0.98c-0.461,0.239-0.948,0.359-1.461,0.359
				c-0.522,0-0.991-0.115-1.406-0.344c-0.415-0.229-0.716-0.552-0.901-0.967s-0.277-0.989-0.277-1.722v-4.922h2.058v3.574
				c0,1.094,0.038,1.764,0.113,2.011c0.076,0.246,0.214,0.441,0.414,0.586c0.2,0.144,0.454,0.216,0.762,0.216
				c0.352,0,0.667-0.097,0.944-0.289c0.279-0.193,0.469-0.433,0.572-0.718c0.102-0.286,0.153-0.985,0.153-2.099v-3.281h2.058v7.778
				H48.898z"/>
			<path style="fill:#FFFFFF;" d="M54.911,301.25h-2.059v-7.778h1.912v1.106c0.327-0.522,0.621-0.867,0.883-1.033
				c0.261-0.166,0.558-0.249,0.89-0.249c0.469,0,0.92,0.13,1.354,0.388l-0.637,1.795c-0.347-0.225-0.669-0.337-0.967-0.337
				c-0.288,0-0.532,0.079-0.732,0.238c-0.2,0.158-0.357,0.445-0.473,0.86c-0.114,0.415-0.172,1.284-0.172,2.607V301.25z"/>
			<path style="fill:#FFFFFF;" d="M65.854,301.25h-2.059v-3.97c0-0.84-0.044-1.383-0.132-1.63c-0.088-0.246-0.23-0.438-0.429-0.574
				c-0.197-0.137-0.436-0.205-0.714-0.205c-0.356,0-0.677,0.098-0.96,0.293s-0.477,0.453-0.582,0.775
				c-0.104,0.322-0.157,0.919-0.157,1.787v3.523h-2.058v-7.778h1.911v1.143c0.679-0.879,1.533-1.318,2.563-1.318
				c0.454,0,0.869,0.082,1.245,0.245c0.376,0.164,0.66,0.373,0.854,0.627c0.192,0.254,0.327,0.541,0.402,0.863
				c0.076,0.322,0.114,0.784,0.114,1.385V301.25z"/>
			<path style="fill:#FFFFFF;" d="M67.94,292.417v-1.904h2.059v1.904H67.94z M67.94,301.25v-7.778h2.059v7.778H67.94z"/>
			<path style="fill:#FFFFFF;" d="M75.675,293.471v1.641h-1.406v3.135c0,0.635,0.014,1.005,0.04,1.109
				c0.027,0.105,0.088,0.192,0.184,0.261c0.095,0.068,0.211,0.102,0.348,0.102c0.19,0,0.466-0.065,0.828-0.197l0.176,1.597
				c-0.479,0.205-1.021,0.308-1.627,0.308c-0.371,0-0.705-0.062-1.003-0.187c-0.298-0.125-0.517-0.286-0.655-0.483
				c-0.14-0.198-0.236-0.465-0.289-0.803c-0.045-0.238-0.066-0.722-0.066-1.449v-3.392h-0.945v-1.641h0.945v-1.546l2.065-1.201
				v2.747H75.675z"/>
			<path style="fill:#FFFFFF;" d="M82.223,301.25v-1.164c-0.283,0.415-0.655,0.742-1.117,0.98c-0.461,0.239-0.948,0.359-1.461,0.359
				c-0.522,0-0.991-0.115-1.406-0.344c-0.415-0.229-0.716-0.552-0.901-0.967s-0.277-0.989-0.277-1.722v-4.922h2.058v3.574
				c0,1.094,0.038,1.764,0.113,2.011c0.076,0.246,0.214,0.441,0.414,0.586c0.2,0.144,0.454,0.216,0.762,0.216
				c0.352,0,0.667-0.097,0.944-0.289c0.279-0.193,0.469-0.433,0.572-0.718c0.102-0.286,0.153-0.985,0.153-2.099v-3.281h2.058v7.778
				H82.223z"/>
			<path style="fill:#FFFFFF;" d="M88.237,301.25h-2.059v-7.778h1.912v1.106c0.327-0.522,0.621-0.867,0.883-1.033
				c0.261-0.166,0.558-0.249,0.89-0.249c0.469,0,0.92,0.13,1.354,0.388l-0.637,1.795c-0.347-0.225-0.669-0.337-0.967-0.337
				c-0.288,0-0.532,0.079-0.732,0.238c-0.2,0.158-0.357,0.445-0.473,0.86c-0.114,0.415-0.172,1.284-0.172,2.607V301.25z"/>
			<path style="fill:#FFFFFF;" d="M96.609,298.774l2.051,0.345c-0.264,0.752-0.68,1.324-1.249,1.717
				c-0.568,0.394-1.28,0.59-2.135,0.59c-1.353,0-2.354-0.441-3.003-1.326c-0.513-0.707-0.769-1.601-0.769-2.68
				c0-1.289,0.336-2.299,1.01-3.029c0.674-0.729,1.526-1.095,2.557-1.095c1.157,0,2.07,0.382,2.739,1.146
				c0.669,0.764,0.989,1.935,0.96,3.512h-5.156c0.014,0.61,0.18,1.085,0.498,1.425c0.316,0.339,0.712,0.509,1.186,0.509
				c0.322,0,0.594-0.088,0.813-0.264S96.497,299.165,96.609,298.774z M96.726,296.694c-0.015-0.596-0.169-1.049-0.462-1.358
				c-0.293-0.311-0.649-0.465-1.068-0.465c-0.45,0-0.82,0.163-1.113,0.49s-0.438,0.771-0.433,1.333H96.726z"/>
			<path style="fill:#FFFFFF;" d="M38.058,316.031l2.065-0.315c0.088,0.4,0.266,0.704,0.534,0.912
				c0.269,0.207,0.645,0.312,1.129,0.312c0.531,0,0.932-0.098,1.201-0.293c0.18-0.137,0.271-0.32,0.271-0.55
				c0-0.156-0.049-0.286-0.146-0.388c-0.103-0.098-0.332-0.188-0.688-0.271c-1.66-0.366-2.713-0.7-3.156-1.004
				c-0.615-0.419-0.924-1.003-0.924-1.75c0-0.674,0.267-1.24,0.799-1.699s1.357-0.688,2.476-0.688c1.064,0,1.855,0.174,2.373,0.521
				s0.874,0.859,1.069,1.537l-1.941,0.359c-0.083-0.303-0.24-0.535-0.472-0.695c-0.232-0.162-0.563-0.242-0.993-0.242
				c-0.541,0-0.93,0.076-1.164,0.227c-0.156,0.108-0.234,0.247-0.234,0.418c0,0.146,0.068,0.271,0.205,0.373
				c0.186,0.138,0.826,0.33,1.923,0.579c1.096,0.249,1.861,0.555,2.296,0.915c0.43,0.367,0.645,0.877,0.645,1.531
				c0,0.713-0.298,1.326-0.894,1.838c-0.596,0.514-1.478,0.77-2.644,0.77c-1.061,0-1.898-0.215-2.517-0.645
				C38.653,317.351,38.249,316.768,38.058,316.031z"/>
			<path style="fill:#FFFFFF;" d="M50.693,310.471v1.641h-1.406v3.135c0,0.635,0.014,1.005,0.04,1.109
				c0.027,0.105,0.088,0.192,0.184,0.261c0.095,0.068,0.211,0.102,0.348,0.102c0.19,0,0.466-0.065,0.828-0.197l0.176,1.597
				c-0.479,0.205-1.021,0.308-1.627,0.308c-0.371,0-0.705-0.062-1.003-0.187c-0.298-0.125-0.517-0.286-0.655-0.483
				c-0.14-0.198-0.236-0.465-0.289-0.803c-0.045-0.238-0.066-0.722-0.066-1.449v-3.392h-0.945v-1.641h0.945v-1.546l2.065-1.201
				v2.747H50.693z"/>
			<path style="fill:#FFFFFF;" d="M51.645,314.25c0-0.684,0.169-1.345,0.505-1.985c0.338-0.639,0.814-1.127,1.433-1.465
				c0.617-0.336,1.308-0.505,2.069-0.505c1.176,0,2.141,0.382,2.893,1.146c0.752,0.764,1.128,1.729,1.128,2.896
				c0,1.177-0.38,2.152-1.139,2.926c-0.76,0.774-1.716,1.161-2.868,1.161c-0.713,0-1.393-0.161-2.039-0.483
				c-0.647-0.322-1.139-0.795-1.477-1.417C51.814,315.902,51.645,315.144,51.645,314.25z M53.754,314.361
				c0,0.771,0.183,1.361,0.55,1.771c0.365,0.41,0.817,0.615,1.354,0.615s0.987-0.205,1.352-0.615
				c0.363-0.41,0.546-1.005,0.546-1.787c0-0.762-0.183-1.348-0.546-1.758c-0.364-0.41-0.814-0.615-1.352-0.615
				s-0.989,0.205-1.354,0.615C53.937,312.998,53.754,313.589,53.754,314.361z"/>
			<path style="fill:#FFFFFF;" d="M63.254,318.25h-2.059v-7.778h1.912v1.106c0.327-0.522,0.621-0.867,0.883-1.033
				c0.261-0.166,0.558-0.249,0.89-0.249c0.469,0,0.92,0.13,1.354,0.388l-0.637,1.795c-0.347-0.225-0.669-0.337-0.967-0.337
				c-0.288,0-0.532,0.079-0.732,0.238c-0.2,0.158-0.357,0.445-0.473,0.86c-0.114,0.415-0.172,1.284-0.172,2.607V318.25z"/>
			<path style="fill:#FFFFFF;" d="M71.627,315.774l2.051,0.345c-0.264,0.752-0.68,1.324-1.249,1.717
				c-0.568,0.394-1.28,0.59-2.135,0.59c-1.353,0-2.354-0.441-3.003-1.326c-0.513-0.707-0.769-1.601-0.769-2.68
				c0-1.289,0.336-2.299,1.01-3.029c0.674-0.729,1.526-1.095,2.557-1.095c1.157,0,2.07,0.382,2.739,1.146
				c0.669,0.764,0.989,1.935,0.96,3.512h-5.156c0.014,0.61,0.18,1.085,0.498,1.425c0.316,0.339,0.712,0.509,1.186,0.509
				c0.322,0,0.594-0.088,0.813-0.264S71.514,316.165,71.627,315.774z M71.744,313.694c-0.015-0.596-0.169-1.049-0.462-1.358
				c-0.293-0.311-0.649-0.465-1.068-0.465c-0.45,0-0.82,0.163-1.113,0.49s-0.438,0.771-0.433,1.333H71.744z"/>
		</g>
	</g>
</g>
<rect x="233.848" y="424.263" style="fill:#D72132;stroke:#000000;stroke-width:1.5;" width="9.111" height="81.094"/>
<g>
	<polygon points="282.653,581.42 222.654,581.42 222.654,522.758 249.32,522.758 237.987,495.492 255.487,522.758 282.653,522.758 	
		"/>
	<g>
		<g>
			<path style="fill:#FFFFFF;" d="M229.806,535.053c0-1.094,0.163-2.012,0.49-2.754c0.244-0.547,0.577-1.037,1-1.473
				c0.422-0.434,0.885-0.756,1.388-0.967c0.669-0.282,1.44-0.424,2.314-0.424c1.582,0,2.848,0.49,3.798,1.472
				c0.949,0.981,1.424,2.347,1.424,4.095c0,1.733-0.471,3.089-1.413,4.068c-0.942,0.979-2.202,1.469-3.779,1.469
				c-1.597,0-2.866-0.487-3.809-1.462C230.277,538.104,229.806,536.762,229.806,535.053z M232.04,534.98
				c0,1.216,0.28,2.138,0.843,2.765c0.561,0.628,1.273,0.941,2.139,0.941c0.863,0,1.573-0.312,2.127-0.934
				c0.555-0.623,0.832-1.557,0.832-2.802c0-1.23-0.271-2.148-0.81-2.754c-0.54-0.605-1.257-0.908-2.149-0.908
				c-0.895,0-1.614,0.307-2.161,0.919C232.313,532.821,232.04,533.745,232.04,534.98z"/>
			<path style="fill:#FFFFFF;" d="M245.465,532.578v1.641h-1.406v3.135c0,0.635,0.014,1.005,0.04,1.109
				c0.027,0.105,0.088,0.192,0.184,0.261c0.095,0.068,0.211,0.102,0.348,0.102c0.19,0,0.466-0.065,0.828-0.197l0.176,1.597
				c-0.479,0.205-1.021,0.308-1.627,0.308c-0.371,0-0.705-0.062-1.003-0.187c-0.298-0.125-0.517-0.286-0.655-0.483
				c-0.14-0.198-0.236-0.465-0.289-0.803c-0.045-0.238-0.066-0.722-0.066-1.449v-3.392h-0.945v-1.641h0.945v-1.546l2.065-1.201
				v2.747H245.465z"/>
			<path style="fill:#FFFFFF;" d="M248.944,529.619v3.948c0.664-0.777,1.458-1.165,2.381-1.165c0.474,0,0.9,0.088,1.281,0.264
				s0.668,0.4,0.861,0.674c0.192,0.273,0.324,0.576,0.396,0.908c0.07,0.332,0.106,0.848,0.106,1.546v4.562h-2.059v-4.109
				c0-0.814-0.039-1.332-0.117-1.553c-0.078-0.219-0.216-0.394-0.414-0.523c-0.197-0.129-0.445-0.193-0.743-0.193
				c-0.342,0-0.647,0.083-0.915,0.248c-0.27,0.167-0.466,0.417-0.59,0.751c-0.125,0.335-0.188,0.829-0.188,1.483v3.896h-2.058
				v-10.737H248.944z"/>
			<path style="fill:#FFFFFF;" d="M260.561,537.88l2.051,0.345c-0.264,0.752-0.68,1.324-1.249,1.717
				c-0.568,0.394-1.28,0.59-2.135,0.59c-1.353,0-2.354-0.441-3.003-1.326c-0.513-0.707-0.769-1.601-0.769-2.68
				c0-1.289,0.336-2.299,1.01-3.029c0.674-0.729,1.526-1.095,2.557-1.095c1.157,0,2.07,0.382,2.739,1.146
				c0.669,0.764,0.989,1.935,0.96,3.512h-5.156c0.014,0.61,0.18,1.085,0.498,1.425c0.316,0.339,0.712,0.509,1.186,0.509
				c0.322,0,0.594-0.088,0.813-0.264S260.449,538.271,260.561,537.88z M260.678,535.8c-0.015-0.596-0.169-1.049-0.462-1.358
				c-0.293-0.311-0.649-0.465-1.068-0.465c-0.45,0-0.82,0.163-1.113,0.49s-0.438,0.771-0.433,1.333H260.678z"/>
			<path style="fill:#FFFFFF;" d="M266.369,540.356h-2.059v-7.778h1.912v1.106c0.327-0.522,0.621-0.867,0.883-1.033
				c0.261-0.166,0.558-0.249,0.89-0.249c0.469,0,0.92,0.13,1.354,0.388l-0.637,1.795c-0.347-0.225-0.669-0.337-0.967-0.337
				c-0.288,0-0.532,0.079-0.732,0.238c-0.2,0.158-0.357,0.445-0.473,0.86c-0.114,0.415-0.172,1.284-0.172,2.607V540.356z"/>
			<path style="fill:#FFFFFF;" d="M230.259,557.356v-10.737h7.361v1.816h-5.193v2.542h4.482v1.816h-4.482v4.562H230.259z"/>
			<path style="fill:#FFFFFF;" d="M241.363,557.356h-2.059v-7.778h1.912v1.106c0.327-0.522,0.621-0.867,0.883-1.033
				c0.261-0.166,0.558-0.249,0.89-0.249c0.469,0,0.92,0.13,1.354,0.388l-0.637,1.795c-0.347-0.225-0.669-0.337-0.967-0.337
				c-0.288,0-0.532,0.079-0.732,0.238c-0.2,0.158-0.357,0.445-0.473,0.86c-0.114,0.415-0.172,1.284-0.172,2.607V557.356z"/>
			<path style="fill:#FFFFFF;" d="M245.23,548.523v-1.904h2.059v1.904H245.23z M245.23,557.356v-7.778h2.059v7.778H245.23z"/>
			<path style="fill:#FFFFFF;" d="M256.533,557.356h-1.912v-1.143c-0.317,0.444-0.692,0.775-1.124,0.992
				c-0.433,0.218-0.868,0.326-1.308,0.326c-0.894,0-1.659-0.36-2.296-1.08c-0.638-0.721-0.956-1.725-0.956-3.014
				c0-1.318,0.31-2.321,0.93-3.007c0.62-0.687,1.404-1.029,2.352-1.029c0.869,0,1.621,0.361,2.256,1.084v-3.867h2.059V557.356z
				 M251.039,553.298c0,0.83,0.115,1.431,0.345,1.802c0.332,0.537,0.796,0.806,1.392,0.806c0.474,0,0.876-0.201,1.209-0.604
				c0.331-0.402,0.498-1.004,0.498-1.805c0-0.895-0.162-1.537-0.484-1.931c-0.322-0.393-0.734-0.589-1.237-0.589
				c-0.488,0-0.897,0.193-1.227,0.582C251.204,551.947,251.039,552.527,251.039,553.298z"/>
			<path style="fill:#FFFFFF;" d="M260.099,551.951l-1.868-0.337c0.21-0.752,0.571-1.309,1.084-1.67s1.274-0.542,2.285-0.542
				c0.918,0,1.602,0.108,2.051,0.326c0.449,0.217,0.766,0.493,0.948,0.827c0.184,0.335,0.275,0.949,0.275,1.842l-0.022,2.402
				c0,0.685,0.033,1.188,0.099,1.513c0.066,0.325,0.189,0.673,0.37,1.044h-2.036c-0.054-0.137-0.12-0.339-0.197-0.607
				c-0.035-0.122-0.059-0.203-0.074-0.242c-0.352,0.342-0.728,0.599-1.127,0.77c-0.401,0.17-0.828,0.256-1.282,0.256
				c-0.801,0-1.432-0.217-1.894-0.652c-0.461-0.434-0.691-0.983-0.691-1.647c0-0.439,0.104-0.831,0.314-1.176
				c0.21-0.344,0.504-0.607,0.883-0.791c0.378-0.183,0.924-0.343,1.637-0.479c0.962-0.181,1.628-0.349,2-0.506v-0.205
				c0-0.395-0.099-0.677-0.293-0.846c-0.196-0.168-0.564-0.252-1.106-0.252c-0.366,0-0.651,0.071-0.856,0.216
				C260.392,551.336,260.225,551.589,260.099,551.951z M262.853,553.621c-0.264,0.088-0.682,0.193-1.253,0.315
				s-0.944,0.241-1.12,0.358c-0.27,0.19-0.403,0.433-0.403,0.726c0,0.288,0.107,0.537,0.322,0.746
				c0.215,0.211,0.488,0.315,0.82,0.315c0.371,0,0.726-0.122,1.062-0.366c0.25-0.186,0.413-0.412,0.491-0.682
				c0.054-0.176,0.081-0.51,0.081-1.003V553.621z"/>
			<path style="fill:#FFFFFF;" d="M265.928,549.578h2.19l1.859,5.522l1.816-5.522h2.132l-2.747,7.485l-0.49,1.355
				c-0.181,0.453-0.353,0.8-0.517,1.039c-0.163,0.239-0.352,0.434-0.563,0.583c-0.213,0.148-0.474,0.265-0.784,0.348
				c-0.31,0.083-0.66,0.124-1.051,0.124c-0.396,0-0.784-0.041-1.165-0.124l-0.183-1.611c0.322,0.063,0.612,0.095,0.872,0.095
				c0.478,0,0.832-0.14,1.062-0.421c0.229-0.28,0.405-0.639,0.527-1.073L265.928,549.578z"/>
			<path style="fill:#FFFFFF;" d="M229.33,566.578h1.143v-0.586c0-0.654,0.069-1.143,0.209-1.465
				c0.139-0.322,0.396-0.585,0.769-0.787c0.374-0.203,0.847-0.304,1.417-0.304c0.586,0,1.16,0.088,1.722,0.264l-0.278,1.436
				c-0.327-0.078-0.643-0.117-0.945-0.117c-0.298,0-0.511,0.069-0.641,0.208c-0.129,0.14-0.193,0.407-0.193,0.802v0.55h1.537v1.618
				h-1.537v6.16h-2.059v-6.16h-1.143V566.578z"/>
			<path style="fill:#FFFFFF;" d="M235.225,565.523v-1.904h2.059v1.904H235.225z M235.225,574.356v-7.778h2.059v7.778H235.225z"/>
			<path style="fill:#FFFFFF;" d="M241.363,574.356h-2.059v-7.778h1.912v1.106c0.327-0.522,0.621-0.867,0.883-1.033
				c0.261-0.166,0.558-0.249,0.89-0.249c0.469,0,0.92,0.13,1.354,0.388l-0.637,1.795c-0.347-0.225-0.669-0.337-0.967-0.337
				c-0.288,0-0.532,0.079-0.732,0.238c-0.2,0.158-0.357,0.445-0.473,0.86c-0.114,0.415-0.172,1.284-0.172,2.607V574.356z"/>
			<path style="fill:#FFFFFF;" d="M249.735,571.88l2.051,0.345c-0.264,0.752-0.68,1.324-1.249,1.717
				c-0.568,0.394-1.28,0.59-2.135,0.59c-1.353,0-2.354-0.441-3.003-1.326c-0.513-0.707-0.769-1.601-0.769-2.68
				c0-1.289,0.336-2.299,1.01-3.029c0.674-0.729,1.526-1.095,2.557-1.095c1.157,0,2.07,0.382,2.739,1.146
				c0.669,0.764,0.989,1.935,0.96,3.512h-5.156c0.014,0.61,0.18,1.085,0.498,1.425c0.316,0.339,0.712,0.509,1.186,0.509
				c0.322,0,0.594-0.088,0.813-0.264S249.623,572.271,249.735,571.88z M249.852,569.8c-0.015-0.596-0.169-1.049-0.462-1.358
				c-0.293-0.311-0.649-0.465-1.068-0.465c-0.45,0-0.82,0.163-1.113,0.49s-0.438,0.771-0.433,1.333H249.852z"/>
			<path style="fill:#FFFFFF;" d="M252.847,572.137l2.065-0.315c0.088,0.4,0.266,0.704,0.534,0.912
				c0.269,0.207,0.645,0.312,1.129,0.312c0.531,0,0.932-0.098,1.201-0.293c0.18-0.137,0.271-0.32,0.271-0.55
				c0-0.156-0.049-0.286-0.146-0.388c-0.103-0.098-0.332-0.188-0.688-0.271c-1.66-0.366-2.713-0.7-3.156-1.004
				c-0.615-0.419-0.924-1.003-0.924-1.75c0-0.674,0.267-1.24,0.799-1.699s1.357-0.688,2.476-0.688c1.064,0,1.855,0.174,2.373,0.521
				s0.874,0.859,1.069,1.537l-1.941,0.359c-0.083-0.303-0.24-0.535-0.472-0.695c-0.232-0.162-0.563-0.242-0.993-0.242
				c-0.541,0-0.93,0.076-1.164,0.227c-0.156,0.108-0.234,0.247-0.234,0.418c0,0.146,0.068,0.271,0.205,0.373
				c0.186,0.138,0.826,0.33,1.923,0.579c1.096,0.249,1.861,0.555,2.296,0.915c0.43,0.367,0.645,0.877,0.645,1.531
				c0,0.713-0.298,1.326-0.894,1.838c-0.596,0.514-1.478,0.77-2.644,0.77c-1.061,0-1.898-0.215-2.517-0.645
				C253.442,573.458,253.038,572.875,252.847,572.137z"/>
		</g>
	</g>
</g>
<rect x="248.98" y="117.26" style="fill:#F1F2F2;" width="14.437" height="60.555"/>
<g>
	<g>
		<path d="M251.405,121.069l8.457-0.072l0.016,1.722l-7.021,0.06l0.036,4.28l-1.437,0.013L251.405,121.069z"/>
		<path d="M251.534,135.988l-0.017-1.873l1.931-0.761l-0.029-3.408l-1.942-0.688l-0.017-1.826l8.556,3.248l0.016,1.82
			L251.534,135.988z M254.879,132.789l3.154-1.202l-3.175-1.124L254.879,132.789z"/>
		<path d="M254.312,136.442l0.178,1.673c-0.562,0.105-0.974,0.314-1.234,0.624c-0.261,0.311-0.389,0.729-0.385,1.252
			c0.005,0.555,0.126,0.971,0.362,1.25c0.238,0.278,0.514,0.417,0.827,0.414c0.202-0.002,0.372-0.062,0.513-0.182
			s0.262-0.327,0.364-0.623c0.068-0.201,0.188-0.662,0.361-1.381c0.221-0.925,0.496-1.574,0.826-1.95
			c0.465-0.527,1.034-0.794,1.709-0.8c0.435-0.004,0.842,0.115,1.222,0.359c0.38,0.243,0.671,0.595,0.872,1.056
			c0.202,0.463,0.306,1.021,0.312,1.677c0.01,1.07-0.218,1.877-0.684,2.422c-0.464,0.545-1.087,0.834-1.87,0.868l-0.091-1.721
			c0.438-0.078,0.752-0.238,0.941-0.481c0.189-0.245,0.282-0.609,0.278-1.094c-0.004-0.5-0.11-0.891-0.318-1.172
			c-0.134-0.182-0.311-0.271-0.532-0.269c-0.201,0.001-0.373,0.088-0.516,0.26c-0.18,0.219-0.365,0.747-0.556,1.587
			s-0.39,1.461-0.598,1.864c-0.208,0.402-0.494,0.719-0.858,0.949c-0.364,0.229-0.816,0.347-1.355,0.352
			c-0.488,0.004-0.947-0.127-1.375-0.396c-0.43-0.268-0.75-0.648-0.962-1.143s-0.32-1.113-0.327-1.854
			c-0.009-1.078,0.232-1.908,0.726-2.489C252.636,136.913,253.359,136.562,254.312,136.442z"/>
		<path d="M251.676,152.535l-0.017-1.873l1.931-0.761l-0.03-3.408l-1.942-0.688l-0.016-1.825l8.555,3.247l0.016,1.82
			L251.676,152.535z M255.022,149.335l3.153-1.202l-3.174-1.124L255.022,149.335z"/>
		<path d="M251.684,153.495l8.457-0.072l0.015,1.722l-7.021,0.06l0.037,4.28l-1.437,0.013L251.684,153.495z"/>
		<path d="M251.747,160.771l8.457-0.072l0.015,1.722l-7.021,0.06l0.037,4.28l-1.437,0.013L251.747,160.771z"/>
		<path d="M251.809,168l8.526-0.073l0.054,6.321l-1.442,0.013l-0.039-4.601l-1.89,0.016l0.037,4.281l-1.438,0.013l-0.037-4.281
			l-2.32,0.02l0.041,4.764l-1.437,0.013L251.809,168z"/>
	</g>
</g>
<g>
	<g>
		<path d="M251.431,121.099l8.457-0.072l0.015,1.722l-7.02,0.061l0.037,4.281l-1.437,0.012L251.431,121.099z"/>
		<path d="M251.559,136.017l-0.017-1.872l1.931-0.761l-0.029-3.408l-1.943-0.687l-0.016-1.826l8.556,3.248l0.016,1.82
			L251.559,136.017z M254.905,132.818l3.154-1.201l-3.174-1.125L254.905,132.818z"/>
		<path d="M254.338,136.47l0.177,1.673c-0.562,0.106-0.973,0.313-1.234,0.624c-0.26,0.311-0.389,0.728-0.385,1.251
			c0.005,0.554,0.125,0.971,0.363,1.25c0.237,0.28,0.513,0.418,0.827,0.415c0.202-0.002,0.372-0.062,0.513-0.183
			c0.14-0.119,0.262-0.326,0.364-0.622c0.067-0.203,0.188-0.663,0.36-1.382c0.221-0.926,0.497-1.575,0.827-1.95
			c0.465-0.528,1.034-0.794,1.709-0.8c0.435-0.003,0.842,0.115,1.221,0.359c0.381,0.243,0.671,0.596,0.873,1.057
			c0.202,0.462,0.305,1.02,0.311,1.676c0.009,1.07-0.218,1.877-0.683,2.422c-0.464,0.545-1.088,0.834-1.871,0.868l-0.091-1.721
			c0.437-0.077,0.751-0.238,0.941-0.483c0.189-0.243,0.283-0.608,0.278-1.093c-0.004-0.5-0.111-0.891-0.318-1.172
			c-0.134-0.18-0.311-0.27-0.532-0.268c-0.202,0.002-0.373,0.089-0.515,0.26c-0.18,0.219-0.366,0.748-0.557,1.587
			c-0.19,0.839-0.39,1.46-0.598,1.864c-0.208,0.403-0.494,0.72-0.857,0.95c-0.366,0.229-0.816,0.347-1.355,0.352
			c-0.489,0.004-0.948-0.128-1.377-0.396c-0.428-0.268-0.749-0.649-0.961-1.143c-0.211-0.494-0.32-1.113-0.327-1.853
			c-0.009-1.078,0.233-1.909,0.727-2.49C252.662,136.942,253.385,136.591,254.338,136.47z"/>
		<path d="M251.701,152.564l-0.016-1.873l1.93-0.761l-0.029-3.408l-1.943-0.687l-0.016-1.826l8.555,3.248l0.016,1.82
			L251.701,152.564z M255.047,149.365l3.154-1.201l-3.174-1.125L255.047,149.365z"/>
		<path d="M251.71,153.523l8.457-0.072l0.015,1.721l-7.02,0.061l0.037,4.281l-1.437,0.012L251.71,153.523z"/>
		<path d="M251.772,160.799l8.457-0.072l0.015,1.722l-7.02,0.061l0.037,4.281l-1.437,0.012L251.772,160.799z"/>
		<path d="M251.834,168.028l8.527-0.073l0.055,6.322l-1.442,0.012l-0.04-4.601l-1.89,0.017l0.037,4.281l-1.437,0.012l-0.037-4.281
			l-2.321,0.021l0.041,4.764l-1.437,0.012L251.834,168.028z"/>
	</g>
</g>
<rect x="272.237" y="150.826" style="fill:#F1F2F2;" width="11.76" height="40.155"/>
<g>
	<g>
		<path d="M276.032,152.53l0.177,1.673c-0.562,0.106-0.973,0.313-1.234,0.624c-0.26,0.311-0.389,0.728-0.385,1.251
			c0.005,0.554,0.125,0.971,0.363,1.249c0.237,0.28,0.513,0.418,0.827,0.415c0.202-0.002,0.372-0.062,0.513-0.183
			c0.14-0.119,0.262-0.325,0.363-0.621c0.068-0.203,0.189-0.663,0.361-1.382c0.221-0.926,0.497-1.575,0.827-1.95
			c0.465-0.528,1.034-0.794,1.709-0.8c0.435-0.003,0.842,0.115,1.221,0.359c0.381,0.243,0.671,0.596,0.873,1.057
			c0.202,0.462,0.305,1.02,0.311,1.676c0.009,1.07-0.218,1.876-0.683,2.421c-0.464,0.545-1.088,0.834-1.871,0.868l-0.091-1.721
			c0.437-0.077,0.751-0.238,0.941-0.482c0.189-0.243,0.283-0.608,0.278-1.093c-0.004-0.5-0.111-0.891-0.318-1.172
			c-0.134-0.18-0.311-0.27-0.532-0.268c-0.202,0.002-0.373,0.089-0.515,0.26c-0.18,0.219-0.366,0.748-0.557,1.587
			c-0.19,0.839-0.39,1.459-0.598,1.863c-0.208,0.403-0.494,0.72-0.857,0.95c-0.366,0.229-0.816,0.347-1.355,0.352
			c-0.489,0.004-0.948-0.128-1.377-0.396c-0.428-0.268-0.749-0.649-0.961-1.143c-0.211-0.494-0.32-1.112-0.327-1.852
			c-0.009-1.078,0.233-1.909,0.727-2.49C274.356,153.002,275.079,152.65,276.032,152.53z"/>
		<path d="M273.345,162.853l7.084-0.061l-0.022-2.53l1.442-0.012l0.058,6.776l-1.442,0.012l-0.022-2.524l-7.084,0.061
			L273.345,162.853z"/>
		<path d="M273.45,175.015l-0.016-1.873l1.93-0.761l-0.029-3.408l-1.943-0.687l-0.016-1.826l8.555,3.248l0.016,1.82L273.45,175.015z
			 M276.796,171.816l3.154-1.201l-3.174-1.125L276.796,171.816z"/>
		<path d="M273.467,176.963l7.084-0.061l-0.022-2.53l1.442-0.012l0.058,6.775l-1.442,0.012l-0.022-2.524l-7.084,0.061
			L273.467,176.963z"/>
		<path d="M273.513,182.319l8.527-0.073l0.054,6.322l-1.442,0.012l-0.039-4.601l-1.89,0.017l0.037,4.281l-1.437,0.012l-0.037-4.281
			l-2.321,0.021l0.041,4.764l-1.437,0.012L273.513,182.319z"/>
	</g>
</g>
<rect x="156.736" y="183.73" style="fill:#D72132;stroke:#000000;stroke-width:1.5;" width="8.453" height="10.216"/>
<g>
	<rect x="13.26" y="10.162" style="fill:#EBEBEB;stroke:#231F20;" width="120.956" height="85.122"/>
	<path style="fill:#8C001A;stroke:#231F20;stroke-width:0.95;stroke-miterlimit:10;" d="M28.701,44.499L28.701,44.499
		c-3.063,0-5.57,2.506-5.57,5.57v0c0,3.063,2.506,5.57,5.57,5.57h0c3.063,0,5.57-2.506,5.57-5.57v0
		C34.271,47.006,31.764,44.499,28.701,44.499z"/>
	<path d="M45.294,51.206v-1.344l4.852-0.008v4.25c-0.745,0.594-1.513,1.041-2.305,1.34c-0.792,0.3-1.604,0.449-2.438,0.449
		c-1.125,0-2.147-0.24-3.066-0.723c-0.919-0.48-1.613-1.178-2.082-2.09c-0.469-0.91-0.703-1.93-0.703-3.055
		c0-1.113,0.233-2.154,0.699-3.121c0.466-0.965,1.137-1.684,2.012-2.152s1.883-0.703,3.023-0.703c0.828,0,1.577,0.135,2.246,0.402
		c0.669,0.27,1.194,0.643,1.574,1.121c0.38,0.48,0.669,1.105,0.867,1.875l-1.367,0.375c-0.172-0.582-0.386-1.041-0.641-1.375
		c-0.255-0.332-0.62-0.6-1.094-0.801c-0.474-0.199-1-0.301-1.578-0.301c-0.692,0-1.292,0.105-1.797,0.316s-0.913,0.488-1.223,0.832
		s-0.551,0.723-0.723,1.133c-0.292,0.709-0.438,1.477-0.438,2.305c0,1.021,0.176,1.875,0.527,2.562s0.863,1.199,1.535,1.531
		c0.672,0.334,1.386,0.5,2.141,0.5c0.656,0,1.297-0.125,1.922-0.379c0.625-0.252,1.099-0.521,1.422-0.809v-2.133H45.294z"/>
	<path d="M57.638,55.698v-1.219c-0.646,0.938-1.523,1.406-2.633,1.406c-0.489,0-0.946-0.094-1.371-0.281s-0.739-0.422-0.945-0.707
		c-0.206-0.283-0.351-0.631-0.434-1.043c-0.058-0.275-0.086-0.713-0.086-1.312v-5.141h1.406v4.602c0,0.734,0.028,1.23,0.086,1.484
		c0.089,0.371,0.276,0.66,0.562,0.871s0.641,0.316,1.062,0.316s0.817-0.107,1.188-0.324c0.37-0.215,0.632-0.51,0.785-0.883
		c0.153-0.371,0.23-0.912,0.23-1.621v-4.445h1.406v8.297H57.638z"/>
	<path d="M66.513,54.675c-0.521,0.443-1.022,0.756-1.504,0.938c-0.481,0.183-0.999,0.273-1.551,0.273
		c-0.911,0-1.612-0.223-2.102-0.668s-0.734-1.014-0.734-1.707c0-0.406,0.093-0.777,0.277-1.113s0.427-0.605,0.727-0.809
		s0.637-0.355,1.012-0.461c0.276-0.072,0.692-0.143,1.25-0.211c1.136-0.135,1.972-0.297,2.508-0.484
		c0.005-0.191,0.008-0.314,0.008-0.367c0-0.572-0.133-0.977-0.398-1.211c-0.359-0.316-0.894-0.477-1.602-0.477
		c-0.661,0-1.149,0.117-1.465,0.348c-0.315,0.232-0.548,0.643-0.699,1.23l-1.375-0.188c0.125-0.588,0.331-1.062,0.617-1.426
		c0.286-0.361,0.7-0.641,1.242-0.836s1.169-0.293,1.883-0.293c0.708,0,1.284,0.084,1.727,0.25c0.442,0.168,0.769,0.377,0.977,0.629
		c0.208,0.254,0.354,0.572,0.438,0.957c0.047,0.24,0.07,0.672,0.07,1.297v1.875c0,1.309,0.03,2.135,0.09,2.48
		c0.06,0.348,0.179,0.68,0.355,0.996h-1.469C66.649,55.407,66.555,55.065,66.513,54.675z M66.396,51.534
		c-0.511,0.209-1.276,0.387-2.297,0.531c-0.578,0.084-0.987,0.178-1.227,0.281c-0.239,0.105-0.425,0.258-0.555,0.457
		c-0.13,0.201-0.195,0.424-0.195,0.668c0,0.375,0.142,0.688,0.426,0.938s0.699,0.375,1.246,0.375c0.542,0,1.023-0.117,1.445-0.355
		c0.422-0.236,0.731-0.561,0.93-0.973c0.151-0.316,0.227-0.785,0.227-1.406V51.534z"/>
	<path d="M69.982,55.698v-8.297h1.266v1.258c0.323-0.588,0.621-0.977,0.895-1.164s0.574-0.281,0.902-0.281
		c0.474,0,0.956,0.152,1.445,0.453l-0.484,1.305c-0.344-0.203-0.688-0.305-1.031-0.305c-0.308,0-0.583,0.094-0.828,0.277
		c-0.245,0.186-0.419,0.441-0.523,0.77c-0.156,0.5-0.234,1.047-0.234,1.641v4.344H69.982z"/>
	<path d="M80.708,55.698v-1.047c-0.526,0.824-1.3,1.234-2.32,1.234c-0.661,0-1.27-0.182-1.824-0.547
		c-0.555-0.363-0.984-0.873-1.289-1.527c-0.305-0.652-0.457-1.404-0.457-2.254c0-0.828,0.138-1.578,0.414-2.254
		c0.276-0.674,0.69-1.191,1.242-1.551s1.169-0.539,1.852-0.539c0.5,0,0.945,0.105,1.336,0.316s0.708,0.486,0.953,0.824v-4.109h1.398
		v11.453H80.708z M76.263,51.557c0,1.062,0.224,1.857,0.672,2.383c0.448,0.527,0.977,0.789,1.586,0.789
		c0.614,0,1.137-0.25,1.566-0.754c0.43-0.502,0.645-1.27,0.645-2.301c0-1.135-0.219-1.969-0.656-2.5s-0.977-0.797-1.617-0.797
		c-0.625,0-1.147,0.256-1.566,0.766C76.473,49.655,76.263,50.46,76.263,51.557z"/>
	<path d="M83.661,53.222l1.391-0.219c0.078,0.559,0.296,0.984,0.652,1.281s0.855,0.445,1.496,0.445c0.646,0,1.125-0.131,1.438-0.395
		c0.312-0.262,0.469-0.57,0.469-0.926c0-0.316-0.138-0.566-0.414-0.75c-0.192-0.125-0.672-0.283-1.438-0.477
		c-1.031-0.26-1.746-0.484-2.145-0.676c-0.398-0.189-0.7-0.453-0.906-0.789s-0.309-0.707-0.309-1.113
		c0-0.369,0.085-0.711,0.254-1.027c0.169-0.314,0.399-0.576,0.691-0.785c0.219-0.16,0.517-0.297,0.895-0.41
		c0.378-0.111,0.782-0.168,1.215-0.168c0.651,0,1.223,0.094,1.715,0.281s0.855,0.441,1.09,0.762s0.396,0.75,0.484,1.285
		l-1.375,0.188c-0.062-0.426-0.243-0.76-0.543-1c-0.3-0.238-0.723-0.359-1.27-0.359c-0.646,0-1.106,0.107-1.383,0.32
		c-0.276,0.215-0.414,0.465-0.414,0.75c0,0.184,0.058,0.348,0.172,0.492c0.114,0.152,0.294,0.277,0.539,0.375
		c0.141,0.053,0.555,0.172,1.242,0.359c0.995,0.266,1.688,0.484,2.082,0.652c0.394,0.17,0.702,0.416,0.926,0.738
		c0.224,0.324,0.336,0.725,0.336,1.203c0,0.469-0.137,0.91-0.41,1.324s-0.668,0.734-1.184,0.961s-1.099,0.34-1.75,0.34
		c-1.078,0-1.899-0.223-2.465-0.672C84.178,54.766,83.818,54.102,83.661,53.222z"/>
	<path d="M92.224,55.698v-8.297h1.258v1.164c0.261-0.406,0.606-0.732,1.039-0.98c0.433-0.246,0.925-0.371,1.477-0.371
		c0.614,0,1.118,0.129,1.512,0.383c0.394,0.256,0.671,0.613,0.832,1.07c0.656-0.969,1.511-1.453,2.562-1.453
		c0.823,0,1.456,0.229,1.898,0.684c0.442,0.457,0.664,1.158,0.664,2.105v5.695h-1.398v-5.227c0-0.562-0.046-0.967-0.137-1.215
		c-0.091-0.246-0.257-0.445-0.496-0.598c-0.239-0.15-0.521-0.227-0.844-0.227c-0.583,0-1.067,0.195-1.453,0.582
		c-0.386,0.389-0.578,1.01-0.578,1.863v4.82h-1.406v-5.391c0-0.625-0.114-1.094-0.344-1.406s-0.604-0.469-1.125-0.469
		c-0.396,0-0.762,0.105-1.098,0.312c-0.336,0.209-0.579,0.514-0.73,0.914c-0.151,0.402-0.227,0.98-0.227,1.734v4.305H92.224z"/>
	<path d="M111.232,53.026l1.453,0.18c-0.229,0.85-0.653,1.508-1.273,1.977s-1.411,0.703-2.375,0.703
		c-1.214,0-2.176-0.373-2.887-1.121c-0.711-0.746-1.066-1.795-1.066-3.145c0-1.395,0.359-2.479,1.078-3.25
		c0.719-0.77,1.651-1.156,2.797-1.156c1.109,0,2.016,0.379,2.719,1.133c0.703,0.756,1.055,1.818,1.055,3.188
		c0,0.084-0.003,0.209-0.008,0.375h-6.188c0.052,0.912,0.31,1.609,0.773,2.094s1.042,0.727,1.734,0.727
		c0.516,0,0.956-0.135,1.32-0.406C110.729,54.054,111.018,53.62,111.232,53.026z M106.615,50.753h4.633
		c-0.062-0.697-0.239-1.221-0.531-1.57c-0.448-0.541-1.028-0.812-1.742-0.812c-0.646,0-1.188,0.217-1.629,0.648
		C106.905,49.452,106.661,50.03,106.615,50.753z"/>
	<path d="M114.45,55.698v-8.297h1.266v1.18c0.609-0.91,1.489-1.367,2.641-1.367c0.5,0,0.96,0.09,1.379,0.27s0.733,0.416,0.941,0.707
		c0.208,0.293,0.354,0.639,0.438,1.039c0.052,0.262,0.078,0.717,0.078,1.367v5.102h-1.406v-5.047c0-0.572-0.055-1-0.164-1.285
		c-0.109-0.283-0.304-0.51-0.582-0.68c-0.278-0.168-0.605-0.254-0.98-0.254c-0.599,0-1.116,0.191-1.551,0.57
		c-0.435,0.381-0.652,1.102-0.652,2.164v4.531H114.45z"/>
	<path style="fill:#F7D9D1;stroke:#231F20;stroke-width:0.95;stroke-miterlimit:10;" d="M28.701,69.991L28.701,69.991
		c-3.063,0-5.57,2.506-5.57,5.57v0c0,3.063,2.506,5.57,5.57,5.57h0c3.063,0,5.57-2.506,5.57-5.57v0
		C34.271,72.497,31.764,69.991,28.701,69.991z"/>
	<path d="M46.45,69.737h1.516v6.617c0,1.151-0.13,2.065-0.391,2.742s-0.73,1.228-1.41,1.652s-1.571,0.637-2.676,0.637
		c-1.073,0-1.95-0.185-2.633-0.555s-1.169-0.905-1.461-1.605s-0.438-1.657-0.438-2.871v-6.617h1.516v6.609
		c0,0.995,0.093,1.728,0.277,2.199s0.503,0.835,0.953,1.09s1.001,0.383,1.652,0.383c1.114,0,1.909-0.253,2.383-0.758
		s0.711-1.477,0.711-2.914V69.737z"/>
	<path d="M50.708,81.19v-1.602h1.602v1.602H50.708z"/>
	<path d="M54.419,77.511l1.43-0.125c0.067,0.573,0.226,1.043,0.473,1.41s0.632,0.664,1.152,0.891s1.106,0.34,1.758,0.34
		c0.578,0,1.089-0.086,1.531-0.258s0.772-0.407,0.988-0.707s0.324-0.626,0.324-0.98c0-0.359-0.104-0.673-0.312-0.941
		s-0.552-0.493-1.031-0.676c-0.308-0.12-0.987-0.306-2.039-0.559s-1.789-0.491-2.211-0.715c-0.547-0.286-0.954-0.642-1.223-1.066
		s-0.402-0.899-0.402-1.426c0-0.578,0.164-1.118,0.492-1.621s0.808-0.884,1.438-1.145s1.331-0.391,2.102-0.391
		c0.849,0,1.598,0.137,2.246,0.41s1.147,0.676,1.496,1.207s0.536,1.133,0.562,1.805l-1.453,0.109
		c-0.078-0.724-0.343-1.271-0.793-1.641s-1.116-0.555-1.996-0.555c-0.917,0-1.585,0.168-2.004,0.504s-0.629,0.741-0.629,1.215
		c0,0.411,0.148,0.75,0.445,1.016c0.292,0.266,1.054,0.538,2.285,0.816s2.077,0.522,2.535,0.73c0.667,0.308,1.159,0.696,1.477,1.168
		s0.477,1.015,0.477,1.629c0,0.609-0.175,1.184-0.523,1.723s-0.851,0.958-1.504,1.258s-1.39,0.449-2.207,0.449
		c-1.036,0-1.905-0.151-2.605-0.453s-1.25-0.757-1.648-1.363S54.44,78.276,54.419,77.511z"/>
	<path d="M65.825,81.19v-1.602h1.602v1.602H65.825z"/>
	<path d="M77.122,81.19V71.089h-3.773v-1.352h9.078v1.352h-3.789V81.19H77.122z"/>
	<path d="M83.193,81.19v-8.297h1.266v1.258c0.323-0.589,0.621-0.977,0.895-1.164s0.574-0.281,0.902-0.281
		c0.474,0,0.956,0.151,1.445,0.453l-0.484,1.305c-0.344-0.203-0.688-0.305-1.031-0.305c-0.308,0-0.583,0.093-0.828,0.277
		s-0.419,0.441-0.523,0.77c-0.156,0.5-0.234,1.047-0.234,1.641v4.344H83.193z"/>
	<path d="M88.013,77.042c0-1.536,0.427-2.675,1.281-3.414c0.714-0.614,1.583-0.922,2.609-0.922c1.141,0,2.073,0.374,2.797,1.121
		s1.086,1.78,1.086,3.098c0,1.067-0.16,1.907-0.48,2.52s-0.786,1.087-1.398,1.426s-1.28,0.508-2.004,0.508
		c-1.161,0-2.101-0.372-2.816-1.117S88.013,78.443,88.013,77.042z M89.458,77.042c0,1.062,0.231,1.858,0.695,2.387
		s1.047,0.793,1.75,0.793c0.698,0,1.278-0.266,1.742-0.797s0.695-1.341,0.695-2.43c0-1.026-0.233-1.804-0.699-2.332
		s-1.046-0.793-1.738-0.793c-0.703,0-1.286,0.263-1.75,0.789S89.458,75.979,89.458,77.042z"/>
	<path d="M96.911,77.042c0-1.536,0.427-2.675,1.281-3.414c0.714-0.614,1.583-0.922,2.609-0.922c1.141,0,2.073,0.374,2.797,1.121
		s1.086,1.78,1.086,3.098c0,1.067-0.16,1.907-0.48,2.52s-0.786,1.087-1.398,1.426s-1.28,0.508-2.004,0.508
		c-1.161,0-2.101-0.372-2.816-1.117S96.911,78.443,96.911,77.042z M98.357,77.042c0,1.062,0.231,1.858,0.695,2.387
		s1.047,0.793,1.75,0.793c0.698,0,1.278-0.266,1.742-0.797s0.695-1.341,0.695-2.43c0-1.026-0.233-1.804-0.699-2.332
		s-1.046-0.793-1.738-0.793c-0.703,0-1.286,0.263-1.75,0.789S98.357,75.979,98.357,77.042z"/>
	<path d="M106.333,84.37V72.893h1.281v1.078c0.302-0.422,0.644-0.738,1.023-0.949s0.841-0.316,1.383-0.316
		c0.708,0,1.333,0.183,1.875,0.547s0.95,0.879,1.227,1.543s0.414,1.392,0.414,2.184c0,0.849-0.152,1.613-0.457,2.293
		s-0.747,1.2-1.328,1.562s-1.191,0.543-1.832,0.543c-0.469,0-0.89-0.099-1.262-0.297s-0.679-0.448-0.918-0.75v4.039H106.333z
		 M107.607,77.089c0,1.067,0.216,1.856,0.648,2.367s0.956,0.766,1.57,0.766c0.625,0,1.16-0.265,1.605-0.793s0.668-1.348,0.668-2.457
		c0-1.058-0.218-1.849-0.652-2.375s-0.954-0.789-1.559-0.789c-0.599,0-1.129,0.28-1.59,0.84S107.607,76.021,107.607,77.089z"/>
	<path d="M114.669,78.714l1.391-0.219c0.078,0.558,0.296,0.984,0.652,1.281s0.855,0.445,1.496,0.445
		c0.646,0,1.125-0.132,1.438-0.395s0.469-0.571,0.469-0.926c0-0.317-0.138-0.567-0.414-0.75c-0.192-0.125-0.672-0.284-1.438-0.477
		c-1.031-0.261-1.746-0.485-2.145-0.676s-0.7-0.453-0.906-0.789s-0.309-0.707-0.309-1.113c0-0.37,0.085-0.712,0.254-1.027
		s0.399-0.577,0.691-0.785c0.219-0.161,0.517-0.298,0.895-0.41s0.782-0.168,1.215-0.168c0.651,0,1.223,0.094,1.715,0.281
		s0.855,0.441,1.09,0.762s0.396,0.749,0.484,1.285l-1.375,0.188c-0.062-0.427-0.243-0.761-0.543-1s-0.723-0.359-1.27-0.359
		c-0.646,0-1.106,0.106-1.383,0.32s-0.414,0.464-0.414,0.75c0,0.183,0.058,0.347,0.172,0.492c0.114,0.151,0.294,0.276,0.539,0.375
		c0.141,0.052,0.555,0.172,1.242,0.359c0.995,0.266,1.688,0.483,2.082,0.652s0.702,0.415,0.926,0.738s0.336,0.724,0.336,1.203
		c0,0.469-0.137,0.91-0.41,1.324s-0.668,0.734-1.184,0.961s-1.099,0.34-1.75,0.34c-1.078,0-1.899-0.224-2.465-0.672
		S114.825,79.594,114.669,78.714z"/>
	<path d="M23.736,34.753V24.015h2.168v4.769l4.379-4.769h2.916l-4.043,4.183l4.262,6.555h-2.805l-2.951-5.039l-1.758,1.795v3.244
		H23.736z"/>
	<path d="M34.539,34.753V24.015H42.5v1.816h-5.793v2.38h5.391v1.81h-5.391v2.923h5.998v1.809H34.539z"/>
	<path d="M47.364,34.753v-4.52l-3.933-6.218h2.541l2.527,4.248l2.475-4.248h2.498l-3.947,6.233v4.504H47.364z"/>
</g>
</svg>
