<?xml version="1.0" encoding="utf-8"?>
<!-- Generator: Adobe Illustrator 22.0.1, SVG Export Plug-In . SVG Version: 6.00 Build 0)  -->
<svg version="1.1" xmlns="http://www.w3.org/2000/svg" xmlns:xlink="http://www.w3.org/1999/xlink" x="0px" y="0px"
	 viewBox="0 0 610 622" style="enable-background:new 0 0 610 622;" xml:space="preserve">
<g id="troops">
	<path style="fill:#C7C8C9;stroke:#231F20;stroke-width:0.95;stroke-miterlimit:10;" d="M463.033,392.147L463.033,392.147
		c-2.726,0-4.957,2.23-4.957,4.957v0c0,2.726,2.23,4.957,4.957,4.957l0,0c2.726,0,4.957-2.23,4.957-4.957v0
		C467.989,394.377,465.759,392.147,463.033,392.147z"/>
	<path style="fill:#74787B;stroke:#231F20;stroke-width:0.95;stroke-miterlimit:10;" d="M532.317,465.501L532.317,465.501
		c-2.726,0-4.957,2.23-4.957,4.957v0c0,2.726,2.231,4.957,4.957,4.957l0,0c2.726,0,4.957-2.23,4.957-4.957v0
		C537.273,467.731,535.043,465.501,532.317,465.501z"/>
	<path style="fill:#74787B;stroke:#231F20;stroke-width:0.95;stroke-miterlimit:10;" d="M352.326,479.795L352.326,479.795
		c-2.726,0-4.957,2.23-4.957,4.957l0,0c0,2.726,2.23,4.957,4.957,4.957l0,0c2.726,0,4.957-2.23,4.957-4.957l0,0
		C357.283,482.025,355.052,479.795,352.326,479.795z"/>
	<path style="fill:#C7C8C9;stroke:#231F20;stroke-width:0.95;stroke-miterlimit:10;" d="M296.557,316.705L296.557,316.705
		c-2.726,0-4.957,2.23-4.957,4.957l0,0c0,2.726,2.23,4.957,4.957,4.957l0,0c2.726,0,4.957-2.23,4.957-4.957l0,0
		C301.514,318.935,299.283,316.705,296.557,316.705z"/>
	<path style="fill:#C7C8C9;stroke:#231F20;stroke-width:0.95;stroke-miterlimit:10;" d="M145.789,434.783L145.789,434.783
		c-2.726,0-4.957,2.23-4.957,4.957v0c0,2.726,2.23,4.957,4.957,4.957h0c2.726,0,4.957-2.23,4.957-4.957v0
		C150.745,437.014,148.515,434.783,145.789,434.783z"/>
	<g>
		
			<rect x="136.337" y="17.913" transform="matrix(1 -0.003 0.003 1 -0.0756 0.5788)" style="fill:#F1F2F2;" width="116.003" height="15.536"/>
		<g>
			<text transform="matrix(1 0 0 1 137.9771 29.0078)" style="font-family:'ArialMT'; font-size:14px;">Northwest Armory</text>
		</g>
	</g>
	<path style="fill:#C7C8C9;stroke:#231F20;stroke-width:0.95;stroke-miterlimit:10;" d="M230.17,44.8L230.17,44.8
		c-2.726,0-4.957,2.23-4.957,4.957v0c0,2.726,2.23,4.957,4.957,4.957h0c2.726,0,4.957-2.23,4.957-4.957v0
		C235.126,47.031,232.896,44.8,230.17,44.8z"/>
	
		<line style="fill:none;stroke:#000000;stroke-width:0.95;stroke-miterlimit:10;" x1="229.764" y1="33.578" x2="229.764" y2="41.916"/>
	<path style="fill:#C7C8C9;stroke:#231F20;stroke-width:0.95;stroke-miterlimit:10;" d="M432.237,80.797L432.237,80.797
		c-2.726,0-4.957,2.23-4.957,4.957v0c0,2.726,2.23,4.957,4.957,4.957l0,0c2.726,0,4.957-2.23,4.957-4.957v0
		C437.193,83.028,434.963,80.797,432.237,80.797z"/>
	<g>
		<g>
			<g>
				<text transform="matrix(1 0 0 1 467.7603 76.5109)" style="font-family:'Arial-BoldMT'; font-size:14px;">Headquarters</text>
			</g>
		</g>
	</g>
	<path style="fill:#74787B;stroke:#231F20;stroke-width:0.95;stroke-miterlimit:10;" d="M467.76,95.241L467.76,95.241
		c-2.726,0-4.957,2.23-4.957,4.957v0c0,2.726,2.23,4.957,4.957,4.957l0,0c2.726,0,4.957-2.23,4.957-4.957v0
		C472.717,97.471,470.486,95.241,467.76,95.241z"/>
	<polyline style="fill:none;stroke:#000000;stroke-width:0.95;stroke-miterlimit:10;" points="432.237,79.363 432.237,73.659 
		464.214,73.659 	"/>
	<g>
		
			<rect x="250.241" y="66.429" transform="matrix(0.9997 -0.0237 0.0237 0.9997 -2.0792 6.6033)" style="fill:#F1F2F2;" width="54.75" height="49.224"/>
		<g>
			<text transform="matrix(1 0 0 1 252.2896 80.3887)"><tspan x="0" y="0" style="font-family:'ArialMT'; font-size:14px;">Madison </tspan><tspan x="0" y="15.827" style="font-family:'ArialMT'; font-size:14px;">Street</tspan><tspan x="0" y="31.655" style="font-family:'ArialMT'; font-size:14px;">Armory</tspan></text>
		</g>
	</g>
	<path style="fill:#C7C8C9;stroke:#231F20;stroke-width:0.95;stroke-miterlimit:10;" d="M261.419,132.449L261.419,132.449
		c-2.726,0-4.957,2.23-4.957,4.957v0c0,2.726,2.23,4.957,4.957,4.957h0c2.726,0,4.957-2.23,4.957-4.957v0
		C266.376,134.679,264.145,132.449,261.419,132.449z"/>
	
		<line style="fill:#FFFFFF;stroke:#000000;stroke-width:0.95;stroke-miterlimit:10;" x1="261.19" y1="116.785" x2="261.19" y2="129.044"/>
	<g>
		<rect x="487.257" y="217.141" style="fill:#FFFFFF;stroke:#231F20;" width="114" height="76.81"/>
		<g>
			<g>
				<text transform="matrix(1 0 0 1 498.4309 237.8308)" style="font-family:'ArialMT'; font-size:14px;">KEY</text>
			</g>
			<g>
				<g>
					<path style="fill:#C7C8C9;stroke:#231F20;stroke-width:0.95;stroke-miterlimit:10;" d="M504.001,246.867L504.001,246.867
						c-3.063,0-5.57,2.506-5.57,5.57v0c0,3.063,2.506,5.57,5.57,5.57h0c3.063,0,5.57-2.506,5.57-5.57v0
						C509.571,249.373,507.064,246.867,504.001,246.867z"/>
				</g>
				<g>
					<text transform="matrix(1 0 0 1 514.0009 258.0664)" style="font-family:'ArialMT'; font-size:14px;">Guardsmen</text>
				</g>
			</g>
			<g>
				<g>
					<path style="fill:#74787B;stroke:#231F20;stroke-width:0.95;stroke-miterlimit:10;" d="M504.001,271.223L504.001,271.223
						c-3.063,0-5.57,2.506-5.57,5.57l0,0c0,3.063,2.506,5.57,5.57,5.57h0c3.063,0,5.57-2.506,5.57-5.57l0,0
						C509.571,273.729,507.064,271.223,504.001,271.223z"/>
				</g>
				<g>
					<text transform="matrix(1 0 0 1 513.0009 282.4224)" style="font-family:'ArialMT'; font-size:14px;">U.S. Troops</text>
				</g>
			</g>
		</g>
	</g>
</g>
<g id="windows_broken_x2F_fire">
	<rect x="409.82" y="129.326" style="fill:#D7153A;stroke:#FFFFFF;stroke-width:1.5;" width="10.333" height="5.667"/>
	<g>
		<polygon style="fill:#FFFFFF;stroke:#231F20;" points="585.054,200.777 468.981,200.777 468.981,188.826 414.487,134.326 
			468.981,181.326 468.981,157.111 585.054,157.111 		"/>
		<rect x="475.956" y="165.171" style="fill:none;" width="109.387" height="29.796"/>
		<text transform="matrix(1 0 0 1 475.956 175.1947)"><tspan x="0" y="0" style="fill:#231F20; font-family:'Arial-BoldMT'; font-size:14px;">Windows being </tspan><tspan x="0" y="15.826" style="fill:#231F20; font-family:'Arial-BoldMT'; font-size:14px;">broken</tspan></text>
	</g>
	<g>
		<polygon points="336.987,246.443 228.12,246.443 228.12,219.159 228.12,211.659 228.12,202.777 284.987,202.777 290.154,141.326 
			294.987,202.777 336.987,202.777 		"/>
		<rect x="235.095" y="210.838" style="fill:none;" width="95.887" height="29.796"/>
		<text transform="matrix(1 0 0 1 235.0948 220.861)"><tspan x="0" y="0" style="fill:#FFFFFF; font-family:'Arial-BoldMT'; font-size:14px;">First fire at </tspan><tspan x="0" y="15.826" style="fill:#FFFFFF; font-family:'Arial-BoldMT'; font-size:14px;">furniture store</tspan></text>
	</g>
	<g>
		<g>
			<path style="fill:#D7153A;stroke:#FFFFFF;stroke-width:1.5;" d="M282.966,143.37l4.603-6.574l-4.411-6.191h4.122l2.26,3.51
				l2.379-3.51h3.967l-4.326,6.047l4.723,6.719h-4.148l-2.595-3.955l-2.62,3.955H282.966z"/>
		</g>
		<g>
			<path style="fill:#D7153A;" d="M282.966,143.37l4.603-6.574l-4.411-6.191h4.122l2.26,3.51l2.379-3.51h3.967l-4.326,6.047
				l4.723,6.719h-4.148l-2.595-3.955l-2.62,3.955H282.966z"/>
		</g>
		<g>
			<path style="fill:none;stroke:#FFFFFF;" d="M282.966,143.37l4.603-6.574l-4.411-6.191h4.122l2.26,3.51l2.379-3.51h3.967
				l-4.326,6.047l4.723,6.719h-4.148l-2.595-3.955l-2.62,3.955H282.966z"/>
		</g>
	</g>
	<rect x="375.182" y="414.021" style="fill:#D7153A;stroke:#FFFFFF;stroke-width:1.5;" width="10.709" height="95.311"/>
	<g>
		<polygon style="fill:#FFFFFF;stroke:#231F20;" points="490.554,549.277 434.481,549.277 434.481,507.826 380.487,479.326 
			434.481,500.326 434.481,491.444 490.554,491.444 		"/>
		<rect x="441.456" y="499.505" style="fill:none;" width="48.197" height="42.154"/>
		<text transform="matrix(1 0 0 1 441.456 509.5281)"><tspan x="0" y="0" style="fill:#231F20; font-family:'Arial-BoldMT'; font-size:14px;">Other </tspan><tspan x="0" y="15.826" style="fill:#231F20; font-family:'Arial-BoldMT'; font-size:14px;">Friday </tspan><tspan x="0" y="31.651" style="fill:#231F20; font-family:'Arial-BoldMT'; font-size:14px;">fires</tspan></text>
	</g>
	<g>
		<text transform="matrix(0.0086 0.9999 -1 0.0086 395.8387 56.6339)" style="font-family:'Arial-BoldMT'; font-size:14px;">LASALLE</text>
	</g>
	<g>
		<text transform="matrix(0.0086 0.9999 -1 0.0086 395.8387 56.6339)" style="font-family:'Arial-BoldMT'; font-size:14px;">LASALLE</text>
	</g>
	<g>
		<text transform="matrix(0.0086 0.9999 -1 0.0086 421.4873 93.1304)" style="font-family:'Arial-BoldMT'; font-size:14px;">STATE</text>
	</g>
</g>
</svg>
