<?xml version="1.0" encoding="utf-8"?>
<!-- Generator: Adobe Illustrator 22.0.1, SVG Export Plug-In . SVG Version: 6.00 Build 0)  -->
<svg version="1.1" id="lawndale" xmlns="http://www.w3.org/2000/svg" xmlns:xlink="http://www.w3.org/1999/xlink" x="0px" y="0px"
	 viewBox="0 0 610 622" style="enable-background:new 0 0 610 622;" xml:space="preserve">
<g style="opacity:0.5;">
	<g id="Chicago_x5F_Community_x5F_Areas_selection_2_">
		<polygon style="fill:#C11B17;stroke:#000000;stroke-width:1.9;stroke-miterlimit:10;" points="264.31,133.972 264.31,136.815 
			263.793,140.175 266.119,139.658 266.119,142.501 266.119,145.602 266.377,148.445 266.377,151.546 266.377,154.131 
			266.119,156.198 266.636,156.973 266.636,158.007 266.377,159.299 266.377,159.816 266.636,161.108 266.636,163.434 
			266.636,166.277 266.636,169.12 266.894,171.963 267.153,175.323 267.153,177.907 261.725,178.424 258.365,178.166 
			255.78,178.682 249.835,178.682 243.631,178.424 237.945,178.682 232.259,178.682 232.517,175.84 226.314,175.84 220.369,175.84 
			214.424,176.356 208.737,176.356 202.792,176.356 199.432,176.356 198.14,176.356 197.364,176.356 197.364,173.514 
			197.364,170.671 197.106,167.828 196.847,164.985 197.106,163.176 196.847,161.625 196.589,159.816 196.33,158.783 
			196.589,157.49 196.589,156.198 196.589,153.355 196.072,151.029 196.072,147.67 196.072,145.602 195.813,144.31 195.813,141.467 
			195.813,137.59 195.555,134.489 195.555,130.871 195.555,127.511 195.296,122.084 195.296,119.758 195.296,118.207 
			198.14,118.207 200.983,118.466 203.568,118.207 205.635,118.207 209.513,117.691 210.03,117.691 212.614,117.691 
			218.559,117.691 224.246,117.432 227.347,117.174 230.449,117.174 233.551,117.174 236.136,117.432 240.788,117.432 
			242.339,117.432 247.767,117.174 253.712,117.174 258.623,118.466 266.119,117.949 275.166,117.949 268.704,118.983 
			266.894,120.275 265.602,122.342 265.86,124.152 265.86,129.062 264.051,129.062 264.051,131.646 		"/>
		<polygon style="fill:#C11B17;stroke:#000000;stroke-width:1.9;stroke-miterlimit:10;" points="233.809,228.303 230.708,228.303 
			227.864,229.078 225.021,228.82 222.178,228.82 219.335,228.82 219.852,232.955 217.008,233.989 214.165,233.989 213.39,233.989 
			210.03,233.989 207.703,233.989 204.86,234.247 202.017,233.989 199.173,234.506 196.072,234.506 193.487,234.506 
			193.487,241.742 189.868,243.551 187.284,244.326 182.631,245.36 179.012,246.394 175.652,247.428 171.775,248.461 
			169.19,249.237 168.673,250.012 166.605,250.27 164.538,250.787 161.177,252.079 153.423,255.181 153.165,252.855 
			152.389,243.292 152.131,238.899 152.131,235.281 151.872,233.472 151.872,232.696 151.614,229.854 151.355,227.011 
			151.355,224.426 151.097,212.538 150.838,208.403 151.097,206.852 151.097,201.684 151.097,197.807 151.355,197.29 
			151.097,195.223 150.58,192.121 150.58,190.312 150.58,189.278 149.804,181.525 150.063,179.716 152.906,178.682 155.749,177.907 
			156.525,177.39 158.851,176.356 161.953,175.064 167.898,172.738 167.898,176.098 168.156,179.199 174.101,178.941 
			179.788,178.682 185.991,178.682 185.733,180.75 191.419,180.75 197.364,181.008 197.364,178.941 197.364,176.356 198.14,176.356 
			199.432,176.356 202.792,176.356 208.737,176.356 214.424,176.356 220.369,175.84 226.314,175.84 232.517,175.84 232.259,178.682 
			237.945,178.682 243.631,178.424 249.835,178.682 255.78,178.682 258.365,178.166 261.725,178.424 267.153,177.907 267.67,180.75 
			268.445,185.402 269.479,187.469 268.445,187.469 273.356,196.256 274.132,204.01 275.166,210.212 274.907,210.729 
			274.907,216.415 274.39,217.707 267.411,219.774 259.916,222.359 256.814,223.134 256.814,222.1 248.026,222.617 239.237,222.617 
			239.237,225.202 239.496,227.011 239.237,228.045 236.394,228.561 		"/>
	</g>
</g>
<g>
	<polygon points="212.839,307.316 138.434,307.316 138.434,265.149 171.453,265.149 172.582,213.941 181.88,265.149 
		212.839,265.149 	"/>
	<rect x="145.47" y="273.21" style="fill:none;" width="64.017" height="29.796"/>
	<text transform="matrix(1 0 0 1 145.4696 282.7979)"><tspan x="0" y="0" style="fill:#FFFFFF; font-family:'Arial-BoldMT'; font-size:13.3907px;">North </tspan><tspan x="0" y="15.825" style="fill:#FFFFFF; font-family:'Arial-BoldMT'; font-size:13.3907px;">Lawndale </tspan></text>
</g>
<g>
	<polygon points="377.168,101.601 377.168,159.517 311.493,159.517 311.493,130.417 250.178,156.923 311.493,119.99 
		311.493,101.601 	"/>
	<rect x="318.571" y="109.305" style="fill:none;" width="56.224" height="43.43"/>
	<text transform="matrix(1 0 0 1 318.5709 118.8931)"><tspan x="0" y="0" style="fill:#FFFFFF; font-family:'Arial-BoldMT'; font-size:13.3907px;">East </tspan><tspan x="0" y="15.825" style="fill:#FFFFFF; font-family:'Arial-BoldMT'; font-size:13.3907px;">Garfield </tspan><tspan x="0" y="31.65" style="fill:#FFFFFF; font-family:'Arial-BoldMT'; font-size:13.3907px;">Park</tspan></text>
</g>
</svg>
