<?xml version="1.0" encoding="utf-8"?>
<!-- Generator: Adobe Illustrator 22.0.1, SVG Export Plug-In . SVG Version: 6.00 Build 0)  -->
<svg version="1.1" id="neighborhood" xmlns="http://www.w3.org/2000/svg" xmlns:xlink="http://www.w3.org/1999/xlink" x="0px"
	 y="0px" viewBox="0 0 400 602.122" style="enable-background:new 0 0 400 602.122;" xml:space="preserve">
<g style="opacity:0.75;">
	<g id="Chicago_x5F_Community_x5F_Areas_selection_1_">
		<polygon style="fill:#C11B17;stroke:#000000;stroke-width:1.9;stroke-miterlimit:10;" points="139.514,185.988 139.514,188.407 
			139.074,191.266 141.053,190.826 141.053,193.245 141.053,195.883 141.273,198.302 141.273,200.941 141.273,203.14 
			141.053,204.899 141.493,205.558 141.493,206.438 141.273,207.537 141.273,207.977 141.493,209.077 141.493,211.056 
			141.493,213.474 141.493,215.893 141.713,218.312 141.933,221.171 141.933,223.369 137.315,223.809 134.456,223.589 
			132.256,224.029 127.198,224.029 121.92,223.809 117.082,224.029 112.244,224.029 112.464,221.61 107.185,221.61 102.127,221.61 
			97.069,222.05 92.231,222.05 87.173,222.05 84.314,222.05 83.214,222.05 82.554,222.05 82.554,219.631 82.554,217.213 
			82.334,214.794 82.115,212.375 82.334,210.836 82.115,209.516 81.895,207.977 81.675,207.098 81.895,205.998 81.895,204.899 
			81.895,202.48 81.455,200.501 81.455,197.642 81.455,195.883 81.235,194.784 81.235,192.365 81.235,189.067 81.015,186.428 
			81.015,183.35 81.015,180.491 80.795,175.873 80.795,173.894 80.795,172.575 83.214,172.575 85.633,172.795 87.832,172.575 
			89.592,172.575 92.891,172.135 93.33,172.135 95.53,172.135 100.588,172.135 105.426,171.915 108.065,171.695 110.704,171.695 
			113.343,171.695 115.542,171.915 119.501,171.915 120.821,171.915 125.439,171.695 130.497,171.695 134.676,172.795 
			141.053,172.355 148.751,172.355 143.252,173.235 141.713,174.334 140.613,176.093 140.833,177.632 140.833,181.81 
			139.294,181.81 139.294,184.009 		"/>
		<polygon style="fill:#C11B17;stroke:#000000;stroke-width:1.9;stroke-miterlimit:10;" points="113.563,266.248 110.924,266.248 
			108.505,266.908 106.086,266.688 103.667,266.688 101.248,266.688 101.687,270.206 99.268,271.086 96.849,271.086 96.189,271.086 
			93.33,271.086 91.351,271.086 88.932,271.305 86.513,271.086 84.094,271.525 81.455,271.525 79.256,271.525 79.256,277.682 
			76.177,279.221 73.977,279.881 70.019,280.761 66.94,281.64 64.081,282.52 60.782,283.399 58.583,284.059 58.143,284.719 
			56.384,284.939 54.624,285.378 51.765,286.478 45.168,289.117 44.948,287.138 44.288,279.002 44.068,275.263 44.068,272.185 
			43.848,270.646 43.848,269.986 43.628,267.567 43.408,265.149 43.408,262.95 43.189,252.835 42.969,249.316 43.189,247.997 
			43.189,243.599 43.189,240.301 43.408,239.861 43.189,238.102 42.749,235.463 42.749,233.924 42.749,233.045 42.089,226.448 
			42.309,224.909 44.728,224.029 47.147,223.369 47.807,222.93 49.786,222.05 52.425,220.951 57.483,218.972 57.483,221.83 
			57.703,224.469 62.761,224.249 67.6,224.029 72.878,224.029 72.658,225.788 77.496,225.788 82.554,226.008 82.554,224.249 
			82.554,222.05 83.214,222.05 84.314,222.05 87.173,222.05 92.231,222.05 97.069,222.05 102.127,221.61 107.185,221.61 
			112.464,221.61 112.244,224.029 117.082,224.029 121.92,223.809 127.198,224.029 132.256,224.029 134.456,223.589 
			137.315,223.809 141.933,223.369 142.373,225.788 143.033,229.746 143.912,231.505 143.033,231.505 147.211,238.982 
			147.871,245.578 148.751,250.856 148.531,251.295 148.531,256.133 148.091,257.232 142.153,258.992 135.775,261.191 
			133.136,261.85 133.136,260.971 125.659,261.41 118.182,261.41 118.182,263.609 118.401,265.149 118.182,266.028 115.762,266.468 
					"/>
	</g>
</g>
<g>
	<polygon points="227.453,338.997 145.212,338.997 145.212,295.652 158.115,295.652 121.516,241.042 166.987,295.652 
		227.453,295.652 	"/>
	<g>
		<rect x="151.706" y="303.51" style="fill:none;" width="70.724" height="32.525"/>
		<path style="fill:#FFFFFF;" d="M152.819,314.25v-10.737h2.109l4.395,7.171v-7.171h2.014v10.737h-2.175l-4.329-7.002v7.002H152.819
			z"/>
		<path style="fill:#FFFFFF;" d="M163.138,310.251c0-0.684,0.169-1.345,0.505-1.985c0.338-0.639,0.814-1.127,1.433-1.465
			c0.617-0.336,1.308-0.505,2.069-0.505c1.176,0,2.141,0.382,2.893,1.146c0.752,0.764,1.128,1.729,1.128,2.896
			c0,1.177-0.38,2.152-1.139,2.926c-0.76,0.774-1.716,1.161-2.868,1.161c-0.713,0-1.393-0.161-2.039-0.483
			c-0.647-0.322-1.139-0.795-1.477-1.417C163.307,311.903,163.138,311.145,163.138,310.251z M165.248,310.362
			c0,0.771,0.183,1.361,0.55,1.771c0.365,0.41,0.817,0.615,1.354,0.615s0.987-0.205,1.352-0.615c0.363-0.41,0.546-1.005,0.546-1.787
			c0-0.762-0.183-1.348-0.546-1.758c-0.364-0.41-0.814-0.615-1.352-0.615s-0.989,0.205-1.354,0.615
			C165.43,308.999,165.248,309.59,165.248,310.362z"/>
		<path style="fill:#FFFFFF;" d="M174.747,314.25h-2.059v-7.778h1.912v1.106c0.327-0.522,0.621-0.867,0.883-1.033
			c0.261-0.166,0.558-0.249,0.89-0.249c0.469,0,0.92,0.13,1.354,0.388l-0.637,1.795c-0.347-0.225-0.669-0.337-0.967-0.337
			c-0.288,0-0.532,0.079-0.732,0.238c-0.2,0.158-0.357,0.445-0.473,0.86c-0.114,0.415-0.172,1.284-0.172,2.607V314.25z"/>
		<path style="fill:#FFFFFF;" d="M182.181,306.472v1.641h-1.406v3.135c0,0.635,0.014,1.005,0.04,1.109
			c0.027,0.105,0.088,0.192,0.184,0.261c0.095,0.068,0.211,0.102,0.348,0.102c0.19,0,0.466-0.065,0.828-0.197l0.176,1.597
			c-0.479,0.205-1.021,0.308-1.627,0.308c-0.371,0-0.705-0.062-1.003-0.187c-0.298-0.125-0.517-0.286-0.655-0.483
			c-0.14-0.198-0.236-0.465-0.289-0.803c-0.045-0.238-0.066-0.722-0.066-1.449v-3.392h-0.945v-1.641h0.945v-1.546l2.065-1.201v2.747
			H182.181z"/>
		<path style="fill:#FFFFFF;" d="M185.66,303.513v3.948c0.664-0.777,1.458-1.165,2.381-1.165c0.474,0,0.9,0.088,1.281,0.264
			s0.668,0.4,0.861,0.674c0.192,0.273,0.324,0.576,0.396,0.908c0.07,0.332,0.106,0.848,0.106,1.546v4.562h-2.059v-4.109
			c0-0.814-0.039-1.332-0.117-1.553c-0.078-0.219-0.216-0.394-0.414-0.523c-0.197-0.129-0.445-0.193-0.743-0.193
			c-0.342,0-0.647,0.083-0.915,0.248c-0.27,0.167-0.466,0.417-0.59,0.751c-0.125,0.335-0.188,0.829-0.188,1.483v3.896h-2.058
			v-10.737H185.66z"/>
		<path style="fill:#FFFFFF;" d="M152.856,330.25v-10.649h2.168v8.841h5.391v1.809H152.856z"/>
		<path style="fill:#FFFFFF;" d="M163.483,324.845l-1.868-0.337c0.21-0.752,0.571-1.309,1.084-1.67s1.274-0.542,2.285-0.542
			c0.918,0,1.602,0.108,2.051,0.326c0.449,0.217,0.766,0.493,0.948,0.827c0.184,0.335,0.275,0.949,0.275,1.842l-0.022,2.402
			c0,0.685,0.033,1.188,0.099,1.513c0.066,0.325,0.189,0.673,0.37,1.044h-2.036c-0.054-0.137-0.12-0.339-0.197-0.607
			c-0.035-0.122-0.059-0.203-0.074-0.242c-0.352,0.342-0.728,0.599-1.127,0.77c-0.401,0.17-0.828,0.256-1.282,0.256
			c-0.801,0-1.432-0.217-1.894-0.652c-0.461-0.434-0.691-0.983-0.691-1.647c0-0.439,0.104-0.831,0.314-1.176
			c0.21-0.344,0.504-0.607,0.883-0.791c0.378-0.183,0.924-0.343,1.637-0.479c0.962-0.181,1.628-0.349,2-0.506v-0.205
			c0-0.395-0.099-0.677-0.293-0.846c-0.196-0.168-0.564-0.252-1.106-0.252c-0.366,0-0.651,0.071-0.856,0.216
			C163.776,324.231,163.609,324.484,163.483,324.845z M166.237,326.515c-0.264,0.088-0.682,0.193-1.253,0.315
			s-0.944,0.241-1.12,0.358c-0.27,0.19-0.403,0.433-0.403,0.726c0,0.288,0.107,0.537,0.322,0.746
			c0.215,0.211,0.488,0.315,0.82,0.315c0.371,0,0.726-0.122,1.062-0.366c0.25-0.186,0.413-0.412,0.491-0.682
			c0.054-0.176,0.081-0.51,0.081-1.003V326.515z"/>
		<path style="fill:#FFFFFF;" d="M171.737,330.25l-2.461-7.778h1.999l1.458,5.098l1.34-5.098h1.984l1.297,5.098l1.486-5.098h2.029
			l-2.498,7.778h-1.977l-1.341-5.002l-1.318,5.002H171.737z"/>
		<path style="fill:#FFFFFF;" d="M189.03,330.25h-2.059v-3.97c0-0.84-0.044-1.383-0.132-1.63c-0.088-0.246-0.23-0.438-0.429-0.574
			c-0.197-0.137-0.436-0.205-0.714-0.205c-0.356,0-0.677,0.098-0.96,0.293s-0.477,0.453-0.582,0.775
			c-0.104,0.322-0.157,0.919-0.157,1.787v3.523h-2.058v-7.778h1.911v1.143c0.679-0.879,1.533-1.318,2.563-1.318
			c0.454,0,0.869,0.082,1.245,0.245c0.376,0.164,0.66,0.373,0.854,0.627c0.192,0.254,0.327,0.541,0.402,0.863
			c0.076,0.322,0.114,0.784,0.114,1.385V330.25z"/>
		<path style="fill:#FFFFFF;" d="M198.251,330.25h-1.912v-1.143c-0.317,0.444-0.692,0.775-1.124,0.992
			c-0.433,0.218-0.868,0.326-1.308,0.326c-0.894,0-1.659-0.36-2.296-1.08c-0.638-0.721-0.956-1.725-0.956-3.014
			c0-1.318,0.31-2.321,0.93-3.007c0.62-0.687,1.404-1.029,2.352-1.029c0.869,0,1.621,0.361,2.256,1.084v-3.867h2.059V330.25z
			 M192.756,326.193c0,0.83,0.115,1.431,0.345,1.802c0.332,0.537,0.796,0.806,1.392,0.806c0.474,0,0.876-0.201,1.209-0.604
			c0.331-0.402,0.498-1.004,0.498-1.805c0-0.895-0.162-1.537-0.484-1.931c-0.322-0.393-0.734-0.589-1.237-0.589
			c-0.488,0-0.897,0.193-1.227,0.582C192.921,324.841,192.756,325.421,192.756,326.193z"/>
		<path style="fill:#FFFFFF;" d="M201.817,324.845l-1.868-0.337c0.21-0.752,0.571-1.309,1.084-1.67s1.274-0.542,2.285-0.542
			c0.918,0,1.602,0.108,2.051,0.326c0.449,0.217,0.766,0.493,0.948,0.827c0.184,0.335,0.275,0.949,0.275,1.842l-0.022,2.402
			c0,0.685,0.033,1.188,0.099,1.513c0.066,0.325,0.189,0.673,0.37,1.044h-2.036c-0.054-0.137-0.12-0.339-0.197-0.607
			c-0.035-0.122-0.059-0.203-0.074-0.242c-0.352,0.342-0.728,0.599-1.127,0.77c-0.401,0.17-0.828,0.256-1.282,0.256
			c-0.801,0-1.432-0.217-1.894-0.652c-0.461-0.434-0.691-0.983-0.691-1.647c0-0.439,0.104-0.831,0.314-1.176
			c0.21-0.344,0.504-0.607,0.883-0.791c0.378-0.183,0.924-0.343,1.637-0.479c0.962-0.181,1.628-0.349,2-0.506v-0.205
			c0-0.395-0.099-0.677-0.293-0.846c-0.196-0.168-0.564-0.252-1.106-0.252c-0.366,0-0.651,0.071-0.856,0.216
			C202.11,324.231,201.943,324.484,201.817,324.845z M204.571,326.515c-0.264,0.088-0.682,0.193-1.253,0.315
			s-0.944,0.241-1.12,0.358c-0.27,0.19-0.403,0.433-0.403,0.726c0,0.288,0.107,0.537,0.322,0.746
			c0.215,0.211,0.488,0.315,0.82,0.315c0.371,0,0.726-0.122,1.062-0.366c0.25-0.186,0.413-0.412,0.491-0.682
			c0.054-0.176,0.081-0.51,0.081-1.003V326.515z"/>
		<path style="fill:#FFFFFF;" d="M208.62,330.25v-10.737h2.059v10.737H208.62z"/>
		<path style="fill:#FFFFFF;" d="M217.293,327.775l2.051,0.345c-0.264,0.752-0.68,1.324-1.249,1.717
			c-0.568,0.394-1.28,0.59-2.135,0.59c-1.353,0-2.354-0.441-3.003-1.326c-0.513-0.707-0.769-1.601-0.769-2.68
			c0-1.289,0.336-2.299,1.01-3.029c0.674-0.729,1.526-1.095,2.557-1.095c1.157,0,2.07,0.382,2.739,1.146
			c0.669,0.764,0.989,1.935,0.96,3.512h-5.156c0.014,0.61,0.18,1.085,0.498,1.425c0.316,0.339,0.712,0.509,1.186,0.509
			c0.322,0,0.594-0.088,0.813-0.264S217.18,328.166,217.293,327.775z M217.41,325.695c-0.015-0.596-0.169-1.049-0.462-1.358
			c-0.293-0.311-0.649-0.465-1.068-0.465c-0.45,0-0.82,0.163-1.113,0.49s-0.438,0.771-0.433,1.333H217.41z"/>
	</g>
</g>
<g>
	<polygon points="220.222,78.354 220.222,137.512 173.32,137.512 123.154,181.492 161.987,137.512 148.771,137.512 148.771,110.814 
		148.771,101.943 148.771,78.354 	"/>
	<g>
		<rect x="155.793" y="85.408" style="fill:none;" width="60.833" height="45.963"/>
		<path style="fill:#FFFFFF;" d="M156.884,96.148V85.411h7.961v1.816h-5.793v2.38h5.391v1.81h-5.391v2.923h5.998v1.809H156.884z"/>
		<path style="fill:#FFFFFF;" d="M168.413,90.743l-1.868-0.337c0.21-0.752,0.571-1.309,1.084-1.67s1.274-0.542,2.285-0.542
			c0.918,0,1.602,0.108,2.051,0.326c0.449,0.217,0.766,0.493,0.948,0.827c0.184,0.335,0.275,0.949,0.275,1.842l-0.022,2.402
			c0,0.685,0.033,1.188,0.099,1.513c0.066,0.325,0.189,0.673,0.37,1.044h-2.036c-0.054-0.137-0.12-0.339-0.197-0.607
			c-0.035-0.122-0.059-0.203-0.074-0.242c-0.352,0.342-0.728,0.599-1.127,0.77c-0.401,0.17-0.828,0.256-1.282,0.256
			c-0.801,0-1.432-0.217-1.894-0.652c-0.461-0.434-0.691-0.983-0.691-1.647c0-0.439,0.104-0.831,0.314-1.176
			c0.21-0.344,0.504-0.607,0.883-0.791c0.378-0.183,0.924-0.343,1.637-0.479c0.962-0.181,1.628-0.349,2-0.506v-0.205
			c0-0.395-0.099-0.677-0.293-0.846c-0.196-0.168-0.564-0.252-1.106-0.252c-0.366,0-0.651,0.071-0.856,0.216
			C168.706,90.128,168.539,90.381,168.413,90.743z M171.167,92.413c-0.264,0.088-0.682,0.193-1.253,0.315s-0.944,0.241-1.12,0.358
			c-0.27,0.19-0.403,0.433-0.403,0.726c0,0.288,0.107,0.537,0.322,0.746c0.215,0.211,0.488,0.315,0.82,0.315
			c0.371,0,0.726-0.122,1.062-0.366c0.25-0.186,0.413-0.412,0.491-0.682c0.054-0.176,0.081-0.51,0.081-1.003V92.413z"/>
		<path style="fill:#FFFFFF;" d="M174.492,93.929l2.065-0.315c0.088,0.4,0.266,0.704,0.534,0.912
			c0.269,0.207,0.645,0.312,1.129,0.312c0.531,0,0.932-0.098,1.201-0.293c0.18-0.137,0.271-0.32,0.271-0.55
			c0-0.156-0.049-0.286-0.146-0.388c-0.103-0.098-0.332-0.188-0.688-0.271c-1.66-0.366-2.713-0.7-3.156-1.004
			c-0.615-0.419-0.924-1.003-0.924-1.75c0-0.674,0.267-1.24,0.799-1.699s1.357-0.688,2.476-0.688c1.064,0,1.855,0.174,2.373,0.521
			s0.874,0.859,1.069,1.537l-1.941,0.359c-0.083-0.303-0.24-0.535-0.472-0.695c-0.232-0.162-0.563-0.242-0.993-0.242
			c-0.541,0-0.93,0.076-1.164,0.227c-0.156,0.108-0.234,0.247-0.234,0.418c0,0.146,0.068,0.271,0.205,0.373
			c0.186,0.138,0.826,0.33,1.923,0.579c1.096,0.249,1.861,0.555,2.296,0.915c0.43,0.367,0.645,0.877,0.645,1.531
			c0,0.713-0.298,1.326-0.894,1.838c-0.596,0.514-1.478,0.77-2.644,0.77c-1.061,0-1.898-0.215-2.517-0.645
			C175.087,95.25,174.682,94.667,174.492,93.929z"/>
		<path style="fill:#FFFFFF;" d="M187.126,88.37v1.641h-1.406v3.135c0,0.635,0.014,1.005,0.04,1.109
			c0.027,0.105,0.088,0.192,0.184,0.261c0.095,0.068,0.211,0.102,0.348,0.102c0.19,0,0.466-0.065,0.828-0.197l0.176,1.597
			c-0.479,0.205-1.021,0.308-1.627,0.308c-0.371,0-0.705-0.062-1.003-0.187c-0.298-0.125-0.517-0.286-0.655-0.483
			c-0.14-0.198-0.236-0.465-0.289-0.803c-0.045-0.238-0.066-0.722-0.066-1.449V90.01h-0.945V88.37h0.945v-1.546l2.065-1.201v2.747
			H187.126z"/>
		<path style="fill:#FFFFFF;" d="M161.878,108.201v-1.81h4.674v4.277c-0.455,0.439-1.112,0.826-1.975,1.161
			c-0.861,0.334-1.734,0.502-2.618,0.502c-1.123,0-2.103-0.236-2.937-0.707c-0.836-0.472-1.463-1.146-1.883-2.021
			c-0.42-0.877-0.63-1.83-0.63-2.86c0-1.118,0.234-2.111,0.703-2.981c0.469-0.868,1.154-1.535,2.058-1.999
			c0.689-0.356,1.546-0.534,2.571-0.534c1.333,0,2.374,0.279,3.124,0.838c0.749,0.56,1.231,1.332,1.446,2.318l-2.153,0.402
			c-0.151-0.527-0.436-0.943-0.854-1.248c-0.417-0.306-0.938-0.458-1.563-0.458c-0.947,0-1.7,0.3-2.26,0.901
			c-0.559,0.6-0.839,1.491-0.839,2.673c0,1.274,0.283,2.23,0.85,2.867c0.566,0.638,1.309,0.956,2.227,0.956
			c0.455,0,0.91-0.089,1.366-0.268c0.457-0.178,0.849-0.394,1.176-0.648v-1.361H161.878z"/>
		<path style="fill:#FFFFFF;" d="M170.076,106.743l-1.868-0.337c0.21-0.752,0.571-1.309,1.084-1.67s1.274-0.542,2.285-0.542
			c0.918,0,1.602,0.108,2.051,0.326c0.449,0.217,0.766,0.493,0.948,0.827c0.184,0.335,0.275,0.949,0.275,1.842l-0.022,2.402
			c0,0.685,0.033,1.188,0.099,1.513c0.066,0.325,0.189,0.673,0.37,1.044h-2.036c-0.054-0.137-0.12-0.339-0.197-0.607
			c-0.035-0.122-0.059-0.203-0.074-0.242c-0.352,0.342-0.728,0.599-1.127,0.77c-0.401,0.17-0.828,0.256-1.282,0.256
			c-0.801,0-1.432-0.217-1.894-0.652c-0.461-0.434-0.691-0.983-0.691-1.647c0-0.439,0.104-0.831,0.314-1.176
			c0.21-0.344,0.504-0.607,0.883-0.791c0.378-0.183,0.924-0.343,1.637-0.479c0.962-0.181,1.628-0.349,2-0.506v-0.205
			c0-0.395-0.099-0.677-0.293-0.846c-0.196-0.168-0.564-0.252-1.106-0.252c-0.366,0-0.651,0.071-0.856,0.216
			C170.369,106.128,170.202,106.381,170.076,106.743z M172.83,108.413c-0.264,0.088-0.682,0.193-1.253,0.315
			s-0.944,0.241-1.12,0.358c-0.27,0.19-0.403,0.433-0.403,0.726c0,0.288,0.107,0.537,0.322,0.746
			c0.215,0.211,0.488,0.315,0.82,0.315c0.371,0,0.726-0.122,1.062-0.366c0.25-0.186,0.413-0.412,0.491-0.682
			c0.054-0.176,0.081-0.51,0.081-1.003V108.413z"/>
		<path style="fill:#FFFFFF;" d="M178.849,112.148h-2.059v-7.778h1.912v1.106c0.327-0.522,0.621-0.867,0.883-1.033
			c0.261-0.166,0.558-0.249,0.89-0.249c0.469,0,0.92,0.13,1.354,0.388l-0.637,1.795c-0.347-0.225-0.669-0.337-0.967-0.337
			c-0.288,0-0.532,0.079-0.732,0.238c-0.2,0.158-0.357,0.445-0.473,0.86c-0.114,0.415-0.172,1.284-0.172,2.607V112.148z"/>
		<path style="fill:#FFFFFF;" d="M181.816,104.37h1.143v-0.586c0-0.654,0.069-1.143,0.209-1.465
			c0.139-0.322,0.396-0.585,0.769-0.787c0.374-0.203,0.847-0.304,1.417-0.304c0.586,0,1.16,0.088,1.722,0.264l-0.278,1.436
			c-0.327-0.078-0.643-0.117-0.945-0.117c-0.298,0-0.511,0.069-0.641,0.208c-0.129,0.14-0.193,0.407-0.193,0.802v0.55h1.537v1.618
			h-1.537v6.16h-2.059v-6.16h-1.143V104.37z"/>
		<path style="fill:#FFFFFF;" d="M187.712,103.315v-1.904h2.059v1.904H187.712z M187.712,112.148v-7.778h2.059v7.778H187.712z"/>
		<path style="fill:#FFFFFF;" d="M196.383,109.672l2.051,0.345c-0.264,0.752-0.68,1.324-1.249,1.717
			c-0.568,0.394-1.28,0.59-2.135,0.59c-1.353,0-2.354-0.441-3.003-1.326c-0.513-0.707-0.769-1.601-0.769-2.68
			c0-1.289,0.336-2.299,1.01-3.029c0.674-0.729,1.526-1.095,2.557-1.095c1.157,0,2.07,0.382,2.739,1.146
			c0.669,0.764,0.989,1.935,0.96,3.512h-5.156c0.014,0.61,0.18,1.085,0.498,1.425c0.316,0.339,0.712,0.509,1.186,0.509
			c0.322,0,0.594-0.088,0.813-0.264S196.271,110.063,196.383,109.672z M196.501,107.592c-0.015-0.596-0.169-1.049-0.462-1.358
			c-0.293-0.311-0.649-0.465-1.068-0.465c-0.45,0-0.82,0.163-1.113,0.49s-0.438,0.771-0.433,1.333H196.501z"/>
		<path style="fill:#FFFFFF;" d="M200.22,112.148v-10.737h2.059v10.737H200.22z"/>
		<path style="fill:#FFFFFF;" d="M211.523,112.148h-1.912v-1.143c-0.317,0.444-0.692,0.775-1.124,0.992
			c-0.433,0.218-0.868,0.326-1.308,0.326c-0.894,0-1.659-0.36-2.296-1.08c-0.638-0.721-0.956-1.725-0.956-3.014
			c0-1.318,0.31-2.321,0.93-3.007c0.62-0.687,1.404-1.029,2.352-1.029c0.869,0,1.621,0.361,2.256,1.084v-3.867h2.059V112.148z
			 M206.029,108.09c0,0.83,0.115,1.431,0.345,1.802c0.332,0.537,0.796,0.806,1.392,0.806c0.474,0,0.876-0.201,1.209-0.604
			c0.331-0.402,0.498-1.004,0.498-1.805c0-0.895-0.162-1.537-0.484-1.931c-0.322-0.393-0.734-0.589-1.237-0.589
			c-0.488,0-0.897,0.193-1.227,0.582C206.194,106.739,206.029,107.319,206.029,108.09z"/>
		<path style="fill:#FFFFFF;" d="M156.884,128.148v-10.737h3.479c1.318,0,2.178,0.054,2.578,0.161
			c0.615,0.161,1.13,0.512,1.545,1.051c0.415,0.54,0.623,1.237,0.623,2.092c0,0.658-0.12,1.213-0.359,1.662
			s-0.543,0.802-0.911,1.059c-0.369,0.256-0.743,0.426-1.124,0.509c-0.519,0.103-1.268,0.153-2.249,0.153h-1.413v4.051H156.884z
			 M159.052,119.227v3.047h1.186c0.854,0,1.426-0.056,1.715-0.169c0.287-0.111,0.514-0.287,0.677-0.527
			c0.164-0.238,0.245-0.517,0.245-0.834c0-0.391-0.114-0.713-0.344-0.967s-0.52-0.413-0.871-0.477
			c-0.26-0.049-0.779-0.073-1.561-0.073H159.052z"/>
		<path style="fill:#FFFFFF;" d="M168.413,122.743l-1.868-0.337c0.21-0.752,0.571-1.309,1.084-1.67s1.274-0.542,2.285-0.542
			c0.918,0,1.602,0.108,2.051,0.326c0.449,0.217,0.766,0.493,0.948,0.827c0.184,0.335,0.275,0.949,0.275,1.842l-0.022,2.402
			c0,0.685,0.033,1.188,0.099,1.513c0.066,0.325,0.189,0.673,0.37,1.044h-2.036c-0.054-0.137-0.12-0.339-0.197-0.607
			c-0.035-0.122-0.059-0.203-0.074-0.242c-0.352,0.342-0.728,0.599-1.127,0.77c-0.401,0.17-0.828,0.256-1.282,0.256
			c-0.801,0-1.432-0.217-1.894-0.652c-0.461-0.434-0.691-0.983-0.691-1.647c0-0.439,0.104-0.831,0.314-1.176
			c0.21-0.344,0.504-0.607,0.883-0.791c0.378-0.183,0.924-0.343,1.637-0.479c0.962-0.181,1.628-0.349,2-0.506v-0.205
			c0-0.395-0.099-0.677-0.293-0.846c-0.196-0.168-0.564-0.252-1.106-0.252c-0.366,0-0.651,0.071-0.856,0.216
			C168.706,122.128,168.539,122.381,168.413,122.743z M171.167,124.413c-0.264,0.088-0.682,0.193-1.253,0.315
			s-0.944,0.241-1.12,0.358c-0.27,0.19-0.403,0.433-0.403,0.726c0,0.288,0.107,0.537,0.322,0.746
			c0.215,0.211,0.488,0.315,0.82,0.315c0.371,0,0.726-0.122,1.062-0.366c0.25-0.186,0.413-0.412,0.491-0.682
			c0.054-0.176,0.081-0.51,0.081-1.003V124.413z"/>
		<path style="fill:#FFFFFF;" d="M177.187,128.148h-2.059v-7.778h1.912v1.106c0.327-0.522,0.621-0.867,0.883-1.033
			c0.261-0.166,0.558-0.249,0.89-0.249c0.469,0,0.92,0.13,1.354,0.388l-0.637,1.795c-0.347-0.225-0.669-0.337-0.967-0.337
			c-0.288,0-0.532,0.079-0.732,0.238c-0.2,0.158-0.357,0.445-0.473,0.86c-0.114,0.415-0.172,1.284-0.172,2.607V128.148z"/>
		<path style="fill:#FFFFFF;" d="M180.982,128.148v-10.737h2.058v5.698l2.409-2.739h2.535l-2.659,2.842l2.849,4.937h-2.219
			L184,124.654l-0.96,1.004v2.49H180.982z"/>
	</g>
</g>
</svg>
