<?xml version="1.0" encoding="utf-8"?>
<!-- Generator: Adobe Illustrator 22.0.1, SVG Export Plug-In . SVG Version: 6.00 Build 0)  -->
<svg version="1.1" id="lawndale" xmlns="http://www.w3.org/2000/svg" xmlns:xlink="http://www.w3.org/1999/xlink" x="0px" y="0px"
	 viewBox="0 0 610 622" style="enable-background:new 0 0 610 622;" xml:space="preserve">
<g style="opacity:0.75;">
	<g id="Chicago_x5F_Community_x5F_Areas_selection_2_">
		<polygon style="fill:#C11B17;stroke:#000000;stroke-width:1.9;stroke-miterlimit:10;" points="264.31,133.972 264.31,136.815 
			263.793,140.175 266.119,139.658 266.119,142.501 266.119,145.602 266.377,148.445 266.377,151.546 266.377,154.131 
			266.119,156.198 266.636,156.973 266.636,158.007 266.377,159.299 266.377,159.816 266.636,161.108 266.636,163.434 
			266.636,166.277 266.636,169.12 266.894,171.963 267.153,175.323 267.153,177.907 261.725,178.424 258.365,178.166 
			255.78,178.682 249.835,178.682 243.631,178.424 237.945,178.682 232.259,178.682 232.517,175.84 226.314,175.84 220.369,175.84 
			214.424,176.356 208.737,176.356 202.792,176.356 199.432,176.356 198.14,176.356 197.364,176.356 197.364,173.514 
			197.364,170.671 197.106,167.828 196.847,164.985 197.106,163.176 196.847,161.625 196.589,159.816 196.33,158.783 
			196.589,157.49 196.589,156.198 196.589,153.355 196.072,151.029 196.072,147.67 196.072,145.602 195.813,144.31 195.813,141.467 
			195.813,137.59 195.555,134.489 195.555,130.871 195.555,127.511 195.296,122.084 195.296,119.758 195.296,118.207 
			198.14,118.207 200.983,118.466 203.568,118.207 205.635,118.207 209.513,117.691 210.03,117.691 212.614,117.691 
			218.559,117.691 224.246,117.432 227.347,117.174 230.449,117.174 233.551,117.174 236.136,117.432 240.788,117.432 
			242.339,117.432 247.767,117.174 253.712,117.174 258.623,118.466 266.119,117.949 275.166,117.949 268.704,118.983 
			266.894,120.275 265.602,122.342 265.86,124.152 265.86,129.062 264.051,129.062 264.051,131.646 		"/>
		<polygon style="fill:#C11B17;stroke:#000000;stroke-width:1.9;stroke-miterlimit:10;" points="233.809,228.303 230.708,228.303 
			227.864,229.078 225.021,228.82 222.178,228.82 219.335,228.82 219.852,232.955 217.008,233.989 214.165,233.989 213.39,233.989 
			210.03,233.989 207.703,233.989 204.86,234.247 202.017,233.989 199.173,234.506 196.072,234.506 193.487,234.506 
			193.487,241.742 189.868,243.551 187.284,244.326 182.631,245.36 179.012,246.394 175.652,247.428 171.775,248.461 
			169.19,249.237 168.673,250.012 166.605,250.27 164.538,250.787 161.177,252.079 153.423,255.181 153.165,252.855 
			152.389,243.292 152.131,238.899 152.131,235.281 151.872,233.472 151.872,232.696 151.614,229.854 151.355,227.011 
			151.355,224.426 151.097,212.538 150.838,208.403 151.097,206.852 151.097,201.684 151.097,197.807 151.355,197.29 
			151.097,195.223 150.58,192.121 150.58,190.312 150.58,189.278 149.804,181.525 150.063,179.716 152.906,178.682 155.749,177.907 
			156.525,177.39 158.851,176.356 161.953,175.064 167.898,172.738 167.898,176.098 168.156,179.199 174.101,178.941 
			179.788,178.682 185.991,178.682 185.733,180.75 191.419,180.75 197.364,181.008 197.364,178.941 197.364,176.356 198.14,176.356 
			199.432,176.356 202.792,176.356 208.737,176.356 214.424,176.356 220.369,175.84 226.314,175.84 232.517,175.84 232.259,178.682 
			237.945,178.682 243.631,178.424 249.835,178.682 255.78,178.682 258.365,178.166 261.725,178.424 267.153,177.907 267.67,180.75 
			268.445,185.402 269.479,187.469 268.445,187.469 273.356,196.256 274.132,204.01 275.166,210.212 274.907,210.729 
			274.907,216.415 274.39,217.707 267.411,219.774 259.916,222.359 256.814,223.134 256.814,222.1 248.026,222.617 239.237,222.617 
			239.237,225.202 239.496,227.011 239.237,228.045 236.394,228.561 		"/>
	</g>
</g>
<g>
	<polygon points="178.506,324.649 93.601,324.649 93.601,278.483 135.12,278.483 170.654,223.659 145.547,278.483 178.506,278.483 	
		"/>
	<g>
		<rect x="99.47" y="286.543" style="fill:none;" width="73.683" height="29.796"/>
		<path style="fill:#FFFFFF;" d="M100.658,297.999v-11.453h2.25l4.688,7.648v-7.648h2.148v11.453h-2.32l-4.617-7.469v7.469H100.658z
			"/>
		<path style="fill:#FFFFFF;" d="M111.666,293.733c0-0.729,0.18-1.435,0.539-2.117s0.868-1.203,1.527-1.562s1.395-0.539,2.207-0.539
			c1.255,0,2.284,0.407,3.086,1.223s1.203,1.845,1.203,3.09c0,1.255-0.405,2.296-1.215,3.121s-1.829,1.238-3.059,1.238
			c-0.761,0-1.485-0.172-2.176-0.516s-1.215-0.848-1.574-1.512S111.666,294.686,111.666,293.733z M113.916,293.85
			c0,0.823,0.195,1.453,0.586,1.891s0.872,0.656,1.445,0.656s1.054-0.219,1.441-0.656s0.582-1.073,0.582-1.906
			c0-0.812-0.194-1.438-0.582-1.875s-0.868-0.656-1.441-0.656s-1.055,0.219-1.445,0.656S113.916,293.027,113.916,293.85z"/>
		<path style="fill:#FFFFFF;" d="M124.048,297.999h-2.195v-8.297h2.039v1.18c0.349-0.558,0.663-0.925,0.941-1.102
			s0.595-0.266,0.949-0.266c0.5,0,0.981,0.138,1.445,0.414l-0.68,1.914c-0.37-0.239-0.714-0.359-1.031-0.359
			c-0.308,0-0.567,0.085-0.781,0.254s-0.382,0.476-0.504,0.918s-0.184,1.37-0.184,2.781V297.999z"/>
		<path style="fill:#FFFFFF;" d="M131.978,289.702v1.75h-1.5v3.344c0,0.677,0.015,1.071,0.043,1.184s0.094,0.204,0.195,0.277
			s0.226,0.109,0.371,0.109c0.203,0,0.497-0.07,0.883-0.211l0.188,1.703c-0.511,0.219-1.089,0.328-1.734,0.328
			c-0.396,0-0.753-0.066-1.07-0.199s-0.551-0.305-0.699-0.516s-0.251-0.496-0.309-0.855c-0.047-0.255-0.07-0.771-0.07-1.547v-3.617
			h-1.008v-1.75h1.008v-1.648l2.203-1.281v2.93H131.978z"/>
		<path style="fill:#FFFFFF;" d="M135.689,286.545v4.211c0.708-0.828,1.555-1.242,2.539-1.242c0.505,0,0.961,0.094,1.367,0.281
			s0.712,0.427,0.918,0.719s0.347,0.614,0.422,0.969s0.113,0.903,0.113,1.648v4.867h-2.195v-4.383c0-0.87-0.042-1.422-0.125-1.656
			s-0.23-0.421-0.441-0.559s-0.476-0.207-0.793-0.207c-0.364,0-0.69,0.089-0.977,0.266s-0.496,0.444-0.629,0.801
			s-0.199,0.884-0.199,1.582v4.156h-2.195v-11.453H135.689z"/>
		<path style="fill:#FFFFFF;" d="M100.697,315.999v-11.359h2.312v9.43h5.75v1.93H100.697z"/>
		<path style="fill:#FFFFFF;" d="M112.033,310.233l-1.992-0.359c0.224-0.802,0.609-1.396,1.156-1.781s1.359-0.578,2.438-0.578
			c0.979,0,1.708,0.116,2.188,0.348s0.816,0.526,1.012,0.883s0.293,1.012,0.293,1.965l-0.023,2.562c0,0.729,0.035,1.267,0.105,1.613
			s0.202,0.718,0.395,1.113h-2.172c-0.058-0.146-0.128-0.362-0.211-0.648c-0.036-0.13-0.062-0.216-0.078-0.258
			c-0.375,0.364-0.776,0.638-1.203,0.82s-0.883,0.273-1.367,0.273c-0.854,0-1.527-0.231-2.02-0.695s-0.738-1.05-0.738-1.758
			c0-0.469,0.112-0.887,0.336-1.254s0.538-0.648,0.941-0.844s0.985-0.366,1.746-0.512c1.026-0.192,1.737-0.372,2.133-0.539v-0.219
			c0-0.422-0.104-0.723-0.312-0.902s-0.602-0.27-1.18-0.27c-0.391,0-0.695,0.077-0.914,0.23S112.169,309.847,112.033,310.233z
			 M114.97,312.014c-0.281,0.094-0.727,0.206-1.336,0.336s-1.008,0.258-1.195,0.383c-0.286,0.203-0.43,0.461-0.43,0.773
			c0,0.308,0.114,0.573,0.344,0.797s0.521,0.336,0.875,0.336c0.396,0,0.773-0.13,1.133-0.391c0.266-0.198,0.44-0.44,0.523-0.727
			c0.058-0.188,0.086-0.544,0.086-1.07V312.014z"/>
		<path style="fill:#FFFFFF;" d="M120.837,315.999l-2.625-8.297h2.133l1.555,5.438l1.43-5.438h2.117l1.383,5.438l1.586-5.438h2.164
			l-2.664,8.297h-2.109l-1.43-5.336l-1.406,5.336H120.837z"/>
		<path style="fill:#FFFFFF;" d="M139.283,315.999h-2.195v-4.234c0-0.896-0.047-1.476-0.141-1.738s-0.246-0.468-0.457-0.613
			s-0.465-0.219-0.762-0.219c-0.38,0-0.722,0.104-1.023,0.312s-0.509,0.484-0.621,0.828s-0.168,0.979-0.168,1.906v3.758h-2.195
			v-8.297h2.039v1.219c0.724-0.938,1.636-1.406,2.734-1.406c0.484,0,0.927,0.087,1.328,0.262s0.704,0.397,0.91,0.668
			s0.349,0.578,0.43,0.922s0.121,0.836,0.121,1.477V315.999z"/>
		<path style="fill:#FFFFFF;" d="M149.119,315.999h-2.039v-1.219c-0.339,0.474-0.738,0.827-1.199,1.059s-0.926,0.348-1.395,0.348
			c-0.953,0-1.77-0.384-2.449-1.152s-1.02-1.84-1.02-3.215c0-1.406,0.331-2.476,0.992-3.207s1.497-1.098,2.508-1.098
			c0.927,0,1.729,0.386,2.406,1.156v-4.125h2.195V315.999z M143.259,311.67c0,0.886,0.122,1.526,0.367,1.922
			c0.354,0.573,0.849,0.859,1.484,0.859c0.505,0,0.935-0.215,1.289-0.645s0.531-1.071,0.531-1.926c0-0.953-0.172-1.64-0.516-2.059
			s-0.784-0.629-1.32-0.629c-0.521,0-0.957,0.207-1.309,0.621S143.259,310.847,143.259,311.67z"/>
		<path style="fill:#FFFFFF;" d="M152.923,310.233l-1.992-0.359c0.224-0.802,0.609-1.396,1.156-1.781s1.359-0.578,2.438-0.578
			c0.979,0,1.708,0.116,2.188,0.348s0.816,0.526,1.012,0.883s0.293,1.012,0.293,1.965l-0.023,2.562c0,0.729,0.035,1.267,0.105,1.613
			s0.202,0.718,0.395,1.113h-2.172c-0.058-0.146-0.128-0.362-0.211-0.648c-0.036-0.13-0.062-0.216-0.078-0.258
			c-0.375,0.364-0.776,0.638-1.203,0.82s-0.883,0.273-1.367,0.273c-0.854,0-1.527-0.231-2.02-0.695s-0.738-1.05-0.738-1.758
			c0-0.469,0.112-0.887,0.336-1.254s0.538-0.648,0.941-0.844s0.985-0.366,1.746-0.512c1.026-0.192,1.737-0.372,2.133-0.539v-0.219
			c0-0.422-0.104-0.723-0.312-0.902s-0.602-0.27-1.18-0.27c-0.391,0-0.695,0.077-0.914,0.23S153.059,309.847,152.923,310.233z
			 M155.861,312.014c-0.281,0.094-0.727,0.206-1.336,0.336s-1.008,0.258-1.195,0.383c-0.286,0.203-0.43,0.461-0.43,0.773
			c0,0.308,0.114,0.573,0.344,0.797s0.521,0.336,0.875,0.336c0.396,0,0.773-0.13,1.133-0.391c0.266-0.198,0.44-0.44,0.523-0.727
			c0.058-0.188,0.086-0.544,0.086-1.07V312.014z"/>
		<path style="fill:#FFFFFF;" d="M160.181,315.999v-11.453h2.195v11.453H160.181z"/>
		<path style="fill:#FFFFFF;" d="M169.431,313.358l2.188,0.367c-0.281,0.802-0.726,1.413-1.332,1.832s-1.366,0.629-2.277,0.629
			c-1.442,0-2.511-0.472-3.203-1.414c-0.547-0.755-0.82-1.708-0.82-2.859c0-1.375,0.359-2.452,1.078-3.23s1.628-1.168,2.727-1.168
			c1.234,0,2.208,0.407,2.922,1.223s1.055,2.063,1.023,3.746h-5.5c0.016,0.651,0.192,1.157,0.531,1.52s0.761,0.543,1.266,0.543
			c0.344,0,0.633-0.094,0.867-0.281S169.311,313.775,169.431,313.358z M169.556,311.139c-0.016-0.636-0.18-1.118-0.492-1.449
			s-0.692-0.496-1.141-0.496c-0.479,0-0.875,0.175-1.188,0.523s-0.466,0.823-0.461,1.422H169.556z"/>
	</g>
</g>
<g>
	<polygon points="384.676,76.254 384.676,141.67 308.926,141.67 308.926,114.405 239.581,127.608 308.926,103.978 308.926,76.254 	
		"/>
	<g>
		<rect x="316.005" y="83.958" style="fill:none;" width="71.498" height="54.021"/>
		<path style="fill:#FFFFFF;" d="M317.169,95.414V83.96h8.492v1.938h-6.18v2.539h5.75v1.93h-5.75v3.117h6.398v1.93H317.169z"/>
		<path style="fill:#FFFFFF;" d="M329.465,89.648l-1.992-0.359c0.224-0.802,0.609-1.396,1.156-1.781s1.359-0.578,2.438-0.578
			c0.979,0,1.708,0.116,2.188,0.348s0.816,0.526,1.012,0.883s0.293,1.012,0.293,1.965l-0.023,2.562c0,0.729,0.035,1.267,0.105,1.613
			s0.202,0.718,0.395,1.113h-2.172c-0.058-0.146-0.128-0.362-0.211-0.648c-0.036-0.13-0.062-0.216-0.078-0.258
			c-0.375,0.364-0.776,0.638-1.203,0.82s-0.883,0.273-1.367,0.273c-0.854,0-1.527-0.231-2.02-0.695s-0.738-1.05-0.738-1.758
			c0-0.469,0.112-0.887,0.336-1.254s0.538-0.648,0.941-0.844s0.985-0.366,1.746-0.512c1.026-0.192,1.737-0.372,2.133-0.539v-0.219
			c0-0.422-0.104-0.723-0.312-0.902s-0.602-0.27-1.18-0.27c-0.391,0-0.695,0.077-0.914,0.23S329.601,89.262,329.465,89.648z
			 M332.403,91.429c-0.281,0.094-0.727,0.206-1.336,0.336s-1.008,0.258-1.195,0.383c-0.286,0.203-0.43,0.461-0.43,0.773
			c0,0.308,0.114,0.573,0.344,0.797s0.521,0.336,0.875,0.336c0.396,0,0.773-0.13,1.133-0.391c0.266-0.198,0.44-0.44,0.523-0.727
			c0.058-0.188,0.086-0.544,0.086-1.07V91.429z"/>
		<path style="fill:#FFFFFF;" d="M335.95,93.046l2.203-0.336c0.094,0.427,0.284,0.751,0.57,0.973s0.688,0.332,1.203,0.332
			c0.567,0,0.995-0.104,1.281-0.312c0.192-0.146,0.289-0.341,0.289-0.586c0-0.167-0.052-0.305-0.156-0.414
			c-0.109-0.104-0.354-0.2-0.734-0.289c-1.771-0.391-2.894-0.747-3.367-1.07c-0.656-0.448-0.984-1.07-0.984-1.867
			c0-0.719,0.284-1.323,0.852-1.812s1.448-0.734,2.641-0.734c1.136,0,1.979,0.185,2.531,0.555s0.933,0.917,1.141,1.641l-2.07,0.383
			c-0.089-0.323-0.257-0.57-0.504-0.742s-0.601-0.258-1.059-0.258c-0.578,0-0.992,0.081-1.242,0.242
			c-0.167,0.114-0.25,0.263-0.25,0.445c0,0.156,0.073,0.289,0.219,0.398c0.198,0.146,0.882,0.352,2.051,0.617
			s1.985,0.591,2.449,0.977c0.458,0.391,0.688,0.935,0.688,1.633c0,0.761-0.317,1.414-0.953,1.961s-1.575,0.82-2.82,0.82
			c-1.13,0-2.024-0.229-2.684-0.688S336.153,93.833,335.95,93.046z"/>
		<path style="fill:#FFFFFF;" d="M349.426,87.117v1.75h-1.5v3.344c0,0.677,0.015,1.071,0.043,1.184s0.094,0.204,0.195,0.277
			s0.226,0.109,0.371,0.109c0.203,0,0.497-0.07,0.883-0.211l0.188,1.703c-0.511,0.219-1.089,0.328-1.734,0.328
			c-0.396,0-0.753-0.066-1.07-0.199s-0.551-0.305-0.699-0.516s-0.251-0.496-0.309-0.855c-0.047-0.255-0.07-0.771-0.07-1.547v-3.617
			h-1.008v-1.75h1.008v-1.648l2.203-1.281v2.93H349.426z"/>
		<path style="fill:#FFFFFF;" d="M322.497,109.203v-1.93h4.984v4.562c-0.484,0.469-1.187,0.882-2.105,1.238
			s-1.851,0.535-2.793,0.535c-1.198,0-2.242-0.251-3.133-0.754s-1.56-1.222-2.008-2.156s-0.672-1.952-0.672-3.051
			c0-1.192,0.25-2.253,0.75-3.18s1.231-1.638,2.195-2.133c0.734-0.38,1.648-0.57,2.742-0.57c1.422,0,2.532,0.298,3.332,0.895
			s1.313,1.421,1.543,2.473l-2.297,0.43c-0.161-0.562-0.465-1.007-0.91-1.332s-1.001-0.488-1.668-0.488
			c-1.011,0-1.813,0.32-2.41,0.961s-0.895,1.591-0.895,2.852c0,1.359,0.302,2.379,0.906,3.059s1.396,1.02,2.375,1.02
			c0.484,0,0.97-0.095,1.457-0.285s0.905-0.421,1.254-0.691v-1.453H322.497z"/>
		<path style="fill:#FFFFFF;" d="M331.239,107.648l-1.992-0.359c0.224-0.802,0.609-1.396,1.156-1.781s1.359-0.578,2.438-0.578
			c0.979,0,1.708,0.116,2.188,0.348s0.816,0.526,1.012,0.883s0.293,1.012,0.293,1.965l-0.023,2.562c0,0.729,0.035,1.267,0.105,1.613
			s0.202,0.718,0.395,1.113h-2.172c-0.058-0.146-0.128-0.362-0.211-0.648c-0.036-0.13-0.062-0.216-0.078-0.258
			c-0.375,0.364-0.776,0.638-1.203,0.82s-0.883,0.273-1.367,0.273c-0.854,0-1.527-0.231-2.02-0.695s-0.738-1.05-0.738-1.758
			c0-0.469,0.112-0.887,0.336-1.254s0.538-0.648,0.941-0.844s0.985-0.366,1.746-0.512c1.026-0.192,1.737-0.372,2.133-0.539v-0.219
			c0-0.422-0.104-0.723-0.312-0.902s-0.602-0.27-1.18-0.27c-0.391,0-0.695,0.077-0.914,0.23S331.375,107.262,331.239,107.648z
			 M334.176,109.429c-0.281,0.094-0.727,0.206-1.336,0.336s-1.008,0.258-1.195,0.383c-0.286,0.203-0.43,0.461-0.43,0.773
			c0,0.308,0.114,0.573,0.344,0.797s0.521,0.336,0.875,0.336c0.396,0,0.773-0.13,1.133-0.391c0.266-0.198,0.44-0.44,0.523-0.727
			c0.058-0.188,0.086-0.544,0.086-1.07V109.429z"/>
		<path style="fill:#FFFFFF;" d="M340.598,113.414h-2.195v-8.297h2.039v1.18c0.349-0.558,0.663-0.925,0.941-1.102
			s0.595-0.266,0.949-0.266c0.5,0,0.981,0.138,1.445,0.414l-0.68,1.914c-0.37-0.239-0.714-0.359-1.031-0.359
			c-0.308,0-0.567,0.085-0.781,0.254s-0.382,0.476-0.504,0.918s-0.184,1.37-0.184,2.781V113.414z"/>
		<path style="fill:#FFFFFF;" d="M343.762,105.117h1.219v-0.625c0-0.698,0.074-1.219,0.223-1.562s0.422-0.624,0.82-0.84
			s0.902-0.324,1.512-0.324c0.625,0,1.237,0.094,1.836,0.281l-0.297,1.531c-0.349-0.083-0.685-0.125-1.008-0.125
			c-0.317,0-0.546,0.074-0.684,0.223s-0.207,0.434-0.207,0.855v0.586h1.641v1.727h-1.641v6.57h-2.195v-6.57h-1.219V105.117z"/>
		<path style="fill:#FFFFFF;" d="M350.051,103.992v-2.031h2.195v2.031H350.051z M350.051,113.414v-8.297h2.195v8.297H350.051z"/>
		<path style="fill:#FFFFFF;" d="M359.301,110.773l2.188,0.367c-0.281,0.802-0.726,1.413-1.332,1.832s-1.366,0.629-2.277,0.629
			c-1.442,0-2.511-0.472-3.203-1.414c-0.547-0.755-0.82-1.708-0.82-2.859c0-1.375,0.359-2.452,1.078-3.23s1.628-1.168,2.727-1.168
			c1.234,0,2.208,0.407,2.922,1.223s1.055,2.063,1.023,3.746h-5.5c0.016,0.651,0.192,1.157,0.531,1.52s0.761,0.543,1.266,0.543
			c0.344,0,0.633-0.094,0.867-0.281S359.181,111.19,359.301,110.773z M359.426,108.554c-0.016-0.636-0.18-1.118-0.492-1.449
			s-0.692-0.496-1.141-0.496c-0.479,0-0.875,0.175-1.188,0.523s-0.466,0.823-0.461,1.422H359.426z"/>
		<path style="fill:#FFFFFF;" d="M363.395,113.414V101.96h2.195v11.453H363.395z"/>
		<path style="fill:#FFFFFF;" d="M375.45,113.414h-2.039v-1.219c-0.339,0.474-0.738,0.827-1.199,1.059s-0.926,0.348-1.395,0.348
			c-0.953,0-1.77-0.384-2.449-1.152s-1.02-1.84-1.02-3.215c0-1.406,0.331-2.476,0.992-3.207s1.497-1.098,2.508-1.098
			c0.927,0,1.729,0.386,2.406,1.156v-4.125h2.195V113.414z M369.59,109.085c0,0.886,0.122,1.526,0.367,1.922
			c0.354,0.573,0.849,0.859,1.484,0.859c0.505,0,0.935-0.215,1.289-0.645s0.531-1.071,0.531-1.926c0-0.953-0.172-1.64-0.516-2.059
			s-0.784-0.629-1.32-0.629c-0.521,0-0.957,0.207-1.309,0.621S369.59,108.262,369.59,109.085z"/>
		<path style="fill:#FFFFFF;" d="M317.169,131.414V119.96h3.711c1.406,0,2.323,0.058,2.75,0.172
			c0.656,0.172,1.206,0.546,1.648,1.121s0.664,1.319,0.664,2.23c0,0.703-0.128,1.294-0.383,1.773s-0.579,0.855-0.973,1.129
			s-0.793,0.454-1.199,0.543c-0.552,0.109-1.352,0.164-2.398,0.164h-1.508v4.32H317.169z M319.481,121.898v3.25h1.266
			c0.911,0,1.521-0.06,1.828-0.18s0.548-0.308,0.723-0.562s0.262-0.552,0.262-0.891c0-0.417-0.122-0.761-0.367-1.031
			s-0.555-0.44-0.93-0.508c-0.276-0.052-0.831-0.078-1.664-0.078H319.481z"/>
		<path style="fill:#FFFFFF;" d="M329.465,125.648l-1.992-0.359c0.224-0.802,0.609-1.396,1.156-1.781s1.359-0.578,2.438-0.578
			c0.979,0,1.708,0.116,2.188,0.348s0.816,0.526,1.012,0.883s0.293,1.012,0.293,1.965l-0.023,2.562c0,0.729,0.035,1.267,0.105,1.613
			s0.202,0.718,0.395,1.113h-2.172c-0.058-0.146-0.128-0.362-0.211-0.648c-0.036-0.13-0.062-0.216-0.078-0.258
			c-0.375,0.364-0.776,0.638-1.203,0.82s-0.883,0.273-1.367,0.273c-0.854,0-1.527-0.231-2.02-0.695s-0.738-1.05-0.738-1.758
			c0-0.469,0.112-0.887,0.336-1.254s0.538-0.648,0.941-0.844s0.985-0.366,1.746-0.512c1.026-0.192,1.737-0.372,2.133-0.539v-0.219
			c0-0.422-0.104-0.723-0.312-0.902s-0.602-0.27-1.18-0.27c-0.391,0-0.695,0.077-0.914,0.23S329.601,125.262,329.465,125.648z
			 M332.403,127.429c-0.281,0.094-0.727,0.206-1.336,0.336s-1.008,0.258-1.195,0.383c-0.286,0.203-0.43,0.461-0.43,0.773
			c0,0.308,0.114,0.573,0.344,0.797s0.521,0.336,0.875,0.336c0.396,0,0.773-0.13,1.133-0.391c0.266-0.198,0.44-0.44,0.523-0.727
			c0.058-0.188,0.086-0.544,0.086-1.07V127.429z"/>
		<path style="fill:#FFFFFF;" d="M338.825,131.414h-2.195v-8.297h2.039v1.18c0.349-0.558,0.663-0.925,0.941-1.102
			s0.595-0.266,0.949-0.266c0.5,0,0.981,0.138,1.445,0.414l-0.68,1.914c-0.37-0.239-0.714-0.359-1.031-0.359
			c-0.308,0-0.567,0.085-0.781,0.254s-0.382,0.476-0.504,0.918s-0.184,1.37-0.184,2.781V131.414z"/>
		<path style="fill:#FFFFFF;" d="M342.872,131.414V119.96h2.195v6.078l2.57-2.922h2.703l-2.836,3.031l3.039,5.266h-2.367
			l-2.086-3.727l-1.023,1.07v2.656H342.872z"/>
	</g>
</g>
</svg>
