<?xml version="1.0" encoding="utf-8"?>
<!-- Generator: Adobe Illustrator 22.0.1, SVG Export Plug-In . SVG Version: 6.00 Build 0)  -->
<svg version="1.1" id="neighborhood" xmlns="http://www.w3.org/2000/svg" xmlns:xlink="http://www.w3.org/1999/xlink" x="0px"
	 y="0px" viewBox="0 0 400 602.122" style="enable-background:new 0 0 400 602.122;" xml:space="preserve">
<g style="opacity:0.75;">
	<g id="Chicago_x5F_Community_x5F_Areas_selection_1_">
		<polygon style="fill:#C11B17;stroke:#000000;stroke-width:1.9;stroke-miterlimit:10;" points="139.514,185.988 139.514,188.407 
			139.074,191.266 141.053,190.826 141.053,193.245 141.053,195.883 141.273,198.302 141.273,200.941 141.273,203.14 
			141.053,204.899 141.493,205.558 141.493,206.438 141.273,207.537 141.273,207.977 141.493,209.077 141.493,211.056 
			141.493,213.474 141.493,215.893 141.713,218.312 141.933,221.171 141.933,223.369 137.315,223.809 134.456,223.589 
			132.256,224.029 127.198,224.029 121.92,223.809 117.082,224.029 112.244,224.029 112.464,221.61 107.185,221.61 102.127,221.61 
			97.069,222.05 92.231,222.05 87.173,222.05 84.314,222.05 83.214,222.05 82.554,222.05 82.554,219.631 82.554,217.213 
			82.334,214.794 82.115,212.375 82.334,210.836 82.115,209.516 81.895,207.977 81.675,207.098 81.895,205.998 81.895,204.899 
			81.895,202.48 81.455,200.501 81.455,197.642 81.455,195.883 81.235,194.784 81.235,192.365 81.235,189.067 81.015,186.428 
			81.015,183.35 81.015,180.491 80.795,175.873 80.795,173.894 80.795,172.575 83.214,172.575 85.633,172.795 87.832,172.575 
			89.592,172.575 92.891,172.135 93.33,172.135 95.53,172.135 100.588,172.135 105.426,171.915 108.065,171.695 110.704,171.695 
			113.343,171.695 115.542,171.915 119.501,171.915 120.821,171.915 125.439,171.695 130.497,171.695 134.676,172.795 
			141.053,172.355 148.751,172.355 143.252,173.235 141.713,174.334 140.613,176.093 140.833,177.632 140.833,181.81 
			139.294,181.81 139.294,184.009 		"/>
		<polygon style="fill:#C11B17;stroke:#000000;stroke-width:1.9;stroke-miterlimit:10;" points="113.563,266.248 110.924,266.248 
			108.505,266.908 106.086,266.688 103.667,266.688 101.248,266.688 101.687,270.206 99.268,271.086 96.849,271.086 96.189,271.086 
			93.33,271.086 91.351,271.086 88.932,271.305 86.513,271.086 84.094,271.525 81.455,271.525 79.256,271.525 79.256,277.682 
			76.177,279.221 73.977,279.881 70.019,280.761 66.94,281.64 64.081,282.52 60.782,283.399 58.583,284.059 58.143,284.719 
			56.384,284.939 54.624,285.378 51.765,286.478 45.168,289.117 44.948,287.138 44.288,279.002 44.068,275.263 44.068,272.185 
			43.848,270.646 43.848,269.986 43.628,267.567 43.408,265.149 43.408,262.95 43.189,252.835 42.969,249.316 43.189,247.997 
			43.189,243.599 43.189,240.301 43.408,239.861 43.189,238.102 42.749,235.463 42.749,233.924 42.749,233.045 42.089,226.448 
			42.309,224.909 44.728,224.029 47.147,223.369 47.807,222.93 49.786,222.05 52.425,220.951 57.483,218.972 57.483,221.83 
			57.703,224.469 62.761,224.249 67.6,224.029 72.878,224.029 72.658,225.788 77.496,225.788 82.554,226.008 82.554,224.249 
			82.554,222.05 83.214,222.05 84.314,222.05 87.173,222.05 92.231,222.05 97.069,222.05 102.127,221.61 107.185,221.61 
			112.464,221.61 112.244,224.029 117.082,224.029 121.92,223.809 127.198,224.029 132.256,224.029 134.456,223.589 
			137.315,223.809 141.933,223.369 142.373,225.788 143.033,229.746 143.912,231.505 143.033,231.505 147.211,238.982 
			147.871,245.578 148.751,250.856 148.531,251.295 148.531,256.133 148.091,257.232 142.153,258.992 135.775,261.191 
			133.136,261.85 133.136,260.971 125.659,261.41 118.182,261.41 118.182,263.609 118.401,265.149 118.182,266.028 115.762,266.468 
					"/>
	</g>
</g>
<g>
	<polygon points="230.953,340.497 145.212,340.497 145.212,295.652 158.115,295.652 121.516,241.042 166.987,295.652 
		230.953,295.652 	"/>
	<g>
		<rect x="152.206" y="303.51" style="fill:none;" width="73.724" height="32.525"/>
		<path style="fill:#FFFFFF;" d="M153.393,314.966v-11.453h2.25l4.688,7.648v-7.648h2.148v11.453h-2.32l-4.617-7.469v7.469H153.393z
			"/>
		<path style="fill:#FFFFFF;" d="M164.401,310.701c0-0.729,0.18-1.435,0.539-2.117s0.868-1.203,1.527-1.562s1.395-0.539,2.207-0.539
			c1.255,0,2.284,0.407,3.086,1.223s1.203,1.845,1.203,3.09c0,1.255-0.405,2.296-1.215,3.121s-1.829,1.238-3.059,1.238
			c-0.761,0-1.485-0.172-2.176-0.516s-1.215-0.848-1.574-1.512S164.401,311.654,164.401,310.701z M166.651,310.818
			c0,0.823,0.195,1.453,0.586,1.891s0.872,0.656,1.445,0.656s1.054-0.219,1.441-0.656s0.582-1.073,0.582-1.906
			c0-0.812-0.194-1.438-0.582-1.875s-0.868-0.656-1.441-0.656s-1.055,0.219-1.445,0.656S166.651,309.995,166.651,310.818z"/>
		<path style="fill:#FFFFFF;" d="M176.784,314.966h-2.195v-8.297h2.039v1.18c0.349-0.558,0.663-0.925,0.941-1.102
			s0.595-0.266,0.949-0.266c0.5,0,0.981,0.138,1.445,0.414l-0.68,1.914c-0.37-0.239-0.714-0.359-1.031-0.359
			c-0.308,0-0.567,0.085-0.781,0.254s-0.382,0.476-0.504,0.918s-0.184,1.37-0.184,2.781V314.966z"/>
		<path style="fill:#FFFFFF;" d="M184.713,306.669v1.75h-1.5v3.344c0,0.677,0.015,1.071,0.043,1.184s0.094,0.204,0.195,0.277
			s0.226,0.109,0.371,0.109c0.203,0,0.497-0.07,0.883-0.211l0.188,1.703c-0.511,0.219-1.089,0.328-1.734,0.328
			c-0.396,0-0.753-0.066-1.07-0.199s-0.551-0.305-0.699-0.516s-0.251-0.496-0.309-0.855c-0.047-0.255-0.07-0.771-0.07-1.547v-3.617
			h-1.008v-1.75h1.008v-1.648l2.203-1.281v2.93H184.713z"/>
		<path style="fill:#FFFFFF;" d="M188.424,303.513v4.211c0.708-0.828,1.555-1.242,2.539-1.242c0.505,0,0.961,0.094,1.367,0.281
			s0.712,0.427,0.918,0.719s0.347,0.614,0.422,0.969s0.113,0.903,0.113,1.648v4.867h-2.195v-4.383c0-0.87-0.042-1.422-0.125-1.656
			s-0.23-0.421-0.441-0.559s-0.476-0.207-0.793-0.207c-0.364,0-0.69,0.089-0.977,0.266s-0.496,0.444-0.629,0.801
			s-0.199,0.884-0.199,1.582v4.156h-2.195v-11.453H188.424z"/>
		<path style="fill:#FFFFFF;" d="M153.432,331.966v-11.359h2.312v9.43h5.75v1.93H153.432z"/>
		<path style="fill:#FFFFFF;" d="M164.768,326.201l-1.992-0.359c0.224-0.802,0.609-1.396,1.156-1.781s1.359-0.578,2.438-0.578
			c0.979,0,1.708,0.116,2.188,0.348s0.816,0.526,1.012,0.883s0.293,1.012,0.293,1.965l-0.023,2.562c0,0.729,0.035,1.267,0.105,1.613
			s0.202,0.718,0.395,1.113h-2.172c-0.058-0.146-0.128-0.362-0.211-0.648c-0.036-0.13-0.062-0.216-0.078-0.258
			c-0.375,0.364-0.776,0.638-1.203,0.82s-0.883,0.273-1.367,0.273c-0.854,0-1.527-0.231-2.02-0.695s-0.738-1.05-0.738-1.758
			c0-0.469,0.112-0.887,0.336-1.254s0.538-0.648,0.941-0.844s0.985-0.366,1.746-0.512c1.026-0.192,1.737-0.372,2.133-0.539v-0.219
			c0-0.422-0.104-0.723-0.312-0.902s-0.602-0.27-1.18-0.27c-0.391,0-0.695,0.077-0.914,0.23S164.904,325.815,164.768,326.201z
			 M167.706,327.982c-0.281,0.094-0.727,0.206-1.336,0.336s-1.008,0.258-1.195,0.383c-0.286,0.203-0.43,0.461-0.43,0.773
			c0,0.308,0.114,0.573,0.344,0.797s0.521,0.336,0.875,0.336c0.396,0,0.773-0.13,1.133-0.391c0.266-0.198,0.44-0.44,0.523-0.727
			c0.058-0.188,0.086-0.544,0.086-1.07V327.982z"/>
		<path style="fill:#FFFFFF;" d="M173.573,331.966l-2.625-8.297h2.133l1.555,5.438l1.43-5.438h2.117l1.383,5.438l1.586-5.438h2.164
			l-2.664,8.297h-2.109l-1.43-5.336l-1.406,5.336H173.573z"/>
		<path style="fill:#FFFFFF;" d="M192.018,331.966h-2.195v-4.234c0-0.896-0.047-1.476-0.141-1.738s-0.246-0.468-0.457-0.613
			s-0.465-0.219-0.762-0.219c-0.38,0-0.722,0.104-1.023,0.312s-0.509,0.484-0.621,0.828s-0.168,0.979-0.168,1.906v3.758h-2.195
			v-8.297h2.039v1.219c0.724-0.938,1.636-1.406,2.734-1.406c0.484,0,0.927,0.087,1.328,0.262s0.704,0.397,0.91,0.668
			s0.349,0.578,0.43,0.922s0.121,0.836,0.121,1.477V331.966z"/>
		<path style="fill:#FFFFFF;" d="M201.854,331.966h-2.039v-1.219c-0.339,0.474-0.738,0.827-1.199,1.059s-0.926,0.348-1.395,0.348
			c-0.953,0-1.77-0.384-2.449-1.152s-1.02-1.84-1.02-3.215c0-1.406,0.331-2.476,0.992-3.207s1.497-1.098,2.508-1.098
			c0.927,0,1.729,0.386,2.406,1.156v-4.125h2.195V331.966z M195.995,327.638c0,0.886,0.122,1.526,0.367,1.922
			c0.354,0.573,0.849,0.859,1.484,0.859c0.505,0,0.935-0.215,1.289-0.645s0.531-1.071,0.531-1.926c0-0.953-0.172-1.64-0.516-2.059
			s-0.784-0.629-1.32-0.629c-0.521,0-0.957,0.207-1.309,0.621S195.995,326.815,195.995,327.638z"/>
		<path style="fill:#FFFFFF;" d="M205.659,326.201l-1.992-0.359c0.224-0.802,0.609-1.396,1.156-1.781s1.359-0.578,2.438-0.578
			c0.979,0,1.708,0.116,2.188,0.348s0.816,0.526,1.012,0.883s0.293,1.012,0.293,1.965l-0.023,2.562c0,0.729,0.035,1.267,0.105,1.613
			s0.202,0.718,0.395,1.113h-2.172c-0.058-0.146-0.128-0.362-0.211-0.648c-0.036-0.13-0.062-0.216-0.078-0.258
			c-0.375,0.364-0.776,0.638-1.203,0.82s-0.883,0.273-1.367,0.273c-0.854,0-1.527-0.231-2.02-0.695s-0.738-1.05-0.738-1.758
			c0-0.469,0.112-0.887,0.336-1.254s0.538-0.648,0.941-0.844s0.985-0.366,1.746-0.512c1.026-0.192,1.737-0.372,2.133-0.539v-0.219
			c0-0.422-0.104-0.723-0.312-0.902s-0.602-0.27-1.18-0.27c-0.391,0-0.695,0.077-0.914,0.23S205.795,325.815,205.659,326.201z
			 M208.596,327.982c-0.281,0.094-0.727,0.206-1.336,0.336s-1.008,0.258-1.195,0.383c-0.286,0.203-0.43,0.461-0.43,0.773
			c0,0.308,0.114,0.573,0.344,0.797s0.521,0.336,0.875,0.336c0.396,0,0.773-0.13,1.133-0.391c0.266-0.198,0.44-0.44,0.523-0.727
			c0.058-0.188,0.086-0.544,0.086-1.07V327.982z"/>
		<path style="fill:#FFFFFF;" d="M212.917,331.966v-11.453h2.195v11.453H212.917z"/>
		<path style="fill:#FFFFFF;" d="M222.167,329.326l2.188,0.367c-0.281,0.802-0.726,1.413-1.332,1.832s-1.366,0.629-2.277,0.629
			c-1.442,0-2.511-0.472-3.203-1.414c-0.547-0.755-0.82-1.708-0.82-2.859c0-1.375,0.359-2.452,1.078-3.23s1.628-1.168,2.727-1.168
			c1.234,0,2.208,0.407,2.922,1.223s1.055,2.063,1.023,3.746h-5.5c0.016,0.651,0.192,1.157,0.531,1.52s0.761,0.543,1.266,0.543
			c0.344,0,0.633-0.094,0.867-0.281S222.046,329.743,222.167,329.326z M222.292,327.107c-0.016-0.636-0.18-1.118-0.492-1.449
			s-0.692-0.496-1.141-0.496c-0.479,0-0.875,0.175-1.188,0.523s-0.466,0.823-0.461,1.422H222.292z"/>
	</g>
</g>
<g>
	<polygon points="222.722,76.354 222.722,137.512 173.32,137.512 123.154,181.492 161.987,137.512 148.771,137.512 148.771,110.814 
		148.771,101.943 148.771,76.354 	"/>
	<g>
		<rect x="155.793" y="84.408" style="fill:none;" width="60.833" height="45.963"/>
		<path style="fill:#FFFFFF;" d="M156.957,95.864V84.411h8.492v1.938h-6.18v2.539h5.75v1.93h-5.75v3.117h6.398v1.93H156.957z"/>
		<path style="fill:#FFFFFF;" d="M169.253,90.098l-1.992-0.359c0.224-0.802,0.609-1.396,1.156-1.781s1.359-0.578,2.438-0.578
			c0.979,0,1.708,0.116,2.188,0.348s0.816,0.526,1.012,0.883s0.293,1.012,0.293,1.965l-0.023,2.562c0,0.729,0.035,1.267,0.105,1.613
			s0.202,0.718,0.395,1.113h-2.172c-0.058-0.146-0.128-0.362-0.211-0.648c-0.036-0.13-0.062-0.216-0.078-0.258
			c-0.375,0.364-0.776,0.638-1.203,0.82s-0.883,0.273-1.367,0.273c-0.854,0-1.527-0.231-2.02-0.695s-0.738-1.05-0.738-1.758
			c0-0.469,0.112-0.887,0.336-1.254s0.538-0.648,0.941-0.844s0.985-0.366,1.746-0.512c1.026-0.192,1.737-0.372,2.133-0.539v-0.219
			c0-0.422-0.104-0.723-0.312-0.902s-0.602-0.27-1.18-0.27c-0.391,0-0.695,0.077-0.914,0.23S169.389,89.712,169.253,90.098z
			 M172.191,91.879c-0.281,0.094-0.727,0.206-1.336,0.336s-1.008,0.258-1.195,0.383c-0.286,0.203-0.43,0.461-0.43,0.773
			c0,0.308,0.114,0.573,0.344,0.797s0.521,0.336,0.875,0.336c0.396,0,0.773-0.13,1.133-0.391c0.266-0.198,0.44-0.44,0.523-0.727
			c0.058-0.188,0.086-0.544,0.086-1.07V91.879z"/>
		<path style="fill:#FFFFFF;" d="M175.738,93.497l2.203-0.336c0.094,0.427,0.284,0.751,0.57,0.973s0.688,0.332,1.203,0.332
			c0.567,0,0.995-0.104,1.281-0.312c0.192-0.146,0.289-0.341,0.289-0.586c0-0.167-0.052-0.305-0.156-0.414
			c-0.109-0.104-0.354-0.2-0.734-0.289c-1.771-0.391-2.894-0.747-3.367-1.07c-0.656-0.448-0.984-1.07-0.984-1.867
			c0-0.719,0.284-1.323,0.852-1.812s1.448-0.734,2.641-0.734c1.136,0,1.979,0.185,2.531,0.555s0.933,0.917,1.141,1.641l-2.07,0.383
			c-0.089-0.323-0.257-0.57-0.504-0.742s-0.601-0.258-1.059-0.258c-0.578,0-0.992,0.081-1.242,0.242
			c-0.167,0.114-0.25,0.263-0.25,0.445c0,0.156,0.073,0.289,0.219,0.398c0.198,0.146,0.882,0.352,2.051,0.617
			s1.985,0.591,2.449,0.977c0.458,0.391,0.688,0.935,0.688,1.633c0,0.761-0.317,1.414-0.953,1.961s-1.575,0.82-2.82,0.82
			c-1.13,0-2.024-0.229-2.684-0.688S175.941,94.283,175.738,93.497z"/>
		<path style="fill:#FFFFFF;" d="M189.214,87.567v1.75h-1.5v3.344c0,0.677,0.015,1.071,0.043,1.184s0.094,0.204,0.195,0.277
			s0.226,0.109,0.371,0.109c0.203,0,0.497-0.07,0.883-0.211l0.188,1.703c-0.511,0.219-1.089,0.328-1.734,0.328
			c-0.396,0-0.753-0.066-1.07-0.199s-0.551-0.305-0.699-0.516s-0.251-0.496-0.309-0.855c-0.047-0.255-0.07-0.771-0.07-1.547v-3.617
			h-1.008v-1.75h1.008v-1.648l2.203-1.281v2.93H189.214z"/>
		<path style="fill:#FFFFFF;" d="M162.285,108.653v-1.93h4.984v4.562c-0.484,0.469-1.187,0.882-2.105,1.238
			s-1.851,0.535-2.793,0.535c-1.198,0-2.242-0.251-3.133-0.754s-1.56-1.222-2.008-2.156s-0.672-1.952-0.672-3.051
			c0-1.192,0.25-2.253,0.75-3.18s1.231-1.638,2.195-2.133c0.734-0.38,1.648-0.57,2.742-0.57c1.422,0,2.532,0.298,3.332,0.895
			s1.313,1.421,1.543,2.473l-2.297,0.43c-0.161-0.562-0.465-1.007-0.91-1.332s-1.001-0.488-1.668-0.488
			c-1.011,0-1.813,0.32-2.41,0.961s-0.895,1.591-0.895,2.852c0,1.359,0.302,2.379,0.906,3.059s1.396,1.02,2.375,1.02
			c0.484,0,0.97-0.095,1.457-0.285s0.905-0.421,1.254-0.691v-1.453H162.285z"/>
		<path style="fill:#FFFFFF;" d="M171.027,107.098l-1.992-0.359c0.224-0.802,0.609-1.396,1.156-1.781s1.359-0.578,2.438-0.578
			c0.979,0,1.708,0.116,2.188,0.348s0.816,0.526,1.012,0.883s0.293,1.012,0.293,1.965l-0.023,2.562c0,0.729,0.035,1.267,0.105,1.613
			s0.202,0.718,0.395,1.113h-2.172c-0.058-0.146-0.128-0.362-0.211-0.648c-0.036-0.13-0.062-0.216-0.078-0.258
			c-0.375,0.364-0.776,0.638-1.203,0.82s-0.883,0.273-1.367,0.273c-0.854,0-1.527-0.231-2.02-0.695s-0.738-1.05-0.738-1.758
			c0-0.469,0.112-0.887,0.336-1.254s0.538-0.648,0.941-0.844s0.985-0.366,1.746-0.512c1.026-0.192,1.737-0.372,2.133-0.539v-0.219
			c0-0.422-0.104-0.723-0.312-0.902s-0.602-0.27-1.18-0.27c-0.391,0-0.695,0.077-0.914,0.23S171.163,106.712,171.027,107.098z
			 M173.964,108.879c-0.281,0.094-0.727,0.206-1.336,0.336s-1.008,0.258-1.195,0.383c-0.286,0.203-0.43,0.461-0.43,0.773
			c0,0.308,0.114,0.573,0.344,0.797s0.521,0.336,0.875,0.336c0.396,0,0.773-0.13,1.133-0.391c0.266-0.198,0.44-0.44,0.523-0.727
			c0.058-0.188,0.086-0.544,0.086-1.07V108.879z"/>
		<path style="fill:#FFFFFF;" d="M180.386,112.864h-2.195v-8.297h2.039v1.18c0.349-0.558,0.663-0.925,0.941-1.102
			s0.595-0.266,0.949-0.266c0.5,0,0.981,0.138,1.445,0.414l-0.68,1.914c-0.37-0.239-0.714-0.359-1.031-0.359
			c-0.308,0-0.567,0.085-0.781,0.254s-0.382,0.476-0.504,0.918s-0.184,1.37-0.184,2.781V112.864z"/>
		<path style="fill:#FFFFFF;" d="M183.55,104.567h1.219v-0.625c0-0.698,0.074-1.219,0.223-1.562s0.422-0.624,0.82-0.84
			s0.902-0.324,1.512-0.324c0.625,0,1.237,0.094,1.836,0.281l-0.297,1.531c-0.349-0.083-0.685-0.125-1.008-0.125
			c-0.317,0-0.546,0.074-0.684,0.223s-0.207,0.434-0.207,0.855v0.586h1.641v1.727h-1.641v6.57h-2.195v-6.57h-1.219V104.567z"/>
		<path style="fill:#FFFFFF;" d="M189.839,103.442v-2.031h2.195v2.031H189.839z M189.839,112.864v-8.297h2.195v8.297H189.839z"/>
		<path style="fill:#FFFFFF;" d="M199.089,110.223l2.188,0.367c-0.281,0.802-0.726,1.413-1.332,1.832s-1.366,0.629-2.277,0.629
			c-1.442,0-2.511-0.472-3.203-1.414c-0.547-0.755-0.82-1.708-0.82-2.859c0-1.375,0.359-2.452,1.078-3.23s1.628-1.168,2.727-1.168
			c1.234,0,2.208,0.407,2.922,1.223s1.055,2.063,1.023,3.746h-5.5c0.016,0.651,0.192,1.157,0.531,1.52s0.761,0.543,1.266,0.543
			c0.344,0,0.633-0.094,0.867-0.281S198.969,110.64,199.089,110.223z M199.214,108.004c-0.016-0.636-0.18-1.118-0.492-1.449
			s-0.692-0.496-1.141-0.496c-0.479,0-0.875,0.175-1.188,0.523s-0.466,0.823-0.461,1.422H199.214z"/>
		<path style="fill:#FFFFFF;" d="M203.183,112.864v-11.453h2.195v11.453H203.183z"/>
		<path style="fill:#FFFFFF;" d="M215.238,112.864h-2.039v-1.219c-0.339,0.474-0.738,0.827-1.199,1.059s-0.926,0.348-1.395,0.348
			c-0.953,0-1.77-0.384-2.449-1.152s-1.02-1.84-1.02-3.215c0-1.406,0.331-2.476,0.992-3.207s1.497-1.098,2.508-1.098
			c0.927,0,1.729,0.386,2.406,1.156v-4.125h2.195V112.864z M209.378,108.536c0,0.886,0.122,1.526,0.367,1.922
			c0.354,0.573,0.849,0.859,1.484,0.859c0.505,0,0.935-0.215,1.289-0.645s0.531-1.071,0.531-1.926c0-0.953-0.172-1.64-0.516-2.059
			s-0.784-0.629-1.32-0.629c-0.521,0-0.957,0.207-1.309,0.621S209.378,107.712,209.378,108.536z"/>
		<path style="fill:#FFFFFF;" d="M156.957,129.864v-11.453h3.711c1.406,0,2.323,0.058,2.75,0.172
			c0.656,0.172,1.206,0.546,1.648,1.121s0.664,1.319,0.664,2.23c0,0.703-0.128,1.294-0.383,1.773s-0.579,0.855-0.973,1.129
			s-0.793,0.454-1.199,0.543c-0.552,0.109-1.352,0.164-2.398,0.164h-1.508v4.32H156.957z M159.269,120.348v3.25h1.266
			c0.911,0,1.521-0.06,1.828-0.18s0.548-0.308,0.723-0.562s0.262-0.552,0.262-0.891c0-0.417-0.122-0.761-0.367-1.031
			s-0.555-0.44-0.93-0.508c-0.276-0.052-0.831-0.078-1.664-0.078H159.269z"/>
		<path style="fill:#FFFFFF;" d="M169.253,124.098l-1.992-0.359c0.224-0.802,0.609-1.396,1.156-1.781s1.359-0.578,2.438-0.578
			c0.979,0,1.708,0.116,2.188,0.348s0.816,0.526,1.012,0.883s0.293,1.012,0.293,1.965l-0.023,2.562c0,0.729,0.035,1.267,0.105,1.613
			s0.202,0.718,0.395,1.113h-2.172c-0.058-0.146-0.128-0.362-0.211-0.648c-0.036-0.13-0.062-0.216-0.078-0.258
			c-0.375,0.364-0.776,0.638-1.203,0.82s-0.883,0.273-1.367,0.273c-0.854,0-1.527-0.231-2.02-0.695s-0.738-1.05-0.738-1.758
			c0-0.469,0.112-0.887,0.336-1.254s0.538-0.648,0.941-0.844s0.985-0.366,1.746-0.512c1.026-0.192,1.737-0.372,2.133-0.539v-0.219
			c0-0.422-0.104-0.723-0.312-0.902s-0.602-0.27-1.18-0.27c-0.391,0-0.695,0.077-0.914,0.23S169.389,123.712,169.253,124.098z
			 M172.191,125.879c-0.281,0.094-0.727,0.206-1.336,0.336s-1.008,0.258-1.195,0.383c-0.286,0.203-0.43,0.461-0.43,0.773
			c0,0.308,0.114,0.573,0.344,0.797s0.521,0.336,0.875,0.336c0.396,0,0.773-0.13,1.133-0.391c0.266-0.198,0.44-0.44,0.523-0.727
			c0.058-0.188,0.086-0.544,0.086-1.07V125.879z"/>
		<path style="fill:#FFFFFF;" d="M178.613,129.864h-2.195v-8.297h2.039v1.18c0.349-0.558,0.663-0.925,0.941-1.102
			s0.595-0.266,0.949-0.266c0.5,0,0.981,0.138,1.445,0.414l-0.68,1.914c-0.37-0.239-0.714-0.359-1.031-0.359
			c-0.308,0-0.567,0.085-0.781,0.254s-0.382,0.476-0.504,0.918s-0.184,1.37-0.184,2.781V129.864z"/>
		<path style="fill:#FFFFFF;" d="M182.66,129.864v-11.453h2.195v6.078l2.57-2.922h2.703l-2.836,3.031l3.039,5.266h-2.367
			l-2.086-3.727l-1.023,1.07v2.656H182.66z"/>
	</g>
</g>
</svg>
