<?xml version="1.0" encoding="utf-8"?>
<!-- Generator: Adobe Illustrator 22.0.1, SVG Export Plug-In . SVG Version: 6.00 Build 0)  -->
<svg version="1.1" id="jonhnson_house" xmlns="http://www.w3.org/2000/svg" xmlns:xlink="http://www.w3.org/1999/xlink" x="0px"
	 y="0px" viewBox="0 0 610 622" style="enable-background:new 0 0 610 622;" xml:space="preserve">
<g>
	<polyline style="fill:#8C001A;" points="271.487,117.73 239.202,117.73 239.202,72.563 372.793,72.563 372.793,117.73 
		281.914,117.73 	"/>
	<g>
		<rect x="245.987" y="79.671" style="fill:none;" width="121.5" height="29.796"/>
		<path style="fill:#FFFFFF;" d="M247.159,91.128V79.675h2.312v4.508h4.531v-4.508h2.313v11.453h-2.313v-5.008h-4.531v5.008H247.159
			z"/>
		<path style="fill:#FFFFFF;" d="M263.495,88.488l2.188,0.367c-0.281,0.802-0.726,1.413-1.332,1.832s-1.366,0.629-2.277,0.629
			c-1.442,0-2.511-0.472-3.203-1.414c-0.547-0.755-0.82-1.708-0.82-2.859c0-1.375,0.359-2.452,1.078-3.23s1.628-1.168,2.727-1.168
			c1.234,0,2.208,0.407,2.922,1.223s1.055,2.063,1.023,3.746h-5.5c0.016,0.651,0.192,1.157,0.531,1.52s0.761,0.543,1.266,0.543
			c0.344,0,0.633-0.094,0.867-0.281S263.375,88.905,263.495,88.488z M263.62,86.269c-0.016-0.636-0.18-1.118-0.492-1.449
			s-0.692-0.496-1.141-0.496c-0.479,0-0.875,0.175-1.188,0.523s-0.466,0.823-0.461,1.422H263.62z"/>
		<path style="fill:#FFFFFF;" d="M269.229,85.363l-1.992-0.359c0.224-0.802,0.609-1.396,1.156-1.781s1.359-0.578,2.438-0.578
			c0.979,0,1.708,0.116,2.188,0.348s0.816,0.526,1.012,0.883s0.293,1.012,0.293,1.965l-0.023,2.562c0,0.729,0.035,1.267,0.105,1.613
			s0.202,0.718,0.395,1.113h-2.172c-0.058-0.146-0.128-0.362-0.211-0.648c-0.036-0.13-0.062-0.216-0.078-0.258
			c-0.375,0.364-0.776,0.638-1.203,0.82s-0.883,0.273-1.367,0.273c-0.854,0-1.527-0.231-2.02-0.695s-0.738-1.05-0.738-1.758
			c0-0.469,0.112-0.887,0.336-1.254s0.538-0.648,0.941-0.844s0.985-0.366,1.746-0.512c1.026-0.192,1.737-0.372,2.133-0.539v-0.219
			c0-0.422-0.104-0.723-0.312-0.902s-0.602-0.27-1.18-0.27c-0.391,0-0.695,0.077-0.914,0.23S269.365,84.977,269.229,85.363z
			 M272.167,87.144c-0.281,0.094-0.727,0.206-1.336,0.336s-1.008,0.258-1.195,0.383c-0.286,0.203-0.43,0.461-0.43,0.773
			c0,0.308,0.114,0.573,0.344,0.797s0.521,0.336,0.875,0.336c0.396,0,0.773-0.13,1.133-0.391c0.266-0.198,0.44-0.44,0.523-0.727
			c0.058-0.188,0.086-0.544,0.086-1.07V87.144z"/>
		<path style="fill:#FFFFFF;" d="M278.768,91.128l-3.344-8.297h2.305l1.562,4.234l0.453,1.414c0.12-0.359,0.195-0.597,0.227-0.711
			c0.073-0.234,0.151-0.469,0.234-0.703l1.578-4.234h2.258l-3.297,8.297H278.768z"/>
		<path style="fill:#FFFFFF;" d="M284.346,82.832h2.336l1.984,5.891l1.938-5.891h2.273l-2.93,7.984l-0.523,1.445
			c-0.192,0.484-0.376,0.854-0.551,1.109s-0.375,0.462-0.602,0.621s-0.505,0.282-0.836,0.371s-0.704,0.133-1.121,0.133
			c-0.422,0-0.836-0.044-1.242-0.133l-0.195-1.719c0.344,0.067,0.653,0.102,0.93,0.102c0.511,0,0.888-0.149,1.133-0.449
			s0.433-0.681,0.562-1.145L284.346,82.832z"/>
		<path style="fill:#FFFFFF;" d="M298.729,91.128V79.675h2.195v11.453H298.729z"/>
		<path style="fill:#FFFFFF;" d="M302.667,86.863c0-0.729,0.18-1.435,0.539-2.117s0.868-1.203,1.527-1.562s1.395-0.539,2.207-0.539
			c1.255,0,2.284,0.407,3.086,1.223s1.203,1.845,1.203,3.09c0,1.255-0.405,2.296-1.215,3.121s-1.829,1.238-3.059,1.238
			c-0.761,0-1.485-0.172-2.176-0.516s-1.215-0.848-1.574-1.512S302.667,87.816,302.667,86.863z M304.917,86.98
			c0,0.823,0.195,1.453,0.586,1.891s0.872,0.656,1.445,0.656s1.054-0.219,1.441-0.656s0.582-1.073,0.582-1.906
			c0-0.812-0.194-1.438-0.582-1.875s-0.868-0.656-1.441-0.656s-1.055,0.219-1.445,0.656S304.917,86.157,304.917,86.98z"/>
		<path style="fill:#FFFFFF;" d="M312.44,86.863c0-0.729,0.18-1.435,0.539-2.117s0.868-1.203,1.527-1.562s1.395-0.539,2.207-0.539
			c1.255,0,2.284,0.407,3.086,1.223s1.203,1.845,1.203,3.09c0,1.255-0.405,2.296-1.215,3.121s-1.829,1.238-3.059,1.238
			c-0.761,0-1.485-0.172-2.176-0.516s-1.215-0.848-1.574-1.512S312.44,87.816,312.44,86.863z M314.69,86.98
			c0,0.823,0.195,1.453,0.586,1.891s0.872,0.656,1.445,0.656s1.054-0.219,1.441-0.656s0.582-1.073,0.582-1.906
			c0-0.812-0.194-1.438-0.582-1.875s-0.868-0.656-1.441-0.656s-1.055,0.219-1.445,0.656S314.69,86.157,314.69,86.98z"/>
		<path style="fill:#FFFFFF;" d="M326.526,82.832v1.75h-1.5v3.344c0,0.677,0.015,1.071,0.043,1.184s0.094,0.204,0.195,0.277
			s0.226,0.109,0.371,0.109c0.203,0,0.497-0.07,0.883-0.211l0.188,1.703c-0.511,0.219-1.089,0.328-1.734,0.328
			c-0.396,0-0.753-0.066-1.07-0.199s-0.551-0.305-0.699-0.516s-0.251-0.496-0.309-0.855c-0.047-0.255-0.07-0.771-0.07-1.547v-3.617
			h-1.008v-1.75h1.008v-1.648l2.203-1.281v2.93H326.526z"/>
		<path style="fill:#FFFFFF;" d="M328.049,81.707v-2.031h2.195v2.031H328.049z M328.049,91.128v-8.297h2.195v8.297H328.049z"/>
		<path style="fill:#FFFFFF;" d="M340.042,91.128h-2.195v-4.234c0-0.896-0.047-1.476-0.141-1.738s-0.246-0.468-0.457-0.613
			s-0.465-0.219-0.762-0.219c-0.38,0-0.722,0.104-1.023,0.312s-0.509,0.484-0.621,0.828s-0.168,0.979-0.168,1.906v3.758h-2.195
			v-8.297h2.039v1.219c0.724-0.938,1.636-1.406,2.734-1.406c0.484,0,0.927,0.087,1.328,0.262s0.704,0.397,0.91,0.668
			s0.349,0.578,0.43,0.922s0.121,0.836,0.121,1.477V91.128z"/>
		<path style="fill:#FFFFFF;" d="M342.065,91.675l2.508,0.305c0.042,0.292,0.138,0.492,0.289,0.602
			c0.208,0.156,0.536,0.234,0.984,0.234c0.573,0,1.003-0.086,1.289-0.258c0.192-0.114,0.339-0.3,0.438-0.555
			c0.067-0.183,0.102-0.519,0.102-1.008v-1.211c-0.656,0.896-1.484,1.344-2.484,1.344c-1.114,0-1.997-0.472-2.648-1.414
			c-0.511-0.745-0.766-1.672-0.766-2.781c0-1.391,0.335-2.453,1.004-3.188s1.501-1.102,2.496-1.102c1.026,0,1.872,0.45,2.539,1.352
			v-1.164h2.055v7.445c0,0.979-0.081,1.711-0.242,2.195s-0.388,0.864-0.68,1.141s-0.681,0.492-1.168,0.648s-1.103,0.234-1.848,0.234
			c-1.406,0-2.403-0.241-2.992-0.723s-0.883-1.093-0.883-1.832C342.057,91.868,342.06,91.78,342.065,91.675z M344.026,86.808
			c0,0.88,0.171,1.524,0.512,1.934s0.762,0.613,1.262,0.613c0.536,0,0.989-0.21,1.359-0.629s0.555-1.04,0.555-1.863
			c0-0.859-0.177-1.497-0.531-1.914s-0.802-0.625-1.344-0.625c-0.526,0-0.96,0.204-1.301,0.613S344.026,85.969,344.026,86.808z"/>
		<path style="fill:#FFFFFF;" d="M248.776,103.363l-1.992-0.359c0.224-0.802,0.609-1.396,1.156-1.781s1.359-0.578,2.438-0.578
			c0.979,0,1.708,0.116,2.188,0.348s0.816,0.526,1.012,0.883s0.293,1.012,0.293,1.965l-0.023,2.562c0,0.729,0.035,1.267,0.105,1.613
			s0.202,0.718,0.395,1.113h-2.172c-0.058-0.146-0.128-0.362-0.211-0.648c-0.036-0.13-0.062-0.216-0.078-0.258
			c-0.375,0.364-0.776,0.638-1.203,0.82s-0.883,0.273-1.367,0.273c-0.854,0-1.527-0.231-2.02-0.695s-0.738-1.05-0.738-1.758
			c0-0.469,0.112-0.887,0.336-1.254s0.538-0.648,0.941-0.844s0.985-0.366,1.746-0.512c1.026-0.192,1.737-0.372,2.133-0.539v-0.219
			c0-0.422-0.104-0.723-0.312-0.902s-0.602-0.27-1.18-0.27c-0.391,0-0.695,0.077-0.914,0.23S248.912,102.977,248.776,103.363z
			 M251.713,105.144c-0.281,0.094-0.727,0.206-1.336,0.336s-1.008,0.258-1.195,0.383c-0.286,0.203-0.43,0.461-0.43,0.773
			c0,0.308,0.114,0.573,0.344,0.797s0.521,0.336,0.875,0.336c0.396,0,0.773-0.13,1.133-0.391c0.266-0.198,0.44-0.44,0.523-0.727
			c0.058-0.188,0.086-0.544,0.086-1.07V105.144z"/>
		<path style="fill:#FFFFFF;" d="M263.581,109.128h-2.195v-4.234c0-0.896-0.047-1.476-0.141-1.738s-0.246-0.468-0.457-0.613
			s-0.465-0.219-0.762-0.219c-0.38,0-0.722,0.104-1.023,0.312s-0.509,0.484-0.621,0.828s-0.168,0.979-0.168,1.906v3.758h-2.195
			v-8.297h2.039v1.219c0.724-0.938,1.636-1.406,2.734-1.406c0.484,0,0.927,0.087,1.328,0.262s0.704,0.397,0.91,0.668
			s0.349,0.578,0.43,0.922s0.121,0.836,0.121,1.477V109.128z"/>
		<path style="fill:#FFFFFF;" d="M273.417,109.128h-2.039v-1.219c-0.339,0.474-0.738,0.827-1.199,1.059s-0.926,0.348-1.395,0.348
			c-0.953,0-1.77-0.384-2.449-1.152s-1.02-1.84-1.02-3.215c0-1.406,0.331-2.476,0.992-3.207s1.497-1.098,2.508-1.098
			c0.927,0,1.729,0.386,2.406,1.156v-4.125h2.195V109.128z M267.557,104.8c0,0.886,0.122,1.526,0.367,1.922
			c0.354,0.573,0.849,0.859,1.484,0.859c0.505,0,0.935-0.215,1.289-0.645s0.531-1.071,0.531-1.926c0-0.953-0.172-1.64-0.516-2.059
			s-0.784-0.629-1.32-0.629c-0.521,0-0.957,0.207-1.309,0.621S267.557,103.977,267.557,104.8z"/>
		<path style="fill:#FFFFFF;" d="M282.128,109.128h-2.195v-8.297h2.039v1.18c0.349-0.558,0.663-0.925,0.941-1.102
			s0.595-0.266,0.949-0.266c0.5,0,0.981,0.138,1.445,0.414l-0.68,1.914c-0.37-0.239-0.714-0.359-1.031-0.359
			c-0.308,0-0.567,0.085-0.781,0.254s-0.382,0.476-0.504,0.918s-0.184,1.37-0.184,2.781V109.128z"/>
		<path style="fill:#FFFFFF;" d="M286.253,99.707v-2.031h2.195v2.031H286.253z M286.253,109.128v-8.297h2.195v8.297H286.253z"/>
		<path style="fill:#FFFFFF;" d="M290.19,104.863c0-0.729,0.18-1.435,0.539-2.117s0.868-1.203,1.527-1.562s1.395-0.539,2.207-0.539
			c1.255,0,2.284,0.407,3.086,1.223s1.203,1.845,1.203,3.09c0,1.255-0.405,2.296-1.215,3.121s-1.829,1.238-3.059,1.238
			c-0.761,0-1.485-0.172-2.176-0.516s-1.215-0.848-1.574-1.512S290.19,105.816,290.19,104.863z M292.44,104.98
			c0,0.823,0.195,1.453,0.586,1.891s0.872,0.656,1.445,0.656s1.054-0.219,1.441-0.656s0.582-1.073,0.582-1.906
			c0-0.812-0.194-1.438-0.582-1.875s-0.868-0.656-1.441-0.656s-1.055,0.219-1.445,0.656S292.44,104.157,292.44,104.98z"/>
		<path style="fill:#FFFFFF;" d="M304.276,100.832v1.75h-1.5v3.344c0,0.677,0.015,1.071,0.043,1.184s0.094,0.204,0.195,0.277
			s0.226,0.109,0.371,0.109c0.203,0,0.497-0.07,0.883-0.211l0.188,1.703c-0.511,0.219-1.089,0.328-1.734,0.328
			c-0.396,0-0.753-0.066-1.07-0.199s-0.551-0.305-0.699-0.516s-0.251-0.496-0.309-0.855c-0.047-0.255-0.07-0.771-0.07-1.547v-3.617
			h-1.008v-1.75h1.008v-1.648l2.203-1.281v2.93H304.276z"/>
		<path style="fill:#FFFFFF;" d="M305.799,99.707v-2.031h2.195v2.031H305.799z M305.799,109.128v-8.297h2.195v8.297H305.799z"/>
		<path style="fill:#FFFFFF;" d="M317.792,109.128h-2.195v-4.234c0-0.896-0.047-1.476-0.141-1.738s-0.246-0.468-0.457-0.613
			s-0.465-0.219-0.762-0.219c-0.38,0-0.722,0.104-1.023,0.312s-0.509,0.484-0.621,0.828s-0.168,0.979-0.168,1.906v3.758h-2.195
			v-8.297h2.039v1.219c0.724-0.938,1.636-1.406,2.734-1.406c0.484,0,0.927,0.087,1.328,0.262s0.704,0.397,0.91,0.668
			s0.349,0.578,0.43,0.922s0.121,0.836,0.121,1.477V109.128z"/>
		<path style="fill:#FFFFFF;" d="M319.815,109.675l2.508,0.305c0.042,0.292,0.138,0.492,0.289,0.602
			c0.208,0.156,0.536,0.234,0.984,0.234c0.573,0,1.003-0.086,1.289-0.258c0.192-0.114,0.339-0.3,0.438-0.555
			c0.067-0.183,0.102-0.519,0.102-1.008v-1.211c-0.656,0.896-1.484,1.344-2.484,1.344c-1.114,0-1.997-0.472-2.648-1.414
			c-0.511-0.745-0.766-1.672-0.766-2.781c0-1.391,0.335-2.453,1.004-3.188s1.501-1.102,2.496-1.102c1.026,0,1.872,0.45,2.539,1.352
			v-1.164h2.055v7.445c0,0.979-0.081,1.711-0.242,2.195s-0.388,0.864-0.68,1.141s-0.681,0.492-1.168,0.648s-1.103,0.234-1.848,0.234
			c-1.406,0-2.403-0.241-2.992-0.723s-0.883-1.093-0.883-1.832C319.807,109.868,319.81,109.78,319.815,109.675z M321.776,104.808
			c0,0.88,0.171,1.524,0.512,1.934s0.762,0.613,1.262,0.613c0.536,0,0.989-0.21,1.359-0.629s0.555-1.04,0.555-1.863
			c0-0.859-0.177-1.497-0.531-1.914s-0.802-0.625-1.344-0.625c-0.526,0-0.96,0.204-1.301,0.613S321.776,103.969,321.776,104.808z"/>
		<path style="fill:#FFFFFF;" d="M335.878,103.363l-1.992-0.359c0.224-0.802,0.609-1.396,1.156-1.781s1.359-0.578,2.438-0.578
			c0.979,0,1.708,0.116,2.188,0.348s0.816,0.526,1.012,0.883s0.293,1.012,0.293,1.965l-0.023,2.562c0,0.729,0.035,1.267,0.105,1.613
			s0.202,0.718,0.395,1.113h-2.172c-0.058-0.146-0.128-0.362-0.211-0.648c-0.036-0.13-0.062-0.216-0.078-0.258
			c-0.375,0.364-0.776,0.638-1.203,0.82s-0.883,0.273-1.367,0.273c-0.854,0-1.527-0.231-2.02-0.695s-0.738-1.05-0.738-1.758
			c0-0.469,0.112-0.887,0.336-1.254s0.538-0.648,0.941-0.844s0.985-0.366,1.746-0.512c1.026-0.192,1.737-0.372,2.133-0.539v-0.219
			c0-0.422-0.104-0.723-0.312-0.902s-0.602-0.27-1.18-0.27c-0.391,0-0.695,0.077-0.914,0.23S336.013,102.977,335.878,103.363z
			 M338.815,105.144c-0.281,0.094-0.727,0.206-1.336,0.336s-1.008,0.258-1.195,0.383c-0.286,0.203-0.43,0.461-0.43,0.773
			c0,0.308,0.114,0.573,0.344,0.797s0.521,0.336,0.875,0.336c0.396,0,0.773-0.13,1.133-0.391c0.266-0.198,0.44-0.44,0.523-0.727
			c0.058-0.188,0.086-0.544,0.086-1.07V105.144z"/>
		<path style="fill:#FFFFFF;" d="M345.237,109.128h-2.195v-8.297h2.039v1.18c0.349-0.558,0.663-0.925,0.941-1.102
			s0.595-0.266,0.949-0.266c0.5,0,0.981,0.138,1.445,0.414l-0.68,1.914c-0.37-0.239-0.714-0.359-1.031-0.359
			c-0.308,0-0.567,0.085-0.781,0.254s-0.382,0.476-0.504,0.918s-0.184,1.37-0.184,2.781V109.128z"/>
		<path style="fill:#FFFFFF;" d="M354.167,106.488l2.188,0.367c-0.281,0.802-0.726,1.413-1.332,1.832s-1.366,0.629-2.277,0.629
			c-1.442,0-2.511-0.472-3.203-1.414c-0.547-0.755-0.82-1.708-0.82-2.859c0-1.375,0.359-2.452,1.078-3.23s1.628-1.168,2.727-1.168
			c1.234,0,2.208,0.407,2.922,1.223s1.055,2.063,1.023,3.746h-5.5c0.016,0.651,0.192,1.157,0.531,1.52s0.761,0.543,1.266,0.543
			c0.344,0,0.633-0.094,0.867-0.281S354.046,106.905,354.167,106.488z M354.292,104.269c-0.016-0.636-0.18-1.118-0.492-1.449
			s-0.692-0.496-1.141-0.496c-0.479,0-0.875,0.175-1.188,0.523s-0.466,0.823-0.461,1.422H354.292z"/>
		<path style="fill:#FFFFFF;" d="M359.901,103.363l-1.992-0.359c0.224-0.802,0.609-1.396,1.156-1.781s1.359-0.578,2.438-0.578
			c0.979,0,1.708,0.116,2.188,0.348s0.816,0.526,1.012,0.883s0.293,1.012,0.293,1.965l-0.023,2.562c0,0.729,0.035,1.267,0.105,1.613
			s0.202,0.718,0.395,1.113h-2.172c-0.058-0.146-0.128-0.362-0.211-0.648c-0.036-0.13-0.062-0.216-0.078-0.258
			c-0.375,0.364-0.776,0.638-1.203,0.82s-0.883,0.273-1.367,0.273c-0.854,0-1.527-0.231-2.02-0.695s-0.738-1.05-0.738-1.758
			c0-0.469,0.112-0.887,0.336-1.254s0.538-0.648,0.941-0.844s0.985-0.366,1.746-0.512c1.026-0.192,1.737-0.372,2.133-0.539v-0.219
			c0-0.422-0.104-0.723-0.312-0.902s-0.602-0.27-1.18-0.27c-0.391,0-0.695,0.077-0.914,0.23S360.037,102.977,359.901,103.363z
			 M362.838,105.144c-0.281,0.094-0.727,0.206-1.336,0.336s-1.008,0.258-1.195,0.383c-0.286,0.203-0.43,0.461-0.43,0.773
			c0,0.308,0.114,0.573,0.344,0.797s0.521,0.336,0.875,0.336c0.396,0,0.773-0.13,1.133-0.391c0.266-0.198,0.44-0.44,0.523-0.727
			c0.058-0.188,0.086-0.544,0.086-1.07V105.144z"/>
	</g>
</g>
<circle style="fill:none;stroke:#C11B17;stroke-width:3;" cx="213.82" cy="155.548" r="7.277"/>
<g>
	<polygon style="stroke:#231F20;" points="220.221,275.277 81.481,275.277 81.481,228.611 169.835,228.611 213.487,156.326 
		180.262,228.611 220.221,228.611 	"/>
	<g>
		<rect x="89.956" y="236.171" style="fill:none;" width="124.387" height="29.796"/>
		<path style="fill:#FFFFFF;" d="M91.128,236.174h4.578c0.906,0,1.582,0.038,2.027,0.113s0.844,0.233,1.195,0.473
			s0.645,0.559,0.879,0.957s0.352,0.845,0.352,1.34c0,0.536-0.145,1.028-0.434,1.477s-0.681,0.784-1.176,1.008
			c0.698,0.203,1.234,0.55,1.609,1.039s0.562,1.065,0.562,1.727c0,0.521-0.121,1.027-0.363,1.52s-0.573,0.886-0.992,1.18
			s-0.937,0.476-1.551,0.543c-0.386,0.042-1.315,0.067-2.789,0.078h-3.898V236.174z M93.44,238.081v2.648h1.516
			c0.901,0,1.461-0.013,1.68-0.039c0.396-0.047,0.707-0.184,0.934-0.41s0.34-0.524,0.34-0.895c0-0.354-0.098-0.642-0.293-0.863
			s-0.485-0.355-0.871-0.402c-0.229-0.026-0.888-0.039-1.977-0.039H93.44z M93.44,242.635v3.062h2.141
			c0.833,0,1.362-0.023,1.586-0.07c0.344-0.062,0.624-0.215,0.84-0.457s0.324-0.566,0.324-0.973c0-0.344-0.083-0.636-0.25-0.875
			s-0.407-0.414-0.723-0.523s-0.999-0.164-2.051-0.164H93.44z"/>
		<path style="fill:#FFFFFF;" d="M107.463,244.987l2.188,0.367c-0.281,0.802-0.726,1.413-1.332,1.832s-1.366,0.629-2.277,0.629
			c-1.442,0-2.511-0.472-3.203-1.414c-0.547-0.755-0.82-1.708-0.82-2.859c0-1.375,0.359-2.452,1.078-3.23s1.628-1.168,2.727-1.168
			c1.234,0,2.208,0.407,2.922,1.223s1.055,2.063,1.023,3.746h-5.5c0.016,0.651,0.192,1.157,0.531,1.52s0.761,0.543,1.266,0.543
			c0.344,0,0.633-0.094,0.867-0.281S107.343,245.404,107.463,244.987z M107.588,242.768c-0.016-0.636-0.18-1.118-0.492-1.449
			s-0.692-0.496-1.141-0.496c-0.479,0-0.875,0.175-1.188,0.523s-0.466,0.823-0.461,1.422H107.588z"/>
		<path style="fill:#FFFFFF;" d="M115.362,239.331v1.75h-1.5v3.344c0,0.677,0.015,1.071,0.043,1.184s0.094,0.204,0.195,0.277
			s0.226,0.109,0.371,0.109c0.203,0,0.497-0.07,0.883-0.211l0.188,1.703c-0.511,0.219-1.089,0.328-1.734,0.328
			c-0.396,0-0.753-0.066-1.07-0.199s-0.551-0.305-0.699-0.516s-0.251-0.496-0.309-0.855c-0.047-0.255-0.07-0.771-0.07-1.547v-3.617
			h-1.008v-1.75h1.008v-1.648l2.203-1.281v2.93H115.362z"/>
		<path style="fill:#FFFFFF;" d="M120.69,239.331v1.75h-1.5v3.344c0,0.677,0.015,1.071,0.043,1.184s0.094,0.204,0.195,0.277
			s0.226,0.109,0.371,0.109c0.203,0,0.497-0.07,0.883-0.211l0.188,1.703c-0.511,0.219-1.089,0.328-1.734,0.328
			c-0.396,0-0.753-0.066-1.07-0.199s-0.551-0.305-0.699-0.516s-0.251-0.496-0.309-0.855c-0.047-0.255-0.07-0.771-0.07-1.547v-3.617
			h-1.008v-1.75h1.008v-1.648l2.203-1.281v2.93H120.69z"/>
		<path style="fill:#FFFFFF;" d="M121.174,239.331h2.336l1.984,5.891l1.938-5.891h2.273l-2.93,7.984l-0.523,1.445
			c-0.192,0.484-0.376,0.854-0.551,1.109s-0.375,0.462-0.602,0.621s-0.505,0.282-0.836,0.371s-0.704,0.133-1.121,0.133
			c-0.422,0-0.836-0.044-1.242-0.133l-0.195-1.719c0.344,0.067,0.653,0.102,0.93,0.102c0.511,0,0.888-0.149,1.133-0.449
			s0.433-0.681,0.562-1.145L121.174,239.331z"/>
		<path style="fill:#FFFFFF;" d="M139.706,236.174h2.305v7.25c0,0.948-0.083,1.677-0.25,2.188c-0.224,0.667-0.63,1.202-1.219,1.605
			s-1.364,0.605-2.328,0.605c-1.13,0-2-0.316-2.609-0.949s-0.917-1.562-0.922-2.785l2.18-0.25c0.026,0.656,0.122,1.12,0.289,1.391
			c0.25,0.411,0.63,0.617,1.141,0.617c0.516,0,0.88-0.147,1.094-0.441s0.32-0.905,0.32-1.832V236.174z"/>
		<path style="fill:#FFFFFF;" d="M143.948,243.362c0-0.729,0.18-1.435,0.539-2.117s0.868-1.203,1.527-1.562s1.395-0.539,2.207-0.539
			c1.255,0,2.284,0.407,3.086,1.223s1.203,1.845,1.203,3.09c0,1.255-0.405,2.296-1.215,3.121s-1.829,1.238-3.059,1.238
			c-0.761,0-1.485-0.172-2.176-0.516s-1.215-0.848-1.574-1.512S143.948,244.315,143.948,243.362z M146.198,243.479
			c0,0.823,0.195,1.453,0.586,1.891s0.872,0.656,1.445,0.656s1.054-0.219,1.441-0.656s0.582-1.073,0.582-1.906
			c0-0.812-0.194-1.438-0.582-1.875s-0.868-0.656-1.441-0.656s-1.055,0.219-1.445,0.656S146.198,242.656,146.198,243.479z"/>
		<path style="fill:#FFFFFF;" d="M156.417,236.174v4.211c0.708-0.828,1.555-1.242,2.539-1.242c0.505,0,0.961,0.094,1.367,0.281
			s0.712,0.427,0.918,0.719s0.347,0.614,0.422,0.969s0.113,0.903,0.113,1.648v4.867h-2.195v-4.383c0-0.87-0.042-1.422-0.125-1.656
			s-0.23-0.421-0.441-0.559s-0.476-0.207-0.793-0.207c-0.364,0-0.69,0.089-0.977,0.266s-0.496,0.444-0.629,0.801
			s-0.199,0.884-0.199,1.582v4.156h-2.195v-11.453H156.417z"/>
		<path style="fill:#FFFFFF;" d="M171.549,247.627h-2.195v-4.234c0-0.896-0.047-1.476-0.141-1.738s-0.246-0.468-0.457-0.613
			s-0.465-0.219-0.762-0.219c-0.38,0-0.722,0.104-1.023,0.312s-0.509,0.484-0.621,0.828s-0.168,0.979-0.168,1.906v3.758h-2.195
			v-8.297h2.039v1.219c0.724-0.938,1.636-1.406,2.734-1.406c0.484,0,0.927,0.087,1.328,0.262s0.704,0.397,0.91,0.668
			s0.349,0.578,0.43,0.922s0.121,0.836,0.121,1.477V247.627z"/>
		<path style="fill:#FFFFFF;" d="M173.003,245.26l2.203-0.336c0.094,0.427,0.284,0.751,0.57,0.973s0.688,0.332,1.203,0.332
			c0.567,0,0.995-0.104,1.281-0.312c0.192-0.146,0.289-0.341,0.289-0.586c0-0.167-0.052-0.305-0.156-0.414
			c-0.109-0.104-0.354-0.2-0.734-0.289c-1.771-0.391-2.894-0.747-3.367-1.07c-0.656-0.448-0.984-1.07-0.984-1.867
			c0-0.719,0.284-1.323,0.852-1.812s1.448-0.734,2.641-0.734c1.136,0,1.979,0.185,2.531,0.555s0.933,0.917,1.141,1.641l-2.07,0.383
			c-0.089-0.323-0.257-0.57-0.504-0.742s-0.601-0.258-1.059-0.258c-0.578,0-0.992,0.081-1.242,0.242
			c-0.167,0.114-0.25,0.263-0.25,0.445c0,0.156,0.073,0.289,0.219,0.398c0.198,0.146,0.882,0.352,2.051,0.617
			s1.985,0.591,2.449,0.977c0.458,0.391,0.688,0.935,0.688,1.633c0,0.761-0.317,1.414-0.953,1.961s-1.575,0.82-2.82,0.82
			c-1.13,0-2.024-0.229-2.684-0.688S173.206,246.046,173.003,245.26z"/>
		<path style="fill:#FFFFFF;" d="M182.167,243.362c0-0.729,0.18-1.435,0.539-2.117s0.868-1.203,1.527-1.562s1.395-0.539,2.207-0.539
			c1.255,0,2.284,0.407,3.086,1.223s1.203,1.845,1.203,3.09c0,1.255-0.405,2.296-1.215,3.121s-1.829,1.238-3.059,1.238
			c-0.761,0-1.485-0.172-2.176-0.516s-1.215-0.848-1.574-1.512S182.167,244.315,182.167,243.362z M184.417,243.479
			c0,0.823,0.195,1.453,0.586,1.891s0.872,0.656,1.445,0.656s1.054-0.219,1.441-0.656s0.582-1.073,0.582-1.906
			c0-0.812-0.194-1.438-0.582-1.875s-0.868-0.656-1.441-0.656s-1.055,0.219-1.445,0.656S184.417,242.656,184.417,243.479z"/>
		<path style="fill:#FFFFFF;" d="M199.995,247.627h-2.195v-4.234c0-0.896-0.047-1.476-0.141-1.738s-0.246-0.468-0.457-0.613
			s-0.465-0.219-0.762-0.219c-0.38,0-0.722,0.104-1.023,0.312s-0.509,0.484-0.621,0.828s-0.168,0.979-0.168,1.906v3.758h-2.195
			v-8.297h2.039v1.219c0.724-0.938,1.636-1.406,2.734-1.406c0.484,0,0.927,0.087,1.328,0.262s0.704,0.397,0.91,0.668
			s0.349,0.578,0.43,0.922s0.121,0.836,0.121,1.477V247.627z"/>
		<path style="fill:#FFFFFF;" d="M202.167,236.206h2.195v1.57c0,0.636-0.055,1.137-0.164,1.504s-0.316,0.696-0.621,0.988
			s-0.691,0.521-1.16,0.688l-0.43-0.906c0.442-0.146,0.758-0.347,0.945-0.602s0.286-0.604,0.297-1.047h-1.062V236.206z"/>
		<path style="fill:#FFFFFF;" d="M205.299,245.26l2.203-0.336c0.094,0.427,0.284,0.751,0.57,0.973s0.688,0.332,1.203,0.332
			c0.567,0,0.995-0.104,1.281-0.312c0.192-0.146,0.289-0.341,0.289-0.586c0-0.167-0.052-0.305-0.156-0.414
			c-0.109-0.104-0.354-0.2-0.734-0.289c-1.771-0.391-2.894-0.747-3.367-1.07c-0.656-0.448-0.984-1.07-0.984-1.867
			c0-0.719,0.284-1.323,0.852-1.812s1.448-0.734,2.641-0.734c1.136,0,1.979,0.185,2.531,0.555s0.933,0.917,1.141,1.641l-2.07,0.383
			c-0.089-0.323-0.257-0.57-0.504-0.742s-0.601-0.258-1.059-0.258c-0.578,0-0.992,0.081-1.242,0.242
			c-0.167,0.114-0.25,0.263-0.25,0.445c0,0.156,0.073,0.289,0.219,0.398c0.198,0.146,0.882,0.352,2.051,0.617
			s1.985,0.591,2.449,0.977c0.458,0.391,0.688,0.935,0.688,1.633c0,0.761-0.317,1.414-0.953,1.961s-1.575,0.82-2.82,0.82
			c-1.13,0-2.024-0.229-2.684-0.688S205.503,246.046,205.299,245.26z"/>
		<path style="fill:#FFFFFF;" d="M93.292,254.174v4.211c0.708-0.828,1.555-1.242,2.539-1.242c0.505,0,0.961,0.094,1.367,0.281
			s0.712,0.427,0.918,0.719s0.347,0.614,0.422,0.969s0.113,0.903,0.113,1.648v4.867h-2.195v-4.383c0-0.87-0.042-1.422-0.125-1.656
			s-0.23-0.421-0.441-0.559s-0.476-0.207-0.793-0.207c-0.364,0-0.69,0.089-0.977,0.266s-0.496,0.444-0.629,0.801
			s-0.199,0.884-0.199,1.582v4.156h-2.195v-11.453H93.292z"/>
		<path style="fill:#FFFFFF;" d="M100.37,261.362c0-0.729,0.18-1.435,0.539-2.117s0.868-1.203,1.527-1.562s1.395-0.539,2.207-0.539
			c1.255,0,2.284,0.407,3.086,1.223s1.203,1.845,1.203,3.09c0,1.255-0.405,2.296-1.215,3.121s-1.829,1.238-3.059,1.238
			c-0.761,0-1.485-0.172-2.176-0.516s-1.215-0.848-1.574-1.512S100.37,262.315,100.37,261.362z M102.62,261.479
			c0,0.823,0.195,1.453,0.586,1.891s0.872,0.656,1.445,0.656s1.054-0.219,1.441-0.656s0.582-1.073,0.582-1.906
			c0-0.812-0.194-1.438-0.582-1.875s-0.868-0.656-1.441-0.656s-1.055,0.219-1.445,0.656S102.62,260.656,102.62,261.479z"/>
		<path style="fill:#FFFFFF;" d="M110.487,257.331h2.023v1.133c0.724-0.88,1.586-1.32,2.586-1.32c0.531,0,0.992,0.109,1.383,0.328
			s0.711,0.55,0.961,0.992c0.364-0.442,0.758-0.773,1.18-0.992s0.872-0.328,1.352-0.328c0.609,0,1.125,0.124,1.547,0.371
			s0.737,0.61,0.945,1.09c0.151,0.354,0.227,0.927,0.227,1.719v5.305h-2.195v-4.742c0-0.823-0.075-1.354-0.227-1.594
			c-0.203-0.312-0.516-0.469-0.938-0.469c-0.308,0-0.597,0.094-0.867,0.281s-0.466,0.462-0.586,0.824s-0.18,0.934-0.18,1.715v3.984
			h-2.195v-4.547c0-0.808-0.039-1.328-0.117-1.562s-0.199-0.409-0.363-0.523s-0.387-0.172-0.668-0.172
			c-0.339,0-0.644,0.091-0.914,0.273s-0.465,0.445-0.582,0.789s-0.176,0.914-0.176,1.711v4.031h-2.195V257.331z"/>
		<path style="fill:#FFFFFF;" d="M129.682,262.987l2.188,0.367c-0.281,0.802-0.726,1.413-1.332,1.832s-1.366,0.629-2.277,0.629
			c-1.442,0-2.511-0.472-3.203-1.414c-0.547-0.755-0.82-1.708-0.82-2.859c0-1.375,0.359-2.452,1.078-3.23s1.628-1.168,2.727-1.168
			c1.234,0,2.208,0.407,2.922,1.223s1.055,2.063,1.023,3.746h-5.5c0.016,0.651,0.192,1.157,0.531,1.52s0.761,0.543,1.266,0.543
			c0.344,0,0.633-0.094,0.867-0.281S129.562,263.404,129.682,262.987z M129.807,260.768c-0.016-0.636-0.18-1.118-0.492-1.449
			s-0.692-0.496-1.141-0.496c-0.479,0-0.875,0.175-1.188,0.523s-0.466,0.823-0.461,1.422H129.807z"/>
	</g>
</g>
<line style="fill:none;stroke:#8C001A;stroke-width:2;stroke-miterlimit:10;" x1="267.101" y1="137.405" x2="267.101" y2="114.326"/>
</svg>
