<?xml version="1.0" encoding="utf-8"?>
<!-- Generator: Adobe Illustrator 22.0.1, SVG Export Plug-In . SVG Version: 6.00 Build 0)  -->
<svg version="1.1" id="businesses_gone" xmlns="http://www.w3.org/2000/svg" xmlns:xlink="http://www.w3.org/1999/xlink" x="0px"
	 y="0px" viewBox="0 0 610 622" style="enable-background:new 0 0 610 622;" xml:space="preserve">
<g>
	<ellipse style="fill:none;stroke:#FFFFFF;stroke-width:5;" cx="246.154" cy="136.988" rx="6.696" ry="6.492"/>
	<ellipse style="fill:none;stroke:#D72132;stroke-width:3;" cx="246.154" cy="136.988" rx="6.696" ry="6.492"/>
</g>
<g>
	<ellipse style="fill:none;stroke:#FFFFFF;stroke-width:5;" cx="229.987" cy="137.488" rx="6.696" ry="6.492"/>
	<ellipse style="fill:none;stroke:#D72132;stroke-width:3;" cx="229.987" cy="137.488" rx="6.696" ry="6.492"/>
</g>
<g>
	<ellipse style="fill:none;stroke:#FFFFFF;stroke-width:5;" cx="276.654" cy="136.988" rx="6.696" ry="6.492"/>
	<ellipse style="fill:none;stroke:#D72132;stroke-width:3;" cx="276.654" cy="136.988" rx="6.696" ry="6.492"/>
</g>
<g>
	<ellipse style="fill:none;stroke:#FFFFFF;stroke-width:5;" cx="289.904" cy="136.988" rx="6.696" ry="6.492"/>
	<ellipse style="fill:none;stroke:#D72132;stroke-width:3;" cx="289.904" cy="136.988" rx="6.696" ry="6.492"/>
</g>
<g>
	<polygon points="137.362,338.499 42.957,338.499 42.957,235.832 112.976,235.832 228.987,138.071 126.403,235.832 137.362,235.832 
			"/>
	<g>
		<rect x="51.93" y="243.893" style="fill:none;" width="82.413" height="91.395"/>
		<path style="fill:#FFFFFF;" d="M53.102,243.896h4.578c0.906,0,1.582,0.038,2.027,0.113s0.844,0.233,1.195,0.473
			s0.645,0.559,0.879,0.957s0.352,0.845,0.352,1.34c0,0.536-0.145,1.028-0.434,1.477s-0.681,0.784-1.176,1.008
			c0.698,0.203,1.234,0.55,1.609,1.039s0.562,1.065,0.562,1.727c0,0.521-0.121,1.027-0.363,1.52s-0.573,0.886-0.992,1.18
			s-0.937,0.476-1.551,0.543c-0.386,0.042-1.315,0.067-2.789,0.078h-3.898V243.896z M55.415,245.802v2.648h1.516
			c0.901,0,1.461-0.013,1.68-0.039c0.396-0.047,0.707-0.184,0.934-0.41s0.34-0.524,0.34-0.895c0-0.354-0.098-0.642-0.293-0.863
			s-0.485-0.355-0.871-0.402c-0.229-0.026-0.888-0.039-1.977-0.039H55.415z M55.415,250.357v3.062h2.141
			c0.833,0,1.362-0.023,1.586-0.07c0.344-0.062,0.624-0.215,0.84-0.457s0.324-0.566,0.324-0.973c0-0.344-0.083-0.636-0.25-0.875
			s-0.407-0.414-0.723-0.523s-0.999-0.164-2.051-0.164H55.415z"/>
		<path style="fill:#FFFFFF;" d="M66.735,255.349H64.54v-8.297h2.039v1.18c0.349-0.558,0.663-0.925,0.941-1.102
			s0.595-0.266,0.949-0.266c0.5,0,0.981,0.138,1.445,0.414l-0.68,1.914c-0.37-0.239-0.714-0.359-1.031-0.359
			c-0.308,0-0.567,0.085-0.781,0.254s-0.382,0.476-0.504,0.918s-0.184,1.37-0.184,2.781V255.349z"/>
		<path style="fill:#FFFFFF;" d="M70.352,251.083c0-0.729,0.18-1.435,0.539-2.117s0.868-1.203,1.527-1.562s1.395-0.539,2.207-0.539
			c1.255,0,2.284,0.407,3.086,1.223s1.203,1.845,1.203,3.09c0,1.255-0.405,2.296-1.215,3.121s-1.829,1.238-3.059,1.238
			c-0.761,0-1.485-0.172-2.176-0.516s-1.215-0.848-1.574-1.512S70.352,252.037,70.352,251.083z M72.602,251.201
			c0,0.823,0.195,1.453,0.586,1.891s0.872,0.656,1.445,0.656s1.054-0.219,1.441-0.656s0.582-1.073,0.582-1.906
			c0-0.812-0.194-1.438-0.582-1.875s-0.868-0.656-1.441-0.656s-1.055,0.219-1.445,0.656S72.602,250.377,72.602,251.201z"/>
		<path style="fill:#FFFFFF;" d="M84.438,247.052v1.75h-1.5v3.344c0,0.677,0.015,1.071,0.043,1.184s0.094,0.204,0.195,0.277
			s0.226,0.109,0.371,0.109c0.203,0,0.497-0.07,0.883-0.211l0.188,1.703c-0.511,0.219-1.089,0.328-1.734,0.328
			c-0.396,0-0.753-0.066-1.07-0.199s-0.551-0.305-0.699-0.516s-0.251-0.496-0.309-0.855c-0.047-0.255-0.07-0.771-0.07-1.547v-3.617
			h-1.008v-1.75h1.008v-1.648l2.203-1.281v2.93H84.438z"/>
		<path style="fill:#FFFFFF;" d="M85.797,247.052h2.023v1.133c0.724-0.88,1.586-1.32,2.586-1.32c0.531,0,0.992,0.109,1.383,0.328
			s0.711,0.55,0.961,0.992c0.364-0.442,0.758-0.773,1.18-0.992s0.872-0.328,1.352-0.328c0.609,0,1.125,0.124,1.547,0.371
			s0.737,0.61,0.945,1.09c0.151,0.354,0.227,0.927,0.227,1.719v5.305h-2.195v-4.742c0-0.823-0.075-1.354-0.227-1.594
			c-0.203-0.312-0.516-0.469-0.938-0.469c-0.308,0-0.597,0.094-0.867,0.281s-0.466,0.462-0.586,0.824s-0.18,0.934-0.18,1.715v3.984
			h-2.195v-4.547c0-0.808-0.039-1.328-0.117-1.562s-0.199-0.409-0.363-0.523s-0.387-0.172-0.668-0.172
			c-0.339,0-0.644,0.091-0.914,0.273s-0.465,0.445-0.582,0.789s-0.176,0.914-0.176,1.711v4.031h-2.195V247.052z"/>
		<path style="fill:#FFFFFF;" d="M101.829,249.583l-1.992-0.359c0.224-0.802,0.609-1.396,1.156-1.781s1.359-0.578,2.438-0.578
			c0.979,0,1.708,0.116,2.188,0.348s0.816,0.526,1.012,0.883s0.293,1.012,0.293,1.965l-0.023,2.562c0,0.729,0.035,1.267,0.105,1.613
			s0.202,0.718,0.395,1.113h-2.172c-0.058-0.146-0.128-0.362-0.211-0.648c-0.036-0.13-0.062-0.216-0.078-0.258
			c-0.375,0.364-0.776,0.638-1.203,0.82s-0.883,0.273-1.367,0.273c-0.854,0-1.527-0.231-2.02-0.695s-0.738-1.05-0.738-1.758
			c0-0.469,0.112-0.887,0.336-1.254s0.538-0.648,0.941-0.844s0.985-0.366,1.746-0.512c1.026-0.192,1.737-0.372,2.133-0.539v-0.219
			c0-0.422-0.104-0.723-0.312-0.902s-0.602-0.27-1.18-0.27c-0.391,0-0.695,0.077-0.914,0.23S101.964,249.198,101.829,249.583z
			 M104.766,251.365c-0.281,0.094-0.727,0.206-1.336,0.336s-1.008,0.258-1.195,0.383c-0.286,0.203-0.43,0.461-0.43,0.773
			c0,0.308,0.114,0.573,0.344,0.797s0.521,0.336,0.875,0.336c0.396,0,0.773-0.13,1.133-0.391c0.266-0.198,0.44-0.44,0.523-0.727
			c0.058-0.188,0.086-0.544,0.086-1.07V251.365z"/>
		<path style="fill:#FFFFFF;" d="M116.633,255.349h-2.195v-4.234c0-0.896-0.047-1.476-0.141-1.738s-0.246-0.468-0.457-0.613
			s-0.465-0.219-0.762-0.219c-0.38,0-0.722,0.104-1.023,0.312s-0.509,0.484-0.621,0.828s-0.168,0.979-0.168,1.906v3.758h-2.195
			v-8.297h2.039v1.219c0.724-0.938,1.636-1.406,2.734-1.406c0.484,0,0.927,0.087,1.328,0.262s0.704,0.397,0.91,0.668
			s0.349,0.578,0.43,0.922s0.121,0.836,0.121,1.477V255.349z"/>
		<path style="fill:#FFFFFF;" d="M118.805,243.927h2.195v1.57c0,0.636-0.055,1.137-0.164,1.504s-0.316,0.696-0.621,0.988
			s-0.691,0.521-1.16,0.688l-0.43-0.906c0.442-0.146,0.758-0.347,0.945-0.602s0.286-0.604,0.297-1.047h-1.062V243.927z"/>
		<path style="fill:#FFFFFF;" d="M121.938,252.982l2.203-0.336c0.094,0.427,0.284,0.751,0.57,0.973s0.688,0.332,1.203,0.332
			c0.567,0,0.995-0.104,1.281-0.312c0.192-0.146,0.289-0.341,0.289-0.586c0-0.167-0.052-0.305-0.156-0.414
			c-0.109-0.104-0.354-0.2-0.734-0.289c-1.771-0.391-2.894-0.747-3.367-1.07c-0.656-0.448-0.984-1.07-0.984-1.867
			c0-0.719,0.284-1.323,0.852-1.812s1.448-0.734,2.641-0.734c1.136,0,1.979,0.185,2.531,0.555s0.933,0.917,1.141,1.641l-2.07,0.383
			c-0.089-0.323-0.257-0.57-0.504-0.742s-0.601-0.258-1.059-0.258c-0.578,0-0.992,0.081-1.242,0.242
			c-0.167,0.114-0.25,0.263-0.25,0.445c0,0.156,0.073,0.289,0.219,0.398c0.198,0.146,0.882,0.352,2.051,0.617
			s1.985,0.591,2.449,0.977c0.458,0.391,0.688,0.935,0.688,1.633c0,0.761-0.317,1.414-0.953,1.961s-1.575,0.82-2.82,0.82
			c-1.13,0-2.024-0.229-2.684-0.688S122.141,253.768,121.938,252.982z"/>
		<path style="fill:#FFFFFF;" d="M60.422,269.138l2.242,0.711c-0.344,1.25-0.915,2.179-1.715,2.785s-1.813,0.91-3.043,0.91
			c-1.521,0-2.771-0.52-3.75-1.559s-1.469-2.46-1.469-4.262c0-1.906,0.492-3.387,1.477-4.441s2.278-1.582,3.883-1.582
			c1.401,0,2.539,0.414,3.414,1.242c0.521,0.489,0.911,1.192,1.172,2.109l-2.289,0.547c-0.136-0.594-0.418-1.062-0.848-1.406
			s-0.952-0.516-1.566-0.516c-0.849,0-1.538,0.305-2.066,0.914s-0.793,1.597-0.793,2.961c0,1.448,0.261,2.479,0.781,3.094
			s1.198,0.922,2.031,0.922c0.614,0,1.144-0.195,1.586-0.586S60.23,269.977,60.422,269.138z"/>
		<path style="fill:#FFFFFF;" d="M64.633,273.349v-11.453h2.195v11.453H64.633z"/>
		<path style="fill:#FFFFFF;" d="M68.571,269.083c0-0.729,0.18-1.435,0.539-2.117s0.868-1.203,1.527-1.562s1.395-0.539,2.207-0.539
			c1.255,0,2.284,0.407,3.086,1.223s1.203,1.845,1.203,3.09c0,1.255-0.405,2.296-1.215,3.121s-1.829,1.238-3.059,1.238
			c-0.761,0-1.485-0.172-2.176-0.516s-1.215-0.848-1.574-1.512S68.571,270.037,68.571,269.083z M70.821,269.201
			c0,0.823,0.195,1.453,0.586,1.891s0.872,0.656,1.445,0.656s1.054-0.219,1.441-0.656s0.582-1.073,0.582-1.906
			c0-0.812-0.194-1.438-0.582-1.875s-0.868-0.656-1.441-0.656s-1.055,0.219-1.445,0.656S70.821,268.377,70.821,269.201z"/>
		<path style="fill:#FFFFFF;" d="M82.657,265.052v1.75h-1.5v3.344c0,0.677,0.015,1.071,0.043,1.184s0.094,0.204,0.195,0.277
			s0.226,0.109,0.371,0.109c0.203,0,0.497-0.07,0.883-0.211l0.188,1.703c-0.511,0.219-1.089,0.328-1.734,0.328
			c-0.396,0-0.753-0.066-1.07-0.199s-0.551-0.305-0.699-0.516s-0.251-0.496-0.309-0.855c-0.047-0.255-0.07-0.771-0.07-1.547v-3.617
			h-1.008v-1.75h1.008v-1.648l2.203-1.281v2.93H82.657z"/>
		<path style="fill:#FFFFFF;" d="M86.368,261.896v4.211c0.708-0.828,1.555-1.242,2.539-1.242c0.505,0,0.961,0.094,1.367,0.281
			s0.712,0.427,0.918,0.719s0.347,0.614,0.422,0.969s0.113,0.903,0.113,1.648v4.867h-2.195v-4.383c0-0.87-0.042-1.422-0.125-1.656
			s-0.23-0.421-0.441-0.559s-0.476-0.207-0.793-0.207c-0.364,0-0.69,0.089-0.977,0.266s-0.496,0.444-0.629,0.801
			s-0.199,0.884-0.199,1.582v4.156h-2.195v-11.453H86.368z"/>
		<path style="fill:#FFFFFF;" d="M93.954,263.927v-2.031h2.195v2.031H93.954z M93.954,273.349v-8.297h2.195v8.297H93.954z"/>
		<path style="fill:#FFFFFF;" d="M105.946,273.349h-2.195v-4.234c0-0.896-0.047-1.476-0.141-1.738s-0.246-0.468-0.457-0.613
			s-0.465-0.219-0.762-0.219c-0.38,0-0.722,0.104-1.023,0.312s-0.509,0.484-0.621,0.828s-0.168,0.979-0.168,1.906v3.758h-2.195
			v-8.297h2.039v1.219c0.724-0.938,1.636-1.406,2.734-1.406c0.484,0,0.927,0.087,1.328,0.262s0.704,0.397,0.91,0.668
			s0.349,0.578,0.43,0.922s0.121,0.836,0.121,1.477V273.349z"/>
		<path style="fill:#FFFFFF;" d="M107.969,273.896l2.508,0.305c0.042,0.292,0.138,0.492,0.289,0.602
			c0.208,0.156,0.536,0.234,0.984,0.234c0.573,0,1.003-0.086,1.289-0.258c0.192-0.114,0.339-0.3,0.438-0.555
			c0.067-0.183,0.102-0.519,0.102-1.008v-1.211c-0.656,0.896-1.484,1.344-2.484,1.344c-1.114,0-1.997-0.472-2.648-1.414
			c-0.511-0.745-0.766-1.672-0.766-2.781c0-1.391,0.335-2.453,1.004-3.188s1.501-1.102,2.496-1.102c1.026,0,1.872,0.45,2.539,1.352
			v-1.164h2.055v7.445c0,0.979-0.081,1.711-0.242,2.195s-0.388,0.864-0.68,1.141s-0.681,0.492-1.168,0.648s-1.103,0.234-1.848,0.234
			c-1.406,0-2.403-0.241-2.992-0.723s-0.883-1.093-0.883-1.832C107.962,274.088,107.964,274,107.969,273.896z M109.93,269.029
			c0,0.88,0.171,1.524,0.512,1.934s0.762,0.613,1.262,0.613c0.536,0,0.989-0.21,1.359-0.629s0.555-1.04,0.555-1.863
			c0-0.859-0.177-1.497-0.531-1.914s-0.802-0.625-1.344-0.625c-0.526,0-0.96,0.204-1.301,0.613S109.93,268.19,109.93,269.029z"/>
		<path style="fill:#FFFFFF;" d="M52.508,287.623l2.25-0.219c0.136,0.755,0.41,1.31,0.824,1.664s0.973,0.531,1.676,0.531
			c0.745,0,1.306-0.157,1.684-0.473s0.566-0.684,0.566-1.105c0-0.271-0.079-0.501-0.238-0.691s-0.437-0.355-0.832-0.496
			c-0.271-0.094-0.888-0.261-1.852-0.5c-1.239-0.308-2.109-0.685-2.609-1.133c-0.703-0.63-1.055-1.398-1.055-2.305
			c0-0.583,0.165-1.129,0.496-1.637s0.808-0.895,1.43-1.16s1.374-0.398,2.254-0.398c1.438,0,2.52,0.315,3.246,0.945
			s1.108,1.472,1.145,2.523l-2.312,0.102c-0.099-0.589-0.312-1.012-0.637-1.27s-0.813-0.387-1.465-0.387
			c-0.672,0-1.198,0.138-1.578,0.414c-0.245,0.177-0.367,0.414-0.367,0.711c0,0.271,0.114,0.503,0.344,0.695
			c0.292,0.245,1,0.5,2.125,0.766s1.957,0.54,2.496,0.824s0.961,0.672,1.266,1.164s0.457,1.101,0.457,1.824
			c0,0.656-0.183,1.271-0.547,1.844s-0.88,0.999-1.547,1.277s-1.497,0.418-2.492,0.418c-1.448,0-2.56-0.335-3.336-1.004
			S52.66,288.904,52.508,287.623z"/>
		<path style="fill:#FFFFFF;" d="M67.555,283.052v1.75h-1.5v3.344c0,0.677,0.015,1.071,0.043,1.184s0.094,0.204,0.195,0.277
			s0.226,0.109,0.371,0.109c0.203,0,0.497-0.07,0.883-0.211l0.188,1.703c-0.511,0.219-1.089,0.328-1.734,0.328
			c-0.396,0-0.753-0.066-1.07-0.199s-0.551-0.305-0.699-0.516s-0.251-0.496-0.309-0.855c-0.047-0.255-0.07-0.771-0.07-1.547v-3.617
			h-1.008v-1.75h1.008v-1.648l2.203-1.281v2.93H67.555z"/>
		<path style="fill:#FFFFFF;" d="M68.571,287.083c0-0.729,0.18-1.435,0.539-2.117s0.868-1.203,1.527-1.562s1.395-0.539,2.207-0.539
			c1.255,0,2.284,0.407,3.086,1.223s1.203,1.845,1.203,3.09c0,1.255-0.405,2.296-1.215,3.121s-1.829,1.238-3.059,1.238
			c-0.761,0-1.485-0.172-2.176-0.516s-1.215-0.848-1.574-1.512S68.571,288.037,68.571,287.083z M70.821,287.201
			c0,0.823,0.195,1.453,0.586,1.891s0.872,0.656,1.445,0.656s1.054-0.219,1.441-0.656s0.582-1.073,0.582-1.906
			c0-0.812-0.194-1.438-0.582-1.875s-0.868-0.656-1.441-0.656s-1.055,0.219-1.445,0.656S70.821,286.377,70.821,287.201z"/>
		<path style="fill:#FFFFFF;" d="M80.954,291.349h-2.195v-8.297h2.039v1.18c0.349-0.558,0.663-0.925,0.941-1.102
			s0.595-0.266,0.949-0.266c0.5,0,0.981,0.138,1.445,0.414l-0.68,1.914c-0.37-0.239-0.714-0.359-1.031-0.359
			c-0.308,0-0.567,0.085-0.781,0.254s-0.382,0.476-0.504,0.918s-0.184,1.37-0.184,2.781V291.349z"/>
		<path style="fill:#FFFFFF;" d="M89.883,288.708l2.188,0.367c-0.281,0.802-0.726,1.413-1.332,1.832s-1.366,0.629-2.277,0.629
			c-1.442,0-2.511-0.472-3.203-1.414c-0.547-0.755-0.82-1.708-0.82-2.859c0-1.375,0.359-2.452,1.078-3.23s1.628-1.168,2.727-1.168
			c1.234,0,2.208,0.407,2.922,1.223s1.055,2.063,1.023,3.746h-5.5c0.016,0.651,0.192,1.157,0.531,1.52s0.761,0.543,1.266,0.543
			c0.344,0,0.633-0.094,0.867-0.281S89.763,289.125,89.883,288.708z M90.008,286.49c-0.016-0.636-0.18-1.118-0.492-1.449
			s-0.692-0.496-1.141-0.496c-0.479,0-0.875,0.175-1.188,0.523s-0.466,0.823-0.461,1.422H90.008z"/>
		<path style="fill:#FFFFFF;" d="M100.063,285.583l-1.992-0.359c0.224-0.802,0.609-1.396,1.156-1.781s1.359-0.578,2.438-0.578
			c0.979,0,1.708,0.116,2.188,0.348s0.816,0.526,1.012,0.883s0.293,1.012,0.293,1.965l-0.023,2.562c0,0.729,0.035,1.267,0.105,1.613
			s0.202,0.718,0.395,1.113h-2.172c-0.058-0.146-0.128-0.362-0.211-0.648c-0.036-0.13-0.062-0.216-0.078-0.258
			c-0.375,0.364-0.776,0.638-1.203,0.82s-0.883,0.273-1.367,0.273c-0.854,0-1.527-0.231-2.02-0.695s-0.738-1.05-0.738-1.758
			c0-0.469,0.112-0.887,0.336-1.254s0.538-0.648,0.941-0.844s0.985-0.366,1.746-0.512c1.026-0.192,1.737-0.372,2.133-0.539v-0.219
			c0-0.422-0.104-0.723-0.312-0.902s-0.602-0.27-1.18-0.27c-0.391,0-0.695,0.077-0.914,0.23S100.199,285.198,100.063,285.583z
			 M103.001,287.365c-0.281,0.094-0.727,0.206-1.336,0.336s-1.008,0.258-1.195,0.383c-0.286,0.203-0.43,0.461-0.43,0.773
			c0,0.308,0.114,0.573,0.344,0.797s0.521,0.336,0.875,0.336c0.396,0,0.773-0.13,1.133-0.391c0.266-0.198,0.44-0.44,0.523-0.727
			c0.058-0.188,0.086-0.544,0.086-1.07V287.365z"/>
		<path style="fill:#FFFFFF;" d="M114.868,291.349h-2.195v-4.234c0-0.896-0.047-1.476-0.141-1.738s-0.246-0.468-0.457-0.613
			s-0.465-0.219-0.762-0.219c-0.38,0-0.722,0.104-1.023,0.312s-0.509,0.484-0.621,0.828s-0.168,0.979-0.168,1.906v3.758h-2.195
			v-8.297h2.039v1.219c0.724-0.938,1.636-1.406,2.734-1.406c0.484,0,0.927,0.087,1.328,0.262s0.704,0.397,0.91,0.668
			s0.349,0.578,0.43,0.922s0.121,0.836,0.121,1.477V291.349z"/>
		<path style="fill:#FFFFFF;" d="M124.704,291.349h-2.039v-1.219c-0.339,0.474-0.738,0.827-1.199,1.059s-0.926,0.348-1.395,0.348
			c-0.953,0-1.77-0.384-2.449-1.152s-1.02-1.84-1.02-3.215c0-1.406,0.331-2.476,0.992-3.207s1.497-1.098,2.508-1.098
			c0.927,0,1.729,0.386,2.406,1.156v-4.125h2.195V291.349z M118.844,287.021c0,0.886,0.122,1.526,0.367,1.922
			c0.354,0.573,0.849,0.859,1.484,0.859c0.505,0,0.935-0.215,1.289-0.645s0.531-1.071,0.531-1.926c0-0.953-0.172-1.64-0.516-2.059
			s-0.784-0.629-1.32-0.629c-0.521,0-0.957,0.207-1.309,0.621S118.844,286.198,118.844,287.021z"/>
		<path style="fill:#FFFFFF;" d="M53.102,309.349v-11.453h4.867c1.224,0,2.113,0.103,2.668,0.309s0.999,0.571,1.332,1.098
			s0.5,1.128,0.5,1.805c0,0.859-0.253,1.569-0.758,2.129s-1.261,0.913-2.266,1.059c0.5,0.292,0.913,0.612,1.238,0.961
			s0.765,0.969,1.316,1.859l1.398,2.234h-2.766l-1.672-2.492c-0.594-0.891-1-1.452-1.219-1.684s-0.45-0.391-0.695-0.477
			s-0.633-0.129-1.164-0.129h-0.469v4.781H53.102z M55.415,302.74h1.711c1.109,0,1.802-0.047,2.078-0.141s0.492-0.255,0.648-0.484
			s0.234-0.516,0.234-0.859c0-0.386-0.103-0.696-0.309-0.934s-0.496-0.387-0.871-0.449c-0.188-0.026-0.75-0.039-1.688-0.039h-1.805
			V302.74z"/>
		<path style="fill:#FFFFFF;" d="M64.126,305.083c0-0.729,0.18-1.435,0.539-2.117s0.868-1.203,1.527-1.562s1.395-0.539,2.207-0.539
			c1.255,0,2.284,0.407,3.086,1.223s1.203,1.845,1.203,3.09c0,1.255-0.405,2.296-1.215,3.121s-1.829,1.238-3.059,1.238
			c-0.761,0-1.485-0.172-2.176-0.516s-1.215-0.848-1.574-1.512S64.126,306.037,64.126,305.083z M66.376,305.201
			c0,0.823,0.195,1.453,0.586,1.891s0.872,0.656,1.445,0.656s1.054-0.219,1.441-0.656s0.582-1.073,0.582-1.906
			c0-0.812-0.194-1.438-0.582-1.875s-0.868-0.656-1.441-0.656s-1.055,0.219-1.445,0.656S66.376,304.377,66.376,305.201z"/>
		<path style="fill:#FFFFFF;" d="M73.633,306.982l2.203-0.336c0.094,0.427,0.284,0.751,0.57,0.973s0.688,0.332,1.203,0.332
			c0.567,0,0.995-0.104,1.281-0.312c0.192-0.146,0.289-0.341,0.289-0.586c0-0.167-0.052-0.305-0.156-0.414
			c-0.109-0.104-0.354-0.2-0.734-0.289c-1.771-0.391-2.894-0.747-3.367-1.07c-0.656-0.448-0.984-1.07-0.984-1.867
			c0-0.719,0.284-1.323,0.852-1.812s1.448-0.734,2.641-0.734c1.136,0,1.979,0.185,2.531,0.555s0.933,0.917,1.141,1.641l-2.07,0.383
			c-0.089-0.323-0.257-0.57-0.504-0.742s-0.601-0.258-1.059-0.258c-0.578,0-0.992,0.081-1.242,0.242
			c-0.167,0.114-0.25,0.263-0.25,0.445c0,0.156,0.073,0.289,0.219,0.398c0.198,0.146,0.882,0.352,2.051,0.617
			s1.985,0.591,2.449,0.977c0.458,0.391,0.688,0.935,0.688,1.633c0,0.761-0.317,1.414-0.953,1.961s-1.575,0.82-2.82,0.82
			c-1.13,0-2.024-0.229-2.684-0.688S73.837,307.768,73.633,306.982z"/>
		<path style="fill:#FFFFFF;" d="M88.11,306.708l2.188,0.367c-0.281,0.802-0.726,1.413-1.332,1.832s-1.366,0.629-2.277,0.629
			c-1.442,0-2.511-0.472-3.203-1.414c-0.547-0.755-0.82-1.708-0.82-2.859c0-1.375,0.359-2.452,1.078-3.23s1.628-1.168,2.727-1.168
			c1.234,0,2.208,0.407,2.922,1.223s1.055,2.063,1.023,3.746h-5.5c0.016,0.651,0.192,1.157,0.531,1.52s0.761,0.543,1.266,0.543
			c0.344,0,0.633-0.094,0.867-0.281S87.99,307.125,88.11,306.708z M88.235,304.49c-0.016-0.636-0.18-1.118-0.492-1.449
			s-0.692-0.496-1.141-0.496c-0.479,0-0.875,0.175-1.188,0.523s-0.466,0.823-0.461,1.422H88.235z"/>
		<path style="fill:#FFFFFF;" d="M99.751,309.349h-2.195v-4.234c0-0.896-0.047-1.476-0.141-1.738s-0.246-0.468-0.457-0.613
			s-0.465-0.219-0.762-0.219c-0.38,0-0.722,0.104-1.023,0.312s-0.509,0.484-0.621,0.828s-0.168,0.979-0.168,1.906v3.758h-2.195
			v-8.297h2.039v1.219c0.724-0.938,1.636-1.406,2.734-1.406c0.484,0,0.927,0.087,1.328,0.262s0.704,0.397,0.91,0.668
			s0.349,0.578,0.43,0.922s0.121,0.836,0.121,1.477V309.349z"/>
		<path style="fill:#FFFFFF;" d="M103.618,303.583l-1.992-0.359c0.224-0.802,0.609-1.396,1.156-1.781s1.359-0.578,2.438-0.578
			c0.979,0,1.708,0.116,2.188,0.348s0.816,0.526,1.012,0.883s0.293,1.012,0.293,1.965l-0.023,2.562c0,0.729,0.035,1.267,0.105,1.613
			s0.202,0.718,0.395,1.113h-2.172c-0.058-0.146-0.128-0.362-0.211-0.648c-0.036-0.13-0.062-0.216-0.078-0.258
			c-0.375,0.364-0.776,0.638-1.203,0.82s-0.883,0.273-1.367,0.273c-0.854,0-1.527-0.231-2.02-0.695s-0.738-1.05-0.738-1.758
			c0-0.469,0.112-0.887,0.336-1.254s0.538-0.648,0.941-0.844s0.985-0.366,1.746-0.512c1.026-0.192,1.737-0.372,2.133-0.539v-0.219
			c0-0.422-0.104-0.723-0.312-0.902s-0.602-0.27-1.18-0.27c-0.391,0-0.695,0.077-0.914,0.23S103.753,303.198,103.618,303.583z
			 M106.555,305.365c-0.281,0.094-0.727,0.206-1.336,0.336s-1.008,0.258-1.195,0.383c-0.286,0.203-0.43,0.461-0.43,0.773
			c0,0.308,0.114,0.573,0.344,0.797s0.521,0.336,0.875,0.336c0.396,0,0.773-0.13,1.133-0.391c0.266-0.198,0.44-0.44,0.523-0.727
			c0.058-0.188,0.086-0.544,0.086-1.07V305.365z"/>
		<path style="fill:#FFFFFF;" d="M116.337,309.349v-1.242c-0.302,0.442-0.699,0.792-1.191,1.047s-1.012,0.383-1.559,0.383
			c-0.558,0-1.058-0.122-1.5-0.367s-0.763-0.589-0.961-1.031s-0.297-1.055-0.297-1.836v-5.25h2.195v3.812
			c0,1.167,0.04,1.882,0.121,2.145s0.228,0.472,0.441,0.625s0.484,0.23,0.812,0.23c0.375,0,0.711-0.103,1.008-0.309
			s0.5-0.461,0.609-0.766s0.164-1.051,0.164-2.238v-3.5h2.195v8.297H116.337z"/>
		<path style="fill:#FFFFFF;" d="M57.227,315.896h2.305v7.25c0,0.948-0.083,1.677-0.25,2.188c-0.224,0.667-0.63,1.202-1.219,1.605
			s-1.364,0.605-2.328,0.605c-1.13,0-2-0.316-2.609-0.949s-0.917-1.562-0.922-2.785l2.18-0.25c0.026,0.656,0.122,1.12,0.289,1.391
			c0.25,0.411,0.63,0.617,1.141,0.617c0.516,0,0.88-0.147,1.094-0.441s0.32-0.905,0.32-1.832V315.896z"/>
		<path style="fill:#FFFFFF;" d="M66.782,324.708l2.188,0.367c-0.281,0.802-0.726,1.413-1.332,1.832s-1.366,0.629-2.277,0.629
			c-1.442,0-2.511-0.472-3.203-1.414c-0.547-0.755-0.82-1.708-0.82-2.859c0-1.375,0.359-2.452,1.078-3.23s1.628-1.168,2.727-1.168
			c1.234,0,2.208,0.407,2.922,1.223s1.055,2.063,1.023,3.746h-5.5c0.016,0.651,0.192,1.157,0.531,1.52
			c0.339,0.362,0.761,0.543,1.266,0.543c0.344,0,0.633-0.094,0.867-0.281S66.662,325.125,66.782,324.708z M66.907,322.49
			c-0.016-0.636-0.18-1.118-0.492-1.449s-0.692-0.496-1.141-0.496c-0.479,0-0.875,0.175-1.188,0.523
			c-0.312,0.349-0.466,0.823-0.461,1.422H66.907z"/>
		<path style="fill:#FFFFFF;" d="M72.422,327.349l-2.625-8.297h2.133l1.555,5.438l1.43-5.438h2.117l1.383,5.438l1.586-5.438h2.164
			l-2.664,8.297h-2.109l-1.43-5.336l-1.406,5.336H72.422z"/>
		<path style="fill:#FFFFFF;" d="M88.126,324.708l2.188,0.367c-0.281,0.802-0.726,1.413-1.332,1.832s-1.366,0.629-2.277,0.629
			c-1.442,0-2.511-0.472-3.203-1.414c-0.547-0.755-0.82-1.708-0.82-2.859c0-1.375,0.359-2.452,1.078-3.23s1.628-1.168,2.727-1.168
			c1.234,0,2.208,0.407,2.922,1.223s1.055,2.063,1.023,3.746h-5.5c0.016,0.651,0.192,1.157,0.531,1.52s0.761,0.543,1.266,0.543
			c0.344,0,0.633-0.094,0.867-0.281S88.005,325.125,88.126,324.708z M88.251,322.49c-0.016-0.636-0.18-1.118-0.492-1.449
			s-0.692-0.496-1.141-0.496c-0.479,0-0.875,0.175-1.188,0.523s-0.466,0.823-0.461,1.422H88.251z"/>
		<path style="fill:#FFFFFF;" d="M92.219,327.349v-11.453h2.195v11.453H92.219z"/>
		<path style="fill:#FFFFFF;" d="M101.469,324.708l2.188,0.367c-0.281,0.802-0.726,1.413-1.332,1.832s-1.366,0.629-2.277,0.629
			c-1.442,0-2.511-0.472-3.203-1.414c-0.547-0.755-0.82-1.708-0.82-2.859c0-1.375,0.359-2.452,1.078-3.23s1.628-1.168,2.727-1.168
			c1.234,0,2.208,0.407,2.922,1.223s1.055,2.063,1.023,3.746h-5.5c0.016,0.651,0.192,1.157,0.531,1.52s0.761,0.543,1.266,0.543
			c0.344,0,0.633-0.094,0.867-0.281S101.349,325.125,101.469,324.708z M101.594,322.49c-0.016-0.636-0.18-1.118-0.492-1.449
			s-0.692-0.496-1.141-0.496c-0.479,0-0.875,0.175-1.188,0.523s-0.466,0.823-0.461,1.422H101.594z"/>
		<path style="fill:#FFFFFF;" d="M107.665,327.349h-2.195v-8.297h2.039v1.18c0.349-0.558,0.663-0.925,0.941-1.102
			s0.595-0.266,0.949-0.266c0.5,0,0.981,0.138,1.445,0.414l-0.68,1.914c-0.37-0.239-0.714-0.359-1.031-0.359
			c-0.308,0-0.567,0.085-0.781,0.254s-0.382,0.476-0.504,0.918s-0.184,1.37-0.184,2.781V327.349z"/>
		<path style="fill:#FFFFFF;" d="M111.016,324.982l2.203-0.336c0.094,0.427,0.284,0.751,0.57,0.973s0.688,0.332,1.203,0.332
			c0.567,0,0.995-0.104,1.281-0.312c0.192-0.146,0.289-0.341,0.289-0.586c0-0.167-0.052-0.305-0.156-0.414
			c-0.109-0.104-0.354-0.2-0.734-0.289c-1.771-0.391-2.894-0.747-3.367-1.07c-0.656-0.448-0.984-1.07-0.984-1.867
			c0-0.719,0.284-1.323,0.852-1.812s1.448-0.734,2.641-0.734c1.136,0,1.979,0.185,2.531,0.555s0.933,0.917,1.141,1.641l-2.07,0.383
			c-0.089-0.323-0.257-0.57-0.504-0.742s-0.601-0.258-1.059-0.258c-0.578,0-0.992,0.081-1.242,0.242
			c-0.167,0.114-0.25,0.263-0.25,0.445c0,0.156,0.073,0.289,0.219,0.398c0.198,0.146,0.882,0.352,2.051,0.617
			s1.985,0.591,2.449,0.977c0.458,0.391,0.688,0.935,0.688,1.633c0,0.761-0.317,1.414-0.953,1.961s-1.575,0.82-2.82,0.82
			c-1.13,0-2.024-0.229-2.684-0.688S111.219,325.768,111.016,324.982z"/>
	</g>
</g>
<g>
	<polygon points="237.279,59.997 312.282,59.997 312.282,107.164 284.82,107.164 276.654,137.826 274.154,107.164 237.279,107.164 
		237.279,85.134 237.279,74.134 	"/>
	<g>
		<rect x="244.315" y="67.266" style="fill:none;" width="65.168" height="31.296"/>
		<path style="fill:#FFFFFF;" d="M245.409,78.722V67.269h2.312v11.453H245.409z"/>
		<path style="fill:#FFFFFF;" d="M249.745,70.425h2.023v1.133c0.724-0.88,1.586-1.32,2.586-1.32c0.531,0,0.992,0.109,1.383,0.328
			c0.391,0.219,0.711,0.55,0.961,0.992c0.364-0.442,0.758-0.773,1.18-0.992s0.872-0.328,1.352-0.328
			c0.609,0,1.125,0.124,1.547,0.371s0.737,0.61,0.945,1.09c0.151,0.354,0.227,0.927,0.227,1.719v5.305h-2.195V73.98
			c0-0.823-0.075-1.354-0.227-1.594c-0.203-0.312-0.516-0.469-0.938-0.469c-0.308,0-0.597,0.094-0.867,0.281
			s-0.466,0.462-0.586,0.824s-0.18,0.934-0.18,1.715v3.984h-2.195v-4.547c0-0.808-0.039-1.328-0.117-1.562s-0.199-0.409-0.363-0.523
			s-0.387-0.172-0.668-0.172c-0.339,0-0.644,0.091-0.914,0.273s-0.465,0.445-0.582,0.789s-0.176,0.914-0.176,1.711v4.031h-2.195
			V70.425z"/>
		<path style="fill:#FFFFFF;" d="M264.073,70.425h2.047v1.219c0.266-0.417,0.625-0.755,1.078-1.016s0.956-0.391,1.508-0.391
			c0.964,0,1.781,0.378,2.453,1.133s1.008,1.808,1.008,3.156c0,1.386-0.339,2.462-1.016,3.23s-1.497,1.152-2.461,1.152
			c-0.458,0-0.874-0.091-1.246-0.273s-0.765-0.495-1.176-0.938v4.18h-2.195V70.425z M266.245,74.433
			c0,0.933,0.185,1.621,0.555,2.066s0.82,0.668,1.352,0.668c0.511,0,0.935-0.204,1.273-0.613s0.508-1.079,0.508-2.012
			c0-0.87-0.175-1.516-0.523-1.938s-0.781-0.633-1.297-0.633c-0.536,0-0.981,0.207-1.336,0.621S266.245,73.621,266.245,74.433z"/>
		<path style="fill:#FFFFFF;" d="M278.713,76.082l2.188,0.367c-0.281,0.802-0.726,1.413-1.332,1.832s-1.366,0.629-2.277,0.629
			c-1.442,0-2.511-0.472-3.203-1.414c-0.547-0.755-0.82-1.708-0.82-2.859c0-1.375,0.359-2.452,1.078-3.23s1.628-1.168,2.727-1.168
			c1.234,0,2.208,0.407,2.922,1.223s1.055,2.063,1.023,3.746h-5.5c0.016,0.651,0.192,1.157,0.531,1.52s0.761,0.543,1.266,0.543
			c0.344,0,0.633-0.094,0.867-0.281S278.593,76.499,278.713,76.082z M278.838,73.863c-0.016-0.636-0.18-1.118-0.492-1.449
			s-0.692-0.496-1.141-0.496c-0.479,0-0.875,0.175-1.188,0.523s-0.466,0.823-0.461,1.422H278.838z"/>
		<path style="fill:#FFFFFF;" d="M284.909,78.722h-2.195v-8.297h2.039v1.18c0.349-0.558,0.663-0.925,0.941-1.102
			s0.595-0.266,0.949-0.266c0.5,0,0.981,0.138,1.445,0.414l-0.68,1.914c-0.37-0.239-0.714-0.359-1.031-0.359
			c-0.308,0-0.567,0.085-0.781,0.254s-0.382,0.476-0.504,0.918s-0.184,1.37-0.184,2.781V78.722z"/>
		<path style="fill:#FFFFFF;" d="M289.034,69.3v-2.031h2.195V69.3H289.034z M289.034,78.722v-8.297h2.195v8.297H289.034z"/>
		<path style="fill:#FFFFFF;" d="M295.12,72.957l-1.992-0.359c0.224-0.802,0.609-1.396,1.156-1.781s1.359-0.578,2.438-0.578
			c0.979,0,1.708,0.116,2.188,0.348s0.816,0.526,1.012,0.883s0.293,1.012,0.293,1.965l-0.023,2.562c0,0.729,0.035,1.267,0.105,1.613
			s0.202,0.718,0.395,1.113h-2.172c-0.058-0.146-0.128-0.362-0.211-0.648c-0.036-0.13-0.062-0.216-0.078-0.258
			c-0.375,0.364-0.776,0.638-1.203,0.82s-0.883,0.273-1.367,0.273c-0.854,0-1.527-0.231-2.02-0.695s-0.738-1.05-0.738-1.758
			c0-0.469,0.112-0.887,0.336-1.254s0.538-0.648,0.941-0.844s0.985-0.366,1.746-0.512c1.026-0.192,1.737-0.372,2.133-0.539v-0.219
			c0-0.422-0.104-0.723-0.312-0.902s-0.602-0.27-1.18-0.27c-0.391,0-0.695,0.077-0.914,0.23S295.255,72.571,295.12,72.957z
			 M298.057,74.738c-0.281,0.094-0.727,0.206-1.336,0.336s-1.008,0.258-1.195,0.383c-0.286,0.203-0.43,0.461-0.43,0.773
			c0,0.308,0.114,0.573,0.344,0.797s0.521,0.336,0.875,0.336c0.396,0,0.773-0.13,1.133-0.391c0.266-0.198,0.44-0.44,0.523-0.727
			c0.058-0.188,0.086-0.544,0.086-1.07V74.738z"/>
		<path style="fill:#FFFFFF;" d="M302.378,78.722V67.269h2.195v11.453H302.378z"/>
		<path style="fill:#FFFFFF;" d="M249.268,88.425v1.75h-1.5v3.344c0,0.677,0.015,1.071,0.043,1.184s0.094,0.204,0.195,0.277
			s0.226,0.109,0.371,0.109c0.203,0,0.497-0.07,0.883-0.211l0.188,1.703c-0.511,0.219-1.089,0.328-1.734,0.328
			c-0.396,0-0.753-0.066-1.07-0.199s-0.551-0.305-0.699-0.516s-0.251-0.496-0.309-0.855c-0.047-0.255-0.07-0.771-0.07-1.547v-3.617
			h-1.008v-1.75h1.008v-1.648l2.203-1.281v2.93H249.268z"/>
		<path style="fill:#FFFFFF;" d="M252.979,85.269v4.211c0.708-0.828,1.555-1.242,2.539-1.242c0.505,0,0.961,0.094,1.367,0.281
			s0.712,0.427,0.918,0.719s0.347,0.614,0.422,0.969s0.113,0.903,0.113,1.648v4.867h-2.195v-4.383c0-0.87-0.042-1.422-0.125-1.656
			c-0.083-0.234-0.23-0.421-0.441-0.559s-0.476-0.207-0.793-0.207c-0.364,0-0.69,0.089-0.977,0.266s-0.496,0.444-0.629,0.801
			s-0.199,0.884-0.199,1.582v4.156h-2.195V85.269H252.979z"/>
		<path style="fill:#FFFFFF;" d="M265.37,94.082l2.188,0.367c-0.281,0.802-0.726,1.413-1.332,1.832s-1.366,0.629-2.277,0.629
			c-1.442,0-2.511-0.472-3.203-1.414c-0.547-0.755-0.82-1.708-0.82-2.859c0-1.375,0.359-2.452,1.078-3.23s1.628-1.168,2.727-1.168
			c1.234,0,2.208,0.407,2.922,1.223s1.055,2.063,1.023,3.746h-5.5c0.016,0.651,0.192,1.157,0.531,1.52s0.761,0.543,1.266,0.543
			c0.344,0,0.633-0.094,0.867-0.281S265.25,94.499,265.37,94.082z M265.495,91.863c-0.016-0.636-0.18-1.118-0.492-1.449
			s-0.692-0.496-1.141-0.496c-0.479,0-0.875,0.175-1.188,0.523s-0.466,0.823-0.461,1.422H265.495z"/>
		<path style="fill:#FFFFFF;" d="M271.104,90.957l-1.992-0.359c0.224-0.802,0.609-1.396,1.156-1.781s1.359-0.578,2.438-0.578
			c0.979,0,1.708,0.116,2.188,0.348s0.816,0.526,1.012,0.883s0.293,1.012,0.293,1.965l-0.023,2.562c0,0.729,0.035,1.267,0.105,1.613
			s0.202,0.718,0.395,1.113h-2.172c-0.058-0.146-0.128-0.362-0.211-0.648c-0.036-0.13-0.062-0.216-0.078-0.258
			c-0.375,0.364-0.776,0.638-1.203,0.82s-0.883,0.273-1.367,0.273c-0.854,0-1.527-0.231-2.02-0.695s-0.738-1.05-0.738-1.758
			c0-0.469,0.112-0.887,0.336-1.254s0.538-0.648,0.941-0.844s0.985-0.366,1.746-0.512c1.026-0.192,1.737-0.372,2.133-0.539v-0.219
			c0-0.422-0.104-0.723-0.312-0.902s-0.602-0.27-1.18-0.27c-0.391,0-0.695,0.077-0.914,0.23S271.24,90.571,271.104,90.957z
			 M274.042,92.738c-0.281,0.094-0.727,0.206-1.336,0.336s-1.008,0.258-1.195,0.383c-0.286,0.203-0.43,0.461-0.43,0.773
			c0,0.308,0.114,0.573,0.344,0.797s0.521,0.336,0.875,0.336c0.396,0,0.773-0.13,1.133-0.391c0.266-0.198,0.44-0.44,0.523-0.727
			c0.058-0.188,0.086-0.544,0.086-1.07V92.738z"/>
		<path style="fill:#FFFFFF;" d="M282.167,88.425v1.75h-1.5v3.344c0,0.677,0.015,1.071,0.043,1.184s0.094,0.204,0.195,0.277
			s0.226,0.109,0.371,0.109c0.203,0,0.497-0.07,0.883-0.211l0.188,1.703c-0.511,0.219-1.089,0.328-1.734,0.328
			c-0.396,0-0.753-0.066-1.07-0.199s-0.551-0.305-0.699-0.516s-0.251-0.496-0.309-0.855c-0.047-0.255-0.07-0.771-0.07-1.547v-3.617
			h-1.008v-1.75h1.008v-1.648l2.203-1.281v2.93H282.167z"/>
		<path style="fill:#FFFFFF;" d="M288.495,94.082l2.188,0.367c-0.281,0.802-0.726,1.413-1.332,1.832s-1.366,0.629-2.277,0.629
			c-1.442,0-2.511-0.472-3.203-1.414c-0.547-0.755-0.82-1.708-0.82-2.859c0-1.375,0.359-2.452,1.078-3.23s1.628-1.168,2.727-1.168
			c1.234,0,2.208,0.407,2.922,1.223s1.055,2.063,1.023,3.746h-5.5c0.016,0.651,0.192,1.157,0.531,1.52s0.761,0.543,1.266,0.543
			c0.344,0,0.633-0.094,0.867-0.281S288.375,94.499,288.495,94.082z M288.62,91.863c-0.016-0.636-0.18-1.118-0.492-1.449
			s-0.692-0.496-1.141-0.496c-0.479,0-0.875,0.175-1.188,0.523s-0.466,0.823-0.461,1.422H288.62z"/>
		<path style="fill:#FFFFFF;" d="M294.69,96.722h-2.195v-8.297h2.039v1.18c0.349-0.558,0.663-0.925,0.941-1.102
			s0.595-0.266,0.949-0.266c0.5,0,0.981,0.138,1.445,0.414l-0.68,1.914c-0.37-0.239-0.714-0.359-1.031-0.359
			c-0.308,0-0.567,0.085-0.781,0.254s-0.382,0.476-0.504,0.918s-0.184,1.37-0.184,2.781V96.722z"/>
	</g>
</g>
<g>
	<polygon points="358.339,299.336 271.433,299.336 271.433,233.67 300.228,233.67 289.904,135.242 310.655,233.67 358.339,233.67 	
		"/>
	<g>
		<rect x="279.469" y="241.73" style="fill:none;" width="70.35" height="50.796"/>
		<path style="fill:#FFFFFF;" d="M280.649,253.185v-11.453h7.852v1.938h-5.539v2.711h4.781v1.938h-4.781v4.867H280.649z"/>
		<path style="fill:#FFFFFF;" d="M292.493,253.185h-2.195v-8.297h2.039v1.18c0.349-0.558,0.663-0.925,0.941-1.102
			s0.595-0.266,0.949-0.266c0.5,0,0.981,0.138,1.445,0.414l-0.68,1.914c-0.37-0.239-0.714-0.359-1.031-0.359
			c-0.308,0-0.567,0.085-0.781,0.254s-0.382,0.476-0.504,0.918s-0.184,1.37-0.184,2.781V253.185z"/>
		<path style="fill:#FFFFFF;" d="M298.258,247.419l-1.992-0.359c0.224-0.802,0.609-1.396,1.156-1.781s1.359-0.578,2.438-0.578
			c0.979,0,1.708,0.116,2.188,0.348s0.816,0.526,1.012,0.883s0.293,1.012,0.293,1.965l-0.023,2.562c0,0.729,0.035,1.267,0.105,1.613
			s0.202,0.718,0.395,1.113h-2.172c-0.058-0.146-0.128-0.362-0.211-0.648c-0.036-0.13-0.062-0.216-0.078-0.258
			c-0.375,0.364-0.776,0.638-1.203,0.82s-0.883,0.273-1.367,0.273c-0.854,0-1.527-0.231-2.02-0.695s-0.738-1.05-0.738-1.758
			c0-0.469,0.112-0.887,0.336-1.254s0.538-0.648,0.941-0.844s0.985-0.366,1.746-0.512c1.026-0.192,1.737-0.372,2.133-0.539v-0.219
			c0-0.422-0.104-0.723-0.312-0.902s-0.602-0.27-1.18-0.27c-0.391,0-0.695,0.077-0.914,0.23S298.394,247.034,298.258,247.419z
			 M301.196,249.201c-0.281,0.094-0.727,0.206-1.336,0.336s-1.008,0.258-1.195,0.383c-0.286,0.203-0.43,0.461-0.43,0.773
			c0,0.308,0.114,0.573,0.344,0.797s0.521,0.336,0.875,0.336c0.396,0,0.773-0.13,1.133-0.391c0.266-0.198,0.44-0.44,0.523-0.727
			c0.058-0.188,0.086-0.544,0.086-1.07V249.201z"/>
		<path style="fill:#FFFFFF;" d="M313.063,253.185h-2.195v-4.234c0-0.896-0.047-1.476-0.141-1.738s-0.246-0.468-0.457-0.613
			s-0.465-0.219-0.762-0.219c-0.38,0-0.722,0.104-1.023,0.312s-0.509,0.484-0.621,0.828s-0.168,0.979-0.168,1.906v3.758h-2.195
			v-8.297h2.039v1.219c0.724-0.938,1.636-1.406,2.734-1.406c0.484,0,0.927,0.087,1.328,0.262s0.704,0.397,0.91,0.668
			s0.349,0.578,0.43,0.922s0.121,0.836,0.121,1.477V253.185z"/>
		<path style="fill:#FFFFFF;" d="M315.212,253.185v-11.453h2.195v6.078l2.57-2.922h2.703l-2.836,3.031l3.039,5.266h-2.367
			l-2.086-3.727l-1.023,1.07v2.656H315.212z"/>
		<path style="fill:#FFFFFF;" d="M324.133,241.763h2.195v1.57c0,0.636-0.055,1.137-0.164,1.504s-0.316,0.696-0.621,0.988
			s-0.691,0.521-1.16,0.688l-0.43-0.906c0.442-0.146,0.758-0.347,0.945-0.602s0.286-0.604,0.297-1.047h-1.062V241.763z"/>
		<path style="fill:#FFFFFF;" d="M327.266,250.818l2.203-0.336c0.094,0.427,0.284,0.751,0.57,0.973s0.688,0.332,1.203,0.332
			c0.567,0,0.995-0.104,1.281-0.312c0.192-0.146,0.289-0.341,0.289-0.586c0-0.167-0.052-0.305-0.156-0.414
			c-0.109-0.104-0.354-0.2-0.734-0.289c-1.771-0.391-2.894-0.747-3.367-1.07c-0.656-0.448-0.984-1.07-0.984-1.867
			c0-0.719,0.284-1.323,0.852-1.812s1.448-0.734,2.641-0.734c1.136,0,1.979,0.185,2.531,0.555s0.933,0.917,1.141,1.641l-2.07,0.383
			c-0.089-0.323-0.257-0.57-0.504-0.742s-0.601-0.258-1.059-0.258c-0.578,0-0.992,0.081-1.242,0.242
			c-0.167,0.114-0.25,0.263-0.25,0.445c0,0.156,0.073,0.289,0.219,0.398c0.198,0.146,0.882,0.352,2.051,0.617
			s1.985,0.591,2.449,0.977c0.458,0.391,0.688,0.935,0.688,1.633c0,0.761-0.317,1.414-0.953,1.961s-1.575,0.82-2.82,0.82
			c-1.13,0-2.024-0.229-2.684-0.688S327.469,251.604,327.266,250.818z"/>
		<path style="fill:#FFFFFF;" d="M280.649,271.185v-11.453h7.852v1.938h-5.539v2.711h4.781v1.938h-4.781v4.867H280.649z"/>
		<path style="fill:#FFFFFF;" d="M295.852,271.185v-1.242c-0.302,0.442-0.699,0.792-1.191,1.047s-1.012,0.383-1.559,0.383
			c-0.558,0-1.058-0.122-1.5-0.367s-0.763-0.589-0.961-1.031s-0.297-1.055-0.297-1.836v-5.25h2.195v3.812
			c0,1.167,0.04,1.882,0.121,2.145s0.228,0.472,0.441,0.625s0.484,0.23,0.812,0.23c0.375,0,0.711-0.103,1.008-0.309
			s0.5-0.461,0.609-0.766s0.164-1.051,0.164-2.238v-3.5h2.195v8.297H295.852z"/>
		<path style="fill:#FFFFFF;" d="M302.266,271.185h-2.195v-8.297h2.039v1.18c0.349-0.558,0.663-0.925,0.941-1.102
			s0.595-0.266,0.949-0.266c0.5,0,0.981,0.138,1.445,0.414l-0.68,1.914c-0.37-0.239-0.714-0.359-1.031-0.359
			c-0.308,0-0.567,0.085-0.781,0.254s-0.382,0.476-0.504,0.918s-0.184,1.37-0.184,2.781V271.185z"/>
		<path style="fill:#FFFFFF;" d="M313.938,271.185h-2.195v-4.234c0-0.896-0.047-1.476-0.141-1.738s-0.246-0.468-0.457-0.613
			s-0.465-0.219-0.762-0.219c-0.38,0-0.722,0.104-1.023,0.312s-0.509,0.484-0.621,0.828s-0.168,0.979-0.168,1.906v3.758h-2.195
			v-8.297h2.039v1.219c0.724-0.938,1.636-1.406,2.734-1.406c0.484,0,0.927,0.087,1.328,0.262s0.704,0.397,0.91,0.668
			s0.349,0.578,0.43,0.922s0.121,0.836,0.121,1.477V271.185z"/>
		<path style="fill:#FFFFFF;" d="M316.165,261.763v-2.031h2.195v2.031H316.165z M316.165,271.185v-8.297h2.195v8.297H316.165z"/>
		<path style="fill:#FFFFFF;" d="M324.415,262.888v1.75h-1.5v3.344c0,0.677,0.015,1.071,0.043,1.184s0.094,0.204,0.195,0.277
			s0.226,0.109,0.371,0.109c0.203,0,0.497-0.07,0.883-0.211l0.188,1.703c-0.511,0.219-1.089,0.328-1.734,0.328
			c-0.396,0-0.753-0.066-1.07-0.199s-0.551-0.305-0.699-0.516s-0.251-0.496-0.309-0.855c-0.047-0.255-0.07-0.771-0.07-1.547v-3.617
			h-1.008v-1.75h1.008v-1.648l2.203-1.281v2.93H324.415z"/>
		<path style="fill:#FFFFFF;" d="M331.399,271.185v-1.242c-0.302,0.442-0.699,0.792-1.191,1.047s-1.012,0.383-1.559,0.383
			c-0.558,0-1.058-0.122-1.5-0.367s-0.763-0.589-0.961-1.031s-0.297-1.055-0.297-1.836v-5.25h2.195v3.812
			c0,1.167,0.04,1.882,0.121,2.145s0.228,0.472,0.441,0.625s0.484,0.23,0.812,0.23c0.375,0,0.711-0.103,1.008-0.309
			s0.5-0.461,0.609-0.766s0.164-1.051,0.164-2.238v-3.5h2.195v8.297H331.399z"/>
		<path style="fill:#FFFFFF;" d="M337.813,271.185h-2.195v-8.297h2.039v1.18c0.349-0.558,0.663-0.925,0.941-1.102
			s0.595-0.266,0.949-0.266c0.5,0,0.981,0.138,1.445,0.414l-0.68,1.914c-0.37-0.239-0.714-0.359-1.031-0.359
			c-0.308,0-0.567,0.085-0.781,0.254s-0.382,0.476-0.504,0.918s-0.184,1.37-0.184,2.781V271.185z"/>
		<path style="fill:#FFFFFF;" d="M346.743,268.544l2.188,0.367c-0.281,0.802-0.726,1.413-1.332,1.832s-1.366,0.629-2.277,0.629
			c-1.442,0-2.511-0.472-3.203-1.414c-0.547-0.755-0.82-1.708-0.82-2.859c0-1.375,0.359-2.452,1.078-3.23s1.628-1.168,2.727-1.168
			c1.234,0,2.208,0.407,2.922,1.223s1.055,2.063,1.023,3.746h-5.5c0.016,0.651,0.192,1.157,0.531,1.52s0.761,0.543,1.266,0.543
			c0.344,0,0.633-0.094,0.867-0.281S346.623,268.961,346.743,268.544z M346.868,266.326c-0.016-0.636-0.18-1.118-0.492-1.449
			s-0.692-0.496-1.141-0.496c-0.479,0-0.875,0.175-1.188,0.523s-0.466,0.823-0.461,1.422H346.868z"/>
		<path style="fill:#FFFFFF;" d="M280.641,289.185v-11.453h2.312v4.508h4.531v-4.508h2.312v11.453h-2.312v-5.008h-4.531v5.008
			H280.641z"/>
		<path style="fill:#FFFFFF;" d="M291.665,284.919c0-0.729,0.18-1.435,0.539-2.117s0.868-1.203,1.527-1.562s1.395-0.539,2.207-0.539
			c1.255,0,2.284,0.407,3.086,1.223s1.203,1.845,1.203,3.09c0,1.255-0.405,2.296-1.215,3.121s-1.829,1.238-3.059,1.238
			c-0.761,0-1.485-0.172-2.176-0.516s-1.215-0.848-1.574-1.512S291.665,285.873,291.665,284.919z M293.915,285.037
			c0,0.823,0.195,1.453,0.586,1.891s0.872,0.656,1.445,0.656s1.054-0.219,1.441-0.656s0.582-1.073,0.582-1.906
			c0-0.812-0.194-1.438-0.582-1.875s-0.868-0.656-1.441-0.656s-1.055,0.219-1.445,0.656S293.915,284.213,293.915,285.037z"/>
		<path style="fill:#FFFFFF;" d="M307.407,289.185v-1.242c-0.302,0.442-0.699,0.792-1.191,1.047s-1.012,0.383-1.559,0.383
			c-0.558,0-1.058-0.122-1.5-0.367s-0.763-0.589-0.961-1.031s-0.297-1.055-0.297-1.836v-5.25h2.195v3.812
			c0,1.167,0.04,1.882,0.121,2.145s0.228,0.472,0.441,0.625s0.484,0.23,0.812,0.23c0.375,0,0.711-0.103,1.008-0.309
			s0.5-0.461,0.609-0.766s0.164-1.051,0.164-2.238v-3.5h2.195v8.297H307.407z"/>
		<path style="fill:#FFFFFF;" d="M310.946,286.818l2.203-0.336c0.094,0.427,0.284,0.751,0.57,0.973s0.688,0.332,1.203,0.332
			c0.567,0,0.995-0.104,1.281-0.312c0.192-0.146,0.289-0.341,0.289-0.586c0-0.167-0.052-0.305-0.156-0.414
			c-0.109-0.104-0.354-0.2-0.734-0.289c-1.771-0.391-2.894-0.747-3.367-1.07c-0.656-0.448-0.984-1.07-0.984-1.867
			c0-0.719,0.284-1.323,0.852-1.812s1.448-0.734,2.641-0.734c1.136,0,1.979,0.185,2.531,0.555s0.933,0.917,1.141,1.641l-2.07,0.383
			c-0.089-0.323-0.257-0.57-0.504-0.742s-0.601-0.258-1.059-0.258c-0.578,0-0.992,0.081-1.242,0.242
			c-0.167,0.114-0.25,0.263-0.25,0.445c0,0.156,0.073,0.289,0.219,0.398c0.198,0.146,0.882,0.352,2.051,0.617
			s1.985,0.591,2.449,0.977c0.458,0.391,0.688,0.935,0.688,1.633c0,0.761-0.317,1.414-0.953,1.961s-1.575,0.82-2.82,0.82
			c-1.13,0-2.024-0.229-2.684-0.688S311.149,287.604,310.946,286.818z"/>
		<path style="fill:#FFFFFF;" d="M325.422,286.544l2.188,0.367c-0.281,0.802-0.726,1.413-1.332,1.832s-1.366,0.629-2.277,0.629
			c-1.442,0-2.511-0.472-3.203-1.414c-0.547-0.755-0.82-1.708-0.82-2.859c0-1.375,0.359-2.452,1.078-3.23s1.628-1.168,2.727-1.168
			c1.234,0,2.208,0.407,2.922,1.223s1.055,2.063,1.023,3.746h-5.5c0.016,0.651,0.192,1.157,0.531,1.52s0.761,0.543,1.266,0.543
			c0.344,0,0.633-0.094,0.867-0.281S325.302,286.961,325.422,286.544z M325.547,284.326c-0.016-0.636-0.18-1.118-0.492-1.449
			s-0.692-0.496-1.141-0.496c-0.479,0-0.875,0.175-1.188,0.523s-0.466,0.823-0.461,1.422H325.547z"/>
	</g>
</g>
<g>
	<polygon points="250.692,282.816 163.787,282.816 163.787,234.649 228.806,234.649 246.737,135.742 239.233,234.649 
		250.692,234.649 	"/>
	<g>
		<rect x="170.673" y="242.71" style="fill:none;" width="75" height="33.949"/>
		<path style="fill:#FFFFFF;" d="M171.845,242.712h4.578c0.906,0,1.582,0.039,2.027,0.113c0.445,0.076,0.844,0.234,1.195,0.473
			c0.352,0.24,0.645,0.559,0.879,0.957s0.352,0.846,0.352,1.34c0,0.537-0.145,1.029-0.434,1.477
			c-0.289,0.449-0.681,0.785-1.176,1.008c0.698,0.203,1.234,0.551,1.609,1.039c0.375,0.49,0.562,1.066,0.562,1.727
			c0,0.521-0.121,1.027-0.363,1.52s-0.573,0.887-0.992,1.18c-0.419,0.295-0.937,0.477-1.551,0.543
			c-0.386,0.043-1.315,0.068-2.789,0.078h-3.898V242.712z M174.158,244.619v2.648h1.516c0.901,0,1.461-0.012,1.68-0.039
			c0.396-0.047,0.707-0.184,0.934-0.41s0.34-0.523,0.34-0.895c0-0.354-0.098-0.641-0.293-0.863
			c-0.195-0.221-0.485-0.355-0.871-0.402c-0.229-0.025-0.888-0.039-1.977-0.039H174.158z M174.158,249.173v3.062h2.141
			c0.833,0,1.362-0.023,1.586-0.07c0.344-0.062,0.624-0.215,0.84-0.457s0.324-0.566,0.324-0.973c0-0.344-0.083-0.635-0.25-0.875
			c-0.167-0.238-0.407-0.414-0.723-0.523s-0.999-0.164-2.051-0.164H174.158z"/>
		<path style="fill:#FFFFFF;" d="M188.181,251.525l2.188,0.367c-0.281,0.803-0.726,1.414-1.332,1.832
			c-0.606,0.42-1.366,0.629-2.277,0.629c-1.442,0-2.511-0.471-3.203-1.414c-0.547-0.754-0.82-1.707-0.82-2.859
			c0-1.375,0.359-2.451,1.078-3.23c0.719-0.777,1.628-1.168,2.727-1.168c1.234,0,2.208,0.408,2.922,1.223
			c0.714,0.816,1.055,2.064,1.023,3.746h-5.5c0.016,0.652,0.192,1.158,0.531,1.52c0.339,0.363,0.761,0.543,1.266,0.543
			c0.344,0,0.633-0.094,0.867-0.281S188.061,251.943,188.181,251.525z M188.306,249.306c-0.016-0.635-0.18-1.117-0.492-1.449
			c-0.312-0.33-0.692-0.496-1.141-0.496c-0.479,0-0.875,0.176-1.188,0.523c-0.312,0.35-0.466,0.824-0.461,1.422H188.306z"/>
		<path style="fill:#FFFFFF;" d="M197.08,251.525l2.188,0.367c-0.281,0.803-0.726,1.414-1.332,1.832
			c-0.606,0.42-1.366,0.629-2.277,0.629c-1.442,0-2.511-0.471-3.203-1.414c-0.547-0.754-0.82-1.707-0.82-2.859
			c0-1.375,0.359-2.451,1.078-3.23c0.719-0.777,1.628-1.168,2.727-1.168c1.234,0,2.208,0.408,2.922,1.223
			c0.714,0.816,1.055,2.064,1.023,3.746h-5.5c0.016,0.652,0.192,1.158,0.531,1.52c0.339,0.363,0.761,0.543,1.266,0.543
			c0.344,0,0.633-0.094,0.867-0.281S196.96,251.943,197.08,251.525z M197.205,249.306c-0.016-0.635-0.18-1.117-0.492-1.449
			c-0.312-0.33-0.692-0.496-1.141-0.496c-0.479,0-0.875,0.176-1.188,0.523c-0.312,0.35-0.466,0.824-0.461,1.422H197.205z"/>
		<path style="fill:#FFFFFF;" d="M200.4,251.798l2.203-0.336c0.094,0.428,0.284,0.752,0.57,0.973
			c0.286,0.223,0.688,0.332,1.203,0.332c0.567,0,0.995-0.104,1.281-0.312c0.192-0.145,0.289-0.34,0.289-0.586
			c0-0.166-0.052-0.305-0.156-0.414c-0.109-0.104-0.354-0.199-0.734-0.289c-1.771-0.391-2.894-0.746-3.367-1.07
			c-0.656-0.447-0.984-1.07-0.984-1.867c0-0.719,0.284-1.322,0.852-1.812c0.567-0.488,1.448-0.734,2.641-0.734
			c1.136,0,1.979,0.186,2.531,0.555c0.552,0.371,0.933,0.918,1.141,1.641l-2.07,0.383c-0.089-0.322-0.257-0.57-0.504-0.742
			s-0.601-0.258-1.059-0.258c-0.578,0-0.992,0.082-1.242,0.242c-0.167,0.115-0.25,0.264-0.25,0.445c0,0.156,0.073,0.289,0.219,0.398
			c0.198,0.146,0.882,0.352,2.051,0.617s1.985,0.592,2.449,0.977c0.458,0.391,0.688,0.936,0.688,1.633
			c0,0.762-0.317,1.414-0.953,1.961s-1.575,0.82-2.82,0.82c-1.13,0-2.024-0.229-2.684-0.688
			C201.034,253.208,200.603,252.585,200.4,251.798z"/>
		<path style="fill:#FFFFFF;" d="M214.877,251.525l2.188,0.367c-0.281,0.803-0.726,1.414-1.332,1.832
			c-0.606,0.42-1.366,0.629-2.277,0.629c-1.442,0-2.511-0.471-3.203-1.414c-0.547-0.754-0.82-1.707-0.82-2.859
			c0-1.375,0.359-2.451,1.078-3.23c0.719-0.777,1.628-1.168,2.727-1.168c1.234,0,2.208,0.408,2.922,1.223
			c0.714,0.816,1.055,2.064,1.023,3.746h-5.5c0.016,0.652,0.192,1.158,0.531,1.52c0.339,0.363,0.761,0.543,1.266,0.543
			c0.344,0,0.633-0.094,0.867-0.281S214.756,251.943,214.877,251.525z M215.002,249.306c-0.016-0.635-0.18-1.117-0.492-1.449
			c-0.312-0.33-0.692-0.496-1.141-0.496c-0.479,0-0.875,0.176-1.188,0.523c-0.312,0.35-0.466,0.824-0.461,1.422H215.002z"/>
		<path style="fill:#FFFFFF;" d="M226.517,254.166h-2.195v-4.234c0-0.895-0.047-1.475-0.141-1.738
			c-0.094-0.262-0.246-0.467-0.457-0.613c-0.211-0.145-0.465-0.219-0.762-0.219c-0.38,0-0.722,0.105-1.023,0.312
			c-0.302,0.209-0.509,0.484-0.621,0.828s-0.168,0.98-0.168,1.906v3.758h-2.195v-8.297h2.039v1.219
			c0.724-0.938,1.636-1.406,2.734-1.406c0.484,0,0.927,0.088,1.328,0.262c0.401,0.176,0.704,0.398,0.91,0.668
			c0.206,0.271,0.349,0.578,0.43,0.922s0.121,0.836,0.121,1.477V254.166z"/>
		<path style="fill:#FFFFFF;" d="M171.845,272.166v-11.453h2.312v4.508h4.531v-4.508h2.312v11.453h-2.312v-5.008h-4.531v5.008
			H171.845z"/>
		<path style="fill:#FFFFFF;" d="M185.017,266.4l-1.992-0.359c0.224-0.801,0.609-1.395,1.156-1.781
			c0.547-0.385,1.359-0.578,2.438-0.578c0.979,0,1.708,0.117,2.188,0.348c0.479,0.232,0.816,0.527,1.012,0.883
			c0.195,0.357,0.293,1.012,0.293,1.965l-0.023,2.562c0,0.73,0.035,1.268,0.105,1.613c0.07,0.348,0.202,0.719,0.395,1.113h-2.172
			c-0.058-0.145-0.128-0.361-0.211-0.648c-0.036-0.129-0.062-0.215-0.078-0.258c-0.375,0.365-0.776,0.639-1.203,0.82
			c-0.427,0.184-0.883,0.273-1.367,0.273c-0.854,0-1.527-0.23-2.02-0.695c-0.492-0.463-0.738-1.049-0.738-1.758
			c0-0.469,0.112-0.887,0.336-1.254s0.538-0.648,0.941-0.844s0.985-0.365,1.746-0.512c1.026-0.191,1.737-0.371,2.133-0.539v-0.219
			c0-0.422-0.104-0.723-0.312-0.902s-0.602-0.27-1.18-0.27c-0.391,0-0.695,0.078-0.914,0.23
			C185.33,265.746,185.153,266.015,185.017,266.4z M187.955,268.181c-0.281,0.094-0.727,0.207-1.336,0.336
			c-0.609,0.131-1.008,0.258-1.195,0.383c-0.286,0.203-0.43,0.461-0.43,0.773c0,0.309,0.114,0.574,0.344,0.797
			c0.229,0.225,0.521,0.336,0.875,0.336c0.396,0,0.773-0.129,1.133-0.391c0.266-0.197,0.44-0.439,0.523-0.727
			c0.058-0.188,0.086-0.543,0.086-1.07V268.181z"/>
		<path style="fill:#FFFFFF;" d="M194.377,272.166h-2.195v-8.297h2.039v1.18c0.349-0.557,0.663-0.924,0.941-1.102
			c0.278-0.176,0.595-0.266,0.949-0.266c0.5,0,0.981,0.139,1.445,0.414l-0.68,1.914c-0.37-0.238-0.714-0.359-1.031-0.359
			c-0.308,0-0.567,0.086-0.781,0.254c-0.214,0.17-0.382,0.477-0.504,0.918c-0.122,0.443-0.184,1.371-0.184,2.781V272.166z"/>
		<path style="fill:#FFFFFF;" d="M206.111,272.166h-2.039v-1.219c-0.339,0.475-0.738,0.828-1.199,1.059
			c-0.461,0.232-0.926,0.348-1.395,0.348c-0.953,0-1.77-0.383-2.449-1.152c-0.68-0.768-1.02-1.84-1.02-3.215
			c0-1.406,0.331-2.475,0.992-3.207c0.661-0.73,1.497-1.098,2.508-1.098c0.927,0,1.729,0.387,2.406,1.156v-4.125h2.195V272.166z
			 M200.252,267.837c0,0.887,0.122,1.527,0.367,1.922c0.354,0.574,0.849,0.859,1.484,0.859c0.505,0,0.935-0.215,1.289-0.645
			s0.531-1.07,0.531-1.926c0-0.953-0.172-1.639-0.516-2.059c-0.344-0.418-0.784-0.629-1.32-0.629c-0.521,0-0.957,0.207-1.309,0.621
			S200.252,267.015,200.252,267.837z"/>
		<path style="fill:#FFFFFF;" d="M209.822,272.166l-2.625-8.297h2.133l1.555,5.438l1.43-5.438h2.117l1.383,5.438l1.586-5.438h2.164
			l-2.664,8.297h-2.109l-1.43-5.336l-1.406,5.336H209.822z"/>
		<path style="fill:#FFFFFF;" d="M222.361,266.4l-1.992-0.359c0.224-0.801,0.609-1.395,1.156-1.781
			c0.547-0.385,1.359-0.578,2.438-0.578c0.979,0,1.708,0.117,2.188,0.348c0.479,0.232,0.816,0.527,1.012,0.883
			c0.195,0.357,0.293,1.012,0.293,1.965l-0.023,2.562c0,0.73,0.035,1.268,0.105,1.613c0.07,0.348,0.202,0.719,0.395,1.113h-2.172
			c-0.058-0.145-0.128-0.361-0.211-0.648c-0.036-0.129-0.062-0.215-0.078-0.258c-0.375,0.365-0.776,0.639-1.203,0.82
			c-0.427,0.184-0.883,0.273-1.367,0.273c-0.854,0-1.527-0.23-2.02-0.695c-0.492-0.463-0.738-1.049-0.738-1.758
			c0-0.469,0.112-0.887,0.336-1.254s0.538-0.648,0.941-0.844s0.985-0.365,1.746-0.512c1.026-0.191,1.737-0.371,2.133-0.539v-0.219
			c0-0.422-0.104-0.723-0.312-0.902s-0.602-0.27-1.18-0.27c-0.391,0-0.695,0.078-0.914,0.23
			C222.673,265.746,222.497,266.015,222.361,266.4z M225.298,268.181c-0.281,0.094-0.727,0.207-1.336,0.336
			c-0.609,0.131-1.008,0.258-1.195,0.383c-0.286,0.203-0.43,0.461-0.43,0.773c0,0.309,0.114,0.574,0.344,0.797
			c0.229,0.225,0.521,0.336,0.875,0.336c0.396,0,0.773-0.129,1.133-0.391c0.266-0.197,0.44-0.439,0.523-0.727
			c0.058-0.188,0.086-0.543,0.086-1.07V268.181z"/>
		<path style="fill:#FFFFFF;" d="M231.72,272.166h-2.195v-8.297h2.039v1.18c0.349-0.557,0.663-0.924,0.941-1.102
			c0.278-0.176,0.595-0.266,0.949-0.266c0.5,0,0.981,0.139,1.445,0.414l-0.68,1.914c-0.37-0.238-0.714-0.359-1.031-0.359
			c-0.308,0-0.567,0.086-0.781,0.254c-0.214,0.17-0.382,0.477-0.504,0.918c-0.122,0.443-0.184,1.371-0.184,2.781V272.166z"/>
		<path style="fill:#FFFFFF;" d="M240.65,269.525l2.188,0.367c-0.281,0.803-0.726,1.414-1.332,1.832
			c-0.606,0.42-1.366,0.629-2.277,0.629c-1.442,0-2.511-0.471-3.203-1.414c-0.547-0.754-0.82-1.707-0.82-2.859
			c0-1.375,0.359-2.451,1.078-3.23c0.719-0.777,1.628-1.168,2.727-1.168c1.234,0,2.208,0.408,2.922,1.223
			c0.714,0.816,1.055,2.064,1.023,3.746h-5.5c0.016,0.652,0.192,1.158,0.531,1.52c0.339,0.363,0.761,0.543,1.266,0.543
			c0.344,0,0.633-0.094,0.867-0.281S240.53,269.943,240.65,269.525z M240.775,267.306c-0.016-0.635-0.18-1.117-0.492-1.449
			c-0.312-0.33-0.692-0.496-1.141-0.496c-0.479,0-0.875,0.176-1.188,0.523c-0.312,0.35-0.466,0.824-0.461,1.422H240.775z"/>
	</g>
</g>
</svg>
