<?xml version="1.0" encoding="utf-8"?>
<!-- Generator: Adobe Illustrator 22.0.1, SVG Export Plug-In . SVG Version: 6.00 Build 0)  -->
<svg version="1.1" id="windows_broken_x2F_fire" xmlns="http://www.w3.org/2000/svg" xmlns:xlink="http://www.w3.org/1999/xlink"
	 x="0px" y="0px" viewBox="0 0 610 622" style="enable-background:new 0 0 610 622;" xml:space="preserve">
<rect x="375.182" y="414.021" style="fill:none;stroke:#D72132;stroke-width:3;" width="10.709" height="95.311"/>
<g>
	<polygon points="497.554,556.277 434.481,556.277 434.481,507.826 380.487,479.326 434.481,500.326 434.481,491.444 
		497.554,491.444 	"/>
	<g>
		<g>
			<path style="fill:#FFFFFF;" d="M442.151,505.304c0-1.167,0.175-2.146,0.523-2.938c0.261-0.583,0.616-1.106,1.066-1.57
				s0.944-0.808,1.48-1.031c0.714-0.302,1.536-0.453,2.469-0.453c1.688,0,3.038,0.523,4.051,1.57s1.52,2.503,1.52,4.367
				c0,1.849-0.503,3.296-1.508,4.34s-2.349,1.566-4.031,1.566c-1.703,0-3.058-0.52-4.062-1.559S442.151,507.127,442.151,505.304z
				 M444.534,505.226c0,1.297,0.3,2.28,0.898,2.949s1.359,1.004,2.281,1.004s1.679-0.332,2.27-0.996s0.887-1.66,0.887-2.988
				c0-1.312-0.288-2.292-0.863-2.938s-1.34-0.969-2.293-0.969s-1.722,0.327-2.305,0.98S444.534,503.909,444.534,505.226z"/>
			<path style="fill:#FFFFFF;" d="M458.854,502.664v1.75h-1.5v3.344c0,0.677,0.015,1.071,0.043,1.184s0.094,0.204,0.195,0.277
				s0.226,0.109,0.371,0.109c0.203,0,0.497-0.07,0.883-0.211l0.188,1.703c-0.511,0.219-1.089,0.328-1.734,0.328
				c-0.396,0-0.753-0.066-1.07-0.199s-0.551-0.305-0.699-0.516s-0.251-0.496-0.309-0.855c-0.047-0.255-0.07-0.771-0.07-1.547v-3.617
				h-1.008v-1.75h1.008v-1.648l2.203-1.281v2.93H458.854z"/>
			<path style="fill:#FFFFFF;" d="M462.565,499.507v4.211c0.708-0.828,1.555-1.242,2.539-1.242c0.505,0,0.961,0.094,1.367,0.281
				s0.712,0.427,0.918,0.719s0.347,0.614,0.422,0.969s0.113,0.903,0.113,1.648v4.867h-2.195v-4.383c0-0.87-0.042-1.422-0.125-1.656
				s-0.23-0.421-0.441-0.559s-0.476-0.207-0.793-0.207c-0.364,0-0.69,0.089-0.977,0.266s-0.496,0.444-0.629,0.801
				s-0.199,0.884-0.199,1.582v4.156h-2.195v-11.453H462.565z"/>
			<path style="fill:#FFFFFF;" d="M474.956,508.32l2.188,0.367c-0.281,0.802-0.726,1.413-1.332,1.832s-1.366,0.629-2.277,0.629
				c-1.442,0-2.511-0.472-3.203-1.414c-0.547-0.755-0.82-1.708-0.82-2.859c0-1.375,0.359-2.452,1.078-3.23s1.628-1.168,2.727-1.168
				c1.234,0,2.208,0.407,2.922,1.223s1.055,2.063,1.023,3.746h-5.5c0.016,0.651,0.192,1.157,0.531,1.52s0.761,0.543,1.266,0.543
				c0.344,0,0.633-0.094,0.867-0.281S474.836,508.737,474.956,508.32z M475.081,506.101c-0.016-0.636-0.18-1.118-0.492-1.449
				s-0.692-0.496-1.141-0.496c-0.479,0-0.875,0.175-1.188,0.523s-0.466,0.823-0.461,1.422H475.081z"/>
			<path style="fill:#FFFFFF;" d="M481.151,510.96h-2.195v-8.297h2.039v1.18c0.349-0.558,0.663-0.925,0.941-1.102
				s0.595-0.266,0.949-0.266c0.5,0,0.981,0.138,1.445,0.414l-0.68,1.914c-0.37-0.239-0.714-0.359-1.031-0.359
				c-0.308,0-0.567,0.085-0.781,0.254s-0.382,0.476-0.504,0.918s-0.184,1.37-0.184,2.781V510.96z"/>
			<path style="fill:#FFFFFF;" d="M442.635,528.96v-11.453h7.852v1.938h-5.539v2.711h4.781v1.938h-4.781v4.867H442.635z"/>
			<path style="fill:#FFFFFF;" d="M454.479,528.96h-2.195v-8.297h2.039v1.18c0.349-0.558,0.663-0.925,0.941-1.102
				s0.595-0.266,0.949-0.266c0.5,0,0.981,0.138,1.445,0.414l-0.68,1.914c-0.37-0.239-0.714-0.359-1.031-0.359
				c-0.308,0-0.567,0.085-0.781,0.254s-0.382,0.476-0.504,0.918s-0.184,1.37-0.184,2.781V528.96z"/>
			<path style="fill:#FFFFFF;" d="M458.604,519.539v-2.031h2.195v2.031H458.604z M458.604,528.96v-8.297h2.195v8.297H458.604z"/>
			<path style="fill:#FFFFFF;" d="M470.659,528.96h-2.039v-1.219c-0.339,0.474-0.738,0.827-1.199,1.059s-0.926,0.348-1.395,0.348
				c-0.953,0-1.77-0.384-2.449-1.152s-1.02-1.84-1.02-3.215c0-1.406,0.331-2.476,0.992-3.207s1.497-1.098,2.508-1.098
				c0.927,0,1.729,0.386,2.406,1.156v-4.125h2.195V528.96z M464.799,524.632c0,0.886,0.122,1.526,0.367,1.922
				c0.354,0.573,0.849,0.859,1.484,0.859c0.505,0,0.935-0.215,1.289-0.645s0.531-1.071,0.531-1.926c0-0.953-0.172-1.64-0.516-2.059
				s-0.784-0.629-1.32-0.629c-0.521,0-0.957,0.207-1.309,0.621S464.799,523.809,464.799,524.632z"/>
			<path style="fill:#FFFFFF;" d="M474.463,523.195l-1.992-0.359c0.224-0.802,0.609-1.396,1.156-1.781s1.359-0.578,2.438-0.578
				c0.979,0,1.708,0.116,2.188,0.348s0.816,0.526,1.012,0.883s0.293,1.012,0.293,1.965l-0.023,2.562
				c0,0.729,0.035,1.267,0.105,1.613s0.202,0.718,0.395,1.113h-2.172c-0.058-0.146-0.128-0.362-0.211-0.648
				c-0.036-0.13-0.062-0.216-0.078-0.258c-0.375,0.364-0.776,0.638-1.203,0.82s-0.883,0.273-1.367,0.273
				c-0.854,0-1.527-0.231-2.02-0.695s-0.738-1.05-0.738-1.758c0-0.469,0.112-0.887,0.336-1.254s0.538-0.648,0.941-0.844
				s0.985-0.366,1.746-0.512c1.026-0.192,1.737-0.372,2.133-0.539v-0.219c0-0.422-0.104-0.723-0.312-0.902s-0.602-0.27-1.18-0.27
				c-0.391,0-0.695,0.077-0.914,0.23S474.599,522.809,474.463,523.195z M477.401,524.976c-0.281,0.094-0.727,0.206-1.336,0.336
				s-1.008,0.258-1.195,0.383c-0.286,0.203-0.43,0.461-0.43,0.773c0,0.308,0.114,0.573,0.344,0.797s0.521,0.336,0.875,0.336
				c0.396,0,0.773-0.13,1.133-0.391c0.266-0.198,0.44-0.44,0.523-0.727c0.058-0.188,0.086-0.544,0.086-1.07V524.976z"/>
			<path style="fill:#FFFFFF;" d="M480.682,520.664h2.336l1.984,5.891l1.938-5.891h2.273l-2.93,7.984l-0.523,1.445
				c-0.192,0.484-0.376,0.854-0.551,1.109s-0.375,0.462-0.602,0.621s-0.505,0.282-0.836,0.371s-0.704,0.133-1.121,0.133
				c-0.422,0-0.836-0.044-1.242-0.133l-0.195-1.719c0.344,0.067,0.653,0.102,0.93,0.102c0.511,0,0.888-0.149,1.133-0.449
				s0.433-0.681,0.562-1.145L480.682,520.664z"/>
			<path style="fill:#FFFFFF;" d="M441.643,538.664h1.219v-0.625c0-0.698,0.074-1.219,0.223-1.562s0.422-0.624,0.82-0.84
				s0.902-0.324,1.512-0.324c0.625,0,1.237,0.094,1.836,0.281l-0.297,1.531c-0.349-0.083-0.685-0.125-1.008-0.125
				c-0.317,0-0.546,0.074-0.684,0.223s-0.207,0.434-0.207,0.855v0.586h1.641v1.727h-1.641v6.57h-2.195v-6.57h-1.219V538.664z"/>
			<path style="fill:#FFFFFF;" d="M447.932,537.539v-2.031h2.195v2.031H447.932z M447.932,546.96v-8.297h2.195v8.297H447.932z"/>
			<path style="fill:#FFFFFF;" d="M454.479,546.96h-2.195v-8.297h2.039v1.18c0.349-0.558,0.663-0.925,0.941-1.102
				s0.595-0.266,0.949-0.266c0.5,0,0.981,0.138,1.445,0.414l-0.68,1.914c-0.37-0.239-0.714-0.359-1.031-0.359
				c-0.308,0-0.567,0.085-0.781,0.254s-0.382,0.476-0.504,0.918s-0.184,1.37-0.184,2.781V546.96z"/>
			<path style="fill:#FFFFFF;" d="M463.409,544.32l2.188,0.367c-0.281,0.802-0.726,1.413-1.332,1.832s-1.366,0.629-2.277,0.629
				c-1.442,0-2.511-0.472-3.203-1.414c-0.547-0.755-0.82-1.708-0.82-2.859c0-1.375,0.359-2.452,1.078-3.23s1.628-1.168,2.727-1.168
				c1.234,0,2.208,0.407,2.922,1.223s1.055,2.063,1.023,3.746h-5.5c0.016,0.651,0.192,1.157,0.531,1.52s0.761,0.543,1.266,0.543
				c0.344,0,0.633-0.094,0.867-0.281S463.289,544.737,463.409,544.32z M463.534,542.101c-0.016-0.636-0.18-1.118-0.492-1.449
				s-0.692-0.496-1.141-0.496c-0.479,0-0.875,0.175-1.188,0.523s-0.466,0.823-0.461,1.422H463.534z"/>
			<path style="fill:#FFFFFF;" d="M466.729,544.593l2.203-0.336c0.094,0.427,0.284,0.751,0.57,0.973s0.688,0.332,1.203,0.332
				c0.567,0,0.995-0.104,1.281-0.312c0.192-0.146,0.289-0.341,0.289-0.586c0-0.167-0.052-0.305-0.156-0.414
				c-0.109-0.104-0.354-0.2-0.734-0.289c-1.771-0.391-2.894-0.747-3.367-1.07c-0.656-0.448-0.984-1.07-0.984-1.867
				c0-0.719,0.284-1.323,0.852-1.812s1.448-0.734,2.641-0.734c1.136,0,1.979,0.185,2.531,0.555s0.933,0.917,1.141,1.641l-2.07,0.383
				c-0.089-0.323-0.257-0.57-0.504-0.742s-0.601-0.258-1.059-0.258c-0.578,0-0.992,0.081-1.242,0.242
				c-0.167,0.114-0.25,0.263-0.25,0.445c0,0.156,0.073,0.289,0.219,0.398c0.198,0.146,0.882,0.352,2.051,0.617
				s1.985,0.591,2.449,0.977c0.458,0.391,0.688,0.935,0.688,1.633c0,0.761-0.317,1.414-0.953,1.961s-1.575,0.82-2.82,0.82
				c-1.13,0-2.024-0.229-2.684-0.688S466.932,545.379,466.729,544.593z"/>
		</g>
	</g>
</g>
<g>
	<g>
		<path d="M395.847,57.707l9.939-0.085l0.018,2.023l-8.251,0.071l0.044,5.031l-1.688,0.014L395.847,57.707z"/>
		<path d="M395.999,75.24l-0.02-2.2l2.27-0.895l-0.034-4.006l-2.284-0.808l-0.019-2.146l10.056,3.817l0.019,2.14L395.999,75.24z
			 M399.931,71.481l3.707-1.412l-3.73-1.322L399.931,71.481z"/>
		<path d="M399.264,75.773l0.208,1.967c-0.66,0.124-1.144,0.368-1.45,0.733c-0.306,0.365-0.457,0.855-0.452,1.471
			c0.006,0.651,0.147,1.142,0.427,1.469c0.278,0.329,0.603,0.491,0.972,0.488c0.237-0.002,0.438-0.073,0.604-0.215
			c0.165-0.14,0.308-0.383,0.428-0.73c0.079-0.238,0.221-0.779,0.423-1.624c0.26-1.088,0.584-1.852,0.972-2.292
			c0.547-0.62,1.216-0.934,2.009-0.94c0.511-0.004,0.989,0.136,1.436,0.422c0.447,0.286,0.789,0.7,1.026,1.242
			c0.237,0.543,0.358,1.199,0.365,1.97c0.011,1.258-0.256,2.206-0.803,2.847c-0.546,0.641-1.278,0.98-2.199,1.021l-0.106-2.022
			c0.514-0.091,0.883-0.28,1.106-0.567c0.223-0.286,0.332-0.715,0.327-1.284c-0.005-0.588-0.13-1.047-0.374-1.378
			c-0.157-0.212-0.365-0.317-0.625-0.315c-0.237,0.002-0.438,0.104-0.605,0.306c-0.212,0.257-0.431,0.879-0.654,1.865
			s-0.458,1.716-0.703,2.19c-0.244,0.474-0.58,0.846-1.008,1.116c-0.43,0.27-0.959,0.408-1.593,0.414
			c-0.574,0.005-1.114-0.15-1.618-0.465c-0.503-0.315-0.88-0.763-1.13-1.344c-0.248-0.581-0.376-1.308-0.384-2.178
			c-0.011-1.267,0.274-2.243,0.854-2.927C397.295,76.328,398.144,75.915,399.264,75.773z"/>
		<path d="M396.166,94.688l-0.019-2.201l2.269-0.895l-0.034-4.006l-2.283-0.808l-0.019-2.146l10.055,3.817l0.019,2.14
			L396.166,94.688z M400.098,90.928l3.707-1.412l-3.73-1.322L400.098,90.928z"/>
		<path d="M396.175,95.816l9.939-0.085l0.018,2.022l-8.251,0.071l0.043,5.031l-1.688,0.014L396.175,95.816z"/>
		<path d="M396.249,104.367l9.939-0.085l0.018,2.023l-8.251,0.071l0.044,5.031l-1.688,0.014L396.249,104.367z"/>
		<path d="M396.322,112.864l10.021-0.086l0.064,7.431l-1.695,0.015l-0.047-5.407l-2.222,0.02l0.043,5.031l-1.688,0.014l-0.043-5.031
			l-2.728,0.024l0.048,5.599l-1.688,0.014L396.322,112.864z"/>
	</g>
</g>
<g>
	<g>
		<path d="M395.847,57.707l9.939-0.085l0.018,2.023l-8.251,0.071l0.044,5.031l-1.688,0.014L395.847,57.707z"/>
		<path d="M395.999,75.24l-0.02-2.2l2.27-0.895l-0.034-4.006l-2.284-0.808l-0.019-2.146l10.056,3.817l0.019,2.14L395.999,75.24z
			 M399.931,71.481l3.707-1.412l-3.73-1.322L399.931,71.481z"/>
		<path d="M399.264,75.773l0.208,1.967c-0.66,0.124-1.144,0.368-1.45,0.733c-0.306,0.365-0.457,0.855-0.452,1.471
			c0.006,0.651,0.147,1.142,0.427,1.469c0.278,0.329,0.603,0.491,0.972,0.488c0.237-0.002,0.438-0.073,0.604-0.215
			c0.165-0.14,0.308-0.383,0.428-0.73c0.079-0.238,0.221-0.779,0.423-1.624c0.26-1.088,0.584-1.852,0.972-2.292
			c0.547-0.62,1.216-0.934,2.009-0.94c0.511-0.004,0.989,0.136,1.436,0.422c0.447,0.286,0.789,0.7,1.026,1.242
			c0.237,0.543,0.358,1.199,0.365,1.97c0.011,1.258-0.256,2.206-0.803,2.847c-0.546,0.641-1.278,0.98-2.199,1.021l-0.106-2.022
			c0.514-0.091,0.883-0.28,1.106-0.567c0.223-0.286,0.332-0.715,0.327-1.284c-0.005-0.588-0.13-1.047-0.374-1.378
			c-0.157-0.212-0.365-0.317-0.625-0.315c-0.237,0.002-0.438,0.104-0.605,0.306c-0.212,0.257-0.431,0.879-0.654,1.865
			s-0.458,1.716-0.703,2.19c-0.244,0.474-0.58,0.846-1.008,1.116c-0.43,0.27-0.959,0.408-1.593,0.414
			c-0.574,0.005-1.114-0.15-1.618-0.465c-0.503-0.315-0.88-0.763-1.13-1.344c-0.248-0.581-0.376-1.308-0.384-2.178
			c-0.011-1.267,0.274-2.243,0.854-2.927C397.295,76.328,398.144,75.915,399.264,75.773z"/>
		<path d="M396.166,94.688l-0.019-2.201l2.269-0.895l-0.034-4.006l-2.283-0.808l-0.019-2.146l10.055,3.817l0.019,2.14
			L396.166,94.688z M400.098,90.928l3.707-1.412l-3.73-1.322L400.098,90.928z"/>
		<path d="M396.175,95.816l9.939-0.085l0.018,2.022l-8.251,0.071l0.043,5.031l-1.688,0.014L396.175,95.816z"/>
		<path d="M396.249,104.367l9.939-0.085l0.018,2.023l-8.251,0.071l0.044,5.031l-1.688,0.014L396.249,104.367z"/>
		<path d="M396.322,112.864l10.021-0.086l0.064,7.431l-1.695,0.015l-0.047-5.407l-2.222,0.02l0.043,5.031l-1.688,0.014l-0.043-5.031
			l-2.728,0.024l0.048,5.599l-1.688,0.014L396.322,112.864z"/>
	</g>
</g>
<g>
	<g>
		<path d="M424.761,94.648l0.208,1.967c-0.66,0.124-1.144,0.368-1.45,0.733c-0.306,0.365-0.457,0.855-0.452,1.471
			c0.006,0.651,0.147,1.142,0.427,1.468c0.278,0.329,0.603,0.491,0.972,0.488c0.237-0.002,0.438-0.073,0.604-0.215
			c0.165-0.14,0.308-0.382,0.427-0.729c0.08-0.238,0.222-0.779,0.424-1.624c0.26-1.088,0.584-1.852,0.972-2.292
			c0.547-0.62,1.216-0.934,2.009-0.94c0.511-0.004,0.989,0.136,1.436,0.422c0.447,0.286,0.789,0.7,1.026,1.242
			c0.237,0.543,0.358,1.199,0.365,1.97c0.011,1.258-0.256,2.205-0.803,2.846c-0.546,0.641-1.278,0.98-2.199,1.021l-0.106-2.022
			c0.514-0.091,0.883-0.279,1.106-0.566c0.223-0.286,0.332-0.715,0.327-1.284c-0.005-0.588-0.13-1.047-0.374-1.378
			c-0.157-0.212-0.365-0.317-0.625-0.315c-0.237,0.002-0.438,0.104-0.605,0.306c-0.212,0.257-0.431,0.879-0.654,1.865
			s-0.458,1.715-0.703,2.189c-0.244,0.474-0.58,0.846-1.008,1.116c-0.43,0.27-0.959,0.408-1.593,0.414
			c-0.574,0.005-1.114-0.15-1.618-0.465c-0.503-0.315-0.88-0.763-1.13-1.344c-0.248-0.581-0.376-1.307-0.384-2.177
			c-0.011-1.267,0.273-2.243,0.854-2.927C422.792,95.203,423.641,94.79,424.761,94.648z"/>
		<path d="M421.604,106.781l8.326-0.071l-0.025-2.974l1.695-0.015l0.068,7.964l-1.695,0.015l-0.025-2.967l-8.326,0.071
			L421.604,106.781z"/>
		<path d="M421.727,121.075l-0.019-2.201l2.269-0.895l-0.034-4.006l-2.283-0.808l-0.019-2.146l10.055,3.817l0.019,2.14
			L421.727,121.075z M425.66,117.315l3.707-1.412l-3.73-1.322L425.66,117.315z"/>
		<path d="M421.747,123.365l8.326-0.071l-0.025-2.974l1.695-0.015l0.068,7.963l-1.695,0.015l-0.025-2.967l-8.326,0.071
			L421.747,123.365z"/>
		<path d="M421.801,129.66l10.021-0.086l0.063,7.431l-1.695,0.015l-0.046-5.407l-2.222,0.02l0.043,5.031l-1.688,0.014l-0.043-5.031
			l-2.728,0.024l0.048,5.599l-1.688,0.014L421.801,129.66z"/>
	</g>
</g>
<circle style="fill:none;stroke:#D72132;stroke-width:3;" cx="413.487" cy="133.659" r="7.277"/>
<circle style="fill:none;stroke:#D72132;stroke-width:3;" cx="289.487" cy="137.048" r="7.277"/>
<g>
	<polygon points="585.054,202.277 468.981,202.277 468.981,188.826 414.487,134.326 468.981,181.326 468.981,154.611 
		585.054,154.611 	"/>
	<g>
		<g>
			<path style="fill:#FFFFFF;" d="M478.745,174.127l-2.734-11.453h2.367l1.727,7.867l2.094-7.867h2.75l2.008,8l1.758-8h2.328
				l-2.781,11.453h-2.453l-2.281-8.562l-2.273,8.562H478.745z"/>
			<path style="fill:#FFFFFF;" d="M492.065,164.706v-2.031h2.195v2.031H492.065z M492.065,174.127v-8.297h2.195v8.297H492.065z"/>
			<path style="fill:#FFFFFF;" d="M504.057,174.127h-2.195v-4.234c0-0.896-0.047-1.476-0.141-1.738s-0.246-0.468-0.457-0.613
				s-0.465-0.219-0.762-0.219c-0.38,0-0.722,0.104-1.023,0.312s-0.509,0.484-0.621,0.828s-0.168,0.979-0.168,1.906v3.758h-2.195
				v-8.297h2.039v1.219c0.724-0.938,1.636-1.406,2.734-1.406c0.484,0,0.927,0.087,1.328,0.262s0.704,0.397,0.91,0.668
				s0.349,0.578,0.43,0.922s0.121,0.836,0.121,1.477V174.127z"/>
			<path style="fill:#FFFFFF;" d="M513.893,174.127h-2.039v-1.219c-0.339,0.474-0.738,0.827-1.199,1.059s-0.926,0.348-1.395,0.348
				c-0.953,0-1.77-0.384-2.449-1.152s-1.02-1.84-1.02-3.215c0-1.406,0.331-2.476,0.992-3.207s1.497-1.098,2.508-1.098
				c0.927,0,1.729,0.386,2.406,1.156v-4.125h2.195V174.127z M508.034,169.799c0,0.886,0.122,1.526,0.367,1.922
				c0.354,0.573,0.849,0.859,1.484,0.859c0.505,0,0.935-0.215,1.289-0.645s0.531-1.071,0.531-1.926c0-0.953-0.172-1.64-0.516-2.059
				s-0.784-0.629-1.32-0.629c-0.521,0-0.957,0.207-1.309,0.621S508.034,168.976,508.034,169.799z"/>
			<path style="fill:#FFFFFF;" d="M515.549,169.862c0-0.729,0.18-1.435,0.539-2.117s0.868-1.203,1.527-1.562
				s1.395-0.539,2.207-0.539c1.255,0,2.284,0.407,3.086,1.223s1.203,1.845,1.203,3.09c0,1.255-0.405,2.296-1.215,3.121
				s-1.829,1.238-3.059,1.238c-0.761,0-1.485-0.172-2.176-0.516s-1.215-0.848-1.574-1.512S515.549,170.815,515.549,169.862z
				 M517.799,169.979c0,0.823,0.195,1.453,0.586,1.891s0.872,0.656,1.445,0.656s1.054-0.219,1.441-0.656s0.582-1.073,0.582-1.906
				c0-0.812-0.194-1.438-0.582-1.875s-0.868-0.656-1.441-0.656s-1.055,0.219-1.445,0.656S517.799,169.156,517.799,169.979z"/>
			<path style="fill:#FFFFFF;" d="M527.378,174.127l-2.625-8.297h2.133l1.555,5.438l1.43-5.438h2.117l1.383,5.438l1.586-5.438h2.164
				l-2.664,8.297h-2.109l-1.43-5.336l-1.406,5.336H527.378z"/>
			<path style="fill:#FFFFFF;" d="M537.503,171.76l2.203-0.336c0.094,0.427,0.284,0.751,0.57,0.973s0.688,0.332,1.203,0.332
				c0.567,0,0.995-0.104,1.281-0.312c0.192-0.146,0.289-0.341,0.289-0.586c0-0.167-0.052-0.305-0.156-0.414
				c-0.109-0.104-0.354-0.2-0.734-0.289c-1.771-0.391-2.894-0.747-3.367-1.07c-0.656-0.448-0.984-1.07-0.984-1.867
				c0-0.719,0.284-1.323,0.852-1.812s1.448-0.734,2.641-0.734c1.136,0,1.979,0.185,2.531,0.555s0.933,0.917,1.141,1.641l-2.07,0.383
				c-0.089-0.323-0.257-0.57-0.504-0.742s-0.601-0.258-1.059-0.258c-0.578,0-0.992,0.081-1.242,0.242
				c-0.167,0.114-0.25,0.263-0.25,0.445c0,0.156,0.073,0.289,0.219,0.398c0.198,0.146,0.882,0.352,2.051,0.617
				s1.985,0.591,2.449,0.977c0.458,0.391,0.688,0.935,0.688,1.633c0,0.761-0.317,1.414-0.953,1.961s-1.575,0.82-2.82,0.82
				c-1.13,0-2.024-0.229-2.684-0.688S537.706,172.546,537.503,171.76z"/>
			<path style="fill:#FFFFFF;" d="M477.01,192.127v-11.453h2.195v4.125c0.677-0.771,1.479-1.156,2.406-1.156
				c1.011,0,1.847,0.366,2.508,1.098s0.992,1.782,0.992,3.152c0,1.417-0.337,2.508-1.012,3.273s-1.493,1.148-2.457,1.148
				c-0.474,0-0.941-0.118-1.402-0.355s-0.858-0.587-1.191-1.051v1.219H477.01z M479.19,187.799c0,0.859,0.136,1.495,0.406,1.906
				c0.38,0.583,0.886,0.875,1.516,0.875c0.484,0,0.897-0.207,1.238-0.621s0.512-1.066,0.512-1.957c0-0.948-0.172-1.632-0.516-2.051
				s-0.784-0.629-1.32-0.629c-0.526,0-0.964,0.204-1.312,0.613S479.19,186.966,479.19,187.799z"/>
			<path style="fill:#FFFFFF;" d="M491.682,189.487l2.188,0.367c-0.281,0.802-0.726,1.413-1.332,1.832s-1.366,0.629-2.277,0.629
				c-1.442,0-2.511-0.472-3.203-1.414c-0.547-0.755-0.82-1.708-0.82-2.859c0-1.375,0.359-2.452,1.078-3.23s1.628-1.168,2.727-1.168
				c1.234,0,2.208,0.407,2.922,1.223s1.055,2.063,1.023,3.746h-5.5c0.016,0.651,0.192,1.157,0.531,1.52s0.761,0.543,1.266,0.543
				c0.344,0,0.633-0.094,0.867-0.281S491.562,189.904,491.682,189.487z M491.807,187.268c-0.016-0.636-0.18-1.118-0.492-1.449
				s-0.692-0.496-1.141-0.496c-0.479,0-0.875,0.175-1.188,0.523s-0.466,0.823-0.461,1.422H491.807z"/>
			<path style="fill:#FFFFFF;" d="M495.776,182.706v-2.031h2.195v2.031H495.776z M495.776,192.127v-8.297h2.195v8.297H495.776z"/>
			<path style="fill:#FFFFFF;" d="M507.768,192.127h-2.195v-4.234c0-0.896-0.047-1.476-0.141-1.738s-0.246-0.468-0.457-0.613
				s-0.465-0.219-0.762-0.219c-0.38,0-0.722,0.104-1.023,0.312s-0.509,0.484-0.621,0.828s-0.168,0.979-0.168,1.906v3.758h-2.195
				v-8.297h2.039v1.219c0.724-0.938,1.636-1.406,2.734-1.406c0.484,0,0.927,0.087,1.328,0.262s0.704,0.397,0.91,0.668
				s0.349,0.578,0.43,0.922s0.121,0.836,0.121,1.477V192.127z"/>
			<path style="fill:#FFFFFF;" d="M509.792,192.674l2.508,0.305c0.042,0.292,0.138,0.492,0.289,0.602
				c0.208,0.156,0.536,0.234,0.984,0.234c0.573,0,1.003-0.086,1.289-0.258c0.192-0.114,0.339-0.3,0.438-0.555
				c0.067-0.183,0.102-0.519,0.102-1.008v-1.211c-0.656,0.896-1.484,1.344-2.484,1.344c-1.114,0-1.997-0.472-2.648-1.414
				c-0.511-0.745-0.766-1.672-0.766-2.781c0-1.391,0.335-2.453,1.004-3.188s1.501-1.102,2.496-1.102c1.026,0,1.872,0.45,2.539,1.352
				v-1.164h2.055v7.445c0,0.979-0.081,1.711-0.242,2.195s-0.388,0.864-0.68,1.141s-0.681,0.492-1.168,0.648
				s-1.103,0.234-1.848,0.234c-1.406,0-2.403-0.241-2.992-0.723s-0.883-1.093-0.883-1.832
				C509.784,192.867,509.787,192.779,509.792,192.674z M511.753,187.807c0,0.88,0.171,1.524,0.512,1.934
				c0.341,0.409,0.762,0.613,1.262,0.613c0.536,0,0.989-0.21,1.359-0.629s0.555-1.04,0.555-1.863c0-0.859-0.177-1.497-0.531-1.914
				s-0.802-0.625-1.344-0.625c-0.526,0-0.96,0.204-1.301,0.613C511.923,186.345,511.753,186.968,511.753,187.807z"/>
			<path style="fill:#FFFFFF;" d="M524.12,192.127v-11.453h2.195v4.125c0.677-0.771,1.479-1.156,2.406-1.156
				c1.011,0,1.847,0.366,2.508,1.098s0.992,1.782,0.992,3.152c0,1.417-0.337,2.508-1.012,3.273s-1.493,1.148-2.457,1.148
				c-0.474,0-0.941-0.118-1.402-0.355s-0.858-0.587-1.191-1.051v1.219H524.12z M526.299,187.799c0,0.859,0.136,1.495,0.406,1.906
				c0.38,0.583,0.886,0.875,1.516,0.875c0.484,0,0.897-0.207,1.238-0.621s0.512-1.066,0.512-1.957c0-0.948-0.172-1.632-0.516-2.051
				s-0.784-0.629-1.32-0.629c-0.526,0-0.964,0.204-1.312,0.613S526.299,186.966,526.299,187.799z"/>
			<path style="fill:#FFFFFF;" d="M536.088,192.127h-2.195v-8.297h2.039v1.18c0.349-0.558,0.663-0.925,0.941-1.102
				s0.595-0.266,0.949-0.266c0.5,0,0.981,0.138,1.445,0.414l-0.68,1.914c-0.37-0.239-0.714-0.359-1.031-0.359
				c-0.308,0-0.567,0.085-0.781,0.254s-0.382,0.476-0.504,0.918s-0.184,1.37-0.184,2.781V192.127z"/>
			<path style="fill:#FFFFFF;" d="M539.706,187.862c0-0.729,0.18-1.435,0.539-2.117s0.868-1.203,1.527-1.562
				s1.395-0.539,2.207-0.539c1.255,0,2.284,0.407,3.086,1.223s1.203,1.845,1.203,3.09c0,1.255-0.405,2.296-1.215,3.121
				s-1.829,1.238-3.059,1.238c-0.761,0-1.485-0.172-2.176-0.516s-1.215-0.848-1.574-1.512S539.706,188.815,539.706,187.862z
				 M541.956,187.979c0,0.823,0.195,1.453,0.586,1.891s0.872,0.656,1.445,0.656s1.054-0.219,1.441-0.656s0.582-1.073,0.582-1.906
				c0-0.812-0.194-1.438-0.582-1.875s-0.868-0.656-1.441-0.656s-1.055,0.219-1.445,0.656S541.956,187.156,541.956,187.979z"/>
			<path style="fill:#FFFFFF;" d="M549.909,192.127v-11.453h2.195v6.078l2.57-2.922h2.703l-2.836,3.031l3.039,5.266h-2.367
				l-2.086-3.727l-1.023,1.07v2.656H549.909z"/>
			<path style="fill:#FFFFFF;" d="M563.69,189.487l2.188,0.367c-0.281,0.802-0.726,1.413-1.332,1.832s-1.366,0.629-2.277,0.629
				c-1.442,0-2.511-0.472-3.203-1.414c-0.547-0.755-0.82-1.708-0.82-2.859c0-1.375,0.359-2.452,1.078-3.23s1.628-1.168,2.727-1.168
				c1.234,0,2.208,0.407,2.922,1.223s1.055,2.063,1.023,3.746h-5.5c0.016,0.651,0.192,1.157,0.531,1.52s0.761,0.543,1.266,0.543
				c0.344,0,0.633-0.094,0.867-0.281S563.57,189.904,563.69,189.487z M563.815,187.268c-0.016-0.636-0.18-1.118-0.492-1.449
				s-0.692-0.496-1.141-0.496c-0.479,0-0.875,0.175-1.188,0.523s-0.466,0.823-0.461,1.422H563.815z"/>
			<path style="fill:#FFFFFF;" d="M575.331,192.127h-2.195v-4.234c0-0.896-0.047-1.476-0.141-1.738s-0.246-0.468-0.457-0.613
				s-0.465-0.219-0.762-0.219c-0.38,0-0.722,0.104-1.023,0.312s-0.509,0.484-0.621,0.828s-0.168,0.979-0.168,1.906v3.758h-2.195
				v-8.297h2.039v1.219c0.724-0.938,1.636-1.406,2.734-1.406c0.484,0,0.927,0.087,1.328,0.262s0.704,0.397,0.91,0.668
				s0.349,0.578,0.43,0.922s0.121,0.836,0.121,1.477V192.127z"/>
		</g>
	</g>
</g>
<g>
	<polygon points="262.32,277.443 137.453,277.443 137.453,228.777 214.32,228.777 289.519,137.322 224.32,228.777 262.32,228.777 	
		"/>
	<g>
		<rect x="144.654" y="236.838" style="fill:none;" width="114.162" height="29.796"/>
		<path style="fill:#FFFFFF;" d="M145.833,248.293V236.84h7.852v1.938h-5.539v2.711h4.781v1.938h-4.781v4.867H145.833z"/>
		<path style="fill:#FFFFFF;" d="M155.575,238.872v-2.031h2.195v2.031H155.575z M155.575,248.293v-8.297h2.195v8.297H155.575z"/>
		<path style="fill:#FFFFFF;" d="M162.122,248.293h-2.195v-8.297h2.039v1.18c0.349-0.558,0.663-0.925,0.941-1.102
			s0.595-0.266,0.949-0.266c0.5,0,0.981,0.138,1.445,0.414l-0.68,1.914c-0.37-0.239-0.714-0.359-1.031-0.359
			c-0.308,0-0.567,0.085-0.781,0.254s-0.382,0.476-0.504,0.918s-0.184,1.37-0.184,2.781V248.293z"/>
		<path style="fill:#FFFFFF;" d="M165.473,245.926l2.203-0.336c0.094,0.427,0.284,0.751,0.57,0.973s0.688,0.332,1.203,0.332
			c0.567,0,0.995-0.104,1.281-0.312c0.192-0.146,0.289-0.341,0.289-0.586c0-0.167-0.052-0.305-0.156-0.414
			c-0.109-0.104-0.354-0.2-0.734-0.289c-1.771-0.391-2.894-0.747-3.367-1.07c-0.656-0.448-0.984-1.07-0.984-1.867
			c0-0.719,0.284-1.323,0.852-1.812s1.448-0.734,2.641-0.734c1.136,0,1.979,0.185,2.531,0.555s0.933,0.917,1.141,1.641l-2.07,0.383
			c-0.089-0.323-0.257-0.57-0.504-0.742s-0.601-0.258-1.059-0.258c-0.578,0-0.992,0.081-1.242,0.242
			c-0.167,0.114-0.25,0.263-0.25,0.445c0,0.156,0.073,0.289,0.219,0.398c0.198,0.146,0.882,0.352,2.051,0.617
			s1.985,0.591,2.449,0.977c0.458,0.391,0.688,0.935,0.688,1.633c0,0.761-0.317,1.414-0.953,1.961s-1.575,0.82-2.82,0.82
			c-1.13,0-2.024-0.229-2.684-0.688S165.676,246.712,165.473,245.926z"/>
		<path style="fill:#FFFFFF;" d="M178.95,239.997v1.75h-1.5v3.344c0,0.677,0.015,1.071,0.043,1.184s0.094,0.204,0.195,0.277
			s0.226,0.109,0.371,0.109c0.203,0,0.497-0.07,0.883-0.211l0.188,1.703c-0.511,0.219-1.089,0.328-1.734,0.328
			c-0.396,0-0.753-0.066-1.07-0.199s-0.551-0.305-0.699-0.516s-0.251-0.496-0.309-0.855c-0.047-0.255-0.07-0.771-0.07-1.547v-3.617
			h-1.008v-1.75h1.008v-1.648l2.203-1.281v2.93H178.95z"/>
		<path style="fill:#FFFFFF;" d="M183.958,239.997h1.219v-0.625c0-0.698,0.074-1.219,0.223-1.562s0.422-0.624,0.82-0.84
			s0.902-0.324,1.512-0.324c0.625,0,1.237,0.094,1.836,0.281l-0.297,1.531c-0.349-0.083-0.685-0.125-1.008-0.125
			c-0.317,0-0.546,0.074-0.684,0.223s-0.207,0.434-0.207,0.855v0.586h1.641v1.727h-1.641v6.57h-2.195v-6.57h-1.219V239.997z"/>
		<path style="fill:#FFFFFF;" d="M190.247,238.872v-2.031h2.195v2.031H190.247z M190.247,248.293v-8.297h2.195v8.297H190.247z"/>
		<path style="fill:#FFFFFF;" d="M196.794,248.293h-2.195v-8.297h2.039v1.18c0.349-0.558,0.663-0.925,0.941-1.102
			s0.595-0.266,0.949-0.266c0.5,0,0.981,0.138,1.445,0.414l-0.68,1.914c-0.37-0.239-0.714-0.359-1.031-0.359
			c-0.308,0-0.567,0.085-0.781,0.254s-0.382,0.476-0.504,0.918s-0.184,1.37-0.184,2.781V248.293z"/>
		<path style="fill:#FFFFFF;" d="M205.723,245.653l2.188,0.367c-0.281,0.802-0.726,1.413-1.332,1.832s-1.366,0.629-2.277,0.629
			c-1.442,0-2.511-0.472-3.203-1.414c-0.547-0.755-0.82-1.708-0.82-2.859c0-1.375,0.359-2.452,1.078-3.23s1.628-1.168,2.727-1.168
			c1.234,0,2.208,0.407,2.922,1.223s1.055,2.063,1.023,3.746h-5.5c0.016,0.651,0.192,1.157,0.531,1.52s0.761,0.543,1.266,0.543
			c0.344,0,0.633-0.094,0.867-0.281S205.603,246.07,205.723,245.653z M205.848,243.434c-0.016-0.636-0.18-1.118-0.492-1.449
			s-0.692-0.496-1.141-0.496c-0.479,0-0.875,0.175-1.188,0.523s-0.466,0.823-0.461,1.422H205.848z"/>
		<path style="fill:#FFFFFF;" d="M215.903,242.528l-1.992-0.359c0.224-0.802,0.609-1.396,1.156-1.781s1.359-0.578,2.438-0.578
			c0.979,0,1.708,0.116,2.188,0.348s0.816,0.526,1.012,0.883s0.293,1.012,0.293,1.965l-0.023,2.562c0,0.729,0.035,1.267,0.105,1.613
			s0.202,0.718,0.395,1.113h-2.172c-0.058-0.146-0.128-0.362-0.211-0.648c-0.036-0.13-0.062-0.216-0.078-0.258
			c-0.375,0.364-0.776,0.638-1.203,0.82s-0.883,0.273-1.367,0.273c-0.854,0-1.527-0.231-2.02-0.695s-0.738-1.05-0.738-1.758
			c0-0.469,0.112-0.887,0.336-1.254s0.538-0.648,0.941-0.844s0.985-0.366,1.746-0.512c1.026-0.192,1.737-0.372,2.133-0.539v-0.219
			c0-0.422-0.104-0.723-0.312-0.902s-0.602-0.27-1.18-0.27c-0.391,0-0.695,0.077-0.914,0.23S216.039,242.142,215.903,242.528z
			 M218.84,244.309c-0.281,0.094-0.727,0.206-1.336,0.336s-1.008,0.258-1.195,0.383c-0.286,0.203-0.43,0.461-0.43,0.773
			c0,0.308,0.114,0.573,0.344,0.797s0.521,0.336,0.875,0.336c0.396,0,0.773-0.13,1.133-0.391c0.266-0.198,0.44-0.44,0.523-0.727
			c0.058-0.188,0.086-0.544,0.086-1.07V244.309z"/>
		<path style="fill:#FFFFFF;" d="M226.965,239.997v1.75h-1.5v3.344c0,0.677,0.015,1.071,0.043,1.184s0.094,0.204,0.195,0.277
			s0.226,0.109,0.371,0.109c0.203,0,0.497-0.07,0.883-0.211l0.188,1.703c-0.511,0.219-1.089,0.328-1.734,0.328
			c-0.396,0-0.753-0.066-1.07-0.199s-0.551-0.305-0.699-0.516s-0.251-0.496-0.309-0.855c-0.047-0.255-0.07-0.771-0.07-1.547v-3.617
			h-1.008v-1.75h1.008v-1.648l2.203-1.281v2.93H226.965z"/>
		<path style="fill:#FFFFFF;" d="M144.84,257.997h1.219v-0.625c0-0.698,0.074-1.219,0.223-1.562s0.422-0.624,0.82-0.84
			s0.902-0.324,1.512-0.324c0.625,0,1.237,0.094,1.836,0.281l-0.297,1.531c-0.349-0.083-0.685-0.125-1.008-0.125
			c-0.317,0-0.546,0.074-0.684,0.223s-0.207,0.434-0.207,0.855v0.586h1.641v1.727h-1.641v6.57h-2.195v-6.57h-1.219V257.997z"/>
		<path style="fill:#FFFFFF;" d="M156.59,266.293v-1.242c-0.302,0.442-0.699,0.792-1.191,1.047s-1.012,0.383-1.559,0.383
			c-0.558,0-1.058-0.122-1.5-0.367s-0.763-0.589-0.961-1.031s-0.297-1.055-0.297-1.836v-5.25h2.195v3.812
			c0,1.167,0.04,1.882,0.121,2.145s0.228,0.472,0.441,0.625s0.484,0.23,0.812,0.23c0.375,0,0.711-0.103,1.008-0.309
			s0.5-0.461,0.609-0.766s0.164-1.051,0.164-2.238v-3.5h2.195v8.297H156.59z"/>
		<path style="fill:#FFFFFF;" d="M163.004,266.293h-2.195v-8.297h2.039v1.18c0.349-0.558,0.663-0.925,0.941-1.102
			s0.595-0.266,0.949-0.266c0.5,0,0.981,0.138,1.445,0.414l-0.68,1.914c-0.37-0.239-0.714-0.359-1.031-0.359
			c-0.308,0-0.567,0.085-0.781,0.254s-0.382,0.476-0.504,0.918s-0.184,1.37-0.184,2.781V266.293z"/>
		<path style="fill:#FFFFFF;" d="M174.676,266.293h-2.195v-4.234c0-0.896-0.047-1.476-0.141-1.738s-0.246-0.468-0.457-0.613
			s-0.465-0.219-0.762-0.219c-0.38,0-0.722,0.104-1.023,0.312s-0.509,0.484-0.621,0.828s-0.168,0.979-0.168,1.906v3.758h-2.195
			v-8.297h2.039v1.219c0.724-0.938,1.636-1.406,2.734-1.406c0.484,0,0.927,0.087,1.328,0.262s0.704,0.397,0.91,0.668
			s0.349,0.578,0.43,0.922s0.121,0.836,0.121,1.477V266.293z"/>
		<path style="fill:#FFFFFF;" d="M176.903,256.872v-2.031h2.195v2.031H176.903z M176.903,266.293v-8.297h2.195v8.297H176.903z"/>
		<path style="fill:#FFFFFF;" d="M185.153,257.997v1.75h-1.5v3.344c0,0.677,0.015,1.071,0.043,1.184s0.094,0.204,0.195,0.277
			s0.226,0.109,0.371,0.109c0.203,0,0.497-0.07,0.883-0.211l0.188,1.703c-0.511,0.219-1.089,0.328-1.734,0.328
			c-0.396,0-0.753-0.066-1.07-0.199s-0.551-0.305-0.699-0.516s-0.251-0.496-0.309-0.855c-0.047-0.255-0.07-0.771-0.07-1.547v-3.617
			h-1.008v-1.75h1.008v-1.648l2.203-1.281v2.93H185.153z"/>
		<path style="fill:#FFFFFF;" d="M192.137,266.293v-1.242c-0.302,0.442-0.699,0.792-1.191,1.047s-1.012,0.383-1.559,0.383
			c-0.558,0-1.058-0.122-1.5-0.367s-0.763-0.589-0.961-1.031s-0.297-1.055-0.297-1.836v-5.25h2.195v3.812
			c0,1.167,0.04,1.882,0.121,2.145s0.228,0.472,0.441,0.625s0.484,0.23,0.812,0.23c0.375,0,0.711-0.103,1.008-0.309
			s0.5-0.461,0.609-0.766s0.164-1.051,0.164-2.238v-3.5h2.195v8.297H192.137z"/>
		<path style="fill:#FFFFFF;" d="M198.551,266.293h-2.195v-8.297h2.039v1.18c0.349-0.558,0.663-0.925,0.941-1.102
			s0.595-0.266,0.949-0.266c0.5,0,0.981,0.138,1.445,0.414l-0.68,1.914c-0.37-0.239-0.714-0.359-1.031-0.359
			c-0.308,0-0.567,0.085-0.781,0.254s-0.382,0.476-0.504,0.918s-0.184,1.37-0.184,2.781V266.293z"/>
		<path style="fill:#FFFFFF;" d="M207.481,263.653l2.188,0.367c-0.281,0.802-0.726,1.413-1.332,1.832s-1.366,0.629-2.277,0.629
			c-1.442,0-2.511-0.472-3.203-1.414c-0.547-0.755-0.82-1.708-0.82-2.859c0-1.375,0.359-2.452,1.078-3.23s1.628-1.168,2.727-1.168
			c1.234,0,2.208,0.407,2.922,1.223s1.055,2.063,1.023,3.746h-5.5c0.016,0.651,0.192,1.157,0.531,1.52s0.761,0.543,1.266,0.543
			c0.344,0,0.633-0.094,0.867-0.281S207.361,264.07,207.481,263.653z M207.606,261.434c-0.016-0.636-0.18-1.118-0.492-1.449
			s-0.692-0.496-1.141-0.496c-0.479,0-0.875,0.175-1.188,0.523s-0.466,0.823-0.461,1.422H207.606z"/>
		<path style="fill:#FFFFFF;" d="M215.247,263.926l2.203-0.336c0.094,0.427,0.284,0.751,0.57,0.973s0.688,0.332,1.203,0.332
			c0.567,0,0.995-0.104,1.281-0.312c0.192-0.146,0.289-0.341,0.289-0.586c0-0.167-0.052-0.305-0.156-0.414
			c-0.109-0.104-0.354-0.2-0.734-0.289c-1.771-0.391-2.894-0.747-3.367-1.07c-0.656-0.448-0.984-1.07-0.984-1.867
			c0-0.719,0.284-1.323,0.852-1.812s1.448-0.734,2.641-0.734c1.136,0,1.979,0.185,2.531,0.555s0.933,0.917,1.141,1.641l-2.07,0.383
			c-0.089-0.323-0.257-0.57-0.504-0.742s-0.601-0.258-1.059-0.258c-0.578,0-0.992,0.081-1.242,0.242
			c-0.167,0.114-0.25,0.263-0.25,0.445c0,0.156,0.073,0.289,0.219,0.398c0.198,0.146,0.882,0.352,2.051,0.617
			s1.985,0.591,2.449,0.977c0.458,0.391,0.688,0.935,0.688,1.633c0,0.761-0.317,1.414-0.953,1.961s-1.575,0.82-2.82,0.82
			c-1.13,0-2.024-0.229-2.684-0.688S215.45,264.712,215.247,263.926z"/>
		<path style="fill:#FFFFFF;" d="M228.723,257.997v1.75h-1.5v3.344c0,0.677,0.015,1.071,0.043,1.184s0.094,0.204,0.195,0.277
			s0.226,0.109,0.371,0.109c0.203,0,0.497-0.07,0.883-0.211l0.188,1.703c-0.511,0.219-1.089,0.328-1.734,0.328
			c-0.396,0-0.753-0.066-1.07-0.199s-0.551-0.305-0.699-0.516s-0.251-0.496-0.309-0.855c-0.047-0.255-0.07-0.771-0.07-1.547v-3.617
			h-1.008v-1.75h1.008v-1.648l2.203-1.281v2.93H228.723z"/>
		<path style="fill:#FFFFFF;" d="M229.739,262.028c0-0.729,0.18-1.435,0.539-2.117s0.868-1.203,1.527-1.562s1.395-0.539,2.207-0.539
			c1.255,0,2.284,0.407,3.086,1.223s1.203,1.845,1.203,3.09c0,1.255-0.405,2.296-1.215,3.121s-1.829,1.238-3.059,1.238
			c-0.761,0-1.485-0.172-2.176-0.516s-1.215-0.848-1.574-1.512S229.739,262.981,229.739,262.028z M231.989,262.145
			c0,0.823,0.195,1.453,0.586,1.891s0.872,0.656,1.445,0.656s1.054-0.219,1.441-0.656s0.582-1.073,0.582-1.906
			c0-0.812-0.194-1.438-0.582-1.875s-0.868-0.656-1.441-0.656s-1.055,0.219-1.445,0.656S231.989,261.322,231.989,262.145z"/>
		<path style="fill:#FFFFFF;" d="M242.122,266.293h-2.195v-8.297h2.039v1.18c0.349-0.558,0.663-0.925,0.941-1.102
			s0.595-0.266,0.949-0.266c0.5,0,0.981,0.138,1.445,0.414l-0.68,1.914c-0.37-0.239-0.714-0.359-1.031-0.359
			c-0.308,0-0.567,0.085-0.781,0.254s-0.382,0.476-0.504,0.918s-0.184,1.37-0.184,2.781V266.293z"/>
		<path style="fill:#FFFFFF;" d="M251.051,263.653l2.188,0.367c-0.281,0.802-0.726,1.413-1.332,1.832s-1.366,0.629-2.277,0.629
			c-1.442,0-2.511-0.472-3.203-1.414c-0.547-0.755-0.82-1.708-0.82-2.859c0-1.375,0.359-2.452,1.078-3.23s1.628-1.168,2.727-1.168
			c1.234,0,2.208,0.407,2.922,1.223s1.055,2.063,1.023,3.746h-5.5c0.016,0.651,0.192,1.157,0.531,1.52s0.761,0.543,1.266,0.543
			c0.344,0,0.633-0.094,0.867-0.281S250.931,264.07,251.051,263.653z M251.176,261.434c-0.016-0.636-0.18-1.118-0.492-1.449
			s-0.692-0.496-1.141-0.496c-0.479,0-0.875,0.175-1.188,0.523s-0.466,0.823-0.461,1.422H251.176z"/>
	</g>
</g>
</svg>
