<?xml version="1.0" encoding="utf-8"?>
<!-- Generator: Adobe Illustrator 22.0.1, SVG Export Plug-In . SVG Version: 6.00 Build 0)  -->
<svg version="1.1" id="troops" xmlns="http://www.w3.org/2000/svg" xmlns:xlink="http://www.w3.org/1999/xlink" x="0px" y="0px"
	 viewBox="0 0 610 622" style="enable-background:new 0 0 610 622;" xml:space="preserve">
<path style="fill:#C11B17;stroke:#231F20;stroke-width:0.95;stroke-miterlimit:10;" d="M463.033,392.147L463.033,392.147
	c-2.726,0-4.957,2.23-4.957,4.957v0c0,2.726,2.23,4.957,4.957,4.957l0,0c2.726,0,4.957-2.23,4.957-4.957v0
	C467.989,394.377,465.759,392.147,463.033,392.147z"/>
<path style="fill:#C11B17;stroke:#231F20;stroke-width:0.95;stroke-miterlimit:10;" d="M532.317,465.501L532.317,465.501
	c-2.726,0-4.957,2.23-4.957,4.957v0c0,2.726,2.231,4.957,4.957,4.957l0,0c2.726,0,4.957-2.23,4.957-4.957v0
	C537.273,467.731,535.043,465.501,532.317,465.501z"/>
<path style="fill:#C11B17;stroke:#231F20;stroke-width:0.95;stroke-miterlimit:10;" d="M352.326,479.795L352.326,479.795
	c-2.726,0-4.957,2.23-4.957,4.957l0,0c0,2.726,2.23,4.957,4.957,4.957l0,0c2.726,0,4.957-2.23,4.957-4.957l0,0
	C357.283,482.025,355.052,479.795,352.326,479.795z"/>
<path style="fill:#C11B17;stroke:#231F20;stroke-width:0.95;stroke-miterlimit:10;" d="M296.557,316.705L296.557,316.705
	c-2.726,0-4.957,2.23-4.957,4.957l0,0c0,2.726,2.23,4.957,4.957,4.957l0,0c2.726,0,4.957-2.23,4.957-4.957l0,0
	C301.514,318.935,299.283,316.705,296.557,316.705z"/>
<path style="fill:#C11B17;stroke:#231F20;stroke-width:0.95;stroke-miterlimit:10;" d="M145.789,434.783L145.789,434.783
	c-2.726,0-4.957,2.23-4.957,4.957v0c0,2.726,2.23,4.957,4.957,4.957h0c2.726,0,4.957-2.23,4.957-4.957v0
	C150.745,437.014,148.515,434.783,145.789,434.783z"/>
<g>
	
		<rect x="136.337" y="17.913" transform="matrix(1 -0.003 0.003 1 -0.0756 0.5788)" style="fill:#F1F2F2;" width="116.003" height="15.536"/>
	<g>
		<g>
			<path d="M139.044,29.007V18.986h1.36l5.264,7.869v-7.869h1.271v10.021h-1.36l-5.264-7.875v7.875H139.044z"/>
			<path d="M148.552,25.378c0-1.346,0.374-2.34,1.121-2.988c0.624-0.537,1.386-0.807,2.283-0.807c0.998,0,1.813,0.328,2.447,0.98
				c0.634,0.654,0.95,1.559,0.95,2.711c0,0.936-0.14,1.67-0.421,2.205c-0.279,0.535-0.688,0.951-1.223,1.248
				c-0.536,0.295-1.12,0.443-1.754,0.443c-1.017,0-1.838-0.326-2.465-0.977C148.866,27.542,148.552,26.603,148.552,25.378z
				 M149.817,25.378c0,0.93,0.203,1.625,0.608,2.088s0.916,0.693,1.531,0.693c0.61,0,1.119-0.232,1.524-0.697
				s0.608-1.174,0.608-2.125c0-0.898-0.204-1.578-0.611-2.041c-0.408-0.463-0.915-0.693-1.521-0.693
				c-0.615,0-1.126,0.23-1.531,0.689C150.02,23.753,149.817,24.449,149.817,25.378z"/>
			<path d="M156.783,29.007v-7.26h1.107v1.102c0.282-0.516,0.544-0.855,0.782-1.02c0.24-0.164,0.503-0.246,0.79-0.246
				c0.415,0,0.836,0.133,1.265,0.396l-0.424,1.143c-0.301-0.178-0.602-0.268-0.902-0.268c-0.269,0-0.511,0.082-0.725,0.242
				c-0.214,0.162-0.367,0.387-0.458,0.674c-0.137,0.438-0.205,0.916-0.205,1.436v3.801H156.783z"/>
			<path d="M164.145,27.908l0.178,1.086c-0.347,0.074-0.656,0.109-0.93,0.109c-0.446,0-0.793-0.07-1.039-0.211
				c-0.246-0.143-0.419-0.328-0.52-0.559c-0.101-0.229-0.15-0.713-0.15-1.451v-4.178h-0.902v-0.957h0.902v-1.797l1.224-0.738v2.535
				h1.237v0.957h-1.237v4.246c0,0.35,0.021,0.576,0.065,0.676c0.043,0.102,0.113,0.18,0.211,0.24
				c0.099,0.059,0.238,0.088,0.421,0.088C163.742,27.955,163.921,27.939,164.145,27.908z"/>
			<path d="M165.348,29.007V18.986h1.23v3.596c0.574-0.664,1.299-0.998,2.174-0.998c0.538,0,1.005,0.105,1.401,0.318
				c0.396,0.211,0.68,0.504,0.852,0.879c0.17,0.373,0.256,0.916,0.256,1.627v4.6h-1.23v-4.6c0-0.615-0.133-1.064-0.4-1.344
				c-0.266-0.281-0.644-0.42-1.131-0.42c-0.364,0-0.707,0.094-1.029,0.283c-0.32,0.189-0.55,0.445-0.687,0.77
				c-0.137,0.322-0.205,0.77-0.205,1.34v3.971H165.348z"/>
			<path d="M174.474,29.007l-2.222-7.26h1.271l1.155,4.191l0.431,1.559c0.019-0.078,0.144-0.576,0.376-1.498l1.155-4.252h1.265
				l1.087,4.211l0.362,1.389l0.417-1.402l1.244-4.197h1.196l-2.27,7.26h-1.278l-1.155-4.348l-0.28-1.236l-1.47,5.584H174.474z"/>
			<path d="M188.214,26.669l1.271,0.158c-0.2,0.742-0.572,1.318-1.114,1.729s-1.235,0.615-2.078,0.615
				c-1.062,0-1.903-0.326-2.526-0.98c-0.621-0.654-0.933-1.57-0.933-2.752c0-1.221,0.314-2.168,0.943-2.844
				c0.629-0.674,1.444-1.012,2.447-1.012c0.971,0,1.764,0.33,2.379,0.992c0.615,0.66,0.923,1.59,0.923,2.789
				c0,0.072-0.002,0.182-0.007,0.328h-5.414c0.046,0.797,0.271,1.408,0.677,1.832s0.911,0.635,1.518,0.635
				c0.451,0,0.836-0.117,1.155-0.355C187.775,27.568,188.028,27.189,188.214,26.669z M184.174,24.681h4.054
				c-0.055-0.611-0.21-1.068-0.465-1.375c-0.392-0.473-0.9-0.711-1.524-0.711c-0.565,0-1.04,0.189-1.425,0.568
				C184.428,23.541,184.215,24.046,184.174,24.681z"/>
			<path d="M190.539,26.841l1.217-0.191c0.068,0.486,0.259,0.861,0.571,1.121c0.312,0.26,0.748,0.389,1.309,0.389
				c0.565,0,0.984-0.115,1.258-0.346c0.273-0.229,0.41-0.5,0.41-0.809c0-0.279-0.121-0.498-0.362-0.656
				c-0.169-0.109-0.588-0.248-1.258-0.418c-0.902-0.227-1.528-0.424-1.876-0.592c-0.35-0.166-0.613-0.396-0.793-0.689
				c-0.181-0.295-0.271-0.619-0.271-0.975c0-0.322,0.074-0.623,0.222-0.898c0.148-0.275,0.351-0.504,0.605-0.688
				c0.191-0.141,0.452-0.26,0.783-0.359c0.33-0.098,0.685-0.146,1.062-0.146c0.569,0,1.07,0.082,1.5,0.246
				c0.432,0.164,0.749,0.387,0.954,0.666c0.205,0.281,0.347,0.656,0.424,1.125l-1.203,0.164c-0.055-0.373-0.213-0.664-0.476-0.875
				c-0.262-0.209-0.632-0.314-1.11-0.314c-0.565,0-0.969,0.094-1.21,0.281c-0.241,0.186-0.362,0.404-0.362,0.656
				c0,0.158,0.05,0.303,0.15,0.43c0.101,0.133,0.258,0.242,0.472,0.328c0.123,0.047,0.485,0.15,1.087,0.314
				c0.87,0.232,1.478,0.424,1.821,0.57c0.345,0.148,0.614,0.365,0.811,0.646c0.196,0.283,0.294,0.635,0.294,1.053
				c0,0.41-0.12,0.797-0.358,1.158c-0.24,0.363-0.585,0.643-1.036,0.842c-0.451,0.197-0.962,0.297-1.531,0.297
				c-0.943,0-1.662-0.195-2.157-0.588C190.991,28.193,190.675,27.611,190.539,26.841z"/>
			<path d="M200.717,27.908l0.178,1.086c-0.347,0.074-0.656,0.109-0.93,0.109c-0.446,0-0.793-0.07-1.039-0.211
				c-0.246-0.143-0.419-0.328-0.52-0.559c-0.101-0.229-0.15-0.713-0.15-1.451v-4.178h-0.902v-0.957h0.902v-1.797l1.224-0.738v2.535
				h1.237v0.957h-1.237v4.246c0,0.35,0.021,0.576,0.065,0.676c0.043,0.102,0.113,0.18,0.211,0.24
				c0.099,0.059,0.238,0.088,0.421,0.088C200.314,27.955,200.494,27.939,200.717,27.908z"/>
			<path d="M204.094,29.007l3.849-10.021h1.429l4.102,10.021h-1.511l-1.169-3.035h-4.19l-1.101,3.035H204.094z M206.986,24.892
				h3.397l-1.046-2.775c-0.319-0.842-0.556-1.535-0.711-2.078c-0.128,0.643-0.308,1.281-0.54,1.914L206.986,24.892z"/>
			<path d="M214.362,29.007v-7.26h1.107v1.102c0.282-0.516,0.544-0.855,0.782-1.02c0.24-0.164,0.503-0.246,0.79-0.246
				c0.415,0,0.836,0.133,1.265,0.396l-0.424,1.143c-0.301-0.178-0.602-0.268-0.902-0.268c-0.269,0-0.511,0.082-0.725,0.242
				c-0.214,0.162-0.367,0.387-0.458,0.674c-0.137,0.438-0.205,0.916-0.205,1.436v3.801H214.362z"/>
			<path d="M219.038,29.007v-7.26h1.101v1.02c0.228-0.355,0.531-0.643,0.909-0.859c0.378-0.215,0.809-0.324,1.292-0.324
				c0.538,0,0.979,0.111,1.322,0.336c0.345,0.223,0.587,0.535,0.729,0.936c0.574-0.848,1.321-1.271,2.242-1.271
				c0.72,0,1.273,0.199,1.661,0.598c0.388,0.4,0.581,1.014,0.581,1.844v4.982h-1.224v-4.572c0-0.492-0.04-0.848-0.12-1.064
				c-0.079-0.215-0.224-0.391-0.434-0.521c-0.21-0.133-0.456-0.199-0.738-0.199c-0.511,0-0.935,0.17-1.271,0.51
				s-0.506,0.883-0.506,1.631v4.217h-1.23v-4.717c0-0.547-0.101-0.957-0.301-1.23s-0.528-0.41-0.984-0.41
				c-0.347,0-0.666,0.092-0.961,0.273c-0.293,0.184-0.507,0.449-0.639,0.801c-0.132,0.35-0.198,0.855-0.198,1.518v3.766H219.038z"/>
			<path d="M230.242,25.378c0-1.346,0.374-2.34,1.121-2.988c0.624-0.537,1.386-0.807,2.283-0.807c0.998,0,1.813,0.328,2.447,0.98
				c0.634,0.654,0.95,1.559,0.95,2.711c0,0.936-0.14,1.67-0.421,2.205c-0.279,0.535-0.688,0.951-1.223,1.248
				c-0.536,0.295-1.12,0.443-1.754,0.443c-1.017,0-1.838-0.326-2.465-0.977C230.555,27.542,230.242,26.603,230.242,25.378z
				 M231.506,25.378c0,0.93,0.203,1.625,0.608,2.088s0.916,0.693,1.531,0.693c0.61,0,1.119-0.232,1.524-0.697
				s0.608-1.174,0.608-2.125c0-0.898-0.204-1.578-0.611-2.041c-0.408-0.463-0.915-0.693-1.521-0.693
				c-0.615,0-1.126,0.23-1.531,0.689C231.71,23.753,231.506,24.449,231.506,25.378z"/>
			<path d="M238.472,29.007v-7.26h1.107v1.102c0.282-0.516,0.544-0.855,0.782-1.02c0.24-0.164,0.503-0.246,0.79-0.246
				c0.415,0,0.836,0.133,1.265,0.396l-0.424,1.143c-0.301-0.178-0.602-0.268-0.902-0.268c-0.269,0-0.511,0.082-0.725,0.242
				c-0.214,0.162-0.367,0.387-0.458,0.674c-0.137,0.438-0.205,0.916-0.205,1.436v3.801H238.472z"/>
			<path d="M243.093,31.804l-0.137-1.156c0.269,0.074,0.504,0.109,0.704,0.109c0.273,0,0.492-0.045,0.656-0.137
				c0.164-0.09,0.299-0.219,0.403-0.383c0.077-0.123,0.203-0.428,0.376-0.916c0.022-0.068,0.06-0.168,0.109-0.301l-2.755-7.273
				h1.326l1.511,4.205c0.196,0.533,0.371,1.094,0.526,1.682c0.142-0.566,0.31-1.117,0.506-1.654l1.552-4.232h1.23l-2.762,7.383
				c-0.296,0.799-0.526,1.348-0.69,1.648c-0.219,0.404-0.47,0.703-0.752,0.891c-0.282,0.189-0.62,0.285-1.012,0.285
				C243.649,31.955,243.385,31.904,243.093,31.804z"/>
		</g>
	</g>
</g>
<path style="fill:#C11B17;stroke:#231F20;stroke-width:0.95;stroke-miterlimit:10;" d="M230.17,44.8L230.17,44.8
	c-2.726,0-4.957,2.23-4.957,4.957v0c0,2.726,2.23,4.957,4.957,4.957h0c2.726,0,4.957-2.23,4.957-4.957v0
	C235.126,47.031,232.896,44.8,230.17,44.8z"/>
<line style="fill:none;stroke:#000000;stroke-width:0.95;stroke-miterlimit:10;" x1="229.764" y1="33.578" x2="229.764" y2="41.916"/>
<path style="fill:#C11B17;stroke:#231F20;stroke-width:0.95;stroke-miterlimit:10;" d="M432.237,80.797L432.237,80.797
	c-2.726,0-4.957,2.23-4.957,4.957v0c0,2.726,2.23,4.957,4.957,4.957l0,0c2.726,0,4.957-2.23,4.957-4.957v0
	C437.193,83.028,434.963,80.797,432.237,80.797z"/>
<g>
	<g>
		<g>
			<g>
				<path d="M468.786,76.511V66.49h2.023v3.944h3.965V66.49h2.023v10.021h-2.023v-4.382h-3.965v4.382H468.786z"/>
				<path d="M483.08,74.201l1.914,0.321c-0.246,0.702-0.635,1.236-1.166,1.603c-0.53,0.367-1.194,0.551-1.992,0.551
					c-1.263,0-2.196-0.412-2.803-1.237c-0.479-0.661-0.718-1.495-0.718-2.502c0-1.203,0.314-2.146,0.943-2.827
					c0.629-0.681,1.424-1.021,2.386-1.021c1.08,0,1.933,0.356,2.557,1.07c0.624,0.713,0.923,1.806,0.896,3.277h-4.812
					c0.014,0.569,0.169,1.013,0.465,1.33c0.296,0.316,0.665,0.475,1.107,0.475c0.301,0,0.554-0.082,0.759-0.246
					S482.975,74.565,483.08,74.201z M483.189,72.259c-0.014-0.556-0.157-0.979-0.431-1.268c-0.273-0.29-0.606-0.435-0.998-0.435
					c-0.419,0-0.766,0.152-1.039,0.458s-0.408,0.72-0.403,1.244H483.189z"/>
				<path d="M488.097,71.466l-1.743-0.314c0.196-0.702,0.533-1.222,1.012-1.559s1.189-0.506,2.133-0.506
					c0.856,0,1.495,0.102,1.914,0.305c0.419,0.202,0.715,0.46,0.885,0.771c0.172,0.312,0.257,0.886,0.257,1.72l-0.021,2.242
					c0,0.638,0.031,1.108,0.092,1.411c0.062,0.304,0.177,0.628,0.346,0.975h-1.9c-0.05-0.128-0.111-0.316-0.185-0.567
					c-0.032-0.114-0.055-0.189-0.068-0.226c-0.328,0.319-0.679,0.559-1.053,0.718s-0.772,0.239-1.196,0.239
					c-0.747,0-1.336-0.203-1.768-0.608c-0.43-0.405-0.646-0.918-0.646-1.538c0-0.41,0.098-0.775,0.294-1.098
					c0.196-0.32,0.471-0.566,0.824-0.738c0.353-0.17,0.862-0.319,1.527-0.447c0.897-0.169,1.52-0.326,1.866-0.472v-0.191
					c0-0.369-0.091-0.632-0.273-0.79c-0.183-0.156-0.526-0.235-1.032-0.235c-0.342,0-0.608,0.067-0.8,0.202
					C488.371,70.893,488.215,71.129,488.097,71.466z M490.668,73.025c-0.246,0.082-0.636,0.18-1.169,0.294s-0.882,0.226-1.046,0.335
					c-0.251,0.178-0.376,0.403-0.376,0.677c0,0.269,0.101,0.501,0.301,0.697s0.456,0.294,0.766,0.294
					c0.347,0,0.677-0.114,0.991-0.342c0.232-0.173,0.385-0.385,0.458-0.636c0.05-0.164,0.075-0.477,0.075-0.937V73.025z"/>
				<path d="M501.106,76.511h-1.784v-1.066c-0.296,0.415-0.646,0.724-1.049,0.926c-0.404,0.203-0.811,0.305-1.221,0.305
					c-0.834,0-1.549-0.336-2.143-1.008c-0.596-0.673-0.893-1.61-0.893-2.813c0-1.23,0.289-2.166,0.868-2.806
					c0.579-0.641,1.311-0.961,2.194-0.961c0.812,0,1.513,0.337,2.105,1.012V66.49h1.921V76.511z M495.979,72.724
					c0,0.774,0.107,1.335,0.321,1.682c0.31,0.501,0.743,0.752,1.299,0.752c0.442,0,0.818-0.188,1.128-0.564
					c0.31-0.375,0.465-0.938,0.465-1.685c0-0.834-0.15-1.435-0.451-1.802c-0.301-0.366-0.686-0.55-1.155-0.55
					c-0.456,0-0.838,0.181-1.145,0.544C496.132,71.462,495.979,72.004,495.979,72.724z"/>
				<path d="M507.744,79.273v-3.65c-0.251,0.323-0.562,0.58-0.937,0.77c-0.374,0.188-0.777,0.283-1.21,0.283
					c-0.825,0-1.504-0.31-2.037-0.93c-0.629-0.725-0.943-1.707-0.943-2.946c0-1.167,0.295-2.077,0.886-2.731
					c0.59-0.653,1.322-0.98,2.197-0.98c0.483,0,0.901,0.103,1.254,0.308c0.354,0.205,0.667,0.515,0.94,0.93v-1.073h1.771v10.021
					H507.744z M507.805,72.792c0-0.743-0.151-1.295-0.455-1.658c-0.303-0.361-0.682-0.543-1.138-0.543
					c-0.465,0-0.854,0.185-1.165,0.554c-0.312,0.369-0.469,0.955-0.469,1.757c0,0.798,0.15,1.373,0.451,1.727
					c0.301,0.353,0.672,0.529,1.114,0.529s0.829-0.198,1.162-0.595S507.805,73.577,507.805,72.792z"/>
				<path d="M516.33,76.511v-1.087c-0.265,0.388-0.611,0.692-1.043,0.916c-0.43,0.224-0.885,0.335-1.363,0.335
					c-0.487,0-0.925-0.107-1.312-0.321s-0.668-0.515-0.841-0.902s-0.26-0.923-0.26-1.606v-4.594h1.921v3.336
					c0,1.021,0.035,1.646,0.105,1.877c0.071,0.229,0.2,0.412,0.387,0.547c0.187,0.134,0.424,0.201,0.711,0.201
					c0.328,0,0.622-0.09,0.882-0.27c0.26-0.181,0.438-0.404,0.533-0.67c0.096-0.268,0.144-0.92,0.144-1.959v-3.062h1.921v7.26
					H516.33z"/>
				<path d="M521.539,71.466l-1.743-0.314c0.196-0.702,0.533-1.222,1.012-1.559s1.189-0.506,2.133-0.506
					c0.856,0,1.495,0.102,1.914,0.305c0.419,0.202,0.715,0.46,0.885,0.771c0.172,0.312,0.257,0.886,0.257,1.72l-0.021,2.242
					c0,0.638,0.031,1.108,0.092,1.411c0.062,0.304,0.177,0.628,0.346,0.975h-1.9c-0.05-0.128-0.111-0.316-0.185-0.567
					c-0.032-0.114-0.055-0.189-0.068-0.226c-0.328,0.319-0.679,0.559-1.053,0.718s-0.772,0.239-1.196,0.239
					c-0.747,0-1.336-0.203-1.768-0.608c-0.43-0.405-0.646-0.918-0.646-1.538c0-0.41,0.098-0.775,0.294-1.098
					c0.196-0.32,0.471-0.566,0.824-0.738c0.353-0.17,0.862-0.319,1.527-0.447c0.897-0.169,1.52-0.326,1.866-0.472v-0.191
					c0-0.369-0.091-0.632-0.273-0.79c-0.183-0.156-0.526-0.235-1.032-0.235c-0.342,0-0.608,0.067-0.8,0.202
					C521.812,70.893,521.657,71.129,521.539,71.466z M524.109,73.025c-0.246,0.082-0.636,0.18-1.169,0.294s-0.882,0.226-1.046,0.335
					c-0.251,0.178-0.376,0.403-0.376,0.677c0,0.269,0.101,0.501,0.301,0.697s0.456,0.294,0.766,0.294
					c0.347,0,0.677-0.114,0.991-0.342c0.232-0.173,0.385-0.385,0.458-0.636c0.05-0.164,0.075-0.477,0.075-0.937V73.025z"/>
				<path d="M529.728,76.511h-1.921v-7.26h1.784v1.032c0.306-0.487,0.58-0.809,0.824-0.964c0.243-0.155,0.521-0.232,0.83-0.232
					c0.438,0,0.859,0.121,1.265,0.362l-0.595,1.675c-0.323-0.21-0.624-0.314-0.902-0.314c-0.269,0-0.497,0.074-0.684,0.223
					c-0.187,0.147-0.334,0.415-0.441,0.803c-0.106,0.388-0.16,1.198-0.16,2.434V76.511z"/>
				<path d="M536.667,69.251v1.531h-1.312v2.926c0,0.593,0.013,0.938,0.037,1.035c0.025,0.099,0.082,0.18,0.172,0.243
					c0.088,0.063,0.196,0.096,0.324,0.096c0.178,0,0.436-0.062,0.772-0.185l0.164,1.49c-0.446,0.191-0.952,0.287-1.518,0.287
					c-0.347,0-0.658-0.059-0.937-0.174c-0.278-0.117-0.482-0.268-0.611-0.451c-0.131-0.186-0.221-0.435-0.271-0.749
					c-0.041-0.224-0.062-0.675-0.062-1.354v-3.165h-0.882v-1.531h0.882v-1.442l1.928-1.121v2.563H536.667z"/>
				<path d="M542.204,74.201l1.914,0.321c-0.246,0.702-0.635,1.236-1.166,1.603c-0.53,0.367-1.194,0.551-1.992,0.551
					c-1.263,0-2.196-0.412-2.803-1.237c-0.479-0.661-0.718-1.495-0.718-2.502c0-1.203,0.314-2.146,0.943-2.827
					c0.629-0.681,1.424-1.021,2.386-1.021c1.08,0,1.933,0.356,2.557,1.07c0.624,0.713,0.923,1.806,0.896,3.277h-4.812
					c0.014,0.569,0.169,1.013,0.465,1.33c0.296,0.316,0.665,0.475,1.107,0.475c0.301,0,0.554-0.082,0.759-0.246
					S542.099,74.565,542.204,74.201z M542.313,72.259c-0.014-0.556-0.157-0.979-0.431-1.268c-0.273-0.29-0.606-0.435-0.998-0.435
					c-0.419,0-0.766,0.152-1.039,0.458s-0.408,0.72-0.403,1.244H542.313z"/>
				<path d="M547.625,76.511h-1.921v-7.26h1.784v1.032c0.306-0.487,0.58-0.809,0.824-0.964c0.243-0.155,0.521-0.232,0.83-0.232
					c0.438,0,0.859,0.121,1.265,0.362l-0.595,1.675c-0.323-0.21-0.624-0.314-0.902-0.314c-0.269,0-0.497,0.074-0.684,0.223
					c-0.187,0.147-0.334,0.415-0.441,0.803c-0.106,0.388-0.16,1.198-0.16,2.434V76.511z"/>
				<path d="M550.557,74.44l1.928-0.294c0.082,0.374,0.248,0.657,0.499,0.852c0.251,0.193,0.602,0.29,1.053,0.29
					c0.497,0,0.87-0.091,1.121-0.273c0.169-0.128,0.253-0.299,0.253-0.513c0-0.146-0.046-0.267-0.137-0.362
					c-0.096-0.091-0.31-0.176-0.643-0.253c-1.55-0.342-2.531-0.654-2.946-0.937c-0.574-0.392-0.861-0.937-0.861-1.634
					c0-0.629,0.248-1.157,0.745-1.586s1.267-0.643,2.311-0.643c0.993,0,1.731,0.162,2.215,0.485s0.815,0.802,0.998,1.436
					l-1.812,0.335c-0.077-0.282-0.225-0.499-0.44-0.649c-0.217-0.15-0.525-0.226-0.927-0.226c-0.506,0-0.868,0.07-1.087,0.212
					c-0.146,0.101-0.219,0.23-0.219,0.39c0,0.137,0.063,0.253,0.191,0.349c0.173,0.128,0.771,0.308,1.795,0.54
					c1.022,0.232,1.737,0.518,2.143,0.854c0.401,0.342,0.602,0.818,0.602,1.429c0,0.665-0.278,1.237-0.834,1.716
					s-1.379,0.718-2.468,0.718c-0.989,0-1.771-0.2-2.349-0.602C551.112,75.672,550.735,75.128,550.557,74.44z"/>
			</g>
		</g>
	</g>
</g>
<path style="fill:#C11B17;stroke:#231F20;stroke-width:0.95;stroke-miterlimit:10;" d="M467.76,95.241L467.76,95.241
	c-2.726,0-4.957,2.23-4.957,4.957v0c0,2.726,2.23,4.957,4.957,4.957l0,0c2.726,0,4.957-2.23,4.957-4.957v0
	C472.717,97.471,470.486,95.241,467.76,95.241z"/>
<polyline style="fill:none;stroke:#000000;stroke-width:0.95;stroke-miterlimit:10;" points="432.237,79.363 432.237,73.659 
	464.214,73.659 "/>
<g>
	
		<rect x="250.241" y="66.429" transform="matrix(0.9997 -0.0237 0.0237 0.9997 -2.0792 6.6033)" style="fill:#F1F2F2;" width="54.75" height="49.224"/>
	<g>
		<g>
			<path d="M253.329,80.388V70.367h1.996l2.372,7.096c0.219,0.662,0.378,1.156,0.479,1.484c0.114-0.365,0.292-0.9,0.533-1.607
				l2.399-6.973h1.784v10.021h-1.278v-8.387l-2.912,8.387h-1.196l-2.898-8.531v8.531H253.329z"/>
			<path d="M269.612,79.494c-0.456,0.387-0.895,0.66-1.316,0.82c-0.421,0.158-0.873,0.238-1.356,0.238
				c-0.798,0-1.41-0.195-1.839-0.584c-0.429-0.391-0.643-0.887-0.643-1.494c0-0.355,0.081-0.68,0.242-0.975
				c0.162-0.293,0.374-0.529,0.637-0.707c0.262-0.178,0.557-0.312,0.885-0.402c0.241-0.064,0.606-0.125,1.094-0.186
				c0.993-0.117,1.725-0.26,2.194-0.424c0.005-0.168,0.007-0.275,0.007-0.32c0-0.502-0.116-0.855-0.349-1.061
				c-0.314-0.277-0.781-0.416-1.401-0.416c-0.579,0-1.006,0.102-1.281,0.303c-0.276,0.203-0.48,0.562-0.612,1.078l-1.203-0.164
				c0.109-0.516,0.289-0.932,0.54-1.248s0.613-0.561,1.087-0.732c0.474-0.17,1.023-0.256,1.647-0.256
				c0.62,0,1.123,0.074,1.511,0.219c0.388,0.146,0.672,0.33,0.854,0.551s0.31,0.5,0.383,0.838c0.041,0.209,0.062,0.588,0.062,1.135
				v1.641c0,1.143,0.026,1.867,0.079,2.17c0.052,0.303,0.155,0.594,0.311,0.871h-1.285C269.73,80.134,269.648,79.835,269.612,79.494
				z M269.509,76.746c-0.446,0.182-1.116,0.336-2.01,0.465c-0.506,0.072-0.863,0.154-1.073,0.246
				c-0.21,0.09-0.371,0.225-0.485,0.398c-0.114,0.176-0.171,0.371-0.171,0.586c0,0.328,0.124,0.602,0.373,0.82
				c0.248,0.219,0.611,0.328,1.09,0.328c0.474,0,0.896-0.104,1.265-0.312c0.369-0.207,0.641-0.49,0.813-0.85
				c0.132-0.279,0.198-0.689,0.198-1.23V76.746z"/>
			<path d="M277.371,80.388v-0.916c-0.46,0.721-1.137,1.08-2.03,1.08c-0.579,0-1.11-0.158-1.597-0.479
				c-0.484-0.318-0.861-0.764-1.127-1.336c-0.268-0.572-0.4-1.229-0.4-1.973c0-0.725,0.121-1.381,0.362-1.973
				c0.241-0.59,0.604-1.041,1.087-1.355s1.023-0.473,1.62-0.473c0.438,0,0.827,0.092,1.169,0.277
				c0.342,0.184,0.62,0.426,0.834,0.721v-3.596h1.224v10.021H277.371z M273.481,76.765c0,0.93,0.196,1.625,0.588,2.086
				c0.392,0.459,0.854,0.689,1.388,0.689c0.538,0,0.994-0.219,1.371-0.66c0.375-0.439,0.563-1.109,0.563-2.012
				c0-0.994-0.191-1.723-0.574-2.188s-0.854-0.697-1.415-0.697c-0.547,0-1.004,0.223-1.371,0.67
				C273.665,75.099,273.481,75.804,273.481,76.765z"/>
			<path d="M280.454,71.783v-1.416h1.23v1.416H280.454z M280.454,80.388v-7.26h1.23v7.26H280.454z"/>
			<path d="M283.065,78.222l1.217-0.191c0.068,0.486,0.259,0.861,0.571,1.121c0.312,0.26,0.748,0.389,1.309,0.389
				c0.565,0,0.984-0.115,1.258-0.346c0.273-0.229,0.41-0.5,0.41-0.809c0-0.279-0.121-0.498-0.362-0.656
				c-0.169-0.109-0.588-0.248-1.258-0.418c-0.902-0.227-1.528-0.424-1.876-0.592c-0.35-0.166-0.613-0.396-0.793-0.689
				c-0.181-0.295-0.271-0.619-0.271-0.975c0-0.322,0.074-0.623,0.222-0.898c0.148-0.275,0.351-0.504,0.605-0.688
				c0.191-0.141,0.452-0.26,0.783-0.359c0.33-0.098,0.685-0.146,1.062-0.146c0.569,0,1.07,0.082,1.5,0.246
				c0.432,0.164,0.749,0.387,0.954,0.666c0.205,0.281,0.347,0.656,0.424,1.125l-1.203,0.164c-0.055-0.373-0.213-0.664-0.476-0.875
				c-0.262-0.209-0.632-0.314-1.11-0.314c-0.565,0-0.969,0.094-1.21,0.281c-0.241,0.186-0.362,0.404-0.362,0.656
				c0,0.158,0.05,0.303,0.15,0.43c0.101,0.133,0.258,0.242,0.472,0.328c0.123,0.047,0.485,0.15,1.087,0.314
				c0.87,0.232,1.478,0.424,1.821,0.57c0.345,0.148,0.614,0.365,0.811,0.646c0.196,0.283,0.294,0.635,0.294,1.053
				c0,0.41-0.12,0.797-0.358,1.158c-0.24,0.363-0.585,0.643-1.036,0.842c-0.451,0.197-0.962,0.297-1.531,0.297
				c-0.943,0-1.662-0.195-2.157-0.588C283.517,79.574,283.202,78.992,283.065,78.222z"/>
			<path d="M290.099,76.759c0-1.346,0.374-2.34,1.121-2.988c0.624-0.537,1.386-0.807,2.283-0.807c0.998,0,1.813,0.328,2.447,0.98
				c0.634,0.654,0.95,1.559,0.95,2.711c0,0.936-0.14,1.67-0.421,2.205c-0.279,0.535-0.688,0.951-1.223,1.248
				c-0.536,0.295-1.12,0.443-1.754,0.443c-1.017,0-1.838-0.326-2.465-0.977C290.413,78.923,290.099,77.984,290.099,76.759z
				 M291.364,76.759c0,0.93,0.203,1.625,0.608,2.088s0.916,0.693,1.531,0.693c0.61,0,1.119-0.232,1.524-0.697
				s0.608-1.174,0.608-2.125c0-0.898-0.204-1.578-0.611-2.041c-0.408-0.463-0.915-0.693-1.521-0.693
				c-0.615,0-1.126,0.23-1.531,0.689C291.567,75.134,291.364,75.83,291.364,76.759z"/>
			<path d="M298.343,80.388v-7.26h1.107v1.033c0.533-0.799,1.304-1.197,2.311-1.197c0.438,0,0.84,0.078,1.206,0.236
				c0.367,0.156,0.642,0.363,0.824,0.619c0.183,0.254,0.31,0.559,0.383,0.908c0.046,0.229,0.068,0.627,0.068,1.197v4.463h-1.23
				v-4.416c0-0.5-0.048-0.875-0.144-1.125c-0.096-0.248-0.266-0.445-0.509-0.594c-0.244-0.148-0.53-0.223-0.858-0.223
				c-0.524,0-0.977,0.166-1.356,0.5c-0.381,0.332-0.571,0.963-0.571,1.893v3.965H298.343z"/>
			<path d="M252.919,92.996l1.251-0.109c0.06,0.502,0.197,0.914,0.413,1.234c0.217,0.322,0.553,0.582,1.009,0.779
				c0.456,0.199,0.969,0.297,1.538,0.297c0.506,0,0.952-0.074,1.34-0.225s0.676-0.357,0.865-0.619
				c0.188-0.262,0.283-0.549,0.283-0.857c0-0.314-0.091-0.59-0.273-0.824s-0.483-0.432-0.902-0.592
				c-0.269-0.104-0.863-0.268-1.784-0.488c-0.921-0.221-1.565-0.43-1.935-0.625c-0.479-0.252-0.835-0.562-1.07-0.934
				c-0.234-0.371-0.352-0.787-0.352-1.248c0-0.506,0.144-0.979,0.431-1.418s0.706-0.773,1.258-1.002
				c0.552-0.227,1.164-0.342,1.839-0.342c0.743,0,1.398,0.121,1.965,0.359c0.568,0.24,1.004,0.592,1.31,1.057s0.47,0.99,0.492,1.578
				l-1.271,0.096c-0.068-0.633-0.3-1.111-0.694-1.436c-0.394-0.322-0.976-0.484-1.746-0.484c-0.802,0-1.387,0.146-1.754,0.441
				c-0.366,0.293-0.55,0.646-0.55,1.062c0,0.359,0.13,0.656,0.39,0.889c0.255,0.232,0.922,0.471,2,0.715
				c1.077,0.242,1.816,0.455,2.218,0.639c0.583,0.268,1.014,0.609,1.292,1.021s0.417,0.887,0.417,1.426
				c0,0.533-0.152,1.035-0.458,1.508c-0.306,0.471-0.744,0.838-1.316,1.1c-0.571,0.262-1.215,0.393-1.931,0.393
				c-0.907,0-1.667-0.131-2.28-0.396c-0.612-0.264-1.094-0.662-1.441-1.191C253.12,94.267,252.937,93.666,252.919,92.996z"/>
			<path d="M265.237,95.115l0.178,1.088c-0.347,0.072-0.656,0.109-0.93,0.109c-0.446,0-0.793-0.07-1.039-0.213
				c-0.246-0.141-0.419-0.326-0.52-0.557s-0.15-0.715-0.15-1.453v-4.176h-0.902v-0.957h0.902v-1.799L264,86.419v2.537h1.237v0.957
				H264v4.244c0,0.352,0.021,0.576,0.065,0.678c0.043,0.1,0.113,0.18,0.211,0.238c0.099,0.061,0.238,0.09,0.421,0.09
				C264.834,95.164,265.013,95.148,265.237,95.115z"/>
			<path d="M266.426,96.216v-7.26h1.107v1.1c0.282-0.514,0.544-0.854,0.782-1.018c0.24-0.164,0.503-0.246,0.79-0.246
				c0.415,0,0.836,0.131,1.265,0.396l-0.424,1.141c-0.301-0.178-0.602-0.266-0.902-0.266c-0.269,0-0.511,0.08-0.725,0.242
				s-0.367,0.387-0.458,0.674c-0.137,0.438-0.205,0.916-0.205,1.436v3.801H266.426z"/>
			<path d="M276.072,93.878l1.271,0.156c-0.2,0.744-0.572,1.32-1.114,1.73s-1.235,0.615-2.078,0.615
				c-1.062,0-1.903-0.328-2.526-0.98c-0.621-0.654-0.933-1.572-0.933-2.752c0-1.223,0.314-2.17,0.943-2.844
				c0.629-0.676,1.444-1.012,2.447-1.012c0.971,0,1.764,0.33,2.379,0.99c0.615,0.662,0.923,1.592,0.923,2.789
				c0,0.074-0.002,0.184-0.007,0.328h-5.414c0.046,0.799,0.271,1.408,0.677,1.832s0.911,0.637,1.518,0.637
				c0.451,0,0.836-0.119,1.155-0.355C275.632,94.775,275.885,94.398,276.072,93.878z M272.032,91.888h4.054
				c-0.055-0.609-0.21-1.068-0.465-1.373c-0.392-0.475-0.9-0.711-1.524-0.711c-0.565,0-1.04,0.189-1.425,0.566
				C272.286,90.75,272.073,91.255,272.032,91.888z"/>
			<path d="M283.858,93.878l1.271,0.156c-0.2,0.744-0.572,1.32-1.114,1.73s-1.235,0.615-2.078,0.615
				c-1.062,0-1.903-0.328-2.526-0.98c-0.621-0.654-0.933-1.572-0.933-2.752c0-1.223,0.314-2.17,0.943-2.844
				c0.629-0.676,1.444-1.012,2.447-1.012c0.971,0,1.764,0.33,2.379,0.99c0.615,0.662,0.923,1.592,0.923,2.789
				c0,0.074-0.002,0.184-0.007,0.328h-5.414c0.046,0.799,0.271,1.408,0.677,1.832s0.911,0.637,1.518,0.637
				c0.451,0,0.836-0.119,1.155-0.355C283.419,94.775,283.671,94.398,283.858,93.878z M279.818,91.888h4.054
				c-0.055-0.609-0.21-1.068-0.465-1.373c-0.392-0.475-0.9-0.711-1.524-0.711c-0.565,0-1.04,0.189-1.425,0.566
				C280.072,90.75,279.859,91.255,279.818,91.888z"/>
			<path d="M289.361,95.115l0.178,1.088c-0.347,0.072-0.656,0.109-0.93,0.109c-0.446,0-0.793-0.07-1.039-0.213
				c-0.246-0.141-0.419-0.326-0.52-0.557s-0.15-0.715-0.15-1.453v-4.176h-0.902v-0.957h0.902v-1.799l1.224-0.738v2.537h1.237v0.957
				h-1.237v4.244c0,0.352,0.021,0.576,0.065,0.678c0.043,0.1,0.113,0.18,0.211,0.238c0.099,0.061,0.238,0.09,0.421,0.09
				C288.958,95.164,289.137,95.148,289.361,95.115z"/>
			<path d="M252.269,112.044l3.849-10.021h1.429l4.102,10.021h-1.511l-1.169-3.035h-4.19l-1.101,3.035H252.269z M255.161,107.929
				h3.397l-1.046-2.775c-0.319-0.844-0.556-1.537-0.711-2.078c-0.128,0.643-0.308,1.279-0.54,1.914L255.161,107.929z"/>
			<path d="M262.537,112.044v-7.26h1.107v1.1c0.282-0.514,0.544-0.854,0.782-1.018c0.24-0.164,0.503-0.246,0.79-0.246
				c0.415,0,0.836,0.131,1.265,0.396l-0.424,1.141c-0.301-0.178-0.602-0.266-0.902-0.266c-0.269,0-0.511,0.08-0.725,0.242
				s-0.367,0.387-0.458,0.674c-0.137,0.438-0.205,0.916-0.205,1.436v3.801H262.537z"/>
			<path d="M267.212,112.044v-7.26h1.101v1.018c0.228-0.355,0.531-0.641,0.909-0.857s0.809-0.324,1.292-0.324
				c0.538,0,0.979,0.111,1.322,0.334c0.345,0.225,0.587,0.535,0.729,0.938c0.574-0.848,1.321-1.271,2.242-1.271
				c0.72,0,1.273,0.199,1.661,0.598s0.581,1.014,0.581,1.842v4.984h-1.224v-4.574c0-0.492-0.04-0.846-0.12-1.062
				c-0.079-0.217-0.224-0.391-0.434-0.523c-0.21-0.131-0.456-0.197-0.738-0.197c-0.511,0-0.935,0.17-1.271,0.51
				c-0.337,0.338-0.506,0.883-0.506,1.629v4.219h-1.23v-4.717c0-0.547-0.101-0.957-0.301-1.23s-0.528-0.41-0.984-0.41
				c-0.347,0-0.666,0.09-0.961,0.273c-0.293,0.182-0.507,0.449-0.639,0.799c-0.132,0.352-0.198,0.857-0.198,1.518v3.768H267.212z"/>
			<path d="M278.417,108.414c0-1.344,0.374-2.34,1.121-2.986c0.624-0.539,1.386-0.807,2.283-0.807c0.998,0,1.813,0.326,2.447,0.98
				s0.95,1.557,0.95,2.711c0,0.934-0.14,1.668-0.421,2.205c-0.279,0.535-0.688,0.951-1.223,1.246
				c-0.536,0.297-1.12,0.445-1.754,0.445c-1.017,0-1.838-0.326-2.465-0.979C278.73,110.58,278.417,109.64,278.417,108.414z
				 M279.681,108.414c0,0.93,0.203,1.627,0.608,2.09c0.405,0.461,0.916,0.693,1.531,0.693c0.61,0,1.119-0.232,1.524-0.697
				s0.608-1.174,0.608-2.127c0-0.896-0.204-1.578-0.611-2.039c-0.408-0.463-0.915-0.695-1.521-0.695
				c-0.615,0-1.126,0.23-1.531,0.691C279.884,106.789,279.681,107.484,279.681,108.414z"/>
			<path d="M286.647,112.044v-7.26h1.107v1.1c0.282-0.514,0.544-0.854,0.782-1.018c0.24-0.164,0.503-0.246,0.79-0.246
				c0.415,0,0.836,0.131,1.265,0.396l-0.424,1.141c-0.301-0.178-0.602-0.266-0.902-0.266c-0.269,0-0.511,0.08-0.725,0.242
				s-0.367,0.387-0.458,0.674c-0.137,0.438-0.205,0.916-0.205,1.436v3.801H286.647z"/>
			<path d="M291.268,114.839l-0.137-1.154c0.269,0.072,0.504,0.109,0.704,0.109c0.273,0,0.492-0.047,0.656-0.137
				c0.164-0.092,0.299-0.219,0.403-0.383c0.077-0.123,0.203-0.43,0.376-0.916c0.022-0.068,0.06-0.17,0.109-0.301l-2.755-7.273h1.326
				l1.511,4.203c0.196,0.533,0.371,1.094,0.526,1.682c0.142-0.564,0.31-1.115,0.506-1.654l1.552-4.23h1.23l-2.762,7.383
				c-0.296,0.797-0.526,1.346-0.69,1.646c-0.219,0.406-0.47,0.703-0.752,0.893s-0.62,0.283-1.012,0.283
				C291.824,114.99,291.56,114.941,291.268,114.839z"/>
		</g>
	</g>
</g>
<path style="fill:#C11B17;stroke:#231F20;stroke-width:0.95;stroke-miterlimit:10;" d="M261.419,132.449L261.419,132.449
	c-2.726,0-4.957,2.23-4.957,4.957v0c0,2.726,2.23,4.957,4.957,4.957h0c2.726,0,4.957-2.23,4.957-4.957v0
	C266.376,134.679,264.145,132.449,261.419,132.449z"/>
<line style="fill:#FFFFFF;stroke:#000000;stroke-width:0.95;stroke-miterlimit:10;" x1="261.19" y1="116.785" x2="261.19" y2="129.044"/>
<g>
	<rect x="483.257" y="226.807" style="fill:#EBEBEB;stroke:#231F20;" width="113.269" height="67.143"/>
</g>
<g>
	<path d="M499.645,259.781v-1.93h4.984v4.562c-0.484,0.469-1.187,0.882-2.105,1.238s-1.851,0.535-2.793,0.535
		c-1.198,0-2.242-0.251-3.133-0.754s-1.56-1.222-2.008-2.156s-0.672-1.952-0.672-3.051c0-1.192,0.25-2.253,0.75-3.18
		s1.231-1.638,2.195-2.133c0.734-0.38,1.648-0.57,2.742-0.57c1.422,0,2.532,0.298,3.332,0.895s1.313,1.421,1.543,2.473l-2.297,0.43
		c-0.161-0.562-0.465-1.007-0.91-1.332s-1.001-0.488-1.668-0.488c-1.011,0-1.813,0.32-2.41,0.961s-0.895,1.591-0.895,2.852
		c0,1.359,0.302,2.379,0.906,3.059s1.396,1.02,2.375,1.02c0.484,0,0.97-0.095,1.457-0.285s0.905-0.421,1.254-0.691v-1.453H499.645z"
		/>
	<path d="M512.208,263.992v-1.242c-0.302,0.442-0.699,0.792-1.191,1.047s-1.012,0.383-1.559,0.383c-0.558,0-1.058-0.122-1.5-0.367
		s-0.763-0.589-0.961-1.031s-0.297-1.055-0.297-1.836v-5.25h2.195v3.812c0,1.167,0.04,1.882,0.121,2.145s0.228,0.472,0.441,0.625
		s0.484,0.23,0.812,0.23c0.375,0,0.711-0.103,1.008-0.309s0.5-0.461,0.609-0.766s0.164-1.051,0.164-2.238v-3.5h2.195v8.297H512.208z
		"/>
	<path d="M518.161,258.226l-1.992-0.359c0.224-0.802,0.609-1.396,1.156-1.781s1.359-0.578,2.438-0.578
		c0.979,0,1.708,0.116,2.188,0.348s0.816,0.526,1.012,0.883s0.293,1.012,0.293,1.965l-0.023,2.562c0,0.729,0.035,1.267,0.105,1.613
		s0.202,0.718,0.395,1.113h-2.172c-0.058-0.146-0.128-0.362-0.211-0.648c-0.036-0.13-0.062-0.216-0.078-0.258
		c-0.375,0.364-0.776,0.638-1.203,0.82s-0.883,0.273-1.367,0.273c-0.854,0-1.527-0.231-2.02-0.695s-0.738-1.05-0.738-1.758
		c0-0.469,0.112-0.887,0.336-1.254s0.538-0.648,0.941-0.844s0.985-0.366,1.746-0.512c1.026-0.192,1.737-0.372,2.133-0.539v-0.219
		c0-0.422-0.104-0.723-0.312-0.902s-0.602-0.27-1.18-0.27c-0.391,0-0.695,0.077-0.914,0.23S518.296,257.84,518.161,258.226z
		 M521.098,260.007c-0.281,0.094-0.727,0.206-1.336,0.336s-1.008,0.258-1.195,0.383c-0.286,0.203-0.43,0.461-0.43,0.773
		c0,0.308,0.114,0.573,0.344,0.797s0.521,0.336,0.875,0.336c0.396,0,0.773-0.13,1.133-0.391c0.266-0.198,0.44-0.44,0.523-0.727
		c0.058-0.188,0.086-0.544,0.086-1.07V260.007z"/>
	<path d="M527.52,263.992h-2.195v-8.297h2.039v1.18c0.349-0.558,0.663-0.925,0.941-1.102s0.595-0.266,0.949-0.266
		c0.5,0,0.981,0.138,1.445,0.414l-0.68,1.914c-0.37-0.239-0.714-0.359-1.031-0.359c-0.308,0-0.567,0.085-0.781,0.254
		s-0.382,0.476-0.504,0.918s-0.184,1.37-0.184,2.781V263.992z"/>
	<path d="M539.254,263.992h-2.039v-1.219c-0.339,0.474-0.738,0.827-1.199,1.059s-0.926,0.348-1.395,0.348
		c-0.953,0-1.77-0.384-2.449-1.152s-1.02-1.84-1.02-3.215c0-1.406,0.331-2.476,0.992-3.207s1.497-1.098,2.508-1.098
		c0.927,0,1.729,0.386,2.406,1.156v-4.125h2.195V263.992z M533.395,259.664c0,0.886,0.122,1.526,0.367,1.922
		c0.354,0.573,0.849,0.859,1.484,0.859c0.505,0,0.935-0.215,1.289-0.645s0.531-1.071,0.531-1.926c0-0.953-0.172-1.64-0.516-2.059
		s-0.784-0.629-1.32-0.629c-0.521,0-0.957,0.207-1.309,0.621S533.395,258.84,533.395,259.664z"/>
	<path d="M540.645,261.625l2.203-0.336c0.094,0.427,0.284,0.751,0.57,0.973s0.688,0.332,1.203,0.332
		c0.567,0,0.995-0.104,1.281-0.312c0.192-0.146,0.289-0.341,0.289-0.586c0-0.167-0.052-0.305-0.156-0.414
		c-0.109-0.104-0.354-0.2-0.734-0.289c-1.771-0.391-2.894-0.747-3.367-1.07c-0.656-0.448-0.984-1.07-0.984-1.867
		c0-0.719,0.284-1.323,0.852-1.812s1.448-0.734,2.641-0.734c1.136,0,1.979,0.185,2.531,0.555s0.933,0.917,1.141,1.641l-2.07,0.383
		c-0.089-0.323-0.257-0.57-0.504-0.742s-0.601-0.258-1.059-0.258c-0.578,0-0.992,0.081-1.242,0.242
		c-0.167,0.114-0.25,0.263-0.25,0.445c0,0.156,0.073,0.289,0.219,0.398c0.198,0.146,0.882,0.352,2.051,0.617
		s1.985,0.591,2.449,0.977c0.458,0.391,0.688,0.935,0.688,1.633c0,0.761-0.317,1.414-0.953,1.961s-1.575,0.82-2.82,0.82
		c-1.13,0-2.024-0.229-2.684-0.688S540.848,262.411,540.645,261.625z"/>
	<path d="M550.153,255.695h2.023v1.133c0.724-0.88,1.586-1.32,2.586-1.32c0.531,0,0.992,0.109,1.383,0.328s0.711,0.55,0.961,0.992
		c0.364-0.442,0.758-0.773,1.18-0.992s0.872-0.328,1.352-0.328c0.609,0,1.125,0.124,1.547,0.371s0.737,0.61,0.945,1.09
		c0.151,0.354,0.227,0.927,0.227,1.719v5.305h-2.195v-4.742c0-0.823-0.075-1.354-0.227-1.594c-0.203-0.312-0.516-0.469-0.938-0.469
		c-0.308,0-0.597,0.094-0.867,0.281s-0.466,0.462-0.586,0.824s-0.18,0.934-0.18,1.715v3.984h-2.195v-4.547
		c0-0.808-0.039-1.328-0.117-1.562s-0.199-0.409-0.363-0.523s-0.387-0.172-0.668-0.172c-0.339,0-0.644,0.091-0.914,0.273
		s-0.465,0.445-0.582,0.789s-0.176,0.914-0.176,1.711v4.031h-2.195V255.695z"/>
	<path d="M569.348,261.351l2.188,0.367c-0.281,0.802-0.726,1.413-1.332,1.832s-1.366,0.629-2.277,0.629
		c-1.442,0-2.511-0.472-3.203-1.414c-0.547-0.755-0.82-1.708-0.82-2.859c0-1.375,0.359-2.452,1.078-3.23s1.628-1.168,2.727-1.168
		c1.234,0,2.208,0.407,2.922,1.223s1.055,2.063,1.023,3.746h-5.5c0.016,0.651,0.192,1.157,0.531,1.52s0.761,0.543,1.266,0.543
		c0.344,0,0.633-0.094,0.867-0.281S569.228,261.768,569.348,261.351z M569.473,259.132c-0.016-0.636-0.18-1.118-0.492-1.449
		s-0.692-0.496-1.141-0.496c-0.479,0-0.875,0.175-1.188,0.523s-0.466,0.823-0.461,1.422H569.473z"/>
	<path d="M580.989,263.992h-2.195v-4.234c0-0.896-0.047-1.476-0.141-1.738s-0.246-0.468-0.457-0.613s-0.465-0.219-0.762-0.219
		c-0.38,0-0.722,0.104-1.023,0.312s-0.509,0.484-0.621,0.828s-0.168,0.979-0.168,1.906v3.758h-2.195v-8.297h2.039v1.219
		c0.724-0.938,1.636-1.406,2.734-1.406c0.484,0,0.927,0.087,1.328,0.262s0.704,0.397,0.91,0.668s0.349,0.578,0.43,0.922
		s0.121,0.836,0.121,1.477V263.992z"/>
	<path d="M582.044,264.187l2.836-11.844h1.648l-2.867,11.844H582.044z"/>
	<path d="M496.895,281.992v-9.516h-3.398v-1.938h9.102v1.938h-3.391v9.516H496.895z"/>
	<path d="M505.294,281.992h-2.195v-8.297h2.039v1.18c0.349-0.558,0.663-0.925,0.941-1.102s0.595-0.266,0.949-0.266
		c0.5,0,0.981,0.138,1.445,0.414l-0.68,1.914c-0.37-0.239-0.714-0.359-1.031-0.359c-0.308,0-0.567,0.085-0.781,0.254
		s-0.382,0.476-0.504,0.918s-0.184,1.37-0.184,2.781V281.992z"/>
	<path d="M508.911,277.726c0-0.729,0.18-1.435,0.539-2.117s0.868-1.203,1.527-1.562s1.395-0.539,2.207-0.539
		c1.255,0,2.284,0.407,3.086,1.223s1.203,1.845,1.203,3.09c0,1.255-0.405,2.296-1.215,3.121s-1.829,1.238-3.059,1.238
		c-0.761,0-1.485-0.172-2.176-0.516s-1.215-0.848-1.574-1.512S508.911,278.679,508.911,277.726z M511.161,277.843
		c0,0.823,0.195,1.453,0.586,1.891c0.391,0.438,0.872,0.656,1.445,0.656s1.054-0.219,1.441-0.656s0.582-1.073,0.582-1.906
		c0-0.812-0.194-1.438-0.582-1.875s-0.868-0.656-1.441-0.656s-1.055,0.219-1.445,0.656
		C511.356,276.39,511.161,277.02,511.161,277.843z"/>
	<path d="M518.684,277.726c0-0.729,0.18-1.435,0.539-2.117s0.868-1.203,1.527-1.562s1.395-0.539,2.207-0.539
		c1.255,0,2.284,0.407,3.086,1.223s1.203,1.845,1.203,3.09c0,1.255-0.405,2.296-1.215,3.121s-1.829,1.238-3.059,1.238
		c-0.761,0-1.485-0.172-2.176-0.516s-1.215-0.848-1.574-1.512S518.684,278.679,518.684,277.726z M520.934,277.843
		c0,0.823,0.195,1.453,0.586,1.891s0.872,0.656,1.445,0.656s1.054-0.219,1.441-0.656s0.582-1.073,0.582-1.906
		c0-0.812-0.194-1.438-0.582-1.875s-0.868-0.656-1.441-0.656s-1.055,0.219-1.445,0.656S520.934,277.02,520.934,277.843z"/>
	<path d="M528.903,273.695h2.047v1.219c0.266-0.417,0.625-0.755,1.078-1.016s0.956-0.391,1.508-0.391
		c0.964,0,1.781,0.378,2.453,1.133s1.008,1.808,1.008,3.156c0,1.386-0.339,2.462-1.016,3.23s-1.497,1.152-2.461,1.152
		c-0.458,0-0.874-0.091-1.246-0.273s-0.765-0.495-1.176-0.938v4.18h-2.195V273.695z M531.075,277.703
		c0,0.933,0.185,1.621,0.555,2.066s0.82,0.668,1.352,0.668c0.511,0,0.935-0.204,1.273-0.613s0.508-1.079,0.508-2.012
		c0-0.87-0.175-1.516-0.523-1.938s-0.781-0.633-1.297-0.633c-0.536,0-0.981,0.207-1.336,0.621S531.075,276.89,531.075,277.703z"/>
	<path d="M537.965,279.625l2.203-0.336c0.094,0.427,0.284,0.751,0.57,0.973s0.688,0.332,1.203,0.332
		c0.567,0,0.995-0.104,1.281-0.312c0.192-0.146,0.289-0.341,0.289-0.586c0-0.167-0.052-0.305-0.156-0.414
		c-0.109-0.104-0.354-0.2-0.734-0.289c-1.771-0.391-2.894-0.747-3.367-1.07c-0.656-0.448-0.984-1.07-0.984-1.867
		c0-0.719,0.284-1.323,0.852-1.812s1.448-0.734,2.641-0.734c1.136,0,1.979,0.185,2.531,0.555s0.933,0.917,1.141,1.641l-2.07,0.383
		c-0.089-0.323-0.257-0.57-0.504-0.742s-0.601-0.258-1.059-0.258c-0.578,0-0.992,0.081-1.242,0.242
		c-0.167,0.114-0.25,0.263-0.25,0.445c0,0.156,0.073,0.289,0.219,0.398c0.198,0.146,0.882,0.352,2.051,0.617
		s1.985,0.591,2.449,0.977c0.458,0.391,0.688,0.935,0.688,1.633c0,0.761-0.317,1.414-0.953,1.961s-1.575,0.82-2.82,0.82
		c-1.13,0-2.024-0.229-2.684-0.688S538.169,280.411,537.965,279.625z"/>
</g>
<path style="fill:#C11B17;stroke:#231F20;stroke-width:0.95;stroke-miterlimit:10;" d="M499.32,235.702L499.32,235.702
	c-2.726,0-4.957,2.23-4.957,4.957v0c0,2.726,2.23,4.957,4.957,4.957l0,0c2.726,0,4.957-2.23,4.957-4.957v0
	C504.277,237.933,502.046,235.702,499.32,235.702z"/>
</svg>
