<?xml version="1.0" encoding="utf-8"?>
<!-- Generator: Adobe Illustrator 22.0.1, SVG Export Plug-In . SVG Version: 6.00 Build 0)  -->
<svg version="1.1" id="friday-march" xmlns="http://www.w3.org/2000/svg" xmlns:xlink="http://www.w3.org/1999/xlink" x="0px"
	 y="0px" viewBox="0 0 400 602.122" style="enable-background:new 0 0 400 602.122;" xml:space="preserve">
<g>
	<g>
		<path d="M276.032,152.53l0.177,1.673c-0.562,0.106-0.973,0.313-1.234,0.624c-0.26,0.311-0.389,0.728-0.385,1.251
			c0.005,0.554,0.125,0.971,0.363,1.249c0.237,0.28,0.513,0.418,0.827,0.415c0.202-0.002,0.372-0.062,0.513-0.183
			c0.14-0.119,0.262-0.325,0.363-0.621c0.068-0.203,0.189-0.663,0.361-1.382c0.221-0.926,0.497-1.575,0.827-1.95
			c0.465-0.528,1.034-0.794,1.709-0.8c0.435-0.003,0.842,0.115,1.221,0.359c0.381,0.243,0.671,0.596,0.873,1.057
			c0.202,0.462,0.305,1.02,0.311,1.676c0.009,1.07-0.218,1.876-0.683,2.421c-0.464,0.545-1.088,0.834-1.871,0.868l-0.091-1.721
			c0.437-0.077,0.751-0.238,0.941-0.482c0.189-0.243,0.283-0.608,0.278-1.093c-0.004-0.5-0.111-0.891-0.318-1.172
			c-0.134-0.18-0.311-0.27-0.532-0.268c-0.202,0.002-0.373,0.089-0.515,0.26c-0.18,0.219-0.366,0.748-0.557,1.587
			c-0.19,0.839-0.39,1.459-0.598,1.863c-0.208,0.403-0.494,0.72-0.857,0.95c-0.366,0.229-0.816,0.347-1.355,0.352
			c-0.489,0.004-0.948-0.128-1.377-0.396c-0.428-0.268-0.749-0.649-0.961-1.143c-0.211-0.494-0.32-1.112-0.327-1.852
			c-0.009-1.078,0.233-1.909,0.727-2.49C274.356,153.002,275.079,152.65,276.032,152.53z"/>
		<path d="M273.345,162.853l7.084-0.061l-0.022-2.53l1.442-0.012l0.058,6.776l-1.442,0.012l-0.022-2.524l-7.084,0.061
			L273.345,162.853z"/>
		<path d="M273.45,175.015l-0.016-1.873l1.93-0.761l-0.029-3.408l-1.943-0.687l-0.016-1.826l8.555,3.248l0.016,1.82L273.45,175.015z
			 M276.796,171.816l3.154-1.201l-3.174-1.125L276.796,171.816z"/>
		<path d="M273.467,176.963l7.084-0.061l-0.022-2.53l1.442-0.012l0.058,6.775l-1.442,0.012l-0.022-2.524l-7.084,0.061
			L273.467,176.963z"/>
		<path d="M273.513,182.319l8.527-0.073l0.054,6.322l-1.442,0.012l-0.039-4.601l-1.89,0.017l0.037,4.281l-1.437,0.012l-0.037-4.281
			l-2.321,0.021l0.041,4.764l-1.437,0.012L273.513,182.319z"/>
	</g>
</g>
<g>
	<g>
		<path d="M251.431,121.099l8.457-0.072l0.015,1.722l-7.02,0.061l0.037,4.281l-1.437,0.012L251.431,121.099z"/>
		<path d="M251.559,136.017l-0.017-1.872l1.931-0.761l-0.029-3.408l-1.943-0.687l-0.016-1.826l8.556,3.248l0.016,1.82
			L251.559,136.017z M254.905,132.818l3.154-1.201l-3.174-1.125L254.905,132.818z"/>
		<path d="M254.338,136.47l0.177,1.673c-0.562,0.106-0.973,0.313-1.234,0.624c-0.26,0.311-0.389,0.728-0.385,1.251
			c0.005,0.554,0.125,0.971,0.363,1.25c0.237,0.28,0.513,0.418,0.827,0.415c0.202-0.002,0.372-0.062,0.513-0.183
			c0.14-0.119,0.262-0.326,0.364-0.622c0.067-0.203,0.188-0.663,0.36-1.382c0.221-0.926,0.497-1.575,0.827-1.95
			c0.465-0.528,1.034-0.794,1.709-0.8c0.435-0.003,0.842,0.115,1.221,0.359c0.381,0.243,0.671,0.596,0.873,1.057
			c0.202,0.462,0.305,1.02,0.311,1.676c0.009,1.07-0.218,1.877-0.683,2.422c-0.464,0.545-1.088,0.834-1.871,0.868l-0.091-1.721
			c0.437-0.077,0.751-0.238,0.941-0.483c0.189-0.243,0.283-0.608,0.278-1.093c-0.004-0.5-0.111-0.891-0.318-1.172
			c-0.134-0.18-0.311-0.27-0.532-0.268c-0.202,0.002-0.373,0.089-0.515,0.26c-0.18,0.219-0.366,0.748-0.557,1.587
			c-0.19,0.839-0.39,1.46-0.598,1.864c-0.208,0.403-0.494,0.72-0.857,0.95c-0.366,0.229-0.816,0.347-1.355,0.352
			c-0.489,0.004-0.948-0.128-1.377-0.396c-0.428-0.268-0.749-0.649-0.961-1.143c-0.211-0.494-0.32-1.113-0.327-1.853
			c-0.009-1.078,0.233-1.909,0.727-2.49C252.662,136.942,253.385,136.591,254.338,136.47z"/>
		<path d="M251.701,152.564l-0.016-1.873l1.93-0.761l-0.029-3.408l-1.943-0.687l-0.016-1.826l8.555,3.248l0.016,1.82
			L251.701,152.564z M255.047,149.365l3.154-1.201l-3.174-1.125L255.047,149.365z"/>
		<path d="M251.71,153.523l8.457-0.072l0.015,1.721l-7.02,0.061l0.037,4.281l-1.437,0.012L251.71,153.523z"/>
		<path d="M251.772,160.799l8.457-0.072l0.015,1.722l-7.02,0.061l0.037,4.281l-1.437,0.012L251.772,160.799z"/>
		<path d="M251.834,168.028l8.527-0.073l0.055,6.322l-1.442,0.012l-0.04-4.601l-1.89,0.017l0.037,4.281l-1.437,0.012l-0.037-4.281
			l-2.321,0.021l0.041,4.764l-1.437,0.012L251.834,168.028z"/>
	</g>
</g>
<g>
	<ellipse style="fill:none;stroke:#FFFFFF;stroke-width:5;" cx="263.036" cy="182.246" rx="6.696" ry="6.492"/>
	<ellipse style="fill:none;stroke:#D72132;stroke-width:3;" cx="263.036" cy="182.246" rx="6.696" ry="6.492"/>
</g>
<g>
	<polygon points="391.682,285.455 279.696,285.455 279.696,221.304 289.812,221.304 262.869,182.201 298.037,221.304 
		391.682,221.304 	"/>
	<g>
		<rect x="286.964" y="229.162" style="fill:none;" width="98.022" height="50.33"/>
		<path style="fill:#FFFFFF;" d="M295.457,236.408l2.242,0.711c-0.344,1.25-0.915,2.179-1.715,2.785s-1.813,0.91-3.043,0.91
			c-1.521,0-2.771-0.52-3.75-1.559s-1.469-2.46-1.469-4.262c0-1.906,0.492-3.387,1.477-4.441s2.278-1.582,3.883-1.582
			c1.401,0,2.539,0.414,3.414,1.242c0.521,0.489,0.911,1.192,1.172,2.109l-2.289,0.547c-0.136-0.594-0.418-1.062-0.848-1.406
			s-0.952-0.516-1.566-0.516c-0.849,0-1.538,0.305-2.066,0.914s-0.793,1.597-0.793,2.961c0,1.448,0.261,2.479,0.781,3.094
			s1.198,0.922,2.031,0.922c0.614,0,1.144-0.195,1.586-0.586S295.264,237.247,295.457,236.408z"/>
		<path style="fill:#FFFFFF;" d="M299.668,231.197v-2.031h2.195v2.031H299.668z M299.668,240.619v-8.297h2.195v8.297H299.668z"/>
		<path style="fill:#FFFFFF;" d="M306.394,240.619l-3.344-8.297h2.305l1.562,4.234l0.453,1.414c0.12-0.359,0.195-0.597,0.227-0.711
			c0.073-0.234,0.151-0.469,0.234-0.703l1.578-4.234h2.258l-3.297,8.297H306.394z"/>
		<path style="fill:#FFFFFF;" d="M313.011,231.197v-2.031h2.195v2.031H313.011z M313.011,240.619v-8.297h2.195v8.297H313.011z"/>
		<path style="fill:#FFFFFF;" d="M324.691,234.775l-2.164,0.391c-0.073-0.433-0.238-0.758-0.496-0.977s-0.593-0.328-1.004-0.328
			c-0.547,0-0.983,0.188-1.309,0.566s-0.488,1.009-0.488,1.895c0,0.984,0.165,1.68,0.496,2.086s0.774,0.609,1.332,0.609
			c0.417,0,0.758-0.118,1.023-0.355s0.453-0.645,0.562-1.223l2.156,0.367c-0.224,0.989-0.653,1.737-1.289,2.242
			s-1.487,0.758-2.555,0.758c-1.214,0-2.181-0.383-2.902-1.148s-1.082-1.825-1.082-3.18c0-1.37,0.362-2.437,1.086-3.199
			s1.703-1.145,2.938-1.145c1.011,0,1.813,0.218,2.41,0.652S324.43,233.884,324.691,234.775z"/>
		<path style="fill:#FFFFFF;" d="M338.144,236.408l2.242,0.711c-0.344,1.25-0.915,2.179-1.715,2.785s-1.813,0.91-3.043,0.91
			c-1.521,0-2.771-0.52-3.75-1.559s-1.469-2.46-1.469-4.262c0-1.906,0.492-3.387,1.477-4.441s2.278-1.582,3.883-1.582
			c1.401,0,2.539,0.414,3.414,1.242c0.521,0.489,0.911,1.192,1.172,2.109l-2.289,0.547c-0.136-0.594-0.418-1.062-0.848-1.406
			s-0.952-0.516-1.566-0.516c-0.849,0-1.538,0.305-2.066,0.914s-0.793,1.597-0.793,2.961c0,1.448,0.261,2.479,0.781,3.094
			s1.198,0.922,2.031,0.922c0.614,0,1.144-0.195,1.586-0.586S337.952,237.247,338.144,236.408z"/>
		<path style="fill:#FFFFFF;" d="M347.16,237.978l2.188,0.367c-0.281,0.802-0.726,1.413-1.332,1.832s-1.366,0.629-2.277,0.629
			c-1.442,0-2.511-0.472-3.203-1.414c-0.547-0.755-0.82-1.708-0.82-2.859c0-1.375,0.359-2.452,1.078-3.23s1.628-1.168,2.727-1.168
			c1.234,0,2.208,0.407,2.922,1.223s1.055,2.063,1.023,3.746h-5.5c0.016,0.651,0.192,1.157,0.531,1.52s0.761,0.543,1.266,0.543
			c0.344,0,0.633-0.094,0.867-0.281S347.04,238.395,347.16,237.978z M347.285,235.759c-0.016-0.636-0.18-1.118-0.492-1.449
			s-0.692-0.496-1.141-0.496c-0.479,0-0.875,0.175-1.188,0.523s-0.466,0.823-0.461,1.422H347.285z"/>
		<path style="fill:#FFFFFF;" d="M358.8,240.619h-2.195v-4.234c0-0.896-0.047-1.476-0.141-1.738s-0.246-0.468-0.457-0.613
			s-0.465-0.219-0.762-0.219c-0.38,0-0.722,0.104-1.023,0.312s-0.509,0.484-0.621,0.828s-0.168,0.979-0.168,1.906v3.758h-2.195
			v-8.297h2.039v1.219c0.724-0.938,1.636-1.406,2.734-1.406c0.484,0,0.927,0.087,1.328,0.262s0.704,0.397,0.91,0.668
			s0.349,0.578,0.43,0.922s0.121,0.836,0.121,1.477V240.619z"/>
		<path style="fill:#FFFFFF;" d="M364.832,232.322v1.75h-1.5v3.344c0,0.677,0.015,1.071,0.043,1.184s0.094,0.204,0.195,0.277
			s0.226,0.109,0.371,0.109c0.203,0,0.497-0.07,0.883-0.211l0.188,1.703c-0.511,0.219-1.089,0.328-1.734,0.328
			c-0.396,0-0.753-0.066-1.07-0.199s-0.551-0.305-0.699-0.516s-0.251-0.496-0.309-0.855c-0.047-0.255-0.07-0.771-0.07-1.547v-3.617
			h-1.008v-1.75h1.008v-1.648l2.203-1.281v2.93H364.832z"/>
		<path style="fill:#FFFFFF;" d="M371.16,237.978l2.188,0.367c-0.281,0.802-0.726,1.413-1.332,1.832s-1.366,0.629-2.277,0.629
			c-1.442,0-2.511-0.472-3.203-1.414c-0.547-0.755-0.82-1.708-0.82-2.859c0-1.375,0.359-2.452,1.078-3.23s1.628-1.168,2.727-1.168
			c1.234,0,2.208,0.407,2.922,1.223s1.055,2.063,1.023,3.746h-5.5c0.016,0.651,0.192,1.157,0.531,1.52s0.761,0.543,1.266,0.543
			c0.344,0,0.633-0.094,0.867-0.281S371.04,238.395,371.16,237.978z M371.285,235.759c-0.016-0.636-0.18-1.118-0.492-1.449
			s-0.692-0.496-1.141-0.496c-0.479,0-0.875,0.175-1.188,0.523s-0.466,0.823-0.461,1.422H371.285z"/>
		<path style="fill:#FFFFFF;" d="M377.355,240.619h-2.195v-8.297h2.039v1.18c0.349-0.558,0.663-0.925,0.941-1.102
			s0.595-0.266,0.949-0.266c0.5,0,0.981,0.138,1.445,0.414l-0.68,1.914c-0.37-0.239-0.714-0.359-1.031-0.359
			c-0.308,0-0.567,0.085-0.781,0.254s-0.382,0.476-0.504,0.918s-0.184,1.37-0.184,2.781V240.619z"/>
		<path style="fill:#FFFFFF;" d="M295.66,257.619h-2.195v-4.234c0-0.896-0.047-1.476-0.141-1.738s-0.246-0.468-0.457-0.613
			s-0.465-0.219-0.762-0.219c-0.38,0-0.722,0.104-1.023,0.312s-0.509,0.484-0.621,0.828s-0.168,0.979-0.168,1.906v3.758h-2.195
			v-8.297h2.039v1.219c0.724-0.938,1.636-1.406,2.734-1.406c0.484,0,0.927,0.087,1.328,0.262s0.704,0.397,0.91,0.668
			s0.349,0.578,0.43,0.922s0.121,0.836,0.121,1.477V257.619z"/>
		<path style="fill:#FFFFFF;" d="M297.379,253.353c0-0.729,0.18-1.435,0.539-2.117s0.868-1.203,1.527-1.562s1.395-0.539,2.207-0.539
			c1.255,0,2.284,0.407,3.086,1.223s1.203,1.845,1.203,3.09c0,1.255-0.405,2.296-1.215,3.121s-1.829,1.238-3.059,1.238
			c-0.761,0-1.485-0.172-2.176-0.516s-1.215-0.848-1.574-1.512S297.379,254.306,297.379,253.353z M299.629,253.47
			c0,0.823,0.195,1.453,0.586,1.891s0.872,0.656,1.445,0.656s1.054-0.219,1.441-0.656s0.582-1.073,0.582-1.906
			c0-0.812-0.194-1.438-0.582-1.875s-0.868-0.656-1.441-0.656s-1.055,0.219-1.445,0.656S299.629,252.647,299.629,253.47z"/>
		<path style="fill:#FFFFFF;" d="M309.207,257.619l-2.625-8.297h2.133l1.555,5.438l1.43-5.438h2.117l1.383,5.438l1.586-5.438h2.164
			l-2.664,8.297h-2.109l-1.43-5.336l-1.406,5.336H309.207z"/>
		<path style="fill:#FFFFFF;" d="M331.785,251.775l-2.164,0.391c-0.073-0.433-0.238-0.758-0.496-0.977s-0.593-0.328-1.004-0.328
			c-0.547,0-0.983,0.188-1.309,0.566s-0.488,1.009-0.488,1.895c0,0.984,0.165,1.68,0.496,2.086s0.774,0.609,1.332,0.609
			c0.417,0,0.758-0.118,1.023-0.355s0.453-0.645,0.562-1.223l2.156,0.367c-0.224,0.989-0.653,1.737-1.289,2.242
			s-1.487,0.758-2.555,0.758c-1.214,0-2.181-0.383-2.902-1.148s-1.082-1.825-1.082-3.18c0-1.37,0.362-2.437,1.086-3.199
			s1.703-1.145,2.938-1.145c1.011,0,1.813,0.218,2.41,0.652S331.524,250.884,331.785,251.775z"/>
		<path style="fill:#FFFFFF;" d="M335.089,251.853l-1.992-0.359c0.224-0.802,0.609-1.396,1.156-1.781s1.359-0.578,2.438-0.578
			c0.979,0,1.708,0.116,2.188,0.348s0.816,0.526,1.012,0.883s0.293,1.012,0.293,1.965l-0.023,2.562c0,0.729,0.035,1.267,0.105,1.613
			s0.202,0.718,0.395,1.113h-2.172c-0.058-0.146-0.128-0.362-0.211-0.648c-0.036-0.13-0.062-0.216-0.078-0.258
			c-0.375,0.364-0.776,0.638-1.203,0.82s-0.883,0.273-1.367,0.273c-0.854,0-1.527-0.231-2.02-0.695s-0.738-1.05-0.738-1.758
			c0-0.469,0.112-0.887,0.336-1.254s0.538-0.648,0.941-0.844s0.985-0.366,1.746-0.512c1.026-0.192,1.737-0.372,2.133-0.539v-0.219
			c0-0.422-0.104-0.723-0.312-0.902s-0.602-0.27-1.18-0.27c-0.391,0-0.695,0.077-0.914,0.23S335.225,251.467,335.089,251.853z
			 M338.027,253.634c-0.281,0.094-0.727,0.206-1.336,0.336s-1.008,0.258-1.195,0.383c-0.286,0.203-0.43,0.461-0.43,0.773
			c0,0.308,0.114,0.573,0.344,0.797s0.521,0.336,0.875,0.336c0.396,0,0.773-0.13,1.133-0.391c0.266-0.198,0.44-0.44,0.523-0.727
			c0.058-0.188,0.086-0.544,0.086-1.07V253.634z"/>
		<path style="fill:#FFFFFF;" d="M342.347,257.619v-11.453h2.195v11.453H342.347z"/>
		<path style="fill:#FFFFFF;" d="M346.793,257.619v-11.453h2.195v11.453H346.793z"/>
		<path style="fill:#FFFFFF;" d="M356.043,254.978l2.188,0.367c-0.281,0.802-0.726,1.413-1.332,1.832s-1.366,0.629-2.277,0.629
			c-1.442,0-2.511-0.472-3.203-1.414c-0.547-0.755-0.82-1.708-0.82-2.859c0-1.375,0.359-2.452,1.078-3.23s1.628-1.168,2.727-1.168
			c1.234,0,2.208,0.407,2.922,1.223s1.055,2.063,1.023,3.746h-5.5c0.016,0.651,0.192,1.157,0.531,1.52s0.761,0.543,1.266,0.543
			c0.344,0,0.633-0.094,0.867-0.281S355.922,255.395,356.043,254.978z M356.168,252.759c-0.016-0.636-0.18-1.118-0.492-1.449
			s-0.692-0.496-1.141-0.496c-0.479,0-0.875,0.175-1.188,0.523s-0.466,0.823-0.461,1.422H356.168z"/>
		<path style="fill:#FFFFFF;" d="M367.746,257.619h-2.039V256.4c-0.339,0.474-0.738,0.827-1.199,1.059s-0.926,0.348-1.395,0.348
			c-0.953,0-1.77-0.384-2.449-1.152s-1.02-1.84-1.02-3.215c0-1.406,0.331-2.476,0.992-3.207s1.497-1.098,2.508-1.098
			c0.927,0,1.729,0.386,2.406,1.156v-4.125h2.195V257.619z M361.886,253.291c0,0.886,0.122,1.526,0.367,1.922
			c0.354,0.573,0.849,0.859,1.484,0.859c0.505,0,0.935-0.215,1.289-0.645s0.531-1.071,0.531-1.926c0-0.953-0.172-1.64-0.516-2.059
			s-0.784-0.629-1.32-0.629c-0.521,0-0.957,0.207-1.309,0.621S361.886,252.467,361.886,253.291z"/>
		<path style="fill:#FFFFFF;" d="M288.121,263.166h4.227c0.953,0,1.68,0.073,2.18,0.219c0.672,0.198,1.247,0.55,1.727,1.055
			s0.844,1.124,1.094,1.855s0.375,1.634,0.375,2.707c0,0.942-0.117,1.755-0.352,2.438c-0.286,0.833-0.695,1.508-1.227,2.023
			c-0.401,0.391-0.942,0.695-1.625,0.914c-0.511,0.161-1.192,0.242-2.047,0.242h-4.352V263.166z M290.433,265.103v7.586h1.727
			c0.646,0,1.112-0.036,1.398-0.109c0.375-0.094,0.687-0.253,0.934-0.477s0.449-0.593,0.605-1.105s0.234-1.212,0.234-2.098
			s-0.078-1.565-0.234-2.039s-0.375-0.844-0.656-1.109s-0.638-0.445-1.07-0.539c-0.323-0.073-0.956-0.109-1.898-0.109H290.433z"/>
		<path style="fill:#FFFFFF;" d="M301.308,268.853l-1.992-0.359c0.224-0.802,0.609-1.396,1.156-1.781s1.359-0.578,2.438-0.578
			c0.979,0,1.708,0.116,2.188,0.348s0.816,0.526,1.012,0.883s0.293,1.012,0.293,1.965l-0.023,2.562c0,0.729,0.035,1.267,0.105,1.613
			s0.202,0.718,0.395,1.113h-2.172c-0.058-0.146-0.128-0.362-0.211-0.648c-0.036-0.13-0.062-0.216-0.078-0.258
			c-0.375,0.364-0.776,0.638-1.203,0.82s-0.883,0.273-1.367,0.273c-0.854,0-1.527-0.231-2.02-0.695s-0.738-1.05-0.738-1.758
			c0-0.469,0.112-0.887,0.336-1.254s0.538-0.648,0.941-0.844s0.985-0.366,1.746-0.512c1.026-0.192,1.737-0.372,2.133-0.539v-0.219
			c0-0.422-0.104-0.723-0.312-0.902s-0.602-0.27-1.18-0.27c-0.391,0-0.695,0.077-0.914,0.23S301.444,268.467,301.308,268.853z
			 M304.246,270.634c-0.281,0.094-0.727,0.206-1.336,0.336s-1.008,0.258-1.195,0.383c-0.286,0.203-0.43,0.461-0.43,0.773
			c0,0.308,0.114,0.573,0.344,0.797s0.521,0.336,0.875,0.336c0.396,0,0.773-0.13,1.133-0.391c0.266-0.198,0.44-0.44,0.523-0.727
			c0.058-0.188,0.086-0.544,0.086-1.07V270.634z"/>
		<path style="fill:#FFFFFF;" d="M308.566,274.619v-11.453h2.195v11.453H308.566z"/>
		<path style="fill:#FFFFFF;" d="M317.816,271.978l2.188,0.367c-0.281,0.802-0.726,1.413-1.332,1.832s-1.366,0.629-2.277,0.629
			c-1.442,0-2.511-0.472-3.203-1.414c-0.547-0.755-0.82-1.708-0.82-2.859c0-1.375,0.359-2.452,1.078-3.23s1.628-1.168,2.727-1.168
			c1.234,0,2.208,0.407,2.922,1.223s1.055,2.063,1.023,3.746h-5.5c0.016,0.651,0.192,1.157,0.531,1.52s0.761,0.543,1.266,0.543
			c0.344,0,0.633-0.094,0.867-0.281S317.696,272.395,317.816,271.978z M317.941,269.759c-0.016-0.636-0.18-1.118-0.492-1.449
			s-0.692-0.496-1.141-0.496c-0.479,0-0.875,0.175-1.188,0.523s-0.466,0.823-0.461,1.422H317.941z"/>
		<path style="fill:#FFFFFF;" d="M320.871,266.322h2.336l1.984,5.891l1.938-5.891h2.273l-2.93,7.984l-0.523,1.445
			c-0.192,0.484-0.376,0.854-0.551,1.109s-0.375,0.462-0.602,0.621s-0.505,0.282-0.836,0.371s-0.704,0.133-1.121,0.133
			c-0.422,0-0.836-0.044-1.242-0.133l-0.195-1.719c0.344,0.067,0.653,0.102,0.93,0.102c0.511,0,0.888-0.149,1.133-0.449
			s0.433-0.681,0.562-1.145L320.871,266.322z"/>
		<path style="fill:#FFFFFF;" d="M342.597,270.408l2.242,0.711c-0.344,1.25-0.915,2.179-1.715,2.785s-1.813,0.91-3.043,0.91
			c-1.521,0-2.771-0.52-3.75-1.559s-1.469-2.46-1.469-4.262c0-1.906,0.492-3.387,1.477-4.441s2.278-1.582,3.883-1.582
			c1.401,0,2.539,0.414,3.414,1.242c0.521,0.489,0.911,1.192,1.172,2.109l-2.289,0.547c-0.136-0.594-0.418-1.062-0.848-1.406
			s-0.952-0.516-1.566-0.516c-0.849,0-1.538,0.305-2.066,0.914s-0.793,1.597-0.793,2.961c0,1.448,0.261,2.479,0.781,3.094
			s1.198,0.922,2.031,0.922c0.614,0,1.144-0.195,1.586-0.586S342.405,271.247,342.597,270.408z"/>
		<path style="fill:#FFFFFF;" d="M351.613,271.978l2.188,0.367c-0.281,0.802-0.726,1.413-1.332,1.832s-1.366,0.629-2.277,0.629
			c-1.442,0-2.511-0.472-3.203-1.414c-0.547-0.755-0.82-1.708-0.82-2.859c0-1.375,0.359-2.452,1.078-3.23s1.628-1.168,2.727-1.168
			c1.234,0,2.208,0.407,2.922,1.223s1.055,2.063,1.023,3.746h-5.5c0.016,0.651,0.192,1.157,0.531,1.52s0.761,0.543,1.266,0.543
			c0.344,0,0.633-0.094,0.867-0.281S351.493,272.395,351.613,271.978z M351.738,269.759c-0.016-0.636-0.18-1.118-0.492-1.449
			s-0.692-0.496-1.141-0.496c-0.479,0-0.875,0.175-1.188,0.523s-0.466,0.823-0.461,1.422H351.738z"/>
		<path style="fill:#FFFFFF;" d="M363.254,274.619h-2.195v-4.234c0-0.896-0.047-1.476-0.141-1.738s-0.246-0.468-0.457-0.613
			s-0.465-0.219-0.762-0.219c-0.38,0-0.722,0.104-1.023,0.312s-0.509,0.484-0.621,0.828s-0.168,0.979-0.168,1.906v3.758h-2.195
			v-8.297h2.039v1.219c0.724-0.938,1.636-1.406,2.734-1.406c0.484,0,0.927,0.087,1.328,0.262s0.704,0.397,0.91,0.668
			s0.349,0.578,0.43,0.922s0.121,0.836,0.121,1.477V274.619z"/>
		<path style="fill:#FFFFFF;" d="M369.285,266.322v1.75h-1.5v3.344c0,0.677,0.015,1.071,0.043,1.184s0.094,0.204,0.195,0.277
			s0.226,0.109,0.371,0.109c0.203,0,0.497-0.07,0.883-0.211l0.188,1.703c-0.511,0.219-1.089,0.328-1.734,0.328
			c-0.396,0-0.753-0.066-1.07-0.199s-0.551-0.305-0.699-0.516s-0.251-0.496-0.309-0.855c-0.047-0.255-0.07-0.771-0.07-1.547v-3.617
			h-1.008v-1.75h1.008v-1.648l2.203-1.281v2.93H369.285z"/>
		<path style="fill:#FFFFFF;" d="M375.613,271.978l2.188,0.367c-0.281,0.802-0.726,1.413-1.332,1.832s-1.366,0.629-2.277,0.629
			c-1.442,0-2.511-0.472-3.203-1.414c-0.547-0.755-0.82-1.708-0.82-2.859c0-1.375,0.359-2.452,1.078-3.23s1.628-1.168,2.727-1.168
			c1.234,0,2.208,0.407,2.922,1.223s1.055,2.063,1.023,3.746h-5.5c0.016,0.651,0.192,1.157,0.531,1.52s0.761,0.543,1.266,0.543
			c0.344,0,0.633-0.094,0.867-0.281S375.493,272.395,375.613,271.978z M375.738,269.759c-0.016-0.636-0.18-1.118-0.492-1.449
			s-0.692-0.496-1.141-0.496c-0.479,0-0.875,0.175-1.188,0.523s-0.466,0.823-0.461,1.422H375.738z"/>
		<path style="fill:#FFFFFF;" d="M381.808,274.619h-2.195v-8.297h2.039v1.18c0.349-0.558,0.663-0.925,0.941-1.102
			s0.595-0.266,0.949-0.266c0.5,0,0.981,0.138,1.445,0.414l-0.68,1.914c-0.37-0.239-0.714-0.359-1.031-0.359
			c-0.308,0-0.567,0.085-0.781,0.254s-0.382,0.476-0.504,0.918s-0.184,1.37-0.184,2.781V274.619z"/>
	</g>
</g>
</svg>
