<?xml version="1.0" encoding="utf-8"?>
<!-- Generator: Adobe Illustrator 22.0.1, SVG Export Plug-In . SVG Version: 6.00 Build 0)  -->
<svg version="1.1" id="national-guard" xmlns="http://www.w3.org/2000/svg" xmlns:xlink="http://www.w3.org/1999/xlink" x="0px"
	 y="0px" viewBox="0 0 400 602.122" style="enable-background:new 0 0 400 602.122;" xml:space="preserve">
<path style="fill:#C11B17;stroke:#231F20;stroke-width:0.95;stroke-miterlimit:10;" d="M308.594,403.965L308.594,403.965
	c-3.247,0-5.904,2.657-5.904,5.904l0,0c0,3.247,2.657,5.904,5.904,5.904l0,0c3.247,0,5.904-2.657,5.904-5.904l0,0
	C314.498,406.622,311.842,403.965,308.594,403.965z"/>
<path style="fill:#C11B17;stroke:#231F20;stroke-width:0.95;stroke-miterlimit:10;" d="M367.543,466.377L367.543,466.377
	c-3.247,0-5.904,2.657-5.904,5.904l0,0c0,3.247,2.657,5.904,5.904,5.904l0,0c3.247,0,5.904-2.657,5.904-5.904l0,0
	C373.448,469.034,370.791,466.377,367.543,466.377z"/>
<path style="fill:#C11B17;stroke:#231F20;stroke-width:0.95;stroke-miterlimit:10;" d="M214.401,478.539L214.401,478.539
	c-3.247,0-5.904,2.657-5.904,5.904v0c0,3.247,2.657,5.904,5.904,5.904l0,0c3.247,0,5.904-2.657,5.904-5.904v0
	C220.306,481.196,217.649,478.539,214.401,478.539z"/>
<path style="fill:#C11B17;stroke:#231F20;stroke-width:0.95;stroke-miterlimit:10;" d="M166.951,339.776L166.951,339.776
	c-3.247,0-5.904,2.657-5.904,5.904v0c0,3.247,2.657,5.904,5.904,5.904h0c3.247,0,5.904-2.657,5.904-5.904v0
	C172.855,342.433,170.199,339.776,166.951,339.776z"/>
<path style="fill:#C11B17;stroke:#231F20;stroke-width:0.95;stroke-miterlimit:10;" d="M38.672,440.242L38.672,440.242
	c-3.247,0-5.904,2.657-5.904,5.904l0,0c0,3.247,2.657,5.904,5.904,5.904h0c3.247,0,5.904-2.657,5.904-5.904l0,0
	C44.576,442.898,41.919,440.242,38.672,440.242z"/>
<path style="fill:#C11B17;stroke:#231F20;stroke-width:0.95;stroke-miterlimit:10;" d="M110.466,108.431L110.466,108.431
	c-3.247,0-5.904,2.657-5.904,5.904v0c0,3.247,2.657,5.904,5.904,5.904h0c3.247,0,5.904-2.657,5.904-5.904v0
	C116.371,111.088,113.714,108.431,110.466,108.431z"/>
<path style="fill:#C11B17;stroke:#231F20;stroke-width:0.95;stroke-miterlimit:10;" d="M282.392,139.058L282.392,139.058
	c-3.247,0-5.904,2.657-5.904,5.904v0c0,3.247,2.657,5.904,5.904,5.904l0,0c3.247,0,5.904-2.657,5.904-5.904v0
	C288.296,141.715,285.639,139.058,282.392,139.058z"/>
<path style="fill:#C11B17;stroke:#231F20;stroke-width:0.95;stroke-miterlimit:10;" d="M312.616,151.347L312.616,151.347
	c-3.247,0-5.904,2.657-5.904,5.904v0c0,3.247,2.657,5.904,5.904,5.904l0,0c3.247,0,5.904-2.657,5.904-5.904v0
	C318.521,154.004,315.864,151.347,312.616,151.347z"/>
<path style="fill:#C11B17;stroke:#231F20;stroke-width:0.95;stroke-miterlimit:10;" d="M137.054,183.005L137.054,183.005
	c-3.247,0-5.904,2.657-5.904,5.904v0c0,3.247,2.657,5.904,5.904,5.904h0c3.247,0,5.904-2.657,5.904-5.904v0
	C142.959,185.662,140.302,183.005,137.054,183.005z"/>
<g>
	<rect x="13.26" y="10.162" style="fill:#EBEBEB;stroke:#231F20;" width="120.956" height="76.497"/>
	<path style="fill:#C11B17;stroke:#231F20;stroke-width:0.95;stroke-miterlimit:10;" d="M28.701,44.499L28.701,44.499
		c-3.063,0-5.57,2.506-5.57,5.57v0c0,3.063,2.506,5.57,5.57,5.57h0c3.063,0,5.57-2.506,5.57-5.57v0
		C34.271,47.006,31.764,44.499,28.701,44.499z"/>
	<path d="M23.736,34.753V24.015h2.168v4.769l4.379-4.769h2.916l-4.043,4.183l4.262,6.555h-2.805l-2.951-5.039l-1.758,1.795v3.244
		H23.736z"/>
	<path d="M34.539,34.753V24.015H42.5v1.816h-5.793v2.38h5.391v1.81h-5.391v2.923h5.998v1.809H34.539z"/>
	<path d="M47.364,34.753v-4.52l-3.933-6.218h2.541l2.527,4.248l2.475-4.248h2.498l-3.947,6.233v4.504H47.364z"/>
</g>
<g>
	<path d="M45.266,51.147v-1.344l4.852-0.008v4.25c-0.745,0.594-1.513,1.04-2.305,1.34s-1.604,0.449-2.438,0.449
		c-1.125,0-2.147-0.241-3.066-0.723s-1.613-1.179-2.082-2.09s-0.703-1.93-0.703-3.055c0-1.114,0.233-2.155,0.699-3.121
		s1.137-1.684,2.012-2.152s1.883-0.703,3.023-0.703c0.828,0,1.577,0.134,2.246,0.402s1.194,0.642,1.574,1.121
		s0.669,1.104,0.867,1.875l-1.367,0.375c-0.172-0.583-0.386-1.042-0.641-1.375s-0.62-0.601-1.094-0.801s-1-0.301-1.578-0.301
		c-0.692,0-1.292,0.105-1.797,0.316s-0.913,0.488-1.223,0.832s-0.551,0.722-0.723,1.133c-0.292,0.708-0.438,1.477-0.438,2.305
		c0,1.021,0.176,1.875,0.527,2.562s0.863,1.198,1.535,1.531s1.386,0.5,2.141,0.5c0.656,0,1.297-0.126,1.922-0.379
		s1.099-0.522,1.422-0.809v-2.133H45.266z"/>
	<path d="M57.61,55.639V54.42c-0.646,0.938-1.523,1.406-2.633,1.406c-0.489,0-0.946-0.094-1.371-0.281s-0.739-0.423-0.945-0.707
		s-0.351-0.632-0.434-1.043c-0.058-0.276-0.086-0.714-0.086-1.312v-5.141h1.406v4.602c0,0.734,0.028,1.229,0.086,1.484
		c0.089,0.37,0.276,0.66,0.562,0.871s0.641,0.316,1.062,0.316s0.817-0.108,1.188-0.324s0.632-0.511,0.785-0.883
		s0.23-0.913,0.23-1.621v-4.445h1.406v8.297H57.61z"/>
	<path d="M66.485,54.616c-0.521,0.442-1.022,0.755-1.504,0.938s-0.999,0.273-1.551,0.273c-0.911,0-1.612-0.223-2.102-0.668
		s-0.734-1.015-0.734-1.707c0-0.406,0.093-0.777,0.277-1.113s0.427-0.605,0.727-0.809s0.637-0.356,1.012-0.461
		c0.276-0.073,0.692-0.144,1.25-0.211c1.136-0.136,1.972-0.297,2.508-0.484c0.005-0.192,0.008-0.315,0.008-0.367
		c0-0.573-0.133-0.977-0.398-1.211c-0.359-0.317-0.894-0.477-1.602-0.477c-0.661,0-1.149,0.116-1.465,0.348s-0.548,0.642-0.699,1.23
		l-1.375-0.188c0.125-0.589,0.331-1.063,0.617-1.426s0.7-0.641,1.242-0.836s1.169-0.293,1.883-0.293c0.708,0,1.284,0.083,1.727,0.25
		s0.769,0.376,0.977,0.629s0.354,0.571,0.438,0.957c0.047,0.239,0.07,0.672,0.07,1.297v1.875c0,1.308,0.03,2.134,0.09,2.48
		s0.179,0.679,0.355,0.996h-1.469C66.621,55.347,66.527,55.006,66.485,54.616z M66.368,51.475c-0.511,0.208-1.276,0.386-2.297,0.531
		c-0.578,0.083-0.987,0.177-1.227,0.281s-0.425,0.257-0.555,0.457s-0.195,0.423-0.195,0.668c0,0.375,0.142,0.688,0.426,0.938
		s0.699,0.375,1.246,0.375c0.542,0,1.023-0.118,1.445-0.355s0.731-0.562,0.93-0.973c0.151-0.317,0.227-0.786,0.227-1.406V51.475z"/>
	<path d="M69.954,55.639v-8.297h1.266V48.6c0.323-0.589,0.621-0.977,0.895-1.164s0.574-0.281,0.902-0.281
		c0.474,0,0.956,0.151,1.445,0.453l-0.484,1.305c-0.344-0.203-0.688-0.305-1.031-0.305c-0.308,0-0.583,0.093-0.828,0.277
		s-0.419,0.441-0.523,0.77c-0.156,0.5-0.234,1.047-0.234,1.641v4.344H69.954z"/>
	<path d="M80.68,55.639v-1.047c-0.526,0.823-1.3,1.234-2.32,1.234c-0.661,0-1.27-0.183-1.824-0.547s-0.984-0.874-1.289-1.527
		s-0.457-1.405-0.457-2.254c0-0.828,0.138-1.579,0.414-2.254s0.69-1.191,1.242-1.551s1.169-0.539,1.852-0.539
		c0.5,0,0.945,0.105,1.336,0.316s0.708,0.485,0.953,0.824v-4.109h1.398v11.453H80.68z M76.235,51.499
		c0,1.062,0.224,1.856,0.672,2.383s0.977,0.789,1.586,0.789c0.614,0,1.137-0.251,1.566-0.754s0.645-1.27,0.645-2.301
		c0-1.136-0.219-1.969-0.656-2.5s-0.977-0.797-1.617-0.797c-0.625,0-1.147,0.255-1.566,0.766S76.235,50.4,76.235,51.499z"/>
	<path d="M83.633,53.163l1.391-0.219c0.078,0.558,0.296,0.984,0.652,1.281s0.855,0.445,1.496,0.445c0.646,0,1.125-0.132,1.438-0.395
		s0.469-0.571,0.469-0.926c0-0.317-0.138-0.567-0.414-0.75c-0.192-0.125-0.672-0.284-1.438-0.477
		c-1.031-0.261-1.746-0.485-2.145-0.676s-0.7-0.453-0.906-0.789s-0.309-0.707-0.309-1.113c0-0.37,0.085-0.712,0.254-1.027
		s0.399-0.577,0.691-0.785c0.219-0.161,0.517-0.298,0.895-0.41s0.782-0.168,1.215-0.168c0.651,0,1.223,0.094,1.715,0.281
		s0.855,0.441,1.09,0.762s0.396,0.749,0.484,1.285l-1.375,0.188c-0.062-0.427-0.243-0.761-0.543-1s-0.723-0.359-1.27-0.359
		c-0.646,0-1.106,0.106-1.383,0.32s-0.414,0.464-0.414,0.75c0,0.183,0.058,0.347,0.172,0.492c0.114,0.151,0.294,0.276,0.539,0.375
		c0.141,0.052,0.555,0.172,1.242,0.359c0.995,0.266,1.688,0.483,2.082,0.652s0.702,0.415,0.926,0.738s0.336,0.724,0.336,1.203
		c0,0.469-0.137,0.91-0.41,1.324s-0.668,0.734-1.184,0.961s-1.099,0.34-1.75,0.34c-1.078,0-1.899-0.224-2.465-0.672
		S83.79,54.042,83.633,53.163z"/>
	<path d="M92.196,55.639v-8.297h1.258v1.164c0.261-0.406,0.606-0.733,1.039-0.98s0.925-0.371,1.477-0.371
		c0.614,0,1.118,0.128,1.512,0.383s0.671,0.612,0.832,1.07c0.656-0.969,1.511-1.453,2.562-1.453c0.823,0,1.456,0.228,1.898,0.684
		s0.664,1.157,0.664,2.105v5.695h-1.398v-5.227c0-0.562-0.046-0.968-0.137-1.215s-0.257-0.446-0.496-0.598s-0.521-0.227-0.844-0.227
		c-0.583,0-1.067,0.194-1.453,0.582s-0.578,1.009-0.578,1.863v4.82h-1.406v-5.391c0-0.625-0.114-1.094-0.344-1.406
		s-0.604-0.469-1.125-0.469c-0.396,0-0.762,0.104-1.098,0.312s-0.579,0.513-0.73,0.914s-0.227,0.979-0.227,1.734v4.305H92.196z"/>
	<path d="M111.204,52.967l1.453,0.18c-0.229,0.849-0.653,1.508-1.273,1.977s-1.411,0.703-2.375,0.703
		c-1.214,0-2.176-0.374-2.887-1.121s-1.066-1.796-1.066-3.145c0-1.396,0.359-2.479,1.078-3.25s1.651-1.156,2.797-1.156
		c1.109,0,2.016,0.378,2.719,1.133s1.055,1.817,1.055,3.188c0,0.083-0.003,0.208-0.008,0.375h-6.188
		c0.052,0.911,0.31,1.609,0.773,2.094s1.042,0.727,1.734,0.727c0.516,0,0.956-0.136,1.32-0.406S110.99,53.561,111.204,52.967z
		 M106.587,50.694h4.633c-0.062-0.698-0.239-1.222-0.531-1.57c-0.448-0.542-1.028-0.812-1.742-0.812
		c-0.646,0-1.188,0.216-1.629,0.648S106.633,49.97,106.587,50.694z"/>
	<path d="M114.422,55.639v-8.297h1.266v1.18c0.609-0.911,1.489-1.367,2.641-1.367c0.5,0,0.96,0.09,1.379,0.27
		s0.733,0.415,0.941,0.707s0.354,0.638,0.438,1.039c0.052,0.261,0.078,0.716,0.078,1.367v5.102h-1.406v-5.047
		c0-0.573-0.055-1.001-0.164-1.285s-0.304-0.511-0.582-0.68s-0.605-0.254-0.98-0.254c-0.599,0-1.116,0.19-1.551,0.57
		s-0.652,1.102-0.652,2.164v4.531H114.422z"/>
	<path d="M122.266,55.834l3.32-11.844h1.125l-3.312,11.844H122.266z"/>
	<path d="M42.797,72.381l0.203,1.242c-0.396,0.083-0.75,0.125-1.062,0.125c-0.511,0-0.906-0.081-1.188-0.242
		s-0.479-0.374-0.594-0.637s-0.172-0.816-0.172-1.66v-4.773h-1.031v-1.094h1.031v-2.055l1.398-0.844v2.898h1.414v1.094h-1.414v4.852
		c0,0.401,0.024,0.659,0.074,0.773s0.13,0.206,0.242,0.273s0.272,0.102,0.48,0.102C42.337,72.436,42.543,72.417,42.797,72.381z"/>
	<path d="M44.157,73.639v-8.297h1.266V66.6c0.323-0.589,0.621-0.977,0.895-1.164s0.574-0.281,0.902-0.281
		c0.474,0,0.956,0.151,1.445,0.453l-0.484,1.305c-0.344-0.203-0.688-0.305-1.031-0.305c-0.308,0-0.583,0.093-0.828,0.277
		s-0.419,0.441-0.523,0.77c-0.156,0.5-0.234,1.047-0.234,1.641v4.344H44.157z"/>
	<path d="M48.977,69.491c0-1.536,0.427-2.675,1.281-3.414c0.714-0.614,1.583-0.922,2.609-0.922c1.141,0,2.073,0.374,2.797,1.121
		s1.086,1.78,1.086,3.098c0,1.067-0.16,1.907-0.48,2.52s-0.786,1.087-1.398,1.426s-1.28,0.508-2.004,0.508
		c-1.161,0-2.101-0.372-2.816-1.117S48.977,70.892,48.977,69.491z M50.422,69.491c0,1.062,0.231,1.858,0.695,2.387
		s1.047,0.793,1.75,0.793c0.698,0,1.278-0.266,1.742-0.797s0.695-1.341,0.695-2.43c0-1.026-0.233-1.804-0.699-2.332
		s-1.046-0.793-1.738-0.793c-0.703,0-1.286,0.263-1.75,0.789S50.422,68.428,50.422,69.491z"/>
	<path d="M57.876,69.491c0-1.536,0.427-2.675,1.281-3.414c0.714-0.614,1.583-0.922,2.609-0.922c1.141,0,2.073,0.374,2.797,1.121
		c0.724,0.747,1.086,1.78,1.086,3.098c0,1.067-0.16,1.907-0.48,2.52s-0.786,1.087-1.398,1.426c-0.612,0.339-1.28,0.508-2.004,0.508
		c-1.161,0-2.101-0.372-2.816-1.117S57.876,70.892,57.876,69.491z M59.321,69.491c0,1.062,0.231,1.858,0.695,2.387
		s1.047,0.793,1.75,0.793c0.698,0,1.278-0.266,1.742-0.797s0.695-1.341,0.695-2.43c0-1.026-0.233-1.804-0.699-2.332
		s-1.046-0.793-1.738-0.793c-0.703,0-1.286,0.263-1.75,0.789S59.321,68.428,59.321,69.491z"/>
	<path d="M67.297,76.819V65.342h1.281v1.078c0.302-0.422,0.644-0.738,1.023-0.949s0.841-0.316,1.383-0.316
		c0.708,0,1.333,0.183,1.875,0.547s0.95,0.879,1.227,1.543s0.414,1.392,0.414,2.184c0,0.849-0.152,1.613-0.457,2.293
		s-0.747,1.2-1.328,1.562s-1.191,0.543-1.832,0.543c-0.469,0-0.89-0.099-1.262-0.297s-0.679-0.448-0.918-0.75v4.039H67.297z
		 M68.571,69.538c0,1.067,0.216,1.856,0.648,2.367s0.956,0.766,1.57,0.766c0.625,0,1.16-0.265,1.605-0.793s0.668-1.348,0.668-2.457
		c0-1.058-0.218-1.849-0.652-2.375s-0.954-0.789-1.559-0.789c-0.599,0-1.129,0.28-1.59,0.84S68.571,68.47,68.571,69.538z"/>
	<path d="M75.633,71.163l1.391-0.219c0.078,0.558,0.296,0.984,0.652,1.281s0.855,0.445,1.496,0.445c0.646,0,1.125-0.132,1.438-0.395
		s0.469-0.571,0.469-0.926c0-0.317-0.138-0.567-0.414-0.75c-0.192-0.125-0.672-0.284-1.438-0.477
		c-1.031-0.261-1.746-0.485-2.145-0.676s-0.7-0.453-0.906-0.789s-0.309-0.707-0.309-1.113c0-0.37,0.085-0.712,0.254-1.027
		s0.399-0.577,0.691-0.785c0.219-0.161,0.517-0.298,0.895-0.41s0.782-0.168,1.215-0.168c0.651,0,1.223,0.094,1.715,0.281
		s0.855,0.441,1.09,0.762s0.396,0.749,0.484,1.285l-1.375,0.188c-0.062-0.427-0.243-0.761-0.543-1s-0.723-0.359-1.27-0.359
		c-0.646,0-1.106,0.106-1.383,0.32s-0.414,0.464-0.414,0.75c0,0.183,0.058,0.347,0.172,0.492c0.114,0.151,0.294,0.276,0.539,0.375
		c0.141,0.052,0.555,0.172,1.242,0.359c0.995,0.266,1.688,0.483,2.082,0.652s0.702,0.415,0.926,0.738s0.336,0.724,0.336,1.203
		c0,0.469-0.137,0.91-0.41,1.324s-0.668,0.734-1.184,0.961s-1.099,0.34-1.75,0.34c-1.078,0-1.899-0.224-2.465-0.672
		S75.79,72.042,75.633,71.163z"/>
</g>
</svg>
