<?xml version="1.0" encoding="utf-8"?>
<!-- Generator: Adobe Illustrator 22.0.1, SVG Export Plug-In . SVG Version: 6.00 Build 0)  -->
<svg version="1.1" id="national-guard" xmlns="http://www.w3.org/2000/svg" xmlns:xlink="http://www.w3.org/1999/xlink" x="0px"
	 y="0px" viewBox="0 0 400 602.122" style="enable-background:new 0 0 400 602.122;" xml:space="preserve">
<g>
	<polygon points="385.461,291.521 300.988,291.521 300.988,243.742 265.82,183.992 300.988,236.242 300.988,228.215 
		385.461,228.215 	"/>
	<g>
		<g>
			<path style="fill:#FFFFFF;" d="M311.212,247.53l-2.734-11.453h2.367l1.727,7.867l2.094-7.867h2.75l2.008,8l1.758-8h2.328
				l-2.781,11.453h-2.453l-2.281-8.562l-2.273,8.562H311.212z"/>
			<path style="fill:#FFFFFF;" d="M324.533,238.108v-2.031h2.195v2.031H324.533z M324.533,247.53v-8.297h2.195v8.297H324.533z"/>
			<path style="fill:#FFFFFF;" d="M336.525,247.53h-2.195v-4.234c0-0.896-0.047-1.476-0.141-1.738s-0.246-0.468-0.457-0.613
				s-0.465-0.219-0.762-0.219c-0.38,0-0.722,0.104-1.023,0.312s-0.509,0.484-0.621,0.828s-0.168,0.979-0.168,1.906v3.758h-2.195
				v-8.297h2.039v1.219c0.724-0.938,1.636-1.406,2.734-1.406c0.484,0,0.927,0.087,1.328,0.262s0.704,0.397,0.91,0.668
				s0.349,0.578,0.43,0.922s0.121,0.836,0.121,1.477V247.53z"/>
			<path style="fill:#FFFFFF;" d="M346.361,247.53h-2.039v-1.219c-0.339,0.474-0.738,0.827-1.199,1.059s-0.926,0.348-1.395,0.348
				c-0.953,0-1.77-0.384-2.449-1.152s-1.02-1.84-1.02-3.215c0-1.406,0.331-2.476,0.992-3.207s1.497-1.098,2.508-1.098
				c0.927,0,1.729,0.386,2.406,1.156v-4.125h2.195V247.53z M340.502,243.202c0,0.886,0.122,1.526,0.367,1.922
				c0.354,0.573,0.849,0.859,1.484,0.859c0.505,0,0.935-0.215,1.289-0.645s0.531-1.071,0.531-1.926c0-0.953-0.172-1.64-0.516-2.059
				s-0.784-0.629-1.32-0.629c-0.521,0-0.957,0.207-1.309,0.621S340.502,242.378,340.502,243.202z"/>
			<path style="fill:#FFFFFF;" d="M348.017,243.264c0-0.729,0.18-1.435,0.539-2.117s0.868-1.203,1.527-1.562
				s1.395-0.539,2.207-0.539c1.255,0,2.284,0.407,3.086,1.223s1.203,1.845,1.203,3.09c0,1.255-0.405,2.296-1.215,3.121
				s-1.829,1.238-3.059,1.238c-0.761,0-1.485-0.172-2.176-0.516s-1.215-0.848-1.574-1.512S348.017,244.217,348.017,243.264z
				 M350.267,243.381c0,0.823,0.195,1.453,0.586,1.891s0.872,0.656,1.445,0.656s1.054-0.219,1.441-0.656s0.582-1.073,0.582-1.906
				c0-0.812-0.194-1.438-0.582-1.875s-0.868-0.656-1.441-0.656s-1.055,0.219-1.445,0.656S350.267,242.558,350.267,243.381z"/>
			<path style="fill:#FFFFFF;" d="M359.845,247.53l-2.625-8.297h2.133l1.555,5.438l1.43-5.438h2.117l1.383,5.438l1.586-5.438h2.164
				l-2.664,8.297h-2.109l-1.43-5.336l-1.406,5.336H359.845z"/>
			<path style="fill:#FFFFFF;" d="M369.97,245.163l2.203-0.336c0.094,0.427,0.284,0.751,0.57,0.973s0.688,0.332,1.203,0.332
				c0.567,0,0.995-0.104,1.281-0.312c0.192-0.146,0.289-0.341,0.289-0.586c0-0.167-0.052-0.305-0.156-0.414
				c-0.109-0.104-0.354-0.2-0.734-0.289c-1.771-0.391-2.894-0.747-3.367-1.07c-0.656-0.448-0.984-1.07-0.984-1.867
				c0-0.719,0.284-1.323,0.852-1.812s1.448-0.734,2.641-0.734c1.136,0,1.979,0.185,2.531,0.555s0.933,0.917,1.141,1.641l-2.07,0.383
				c-0.089-0.323-0.257-0.57-0.504-0.742s-0.601-0.258-1.059-0.258c-0.578,0-0.992,0.081-1.242,0.242
				c-0.167,0.114-0.25,0.263-0.25,0.445c0,0.156,0.073,0.289,0.219,0.398c0.198,0.146,0.882,0.352,2.051,0.617
				s1.985,0.591,2.449,0.977c0.458,0.391,0.688,0.935,0.688,1.633c0,0.761-0.317,1.414-0.953,1.961s-1.575,0.82-2.82,0.82
				c-1.13,0-2.024-0.229-2.684-0.688S370.173,245.949,369.97,245.163z"/>
			<path style="fill:#FFFFFF;" d="M309.478,264.53v-11.453h2.195v4.125c0.677-0.771,1.479-1.156,2.406-1.156
				c1.011,0,1.847,0.366,2.508,1.098s0.992,1.782,0.992,3.152c0,1.417-0.337,2.508-1.012,3.273s-1.493,1.148-2.457,1.148
				c-0.474,0-0.941-0.118-1.402-0.355s-0.858-0.587-1.191-1.051v1.219H309.478z M311.658,260.202c0,0.859,0.136,1.495,0.406,1.906
				c0.38,0.583,0.886,0.875,1.516,0.875c0.484,0,0.897-0.207,1.238-0.621s0.512-1.066,0.512-1.957c0-0.948-0.172-1.632-0.516-2.051
				s-0.784-0.629-1.32-0.629c-0.526,0-0.964,0.204-1.312,0.613S311.658,259.369,311.658,260.202z"/>
			<path style="fill:#FFFFFF;" d="M324.15,261.889l2.188,0.367c-0.281,0.802-0.726,1.413-1.332,1.832s-1.366,0.629-2.277,0.629
				c-1.442,0-2.511-0.472-3.203-1.414c-0.547-0.755-0.82-1.708-0.82-2.859c0-1.375,0.359-2.452,1.078-3.23s1.628-1.168,2.727-1.168
				c1.234,0,2.208,0.407,2.922,1.223s1.055,2.063,1.023,3.746h-5.5c0.016,0.651,0.192,1.157,0.531,1.52s0.761,0.543,1.266,0.543
				c0.344,0,0.633-0.094,0.867-0.281S324.03,262.306,324.15,261.889z M324.275,259.67c-0.016-0.636-0.18-1.118-0.492-1.449
				s-0.692-0.496-1.141-0.496c-0.479,0-0.875,0.175-1.188,0.523s-0.466,0.823-0.461,1.422H324.275z"/>
			<path style="fill:#FFFFFF;" d="M328.244,255.108v-2.031h2.195v2.031H328.244z M328.244,264.53v-8.297h2.195v8.297H328.244z"/>
			<path style="fill:#FFFFFF;" d="M340.236,264.53h-2.195v-4.234c0-0.896-0.047-1.476-0.141-1.738s-0.246-0.468-0.457-0.613
				s-0.465-0.219-0.762-0.219c-0.38,0-0.722,0.104-1.023,0.312s-0.509,0.484-0.621,0.828s-0.168,0.979-0.168,1.906v3.758h-2.195
				v-8.297h2.039v1.219c0.724-0.938,1.636-1.406,2.734-1.406c0.484,0,0.927,0.087,1.328,0.262s0.704,0.397,0.91,0.668
				s0.349,0.578,0.43,0.922s0.121,0.836,0.121,1.477V264.53z"/>
			<path style="fill:#FFFFFF;" d="M342.259,265.077l2.508,0.305c0.042,0.292,0.138,0.492,0.289,0.602
				c0.208,0.156,0.536,0.234,0.984,0.234c0.573,0,1.003-0.086,1.289-0.258c0.192-0.114,0.339-0.3,0.438-0.555
				c0.067-0.183,0.102-0.519,0.102-1.008v-1.211c-0.656,0.896-1.484,1.344-2.484,1.344c-1.114,0-1.997-0.472-2.648-1.414
				c-0.511-0.745-0.766-1.672-0.766-2.781c0-1.391,0.335-2.453,1.004-3.188s1.501-1.102,2.496-1.102c1.026,0,1.872,0.45,2.539,1.352
				v-1.164h2.055v7.445c0,0.979-0.081,1.711-0.242,2.195s-0.388,0.864-0.68,1.141s-0.681,0.492-1.168,0.648
				s-1.103,0.234-1.848,0.234c-1.406,0-2.403-0.241-2.992-0.723s-0.883-1.093-0.883-1.832
				C342.252,265.269,342.254,265.181,342.259,265.077z M344.22,260.209c0,0.88,0.171,1.524,0.512,1.934s0.762,0.613,1.262,0.613
				c0.536,0,0.989-0.21,1.359-0.629s0.555-1.04,0.555-1.863c0-0.859-0.177-1.497-0.531-1.914s-0.802-0.625-1.344-0.625
				c-0.526,0-0.96,0.204-1.301,0.613S344.22,259.371,344.22,260.209z"/>
			<path style="fill:#FFFFFF;" d="M309.478,281.53v-11.453h2.195v4.125c0.677-0.771,1.479-1.156,2.406-1.156
				c1.011,0,1.847,0.366,2.508,1.098s0.992,1.782,0.992,3.152c0,1.417-0.337,2.508-1.012,3.273s-1.493,1.148-2.457,1.148
				c-0.474,0-0.941-0.118-1.402-0.355s-0.858-0.587-1.191-1.051v1.219H309.478z M311.658,277.202c0,0.859,0.136,1.495,0.406,1.906
				c0.38,0.583,0.886,0.875,1.516,0.875c0.484,0,0.897-0.207,1.238-0.621s0.512-1.066,0.512-1.957c0-0.948-0.172-1.632-0.516-2.051
				s-0.784-0.629-1.32-0.629c-0.526,0-0.964,0.204-1.312,0.613S311.658,276.369,311.658,277.202z"/>
			<path style="fill:#FFFFFF;" d="M321.447,281.53h-2.195v-8.297h2.039v1.18c0.349-0.558,0.663-0.925,0.941-1.102
				s0.595-0.266,0.949-0.266c0.5,0,0.981,0.138,1.445,0.414l-0.68,1.914c-0.37-0.239-0.714-0.359-1.031-0.359
				c-0.308,0-0.567,0.085-0.781,0.254s-0.382,0.476-0.504,0.918s-0.184,1.37-0.184,2.781V281.53z"/>
			<path style="fill:#FFFFFF;" d="M325.064,277.264c0-0.729,0.18-1.435,0.539-2.117s0.868-1.203,1.527-1.562
				s1.395-0.539,2.207-0.539c1.255,0,2.284,0.407,3.086,1.223s1.203,1.845,1.203,3.09c0,1.255-0.405,2.296-1.215,3.121
				s-1.829,1.238-3.059,1.238c-0.761,0-1.485-0.172-2.176-0.516s-1.215-0.848-1.574-1.512S325.064,278.217,325.064,277.264z
				 M327.314,277.381c0,0.823,0.195,1.453,0.586,1.891s0.872,0.656,1.445,0.656s1.054-0.219,1.441-0.656s0.582-1.073,0.582-1.906
				c0-0.812-0.194-1.438-0.582-1.875s-0.868-0.656-1.441-0.656s-1.055,0.219-1.445,0.656S327.314,276.558,327.314,277.381z"/>
			<path style="fill:#FFFFFF;" d="M335.267,281.53v-11.453h2.195v6.078l2.57-2.922h2.703l-2.836,3.031l3.039,5.266h-2.367
				l-2.086-3.727l-1.023,1.07v2.656H335.267z"/>
			<path style="fill:#FFFFFF;" d="M349.048,278.889l2.188,0.367c-0.281,0.802-0.726,1.413-1.332,1.832s-1.366,0.629-2.277,0.629
				c-1.442,0-2.511-0.472-3.203-1.414c-0.547-0.755-0.82-1.708-0.82-2.859c0-1.375,0.359-2.452,1.078-3.23s1.628-1.168,2.727-1.168
				c1.234,0,2.208,0.407,2.922,1.223s1.055,2.063,1.023,3.746h-5.5c0.016,0.651,0.192,1.157,0.531,1.52s0.761,0.543,1.266,0.543
				c0.344,0,0.633-0.094,0.867-0.281S348.928,279.306,349.048,278.889z M349.173,276.67c-0.016-0.636-0.18-1.118-0.492-1.449
				s-0.692-0.496-1.141-0.496c-0.479,0-0.875,0.175-1.188,0.523s-0.466,0.823-0.461,1.422H349.173z"/>
			<path style="fill:#FFFFFF;" d="M360.689,281.53h-2.195v-4.234c0-0.896-0.047-1.476-0.141-1.738s-0.246-0.468-0.457-0.613
				s-0.465-0.219-0.762-0.219c-0.38,0-0.722,0.104-1.023,0.312s-0.509,0.484-0.621,0.828s-0.168,0.979-0.168,1.906v3.758h-2.195
				v-8.297h2.039v1.219c0.724-0.938,1.636-1.406,2.734-1.406c0.484,0,0.927,0.087,1.328,0.262s0.704,0.397,0.91,0.668
				s0.349,0.578,0.43,0.922s0.121,0.836,0.121,1.477V281.53z"/>
		</g>
	</g>
</g>
<g>
	<polygon points="128.321,331.349 31.58,331.349 31.58,266.651 96.981,266.651 160.963,188.838 105.489,266.651 128.321,266.651 	
		"/>
	<g>
		<g>
			<path style="fill:#FFFFFF;" d="M39.386,285.465v-11.453h7.852v1.938h-5.539v2.711h4.781v1.938h-4.781v4.867H39.386z"/>
			<path style="fill:#FFFFFF;" d="M49.128,276.043v-2.031h2.195v2.031H49.128z M49.128,285.465v-8.297h2.195v8.297H49.128z"/>
			<path style="fill:#FFFFFF;" d="M55.675,285.465H53.48v-8.297h2.039v1.18c0.349-0.558,0.663-0.925,0.941-1.102
				s0.595-0.266,0.949-0.266c0.5,0,0.981,0.138,1.445,0.414l-0.68,1.914c-0.37-0.239-0.714-0.359-1.031-0.359
				c-0.308,0-0.567,0.085-0.781,0.254s-0.382,0.476-0.504,0.918s-0.184,1.37-0.184,2.781V285.465z"/>
			<path style="fill:#FFFFFF;" d="M59.027,283.098l2.203-0.336c0.094,0.427,0.284,0.751,0.57,0.973s0.688,0.332,1.203,0.332
				c0.567,0,0.995-0.104,1.281-0.312c0.192-0.146,0.289-0.341,0.289-0.586c0-0.167-0.052-0.305-0.156-0.414
				c-0.109-0.104-0.354-0.2-0.734-0.289c-1.771-0.391-2.894-0.747-3.367-1.07c-0.656-0.448-0.984-1.07-0.984-1.867
				c0-0.719,0.284-1.323,0.852-1.812s1.448-0.734,2.641-0.734c1.136,0,1.979,0.185,2.531,0.555s0.933,0.917,1.141,1.641l-2.07,0.383
				c-0.089-0.323-0.257-0.57-0.504-0.742c-0.247-0.172-0.601-0.258-1.059-0.258c-0.578,0-0.992,0.081-1.242,0.242
				c-0.167,0.114-0.25,0.263-0.25,0.445c0,0.156,0.073,0.289,0.219,0.398c0.198,0.146,0.882,0.352,2.051,0.617
				c1.169,0.266,1.985,0.591,2.449,0.977c0.458,0.391,0.688,0.935,0.688,1.633c0,0.761-0.317,1.414-0.953,1.961
				s-1.575,0.82-2.82,0.82c-1.13,0-2.024-0.229-2.684-0.688S59.23,283.884,59.027,283.098z"/>
			<path style="fill:#FFFFFF;" d="M72.503,277.168v1.75h-1.5v3.344c0,0.677,0.015,1.071,0.043,1.184s0.094,0.204,0.195,0.277
				s0.226,0.109,0.371,0.109c0.203,0,0.497-0.07,0.883-0.211l0.188,1.703c-0.511,0.219-1.089,0.328-1.734,0.328
				c-0.396,0-0.753-0.066-1.07-0.199s-0.551-0.305-0.699-0.516s-0.251-0.496-0.309-0.855c-0.047-0.255-0.07-0.771-0.07-1.547v-3.617
				h-1.008v-1.75H68.8v-1.648l2.203-1.281v2.93H72.503z"/>
			<path style="fill:#FFFFFF;" d="M77.511,277.168h1.219v-0.625c0-0.698,0.074-1.219,0.223-1.562s0.422-0.624,0.82-0.84
				s0.902-0.324,1.512-0.324c0.625,0,1.237,0.094,1.836,0.281l-0.297,1.531c-0.349-0.083-0.685-0.125-1.008-0.125
				c-0.317,0-0.546,0.074-0.684,0.223s-0.207,0.434-0.207,0.855v0.586h1.641v1.727h-1.641v6.57H78.73v-6.57h-1.219V277.168z"/>
			<path style="fill:#FFFFFF;" d="M83.8,276.043v-2.031h2.195v2.031H83.8z M83.8,285.465v-8.297h2.195v8.297H83.8z"/>
			<path style="fill:#FFFFFF;" d="M90.347,285.465h-2.195v-8.297h2.039v1.18c0.349-0.558,0.663-0.925,0.941-1.102
				s0.595-0.266,0.949-0.266c0.5,0,0.981,0.138,1.445,0.414l-0.68,1.914c-0.37-0.239-0.714-0.359-1.031-0.359
				c-0.308,0-0.567,0.085-0.781,0.254s-0.382,0.476-0.504,0.918s-0.184,1.37-0.184,2.781V285.465z"/>
			<path style="fill:#FFFFFF;" d="M99.277,282.825l2.188,0.367c-0.281,0.802-0.726,1.413-1.332,1.832s-1.366,0.629-2.277,0.629
				c-1.442,0-2.511-0.472-3.203-1.414c-0.547-0.755-0.82-1.708-0.82-2.859c0-1.375,0.359-2.452,1.078-3.23s1.628-1.168,2.727-1.168
				c1.234,0,2.208,0.407,2.922,1.223s1.055,2.063,1.023,3.746h-5.5c0.016,0.651,0.192,1.157,0.531,1.52s0.761,0.543,1.266,0.543
				c0.344,0,0.633-0.094,0.867-0.281S99.157,283.242,99.277,282.825z M99.402,280.606c-0.016-0.636-0.18-1.118-0.492-1.449
				s-0.692-0.496-1.141-0.496c-0.479,0-0.875,0.175-1.188,0.523s-0.466,0.823-0.461,1.422H99.402z"/>
			<path style="fill:#FFFFFF;" d="M109.457,279.7l-1.992-0.359c0.224-0.802,0.609-1.396,1.156-1.781s1.359-0.578,2.438-0.578
				c0.979,0,1.708,0.116,2.188,0.348s0.816,0.526,1.012,0.883s0.293,1.012,0.293,1.965l-0.023,2.562
				c0,0.729,0.035,1.267,0.105,1.613s0.202,0.718,0.395,1.113h-2.172c-0.058-0.146-0.128-0.362-0.211-0.648
				c-0.036-0.13-0.062-0.216-0.078-0.258c-0.375,0.364-0.776,0.638-1.203,0.82s-0.883,0.273-1.367,0.273
				c-0.854,0-1.527-0.231-2.02-0.695s-0.738-1.05-0.738-1.758c0-0.469,0.112-0.887,0.336-1.254s0.538-0.648,0.941-0.844
				s0.985-0.366,1.746-0.512c1.026-0.192,1.737-0.372,2.133-0.539v-0.219c0-0.422-0.104-0.723-0.312-0.902s-0.602-0.27-1.18-0.27
				c-0.391,0-0.695,0.077-0.914,0.23S109.592,279.314,109.457,279.7z M112.394,281.481c-0.281,0.094-0.727,0.206-1.336,0.336
				s-1.008,0.258-1.195,0.383c-0.286,0.203-0.43,0.461-0.43,0.773c0,0.308,0.114,0.573,0.344,0.797s0.521,0.336,0.875,0.336
				c0.396,0,0.773-0.13,1.133-0.391c0.266-0.198,0.44-0.44,0.523-0.727c0.058-0.188,0.086-0.544,0.086-1.07V281.481z"/>
			<path style="fill:#FFFFFF;" d="M120.519,277.168v1.75h-1.5v3.344c0,0.677,0.015,1.071,0.043,1.184s0.094,0.204,0.195,0.277
				s0.226,0.109,0.371,0.109c0.203,0,0.497-0.07,0.883-0.211l0.188,1.703c-0.511,0.219-1.089,0.328-1.734,0.328
				c-0.396,0-0.753-0.066-1.07-0.199s-0.551-0.305-0.699-0.516s-0.251-0.496-0.309-0.855c-0.047-0.255-0.07-0.771-0.07-1.547v-3.617
				h-1.008v-1.75h1.008v-1.648l2.203-1.281v2.93H120.519z"/>
			<path style="fill:#FFFFFF;" d="M38.394,295.168h1.219v-0.625c0-0.698,0.074-1.219,0.223-1.562s0.422-0.624,0.82-0.84
				s0.902-0.324,1.512-0.324c0.625,0,1.237,0.094,1.836,0.281l-0.297,1.531c-0.349-0.083-0.685-0.125-1.008-0.125
				c-0.317,0-0.546,0.074-0.684,0.223s-0.207,0.434-0.207,0.855v0.586h1.641v1.727h-1.641v6.57h-2.195v-6.57h-1.219V295.168z"/>
			<path style="fill:#FFFFFF;" d="M50.144,303.465v-1.242c-0.302,0.442-0.699,0.792-1.191,1.047s-1.012,0.383-1.559,0.383
				c-0.558,0-1.058-0.122-1.5-0.367s-0.763-0.589-0.961-1.031s-0.297-1.055-0.297-1.836v-5.25h2.195v3.812
				c0,1.167,0.04,1.882,0.121,2.145s0.228,0.472,0.441,0.625s0.484,0.23,0.812,0.23c0.375,0,0.711-0.103,1.008-0.309
				s0.5-0.461,0.609-0.766s0.164-1.051,0.164-2.238v-3.5h2.195v8.297H50.144z"/>
			<path style="fill:#FFFFFF;" d="M56.558,303.465h-2.195v-8.297h2.039v1.18c0.349-0.558,0.663-0.925,0.941-1.102
				s0.595-0.266,0.949-0.266c0.5,0,0.981,0.138,1.445,0.414l-0.68,1.914c-0.37-0.239-0.714-0.359-1.031-0.359
				c-0.308,0-0.567,0.085-0.781,0.254s-0.382,0.476-0.504,0.918s-0.184,1.37-0.184,2.781V303.465z"/>
			<path style="fill:#FFFFFF;" d="M68.23,303.465h-2.195v-4.234c0-0.896-0.047-1.476-0.141-1.738s-0.246-0.468-0.457-0.613
				s-0.465-0.219-0.762-0.219c-0.38,0-0.722,0.104-1.023,0.312s-0.509,0.484-0.621,0.828s-0.168,0.979-0.168,1.906v3.758h-2.195
				v-8.297h2.039v1.219c0.724-0.938,1.636-1.406,2.734-1.406c0.484,0,0.927,0.087,1.328,0.262s0.704,0.397,0.91,0.668
				s0.349,0.578,0.43,0.922s0.121,0.836,0.121,1.477V303.465z"/>
			<path style="fill:#FFFFFF;" d="M70.457,294.043v-2.031h2.195v2.031H70.457z M70.457,303.465v-8.297h2.195v8.297H70.457z"/>
			<path style="fill:#FFFFFF;" d="M78.707,295.168v1.75h-1.5v3.344c0,0.677,0.015,1.071,0.043,1.184s0.094,0.204,0.195,0.277
				s0.226,0.109,0.371,0.109c0.203,0,0.497-0.07,0.883-0.211l0.188,1.703c-0.511,0.219-1.089,0.328-1.734,0.328
				c-0.396,0-0.753-0.066-1.07-0.199s-0.551-0.305-0.699-0.516s-0.251-0.496-0.309-0.855c-0.047-0.255-0.07-0.771-0.07-1.547v-3.617
				h-1.008v-1.75h1.008v-1.648l2.203-1.281v2.93H78.707z"/>
			<path style="fill:#FFFFFF;" d="M85.691,303.465v-1.242c-0.302,0.442-0.699,0.792-1.191,1.047s-1.012,0.383-1.559,0.383
				c-0.558,0-1.058-0.122-1.5-0.367s-0.763-0.589-0.961-1.031s-0.297-1.055-0.297-1.836v-5.25h2.195v3.812
				c0,1.167,0.04,1.882,0.121,2.145s0.228,0.472,0.441,0.625s0.484,0.23,0.812,0.23c0.375,0,0.711-0.103,1.008-0.309
				s0.5-0.461,0.609-0.766s0.164-1.051,0.164-2.238v-3.5h2.195v8.297H85.691z"/>
			<path style="fill:#FFFFFF;" d="M92.105,303.465H89.91v-8.297h2.039v1.18c0.349-0.558,0.663-0.925,0.941-1.102
				s0.595-0.266,0.949-0.266c0.5,0,0.981,0.138,1.445,0.414l-0.68,1.914c-0.37-0.239-0.714-0.359-1.031-0.359
				c-0.308,0-0.567,0.085-0.781,0.254s-0.382,0.476-0.504,0.918s-0.184,1.37-0.184,2.781V303.465z"/>
			<path style="fill:#FFFFFF;" d="M101.035,300.825l2.188,0.367c-0.281,0.802-0.726,1.413-1.332,1.832s-1.366,0.629-2.277,0.629
				c-1.442,0-2.511-0.472-3.203-1.414c-0.547-0.755-0.82-1.708-0.82-2.859c0-1.375,0.359-2.452,1.078-3.23s1.628-1.168,2.727-1.168
				c1.234,0,2.208,0.407,2.922,1.223s1.055,2.063,1.023,3.746h-5.5c0.016,0.651,0.192,1.157,0.531,1.52s0.761,0.543,1.266,0.543
				c0.344,0,0.633-0.094,0.867-0.281S100.915,301.242,101.035,300.825z M101.16,298.606c-0.016-0.636-0.18-1.118-0.492-1.449
				s-0.692-0.496-1.141-0.496c-0.479,0-0.875,0.175-1.188,0.523s-0.466,0.823-0.461,1.422H101.16z"/>
			<path style="fill:#FFFFFF;" d="M38.582,319.098l2.203-0.336c0.094,0.427,0.284,0.751,0.57,0.973s0.688,0.332,1.203,0.332
				c0.567,0,0.995-0.104,1.281-0.312c0.192-0.146,0.289-0.341,0.289-0.586c0-0.167-0.052-0.305-0.156-0.414
				c-0.109-0.104-0.354-0.2-0.734-0.289c-1.771-0.391-2.894-0.747-3.367-1.07c-0.656-0.448-0.984-1.07-0.984-1.867
				c0-0.719,0.284-1.323,0.852-1.812s1.448-0.734,2.641-0.734c1.136,0,1.979,0.185,2.531,0.555s0.933,0.917,1.141,1.641l-2.07,0.383
				c-0.089-0.323-0.257-0.57-0.504-0.742s-0.601-0.258-1.059-0.258c-0.578,0-0.992,0.081-1.242,0.242
				c-0.167,0.114-0.25,0.263-0.25,0.445c0,0.156,0.073,0.289,0.219,0.398c0.198,0.146,0.882,0.352,2.051,0.617
				s1.985,0.591,2.449,0.977c0.458,0.391,0.688,0.935,0.688,1.633c0,0.761-0.317,1.414-0.953,1.961s-1.575,0.82-2.82,0.82
				c-1.13,0-2.024-0.229-2.684-0.688S38.785,319.884,38.582,319.098z"/>
			<path style="fill:#FFFFFF;" d="M52.058,313.168v1.75h-1.5v3.344c0,0.677,0.015,1.071,0.043,1.184s0.094,0.204,0.195,0.277
				s0.226,0.109,0.371,0.109c0.203,0,0.497-0.07,0.883-0.211l0.188,1.703c-0.511,0.219-1.089,0.328-1.734,0.328
				c-0.396,0-0.753-0.066-1.07-0.199s-0.551-0.305-0.699-0.516s-0.251-0.496-0.309-0.855c-0.047-0.255-0.07-0.771-0.07-1.547v-3.617
				h-1.008v-1.75h1.008v-1.648l2.203-1.281v2.93H52.058z"/>
			<path style="fill:#FFFFFF;" d="M53.074,317.2c0-0.729,0.18-1.435,0.539-2.117s0.868-1.203,1.527-1.562s1.395-0.539,2.207-0.539
				c1.255,0,2.284,0.407,3.086,1.223s1.203,1.845,1.203,3.09c0,1.255-0.405,2.296-1.215,3.121s-1.829,1.238-3.059,1.238
				c-0.761,0-1.485-0.172-2.176-0.516s-1.215-0.848-1.574-1.512S53.074,318.153,53.074,317.2z M55.324,317.317
				c0,0.823,0.195,1.453,0.586,1.891s0.872,0.656,1.445,0.656s1.054-0.219,1.441-0.656s0.582-1.073,0.582-1.906
				c0-0.812-0.194-1.438-0.582-1.875s-0.868-0.656-1.441-0.656s-1.055,0.219-1.445,0.656S55.324,316.494,55.324,317.317z"/>
			<path style="fill:#FFFFFF;" d="M65.457,321.465h-2.195v-8.297H65.3v1.18c0.349-0.558,0.663-0.925,0.941-1.102
				s0.595-0.266,0.949-0.266c0.5,0,0.981,0.138,1.445,0.414l-0.68,1.914c-0.37-0.239-0.714-0.359-1.031-0.359
				c-0.308,0-0.567,0.085-0.781,0.254s-0.382,0.476-0.504,0.918s-0.184,1.37-0.184,2.781V321.465z"/>
			<path style="fill:#FFFFFF;" d="M74.386,318.825l2.188,0.367c-0.281,0.802-0.726,1.413-1.332,1.832s-1.366,0.629-2.277,0.629
				c-1.442,0-2.511-0.472-3.203-1.414c-0.547-0.755-0.82-1.708-0.82-2.859c0-1.375,0.359-2.452,1.078-3.23s1.628-1.168,2.727-1.168
				c1.234,0,2.208,0.407,2.922,1.223s1.055,2.063,1.023,3.746h-5.5c0.016,0.651,0.192,1.157,0.531,1.52s0.761,0.543,1.266,0.543
				c0.344,0,0.633-0.094,0.867-0.281S74.266,319.242,74.386,318.825z M74.511,316.606c-0.016-0.636-0.18-1.118-0.492-1.449
				s-0.692-0.496-1.141-0.496c-0.479,0-0.875,0.175-1.188,0.523s-0.466,0.823-0.461,1.422H74.511z"/>
		</g>
	</g>
</g>
<rect x="233.848" y="424.263" style="fill:none;stroke:#D72132;stroke-width:3;" width="9.111" height="81.094"/>
<g>
	<polygon points="283.653,584.92 217.988,584.92 217.988,522.258 249.32,522.258 237.987,494.992 255.487,522.258 283.653,522.258 	
		"/>
	<g>
		<g>
			<path style="fill:#FFFFFF;" d="M227.849,535.916c0-1.167,0.175-2.146,0.523-2.938c0.261-0.583,0.616-1.106,1.066-1.57
				s0.944-0.808,1.48-1.031c0.714-0.302,1.536-0.453,2.469-0.453c1.688,0,3.038,0.523,4.051,1.57s1.52,2.503,1.52,4.367
				c0,1.849-0.503,3.296-1.508,4.34s-2.349,1.566-4.031,1.566c-1.703,0-3.058-0.52-4.062-1.559S227.849,537.739,227.849,535.916z
				 M230.232,535.837c0,1.297,0.3,2.28,0.898,2.949s1.359,1.004,2.281,1.004s1.679-0.332,2.27-0.996s0.887-1.66,0.887-2.988
				c0-1.312-0.288-2.292-0.863-2.938s-1.34-0.969-2.293-0.969s-1.722,0.327-2.305,0.98S230.232,534.52,230.232,535.837z"/>
			<path style="fill:#FFFFFF;" d="M244.552,533.275v1.75h-1.5v3.344c0,0.677,0.015,1.071,0.043,1.184s0.094,0.204,0.195,0.277
				s0.226,0.109,0.371,0.109c0.203,0,0.497-0.07,0.883-0.211l0.188,1.703c-0.511,0.219-1.089,0.328-1.734,0.328
				c-0.396,0-0.753-0.066-1.07-0.199s-0.551-0.305-0.699-0.516s-0.251-0.496-0.309-0.855c-0.047-0.255-0.07-0.771-0.07-1.547v-3.617
				h-1.008v-1.75h1.008v-1.648l2.203-1.281v2.93H244.552z"/>
			<path style="fill:#FFFFFF;" d="M248.263,530.119v4.211c0.708-0.828,1.555-1.242,2.539-1.242c0.505,0,0.961,0.094,1.367,0.281
				s0.712,0.427,0.918,0.719s0.347,0.614,0.422,0.969s0.113,0.903,0.113,1.648v4.867h-2.195v-4.383c0-0.87-0.042-1.422-0.125-1.656
				s-0.23-0.421-0.441-0.559s-0.476-0.207-0.793-0.207c-0.364,0-0.69,0.089-0.977,0.266s-0.496,0.444-0.629,0.801
				s-0.199,0.884-0.199,1.582v4.156h-2.195v-11.453H248.263z"/>
			<path style="fill:#FFFFFF;" d="M260.654,538.931l2.188,0.367c-0.281,0.802-0.726,1.413-1.332,1.832s-1.366,0.629-2.277,0.629
				c-1.442,0-2.511-0.472-3.203-1.414c-0.547-0.755-0.82-1.708-0.82-2.859c0-1.375,0.359-2.452,1.078-3.23
				c0.719-0.778,1.628-1.168,2.727-1.168c1.234,0,2.208,0.407,2.922,1.223s1.055,2.063,1.023,3.746h-5.5
				c0.016,0.651,0.192,1.157,0.531,1.52s0.761,0.543,1.266,0.543c0.344,0,0.633-0.094,0.867-0.281S260.534,539.348,260.654,538.931z
				 M260.779,536.712c-0.016-0.636-0.18-1.118-0.492-1.449s-0.692-0.496-1.141-0.496c-0.479,0-0.875,0.175-1.188,0.523
				s-0.466,0.823-0.461,1.422H260.779z"/>
			<path style="fill:#FFFFFF;" d="M266.849,541.572h-2.195v-8.297h2.039v1.18c0.349-0.558,0.663-0.925,0.941-1.102
				s0.595-0.266,0.949-0.266c0.5,0,0.981,0.138,1.445,0.414l-0.68,1.914c-0.37-0.239-0.714-0.359-1.031-0.359
				c-0.308,0-0.567,0.085-0.781,0.254s-0.382,0.476-0.504,0.918s-0.184,1.37-0.184,2.781V541.572z"/>
			<path style="fill:#FFFFFF;" d="M228.334,558.572v-11.453h7.852v1.938h-5.539v2.711h4.781v1.938h-4.781v4.867H228.334z"/>
			<path style="fill:#FFFFFF;" d="M240.177,558.572h-2.195v-8.297h2.039v1.18c0.349-0.558,0.663-0.925,0.941-1.102
				s0.595-0.266,0.949-0.266c0.5,0,0.981,0.138,1.445,0.414l-0.68,1.914c-0.37-0.239-0.714-0.359-1.031-0.359
				c-0.308,0-0.567,0.085-0.781,0.254s-0.382,0.476-0.504,0.918s-0.184,1.37-0.184,2.781V558.572z"/>
			<path style="fill:#FFFFFF;" d="M244.302,549.15v-2.031h2.195v2.031H244.302z M244.302,558.572v-8.297h2.195v8.297H244.302z"/>
			<path style="fill:#FFFFFF;" d="M256.357,558.572h-2.039v-1.219c-0.339,0.474-0.738,0.827-1.199,1.059s-0.926,0.348-1.395,0.348
				c-0.953,0-1.77-0.384-2.449-1.152s-1.02-1.84-1.02-3.215c0-1.406,0.331-2.476,0.992-3.207s1.497-1.098,2.508-1.098
				c0.927,0,1.729,0.386,2.406,1.156v-4.125h2.195V558.572z M250.498,554.244c0,0.886,0.122,1.526,0.367,1.922
				c0.354,0.573,0.849,0.859,1.484,0.859c0.505,0,0.935-0.215,1.289-0.645s0.531-1.071,0.531-1.926c0-0.953-0.172-1.64-0.516-2.059
				s-0.784-0.629-1.32-0.629c-0.521,0-0.957,0.207-1.309,0.621S250.498,553.42,250.498,554.244z"/>
			<path style="fill:#FFFFFF;" d="M260.162,552.806l-1.992-0.359c0.224-0.802,0.609-1.396,1.156-1.781s1.359-0.578,2.438-0.578
				c0.979,0,1.708,0.116,2.188,0.348s0.816,0.526,1.012,0.883s0.293,1.012,0.293,1.965l-0.023,2.562
				c0,0.729,0.035,1.267,0.105,1.613s0.202,0.718,0.395,1.113h-2.172c-0.058-0.146-0.128-0.362-0.211-0.648
				c-0.036-0.13-0.062-0.216-0.078-0.258c-0.375,0.364-0.776,0.638-1.203,0.82s-0.883,0.273-1.367,0.273
				c-0.854,0-1.527-0.231-2.02-0.695s-0.738-1.05-0.738-1.758c0-0.469,0.112-0.887,0.336-1.254s0.538-0.648,0.941-0.844
				s0.985-0.366,1.746-0.512c1.026-0.192,1.737-0.372,2.133-0.539v-0.219c0-0.422-0.104-0.723-0.312-0.902s-0.602-0.27-1.18-0.27
				c-0.391,0-0.695,0.077-0.914,0.23S260.297,552.42,260.162,552.806z M263.099,554.587c-0.281,0.094-0.727,0.206-1.336,0.336
				s-1.008,0.258-1.195,0.383c-0.286,0.203-0.43,0.461-0.43,0.773c0,0.308,0.114,0.573,0.344,0.797s0.521,0.336,0.875,0.336
				c0.396,0,0.773-0.13,1.133-0.391c0.266-0.198,0.44-0.44,0.523-0.727c0.058-0.188,0.086-0.544,0.086-1.07V554.587z"/>
			<path style="fill:#FFFFFF;" d="M266.38,550.275h2.336l1.984,5.891l1.938-5.891h2.273l-2.93,7.984l-0.523,1.445
				c-0.192,0.484-0.376,0.854-0.551,1.109s-0.375,0.462-0.602,0.621s-0.505,0.282-0.836,0.371s-0.704,0.133-1.121,0.133
				c-0.422,0-0.836-0.044-1.242-0.133l-0.195-1.719c0.344,0.067,0.653,0.102,0.93,0.102c0.511,0,0.888-0.149,1.133-0.449
				s0.433-0.681,0.562-1.145L266.38,550.275z"/>
			<path style="fill:#FFFFFF;" d="M227.341,567.275h1.219v-0.625c0-0.698,0.074-1.219,0.223-1.562s0.422-0.624,0.82-0.84
				s0.902-0.324,1.512-0.324c0.625,0,1.237,0.094,1.836,0.281l-0.297,1.531c-0.349-0.083-0.685-0.125-1.008-0.125
				c-0.317,0-0.546,0.074-0.684,0.223s-0.207,0.434-0.207,0.855v0.586h1.641v1.727h-1.641v6.57h-2.195v-6.57h-1.219V567.275z"/>
			<path style="fill:#FFFFFF;" d="M233.63,566.15v-2.031h2.195v2.031H233.63z M233.63,575.572v-8.297h2.195v8.297H233.63z"/>
			<path style="fill:#FFFFFF;" d="M240.177,575.572h-2.195v-8.297h2.039v1.18c0.349-0.558,0.663-0.925,0.941-1.102
				s0.595-0.266,0.949-0.266c0.5,0,0.981,0.138,1.445,0.414l-0.68,1.914c-0.37-0.239-0.714-0.359-1.031-0.359
				c-0.308,0-0.567,0.085-0.781,0.254s-0.382,0.476-0.504,0.918s-0.184,1.37-0.184,2.781V575.572z"/>
			<path style="fill:#FFFFFF;" d="M249.107,572.931l2.188,0.367c-0.281,0.802-0.726,1.413-1.332,1.832s-1.366,0.629-2.277,0.629
				c-1.442,0-2.511-0.472-3.203-1.414c-0.547-0.755-0.82-1.708-0.82-2.859c0-1.375,0.359-2.452,1.078-3.23s1.628-1.168,2.727-1.168
				c1.234,0,2.208,0.407,2.922,1.223s1.055,2.063,1.023,3.746h-5.5c0.016,0.651,0.192,1.157,0.531,1.52s0.761,0.543,1.266,0.543
				c0.344,0,0.633-0.094,0.867-0.281S248.987,573.348,249.107,572.931z M249.232,570.712c-0.016-0.636-0.18-1.118-0.492-1.449
				s-0.692-0.496-1.141-0.496c-0.479,0-0.875,0.175-1.188,0.523s-0.466,0.823-0.461,1.422H249.232z"/>
			<path style="fill:#FFFFFF;" d="M252.427,573.205l2.203-0.336c0.094,0.427,0.284,0.751,0.57,0.973s0.688,0.332,1.203,0.332
				c0.567,0,0.995-0.104,1.281-0.312c0.192-0.146,0.289-0.341,0.289-0.586c0-0.167-0.052-0.305-0.156-0.414
				c-0.109-0.104-0.354-0.2-0.734-0.289c-1.771-0.391-2.894-0.747-3.367-1.07c-0.656-0.448-0.984-1.07-0.984-1.867
				c0-0.719,0.284-1.323,0.852-1.812s1.448-0.734,2.641-0.734c1.136,0,1.979,0.185,2.531,0.555s0.933,0.917,1.141,1.641l-2.07,0.383
				c-0.089-0.323-0.257-0.57-0.504-0.742s-0.601-0.258-1.059-0.258c-0.578,0-0.992,0.081-1.242,0.242
				c-0.167,0.114-0.25,0.263-0.25,0.445c0,0.156,0.073,0.289,0.219,0.398c0.198,0.146,0.882,0.352,2.051,0.617
				c1.169,0.266,1.985,0.591,2.449,0.977c0.458,0.391,0.688,0.935,0.688,1.633c0,0.761-0.317,1.414-0.953,1.961
				s-1.575,0.82-2.82,0.82c-1.13,0-2.024-0.229-2.684-0.688S252.63,573.991,252.427,573.205z"/>
		</g>
	</g>
</g>
<circle style="fill:none;stroke:#D72132;stroke-width:3;" cx="266.82" cy="184.73" r="7.277"/>
<circle style="fill:none;stroke:#D72132;stroke-width:3;" cx="160.963" cy="188.804" r="7.277"/>
</svg>
