<?xml version="1.0" encoding="utf-8"?>
<!-- Generator: Adobe Illustrator 22.0.1, SVG Export Plug-In . SVG Version: 6.00 Build 0)  -->
<svg version="1.1" id="neighborhood" xmlns="http://www.w3.org/2000/svg" xmlns:xlink="http://www.w3.org/1999/xlink" x="0px"
	 y="0px" viewBox="0 0 400 602.122" style="enable-background:new 0 0 400 602.122;" xml:space="preserve">
<circle style="fill:none;stroke:#D72132;stroke-width:3;" cx="104.014" cy="231.326" r="7.277"/>
<g>
	<polygon points="199.839,269.601 146.308,269.601 102.168,229.326 135.979,269.601 122.837,269.601 122.837,336.676 
		199.839,336.676 	"/>
	<g>
		<rect x="131.308" y="278.277" style="fill:none;" width="66" height="52.399"/>
		<path style="fill:#FFFFFF;" d="M132.479,289.733V278.28h4.867c1.224,0,2.113,0.103,2.668,0.309s0.999,0.571,1.332,1.098
			s0.5,1.128,0.5,1.805c0,0.859-0.253,1.569-0.758,2.129s-1.261,0.913-2.266,1.059c0.5,0.292,0.913,0.612,1.238,0.961
			s0.765,0.969,1.316,1.859l1.398,2.234h-2.766l-1.672-2.492c-0.594-0.891-1-1.452-1.219-1.684s-0.45-0.391-0.695-0.477
			s-0.633-0.129-1.164-0.129h-0.469v4.781H132.479z M134.792,283.124h1.711c1.109,0,1.802-0.047,2.078-0.141
			s0.492-0.255,0.648-0.484s0.234-0.516,0.234-0.859c0-0.386-0.103-0.696-0.309-0.934s-0.496-0.387-0.871-0.449
			c-0.188-0.026-0.75-0.039-1.688-0.039h-1.805V283.124z"/>
		<path style="fill:#FFFFFF;" d="M145.651,283.967l-1.992-0.359c0.224-0.802,0.609-1.396,1.156-1.781s1.359-0.578,2.438-0.578
			c0.979,0,1.708,0.116,2.188,0.348s0.816,0.526,1.012,0.883s0.293,1.012,0.293,1.965l-0.023,2.562c0,0.729,0.035,1.267,0.105,1.613
			s0.202,0.718,0.395,1.113h-2.172c-0.058-0.146-0.128-0.362-0.211-0.648c-0.036-0.13-0.062-0.216-0.078-0.258
			c-0.375,0.364-0.776,0.638-1.203,0.82s-0.883,0.273-1.367,0.273c-0.854,0-1.527-0.231-2.02-0.695s-0.738-1.05-0.738-1.758
			c0-0.469,0.112-0.887,0.336-1.254s0.538-0.648,0.941-0.844s0.985-0.366,1.746-0.512c1.026-0.192,1.737-0.372,2.133-0.539V284.1
			c0-0.422-0.104-0.723-0.312-0.902s-0.602-0.27-1.18-0.27c-0.391,0-0.695,0.077-0.914,0.23S145.787,283.582,145.651,283.967z
			 M148.588,285.749c-0.281,0.094-0.727,0.206-1.336,0.336s-1.008,0.258-1.195,0.383c-0.286,0.203-0.43,0.461-0.43,0.773
			c0,0.308,0.114,0.573,0.344,0.797s0.521,0.336,0.875,0.336c0.396,0,0.773-0.13,1.133-0.391c0.266-0.198,0.44-0.44,0.523-0.727
			c0.058-0.188,0.086-0.544,0.086-1.07V285.749z"/>
		<path style="fill:#FFFFFF;" d="M160.456,289.733h-2.195v-4.234c0-0.896-0.047-1.476-0.141-1.738s-0.246-0.468-0.457-0.613
			s-0.465-0.219-0.762-0.219c-0.38,0-0.722,0.104-1.023,0.312s-0.509,0.484-0.621,0.828s-0.168,0.979-0.168,1.906v3.758h-2.195
			v-8.297h2.039v1.219c0.724-0.938,1.636-1.406,2.734-1.406c0.484,0,0.927,0.087,1.328,0.262s0.704,0.397,0.91,0.668
			s0.349,0.578,0.43,0.922s0.121,0.836,0.121,1.477V289.733z"/>
		<path style="fill:#FFFFFF;" d="M170.292,289.733h-2.039v-1.219c-0.339,0.474-0.738,0.827-1.199,1.059s-0.926,0.348-1.395,0.348
			c-0.953,0-1.77-0.384-2.449-1.152s-1.02-1.84-1.02-3.215c0-1.406,0.331-2.476,0.992-3.207s1.497-1.098,2.508-1.098
			c0.927,0,1.729,0.386,2.406,1.156v-4.125h2.195V289.733z M164.432,285.405c0,0.886,0.122,1.526,0.367,1.922
			c0.354,0.573,0.849,0.859,1.484,0.859c0.505,0,0.935-0.215,1.289-0.645s0.531-1.071,0.531-1.926c0-0.953-0.172-1.64-0.516-2.059
			s-0.784-0.629-1.32-0.629c-0.521,0-0.957,0.207-1.309,0.621S164.432,284.582,164.432,285.405z"/>
		<path style="fill:#FFFFFF;" d="M174.096,283.967l-1.992-0.359c0.224-0.802,0.609-1.396,1.156-1.781s1.359-0.578,2.438-0.578
			c0.979,0,1.708,0.116,2.188,0.348s0.816,0.526,1.012,0.883s0.293,1.012,0.293,1.965l-0.023,2.562c0,0.729,0.035,1.267,0.105,1.613
			s0.202,0.718,0.395,1.113h-2.172c-0.058-0.146-0.128-0.362-0.211-0.648c-0.036-0.13-0.062-0.216-0.078-0.258
			c-0.375,0.364-0.776,0.638-1.203,0.82s-0.883,0.273-1.367,0.273c-0.854,0-1.527-0.231-2.02-0.695s-0.738-1.05-0.738-1.758
			c0-0.469,0.112-0.887,0.336-1.254s0.538-0.648,0.941-0.844s0.985-0.366,1.746-0.512c1.026-0.192,1.737-0.372,2.133-0.539V284.1
			c0-0.422-0.104-0.723-0.312-0.902s-0.602-0.27-1.18-0.27c-0.391,0-0.695,0.077-0.914,0.23S174.232,283.582,174.096,283.967z
			 M177.034,285.749c-0.281,0.094-0.727,0.206-1.336,0.336s-1.008,0.258-1.195,0.383c-0.286,0.203-0.43,0.461-0.43,0.773
			c0,0.308,0.114,0.573,0.344,0.797s0.521,0.336,0.875,0.336c0.396,0,0.773-0.13,1.133-0.391c0.266-0.198,0.44-0.44,0.523-0.727
			c0.058-0.188,0.086-0.544,0.086-1.07V285.749z"/>
		<path style="fill:#FFFFFF;" d="M181.354,289.733V278.28h2.195v11.453H181.354z"/>
		<path style="fill:#FFFFFF;" d="M185.799,289.733V278.28h2.195v11.453H185.799z"/>
		<path style="fill:#FFFFFF;" d="M132.479,307.733V296.28h2.312v4.508h4.531v-4.508h2.312v11.453h-2.312v-5.008h-4.531v5.008
			H132.479z"/>
		<path style="fill:#FFFFFF;" d="M145.651,301.967l-1.992-0.359c0.224-0.802,0.609-1.396,1.156-1.781s1.359-0.578,2.438-0.578
			c0.979,0,1.708,0.116,2.188,0.348s0.816,0.526,1.012,0.883s0.293,1.012,0.293,1.965l-0.023,2.562c0,0.729,0.035,1.267,0.105,1.613
			s0.202,0.718,0.395,1.113h-2.172c-0.058-0.146-0.128-0.362-0.211-0.648c-0.036-0.13-0.062-0.216-0.078-0.258
			c-0.375,0.364-0.776,0.638-1.203,0.82s-0.883,0.273-1.367,0.273c-0.854,0-1.527-0.231-2.02-0.695s-0.738-1.05-0.738-1.758
			c0-0.469,0.112-0.887,0.336-1.254s0.538-0.648,0.941-0.844s0.985-0.366,1.746-0.512c1.026-0.192,1.737-0.372,2.133-0.539V302.1
			c0-0.422-0.104-0.723-0.312-0.902s-0.602-0.27-1.18-0.27c-0.391,0-0.695,0.077-0.914,0.23S145.787,301.582,145.651,301.967z
			 M148.588,303.749c-0.281,0.094-0.727,0.206-1.336,0.336s-1.008,0.258-1.195,0.383c-0.286,0.203-0.43,0.461-0.43,0.773
			c0,0.308,0.114,0.573,0.344,0.797s0.521,0.336,0.875,0.336c0.396,0,0.773-0.13,1.133-0.391c0.266-0.198,0.44-0.44,0.523-0.727
			c0.058-0.188,0.086-0.544,0.086-1.07V303.749z"/>
		<path style="fill:#FFFFFF;" d="M155.01,307.733h-2.195v-8.297h2.039v1.18c0.349-0.558,0.663-0.925,0.941-1.102
			s0.595-0.266,0.949-0.266c0.5,0,0.981,0.138,1.445,0.414l-0.68,1.914c-0.37-0.239-0.714-0.359-1.031-0.359
			c-0.308,0-0.567,0.085-0.781,0.254s-0.382,0.476-0.504,0.918s-0.184,1.37-0.184,2.781V307.733z"/>
		<path style="fill:#FFFFFF;" d="M161.237,307.733h-2.195v-8.297h2.039v1.18c0.349-0.558,0.663-0.925,0.941-1.102
			s0.595-0.266,0.949-0.266c0.5,0,0.981,0.138,1.445,0.414l-0.68,1.914c-0.37-0.239-0.714-0.359-1.031-0.359
			c-0.308,0-0.567,0.085-0.781,0.254s-0.382,0.476-0.504,0.918s-0.184,1.37-0.184,2.781V307.733z"/>
		<path style="fill:#FFFFFF;" d="M165.362,298.311v-2.031h2.195v2.031H165.362z M165.362,307.733v-8.297h2.195v8.297H165.362z"/>
		<path style="fill:#FFFFFF;" d="M169.034,305.366l2.203-0.336c0.094,0.427,0.284,0.751,0.57,0.973s0.688,0.332,1.203,0.332
			c0.567,0,0.995-0.104,1.281-0.312c0.192-0.146,0.289-0.341,0.289-0.586c0-0.167-0.052-0.305-0.156-0.414
			c-0.109-0.104-0.354-0.2-0.734-0.289c-1.771-0.391-2.894-0.747-3.367-1.07c-0.656-0.448-0.984-1.07-0.984-1.867
			c0-0.719,0.284-1.323,0.852-1.812s1.448-0.734,2.641-0.734c1.136,0,1.979,0.185,2.531,0.555s0.933,0.917,1.141,1.641l-2.07,0.383
			c-0.089-0.323-0.257-0.57-0.504-0.742s-0.601-0.258-1.059-0.258c-0.578,0-0.992,0.081-1.242,0.242
			c-0.167,0.114-0.25,0.263-0.25,0.445c0,0.156,0.073,0.289,0.219,0.398c0.198,0.146,0.882,0.352,2.051,0.617
			s1.985,0.591,2.449,0.977c0.458,0.391,0.688,0.935,0.688,1.633c0,0.761-0.317,1.414-0.953,1.961s-1.575,0.82-2.82,0.82
			c-1.13,0-2.024-0.229-2.684-0.688S169.237,306.152,169.034,305.366z"/>
		<path style="fill:#FFFFFF;" d="M132.456,325.733V314.28h2.195v11.453H132.456z"/>
		<path style="fill:#FFFFFF;" d="M136.393,321.467c0-0.729,0.18-1.435,0.539-2.117s0.868-1.203,1.527-1.562s1.395-0.539,2.207-0.539
			c1.255,0,2.284,0.407,3.086,1.223s1.203,1.845,1.203,3.09c0,1.255-0.405,2.296-1.215,3.121s-1.829,1.238-3.059,1.238
			c-0.761,0-1.485-0.172-2.176-0.516s-1.215-0.848-1.574-1.512S136.393,322.42,136.393,321.467z M138.643,321.584
			c0,0.823,0.195,1.453,0.586,1.891s0.872,0.656,1.445,0.656s1.054-0.219,1.441-0.656s0.582-1.073,0.582-1.906
			c0-0.812-0.194-1.438-0.582-1.875s-0.868-0.656-1.441-0.656s-1.055,0.219-1.445,0.656S138.643,320.761,138.643,321.584z"/>
		<path style="fill:#FFFFFF;" d="M153.909,319.889l-2.164,0.391c-0.073-0.433-0.238-0.758-0.496-0.977s-0.593-0.328-1.004-0.328
			c-0.547,0-0.983,0.188-1.309,0.566s-0.488,1.009-0.488,1.895c0,0.984,0.165,1.68,0.496,2.086s0.774,0.609,1.332,0.609
			c0.417,0,0.758-0.118,1.023-0.355s0.453-0.645,0.562-1.223l2.156,0.367c-0.224,0.989-0.653,1.737-1.289,2.242
			s-1.487,0.758-2.555,0.758c-1.214,0-2.181-0.383-2.902-1.148s-1.082-1.825-1.082-3.18c0-1.37,0.362-2.437,1.086-3.199
			s1.703-1.145,2.938-1.145c1.011,0,1.813,0.218,2.41,0.652S153.648,318.999,153.909,319.889z"/>
		<path style="fill:#FFFFFF;" d="M157.213,319.967l-1.992-0.359c0.224-0.802,0.609-1.396,1.156-1.781s1.359-0.578,2.438-0.578
			c0.979,0,1.708,0.116,2.188,0.348s0.816,0.526,1.012,0.883s0.293,1.012,0.293,1.965l-0.023,2.562c0,0.729,0.035,1.267,0.105,1.613
			s0.202,0.718,0.395,1.113h-2.172c-0.058-0.146-0.128-0.362-0.211-0.648c-0.036-0.13-0.062-0.216-0.078-0.258
			c-0.375,0.364-0.776,0.638-1.203,0.82s-0.883,0.273-1.367,0.273c-0.854,0-1.527-0.231-2.02-0.695s-0.738-1.05-0.738-1.758
			c0-0.469,0.112-0.887,0.336-1.254s0.538-0.648,0.941-0.844s0.985-0.366,1.746-0.512c1.026-0.192,1.737-0.372,2.133-0.539V320.1
			c0-0.422-0.104-0.723-0.312-0.902s-0.602-0.27-1.18-0.27c-0.391,0-0.695,0.077-0.914,0.23S157.349,319.582,157.213,319.967z
			 M160.151,321.749c-0.281,0.094-0.727,0.206-1.336,0.336s-1.008,0.258-1.195,0.383c-0.286,0.203-0.43,0.461-0.43,0.773
			c0,0.308,0.114,0.573,0.344,0.797s0.521,0.336,0.875,0.336c0.396,0,0.773-0.13,1.133-0.391c0.266-0.198,0.44-0.44,0.523-0.727
			c0.058-0.188,0.086-0.544,0.086-1.07V321.749z"/>
		<path style="fill:#FFFFFF;" d="M168.276,317.436v1.75h-1.5v3.344c0,0.677,0.015,1.071,0.043,1.184s0.094,0.204,0.195,0.277
			s0.226,0.109,0.371,0.109c0.203,0,0.497-0.07,0.883-0.211l0.188,1.703c-0.511,0.219-1.089,0.328-1.734,0.328
			c-0.396,0-0.753-0.066-1.07-0.199s-0.551-0.305-0.699-0.516s-0.251-0.496-0.309-0.855c-0.047-0.255-0.07-0.771-0.07-1.547v-3.617
			h-1.008v-1.75h1.008v-1.648l2.203-1.281v2.93H168.276z"/>
		<path style="fill:#FFFFFF;" d="M169.799,316.311v-2.031h2.195v2.031H169.799z M169.799,325.733v-8.297h2.195v8.297H169.799z"/>
		<path style="fill:#FFFFFF;" d="M173.737,321.467c0-0.729,0.18-1.435,0.539-2.117s0.868-1.203,1.527-1.562s1.395-0.539,2.207-0.539
			c1.255,0,2.284,0.407,3.086,1.223s1.203,1.845,1.203,3.09c0,1.255-0.405,2.296-1.215,3.121s-1.829,1.238-3.059,1.238
			c-0.761,0-1.485-0.172-2.176-0.516s-1.215-0.848-1.574-1.512S173.737,322.42,173.737,321.467z M175.987,321.584
			c0,0.823,0.195,1.453,0.586,1.891s0.872,0.656,1.445,0.656s1.054-0.219,1.441-0.656s0.582-1.073,0.582-1.906
			c0-0.812-0.194-1.438-0.582-1.875s-0.868-0.656-1.441-0.656s-1.055,0.219-1.445,0.656S175.987,320.761,175.987,321.584z"/>
		<path style="fill:#FFFFFF;" d="M191.565,325.733h-2.195v-4.234c0-0.896-0.047-1.476-0.141-1.738s-0.246-0.468-0.457-0.613
			s-0.465-0.219-0.762-0.219c-0.38,0-0.722,0.104-1.023,0.312s-0.509,0.484-0.621,0.828s-0.168,0.979-0.168,1.906v3.758h-2.195
			v-8.297h2.039v1.219c0.724-0.938,1.636-1.406,2.734-1.406c0.484,0,0.927,0.087,1.328,0.262s0.704,0.397,0.91,0.668
			s0.349,0.578,0.43,0.922s0.121,0.836,0.121,1.477V325.733z"/>
	</g>
</g>
</svg>
