<?xml version="1.0" encoding="utf-8"?>
<!-- Generator: Adobe Illustrator 22.0.1, SVG Export Plug-In . SVG Version: 6.00 Build 0)  -->
<svg version="1.1" id="Layer_1" xmlns="http://www.w3.org/2000/svg" xmlns:xlink="http://www.w3.org/1999/xlink" x="0px" y="0px"
	 viewBox="0 0 397.1 248.9" style="enable-background:new 0 0 397.1 248.9;" xml:space="preserve">
<style type="text/css">
	.st0{fill:#231F20;}
</style>
<path d="M369.3,209c17-15.1,27-33.5,27-53.4c0-32.5-26.7-61.1-67.1-77.6c2,6.8,3.1,13.9,3.1,21c0,29.8-18.2,57.6-51.1,78.3
	c-32.1,20.1-74.7,31.2-119.9,31.2c-12.3,0-24.4-0.8-36.1-2.4c26.3,25.3,71.8,42,123.6,42c38.9,0,74.2-9.4,100.6-24.9l38.7,21.9
	L369.3,209z"/>
<path class="st0" d="M314.4,72.7c-7.1-15.5-20.6-29.9-39.6-41.8C244.6,12,204.3,1.6,161.3,1.6S78.1,12,47.8,31
	C18.5,49.4,2.3,73.6,2.3,99.1c0,21.7,11.7,42.5,33.4,59.6l-14,41.1l35-27.4c16.6,9,35.8,15.6,56.5,19.7c15.4,3,31.6,4.6,48.2,4.6
	c43,0,83.3-10.4,113.5-29.4c29.4-18.4,45.5-42.6,45.5-68.1C320.3,90.1,318.3,81.2,314.4,72.7z"/>
</svg>
